<?xml version="1.0" encoding="utf-8" standalone="no"?>
<!DOCTYPE svg PUBLIC "-//W3C//DTD SVG 1.1//EN"
  "http://www.w3.org/Graphics/SVG/1.1/DTD/svg11.dtd">
<svg xmlns:xlink="http://www.w3.org/1999/xlink" width="614.358438pt" height="530.440437pt" viewBox="0 0 614.358438 530.440437" xmlns="http://www.w3.org/2000/svg" version="1.1">
 <metadata>
  <rdf:RDF xmlns:dc="http://purl.org/dc/elements/1.1/" xmlns:cc="http://creativecommons.org/ns#" xmlns:rdf="http://www.w3.org/1999/02/22-rdf-syntax-ns#">
   <cc:Work>
    <dc:type rdf:resource="http://purl.org/dc/dcmitype/StillImage"/>
    <dc:date>2026-02-24T12:29:04.131758</dc:date>
    <dc:format>image/svg+xml</dc:format>
    <dc:creator>
     <cc:Agent>
      <dc:title>Matplotlib v3.10.5, https://matplotlib.org/</dc:title>
     </cc:Agent>
    </dc:creator>
   </cc:Work>
  </rdf:RDF>
 </metadata>
 <defs>
  <style type="text/css">*{stroke-linejoin: round; stroke-linecap: butt}</style>
 </defs>
 <g id="figure_1">
  <g id="patch_1">
   <path d="M 0 530.440437 
L 614.358438 530.440437 
L 614.358438 0 
L 0 0 
z
" style="fill: #ffffff"/>
  </g>
  <g id="axes_1">
   <g id="patch_2">
    <path d="M 49.158438 491.578875 
L 607.158437 491.578875 
L 607.158437 48.058875 
L 49.158438 48.058875 
z
" style="fill: #ffffff"/>
   </g>
   <g id="PathCollection_1">
    <defs>
     <path id="C0_0_286f2715ac" d="M 0 5 
C 1.326016 5 2.597899 4.473168 3.535534 3.535534 
C 4.473168 2.597899 5 1.326016 5 -0 
C 5 -1.326016 4.473168 -2.597899 3.535534 -3.535534 
C 2.597899 -4.473168 1.326016 -5 0 -5 
C -1.326016 -5 -2.597899 -4.473168 -3.535534 -3.535534 
C -4.473168 -2.597899 -5 -1.326016 -5 0 
C -5 1.326016 -4.473168 2.597899 -3.535534 3.535534 
C -2.597899 4.473168 -1.326016 5 0 5 
z
"/>
    </defs>
    <g clip-path="url(#p7822dd561a)">
     <use xlink:href="#C0_0_286f2715ac" x="108.833779" y="229.418763" style="fill: #00008b"/>
    </g>
    <g clip-path="url(#p7822dd561a)">
     <use xlink:href="#C0_0_286f2715ac" x="149.240107" y="251.041384" style="fill: #00008b"/>
    </g>
    <g clip-path="url(#p7822dd561a)">
     <use xlink:href="#C0_0_286f2715ac" x="74.522074" y="134.220983" style="fill: #00008b"/>
    </g>
    <g clip-path="url(#p7822dd561a)">
     <use xlink:href="#C0_0_286f2715ac" x="287.758639" y="471.418875" style="fill: #00008b"/>
    </g>
    <g clip-path="url(#p7822dd561a)">
     <use xlink:href="#C0_0_286f2715ac" x="581.794801" y="453.971402" style="fill: #00008b"/>
    </g>
    <g clip-path="url(#p7822dd561a)">
     <use xlink:href="#C0_0_286f2715ac" x="435.024954" y="68.218875" style="fill: #00008b"/>
    </g>
    <g clip-path="url(#p7822dd561a)">
     <use xlink:href="#C0_0_286f2715ac" x="255.524784" y="117.340274" style="fill: #00008b"/>
    </g>
   </g>
   <g id="matplotlib.axis_1">
    <g id="xtick_1">
     <g id="line2d_1">
      <defs>
       <path id="m48ab96f785" d="M 0 0 
L 0 3.5 
" style="stroke: #000000; stroke-width: 0.8"/>
      </defs>
      <g>
       <use xlink:href="#m48ab96f785" x="90.38471" y="491.578875" style="stroke: #000000; stroke-width: 0.8"/>
      </g>
     </g>
     <g id="text_1">
      <text style="font-size: 10px; font-family: 'Helvetica', 'Arial', 'DejaVu Sans', 'Bitstream Vera Sans', 'Computer Modern Sans Serif', 'Lucida Grande', 'Verdana', 'Geneva', 'Lucid', 'Avant Garde', sans-serif; text-anchor: middle" x="90.38471" y="505.752312" transform="rotate(-0 90.38471 505.752312)">0.26</text>
     </g>
    </g>
    <g id="xtick_2">
     <g id="line2d_2">
      <g>
       <use xlink:href="#m48ab96f785" x="152.655998" y="491.578875" style="stroke: #000000; stroke-width: 0.8"/>
      </g>
     </g>
     <g id="text_2">
      <text style="font-size: 10px; font-family: 'Helvetica', 'Arial', 'DejaVu Sans', 'Bitstream Vera Sans', 'Computer Modern Sans Serif', 'Lucida Grande', 'Verdana', 'Geneva', 'Lucid', 'Avant Garde', sans-serif; text-anchor: middle" x="152.655998" y="505.752312" transform="rotate(-0 152.655998 505.752312)">0.27</text>
     </g>
    </g>
    <g id="xtick_3">
     <g id="line2d_3">
      <g>
       <use xlink:href="#m48ab96f785" x="214.927286" y="491.578875" style="stroke: #000000; stroke-width: 0.8"/>
      </g>
     </g>
     <g id="text_3">
      <text style="font-size: 10px; font-family: 'Helvetica', 'Arial', 'DejaVu Sans', 'Bitstream Vera Sans', 'Computer Modern Sans Serif', 'Lucida Grande', 'Verdana', 'Geneva', 'Lucid', 'Avant Garde', sans-serif; text-anchor: middle" x="214.927286" y="505.752312" transform="rotate(-0 214.927286 505.752312)">0.28</text>
     </g>
    </g>
    <g id="xtick_4">
     <g id="line2d_4">
      <g>
       <use xlink:href="#m48ab96f785" x="277.198574" y="491.578875" style="stroke: #000000; stroke-width: 0.8"/>
      </g>
     </g>
     <g id="text_4">
      <text style="font-size: 10px; font-family: 'Helvetica', 'Arial', 'DejaVu Sans', 'Bitstream Vera Sans', 'Computer Modern Sans Serif', 'Lucida Grande', 'Verdana', 'Geneva', 'Lucid', 'Avant Garde', sans-serif; text-anchor: middle" x="277.198574" y="505.752312" transform="rotate(-0 277.198574 505.752312)">0.29</text>
     </g>
    </g>
    <g id="xtick_5">
     <g id="line2d_5">
      <g>
       <use xlink:href="#m48ab96f785" x="339.469863" y="491.578875" style="stroke: #000000; stroke-width: 0.8"/>
      </g>
     </g>
     <g id="text_5">
      <text style="font-size: 10px; font-family: 'Helvetica', 'Arial', 'DejaVu Sans', 'Bitstream Vera Sans', 'Computer Modern Sans Serif', 'Lucida Grande', 'Verdana', 'Geneva', 'Lucid', 'Avant Garde', sans-serif; text-anchor: middle" x="339.469863" y="505.752312" transform="rotate(-0 339.469863 505.752312)">0.30</text>
     </g>
    </g>
    <g id="xtick_6">
     <g id="line2d_6">
      <g>
       <use xlink:href="#m48ab96f785" x="401.741151" y="491.578875" style="stroke: #000000; stroke-width: 0.8"/>
      </g>
     </g>
     <g id="text_6">
      <text style="font-size: 10px; font-family: 'Helvetica', 'Arial', 'DejaVu Sans', 'Bitstream Vera Sans', 'Computer Modern Sans Serif', 'Lucida Grande', 'Verdana', 'Geneva', 'Lucid', 'Avant Garde', sans-serif; text-anchor: middle" x="401.741151" y="505.752312" transform="rotate(-0 401.741151 505.752312)">0.31</text>
     </g>
    </g>
    <g id="xtick_7">
     <g id="line2d_7">
      <g>
       <use xlink:href="#m48ab96f785" x="464.012439" y="491.578875" style="stroke: #000000; stroke-width: 0.8"/>
      </g>
     </g>
     <g id="text_7">
      <text style="font-size: 10px; font-family: 'Helvetica', 'Arial', 'DejaVu Sans', 'Bitstream Vera Sans', 'Computer Modern Sans Serif', 'Lucida Grande', 'Verdana', 'Geneva', 'Lucid', 'Avant Garde', sans-serif; text-anchor: middle" x="464.012439" y="505.752312" transform="rotate(-0 464.012439 505.752312)">0.32</text>
     </g>
    </g>
    <g id="xtick_8">
     <g id="line2d_8">
      <g>
       <use xlink:href="#m48ab96f785" x="526.283727" y="491.578875" style="stroke: #000000; stroke-width: 0.8"/>
      </g>
     </g>
     <g id="text_8">
      <text style="font-size: 10px; font-family: 'Helvetica', 'Arial', 'DejaVu Sans', 'Bitstream Vera Sans', 'Computer Modern Sans Serif', 'Lucida Grande', 'Verdana', 'Geneva', 'Lucid', 'Avant Garde', sans-serif; text-anchor: middle" x="526.283727" y="505.752312" transform="rotate(-0 526.283727 505.752312)">0.33</text>
     </g>
    </g>
    <g id="xtick_9">
     <g id="line2d_9">
      <g>
       <use xlink:href="#m48ab96f785" x="588.555015" y="491.578875" style="stroke: #000000; stroke-width: 0.8"/>
      </g>
     </g>
     <g id="text_9">
      <text style="font-size: 10px; font-family: 'Helvetica', 'Arial', 'DejaVu Sans', 'Bitstream Vera Sans', 'Computer Modern Sans Serif', 'Lucida Grande', 'Verdana', 'Geneva', 'Lucid', 'Avant Garde', sans-serif; text-anchor: middle" x="588.555015" y="505.752312" transform="rotate(-0 588.555015 505.752312)">0.34</text>
     </g>
    </g>
    <g id="text_10">
     <text style="font-size: 12px; font-family: 'Helvetica', 'Arial', 'DejaVu Sans', 'Bitstream Vera Sans', 'Computer Modern Sans Serif', 'Lucida Grande', 'Verdana', 'Geneva', 'Lucid', 'Avant Garde', sans-serif; text-anchor: middle" x="328.158437" y="520.585437" transform="rotate(-0 328.158437 520.585437)">H2B Intensity (log10)</text>
    </g>
   </g>
   <g id="matplotlib.axis_2">
    <g id="ytick_1">
     <g id="line2d_10">
      <defs>
       <path id="m7820ef30a3" d="M 0 0 
L -3.5 0 
" style="stroke: #000000; stroke-width: 0.8"/>
      </defs>
      <g>
       <use xlink:href="#m7820ef30a3" x="49.158438" y="414.157312" style="stroke: #000000; stroke-width: 0.8"/>
      </g>
     </g>
     <g id="text_11">
      <text style="font-size: 10px; font-family: 'Helvetica', 'Arial', 'DejaVu Sans', 'Bitstream Vera Sans', 'Computer Modern Sans Serif', 'Lucida Grande', 'Verdana', 'Geneva', 'Lucid', 'Avant Garde', sans-serif; text-anchor: end" x="42.158438" y="417.744031" transform="rotate(-0 42.158438 417.744031)">0.08</text>
     </g>
    </g>
    <g id="ytick_2">
     <g id="line2d_11">
      <g>
       <use xlink:href="#m7820ef30a3" x="49.158438" y="322.412321" style="stroke: #000000; stroke-width: 0.8"/>
      </g>
     </g>
     <g id="text_12">
      <text style="font-size: 10px; font-family: 'Helvetica', 'Arial', 'DejaVu Sans', 'Bitstream Vera Sans', 'Computer Modern Sans Serif', 'Lucida Grande', 'Verdana', 'Geneva', 'Lucid', 'Avant Garde', sans-serif; text-anchor: end" x="42.158438" y="325.99904" transform="rotate(-0 42.158438 325.99904)">0.10</text>
     </g>
    </g>
    <g id="ytick_3">
     <g id="line2d_12">
      <g>
       <use xlink:href="#m7820ef30a3" x="49.158438" y="230.66733" style="stroke: #000000; stroke-width: 0.8"/>
      </g>
     </g>
     <g id="text_13">
      <text style="font-size: 10px; font-family: 'Helvetica', 'Arial', 'DejaVu Sans', 'Bitstream Vera Sans', 'Computer Modern Sans Serif', 'Lucida Grande', 'Verdana', 'Geneva', 'Lucid', 'Avant Garde', sans-serif; text-anchor: end" x="42.158438" y="234.254049" transform="rotate(-0 42.158438 234.254049)">0.12</text>
     </g>
    </g>
    <g id="ytick_4">
     <g id="line2d_13">
      <g>
       <use xlink:href="#m7820ef30a3" x="49.158438" y="138.922339" style="stroke: #000000; stroke-width: 0.8"/>
      </g>
     </g>
     <g id="text_14">
      <text style="font-size: 10px; font-family: 'Helvetica', 'Arial', 'DejaVu Sans', 'Bitstream Vera Sans', 'Computer Modern Sans Serif', 'Lucida Grande', 'Verdana', 'Geneva', 'Lucid', 'Avant Garde', sans-serif; text-anchor: end" x="42.158438" y="142.509058" transform="rotate(-0 42.158438 142.509058)">0.14</text>
     </g>
    </g>
    <g id="text_15">
     <text style="font-size: 12px; font-family: 'Helvetica', 'Arial', 'DejaVu Sans', 'Bitstream Vera Sans', 'Computer Modern Sans Serif', 'Lucida Grande', 'Verdana', 'Geneva', 'Lucid', 'Avant Garde', sans-serif; text-anchor: middle" x="16.0425" y="269.818875" transform="rotate(-90 16.0425 269.818875)">VSV Intensity (log10)</text>
    </g>
   </g>
   <g id="line2d_14">
    <path d="M 74.522074 183.759123 
L 79.646041 185.400969 
L 84.770008 187.042815 
L 89.893975 188.684661 
L 95.017942 190.326507 
L 100.141909 191.968353 
L 105.265876 193.610199 
L 110.389842 195.252046 
L 115.513809 196.893892 
L 120.637776 198.535738 
L 125.761743 200.177584 
L 130.88571 201.81943 
L 136.009677 203.461276 
L 141.133644 205.103122 
L 146.257611 206.744968 
L 151.381578 208.386814 
L 156.505545 210.02866 
L 161.629512 211.670506 
L 166.753479 213.312352 
L 171.877446 214.954198 
L 177.001413 216.596044 
L 182.12538 218.23789 
L 187.249347 219.879737 
L 192.373314 221.521583 
L 197.49728 223.163429 
L 202.621247 224.805275 
L 207.745214 226.447121 
L 212.869181 228.088967 
L 217.993148 229.730813 
L 223.117115 231.372659 
L 228.241082 233.014505 
L 233.365049 234.656351 
L 238.489016 236.298197 
L 243.612983 237.940043 
L 248.73695 239.581889 
L 253.860917 241.223735 
L 258.984884 242.865582 
L 264.108851 244.507428 
L 269.232818 246.149274 
L 274.356785 247.79112 
L 279.480752 249.432966 
L 284.604718 251.074812 
L 289.728685 252.716658 
L 294.852652 254.358504 
L 299.976619 256.00035 
L 305.100586 257.642196 
L 310.224553 259.284042 
L 315.34852 260.925888 
L 320.472487 262.567734 
L 325.596454 264.20958 
L 330.720421 265.851426 
L 335.844388 267.493273 
L 340.968355 269.135119 
L 346.092322 270.776965 
L 351.216289 272.418811 
L 356.340256 274.060657 
L 361.464223 275.702503 
L 366.58819 277.344349 
L 371.712157 278.986195 
L 376.836123 280.628041 
L 381.96009 282.269887 
L 387.084057 283.911733 
L 392.208024 285.553579 
L 397.331991 287.195425 
L 402.455958 288.837271 
L 407.579925 290.479118 
L 412.703892 292.120964 
L 417.827859 293.76281 
L 422.951826 295.404656 
L 428.075793 297.046502 
L 433.19976 298.688348 
L 438.323727 300.330194 
L 443.447694 301.97204 
L 448.571661 303.613886 
L 453.695628 305.255732 
L 458.819595 306.897578 
L 463.943561 308.539424 
L 469.067528 310.18127 
L 474.191495 311.823116 
L 479.315462 313.464962 
L 484.439429 315.106809 
L 489.563396 316.748655 
L 494.687363 318.390501 
L 499.81133 320.032347 
L 504.935297 321.674193 
L 510.059264 323.316039 
L 515.183231 324.957885 
L 520.307198 326.599731 
L 525.431165 328.241577 
L 530.555132 329.883423 
L 535.679099 331.525269 
L 540.803066 333.167115 
L 545.927033 334.808961 
L 551.050999 336.450807 
L 556.174966 338.092654 
L 561.298933 339.7345 
L 566.4229 341.376346 
L 571.546867 343.018192 
L 576.670834 344.660038 
L 581.794801 346.301884 
" clip-path="url(#p7822dd561a)" style="fill: none; stroke: #000000; stroke-width: 2; stroke-linecap: square"/>
   </g>
   <g id="patch_3">
    <path d="M 49.158438 491.578875 
L 49.158438 48.058875 
" style="fill: none; stroke: #000000; stroke-width: 0.8; stroke-linejoin: miter; stroke-linecap: square"/>
   </g>
   <g id="patch_4">
    <path d="M 49.158437 491.578875 
L 607.158437 491.578875 
" style="fill: none; stroke: #000000; stroke-width: 0.8; stroke-linejoin: miter; stroke-linecap: square"/>
   </g>
   <g id="text_16">
    <text style="font-size: 9px; font-family: 'Helvetica', 'Arial', 'DejaVu Sans', 'Bitstream Vera Sans', 'Computer Modern Sans Serif', 'Lucida Grande', 'Verdana', 'Geneva', 'Lucid', 'Avant Garde', sans-serif; text-anchor: start" x="113.833779" y="224.418763" transform="rotate(-0 113.833779 224.418763)">A</text>
   </g>
   <g id="text_17">
    <text style="font-size: 9px; font-family: 'Helvetica', 'Arial', 'DejaVu Sans', 'Bitstream Vera Sans', 'Computer Modern Sans Serif', 'Lucida Grande', 'Verdana', 'Geneva', 'Lucid', 'Avant Garde', sans-serif; text-anchor: start" x="154.240107" y="246.041384" transform="rotate(-0 154.240107 246.041384)">AL</text>
   </g>
   <g id="text_18">
    <text style="font-size: 9px; font-family: 'Helvetica', 'Arial', 'DejaVu Sans', 'Bitstream Vera Sans', 'Computer Modern Sans Serif', 'Lucida Grande', 'Verdana', 'Geneva', 'Lucid', 'Avant Garde', sans-serif; text-anchor: start" x="79.522074" y="129.220983" transform="rotate(-0 79.522074 129.220983)">AM</text>
   </g>
   <g id="text_19">
    <text style="font-size: 9px; font-family: 'Helvetica', 'Arial', 'DejaVu Sans', 'Bitstream Vera Sans', 'Computer Modern Sans Serif', 'Lucida Grande', 'Verdana', 'Geneva', 'Lucid', 'Avant Garde', sans-serif; text-anchor: start" x="292.758639" y="466.418875" transform="rotate(-0 292.758639 466.418875)">LM</text>
   </g>
   <g id="text_20">
    <text style="font-size: 9px; font-family: 'Helvetica', 'Arial', 'DejaVu Sans', 'Bitstream Vera Sans', 'Computer Modern Sans Serif', 'Lucida Grande', 'Verdana', 'Geneva', 'Lucid', 'Avant Garde', sans-serif; text-anchor: start" x="586.794801" y="448.971402" transform="rotate(-0 586.794801 448.971402)">LI</text>
   </g>
   <g id="text_21">
    <text style="font-size: 9px; font-family: 'Helvetica', 'Arial', 'DejaVu Sans', 'Bitstream Vera Sans', 'Computer Modern Sans Serif', 'Lucida Grande', 'Verdana', 'Geneva', 'Lucid', 'Avant Garde', sans-serif; text-anchor: start" x="440.024954" y="63.218875" transform="rotate(-0 440.024954 63.218875)">PM</text>
   </g>
   <g id="text_22">
    <text style="font-size: 9px; font-family: 'Helvetica', 'Arial', 'DejaVu Sans', 'Bitstream Vera Sans', 'Computer Modern Sans Serif', 'Lucida Grande', 'Verdana', 'Geneva', 'Lucid', 'Avant Garde', sans-serif; text-anchor: start" x="260.524784" y="112.340274" transform="rotate(-0 260.524784 112.340274)">RL</text>
   </g>
   <g id="text_23">
    <text style="font-size: 12px; font-family: 'Helvetica', 'Arial', 'DejaVu Sans', 'Bitstream Vera Sans', 'Computer Modern Sans Serif', 'Lucida Grande', 'Verdana', 'Geneva', 'Lucid', 'Avant Garde', sans-serif" transform="translate(282.469375 15.808125)">p20 - All Regions</text>
    <text style="font-size: 12px; font-family: 'Helvetica', 'Arial', 'DejaVu Sans', 'Bitstream Vera Sans', 'Computer Modern Sans Serif', 'Lucida Grande', 'Verdana', 'Geneva', 'Lucid', 'Avant Garde', sans-serif" transform="translate(249.4675 29.074125)">Complete Pairs Analysis (log)</text>
    <text style="font-size: 12px; font-family: 'Helvetica', 'Arial', 'DejaVu Sans', 'Bitstream Vera Sans', 'Computer Modern Sans Serif', 'Lucida Grande', 'Verdana', 'Geneva', 'Lucid', 'Avant Garde', sans-serif" transform="translate(266.457812 42.058875)">r = -0.3673, r² = 0.1349</text>
   </g>
  </g>
 </g>
 <defs>
  <clipPath id="p7822dd561a">
   <rect x="49.158438" y="48.058875" width="558" height="443.52"/>
  </clipPath>
 </defs>
</svg>
