<?xml version="1.0" encoding="utf-8" standalone="no"?>
<!DOCTYPE svg PUBLIC "-//W3C//DTD SVG 1.1//EN"
  "http://www.w3.org/Graphics/SVG/1.1/DTD/svg11.dtd">
<svg xmlns:xlink="http://www.w3.org/1999/xlink" width="614.358438pt" height="530.440437pt" viewBox="0 0 614.358438 530.440437" xmlns="http://www.w3.org/2000/svg" version="1.1">
 <metadata>
  <rdf:RDF xmlns:dc="http://purl.org/dc/elements/1.1/" xmlns:cc="http://creativecommons.org/ns#" xmlns:rdf="http://www.w3.org/1999/02/22-rdf-syntax-ns#">
   <cc:Work>
    <dc:type rdf:resource="http://purl.org/dc/dcmitype/StillImage"/>
    <dc:date>2026-02-24T12:29:03.695308</dc:date>
    <dc:format>image/svg+xml</dc:format>
    <dc:creator>
     <cc:Agent>
      <dc:title>Matplotlib v3.10.5, https://matplotlib.org/</dc:title>
     </cc:Agent>
    </dc:creator>
   </cc:Work>
  </rdf:RDF>
 </metadata>
 <defs>
  <style type="text/css">*{stroke-linejoin: round; stroke-linecap: butt}</style>
 </defs>
 <g id="figure_1">
  <g id="patch_1">
   <path d="M 0 530.440437 
L 614.358438 530.440437 
L 614.358438 0 
L 0 0 
z
" style="fill: #ffffff"/>
  </g>
  <g id="axes_1">
   <g id="patch_2">
    <path d="M 49.158438 491.578875 
L 607.158437 491.578875 
L 607.158437 48.058875 
L 49.158438 48.058875 
z
" style="fill: #ffffff"/>
   </g>
   <g id="PathCollection_1">
    <defs>
     <path id="C0_0_9d75f49a8a" d="M 0 5 
C 1.326016 5 2.597899 4.473168 3.535534 3.535534 
C 4.473168 2.597899 5 1.326016 5 -0 
C 5 -1.326016 4.473168 -2.597899 3.535534 -3.535534 
C 2.597899 -4.473168 1.326016 -5 0 -5 
C -1.326016 -5 -2.597899 -4.473168 -3.535534 -3.535534 
C -4.473168 -2.597899 -5 -1.326016 -5 0 
C -5 1.326016 -4.473168 2.597899 -3.535534 3.535534 
C -2.597899 4.473168 -1.326016 5 0 5 
z
"/>
    </defs>
    <g clip-path="url(#peb30614e2a)">
     <use xlink:href="#C0_0_9d75f49a8a" x="532.287235" y="68.218875" style="fill: #00008b"/>
    </g>
    <g clip-path="url(#peb30614e2a)">
     <use xlink:href="#C0_0_9d75f49a8a" x="340.691417" y="332.988915" style="fill: #00008b"/>
    </g>
    <g clip-path="url(#peb30614e2a)">
     <use xlink:href="#C0_0_9d75f49a8a" x="74.522074" y="334.171362" style="fill: #00008b"/>
    </g>
    <g clip-path="url(#peb30614e2a)">
     <use xlink:href="#C0_0_9d75f49a8a" x="581.794801" y="333.568136" style="fill: #00008b"/>
    </g>
    <g clip-path="url(#peb30614e2a)">
     <use xlink:href="#C0_0_9d75f49a8a" x="400.967877" y="311.86777" style="fill: #00008b"/>
    </g>
    <g clip-path="url(#peb30614e2a)">
     <use xlink:href="#C0_0_9d75f49a8a" x="77.359436" y="471.418875" style="fill: #00008b"/>
    </g>
    <g clip-path="url(#peb30614e2a)">
     <use xlink:href="#C0_0_9d75f49a8a" x="176.923961" y="351.144045" style="fill: #00008b"/>
    </g>
    <g clip-path="url(#peb30614e2a)">
     <use xlink:href="#C0_0_9d75f49a8a" x="367.773231" y="356.440077" style="fill: #00008b"/>
    </g>
   </g>
   <g id="matplotlib.axis_1">
    <g id="xtick_1">
     <g id="line2d_1">
      <defs>
       <path id="m647d563e0c" d="M 0 0 
L 0 3.5 
" style="stroke: #000000; stroke-width: 0.8"/>
      </defs>
      <g>
       <use xlink:href="#m647d563e0c" x="71.092153" y="491.578875" style="stroke: #000000; stroke-width: 0.8"/>
      </g>
     </g>
     <g id="text_1">
      <text style="font-size: 10px; font-family: 'Helvetica', 'Arial', 'DejaVu Sans', 'Bitstream Vera Sans', 'Computer Modern Sans Serif', 'Lucida Grande', 'Verdana', 'Geneva', 'Lucid', 'Avant Garde', sans-serif; text-anchor: middle" x="71.092153" y="505.752312" transform="rotate(-0 71.092153 505.752312)">0.35</text>
     </g>
    </g>
    <g id="xtick_2">
     <g id="line2d_2">
      <g>
       <use xlink:href="#m647d563e0c" x="149.191355" y="491.578875" style="stroke: #000000; stroke-width: 0.8"/>
      </g>
     </g>
     <g id="text_2">
      <text style="font-size: 10px; font-family: 'Helvetica', 'Arial', 'DejaVu Sans', 'Bitstream Vera Sans', 'Computer Modern Sans Serif', 'Lucida Grande', 'Verdana', 'Geneva', 'Lucid', 'Avant Garde', sans-serif; text-anchor: middle" x="149.191355" y="505.752312" transform="rotate(-0 149.191355 505.752312)">0.36</text>
     </g>
    </g>
    <g id="xtick_3">
     <g id="line2d_3">
      <g>
       <use xlink:href="#m647d563e0c" x="227.290558" y="491.578875" style="stroke: #000000; stroke-width: 0.8"/>
      </g>
     </g>
     <g id="text_3">
      <text style="font-size: 10px; font-family: 'Helvetica', 'Arial', 'DejaVu Sans', 'Bitstream Vera Sans', 'Computer Modern Sans Serif', 'Lucida Grande', 'Verdana', 'Geneva', 'Lucid', 'Avant Garde', sans-serif; text-anchor: middle" x="227.290558" y="505.752312" transform="rotate(-0 227.290558 505.752312)">0.37</text>
     </g>
    </g>
    <g id="xtick_4">
     <g id="line2d_4">
      <g>
       <use xlink:href="#m647d563e0c" x="305.38976" y="491.578875" style="stroke: #000000; stroke-width: 0.8"/>
      </g>
     </g>
     <g id="text_4">
      <text style="font-size: 10px; font-family: 'Helvetica', 'Arial', 'DejaVu Sans', 'Bitstream Vera Sans', 'Computer Modern Sans Serif', 'Lucida Grande', 'Verdana', 'Geneva', 'Lucid', 'Avant Garde', sans-serif; text-anchor: middle" x="305.38976" y="505.752312" transform="rotate(-0 305.38976 505.752312)">0.38</text>
     </g>
    </g>
    <g id="xtick_5">
     <g id="line2d_5">
      <g>
       <use xlink:href="#m647d563e0c" x="383.488963" y="491.578875" style="stroke: #000000; stroke-width: 0.8"/>
      </g>
     </g>
     <g id="text_5">
      <text style="font-size: 10px; font-family: 'Helvetica', 'Arial', 'DejaVu Sans', 'Bitstream Vera Sans', 'Computer Modern Sans Serif', 'Lucida Grande', 'Verdana', 'Geneva', 'Lucid', 'Avant Garde', sans-serif; text-anchor: middle" x="383.488963" y="505.752312" transform="rotate(-0 383.488963 505.752312)">0.39</text>
     </g>
    </g>
    <g id="xtick_6">
     <g id="line2d_6">
      <g>
       <use xlink:href="#m647d563e0c" x="461.588165" y="491.578875" style="stroke: #000000; stroke-width: 0.8"/>
      </g>
     </g>
     <g id="text_6">
      <text style="font-size: 10px; font-family: 'Helvetica', 'Arial', 'DejaVu Sans', 'Bitstream Vera Sans', 'Computer Modern Sans Serif', 'Lucida Grande', 'Verdana', 'Geneva', 'Lucid', 'Avant Garde', sans-serif; text-anchor: middle" x="461.588165" y="505.752312" transform="rotate(-0 461.588165 505.752312)">0.40</text>
     </g>
    </g>
    <g id="xtick_7">
     <g id="line2d_7">
      <g>
       <use xlink:href="#m647d563e0c" x="539.687368" y="491.578875" style="stroke: #000000; stroke-width: 0.8"/>
      </g>
     </g>
     <g id="text_7">
      <text style="font-size: 10px; font-family: 'Helvetica', 'Arial', 'DejaVu Sans', 'Bitstream Vera Sans', 'Computer Modern Sans Serif', 'Lucida Grande', 'Verdana', 'Geneva', 'Lucid', 'Avant Garde', sans-serif; text-anchor: middle" x="539.687368" y="505.752312" transform="rotate(-0 539.687368 505.752312)">0.41</text>
     </g>
    </g>
    <g id="text_8">
     <text style="font-size: 12px; font-family: 'Helvetica', 'Arial', 'DejaVu Sans', 'Bitstream Vera Sans', 'Computer Modern Sans Serif', 'Lucida Grande', 'Verdana', 'Geneva', 'Lucid', 'Avant Garde', sans-serif; text-anchor: middle" x="328.158437" y="520.585437" transform="rotate(-0 328.158437 520.585437)">H2B Intensity (log10)</text>
    </g>
   </g>
   <g id="matplotlib.axis_2">
    <g id="ytick_1">
     <g id="line2d_8">
      <defs>
       <path id="m4d54dcfa2d" d="M 0 0 
L -3.5 0 
" style="stroke: #000000; stroke-width: 0.8"/>
      </defs>
      <g>
       <use xlink:href="#m4d54dcfa2d" x="49.158438" y="462.203344" style="stroke: #000000; stroke-width: 0.8"/>
      </g>
     </g>
     <g id="text_9">
      <text style="font-size: 10px; font-family: 'Helvetica', 'Arial', 'DejaVu Sans', 'Bitstream Vera Sans', 'Computer Modern Sans Serif', 'Lucida Grande', 'Verdana', 'Geneva', 'Lucid', 'Avant Garde', sans-serif; text-anchor: end" x="42.158438" y="465.790063" transform="rotate(-0 42.158438 465.790063)">0.05</text>
     </g>
    </g>
    <g id="ytick_2">
     <g id="line2d_9">
      <g>
       <use xlink:href="#m4d54dcfa2d" x="49.158438" y="386.874226" style="stroke: #000000; stroke-width: 0.8"/>
      </g>
     </g>
     <g id="text_10">
      <text style="font-size: 10px; font-family: 'Helvetica', 'Arial', 'DejaVu Sans', 'Bitstream Vera Sans', 'Computer Modern Sans Serif', 'Lucida Grande', 'Verdana', 'Geneva', 'Lucid', 'Avant Garde', sans-serif; text-anchor: end" x="42.158438" y="390.460945" transform="rotate(-0 42.158438 390.460945)">0.06</text>
     </g>
    </g>
    <g id="ytick_3">
     <g id="line2d_10">
      <g>
       <use xlink:href="#m4d54dcfa2d" x="49.158438" y="311.545108" style="stroke: #000000; stroke-width: 0.8"/>
      </g>
     </g>
     <g id="text_11">
      <text style="font-size: 10px; font-family: 'Helvetica', 'Arial', 'DejaVu Sans', 'Bitstream Vera Sans', 'Computer Modern Sans Serif', 'Lucida Grande', 'Verdana', 'Geneva', 'Lucid', 'Avant Garde', sans-serif; text-anchor: end" x="42.158438" y="315.131827" transform="rotate(-0 42.158438 315.131827)">0.07</text>
     </g>
    </g>
    <g id="ytick_4">
     <g id="line2d_11">
      <g>
       <use xlink:href="#m4d54dcfa2d" x="49.158438" y="236.215991" style="stroke: #000000; stroke-width: 0.8"/>
      </g>
     </g>
     <g id="text_12">
      <text style="font-size: 10px; font-family: 'Helvetica', 'Arial', 'DejaVu Sans', 'Bitstream Vera Sans', 'Computer Modern Sans Serif', 'Lucida Grande', 'Verdana', 'Geneva', 'Lucid', 'Avant Garde', sans-serif; text-anchor: end" x="42.158438" y="239.802709" transform="rotate(-0 42.158438 239.802709)">0.08</text>
     </g>
    </g>
    <g id="ytick_5">
     <g id="line2d_12">
      <g>
       <use xlink:href="#m4d54dcfa2d" x="49.158438" y="160.886873" style="stroke: #000000; stroke-width: 0.8"/>
      </g>
     </g>
     <g id="text_13">
      <text style="font-size: 10px; font-family: 'Helvetica', 'Arial', 'DejaVu Sans', 'Bitstream Vera Sans', 'Computer Modern Sans Serif', 'Lucida Grande', 'Verdana', 'Geneva', 'Lucid', 'Avant Garde', sans-serif; text-anchor: end" x="42.158438" y="164.473592" transform="rotate(-0 42.158438 164.473592)">0.09</text>
     </g>
    </g>
    <g id="ytick_6">
     <g id="line2d_13">
      <g>
       <use xlink:href="#m4d54dcfa2d" x="49.158438" y="85.557755" style="stroke: #000000; stroke-width: 0.8"/>
      </g>
     </g>
     <g id="text_14">
      <text style="font-size: 10px; font-family: 'Helvetica', 'Arial', 'DejaVu Sans', 'Bitstream Vera Sans', 'Computer Modern Sans Serif', 'Lucida Grande', 'Verdana', 'Geneva', 'Lucid', 'Avant Garde', sans-serif; text-anchor: end" x="42.158438" y="89.144474" transform="rotate(-0 42.158438 89.144474)">0.10</text>
     </g>
    </g>
    <g id="text_15">
     <text style="font-size: 12px; font-family: 'Helvetica', 'Arial', 'DejaVu Sans', 'Bitstream Vera Sans', 'Computer Modern Sans Serif', 'Lucida Grande', 'Verdana', 'Geneva', 'Lucid', 'Avant Garde', sans-serif; text-anchor: middle" x="16.0425" y="269.818875" transform="rotate(-90 16.0425 269.818875)">VSV Intensity (log10)</text>
    </g>
   </g>
   <g id="line2d_14">
    <path d="M 74.522074 406.824506 
L 79.646041 405.004589 
L 84.770008 403.184671 
L 89.893975 401.364754 
L 95.017942 399.544836 
L 100.141909 397.724919 
L 105.265876 395.905002 
L 110.389842 394.085084 
L 115.513809 392.265167 
L 120.637776 390.445249 
L 125.761743 388.625332 
L 130.88571 386.805415 
L 136.009677 384.985497 
L 141.133644 383.16558 
L 146.257611 381.345663 
L 151.381578 379.525745 
L 156.505545 377.705828 
L 161.629512 375.88591 
L 166.753479 374.065993 
L 171.877446 372.246076 
L 177.001413 370.426158 
L 182.12538 368.606241 
L 187.249347 366.786323 
L 192.373314 364.966406 
L 197.49728 363.146489 
L 202.621247 361.326571 
L 207.745214 359.506654 
L 212.869181 357.686736 
L 217.993148 355.866819 
L 223.117115 354.046902 
L 228.241082 352.226984 
L 233.365049 350.407067 
L 238.489016 348.587149 
L 243.612983 346.767232 
L 248.73695 344.947315 
L 253.860917 343.127397 
L 258.984884 341.30748 
L 264.108851 339.487563 
L 269.232818 337.667645 
L 274.356785 335.847728 
L 279.480752 334.02781 
L 284.604718 332.207893 
L 289.728685 330.387976 
L 294.852652 328.568058 
L 299.976619 326.748141 
L 305.100586 324.928223 
L 310.224553 323.108306 
L 315.34852 321.288389 
L 320.472487 319.468471 
L 325.596454 317.648554 
L 330.720421 315.828636 
L 335.844388 314.008719 
L 340.968355 312.188802 
L 346.092322 310.368884 
L 351.216289 308.548967 
L 356.340256 306.72905 
L 361.464223 304.909132 
L 366.58819 303.089215 
L 371.712157 301.269297 
L 376.836123 299.44938 
L 381.96009 297.629463 
L 387.084057 295.809545 
L 392.208024 293.989628 
L 397.331991 292.16971 
L 402.455958 290.349793 
L 407.579925 288.529876 
L 412.703892 286.709958 
L 417.827859 284.890041 
L 422.951826 283.070123 
L 428.075793 281.250206 
L 433.19976 279.430289 
L 438.323727 277.610371 
L 443.447694 275.790454 
L 448.571661 273.970537 
L 453.695628 272.150619 
L 458.819595 270.330702 
L 463.943561 268.510784 
L 469.067528 266.690867 
L 474.191495 264.87095 
L 479.315462 263.051032 
L 484.439429 261.231115 
L 489.563396 259.411197 
L 494.687363 257.59128 
L 499.81133 255.771363 
L 504.935297 253.951445 
L 510.059264 252.131528 
L 515.183231 250.31161 
L 520.307198 248.491693 
L 525.431165 246.671776 
L 530.555132 244.851858 
L 535.679099 243.031941 
L 540.803066 241.212024 
L 545.927033 239.392106 
L 551.050999 237.572189 
L 556.174966 235.752271 
L 561.298933 233.932354 
L 566.4229 232.112437 
L 571.546867 230.292519 
L 576.670834 228.472602 
L 581.794801 226.652684 
" clip-path="url(#peb30614e2a)" style="fill: none; stroke: #000000; stroke-width: 2; stroke-linecap: square"/>
   </g>
   <g id="patch_3">
    <path d="M 49.158438 491.578875 
L 49.158438 48.058875 
" style="fill: none; stroke: #000000; stroke-width: 0.8; stroke-linejoin: miter; stroke-linecap: square"/>
   </g>
   <g id="patch_4">
    <path d="M 49.158438 491.578875 
L 607.158438 491.578875 
" style="fill: none; stroke: #000000; stroke-width: 0.8; stroke-linejoin: miter; stroke-linecap: square"/>
   </g>
   <g id="text_16">
    <text style="font-size: 9px; font-family: 'Helvetica', 'Arial', 'DejaVu Sans', 'Bitstream Vera Sans', 'Computer Modern Sans Serif', 'Lucida Grande', 'Verdana', 'Geneva', 'Lucid', 'Avant Garde', sans-serif; text-anchor: start" x="537.287235" y="63.218875" transform="rotate(-0 537.287235 63.218875)">A</text>
   </g>
   <g id="text_17">
    <text style="font-size: 9px; font-family: 'Helvetica', 'Arial', 'DejaVu Sans', 'Bitstream Vera Sans', 'Computer Modern Sans Serif', 'Lucida Grande', 'Verdana', 'Geneva', 'Lucid', 'Avant Garde', sans-serif; text-anchor: start" x="345.691417" y="327.988915" transform="rotate(-0 345.691417 327.988915)">AL</text>
   </g>
   <g id="text_18">
    <text style="font-size: 9px; font-family: 'Helvetica', 'Arial', 'DejaVu Sans', 'Bitstream Vera Sans', 'Computer Modern Sans Serif', 'Lucida Grande', 'Verdana', 'Geneva', 'Lucid', 'Avant Garde', sans-serif; text-anchor: start" x="79.522074" y="329.171362" transform="rotate(-0 79.522074 329.171362)">AM</text>
   </g>
   <g id="text_19">
    <text style="font-size: 9px; font-family: 'Helvetica', 'Arial', 'DejaVu Sans', 'Bitstream Vera Sans', 'Computer Modern Sans Serif', 'Lucida Grande', 'Verdana', 'Geneva', 'Lucid', 'Avant Garde', sans-serif; text-anchor: start" x="586.794801" y="328.568136" transform="rotate(-0 586.794801 328.568136)">LM</text>
   </g>
   <g id="text_20">
    <text style="font-size: 9px; font-family: 'Helvetica', 'Arial', 'DejaVu Sans', 'Bitstream Vera Sans', 'Computer Modern Sans Serif', 'Lucida Grande', 'Verdana', 'Geneva', 'Lucid', 'Avant Garde', sans-serif; text-anchor: start" x="405.967877" y="306.86777" transform="rotate(-0 405.967877 306.86777)">LI</text>
   </g>
   <g id="text_21">
    <text style="font-size: 9px; font-family: 'Helvetica', 'Arial', 'DejaVu Sans', 'Bitstream Vera Sans', 'Computer Modern Sans Serif', 'Lucida Grande', 'Verdana', 'Geneva', 'Lucid', 'Avant Garde', sans-serif; text-anchor: start" x="82.359436" y="466.418875" transform="rotate(-0 82.359436 466.418875)">PM</text>
   </g>
   <g id="text_22">
    <text style="font-size: 9px; font-family: 'Helvetica', 'Arial', 'DejaVu Sans', 'Bitstream Vera Sans', 'Computer Modern Sans Serif', 'Lucida Grande', 'Verdana', 'Geneva', 'Lucid', 'Avant Garde', sans-serif; text-anchor: start" x="181.923961" y="346.144045" transform="rotate(-0 181.923961 346.144045)">POR</text>
   </g>
   <g id="text_23">
    <text style="font-size: 9px; font-family: 'Helvetica', 'Arial', 'DejaVu Sans', 'Bitstream Vera Sans', 'Computer Modern Sans Serif', 'Lucida Grande', 'Verdana', 'Geneva', 'Lucid', 'Avant Garde', sans-serif; text-anchor: start" x="372.773231" y="351.440077" transform="rotate(-0 372.773231 351.440077)">RL</text>
   </g>
   <g id="text_24">
    <text style="font-size: 12px; font-family: 'Helvetica', 'Arial', 'DejaVu Sans', 'Bitstream Vera Sans', 'Computer Modern Sans Serif', 'Lucida Grande', 'Verdana', 'Geneva', 'Lucid', 'Avant Garde', sans-serif" transform="translate(285.805937 15.808125)">p3 - All Regions</text>
    <text style="font-size: 12px; font-family: 'Helvetica', 'Arial', 'DejaVu Sans', 'Bitstream Vera Sans', 'Computer Modern Sans Serif', 'Lucida Grande', 'Verdana', 'Geneva', 'Lucid', 'Avant Garde', sans-serif" transform="translate(249.4675 29.074125)">Complete Pairs Analysis (log)</text>
    <text style="font-size: 12px; font-family: 'Helvetica', 'Arial', 'DejaVu Sans', 'Bitstream Vera Sans', 'Computer Modern Sans Serif', 'Lucida Grande', 'Verdana', 'Geneva', 'Lucid', 'Avant Garde', sans-serif" transform="translate(268.455625 42.058875)">r = 0.6091, r² = 0.3710</text>
   </g>
  </g>
 </g>
 <defs>
  <clipPath id="peb30614e2a">
   <rect x="49.158438" y="48.058875" width="558" height="443.52"/>
  </clipPath>
 </defs>
</svg>
