<?xml version="1.0" encoding="utf-8" standalone="no"?>
<!DOCTYPE svg PUBLIC "-//W3C//DTD SVG 1.1//EN"
  "http://www.w3.org/Graphics/SVG/1.1/DTD/svg11.dtd">
<svg xmlns:xlink="http://www.w3.org/1999/xlink" width="606.216563pt" height="530.162937pt" viewBox="0 0 606.216563 530.162937" xmlns="http://www.w3.org/2000/svg" version="1.1">
 <metadata>
  <rdf:RDF xmlns:dc="http://purl.org/dc/elements/1.1/" xmlns:cc="http://creativecommons.org/ns#" xmlns:rdf="http://www.w3.org/1999/02/22-rdf-syntax-ns#">
   <cc:Work>
    <dc:type rdf:resource="http://purl.org/dc/dcmitype/StillImage"/>
    <dc:date>2026-02-24T12:29:07.947167</dc:date>
    <dc:format>image/svg+xml</dc:format>
    <dc:creator>
     <cc:Agent>
      <dc:title>Matplotlib v3.10.5, https://matplotlib.org/</dc:title>
     </cc:Agent>
    </dc:creator>
   </cc:Work>
  </rdf:RDF>
 </metadata>
 <defs>
  <style type="text/css">*{stroke-linejoin: round; stroke-linecap: butt}</style>
 </defs>
 <g id="figure_1">
  <g id="patch_1">
   <path d="M 0 530.162937 
L 606.216563 530.162937 
L 606.216563 0 
L 0 0 
z
" style="fill: #ffffff"/>
  </g>
  <g id="axes_1">
   <g id="patch_2">
    <path d="M 41.016562 491.383875 
L 599.016562 491.383875 
L 599.016562 47.863875 
L 41.016562 47.863875 
z
" style="fill: #ffffff"/>
   </g>
   <g id="PathCollection_1">
    <defs>
     <path id="C0_0_5ff179d9ec" d="M 0 5 
C 1.326016 5 2.597899 4.473168 3.535534 3.535534 
C 4.473168 2.597899 5 1.326016 5 -0 
C 5 -1.326016 4.473168 -2.597899 3.535534 -3.535534 
C 2.597899 -4.473168 1.326016 -5 0 -5 
C -1.326016 -5 -2.597899 -4.473168 -3.535534 -3.535534 
C -4.473168 -2.597899 -5 -1.326016 -5 0 
C -5 1.326016 -4.473168 2.597899 -3.535534 3.535534 
C -2.597899 4.473168 -1.326016 5 0 5 
z
"/>
    </defs>
    <g clip-path="url(#p8f2db13f0b)">
     <use xlink:href="#C0_0_5ff179d9ec" x="66.380199" y="305.623875" style="fill: #00008b"/>
    </g>
    <g clip-path="url(#p8f2db13f0b)">
     <use xlink:href="#C0_0_5ff179d9ec" x="66.380199" y="197.623875" style="fill: #00008b"/>
    </g>
    <g clip-path="url(#p8f2db13f0b)">
     <use xlink:href="#C0_0_5ff179d9ec" x="66.380199" y="377.623875" style="fill: #00008b"/>
    </g>
    <g clip-path="url(#p8f2db13f0b)">
     <use xlink:href="#C0_0_5ff179d9ec" x="66.380199" y="68.023875" style="fill: #00008b"/>
    </g>
    <g clip-path="url(#p8f2db13f0b)">
     <use xlink:href="#C0_0_5ff179d9ec" x="66.380199" y="327.223875" style="fill: #00008b"/>
    </g>
    <g clip-path="url(#p8f2db13f0b)">
     <use xlink:href="#C0_0_5ff179d9ec" x="66.380199" y="471.223875" style="fill: #00008b"/>
    </g>
    <g clip-path="url(#p8f2db13f0b)">
     <use xlink:href="#C0_0_5ff179d9ec" x="573.652926" y="327.223875" style="fill: #00008b"/>
    </g>
    <g clip-path="url(#p8f2db13f0b)">
     <use xlink:href="#C0_0_5ff179d9ec" x="66.380199" y="356.023875" style="fill: #00008b"/>
    </g>
   </g>
   <g id="matplotlib.axis_1">
    <g id="xtick_1">
     <g id="line2d_1">
      <defs>
       <path id="m9638e5a563" d="M 0 0 
L 0 3.5 
" style="stroke: #000000; stroke-width: 0.8"/>
      </defs>
      <g>
       <use xlink:href="#m9638e5a563" x="66.380199" y="491.383875" style="stroke: #000000; stroke-width: 0.8"/>
      </g>
     </g>
     <g id="text_1">
      <text style="font-size: 10px; font-family: 'Helvetica', 'Arial', 'DejaVu Sans', 'Bitstream Vera Sans', 'Computer Modern Sans Serif', 'Lucida Grande', 'Verdana', 'Geneva', 'Lucid', 'Avant Garde', sans-serif; text-anchor: middle" x="66.380199" y="505.557312" transform="rotate(-0 66.380199 505.557312)">0.0</text>
     </g>
    </g>
    <g id="xtick_2">
     <g id="line2d_2">
      <g>
       <use xlink:href="#m9638e5a563" x="187.42625" y="491.383875" style="stroke: #000000; stroke-width: 0.8"/>
      </g>
     </g>
     <g id="text_2">
      <text style="font-size: 10px; font-family: 'Helvetica', 'Arial', 'DejaVu Sans', 'Bitstream Vera Sans', 'Computer Modern Sans Serif', 'Lucida Grande', 'Verdana', 'Geneva', 'Lucid', 'Avant Garde', sans-serif; text-anchor: middle" x="187.42625" y="505.557312" transform="rotate(-0 187.42625 505.557312)">0.1</text>
     </g>
    </g>
    <g id="xtick_3">
     <g id="line2d_3">
      <g>
       <use xlink:href="#m9638e5a563" x="308.4723" y="491.383875" style="stroke: #000000; stroke-width: 0.8"/>
      </g>
     </g>
     <g id="text_3">
      <text style="font-size: 10px; font-family: 'Helvetica', 'Arial', 'DejaVu Sans', 'Bitstream Vera Sans', 'Computer Modern Sans Serif', 'Lucida Grande', 'Verdana', 'Geneva', 'Lucid', 'Avant Garde', sans-serif; text-anchor: middle" x="308.4723" y="505.557312" transform="rotate(-0 308.4723 505.557312)">0.2</text>
     </g>
    </g>
    <g id="xtick_4">
     <g id="line2d_4">
      <g>
       <use xlink:href="#m9638e5a563" x="429.518351" y="491.383875" style="stroke: #000000; stroke-width: 0.8"/>
      </g>
     </g>
     <g id="text_4">
      <text style="font-size: 10px; font-family: 'Helvetica', 'Arial', 'DejaVu Sans', 'Bitstream Vera Sans', 'Computer Modern Sans Serif', 'Lucida Grande', 'Verdana', 'Geneva', 'Lucid', 'Avant Garde', sans-serif; text-anchor: middle" x="429.518351" y="505.557312" transform="rotate(-0 429.518351 505.557312)">0.3</text>
     </g>
    </g>
    <g id="xtick_5">
     <g id="line2d_5">
      <g>
       <use xlink:href="#m9638e5a563" x="550.564402" y="491.383875" style="stroke: #000000; stroke-width: 0.8"/>
      </g>
     </g>
     <g id="text_5">
      <text style="font-size: 10px; font-family: 'Helvetica', 'Arial', 'DejaVu Sans', 'Bitstream Vera Sans', 'Computer Modern Sans Serif', 'Lucida Grande', 'Verdana', 'Geneva', 'Lucid', 'Avant Garde', sans-serif; text-anchor: middle" x="550.564402" y="505.557312" transform="rotate(-0 550.564402 505.557312)">0.4</text>
     </g>
    </g>
    <g id="text_6">
     <text style="font-size: 12px; font-family: 'Helvetica', 'Arial', 'DejaVu Sans', 'Bitstream Vera Sans', 'Computer Modern Sans Serif', 'Lucida Grande', 'Verdana', 'Geneva', 'Lucid', 'Avant Garde', sans-serif; text-anchor: middle" x="320.016563" y="520.390437" transform="rotate(-0 320.016563 520.390437)">H2B Intensity (Z-score)</text>
    </g>
   </g>
   <g id="matplotlib.axis_2">
    <g id="ytick_1">
     <g id="line2d_6">
      <defs>
       <path id="m732610bd11" d="M 0 0 
L -3.5 0 
" style="stroke: #000000; stroke-width: 0.8"/>
      </defs>
      <g>
       <use xlink:href="#m732610bd11" x="41.016562" y="454.068278" style="stroke: #000000; stroke-width: 0.8"/>
      </g>
     </g>
     <g id="text_7">
      <text style="font-size: 10px; font-family: 'Helvetica', 'Arial', 'DejaVu Sans', 'Bitstream Vera Sans', 'Computer Modern Sans Serif', 'Lucida Grande', 'Verdana', 'Geneva', 'Lucid', 'Avant Garde', sans-serif; text-anchor: end" x="34.016562" y="457.654997" transform="rotate(-0 34.016562 457.654997)">−3</text>
     </g>
    </g>
    <g id="ytick_2">
     <g id="line2d_7">
      <g>
       <use xlink:href="#m732610bd11" x="41.016562" y="402.18681" style="stroke: #000000; stroke-width: 0.8"/>
      </g>
     </g>
     <g id="text_8">
      <text style="font-size: 10px; font-family: 'Helvetica', 'Arial', 'DejaVu Sans', 'Bitstream Vera Sans', 'Computer Modern Sans Serif', 'Lucida Grande', 'Verdana', 'Geneva', 'Lucid', 'Avant Garde', sans-serif; text-anchor: end" x="34.016562" y="405.773529" transform="rotate(-0 34.016562 405.773529)">−2</text>
     </g>
    </g>
    <g id="ytick_3">
     <g id="line2d_8">
      <g>
       <use xlink:href="#m732610bd11" x="41.016562" y="350.305343" style="stroke: #000000; stroke-width: 0.8"/>
      </g>
     </g>
     <g id="text_9">
      <text style="font-size: 10px; font-family: 'Helvetica', 'Arial', 'DejaVu Sans', 'Bitstream Vera Sans', 'Computer Modern Sans Serif', 'Lucida Grande', 'Verdana', 'Geneva', 'Lucid', 'Avant Garde', sans-serif; text-anchor: end" x="34.016562" y="353.892061" transform="rotate(-0 34.016562 353.892061)">−1</text>
     </g>
    </g>
    <g id="ytick_4">
     <g id="line2d_9">
      <g>
       <use xlink:href="#m732610bd11" x="41.016562" y="298.423875" style="stroke: #000000; stroke-width: 0.8"/>
      </g>
     </g>
     <g id="text_10">
      <text style="font-size: 10px; font-family: 'Helvetica', 'Arial', 'DejaVu Sans', 'Bitstream Vera Sans', 'Computer Modern Sans Serif', 'Lucida Grande', 'Verdana', 'Geneva', 'Lucid', 'Avant Garde', sans-serif; text-anchor: end" x="34.016562" y="302.010594" transform="rotate(-0 34.016562 302.010594)">0</text>
     </g>
    </g>
    <g id="ytick_5">
     <g id="line2d_10">
      <g>
       <use xlink:href="#m732610bd11" x="41.016562" y="246.542407" style="stroke: #000000; stroke-width: 0.8"/>
      </g>
     </g>
     <g id="text_11">
      <text style="font-size: 10px; font-family: 'Helvetica', 'Arial', 'DejaVu Sans', 'Bitstream Vera Sans', 'Computer Modern Sans Serif', 'Lucida Grande', 'Verdana', 'Geneva', 'Lucid', 'Avant Garde', sans-serif; text-anchor: end" x="34.016562" y="250.129126" transform="rotate(-0 34.016562 250.129126)">1</text>
     </g>
    </g>
    <g id="ytick_6">
     <g id="line2d_11">
      <g>
       <use xlink:href="#m732610bd11" x="41.016562" y="194.66094" style="stroke: #000000; stroke-width: 0.8"/>
      </g>
     </g>
     <g id="text_12">
      <text style="font-size: 10px; font-family: 'Helvetica', 'Arial', 'DejaVu Sans', 'Bitstream Vera Sans', 'Computer Modern Sans Serif', 'Lucida Grande', 'Verdana', 'Geneva', 'Lucid', 'Avant Garde', sans-serif; text-anchor: end" x="34.016562" y="198.247658" transform="rotate(-0 34.016562 198.247658)">2</text>
     </g>
    </g>
    <g id="ytick_7">
     <g id="line2d_12">
      <g>
       <use xlink:href="#m732610bd11" x="41.016562" y="142.779472" style="stroke: #000000; stroke-width: 0.8"/>
      </g>
     </g>
     <g id="text_13">
      <text style="font-size: 10px; font-family: 'Helvetica', 'Arial', 'DejaVu Sans', 'Bitstream Vera Sans', 'Computer Modern Sans Serif', 'Lucida Grande', 'Verdana', 'Geneva', 'Lucid', 'Avant Garde', sans-serif; text-anchor: end" x="34.016562" y="146.366191" transform="rotate(-0 34.016562 146.366191)">3</text>
     </g>
    </g>
    <g id="ytick_8">
     <g id="line2d_13">
      <g>
       <use xlink:href="#m732610bd11" x="41.016562" y="90.898004" style="stroke: #000000; stroke-width: 0.8"/>
      </g>
     </g>
     <g id="text_14">
      <text style="font-size: 10px; font-family: 'Helvetica', 'Arial', 'DejaVu Sans', 'Bitstream Vera Sans', 'Computer Modern Sans Serif', 'Lucida Grande', 'Verdana', 'Geneva', 'Lucid', 'Avant Garde', sans-serif; text-anchor: end" x="34.016562" y="94.484723" transform="rotate(-0 34.016562 94.484723)">4</text>
     </g>
    </g>
    <g id="text_15">
     <text style="font-size: 12px; font-family: 'Helvetica', 'Arial', 'DejaVu Sans', 'Bitstream Vera Sans', 'Computer Modern Sans Serif', 'Lucida Grande', 'Verdana', 'Geneva', 'Lucid', 'Avant Garde', sans-serif; text-anchor: middle" x="16.0425" y="269.623875" transform="rotate(-90 16.0425 269.623875)">VSV Intensity (Z-score)</text>
    </g>
    <g id="text_16">
     <text style="font-size: 10px; font-family: 'Helvetica', 'Arial', 'DejaVu Sans', 'Bitstream Vera Sans', 'Computer Modern Sans Serif', 'Lucida Grande', 'Verdana', 'Geneva', 'Lucid', 'Avant Garde', sans-serif; text-anchor: start" x="41.016562" y="44.863875" transform="rotate(-0 41.016562 44.863875)">1e−16</text>
    </g>
   </g>
   <g id="line2d_14">
    <path d="M 66.380199 300.481018 
L 71.504166 300.751148 
L 76.628133 301.021278 
L 81.7521 301.291407 
L 86.876067 301.561537 
L 92.000034 301.831667 
L 97.124001 302.101797 
L 102.247967 302.371927 
L 107.371934 302.642057 
L 112.495901 302.912187 
L 117.619868 303.182317 
L 122.743835 303.452446 
L 127.867802 303.722576 
L 132.991769 303.992706 
L 138.115736 304.262836 
L 143.239703 304.532966 
L 148.36367 304.803096 
L 153.487637 305.073226 
L 158.611604 305.343356 
L 163.735571 305.613485 
L 168.859538 305.883615 
L 173.983505 306.153745 
L 179.107472 306.423875 
L 184.231439 306.694005 
L 189.355405 306.964135 
L 194.479372 307.234265 
L 199.603339 307.504394 
L 204.727306 307.774524 
L 209.851273 308.044654 
L 214.97524 308.314784 
L 220.099207 308.584914 
L 225.223174 308.855044 
L 230.347141 309.125174 
L 235.471108 309.395304 
L 240.595075 309.665433 
L 245.719042 309.935563 
L 250.843009 310.205693 
L 255.966976 310.475823 
L 261.090943 310.745953 
L 266.21491 311.016083 
L 271.338877 311.286213 
L 276.462843 311.556343 
L 281.58681 311.826472 
L 286.710777 312.096602 
L 291.834744 312.366732 
L 296.958711 312.636862 
L 302.082678 312.906992 
L 307.206645 313.177122 
L 312.330612 313.447252 
L 317.454579 313.717381 
L 322.578546 313.987511 
L 327.702513 314.257641 
L 332.82648 314.527771 
L 337.950447 314.797901 
L 343.074414 315.068031 
L 348.198381 315.338161 
L 353.322348 315.608291 
L 358.446315 315.87842 
L 363.570282 316.14855 
L 368.694248 316.41868 
L 373.818215 316.68881 
L 378.942182 316.95894 
L 384.066149 317.22907 
L 389.190116 317.4992 
L 394.314083 317.76933 
L 399.43805 318.039459 
L 404.562017 318.309589 
L 409.685984 318.579719 
L 414.809951 318.849849 
L 419.933918 319.119979 
L 425.057885 319.390109 
L 430.181852 319.660239 
L 435.305819 319.930369 
L 440.429786 320.200498 
L 445.553753 320.470628 
L 450.67772 320.740758 
L 455.801686 321.010888 
L 460.925653 321.281018 
L 466.04962 321.551148 
L 471.173587 321.821278 
L 476.297554 322.091407 
L 481.421521 322.361537 
L 486.545488 322.631667 
L 491.669455 322.901797 
L 496.793422 323.171927 
L 501.917389 323.442057 
L 507.041356 323.712187 
L 512.165323 323.982317 
L 517.28929 324.252446 
L 522.413257 324.522576 
L 527.537224 324.792706 
L 532.661191 325.062836 
L 537.785158 325.332966 
L 542.909124 325.603096 
L 548.033091 325.873226 
L 553.157058 326.143356 
L 558.281025 326.413485 
L 563.404992 326.683615 
L 568.528959 326.953745 
L 573.652926 327.223875 
" clip-path="url(#p8f2db13f0b)" style="fill: none; stroke: #000000; stroke-width: 2; stroke-linecap: square"/>
   </g>
   <g id="patch_3">
    <path d="M 41.016562 491.383875 
L 41.016562 47.863875 
" style="fill: none; stroke: #000000; stroke-width: 0.8; stroke-linejoin: miter; stroke-linecap: square"/>
   </g>
   <g id="patch_4">
    <path d="M 41.016562 491.383875 
L 599.016562 491.383875 
" style="fill: none; stroke: #000000; stroke-width: 0.8; stroke-linejoin: miter; stroke-linecap: square"/>
   </g>
   <g id="text_17">
    <text style="font-size: 9px; font-family: 'Helvetica', 'Arial', 'DejaVu Sans', 'Bitstream Vera Sans', 'Computer Modern Sans Serif', 'Lucida Grande', 'Verdana', 'Geneva', 'Lucid', 'Avant Garde', sans-serif; text-anchor: start" x="71.380199" y="300.623875" transform="rotate(-0 71.380199 300.623875)">A</text>
   </g>
   <g id="text_18">
    <text style="font-size: 9px; font-family: 'Helvetica', 'Arial', 'DejaVu Sans', 'Bitstream Vera Sans', 'Computer Modern Sans Serif', 'Lucida Grande', 'Verdana', 'Geneva', 'Lucid', 'Avant Garde', sans-serif; text-anchor: start" x="71.380199" y="192.623875" transform="rotate(-0 71.380199 192.623875)">AL</text>
   </g>
   <g id="text_19">
    <text style="font-size: 9px; font-family: 'Helvetica', 'Arial', 'DejaVu Sans', 'Bitstream Vera Sans', 'Computer Modern Sans Serif', 'Lucida Grande', 'Verdana', 'Geneva', 'Lucid', 'Avant Garde', sans-serif; text-anchor: start" x="71.380199" y="372.623875" transform="rotate(-0 71.380199 372.623875)">AM</text>
   </g>
   <g id="text_20">
    <text style="font-size: 9px; font-family: 'Helvetica', 'Arial', 'DejaVu Sans', 'Bitstream Vera Sans', 'Computer Modern Sans Serif', 'Lucida Grande', 'Verdana', 'Geneva', 'Lucid', 'Avant Garde', sans-serif; text-anchor: start" x="71.380199" y="63.023875" transform="rotate(-0 71.380199 63.023875)">LM</text>
   </g>
   <g id="text_21">
    <text style="font-size: 9px; font-family: 'Helvetica', 'Arial', 'DejaVu Sans', 'Bitstream Vera Sans', 'Computer Modern Sans Serif', 'Lucida Grande', 'Verdana', 'Geneva', 'Lucid', 'Avant Garde', sans-serif; text-anchor: start" x="71.380199" y="322.223875" transform="rotate(-0 71.380199 322.223875)">LI</text>
   </g>
   <g id="text_22">
    <text style="font-size: 9px; font-family: 'Helvetica', 'Arial', 'DejaVu Sans', 'Bitstream Vera Sans', 'Computer Modern Sans Serif', 'Lucida Grande', 'Verdana', 'Geneva', 'Lucid', 'Avant Garde', sans-serif; text-anchor: start" x="71.380199" y="466.223875" transform="rotate(-0 71.380199 466.223875)">PM</text>
   </g>
   <g id="text_23">
    <text style="font-size: 9px; font-family: 'Helvetica', 'Arial', 'DejaVu Sans', 'Bitstream Vera Sans', 'Computer Modern Sans Serif', 'Lucida Grande', 'Verdana', 'Geneva', 'Lucid', 'Avant Garde', sans-serif; text-anchor: start" x="578.652926" y="322.223875" transform="rotate(-0 578.652926 322.223875)">POR</text>
   </g>
   <g id="text_24">
    <text style="font-size: 9px; font-family: 'Helvetica', 'Arial', 'DejaVu Sans', 'Bitstream Vera Sans', 'Computer Modern Sans Serif', 'Lucida Grande', 'Verdana', 'Geneva', 'Lucid', 'Avant Garde', sans-serif; text-anchor: start" x="71.380199" y="351.023875" transform="rotate(-0 71.380199 351.023875)">RL</text>
   </g>
   <g id="text_25">
    <text style="font-size: 12px; font-family: 'Helvetica', 'Arial', 'DejaVu Sans', 'Bitstream Vera Sans', 'Computer Modern Sans Serif', 'Lucida Grande', 'Verdana', 'Geneva', 'Lucid', 'Avant Garde', sans-serif" transform="translate(274.3275 15.808125)">p20 - All Regions</text>
    <text style="font-size: 12px; font-family: 'Helvetica', 'Arial', 'DejaVu Sans', 'Bitstream Vera Sans', 'Computer Modern Sans Serif', 'Lucida Grande', 'Verdana', 'Geneva', 'Lucid', 'Avant Garde', sans-serif" transform="translate(236.656875 28.961625)">Imputed Data Analysis (zscore)</text>
    <text style="font-size: 12px; font-family: 'Helvetica', 'Arial', 'DejaVu Sans', 'Bitstream Vera Sans', 'Computer Modern Sans Serif', 'Lucida Grande', 'Verdana', 'Geneva', 'Lucid', 'Avant Garde', sans-serif" transform="translate(258.315938 41.863875)">r = -0.0775, r² = 0.0060</text>
   </g>
  </g>
 </g>
 <defs>
  <clipPath id="p8f2db13f0b">
   <rect x="41.016562" y="47.863875" width="558" height="443.52"/>
  </clipPath>
 </defs>
</svg>
