<?xml version="1.0" encoding="utf-8" standalone="no"?>
<!DOCTYPE svg PUBLIC "-//W3C//DTD SVG 1.1//EN"
  "http://www.w3.org/Graphics/SVG/1.1/DTD/svg11.dtd">
<svg xmlns:xlink="http://www.w3.org/1999/xlink" width="608.715pt" height="530.162937pt" viewBox="0 0 608.715 530.162937" xmlns="http://www.w3.org/2000/svg" version="1.1">
 <metadata>
  <rdf:RDF xmlns:dc="http://purl.org/dc/elements/1.1/" xmlns:cc="http://creativecommons.org/ns#" xmlns:rdf="http://www.w3.org/1999/02/22-rdf-syntax-ns#">
   <cc:Work>
    <dc:type rdf:resource="http://purl.org/dc/dcmitype/StillImage"/>
    <dc:date>2026-02-24T12:29:07.544195</dc:date>
    <dc:format>image/svg+xml</dc:format>
    <dc:creator>
     <cc:Agent>
      <dc:title>Matplotlib v3.10.5, https://matplotlib.org/</dc:title>
     </cc:Agent>
    </dc:creator>
   </cc:Work>
  </rdf:RDF>
 </metadata>
 <defs>
  <style type="text/css">*{stroke-linejoin: round; stroke-linecap: butt}</style>
 </defs>
 <g id="figure_1">
  <g id="patch_1">
   <path d="M 0 530.162937 
L 608.715 530.162937 
L 608.715 0 
L 0 0 
z
" style="fill: #ffffff"/>
  </g>
  <g id="axes_1">
   <g id="patch_2">
    <path d="M 43.515 491.383875 
L 601.515 491.383875 
L 601.515 47.863875 
L 43.515 47.863875 
z
" style="fill: #ffffff"/>
   </g>
   <g id="PathCollection_1">
    <defs>
     <path id="C0_0_dd9dab8ff9" d="M 0 5 
C 1.326016 5 2.597899 4.473168 3.535534 3.535534 
C 4.473168 2.597899 5 1.326016 5 -0 
C 5 -1.326016 4.473168 -2.597899 3.535534 -3.535534 
C 2.597899 -4.473168 1.326016 -5 0 -5 
C -1.326016 -5 -2.597899 -4.473168 -3.535534 -3.535534 
C -4.473168 -2.597899 -5 -1.326016 -5 0 
C -5 1.326016 -4.473168 2.597899 -3.535534 3.535534 
C -2.597899 4.473168 -1.326016 5 0 5 
z
"/>
    </defs>
    <g clip-path="url(#pb9dbd6034c)">
     <use xlink:href="#C0_0_dd9dab8ff9" x="329.370037" y="68.023875" style="fill: #00008b"/>
    </g>
    <g clip-path="url(#pb9dbd6034c)">
     <use xlink:href="#C0_0_dd9dab8ff9" x="363.645221" y="471.223875" style="fill: #00008b"/>
    </g>
    <g clip-path="url(#pb9dbd6034c)">
     <use xlink:href="#C0_0_dd9dab8ff9" x="500.745958" y="354.408922" style="fill: #00008b"/>
    </g>
    <g clip-path="url(#pb9dbd6034c)">
     <use xlink:href="#C0_0_dd9dab8ff9" x="576.151364" y="414.700511" style="fill: #00008b"/>
    </g>
    <g clip-path="url(#pb9dbd6034c)">
     <use xlink:href="#C0_0_dd9dab8ff9" x="514.456032" y="346.872473" style="fill: #00008b"/>
    </g>
    <g clip-path="url(#pb9dbd6034c)">
     <use xlink:href="#C0_0_dd9dab8ff9" x="68.878636" y="328.031352" style="fill: #00008b"/>
    </g>
    <g clip-path="url(#pb9dbd6034c)">
     <use xlink:href="#C0_0_dd9dab8ff9" x="329.370037" y="437.309856" style="fill: #00008b"/>
    </g>
    <g clip-path="url(#pb9dbd6034c)">
     <use xlink:href="#C0_0_dd9dab8ff9" x="329.370037" y="467.455651" style="fill: #00008b"/>
    </g>
   </g>
   <g id="matplotlib.axis_1">
    <g id="xtick_1">
     <g id="line2d_1">
      <defs>
       <path id="m6e4ec1ec4e" d="M 0 0 
L 0 3.5 
" style="stroke: #000000; stroke-width: 0.8"/>
      </defs>
      <g>
       <use xlink:href="#m6e4ec1ec4e" x="97.827476" y="491.383875" style="stroke: #000000; stroke-width: 0.8"/>
      </g>
     </g>
     <g id="text_1">
      <text style="font-size: 10px; font-family: 'Helvetica', 'Arial', 'DejaVu Sans', 'Bitstream Vera Sans', 'Computer Modern Sans Serif', 'Lucida Grande', 'Verdana', 'Geneva', 'Lucid', 'Avant Garde', sans-serif; text-anchor: middle" x="97.827476" y="505.557312" transform="rotate(-0 97.827476 505.557312)">−1.5</text>
     </g>
    </g>
    <g id="xtick_2">
     <g id="line2d_2">
      <g>
       <use xlink:href="#m6e4ec1ec4e" x="175.00833" y="491.383875" style="stroke: #000000; stroke-width: 0.8"/>
      </g>
     </g>
     <g id="text_2">
      <text style="font-size: 10px; font-family: 'Helvetica', 'Arial', 'DejaVu Sans', 'Bitstream Vera Sans', 'Computer Modern Sans Serif', 'Lucida Grande', 'Verdana', 'Geneva', 'Lucid', 'Avant Garde', sans-serif; text-anchor: middle" x="175.00833" y="505.557312" transform="rotate(-0 175.00833 505.557312)">−1.0</text>
     </g>
    </g>
    <g id="xtick_3">
     <g id="line2d_3">
      <g>
       <use xlink:href="#m6e4ec1ec4e" x="252.189183" y="491.383875" style="stroke: #000000; stroke-width: 0.8"/>
      </g>
     </g>
     <g id="text_3">
      <text style="font-size: 10px; font-family: 'Helvetica', 'Arial', 'DejaVu Sans', 'Bitstream Vera Sans', 'Computer Modern Sans Serif', 'Lucida Grande', 'Verdana', 'Geneva', 'Lucid', 'Avant Garde', sans-serif; text-anchor: middle" x="252.189183" y="505.557312" transform="rotate(-0 252.189183 505.557312)">−0.5</text>
     </g>
    </g>
    <g id="xtick_4">
     <g id="line2d_4">
      <g>
       <use xlink:href="#m6e4ec1ec4e" x="329.370037" y="491.383875" style="stroke: #000000; stroke-width: 0.8"/>
      </g>
     </g>
     <g id="text_4">
      <text style="font-size: 10px; font-family: 'Helvetica', 'Arial', 'DejaVu Sans', 'Bitstream Vera Sans', 'Computer Modern Sans Serif', 'Lucida Grande', 'Verdana', 'Geneva', 'Lucid', 'Avant Garde', sans-serif; text-anchor: middle" x="329.370037" y="505.557312" transform="rotate(-0 329.370037 505.557312)">0.0</text>
     </g>
    </g>
    <g id="xtick_5">
     <g id="line2d_5">
      <g>
       <use xlink:href="#m6e4ec1ec4e" x="406.55089" y="491.383875" style="stroke: #000000; stroke-width: 0.8"/>
      </g>
     </g>
     <g id="text_5">
      <text style="font-size: 10px; font-family: 'Helvetica', 'Arial', 'DejaVu Sans', 'Bitstream Vera Sans', 'Computer Modern Sans Serif', 'Lucida Grande', 'Verdana', 'Geneva', 'Lucid', 'Avant Garde', sans-serif; text-anchor: middle" x="406.55089" y="505.557312" transform="rotate(-0 406.55089 505.557312)">0.5</text>
     </g>
    </g>
    <g id="xtick_6">
     <g id="line2d_6">
      <g>
       <use xlink:href="#m6e4ec1ec4e" x="483.731744" y="491.383875" style="stroke: #000000; stroke-width: 0.8"/>
      </g>
     </g>
     <g id="text_6">
      <text style="font-size: 10px; font-family: 'Helvetica', 'Arial', 'DejaVu Sans', 'Bitstream Vera Sans', 'Computer Modern Sans Serif', 'Lucida Grande', 'Verdana', 'Geneva', 'Lucid', 'Avant Garde', sans-serif; text-anchor: middle" x="483.731744" y="505.557312" transform="rotate(-0 483.731744 505.557312)">1.0</text>
     </g>
    </g>
    <g id="xtick_7">
     <g id="line2d_7">
      <g>
       <use xlink:href="#m6e4ec1ec4e" x="560.912598" y="491.383875" style="stroke: #000000; stroke-width: 0.8"/>
      </g>
     </g>
     <g id="text_7">
      <text style="font-size: 10px; font-family: 'Helvetica', 'Arial', 'DejaVu Sans', 'Bitstream Vera Sans', 'Computer Modern Sans Serif', 'Lucida Grande', 'Verdana', 'Geneva', 'Lucid', 'Avant Garde', sans-serif; text-anchor: middle" x="560.912598" y="505.557312" transform="rotate(-0 560.912598 505.557312)">1.5</text>
     </g>
    </g>
    <g id="text_8">
     <text style="font-size: 12px; font-family: 'Helvetica', 'Arial', 'DejaVu Sans', 'Bitstream Vera Sans', 'Computer Modern Sans Serif', 'Lucida Grande', 'Verdana', 'Geneva', 'Lucid', 'Avant Garde', sans-serif; text-anchor: middle" x="322.515" y="520.390437" transform="rotate(-0 322.515 520.390437)">H2B Intensity (Z-score)</text>
    </g>
    <g id="text_9">
     <text style="font-size: 10px; font-family: 'Helvetica', 'Arial', 'DejaVu Sans', 'Bitstream Vera Sans', 'Computer Modern Sans Serif', 'Lucida Grande', 'Verdana', 'Geneva', 'Lucid', 'Avant Garde', sans-serif; text-anchor: end" x="601.515" y="517.815125" transform="rotate(-0 601.515 517.815125)">1e−15</text>
    </g>
   </g>
   <g id="matplotlib.axis_2">
    <g id="ytick_1">
     <g id="line2d_8">
      <defs>
       <path id="m015479721f" d="M 0 0 
L -3.5 0 
" style="stroke: #000000; stroke-width: 0.8"/>
      </defs>
      <g>
       <use xlink:href="#m015479721f" x="43.515" y="437.309856" style="stroke: #000000; stroke-width: 0.8"/>
      </g>
     </g>
     <g id="text_10">
      <text style="font-size: 10px; font-family: 'Helvetica', 'Arial', 'DejaVu Sans', 'Bitstream Vera Sans', 'Computer Modern Sans Serif', 'Lucida Grande', 'Verdana', 'Geneva', 'Lucid', 'Avant Garde', sans-serif; text-anchor: end" x="36.515" y="440.896575" transform="rotate(-0 36.515 440.896575)">0.0</text>
     </g>
    </g>
    <g id="ytick_2">
     <g id="line2d_9">
      <g>
       <use xlink:href="#m015479721f" x="43.515" y="369.427562" style="stroke: #000000; stroke-width: 0.8"/>
      </g>
     </g>
     <g id="text_11">
      <text style="font-size: 10px; font-family: 'Helvetica', 'Arial', 'DejaVu Sans', 'Bitstream Vera Sans', 'Computer Modern Sans Serif', 'Lucida Grande', 'Verdana', 'Geneva', 'Lucid', 'Avant Garde', sans-serif; text-anchor: end" x="36.515" y="373.014281" transform="rotate(-0 36.515 373.014281)">0.2</text>
     </g>
    </g>
    <g id="ytick_3">
     <g id="line2d_10">
      <g>
       <use xlink:href="#m015479721f" x="43.515" y="301.545268" style="stroke: #000000; stroke-width: 0.8"/>
      </g>
     </g>
     <g id="text_12">
      <text style="font-size: 10px; font-family: 'Helvetica', 'Arial', 'DejaVu Sans', 'Bitstream Vera Sans', 'Computer Modern Sans Serif', 'Lucida Grande', 'Verdana', 'Geneva', 'Lucid', 'Avant Garde', sans-serif; text-anchor: end" x="36.515" y="305.131987" transform="rotate(-0 36.515 305.131987)">0.4</text>
     </g>
    </g>
    <g id="ytick_4">
     <g id="line2d_11">
      <g>
       <use xlink:href="#m015479721f" x="43.515" y="233.662974" style="stroke: #000000; stroke-width: 0.8"/>
      </g>
     </g>
     <g id="text_13">
      <text style="font-size: 10px; font-family: 'Helvetica', 'Arial', 'DejaVu Sans', 'Bitstream Vera Sans', 'Computer Modern Sans Serif', 'Lucida Grande', 'Verdana', 'Geneva', 'Lucid', 'Avant Garde', sans-serif; text-anchor: end" x="36.515" y="237.249692" transform="rotate(-0 36.515 237.249692)">0.6</text>
     </g>
    </g>
    <g id="ytick_5">
     <g id="line2d_12">
      <g>
       <use xlink:href="#m015479721f" x="43.515" y="165.78068" style="stroke: #000000; stroke-width: 0.8"/>
      </g>
     </g>
     <g id="text_14">
      <text style="font-size: 10px; font-family: 'Helvetica', 'Arial', 'DejaVu Sans', 'Bitstream Vera Sans', 'Computer Modern Sans Serif', 'Lucida Grande', 'Verdana', 'Geneva', 'Lucid', 'Avant Garde', sans-serif; text-anchor: end" x="36.515" y="169.367398" transform="rotate(-0 36.515 169.367398)">0.8</text>
     </g>
    </g>
    <g id="ytick_6">
     <g id="line2d_13">
      <g>
       <use xlink:href="#m015479721f" x="43.515" y="97.898385" style="stroke: #000000; stroke-width: 0.8"/>
      </g>
     </g>
     <g id="text_15">
      <text style="font-size: 10px; font-family: 'Helvetica', 'Arial', 'DejaVu Sans', 'Bitstream Vera Sans', 'Computer Modern Sans Serif', 'Lucida Grande', 'Verdana', 'Geneva', 'Lucid', 'Avant Garde', sans-serif; text-anchor: end" x="36.515" y="101.485104" transform="rotate(-0 36.515 101.485104)">1.0</text>
     </g>
    </g>
    <g id="text_16">
     <text style="font-size: 12px; font-family: 'Helvetica', 'Arial', 'DejaVu Sans', 'Bitstream Vera Sans', 'Computer Modern Sans Serif', 'Lucida Grande', 'Verdana', 'Geneva', 'Lucid', 'Avant Garde', sans-serif; text-anchor: middle" x="16.0425" y="269.623875" transform="rotate(-90 16.0425 269.623875)">VSV Intensity (Z-score)</text>
    </g>
    <g id="text_17">
     <text style="font-size: 10px; font-family: 'Helvetica', 'Arial', 'DejaVu Sans', 'Bitstream Vera Sans', 'Computer Modern Sans Serif', 'Lucida Grande', 'Verdana', 'Geneva', 'Lucid', 'Avant Garde', sans-serif; text-anchor: start" x="43.515" y="44.863875" transform="rotate(-0 43.515 44.863875)">1e−15</text>
    </g>
   </g>
   <g id="line2d_14">
    <path d="M 68.878636 322.727608 
L 74.002603 323.365159 
L 79.12657 324.002711 
L 84.250537 324.640262 
L 89.374504 325.277814 
L 94.498471 325.915365 
L 99.622438 326.552917 
L 104.746405 327.190468 
L 109.870372 327.82802 
L 114.994339 328.465571 
L 120.118306 329.103123 
L 125.242273 329.740674 
L 130.36624 330.378226 
L 135.490207 331.015777 
L 140.614174 331.653329 
L 145.73814 332.29088 
L 150.862107 332.928432 
L 155.986074 333.565983 
L 161.110041 334.203535 
L 166.234008 334.841086 
L 171.357975 335.478638 
L 176.481942 336.116189 
L 181.605909 336.753741 
L 186.729876 337.391292 
L 191.853843 338.028844 
L 196.97781 338.666396 
L 202.101777 339.303947 
L 207.225744 339.941499 
L 212.349711 340.57905 
L 217.473678 341.216602 
L 222.597645 341.854153 
L 227.721612 342.491705 
L 232.845579 343.129256 
L 237.969545 343.766808 
L 243.093512 344.404359 
L 248.217479 345.041911 
L 253.341446 345.679462 
L 258.465413 346.317014 
L 263.58938 346.954565 
L 268.713347 347.592117 
L 273.837314 348.229668 
L 278.961281 348.86722 
L 284.085248 349.504771 
L 289.209215 350.142323 
L 294.333182 350.779874 
L 299.457149 351.417426 
L 304.581116 352.054977 
L 309.705083 352.692529 
L 314.82905 353.33008 
L 319.953017 353.967632 
L 325.076983 354.605183 
L 330.20095 355.242735 
L 335.324917 355.880286 
L 340.448884 356.517838 
L 345.572851 357.155389 
L 350.696818 357.792941 
L 355.820785 358.430492 
L 360.944752 359.068044 
L 366.068719 359.705595 
L 371.192686 360.343147 
L 376.316653 360.980698 
L 381.44062 361.61825 
L 386.564587 362.255801 
L 391.688554 362.893353 
L 396.812521 363.530904 
L 401.936488 364.168456 
L 407.060455 364.806007 
L 412.184421 365.443559 
L 417.308388 366.08111 
L 422.432355 366.718662 
L 427.556322 367.356214 
L 432.680289 367.993765 
L 437.804256 368.631317 
L 442.928223 369.268868 
L 448.05219 369.90642 
L 453.176157 370.543971 
L 458.300124 371.181523 
L 463.424091 371.819074 
L 468.548058 372.456626 
L 473.672025 373.094177 
L 478.795992 373.731729 
L 483.919959 374.36928 
L 489.043926 375.006832 
L 494.167893 375.644383 
L 499.29186 376.281935 
L 504.415826 376.919486 
L 509.539793 377.557038 
L 514.66376 378.194589 
L 519.787727 378.832141 
L 524.911694 379.469692 
L 530.035661 380.107244 
L 535.159628 380.744795 
L 540.283595 381.382347 
L 545.407562 382.019898 
L 550.531529 382.65745 
L 555.655496 383.295001 
L 560.779463 383.932553 
L 565.90343 384.570104 
L 571.027397 385.207656 
L 576.151364 385.845207 
" clip-path="url(#pb9dbd6034c)" style="fill: none; stroke: #000000; stroke-width: 2; stroke-linecap: square"/>
   </g>
   <g id="patch_3">
    <path d="M 43.515 491.383875 
L 43.515 47.863875 
" style="fill: none; stroke: #000000; stroke-width: 0.8; stroke-linejoin: miter; stroke-linecap: square"/>
   </g>
   <g id="patch_4">
    <path d="M 43.515 491.383875 
L 601.515 491.383875 
" style="fill: none; stroke: #000000; stroke-width: 0.8; stroke-linejoin: miter; stroke-linecap: square"/>
   </g>
   <g id="text_18">
    <text style="font-size: 9px; font-family: 'Helvetica', 'Arial', 'DejaVu Sans', 'Bitstream Vera Sans', 'Computer Modern Sans Serif', 'Lucida Grande', 'Verdana', 'Geneva', 'Lucid', 'Avant Garde', sans-serif; text-anchor: start" x="334.370037" y="63.023875" transform="rotate(-0 334.370037 63.023875)">A</text>
   </g>
   <g id="text_19">
    <text style="font-size: 9px; font-family: 'Helvetica', 'Arial', 'DejaVu Sans', 'Bitstream Vera Sans', 'Computer Modern Sans Serif', 'Lucida Grande', 'Verdana', 'Geneva', 'Lucid', 'Avant Garde', sans-serif; text-anchor: start" x="368.645221" y="466.223875" transform="rotate(-0 368.645221 466.223875)">AL</text>
   </g>
   <g id="text_20">
    <text style="font-size: 9px; font-family: 'Helvetica', 'Arial', 'DejaVu Sans', 'Bitstream Vera Sans', 'Computer Modern Sans Serif', 'Lucida Grande', 'Verdana', 'Geneva', 'Lucid', 'Avant Garde', sans-serif; text-anchor: start" x="505.745958" y="349.408922" transform="rotate(-0 505.745958 349.408922)">AM</text>
   </g>
   <g id="text_21">
    <text style="font-size: 9px; font-family: 'Helvetica', 'Arial', 'DejaVu Sans', 'Bitstream Vera Sans', 'Computer Modern Sans Serif', 'Lucida Grande', 'Verdana', 'Geneva', 'Lucid', 'Avant Garde', sans-serif; text-anchor: start" x="581.151364" y="409.700511" transform="rotate(-0 581.151364 409.700511)">LM</text>
   </g>
   <g id="text_22">
    <text style="font-size: 9px; font-family: 'Helvetica', 'Arial', 'DejaVu Sans', 'Bitstream Vera Sans', 'Computer Modern Sans Serif', 'Lucida Grande', 'Verdana', 'Geneva', 'Lucid', 'Avant Garde', sans-serif; text-anchor: start" x="519.456032" y="341.872473" transform="rotate(-0 519.456032 341.872473)">LI</text>
   </g>
   <g id="text_23">
    <text style="font-size: 9px; font-family: 'Helvetica', 'Arial', 'DejaVu Sans', 'Bitstream Vera Sans', 'Computer Modern Sans Serif', 'Lucida Grande', 'Verdana', 'Geneva', 'Lucid', 'Avant Garde', sans-serif; text-anchor: start" x="73.878636" y="323.031352" transform="rotate(-0 73.878636 323.031352)">PM</text>
   </g>
   <g id="text_24">
    <text style="font-size: 9px; font-family: 'Helvetica', 'Arial', 'DejaVu Sans', 'Bitstream Vera Sans', 'Computer Modern Sans Serif', 'Lucida Grande', 'Verdana', 'Geneva', 'Lucid', 'Avant Garde', sans-serif; text-anchor: start" x="334.370037" y="432.309856" transform="rotate(-0 334.370037 432.309856)">POR</text>
   </g>
   <g id="text_25">
    <text style="font-size: 9px; font-family: 'Helvetica', 'Arial', 'DejaVu Sans', 'Bitstream Vera Sans', 'Computer Modern Sans Serif', 'Lucida Grande', 'Verdana', 'Geneva', 'Lucid', 'Avant Garde', sans-serif; text-anchor: start" x="334.370037" y="462.455651" transform="rotate(-0 334.370037 462.455651)">RL</text>
   </g>
   <g id="text_26">
    <text style="font-size: 12px; font-family: 'Helvetica', 'Arial', 'DejaVu Sans', 'Bitstream Vera Sans', 'Computer Modern Sans Serif', 'Lucida Grande', 'Verdana', 'Geneva', 'Lucid', 'Avant Garde', sans-serif" transform="translate(280.1625 15.808125)">p3 - All Regions</text>
    <text style="font-size: 12px; font-family: 'Helvetica', 'Arial', 'DejaVu Sans', 'Bitstream Vera Sans', 'Computer Modern Sans Serif', 'Lucida Grande', 'Verdana', 'Geneva', 'Lucid', 'Avant Garde', sans-serif" transform="translate(239.155312 28.961625)">Imputed Data Analysis (zscore)</text>
    <text style="font-size: 12px; font-family: 'Helvetica', 'Arial', 'DejaVu Sans', 'Bitstream Vera Sans', 'Computer Modern Sans Serif', 'Lucida Grande', 'Verdana', 'Geneva', 'Lucid', 'Avant Garde', sans-serif" transform="translate(260.814375 41.863875)">r = -0.1510, r² = 0.0228</text>
   </g>
  </g>
 </g>
 <defs>
  <clipPath id="pb9dbd6034c">
   <rect x="43.515" y="47.863875" width="558" height="443.52"/>
  </clipPath>
 </defs>
</svg>
