<?xml version="1.0" encoding="utf-8" standalone="no"?>
<!DOCTYPE svg PUBLIC "-//W3C//DTD SVG 1.1//EN"
  "http://www.w3.org/Graphics/SVG/1.1/DTD/svg11.dtd">
<svg xmlns:xlink="http://www.w3.org/1999/xlink" width="606.216563pt" height="530.162937pt" viewBox="0 0 606.216563 530.162937" xmlns="http://www.w3.org/2000/svg" version="1.1">
 <metadata>
  <rdf:RDF xmlns:dc="http://purl.org/dc/elements/1.1/" xmlns:cc="http://creativecommons.org/ns#" xmlns:rdf="http://www.w3.org/1999/02/22-rdf-syntax-ns#">
   <cc:Work>
    <dc:type rdf:resource="http://purl.org/dc/dcmitype/StillImage"/>
    <dc:date>2026-02-24T12:29:10.277516</dc:date>
    <dc:format>image/svg+xml</dc:format>
    <dc:creator>
     <cc:Agent>
      <dc:title>Matplotlib v3.10.5, https://matplotlib.org/</dc:title>
     </cc:Agent>
    </dc:creator>
   </cc:Work>
  </rdf:RDF>
 </metadata>
 <defs>
  <style type="text/css">*{stroke-linejoin: round; stroke-linecap: butt}</style>
 </defs>
 <g id="figure_1">
  <g id="patch_1">
   <path d="M 0 530.162937 
L 606.216563 530.162937 
L 606.216563 0 
L 0 0 
z
" style="fill: #ffffff"/>
  </g>
  <g id="axes_1">
   <g id="patch_2">
    <path d="M 41.016562 491.383875 
L 599.016562 491.383875 
L 599.016562 47.863875 
L 41.016562 47.863875 
z
" style="fill: #ffffff"/>
   </g>
   <g id="PathCollection_1">
    <defs>
     <path id="C0_0_7ec2e22dba" d="M 0 5 
C 1.326016 5 2.597899 4.473168 3.535534 3.535534 
C 4.473168 2.597899 5 1.326016 5 -0 
C 5 -1.326016 4.473168 -2.597899 3.535534 -3.535534 
C 2.597899 -4.473168 1.326016 -5 0 -5 
C -1.326016 -5 -2.597899 -4.473168 -3.535534 -3.535534 
C -4.473168 -2.597899 -5 -1.326016 -5 0 
C -5 1.326016 -4.473168 2.597899 -3.535534 3.535534 
C -2.597899 4.473168 -1.326016 5 0 5 
z
"/>
    </defs>
    <g clip-path="url(#p8779450482)">
     <use xlink:href="#C0_0_7ec2e22dba" x="66.380199" y="377.038048" style="fill: #00008b"/>
    </g>
    <g clip-path="url(#p8779450482)">
     <use xlink:href="#C0_0_7ec2e22dba" x="66.380199" y="402.436473" style="fill: #00008b"/>
    </g>
    <g clip-path="url(#p8779450482)">
     <use xlink:href="#C0_0_7ec2e22dba" x="66.380199" y="317.775056" style="fill: #00008b"/>
    </g>
    <g clip-path="url(#p8779450482)">
     <use xlink:href="#C0_0_7ec2e22dba" x="66.380199" y="68.023875" style="fill: #00008b"/>
    </g>
    <g clip-path="url(#p8779450482)">
     <use xlink:href="#C0_0_7ec2e22dba" x="66.380199" y="471.223875" style="fill: #00008b"/>
    </g>
    <g clip-path="url(#p8779450482)">
     <use xlink:href="#C0_0_7ec2e22dba" x="66.380199" y="427.834899" style="fill: #00008b"/>
    </g>
    <g clip-path="url(#p8779450482)">
     <use xlink:href="#C0_0_7ec2e22dba" x="573.652926" y="317.775056" style="fill: #00008b"/>
    </g>
    <g clip-path="url(#p8779450482)">
     <use xlink:href="#C0_0_7ec2e22dba" x="66.380199" y="360.105765" style="fill: #00008b"/>
    </g>
   </g>
   <g id="matplotlib.axis_1">
    <g id="xtick_1">
     <g id="line2d_1">
      <defs>
       <path id="mda0b1c3d21" d="M 0 0 
L 0 3.5 
" style="stroke: #000000; stroke-width: 0.8"/>
      </defs>
      <g>
       <use xlink:href="#mda0b1c3d21" x="66.380199" y="491.383875" style="stroke: #000000; stroke-width: 0.8"/>
      </g>
     </g>
     <g id="text_1">
      <text style="font-size: 10px; font-family: 'Helvetica', 'Arial', 'DejaVu Sans', 'Bitstream Vera Sans', 'Computer Modern Sans Serif', 'Lucida Grande', 'Verdana', 'Geneva', 'Lucid', 'Avant Garde', sans-serif; text-anchor: middle" x="66.380199" y="505.557312" transform="rotate(-0 66.380199 505.557312)">0.0</text>
     </g>
    </g>
    <g id="xtick_2">
     <g id="line2d_2">
      <g>
       <use xlink:href="#mda0b1c3d21" x="187.42625" y="491.383875" style="stroke: #000000; stroke-width: 0.8"/>
      </g>
     </g>
     <g id="text_2">
      <text style="font-size: 10px; font-family: 'Helvetica', 'Arial', 'DejaVu Sans', 'Bitstream Vera Sans', 'Computer Modern Sans Serif', 'Lucida Grande', 'Verdana', 'Geneva', 'Lucid', 'Avant Garde', sans-serif; text-anchor: middle" x="187.42625" y="505.557312" transform="rotate(-0 187.42625 505.557312)">0.1</text>
     </g>
    </g>
    <g id="xtick_3">
     <g id="line2d_3">
      <g>
       <use xlink:href="#mda0b1c3d21" x="308.4723" y="491.383875" style="stroke: #000000; stroke-width: 0.8"/>
      </g>
     </g>
     <g id="text_3">
      <text style="font-size: 10px; font-family: 'Helvetica', 'Arial', 'DejaVu Sans', 'Bitstream Vera Sans', 'Computer Modern Sans Serif', 'Lucida Grande', 'Verdana', 'Geneva', 'Lucid', 'Avant Garde', sans-serif; text-anchor: middle" x="308.4723" y="505.557312" transform="rotate(-0 308.4723 505.557312)">0.2</text>
     </g>
    </g>
    <g id="xtick_4">
     <g id="line2d_4">
      <g>
       <use xlink:href="#mda0b1c3d21" x="429.518351" y="491.383875" style="stroke: #000000; stroke-width: 0.8"/>
      </g>
     </g>
     <g id="text_4">
      <text style="font-size: 10px; font-family: 'Helvetica', 'Arial', 'DejaVu Sans', 'Bitstream Vera Sans', 'Computer Modern Sans Serif', 'Lucida Grande', 'Verdana', 'Geneva', 'Lucid', 'Avant Garde', sans-serif; text-anchor: middle" x="429.518351" y="505.557312" transform="rotate(-0 429.518351 505.557312)">0.3</text>
     </g>
    </g>
    <g id="xtick_5">
     <g id="line2d_5">
      <g>
       <use xlink:href="#mda0b1c3d21" x="550.564402" y="491.383875" style="stroke: #000000; stroke-width: 0.8"/>
      </g>
     </g>
     <g id="text_5">
      <text style="font-size: 10px; font-family: 'Helvetica', 'Arial', 'DejaVu Sans', 'Bitstream Vera Sans', 'Computer Modern Sans Serif', 'Lucida Grande', 'Verdana', 'Geneva', 'Lucid', 'Avant Garde', sans-serif; text-anchor: middle" x="550.564402" y="505.557312" transform="rotate(-0 550.564402 505.557312)">0.4</text>
     </g>
    </g>
    <g id="text_6">
     <text style="font-size: 12px; font-family: 'Helvetica', 'Arial', 'DejaVu Sans', 'Bitstream Vera Sans', 'Computer Modern Sans Serif', 'Lucida Grande', 'Verdana', 'Geneva', 'Lucid', 'Avant Garde', sans-serif; text-anchor: middle" x="320.016563" y="520.390437" transform="rotate(-0 320.016563 520.390437)">H2B Intensity (Robust Normalized)</text>
    </g>
   </g>
   <g id="matplotlib.axis_2">
    <g id="ytick_1">
     <g id="line2d_6">
      <defs>
       <path id="m4ec9d70e4c" d="M 0 0 
L -3.5 0 
" style="stroke: #000000; stroke-width: 0.8"/>
      </defs>
      <g>
       <use xlink:href="#m4ec9d70e4c" x="41.016562" y="439.785017" style="stroke: #000000; stroke-width: 0.8"/>
      </g>
     </g>
     <g id="text_7">
      <text style="font-size: 10px; font-family: 'Helvetica', 'Arial', 'DejaVu Sans', 'Bitstream Vera Sans', 'Computer Modern Sans Serif', 'Lucida Grande', 'Verdana', 'Geneva', 'Lucid', 'Avant Garde', sans-serif; text-anchor: end" x="34.016562" y="443.371736" transform="rotate(-0 34.016562 443.371736)">−4</text>
     </g>
    </g>
    <g id="ytick_2">
     <g id="line2d_7">
      <g>
       <use xlink:href="#m4ec9d70e4c" x="41.016562" y="378.780037" style="stroke: #000000; stroke-width: 0.8"/>
      </g>
     </g>
     <g id="text_8">
      <text style="font-size: 10px; font-family: 'Helvetica', 'Arial', 'DejaVu Sans', 'Bitstream Vera Sans', 'Computer Modern Sans Serif', 'Lucida Grande', 'Verdana', 'Geneva', 'Lucid', 'Avant Garde', sans-serif; text-anchor: end" x="34.016562" y="382.366755" transform="rotate(-0 34.016562 382.366755)">−2</text>
     </g>
    </g>
    <g id="ytick_3">
     <g id="line2d_8">
      <g>
       <use xlink:href="#m4ec9d70e4c" x="41.016562" y="317.775056" style="stroke: #000000; stroke-width: 0.8"/>
      </g>
     </g>
     <g id="text_9">
      <text style="font-size: 10px; font-family: 'Helvetica', 'Arial', 'DejaVu Sans', 'Bitstream Vera Sans', 'Computer Modern Sans Serif', 'Lucida Grande', 'Verdana', 'Geneva', 'Lucid', 'Avant Garde', sans-serif; text-anchor: end" x="34.016562" y="321.361775" transform="rotate(-0 34.016562 321.361775)">0</text>
     </g>
    </g>
    <g id="ytick_4">
     <g id="line2d_9">
      <g>
       <use xlink:href="#m4ec9d70e4c" x="41.016562" y="256.770076" style="stroke: #000000; stroke-width: 0.8"/>
      </g>
     </g>
     <g id="text_10">
      <text style="font-size: 10px; font-family: 'Helvetica', 'Arial', 'DejaVu Sans', 'Bitstream Vera Sans', 'Computer Modern Sans Serif', 'Lucida Grande', 'Verdana', 'Geneva', 'Lucid', 'Avant Garde', sans-serif; text-anchor: end" x="34.016562" y="260.356794" transform="rotate(-0 34.016562 260.356794)">2</text>
     </g>
    </g>
    <g id="ytick_5">
     <g id="line2d_10">
      <g>
       <use xlink:href="#m4ec9d70e4c" x="41.016562" y="195.765095" style="stroke: #000000; stroke-width: 0.8"/>
      </g>
     </g>
     <g id="text_11">
      <text style="font-size: 10px; font-family: 'Helvetica', 'Arial', 'DejaVu Sans', 'Bitstream Vera Sans', 'Computer Modern Sans Serif', 'Lucida Grande', 'Verdana', 'Geneva', 'Lucid', 'Avant Garde', sans-serif; text-anchor: end" x="34.016562" y="199.351814" transform="rotate(-0 34.016562 199.351814)">4</text>
     </g>
    </g>
    <g id="ytick_6">
     <g id="line2d_11">
      <g>
       <use xlink:href="#m4ec9d70e4c" x="41.016562" y="134.760115" style="stroke: #000000; stroke-width: 0.8"/>
      </g>
     </g>
     <g id="text_12">
      <text style="font-size: 10px; font-family: 'Helvetica', 'Arial', 'DejaVu Sans', 'Bitstream Vera Sans', 'Computer Modern Sans Serif', 'Lucida Grande', 'Verdana', 'Geneva', 'Lucid', 'Avant Garde', sans-serif; text-anchor: end" x="34.016562" y="138.346834" transform="rotate(-0 34.016562 138.346834)">6</text>
     </g>
    </g>
    <g id="ytick_7">
     <g id="line2d_12">
      <g>
       <use xlink:href="#m4ec9d70e4c" x="41.016562" y="73.755134" style="stroke: #000000; stroke-width: 0.8"/>
      </g>
     </g>
     <g id="text_13">
      <text style="font-size: 10px; font-family: 'Helvetica', 'Arial', 'DejaVu Sans', 'Bitstream Vera Sans', 'Computer Modern Sans Serif', 'Lucida Grande', 'Verdana', 'Geneva', 'Lucid', 'Avant Garde', sans-serif; text-anchor: end" x="34.016562" y="77.341853" transform="rotate(-0 34.016562 77.341853)">8</text>
     </g>
    </g>
    <g id="text_14">
     <text style="font-size: 12px; font-family: 'Helvetica', 'Arial', 'DejaVu Sans', 'Bitstream Vera Sans', 'Computer Modern Sans Serif', 'Lucida Grande', 'Verdana', 'Geneva', 'Lucid', 'Avant Garde', sans-serif; text-anchor: middle" x="16.0425" y="269.623875" transform="rotate(-90 16.0425 269.623875)">VSV Intensity (Robust Normalized)</text>
    </g>
    <g id="text_15">
     <text style="font-size: 10px; font-family: 'Helvetica', 'Arial', 'DejaVu Sans', 'Bitstream Vera Sans', 'Computer Modern Sans Serif', 'Lucida Grande', 'Verdana', 'Geneva', 'Lucid', 'Avant Garde', sans-serif; text-anchor: start" x="41.016562" y="44.863875" transform="rotate(-0 41.016562 44.863875)">1e−16</text>
    </g>
   </g>
   <g id="line2d_13">
    <path d="M 66.380199 346.348284 
L 71.504166 346.059666 
L 76.628133 345.771048 
L 81.7521 345.482429 
L 86.876067 345.193811 
L 92.000034 344.905192 
L 97.124001 344.616574 
L 102.247967 344.327955 
L 107.371934 344.039337 
L 112.495901 343.750718 
L 117.619868 343.4621 
L 122.743835 343.173481 
L 127.867802 342.884863 
L 132.991769 342.596244 
L 138.115736 342.307626 
L 143.239703 342.019007 
L 148.36367 341.730389 
L 153.487637 341.44177 
L 158.611604 341.153152 
L 163.735571 340.864534 
L 168.859538 340.575915 
L 173.983505 340.287297 
L 179.107472 339.998678 
L 184.231439 339.71006 
L 189.355405 339.421441 
L 194.479372 339.132823 
L 199.603339 338.844204 
L 204.727306 338.555586 
L 209.851273 338.266967 
L 214.97524 337.978349 
L 220.099207 337.68973 
L 225.223174 337.401112 
L 230.347141 337.112493 
L 235.471108 336.823875 
L 240.595075 336.535257 
L 245.719042 336.246638 
L 250.843009 335.95802 
L 255.966976 335.669401 
L 261.090943 335.380783 
L 266.21491 335.092164 
L 271.338877 334.803546 
L 276.462843 334.514927 
L 281.58681 334.226309 
L 286.710777 333.93769 
L 291.834744 333.649072 
L 296.958711 333.360453 
L 302.082678 333.071835 
L 307.206645 332.783216 
L 312.330612 332.494598 
L 317.454579 332.20598 
L 322.578546 331.917361 
L 327.702513 331.628743 
L 332.82648 331.340124 
L 337.950447 331.051506 
L 343.074414 330.762887 
L 348.198381 330.474269 
L 353.322348 330.18565 
L 358.446315 329.897032 
L 363.570282 329.608413 
L 368.694248 329.319795 
L 373.818215 329.031176 
L 378.942182 328.742558 
L 384.066149 328.453939 
L 389.190116 328.165321 
L 394.314083 327.876702 
L 399.43805 327.588084 
L 404.562017 327.299466 
L 409.685984 327.010847 
L 414.809951 326.722229 
L 419.933918 326.43361 
L 425.057885 326.144992 
L 430.181852 325.856373 
L 435.305819 325.567755 
L 440.429786 325.279136 
L 445.553753 324.990518 
L 450.67772 324.701899 
L 455.801686 324.413281 
L 460.925653 324.124662 
L 466.04962 323.836044 
L 471.173587 323.547425 
L 476.297554 323.258807 
L 481.421521 322.970189 
L 486.545488 322.68157 
L 491.669455 322.392952 
L 496.793422 322.104333 
L 501.917389 321.815715 
L 507.041356 321.527096 
L 512.165323 321.238478 
L 517.28929 320.949859 
L 522.413257 320.661241 
L 527.537224 320.372622 
L 532.661191 320.084004 
L 537.785158 319.795385 
L 542.909124 319.506767 
L 548.033091 319.218148 
L 553.157058 318.92953 
L 558.281025 318.640912 
L 563.404992 318.352293 
L 568.528959 318.063675 
L 573.652926 317.775056 
" clip-path="url(#p8779450482)" style="fill: none; stroke: #000000; stroke-width: 2; stroke-linecap: square"/>
   </g>
   <g id="patch_3">
    <path d="M 41.016562 491.383875 
L 41.016562 47.863875 
" style="fill: none; stroke: #000000; stroke-width: 0.8; stroke-linejoin: miter; stroke-linecap: square"/>
   </g>
   <g id="patch_4">
    <path d="M 41.016562 491.383875 
L 599.016563 491.383875 
" style="fill: none; stroke: #000000; stroke-width: 0.8; stroke-linejoin: miter; stroke-linecap: square"/>
   </g>
   <g id="text_16">
    <text style="font-size: 9px; font-family: 'Helvetica', 'Arial', 'DejaVu Sans', 'Bitstream Vera Sans', 'Computer Modern Sans Serif', 'Lucida Grande', 'Verdana', 'Geneva', 'Lucid', 'Avant Garde', sans-serif; text-anchor: start" x="71.380199" y="372.038048" transform="rotate(-0 71.380199 372.038048)">A</text>
   </g>
   <g id="text_17">
    <text style="font-size: 9px; font-family: 'Helvetica', 'Arial', 'DejaVu Sans', 'Bitstream Vera Sans', 'Computer Modern Sans Serif', 'Lucida Grande', 'Verdana', 'Geneva', 'Lucid', 'Avant Garde', sans-serif; text-anchor: start" x="71.380199" y="397.436473" transform="rotate(-0 71.380199 397.436473)">AL</text>
   </g>
   <g id="text_18">
    <text style="font-size: 9px; font-family: 'Helvetica', 'Arial', 'DejaVu Sans', 'Bitstream Vera Sans', 'Computer Modern Sans Serif', 'Lucida Grande', 'Verdana', 'Geneva', 'Lucid', 'Avant Garde', sans-serif; text-anchor: start" x="71.380199" y="312.775056" transform="rotate(-0 71.380199 312.775056)">AM</text>
   </g>
   <g id="text_19">
    <text style="font-size: 9px; font-family: 'Helvetica', 'Arial', 'DejaVu Sans', 'Bitstream Vera Sans', 'Computer Modern Sans Serif', 'Lucida Grande', 'Verdana', 'Geneva', 'Lucid', 'Avant Garde', sans-serif; text-anchor: start" x="71.380199" y="63.023875" transform="rotate(-0 71.380199 63.023875)">LM</text>
   </g>
   <g id="text_20">
    <text style="font-size: 9px; font-family: 'Helvetica', 'Arial', 'DejaVu Sans', 'Bitstream Vera Sans', 'Computer Modern Sans Serif', 'Lucida Grande', 'Verdana', 'Geneva', 'Lucid', 'Avant Garde', sans-serif; text-anchor: start" x="71.380199" y="466.223875" transform="rotate(-0 71.380199 466.223875)">LI</text>
   </g>
   <g id="text_21">
    <text style="font-size: 9px; font-family: 'Helvetica', 'Arial', 'DejaVu Sans', 'Bitstream Vera Sans', 'Computer Modern Sans Serif', 'Lucida Grande', 'Verdana', 'Geneva', 'Lucid', 'Avant Garde', sans-serif; text-anchor: start" x="71.380199" y="422.834899" transform="rotate(-0 71.380199 422.834899)">PM</text>
   </g>
   <g id="text_22">
    <text style="font-size: 9px; font-family: 'Helvetica', 'Arial', 'DejaVu Sans', 'Bitstream Vera Sans', 'Computer Modern Sans Serif', 'Lucida Grande', 'Verdana', 'Geneva', 'Lucid', 'Avant Garde', sans-serif; text-anchor: start" x="578.652926" y="312.775056" transform="rotate(-0 578.652926 312.775056)">POR</text>
   </g>
   <g id="text_23">
    <text style="font-size: 9px; font-family: 'Helvetica', 'Arial', 'DejaVu Sans', 'Bitstream Vera Sans', 'Computer Modern Sans Serif', 'Lucida Grande', 'Verdana', 'Geneva', 'Lucid', 'Avant Garde', sans-serif; text-anchor: start" x="71.380199" y="355.105765" transform="rotate(-0 71.380199 355.105765)">RL</text>
   </g>
   <g id="text_24">
    <text style="font-size: 12px; font-family: 'Helvetica', 'Arial', 'DejaVu Sans', 'Bitstream Vera Sans', 'Computer Modern Sans Serif', 'Lucida Grande', 'Verdana', 'Geneva', 'Lucid', 'Avant Garde', sans-serif" transform="translate(274.3275 15.808125)">p20 - All Regions</text>
    <text style="font-size: 12px; font-family: 'Helvetica', 'Arial', 'DejaVu Sans', 'Bitstream Vera Sans', 'Computer Modern Sans Serif', 'Lucida Grande', 'Verdana', 'Geneva', 'Lucid', 'Avant Garde', sans-serif" transform="translate(237.653438 28.961625)">Imputed Data Analysis (robust)</text>
    <text style="font-size: 12px; font-family: 'Helvetica', 'Arial', 'DejaVu Sans', 'Bitstream Vera Sans', 'Computer Modern Sans Serif', 'Lucida Grande', 'Verdana', 'Geneva', 'Lucid', 'Avant Garde', sans-serif" transform="translate(258.315938 41.863875)">r = -0.0909, r² = 0.0083</text>
   </g>
  </g>
 </g>
 <defs>
  <clipPath id="p8779450482">
   <rect x="41.016562" y="47.863875" width="558" height="443.52"/>
  </clipPath>
 </defs>
</svg>
