<?xml version="1.0" encoding="utf-8" standalone="no"?>
<!DOCTYPE svg PUBLIC "-//W3C//DTD SVG 1.1//EN"
  "http://www.w3.org/Graphics/SVG/1.1/DTD/svg11.dtd">
<svg xmlns:xlink="http://www.w3.org/1999/xlink" width="621.721581pt" height="530.327937pt" viewBox="0 0 621.721581 530.327937" xmlns="http://www.w3.org/2000/svg" version="1.1">
 <metadata>
  <rdf:RDF xmlns:dc="http://purl.org/dc/elements/1.1/" xmlns:cc="http://creativecommons.org/ns#" xmlns:rdf="http://www.w3.org/1999/02/22-rdf-syntax-ns#">
   <cc:Work>
    <dc:type rdf:resource="http://purl.org/dc/dcmitype/StillImage"/>
    <dc:date>2026-02-24T12:28:51.140230</dc:date>
    <dc:format>image/svg+xml</dc:format>
    <dc:creator>
     <cc:Agent>
      <dc:title>Matplotlib v3.10.5, https://matplotlib.org/</dc:title>
     </cc:Agent>
    </dc:creator>
   </cc:Work>
  </rdf:RDF>
 </metadata>
 <defs>
  <style type="text/css">*{stroke-linejoin: round; stroke-linecap: butt}</style>
 </defs>
 <g id="figure_1">
  <g id="patch_1">
   <path d="M 0 530.327937 
L 621.721581 530.327937 
L 621.721581 0 
L 0 0 
z
" style="fill: #ffffff"/>
  </g>
  <g id="axes_1">
   <g id="patch_2">
    <path d="M 49.158438 491.466375 
L 607.158437 491.466375 
L 607.158437 47.946375 
L 49.158438 47.946375 
z
" style="fill: #ffffff"/>
   </g>
   <g id="PathCollection_1">
    <defs>
     <path id="C0_0_a8e9599a6b" d="M 0 5 
C 1.326016 5 2.597899 4.473168 3.535534 3.535534 
C 4.473168 2.597899 5 1.326016 5 -0 
C 5 -1.326016 4.473168 -2.597899 3.535534 -3.535534 
C 2.597899 -4.473168 1.326016 -5 0 -5 
C -1.326016 -5 -2.597899 -4.473168 -3.535534 -3.535534 
C -4.473168 -2.597899 -5 -1.326016 -5 0 
C -5 1.326016 -4.473168 2.597899 -3.535534 3.535534 
C -2.597899 4.473168 -1.326016 5 0 5 
z
"/>
    </defs>
    <g clip-path="url(#p0740a88708)">
     <use xlink:href="#C0_0_a8e9599a6b" x="581.794801" y="77.066176" style="fill: #00008b"/>
    </g>
    <g clip-path="url(#p0740a88708)">
     <use xlink:href="#C0_0_a8e9599a6b" x="189.690547" y="306.63304" style="fill: #00008b"/>
    </g>
    <g clip-path="url(#p0740a88708)">
     <use xlink:href="#C0_0_a8e9599a6b" x="158.621764" y="168.657103" style="fill: #00008b"/>
    </g>
    <g clip-path="url(#p0740a88708)">
     <use xlink:href="#C0_0_a8e9599a6b" x="251.829672" y="201.19194" style="fill: #00008b"/>
    </g>
    <g clip-path="url(#p0740a88708)">
     <use xlink:href="#C0_0_a8e9599a6b" x="122.290102" y="471.306375" style="fill: #00008b"/>
    </g>
    <g clip-path="url(#p0740a88708)">
     <use xlink:href="#C0_0_a8e9599a6b" x="253.241531" y="251.927722" style="fill: #00008b"/>
    </g>
    <g clip-path="url(#p0740a88708)">
     <use xlink:href="#C0_0_a8e9599a6b" x="220.964423" y="395.236759" style="fill: #00008b"/>
    </g>
    <g clip-path="url(#p0740a88708)">
     <use xlink:href="#C0_0_a8e9599a6b" x="74.522074" y="68.106375" style="fill: #00008b"/>
    </g>
   </g>
   <g id="matplotlib.axis_1">
    <g id="xtick_1">
     <g id="line2d_1">
      <defs>
       <path id="m9a40f43949" d="M 0 0 
L 0 3.5 
" style="stroke: #000000; stroke-width: 0.8"/>
      </defs>
      <g>
       <use xlink:href="#m9a40f43949" x="100.355635" y="491.466375" style="stroke: #000000; stroke-width: 0.8"/>
      </g>
     </g>
     <g id="text_1">
      <text style="font-size: 10px; font-family: 'Helvetica', 'Arial', 'DejaVu Sans', 'Bitstream Vera Sans', 'Computer Modern Sans Serif', 'Lucida Grande', 'Verdana', 'Geneva', 'Lucid', 'Avant Garde', sans-serif; text-anchor: middle" x="100.355635" y="505.639812" transform="rotate(-0 100.355635 505.639812)">1.72</text>
     </g>
    </g>
    <g id="xtick_2">
     <g id="line2d_2">
      <g>
       <use xlink:href="#m9a40f43949" x="184.428215" y="491.466375" style="stroke: #000000; stroke-width: 0.8"/>
      </g>
     </g>
     <g id="text_2">
      <text style="font-size: 10px; font-family: 'Helvetica', 'Arial', 'DejaVu Sans', 'Bitstream Vera Sans', 'Computer Modern Sans Serif', 'Lucida Grande', 'Verdana', 'Geneva', 'Lucid', 'Avant Garde', sans-serif; text-anchor: middle" x="184.428215" y="505.639812" transform="rotate(-0 184.428215 505.639812)">1.74</text>
     </g>
    </g>
    <g id="xtick_3">
     <g id="line2d_3">
      <g>
       <use xlink:href="#m9a40f43949" x="268.500794" y="491.466375" style="stroke: #000000; stroke-width: 0.8"/>
      </g>
     </g>
     <g id="text_3">
      <text style="font-size: 10px; font-family: 'Helvetica', 'Arial', 'DejaVu Sans', 'Bitstream Vera Sans', 'Computer Modern Sans Serif', 'Lucida Grande', 'Verdana', 'Geneva', 'Lucid', 'Avant Garde', sans-serif; text-anchor: middle" x="268.500794" y="505.639812" transform="rotate(-0 268.500794 505.639812)">1.76</text>
     </g>
    </g>
    <g id="xtick_4">
     <g id="line2d_4">
      <g>
       <use xlink:href="#m9a40f43949" x="352.573374" y="491.466375" style="stroke: #000000; stroke-width: 0.8"/>
      </g>
     </g>
     <g id="text_4">
      <text style="font-size: 10px; font-family: 'Helvetica', 'Arial', 'DejaVu Sans', 'Bitstream Vera Sans', 'Computer Modern Sans Serif', 'Lucida Grande', 'Verdana', 'Geneva', 'Lucid', 'Avant Garde', sans-serif; text-anchor: middle" x="352.573374" y="505.639812" transform="rotate(-0 352.573374 505.639812)">1.78</text>
     </g>
    </g>
    <g id="xtick_5">
     <g id="line2d_5">
      <g>
       <use xlink:href="#m9a40f43949" x="436.645953" y="491.466375" style="stroke: #000000; stroke-width: 0.8"/>
      </g>
     </g>
     <g id="text_5">
      <text style="font-size: 10px; font-family: 'Helvetica', 'Arial', 'DejaVu Sans', 'Bitstream Vera Sans', 'Computer Modern Sans Serif', 'Lucida Grande', 'Verdana', 'Geneva', 'Lucid', 'Avant Garde', sans-serif; text-anchor: middle" x="436.645953" y="505.639812" transform="rotate(-0 436.645953 505.639812)">1.80</text>
     </g>
    </g>
    <g id="xtick_6">
     <g id="line2d_6">
      <g>
       <use xlink:href="#m9a40f43949" x="520.718532" y="491.466375" style="stroke: #000000; stroke-width: 0.8"/>
      </g>
     </g>
     <g id="text_6">
      <text style="font-size: 10px; font-family: 'Helvetica', 'Arial', 'DejaVu Sans', 'Bitstream Vera Sans', 'Computer Modern Sans Serif', 'Lucida Grande', 'Verdana', 'Geneva', 'Lucid', 'Avant Garde', sans-serif; text-anchor: middle" x="520.718532" y="505.639812" transform="rotate(-0 520.718532 505.639812)">1.82</text>
     </g>
    </g>
    <g id="xtick_7">
     <g id="line2d_7">
      <g>
       <use xlink:href="#m9a40f43949" x="604.791112" y="491.466375" style="stroke: #000000; stroke-width: 0.8"/>
      </g>
     </g>
     <g id="text_7">
      <text style="font-size: 10px; font-family: 'Helvetica', 'Arial', 'DejaVu Sans', 'Bitstream Vera Sans', 'Computer Modern Sans Serif', 'Lucida Grande', 'Verdana', 'Geneva', 'Lucid', 'Avant Garde', sans-serif; text-anchor: middle" x="604.791112" y="505.639812" transform="rotate(-0 604.791112 505.639812)">1.84</text>
     </g>
    </g>
    <g id="text_8">
     <text style="font-size: 12px; font-family: 'Helvetica', 'Arial', 'DejaVu Sans', 'Bitstream Vera Sans', 'Computer Modern Sans Serif', 'Lucida Grande', 'Verdana', 'Geneva', 'Lucid', 'Avant Garde', sans-serif; text-anchor: middle" x="328.158437" y="520.472937" transform="rotate(-0 328.158437 520.472937)">H2B Intensity (log10)</text>
    </g>
   </g>
   <g id="matplotlib.axis_2">
    <g id="ytick_1">
     <g id="line2d_8">
      <defs>
       <path id="me61ac5163c" d="M 0 0 
L -3.5 0 
" style="stroke: #000000; stroke-width: 0.8"/>
      </defs>
      <g>
       <use xlink:href="#me61ac5163c" x="49.158438" y="427.237127" style="stroke: #000000; stroke-width: 0.8"/>
      </g>
     </g>
     <g id="text_9">
      <text style="font-size: 10px; font-family: 'Helvetica', 'Arial', 'DejaVu Sans', 'Bitstream Vera Sans', 'Computer Modern Sans Serif', 'Lucida Grande', 'Verdana', 'Geneva', 'Lucid', 'Avant Garde', sans-serif; text-anchor: end" x="42.158438" y="430.823846" transform="rotate(-0 42.158438 430.823846)">0.75</text>
     </g>
    </g>
    <g id="ytick_2">
     <g id="line2d_9">
      <g>
       <use xlink:href="#me61ac5163c" x="49.158438" y="356.548072" style="stroke: #000000; stroke-width: 0.8"/>
      </g>
     </g>
     <g id="text_10">
      <text style="font-size: 10px; font-family: 'Helvetica', 'Arial', 'DejaVu Sans', 'Bitstream Vera Sans', 'Computer Modern Sans Serif', 'Lucida Grande', 'Verdana', 'Geneva', 'Lucid', 'Avant Garde', sans-serif; text-anchor: end" x="42.158438" y="360.134791" transform="rotate(-0 42.158438 360.134791)">0.80</text>
     </g>
    </g>
    <g id="ytick_3">
     <g id="line2d_10">
      <g>
       <use xlink:href="#me61ac5163c" x="49.158438" y="285.859017" style="stroke: #000000; stroke-width: 0.8"/>
      </g>
     </g>
     <g id="text_11">
      <text style="font-size: 10px; font-family: 'Helvetica', 'Arial', 'DejaVu Sans', 'Bitstream Vera Sans', 'Computer Modern Sans Serif', 'Lucida Grande', 'Verdana', 'Geneva', 'Lucid', 'Avant Garde', sans-serif; text-anchor: end" x="42.158438" y="289.445736" transform="rotate(-0 42.158438 289.445736)">0.85</text>
     </g>
    </g>
    <g id="ytick_4">
     <g id="line2d_11">
      <g>
       <use xlink:href="#me61ac5163c" x="49.158438" y="215.169962" style="stroke: #000000; stroke-width: 0.8"/>
      </g>
     </g>
     <g id="text_12">
      <text style="font-size: 10px; font-family: 'Helvetica', 'Arial', 'DejaVu Sans', 'Bitstream Vera Sans', 'Computer Modern Sans Serif', 'Lucida Grande', 'Verdana', 'Geneva', 'Lucid', 'Avant Garde', sans-serif; text-anchor: end" x="42.158438" y="218.756681" transform="rotate(-0 42.158438 218.756681)">0.90</text>
     </g>
    </g>
    <g id="ytick_5">
     <g id="line2d_12">
      <g>
       <use xlink:href="#me61ac5163c" x="49.158438" y="144.480907" style="stroke: #000000; stroke-width: 0.8"/>
      </g>
     </g>
     <g id="text_13">
      <text style="font-size: 10px; font-family: 'Helvetica', 'Arial', 'DejaVu Sans', 'Bitstream Vera Sans', 'Computer Modern Sans Serif', 'Lucida Grande', 'Verdana', 'Geneva', 'Lucid', 'Avant Garde', sans-serif; text-anchor: end" x="42.158438" y="148.067626" transform="rotate(-0 42.158438 148.067626)">0.95</text>
     </g>
    </g>
    <g id="ytick_6">
     <g id="line2d_13">
      <g>
       <use xlink:href="#me61ac5163c" x="49.158438" y="73.791852" style="stroke: #000000; stroke-width: 0.8"/>
      </g>
     </g>
     <g id="text_14">
      <text style="font-size: 10px; font-family: 'Helvetica', 'Arial', 'DejaVu Sans', 'Bitstream Vera Sans', 'Computer Modern Sans Serif', 'Lucida Grande', 'Verdana', 'Geneva', 'Lucid', 'Avant Garde', sans-serif; text-anchor: end" x="42.158438" y="77.378571" transform="rotate(-0 42.158438 77.378571)">1.00</text>
     </g>
    </g>
    <g id="text_15">
     <text style="font-size: 12px; font-family: 'Helvetica', 'Arial', 'DejaVu Sans', 'Bitstream Vera Sans', 'Computer Modern Sans Serif', 'Lucida Grande', 'Verdana', 'Geneva', 'Lucid', 'Avant Garde', sans-serif; text-anchor: middle" x="16.0425" y="269.706375" transform="rotate(-90 16.0425 269.706375)">VSV Intensity (log10)</text>
    </g>
   </g>
   <g id="line2d_14">
    <path d="M 74.522074 294.251718 
L 79.646041 292.564269 
L 84.770008 290.87682 
L 89.893975 289.18937 
L 95.017942 287.501921 
L 100.141909 285.814472 
L 105.265876 284.127022 
L 110.389842 282.439573 
L 115.513809 280.752124 
L 120.637776 279.064674 
L 125.761743 277.377225 
L 130.88571 275.689776 
L 136.009677 274.002326 
L 141.133644 272.314877 
L 146.257611 270.627428 
L 151.381578 268.939978 
L 156.505545 267.252529 
L 161.629512 265.56508 
L 166.753479 263.87763 
L 171.877446 262.190181 
L 177.001413 260.502732 
L 182.12538 258.815282 
L 187.249347 257.127833 
L 192.373314 255.440384 
L 197.49728 253.752934 
L 202.621247 252.065485 
L 207.745214 250.378036 
L 212.869181 248.690586 
L 217.993148 247.003137 
L 223.117115 245.315688 
L 228.241082 243.628238 
L 233.365049 241.940789 
L 238.489016 240.25334 
L 243.612983 238.56589 
L 248.73695 236.878441 
L 253.860917 235.190992 
L 258.984884 233.503542 
L 264.108851 231.816093 
L 269.232818 230.128644 
L 274.356785 228.441194 
L 279.480752 226.753745 
L 284.604718 225.066296 
L 289.728685 223.378846 
L 294.852652 221.691397 
L 299.976619 220.003948 
L 305.100586 218.316498 
L 310.224553 216.629049 
L 315.34852 214.9416 
L 320.472487 213.25415 
L 325.596454 211.566701 
L 330.720421 209.879252 
L 335.844388 208.191802 
L 340.968355 206.504353 
L 346.092322 204.816904 
L 351.216289 203.129454 
L 356.340256 201.442005 
L 361.464223 199.754556 
L 366.58819 198.067106 
L 371.712157 196.379657 
L 376.836123 194.692208 
L 381.96009 193.004758 
L 387.084057 191.317309 
L 392.208024 189.62986 
L 397.331991 187.94241 
L 402.455958 186.254961 
L 407.579925 184.567512 
L 412.703892 182.880062 
L 417.827859 181.192613 
L 422.951826 179.505164 
L 428.075793 177.817714 
L 433.19976 176.130265 
L 438.323727 174.442816 
L 443.447694 172.755366 
L 448.571661 171.067917 
L 453.695628 169.380468 
L 458.819595 167.693018 
L 463.943561 166.005569 
L 469.067528 164.31812 
L 474.191495 162.63067 
L 479.315462 160.943221 
L 484.439429 159.255772 
L 489.563396 157.568322 
L 494.687363 155.880873 
L 499.81133 154.193424 
L 504.935297 152.505974 
L 510.059264 150.818525 
L 515.183231 149.131076 
L 520.307198 147.443626 
L 525.431165 145.756177 
L 530.555132 144.068728 
L 535.679099 142.381278 
L 540.803066 140.693829 
L 545.927033 139.00638 
L 551.050999 137.31893 
L 556.174966 135.631481 
L 561.298933 133.944032 
L 566.4229 132.256582 
L 571.546867 130.569133 
L 576.670834 128.881684 
L 581.794801 127.194234 
" clip-path="url(#p0740a88708)" style="fill: none; stroke: #000000; stroke-width: 2; stroke-linecap: square"/>
   </g>
   <g id="patch_3">
    <path d="M 49.158438 491.466375 
L 49.158438 47.946375 
" style="fill: none; stroke: #000000; stroke-width: 0.8; stroke-linejoin: miter; stroke-linecap: square"/>
   </g>
   <g id="patch_4">
    <path d="M 49.158438 491.466375 
L 607.158438 491.466375 
" style="fill: none; stroke: #000000; stroke-width: 0.8; stroke-linejoin: miter; stroke-linecap: square"/>
   </g>
   <g id="text_16">
    <text style="font-size: 9px; font-family: 'Helvetica', 'Arial', 'DejaVu Sans', 'Bitstream Vera Sans', 'Computer Modern Sans Serif', 'Lucida Grande', 'Verdana', 'Geneva', 'Lucid', 'Avant Garde', sans-serif; text-anchor: start" x="586.794801" y="72.066176" transform="rotate(-0 586.794801 72.066176)">A</text>
   </g>
   <g id="text_17">
    <text style="font-size: 9px; font-family: 'Helvetica', 'Arial', 'DejaVu Sans', 'Bitstream Vera Sans', 'Computer Modern Sans Serif', 'Lucida Grande', 'Verdana', 'Geneva', 'Lucid', 'Avant Garde', sans-serif; text-anchor: start" x="194.690547" y="301.63304" transform="rotate(-0 194.690547 301.63304)">AL</text>
   </g>
   <g id="text_18">
    <text style="font-size: 9px; font-family: 'Helvetica', 'Arial', 'DejaVu Sans', 'Bitstream Vera Sans', 'Computer Modern Sans Serif', 'Lucida Grande', 'Verdana', 'Geneva', 'Lucid', 'Avant Garde', sans-serif; text-anchor: start" x="163.621764" y="163.657103" transform="rotate(-0 163.621764 163.657103)">AM</text>
   </g>
   <g id="text_19">
    <text style="font-size: 9px; font-family: 'Helvetica', 'Arial', 'DejaVu Sans', 'Bitstream Vera Sans', 'Computer Modern Sans Serif', 'Lucida Grande', 'Verdana', 'Geneva', 'Lucid', 'Avant Garde', sans-serif; text-anchor: start" x="256.829672" y="196.19194" transform="rotate(-0 256.829672 196.19194)">LM</text>
   </g>
   <g id="text_20">
    <text style="font-size: 9px; font-family: 'Helvetica', 'Arial', 'DejaVu Sans', 'Bitstream Vera Sans', 'Computer Modern Sans Serif', 'Lucida Grande', 'Verdana', 'Geneva', 'Lucid', 'Avant Garde', sans-serif; text-anchor: start" x="127.290102" y="466.306375" transform="rotate(-0 127.290102 466.306375)">LI</text>
   </g>
   <g id="text_21">
    <text style="font-size: 9px; font-family: 'Helvetica', 'Arial', 'DejaVu Sans', 'Bitstream Vera Sans', 'Computer Modern Sans Serif', 'Lucida Grande', 'Verdana', 'Geneva', 'Lucid', 'Avant Garde', sans-serif; text-anchor: start" x="258.241531" y="246.927722" transform="rotate(-0 258.241531 246.927722)">PM</text>
   </g>
   <g id="text_22">
    <text style="font-size: 9px; font-family: 'Helvetica', 'Arial', 'DejaVu Sans', 'Bitstream Vera Sans', 'Computer Modern Sans Serif', 'Lucida Grande', 'Verdana', 'Geneva', 'Lucid', 'Avant Garde', sans-serif; text-anchor: start" x="225.964423" y="390.236759" transform="rotate(-0 225.964423 390.236759)">POR</text>
   </g>
   <g id="text_23">
    <text style="font-size: 9px; font-family: 'Helvetica', 'Arial', 'DejaVu Sans', 'Bitstream Vera Sans', 'Computer Modern Sans Serif', 'Lucida Grande', 'Verdana', 'Geneva', 'Lucid', 'Avant Garde', sans-serif; text-anchor: start" x="79.522074" y="63.106375" transform="rotate(-0 79.522074 63.106375)">RL</text>
   </g>
   <g id="text_24">
    <text style="font-size: 12px; font-family: 'Helvetica', 'Arial', 'DejaVu Sans', 'Bitstream Vera Sans', 'Computer Modern Sans Serif', 'Lucida Grande', 'Verdana', 'Geneva', 'Lucid', 'Avant Garde', sans-serif" transform="translate(285.805937 15.808125)">p3 - All Regions</text>
    <text style="font-size: 12px; font-family: 'Helvetica', 'Arial', 'DejaVu Sans', 'Bitstream Vera Sans', 'Computer Modern Sans Serif', 'Lucida Grande', 'Verdana', 'Geneva', 'Lucid', 'Avant Garde', sans-serif" transform="translate(254.463437 28.961625)">Imputed Data Analysis (log)</text>
    <text style="font-size: 12px; font-family: 'Helvetica', 'Arial', 'DejaVu Sans', 'Bitstream Vera Sans', 'Computer Modern Sans Serif', 'Lucida Grande', 'Verdana', 'Geneva', 'Lucid', 'Avant Garde', sans-serif" transform="translate(268.455625 41.946375)">r = 0.3540, r² = 0.1253</text>
   </g>
  </g>
 </g>
 <defs>
  <clipPath id="p0740a88708">
   <rect x="49.158438" y="47.946375" width="558" height="443.52"/>
  </clipPath>
 </defs>
</svg>
