<?xml version="1.0" encoding="utf-8" standalone="no"?>
<!DOCTYPE svg PUBLIC "-//W3C//DTD SVG 1.1//EN"
  "http://www.w3.org/Graphics/SVG/1.1/DTD/svg11.dtd">
<svg xmlns:xlink="http://www.w3.org/1999/xlink" width="606.216563pt" height="530.273562pt" viewBox="0 0 606.216563 530.273562" xmlns="http://www.w3.org/2000/svg" version="1.1">
 <metadata>
  <rdf:RDF xmlns:dc="http://purl.org/dc/elements/1.1/" xmlns:cc="http://creativecommons.org/ns#" xmlns:rdf="http://www.w3.org/1999/02/22-rdf-syntax-ns#">
   <cc:Work>
    <dc:type rdf:resource="http://purl.org/dc/dcmitype/StillImage"/>
    <dc:date>2026-02-24T12:30:02.888811</dc:date>
    <dc:format>image/svg+xml</dc:format>
    <dc:creator>
     <cc:Agent>
      <dc:title>Matplotlib v3.10.5, https://matplotlib.org/</dc:title>
     </cc:Agent>
    </dc:creator>
   </cc:Work>
  </rdf:RDF>
 </metadata>
 <defs>
  <style type="text/css">*{stroke-linejoin: round; stroke-linecap: butt}</style>
 </defs>
 <g id="figure_1">
  <g id="patch_1">
   <path d="M 0 530.273562 
L 606.216563 530.273562 
L 606.216563 0 
L 0 0 
z
" style="fill: #ffffff"/>
  </g>
  <g id="axes_1">
   <g id="patch_2">
    <path d="M 41.016562 491.4945 
L 599.016562 491.4945 
L 599.016562 47.9745 
L 41.016562 47.9745 
z
" style="fill: #ffffff"/>
   </g>
   <g id="PathCollection_1">
    <defs>
     <path id="C0_0_e12f413822" d="M 0 5 
C 1.326016 5 2.597899 4.473168 3.535534 3.535534 
C 4.473168 2.597899 5 1.326016 5 -0 
C 5 -1.326016 4.473168 -2.597899 3.535534 -3.535534 
C 2.597899 -4.473168 1.326016 -5 0 -5 
C -1.326016 -5 -2.597899 -4.473168 -3.535534 -3.535534 
C -4.473168 -2.597899 -5 -1.326016 -5 0 
C -5 1.326016 -4.473168 2.597899 -3.535534 3.535534 
C -2.597899 4.473168 -1.326016 5 0 5 
z
"/>
    </defs>
    <g clip-path="url(#p410591dd86)">
     <use xlink:href="#C0_0_e12f413822" x="208.772543" y="278.499717" style="fill: #00008b"/>
    </g>
    <g clip-path="url(#p410591dd86)">
     <use xlink:href="#C0_0_e12f413822" x="333.365845" y="348.621457" style="fill: #00008b"/>
    </g>
    <g clip-path="url(#p410591dd86)">
     <use xlink:href="#C0_0_e12f413822" x="66.380199" y="471.3345" style="fill: #00008b"/>
    </g>
    <g clip-path="url(#p410591dd86)">
     <use xlink:href="#C0_0_e12f413822" x="573.652926" y="278.499717" style="fill: #00008b"/>
    </g>
    <g clip-path="url(#p410591dd86)">
     <use xlink:href="#C0_0_e12f413822" x="66.380199" y="68.1345" style="fill: #00008b"/>
    </g>
    <g clip-path="url(#p410591dd86)">
     <use xlink:href="#C0_0_e12f413822" x="386.762974" y="278.499717" style="fill: #00008b"/>
    </g>
    <g clip-path="url(#p410591dd86)">
     <use xlink:href="#C0_0_e12f413822" x="457.959146" y="234.67363" style="fill: #00008b"/>
    </g>
    <g clip-path="url(#p410591dd86)">
     <use xlink:href="#C0_0_e12f413822" x="153.880573" y="278.499717" style="fill: #00008b"/>
    </g>
   </g>
   <g id="matplotlib.axis_1">
    <g id="xtick_1">
     <g id="line2d_1">
      <defs>
       <path id="m02c3410ccb" d="M 0 0 
L 0 3.5 
" style="stroke: #000000; stroke-width: 0.8"/>
      </defs>
      <g>
       <use xlink:href="#m02c3410ccb" x="119.649188" y="491.4945" style="stroke: #000000; stroke-width: 0.8"/>
      </g>
     </g>
     <g id="text_1">
      <text style="font-size: 10px; font-family: 'Helvetica', 'Arial', 'DejaVu Sans', 'Bitstream Vera Sans', 'Computer Modern Sans Serif', 'Lucida Grande', 'Verdana', 'Geneva', 'Lucid', 'Avant Garde', sans-serif; text-anchor: middle" x="119.649188" y="505.667937" transform="rotate(-0 119.649188 505.667937)">−2</text>
     </g>
    </g>
    <g id="xtick_2">
     <g id="line2d_2">
      <g>
       <use xlink:href="#m02c3410ccb" x="199.808952" y="491.4945" style="stroke: #000000; stroke-width: 0.8"/>
      </g>
     </g>
     <g id="text_2">
      <text style="font-size: 10px; font-family: 'Helvetica', 'Arial', 'DejaVu Sans', 'Bitstream Vera Sans', 'Computer Modern Sans Serif', 'Lucida Grande', 'Verdana', 'Geneva', 'Lucid', 'Avant Garde', sans-serif; text-anchor: middle" x="199.808952" y="505.667937" transform="rotate(-0 199.808952 505.667937)">−1</text>
     </g>
    </g>
    <g id="xtick_3">
     <g id="line2d_3">
      <g>
       <use xlink:href="#m02c3410ccb" x="279.968716" y="491.4945" style="stroke: #000000; stroke-width: 0.8"/>
      </g>
     </g>
     <g id="text_3">
      <text style="font-size: 10px; font-family: 'Helvetica', 'Arial', 'DejaVu Sans', 'Bitstream Vera Sans', 'Computer Modern Sans Serif', 'Lucida Grande', 'Verdana', 'Geneva', 'Lucid', 'Avant Garde', sans-serif; text-anchor: middle" x="279.968716" y="505.667937" transform="rotate(-0 279.968716 505.667937)">0</text>
     </g>
    </g>
    <g id="xtick_4">
     <g id="line2d_4">
      <g>
       <use xlink:href="#m02c3410ccb" x="360.128479" y="491.4945" style="stroke: #000000; stroke-width: 0.8"/>
      </g>
     </g>
     <g id="text_4">
      <text style="font-size: 10px; font-family: 'Helvetica', 'Arial', 'DejaVu Sans', 'Bitstream Vera Sans', 'Computer Modern Sans Serif', 'Lucida Grande', 'Verdana', 'Geneva', 'Lucid', 'Avant Garde', sans-serif; text-anchor: middle" x="360.128479" y="505.667937" transform="rotate(-0 360.128479 505.667937)">1</text>
     </g>
    </g>
    <g id="xtick_5">
     <g id="line2d_5">
      <g>
       <use xlink:href="#m02c3410ccb" x="440.288243" y="491.4945" style="stroke: #000000; stroke-width: 0.8"/>
      </g>
     </g>
     <g id="text_5">
      <text style="font-size: 10px; font-family: 'Helvetica', 'Arial', 'DejaVu Sans', 'Bitstream Vera Sans', 'Computer Modern Sans Serif', 'Lucida Grande', 'Verdana', 'Geneva', 'Lucid', 'Avant Garde', sans-serif; text-anchor: middle" x="440.288243" y="505.667937" transform="rotate(-0 440.288243 505.667937)">2</text>
     </g>
    </g>
    <g id="xtick_6">
     <g id="line2d_6">
      <g>
       <use xlink:href="#m02c3410ccb" x="520.448007" y="491.4945" style="stroke: #000000; stroke-width: 0.8"/>
      </g>
     </g>
     <g id="text_6">
      <text style="font-size: 10px; font-family: 'Helvetica', 'Arial', 'DejaVu Sans', 'Bitstream Vera Sans', 'Computer Modern Sans Serif', 'Lucida Grande', 'Verdana', 'Geneva', 'Lucid', 'Avant Garde', sans-serif; text-anchor: middle" x="520.448007" y="505.667937" transform="rotate(-0 520.448007 505.667937)">3</text>
     </g>
    </g>
    <g id="text_7">
     <text style="font-size: 12px; font-family: 'Helvetica', 'Arial', 'DejaVu Sans', 'Bitstream Vera Sans', 'Computer Modern Sans Serif', 'Lucida Grande', 'Verdana', 'Geneva', 'Lucid', 'Avant Garde', sans-serif; text-anchor: middle" x="320.016563" y="520.501062" transform="rotate(-0 320.016563 520.501062)">H2B Intensity (Z-score)</text>
    </g>
    <g id="text_8">
     <text style="font-size: 10px; font-family: 'Helvetica', 'Arial', 'DejaVu Sans', 'Bitstream Vera Sans', 'Computer Modern Sans Serif', 'Lucida Grande', 'Verdana', 'Geneva', 'Lucid', 'Avant Garde', sans-serif; text-anchor: end" x="599.016562" y="517.92575" transform="rotate(-0 599.016562 517.92575)">1e−16</text>
    </g>
   </g>
   <g id="matplotlib.axis_2">
    <g id="ytick_1">
     <g id="line2d_7">
      <defs>
       <path id="m417c8068e4" d="M 0 0 
L -3.5 0 
" style="stroke: #000000; stroke-width: 0.8"/>
      </defs>
      <g>
       <use xlink:href="#m417c8068e4" x="41.016562" y="467.97986" style="stroke: #000000; stroke-width: 0.8"/>
      </g>
     </g>
     <g id="text_9">
      <text style="font-size: 10px; font-family: 'Helvetica', 'Arial', 'DejaVu Sans', 'Bitstream Vera Sans', 'Computer Modern Sans Serif', 'Lucida Grande', 'Verdana', 'Geneva', 'Lucid', 'Avant Garde', sans-serif; text-anchor: end" x="34.016562" y="471.566579" transform="rotate(-0 34.016562 471.566579)">−2</text>
     </g>
    </g>
    <g id="ytick_2">
     <g id="line2d_8">
      <g>
       <use xlink:href="#m417c8068e4" x="41.016562" y="373.239789" style="stroke: #000000; stroke-width: 0.8"/>
      </g>
     </g>
     <g id="text_10">
      <text style="font-size: 10px; font-family: 'Helvetica', 'Arial', 'DejaVu Sans', 'Bitstream Vera Sans', 'Computer Modern Sans Serif', 'Lucida Grande', 'Verdana', 'Geneva', 'Lucid', 'Avant Garde', sans-serif; text-anchor: end" x="34.016562" y="376.826508" transform="rotate(-0 34.016562 376.826508)">−1</text>
     </g>
    </g>
    <g id="ytick_3">
     <g id="line2d_9">
      <g>
       <use xlink:href="#m417c8068e4" x="41.016562" y="278.499717" style="stroke: #000000; stroke-width: 0.8"/>
      </g>
     </g>
     <g id="text_11">
      <text style="font-size: 10px; font-family: 'Helvetica', 'Arial', 'DejaVu Sans', 'Bitstream Vera Sans', 'Computer Modern Sans Serif', 'Lucida Grande', 'Verdana', 'Geneva', 'Lucid', 'Avant Garde', sans-serif; text-anchor: end" x="34.016562" y="282.086436" transform="rotate(-0 34.016562 282.086436)">0</text>
     </g>
    </g>
    <g id="ytick_4">
     <g id="line2d_10">
      <g>
       <use xlink:href="#m417c8068e4" x="41.016562" y="183.759646" style="stroke: #000000; stroke-width: 0.8"/>
      </g>
     </g>
     <g id="text_12">
      <text style="font-size: 10px; font-family: 'Helvetica', 'Arial', 'DejaVu Sans', 'Bitstream Vera Sans', 'Computer Modern Sans Serif', 'Lucida Grande', 'Verdana', 'Geneva', 'Lucid', 'Avant Garde', sans-serif; text-anchor: end" x="34.016562" y="187.346365" transform="rotate(-0 34.016562 187.346365)">1</text>
     </g>
    </g>
    <g id="ytick_5">
     <g id="line2d_11">
      <g>
       <use xlink:href="#m417c8068e4" x="41.016562" y="89.019574" style="stroke: #000000; stroke-width: 0.8"/>
      </g>
     </g>
     <g id="text_13">
      <text style="font-size: 10px; font-family: 'Helvetica', 'Arial', 'DejaVu Sans', 'Bitstream Vera Sans', 'Computer Modern Sans Serif', 'Lucida Grande', 'Verdana', 'Geneva', 'Lucid', 'Avant Garde', sans-serif; text-anchor: end" x="34.016562" y="92.606293" transform="rotate(-0 34.016562 92.606293)">2</text>
     </g>
    </g>
    <g id="text_14">
     <text style="font-size: 12px; font-family: 'Helvetica', 'Arial', 'DejaVu Sans', 'Bitstream Vera Sans', 'Computer Modern Sans Serif', 'Lucida Grande', 'Verdana', 'Geneva', 'Lucid', 'Avant Garde', sans-serif; text-anchor: middle" x="16.0425" y="269.7345" transform="rotate(-90 16.0425 269.7345)">VSV Intensity (Z-score)</text>
    </g>
    <g id="text_15">
     <text style="font-size: 10px; font-family: 'Helvetica', 'Arial', 'DejaVu Sans', 'Bitstream Vera Sans', 'Computer Modern Sans Serif', 'Lucida Grande', 'Verdana', 'Geneva', 'Lucid', 'Avant Garde', sans-serif; text-anchor: start" x="41.016562" y="44.9745" transform="rotate(-0 41.016562 44.9745)">1e−16</text>
    </g>
   </g>
   <g id="line2d_12">
    <path d="M 66.380199 279.876374 
L 71.504166 279.869662 
L 76.628133 279.86295 
L 81.7521 279.856238 
L 86.876067 279.849526 
L 92.000034 279.842813 
L 97.124001 279.836101 
L 102.247967 279.829389 
L 107.371934 279.822677 
L 112.495901 279.815965 
L 117.619868 279.809252 
L 122.743835 279.80254 
L 127.867802 279.795828 
L 132.991769 279.789116 
L 138.115736 279.782404 
L 143.239703 279.775692 
L 148.36367 279.768979 
L 153.487637 279.762267 
L 158.611604 279.755555 
L 163.735571 279.748843 
L 168.859538 279.742131 
L 173.983505 279.735418 
L 179.107472 279.728706 
L 184.231439 279.721994 
L 189.355405 279.715282 
L 194.479372 279.70857 
L 199.603339 279.701857 
L 204.727306 279.695145 
L 209.851273 279.688433 
L 214.97524 279.681721 
L 220.099207 279.675009 
L 225.223174 279.668296 
L 230.347141 279.661584 
L 235.471108 279.654872 
L 240.595075 279.64816 
L 245.719042 279.641448 
L 250.843009 279.634736 
L 255.966976 279.628023 
L 261.090943 279.621311 
L 266.21491 279.614599 
L 271.338877 279.607887 
L 276.462843 279.601175 
L 281.58681 279.594462 
L 286.710777 279.58775 
L 291.834744 279.581038 
L 296.958711 279.574326 
L 302.082678 279.567614 
L 307.206645 279.560901 
L 312.330612 279.554189 
L 317.454579 279.547477 
L 322.578546 279.540765 
L 327.702513 279.534053 
L 332.82648 279.527341 
L 337.950447 279.520628 
L 343.074414 279.513916 
L 348.198381 279.507204 
L 353.322348 279.500492 
L 358.446315 279.49378 
L 363.570282 279.487067 
L 368.694248 279.480355 
L 373.818215 279.473643 
L 378.942182 279.466931 
L 384.066149 279.460219 
L 389.190116 279.453506 
L 394.314083 279.446794 
L 399.43805 279.440082 
L 404.562017 279.43337 
L 409.685984 279.426658 
L 414.809951 279.419945 
L 419.933918 279.413233 
L 425.057885 279.406521 
L 430.181852 279.399809 
L 435.305819 279.393097 
L 440.429786 279.386385 
L 445.553753 279.379672 
L 450.67772 279.37296 
L 455.801686 279.366248 
L 460.925653 279.359536 
L 466.04962 279.352824 
L 471.173587 279.346111 
L 476.297554 279.339399 
L 481.421521 279.332687 
L 486.545488 279.325975 
L 491.669455 279.319263 
L 496.793422 279.31255 
L 501.917389 279.305838 
L 507.041356 279.299126 
L 512.165323 279.292414 
L 517.28929 279.285702 
L 522.413257 279.27899 
L 527.537224 279.272277 
L 532.661191 279.265565 
L 537.785158 279.258853 
L 542.909124 279.252141 
L 548.033091 279.245429 
L 553.157058 279.238716 
L 558.281025 279.232004 
L 563.404992 279.225292 
L 568.528959 279.21858 
L 573.652926 279.211868 
" clip-path="url(#p410591dd86)" style="fill: none; stroke: #000000; stroke-width: 2; stroke-linecap: square"/>
   </g>
   <g id="patch_3">
    <path d="M 41.016562 491.4945 
L 41.016562 47.9745 
" style="fill: none; stroke: #000000; stroke-width: 0.8; stroke-linejoin: miter; stroke-linecap: square"/>
   </g>
   <g id="patch_4">
    <path d="M 41.016563 491.4945 
L 599.016562 491.4945 
" style="fill: none; stroke: #000000; stroke-width: 0.8; stroke-linejoin: miter; stroke-linecap: square"/>
   </g>
   <g id="text_16">
    <text style="font-size: 9px; font-family: 'Helvetica', 'Arial', 'DejaVu Sans', 'Bitstream Vera Sans', 'Computer Modern Sans Serif', 'Lucida Grande', 'Verdana', 'Geneva', 'Lucid', 'Avant Garde', sans-serif; text-anchor: start" x="213.772543" y="273.499717" transform="rotate(-0 213.772543 273.499717)">A</text>
   </g>
   <g id="text_17">
    <text style="font-size: 9px; font-family: 'Helvetica', 'Arial', 'DejaVu Sans', 'Bitstream Vera Sans', 'Computer Modern Sans Serif', 'Lucida Grande', 'Verdana', 'Geneva', 'Lucid', 'Avant Garde', sans-serif; text-anchor: start" x="338.365845" y="343.621457" transform="rotate(-0 338.365845 343.621457)">AL</text>
   </g>
   <g id="text_18">
    <text style="font-size: 9px; font-family: 'Helvetica', 'Arial', 'DejaVu Sans', 'Bitstream Vera Sans', 'Computer Modern Sans Serif', 'Lucida Grande', 'Verdana', 'Geneva', 'Lucid', 'Avant Garde', sans-serif; text-anchor: start" x="71.380199" y="466.3345" transform="rotate(-0 71.380199 466.3345)">AM</text>
   </g>
   <g id="text_19">
    <text style="font-size: 9px; font-family: 'Helvetica', 'Arial', 'DejaVu Sans', 'Bitstream Vera Sans', 'Computer Modern Sans Serif', 'Lucida Grande', 'Verdana', 'Geneva', 'Lucid', 'Avant Garde', sans-serif; text-anchor: start" x="578.652926" y="273.499717" transform="rotate(-0 578.652926 273.499717)">LM</text>
   </g>
   <g id="text_20">
    <text style="font-size: 9px; font-family: 'Helvetica', 'Arial', 'DejaVu Sans', 'Bitstream Vera Sans', 'Computer Modern Sans Serif', 'Lucida Grande', 'Verdana', 'Geneva', 'Lucid', 'Avant Garde', sans-serif; text-anchor: start" x="71.380199" y="63.1345" transform="rotate(-0 71.380199 63.1345)">LI</text>
   </g>
   <g id="text_21">
    <text style="font-size: 9px; font-family: 'Helvetica', 'Arial', 'DejaVu Sans', 'Bitstream Vera Sans', 'Computer Modern Sans Serif', 'Lucida Grande', 'Verdana', 'Geneva', 'Lucid', 'Avant Garde', sans-serif; text-anchor: start" x="391.762974" y="273.499717" transform="rotate(-0 391.762974 273.499717)">PM</text>
   </g>
   <g id="text_22">
    <text style="font-size: 9px; font-family: 'Helvetica', 'Arial', 'DejaVu Sans', 'Bitstream Vera Sans', 'Computer Modern Sans Serif', 'Lucida Grande', 'Verdana', 'Geneva', 'Lucid', 'Avant Garde', sans-serif; text-anchor: start" x="462.959146" y="229.67363" transform="rotate(-0 462.959146 229.67363)">POR</text>
   </g>
   <g id="text_23">
    <text style="font-size: 9px; font-family: 'Helvetica', 'Arial', 'DejaVu Sans', 'Bitstream Vera Sans', 'Computer Modern Sans Serif', 'Lucida Grande', 'Verdana', 'Geneva', 'Lucid', 'Avant Garde', sans-serif; text-anchor: start" x="158.880573" y="273.499717" transform="rotate(-0 158.880573 273.499717)">RL</text>
   </g>
   <g id="text_24">
    <text style="font-size: 12px; font-family: 'Helvetica', 'Arial', 'DejaVu Sans', 'Bitstream Vera Sans', 'Computer Modern Sans Serif', 'Lucida Grande', 'Verdana', 'Geneva', 'Lucid', 'Avant Garde', sans-serif" transform="translate(271.3275 15.83625)">adult - All Regions</text>
    <text style="font-size: 12px; font-family: 'Helvetica', 'Arial', 'DejaVu Sans', 'Bitstream Vera Sans', 'Computer Modern Sans Serif', 'Lucida Grande', 'Verdana', 'Geneva', 'Lucid', 'Avant Garde', sans-serif" transform="translate(217.3125 28.98975)">Averaged Replicates Analysis (zscore)</text>
    <text style="font-size: 12px; font-family: 'Helvetica', 'Arial', 'DejaVu Sans', 'Bitstream Vera Sans', 'Computer Modern Sans Serif', 'Lucida Grande', 'Verdana', 'Geneva', 'Lucid', 'Avant Garde', sans-serif" transform="translate(260.31375 41.9745)">r = 0.0022, r² = 0.0000</text>
   </g>
  </g>
 </g>
 <defs>
  <clipPath id="p410591dd86">
   <rect x="41.016562" y="47.9745" width="558" height="443.52"/>
  </clipPath>
 </defs>
</svg>
