<?xml version="1.0" encoding="utf-8" standalone="no"?>
<!DOCTYPE svg PUBLIC "-//W3C//DTD SVG 1.1//EN"
  "http://www.w3.org/Graphics/SVG/1.1/DTD/svg11.dtd">
<svg xmlns:xlink="http://www.w3.org/1999/xlink" width="608.715pt" height="530.245437pt" viewBox="0 0 608.715 530.245437" xmlns="http://www.w3.org/2000/svg" version="1.1">
 <metadata>
  <rdf:RDF xmlns:dc="http://purl.org/dc/elements/1.1/" xmlns:cc="http://creativecommons.org/ns#" xmlns:rdf="http://www.w3.org/1999/02/22-rdf-syntax-ns#">
   <cc:Work>
    <dc:type rdf:resource="http://purl.org/dc/dcmitype/StillImage"/>
    <dc:date>2026-02-24T12:29:48.957689</dc:date>
    <dc:format>image/svg+xml</dc:format>
    <dc:creator>
     <cc:Agent>
      <dc:title>Matplotlib v3.10.5, https://matplotlib.org/</dc:title>
     </cc:Agent>
    </dc:creator>
   </cc:Work>
  </rdf:RDF>
 </metadata>
 <defs>
  <style type="text/css">*{stroke-linejoin: round; stroke-linecap: butt}</style>
 </defs>
 <g id="figure_1">
  <g id="patch_1">
   <path d="M 0 530.245437 
L 608.715 530.245437 
L 608.715 0 
L 0 0 
z
" style="fill: #ffffff"/>
  </g>
  <g id="axes_1">
   <g id="patch_2">
    <path d="M 43.515 491.466375 
L 601.515 491.466375 
L 601.515 47.946375 
L 43.515 47.946375 
z
" style="fill: #ffffff"/>
   </g>
   <g id="PathCollection_1">
    <defs>
     <path id="C0_0_1c9903cbb8" d="M 0 5 
C 1.326016 5 2.597899 4.473168 3.535534 3.535534 
C 4.473168 2.597899 5 1.326016 5 -0 
C 5 -1.326016 4.473168 -2.597899 3.535534 -3.535534 
C 2.597899 -4.473168 1.326016 -5 0 -5 
C -1.326016 -5 -2.597899 -4.473168 -3.535534 -3.535534 
C -4.473168 -2.597899 -5 -1.326016 -5 0 
C -5 1.326016 -4.473168 2.597899 -3.535534 3.535534 
C -2.597899 4.473168 -1.326016 5 0 5 
z
"/>
    </defs>
    <g clip-path="url(#p163820550d)">
     <use xlink:href="#C0_0_1c9903cbb8" x="68.878636" y="421.857318" style="fill: #00008b"/>
    </g>
    <g clip-path="url(#p163820550d)">
     <use xlink:href="#C0_0_1c9903cbb8" x="68.878636" y="427.562979" style="fill: #00008b"/>
    </g>
    <g clip-path="url(#p163820550d)">
     <use xlink:href="#C0_0_1c9903cbb8" x="68.878636" y="452.287507" style="fill: #00008b"/>
    </g>
    <g clip-path="url(#p163820550d)">
     <use xlink:href="#C0_0_1c9903cbb8" x="68.878636" y="392.695054" style="fill: #00008b"/>
    </g>
    <g clip-path="url(#p163820550d)">
     <use xlink:href="#C0_0_1c9903cbb8" x="68.878636" y="68.106375" style="fill: #00008b"/>
    </g>
    <g clip-path="url(#p163820550d)">
     <use xlink:href="#C0_0_1c9903cbb8" x="68.878636" y="382.551658" style="fill: #00008b"/>
    </g>
    <g clip-path="url(#p163820550d)">
     <use xlink:href="#C0_0_1c9903cbb8" x="576.151364" y="433.268639" style="fill: #00008b"/>
    </g>
    <g clip-path="url(#p163820550d)">
     <use xlink:href="#C0_0_1c9903cbb8" x="68.878636" y="471.306375" style="fill: #00008b"/>
    </g>
   </g>
   <g id="matplotlib.axis_1">
    <g id="xtick_1">
     <g id="line2d_1">
      <defs>
       <path id="mf904f31748" d="M 0 0 
L 0 3.5 
" style="stroke: #000000; stroke-width: 0.8"/>
      </defs>
      <g>
       <use xlink:href="#mf904f31748" x="68.878636" y="491.466375" style="stroke: #000000; stroke-width: 0.8"/>
      </g>
     </g>
     <g id="text_1">
      <text style="font-size: 10px; font-family: 'Helvetica', 'Arial', 'DejaVu Sans', 'Bitstream Vera Sans', 'Computer Modern Sans Serif', 'Lucida Grande', 'Verdana', 'Geneva', 'Lucid', 'Avant Garde', sans-serif; text-anchor: middle" x="68.878636" y="505.639812" transform="rotate(-0 68.878636 505.639812)">0</text>
     </g>
    </g>
    <g id="xtick_2">
     <g id="line2d_2">
      <g>
       <use xlink:href="#mf904f31748" x="172.442171" y="491.466375" style="stroke: #000000; stroke-width: 0.8"/>
      </g>
     </g>
     <g id="text_2">
      <text style="font-size: 10px; font-family: 'Helvetica', 'Arial', 'DejaVu Sans', 'Bitstream Vera Sans', 'Computer Modern Sans Serif', 'Lucida Grande', 'Verdana', 'Geneva', 'Lucid', 'Avant Garde', sans-serif; text-anchor: middle" x="172.442171" y="505.639812" transform="rotate(-0 172.442171 505.639812)">1</text>
     </g>
    </g>
    <g id="xtick_3">
     <g id="line2d_3">
      <g>
       <use xlink:href="#mf904f31748" x="276.005706" y="491.466375" style="stroke: #000000; stroke-width: 0.8"/>
      </g>
     </g>
     <g id="text_3">
      <text style="font-size: 10px; font-family: 'Helvetica', 'Arial', 'DejaVu Sans', 'Bitstream Vera Sans', 'Computer Modern Sans Serif', 'Lucida Grande', 'Verdana', 'Geneva', 'Lucid', 'Avant Garde', sans-serif; text-anchor: middle" x="276.005706" y="505.639812" transform="rotate(-0 276.005706 505.639812)">2</text>
     </g>
    </g>
    <g id="xtick_4">
     <g id="line2d_4">
      <g>
       <use xlink:href="#mf904f31748" x="379.56924" y="491.466375" style="stroke: #000000; stroke-width: 0.8"/>
      </g>
     </g>
     <g id="text_4">
      <text style="font-size: 10px; font-family: 'Helvetica', 'Arial', 'DejaVu Sans', 'Bitstream Vera Sans', 'Computer Modern Sans Serif', 'Lucida Grande', 'Verdana', 'Geneva', 'Lucid', 'Avant Garde', sans-serif; text-anchor: middle" x="379.56924" y="505.639812" transform="rotate(-0 379.56924 505.639812)">3</text>
     </g>
    </g>
    <g id="xtick_5">
     <g id="line2d_5">
      <g>
       <use xlink:href="#mf904f31748" x="483.132775" y="491.466375" style="stroke: #000000; stroke-width: 0.8"/>
      </g>
     </g>
     <g id="text_5">
      <text style="font-size: 10px; font-family: 'Helvetica', 'Arial', 'DejaVu Sans', 'Bitstream Vera Sans', 'Computer Modern Sans Serif', 'Lucida Grande', 'Verdana', 'Geneva', 'Lucid', 'Avant Garde', sans-serif; text-anchor: middle" x="483.132775" y="505.639812" transform="rotate(-0 483.132775 505.639812)">4</text>
     </g>
    </g>
    <g id="xtick_6">
     <g id="line2d_6">
      <g>
       <use xlink:href="#mf904f31748" x="586.69631" y="491.466375" style="stroke: #000000; stroke-width: 0.8"/>
      </g>
     </g>
     <g id="text_6">
      <text style="font-size: 10px; font-family: 'Helvetica', 'Arial', 'DejaVu Sans', 'Bitstream Vera Sans', 'Computer Modern Sans Serif', 'Lucida Grande', 'Verdana', 'Geneva', 'Lucid', 'Avant Garde', sans-serif; text-anchor: middle" x="586.69631" y="505.639812" transform="rotate(-0 586.69631 505.639812)">5</text>
     </g>
    </g>
    <g id="text_7">
     <text style="font-size: 12px; font-family: 'Helvetica', 'Arial', 'DejaVu Sans', 'Bitstream Vera Sans', 'Computer Modern Sans Serif', 'Lucida Grande', 'Verdana', 'Geneva', 'Lucid', 'Avant Garde', sans-serif; text-anchor: middle" x="322.515" y="520.472937" transform="rotate(-0 322.515 520.472937)">H2B Intensity (Z-score)</text>
    </g>
   </g>
   <g id="matplotlib.axis_2">
    <g id="ytick_1">
     <g id="line2d_7">
      <defs>
       <path id="m4f6d8aad99" d="M 0 0 
L -3.5 0 
" style="stroke: #000000; stroke-width: 0.8"/>
      </defs>
      <g>
       <use xlink:href="#m4f6d8aad99" x="43.515" y="433.268639" style="stroke: #000000; stroke-width: 0.8"/>
      </g>
     </g>
     <g id="text_8">
      <text style="font-size: 10px; font-family: 'Helvetica', 'Arial', 'DejaVu Sans', 'Bitstream Vera Sans', 'Computer Modern Sans Serif', 'Lucida Grande', 'Verdana', 'Geneva', 'Lucid', 'Avant Garde', sans-serif; text-anchor: end" x="36.515" y="436.855358" transform="rotate(-0 36.515 436.855358)">0.0</text>
     </g>
    </g>
    <g id="ytick_2">
     <g id="line2d_8">
      <g>
       <use xlink:href="#m4f6d8aad99" x="43.515" y="364.745946" style="stroke: #000000; stroke-width: 0.8"/>
      </g>
     </g>
     <g id="text_9">
      <text style="font-size: 10px; font-family: 'Helvetica', 'Arial', 'DejaVu Sans', 'Bitstream Vera Sans', 'Computer Modern Sans Serif', 'Lucida Grande', 'Verdana', 'Geneva', 'Lucid', 'Avant Garde', sans-serif; text-anchor: end" x="36.515" y="368.332665" transform="rotate(-0 36.515 368.332665)">0.5</text>
     </g>
    </g>
    <g id="ytick_3">
     <g id="line2d_9">
      <g>
       <use xlink:href="#m4f6d8aad99" x="43.515" y="296.223253" style="stroke: #000000; stroke-width: 0.8"/>
      </g>
     </g>
     <g id="text_10">
      <text style="font-size: 10px; font-family: 'Helvetica', 'Arial', 'DejaVu Sans', 'Bitstream Vera Sans', 'Computer Modern Sans Serif', 'Lucida Grande', 'Verdana', 'Geneva', 'Lucid', 'Avant Garde', sans-serif; text-anchor: end" x="36.515" y="299.809972" transform="rotate(-0 36.515 299.809972)">1.0</text>
     </g>
    </g>
    <g id="ytick_4">
     <g id="line2d_10">
      <g>
       <use xlink:href="#m4f6d8aad99" x="43.515" y="227.70056" style="stroke: #000000; stroke-width: 0.8"/>
      </g>
     </g>
     <g id="text_11">
      <text style="font-size: 10px; font-family: 'Helvetica', 'Arial', 'DejaVu Sans', 'Bitstream Vera Sans', 'Computer Modern Sans Serif', 'Lucida Grande', 'Verdana', 'Geneva', 'Lucid', 'Avant Garde', sans-serif; text-anchor: end" x="36.515" y="231.287278" transform="rotate(-0 36.515 231.287278)">1.5</text>
     </g>
    </g>
    <g id="ytick_5">
     <g id="line2d_11">
      <g>
       <use xlink:href="#m4f6d8aad99" x="43.515" y="159.177866" style="stroke: #000000; stroke-width: 0.8"/>
      </g>
     </g>
     <g id="text_12">
      <text style="font-size: 10px; font-family: 'Helvetica', 'Arial', 'DejaVu Sans', 'Bitstream Vera Sans', 'Computer Modern Sans Serif', 'Lucida Grande', 'Verdana', 'Geneva', 'Lucid', 'Avant Garde', sans-serif; text-anchor: end" x="36.515" y="162.764585" transform="rotate(-0 36.515 162.764585)">2.0</text>
     </g>
    </g>
    <g id="ytick_6">
     <g id="line2d_12">
      <g>
       <use xlink:href="#m4f6d8aad99" x="43.515" y="90.655173" style="stroke: #000000; stroke-width: 0.8"/>
      </g>
     </g>
     <g id="text_13">
      <text style="font-size: 10px; font-family: 'Helvetica', 'Arial', 'DejaVu Sans', 'Bitstream Vera Sans', 'Computer Modern Sans Serif', 'Lucida Grande', 'Verdana', 'Geneva', 'Lucid', 'Avant Garde', sans-serif; text-anchor: end" x="36.515" y="94.241892" transform="rotate(-0 36.515 94.241892)">2.5</text>
     </g>
    </g>
    <g id="text_14">
     <text style="font-size: 12px; font-family: 'Helvetica', 'Arial', 'DejaVu Sans', 'Bitstream Vera Sans', 'Computer Modern Sans Serif', 'Lucida Grande', 'Verdana', 'Geneva', 'Lucid', 'Avant Garde', sans-serif; text-anchor: middle" x="16.0425" y="269.706375" transform="rotate(-90 16.0425 269.706375)">VSV Intensity (Z-score)</text>
    </g>
    <g id="text_15">
     <text style="font-size: 10px; font-family: 'Helvetica', 'Arial', 'DejaVu Sans', 'Bitstream Vera Sans', 'Computer Modern Sans Serif', 'Lucida Grande', 'Verdana', 'Geneva', 'Lucid', 'Avant Garde', sans-serif; text-anchor: start" x="43.515" y="44.946375" transform="rotate(-0 43.515 44.946375)">1e−15</text>
    </g>
   </g>
   <g id="line2d_13">
    <path d="M 68.878636 373.766752 
L 74.002603 374.367782 
L 79.12657 374.968811 
L 84.250537 375.56984 
L 89.374504 376.170869 
L 94.498471 376.771898 
L 99.622438 377.372927 
L 104.746405 377.973956 
L 109.870372 378.574986 
L 114.994339 379.176015 
L 120.118306 379.777044 
L 125.242273 380.378073 
L 130.36624 380.979102 
L 135.490207 381.580131 
L 140.614174 382.181161 
L 145.73814 382.78219 
L 150.862107 383.383219 
L 155.986074 383.984248 
L 161.110041 384.585277 
L 166.234008 385.186306 
L 171.357975 385.787336 
L 176.481942 386.388365 
L 181.605909 386.989394 
L 186.729876 387.590423 
L 191.853843 388.191452 
L 196.97781 388.792481 
L 202.101777 389.393511 
L 207.225744 389.99454 
L 212.349711 390.595569 
L 217.473678 391.196598 
L 222.597645 391.797627 
L 227.721612 392.398656 
L 232.845579 392.999685 
L 237.969545 393.600715 
L 243.093512 394.201744 
L 248.217479 394.802773 
L 253.341446 395.403802 
L 258.465413 396.004831 
L 263.58938 396.60586 
L 268.713347 397.20689 
L 273.837314 397.807919 
L 278.961281 398.408948 
L 284.085248 399.009977 
L 289.209215 399.611006 
L 294.333182 400.212035 
L 299.457149 400.813065 
L 304.581116 401.414094 
L 309.705083 402.015123 
L 314.82905 402.616152 
L 319.953017 403.217181 
L 325.076983 403.81821 
L 330.20095 404.419239 
L 335.324917 405.020269 
L 340.448884 405.621298 
L 345.572851 406.222327 
L 350.696818 406.823356 
L 355.820785 407.424385 
L 360.944752 408.025414 
L 366.068719 408.626444 
L 371.192686 409.227473 
L 376.316653 409.828502 
L 381.44062 410.429531 
L 386.564587 411.03056 
L 391.688554 411.631589 
L 396.812521 412.232619 
L 401.936488 412.833648 
L 407.060455 413.434677 
L 412.184421 414.035706 
L 417.308388 414.636735 
L 422.432355 415.237764 
L 427.556322 415.838794 
L 432.680289 416.439823 
L 437.804256 417.040852 
L 442.928223 417.641881 
L 448.05219 418.24291 
L 453.176157 418.843939 
L 458.300124 419.444968 
L 463.424091 420.045998 
L 468.548058 420.647027 
L 473.672025 421.248056 
L 478.795992 421.849085 
L 483.919959 422.450114 
L 489.043926 423.051143 
L 494.167893 423.652173 
L 499.29186 424.253202 
L 504.415826 424.854231 
L 509.539793 425.45526 
L 514.66376 426.056289 
L 519.787727 426.657318 
L 524.911694 427.258348 
L 530.035661 427.859377 
L 535.159628 428.460406 
L 540.283595 429.061435 
L 545.407562 429.662464 
L 550.531529 430.263493 
L 555.655496 430.864523 
L 560.779463 431.465552 
L 565.90343 432.066581 
L 571.027397 432.66761 
L 576.151364 433.268639 
" clip-path="url(#p163820550d)" style="fill: none; stroke: #000000; stroke-width: 2; stroke-linecap: square"/>
   </g>
   <g id="patch_3">
    <path d="M 43.515 491.466375 
L 43.515 47.946375 
" style="fill: none; stroke: #000000; stroke-width: 0.8; stroke-linejoin: miter; stroke-linecap: square"/>
   </g>
   <g id="patch_4">
    <path d="M 43.515 491.466375 
L 601.515 491.466375 
" style="fill: none; stroke: #000000; stroke-width: 0.8; stroke-linejoin: miter; stroke-linecap: square"/>
   </g>
   <g id="text_16">
    <text style="font-size: 9px; font-family: 'Helvetica', 'Arial', 'DejaVu Sans', 'Bitstream Vera Sans', 'Computer Modern Sans Serif', 'Lucida Grande', 'Verdana', 'Geneva', 'Lucid', 'Avant Garde', sans-serif; text-anchor: start" x="73.878636" y="416.857318" transform="rotate(-0 73.878636 416.857318)">A</text>
   </g>
   <g id="text_17">
    <text style="font-size: 9px; font-family: 'Helvetica', 'Arial', 'DejaVu Sans', 'Bitstream Vera Sans', 'Computer Modern Sans Serif', 'Lucida Grande', 'Verdana', 'Geneva', 'Lucid', 'Avant Garde', sans-serif; text-anchor: start" x="73.878636" y="422.562979" transform="rotate(-0 73.878636 422.562979)">AL</text>
   </g>
   <g id="text_18">
    <text style="font-size: 9px; font-family: 'Helvetica', 'Arial', 'DejaVu Sans', 'Bitstream Vera Sans', 'Computer Modern Sans Serif', 'Lucida Grande', 'Verdana', 'Geneva', 'Lucid', 'Avant Garde', sans-serif; text-anchor: start" x="73.878636" y="447.287507" transform="rotate(-0 73.878636 447.287507)">AM</text>
   </g>
   <g id="text_19">
    <text style="font-size: 9px; font-family: 'Helvetica', 'Arial', 'DejaVu Sans', 'Bitstream Vera Sans', 'Computer Modern Sans Serif', 'Lucida Grande', 'Verdana', 'Geneva', 'Lucid', 'Avant Garde', sans-serif; text-anchor: start" x="73.878636" y="387.695054" transform="rotate(-0 73.878636 387.695054)">LM</text>
   </g>
   <g id="text_20">
    <text style="font-size: 9px; font-family: 'Helvetica', 'Arial', 'DejaVu Sans', 'Bitstream Vera Sans', 'Computer Modern Sans Serif', 'Lucida Grande', 'Verdana', 'Geneva', 'Lucid', 'Avant Garde', sans-serif; text-anchor: start" x="73.878636" y="63.106375" transform="rotate(-0 73.878636 63.106375)">LI</text>
   </g>
   <g id="text_21">
    <text style="font-size: 9px; font-family: 'Helvetica', 'Arial', 'DejaVu Sans', 'Bitstream Vera Sans', 'Computer Modern Sans Serif', 'Lucida Grande', 'Verdana', 'Geneva', 'Lucid', 'Avant Garde', sans-serif; text-anchor: start" x="73.878636" y="377.551658" transform="rotate(-0 73.878636 377.551658)">PM</text>
   </g>
   <g id="text_22">
    <text style="font-size: 9px; font-family: 'Helvetica', 'Arial', 'DejaVu Sans', 'Bitstream Vera Sans', 'Computer Modern Sans Serif', 'Lucida Grande', 'Verdana', 'Geneva', 'Lucid', 'Avant Garde', sans-serif; text-anchor: start" x="581.151364" y="428.268639" transform="rotate(-0 581.151364 428.268639)">POR</text>
   </g>
   <g id="text_23">
    <text style="font-size: 9px; font-family: 'Helvetica', 'Arial', 'DejaVu Sans', 'Bitstream Vera Sans', 'Computer Modern Sans Serif', 'Lucida Grande', 'Verdana', 'Geneva', 'Lucid', 'Avant Garde', sans-serif; text-anchor: start" x="73.878636" y="466.306375" transform="rotate(-0 73.878636 466.306375)">RL</text>
   </g>
   <g id="text_24">
    <text style="font-size: 12px; font-family: 'Helvetica', 'Arial', 'DejaVu Sans', 'Bitstream Vera Sans', 'Computer Modern Sans Serif', 'Lucida Grande', 'Verdana', 'Geneva', 'Lucid', 'Avant Garde', sans-serif" transform="translate(276.825938 15.808125)">p20 - All Regions</text>
    <text style="font-size: 12px; font-family: 'Helvetica', 'Arial', 'DejaVu Sans', 'Bitstream Vera Sans', 'Computer Modern Sans Serif', 'Lucida Grande', 'Verdana', 'Geneva', 'Lucid', 'Avant Garde', sans-serif" transform="translate(219.810937 28.961625)">Averaged Replicates Analysis (zscore)</text>
    <text style="font-size: 12px; font-family: 'Helvetica', 'Arial', 'DejaVu Sans', 'Bitstream Vera Sans', 'Computer Modern Sans Serif', 'Lucida Grande', 'Verdana', 'Geneva', 'Lucid', 'Avant Garde', sans-serif" transform="translate(260.814375 41.946375)">r = -0.1621, r² = 0.0263</text>
   </g>
  </g>
 </g>
 <defs>
  <clipPath id="p163820550d">
   <rect x="43.515" y="47.946375" width="558" height="443.52"/>
  </clipPath>
 </defs>
</svg>
