<?xml version="1.0" encoding="utf-8" standalone="no"?>
<!DOCTYPE svg PUBLIC "-//W3C//DTD SVG 1.1//EN"
  "http://www.w3.org/Graphics/SVG/1.1/DTD/svg11.dtd">
<svg xmlns:xlink="http://www.w3.org/1999/xlink" width="606.216563pt" height="530.275437pt" viewBox="0 0 606.216563 530.275437" xmlns="http://www.w3.org/2000/svg" version="1.1">
 <metadata>
  <rdf:RDF xmlns:dc="http://purl.org/dc/elements/1.1/" xmlns:cc="http://creativecommons.org/ns#" xmlns:rdf="http://www.w3.org/1999/02/22-rdf-syntax-ns#">
   <cc:Work>
    <dc:type rdf:resource="http://purl.org/dc/dcmitype/StillImage"/>
    <dc:date>2026-02-24T12:29:20.104717</dc:date>
    <dc:format>image/svg+xml</dc:format>
    <dc:creator>
     <cc:Agent>
      <dc:title>Matplotlib v3.10.5, https://matplotlib.org/</dc:title>
     </cc:Agent>
    </dc:creator>
   </cc:Work>
  </rdf:RDF>
 </metadata>
 <defs>
  <style type="text/css">*{stroke-linejoin: round; stroke-linecap: butt}</style>
 </defs>
 <g id="figure_1">
  <g id="patch_1">
   <path d="M 0 530.275437 
L 606.216563 530.275437 
L 606.216563 0 
L 0 0 
z
" style="fill: #ffffff"/>
  </g>
  <g id="axes_1">
   <g id="patch_2">
    <path d="M 41.016562 491.496375 
L 599.016562 491.496375 
L 599.016562 47.976375 
L 41.016562 47.976375 
z
" style="fill: #ffffff"/>
   </g>
   <g id="PathCollection_1">
    <defs>
     <path id="C0_0_4208e6bf56" d="M 0 5 
C 1.326016 5 2.597899 4.473168 3.535534 3.535534 
C 4.473168 2.597899 5 1.326016 5 -0 
C 5 -1.326016 4.473168 -2.597899 3.535534 -3.535534 
C 2.597899 -4.473168 1.326016 -5 0 -5 
C -1.326016 -5 -2.597899 -4.473168 -3.535534 -3.535534 
C -4.473168 -2.597899 -5 -1.326016 -5 0 
C -5 1.326016 -4.473168 2.597899 -3.535534 3.535534 
C -2.597899 4.473168 -1.326016 5 0 5 
z
"/>
    </defs>
    <g clip-path="url(#pf54c92d0ff)">
     <use xlink:href="#C0_0_4208e6bf56" x="412.186806" y="298.833282" style="fill: #00008b"/>
    </g>
    <g clip-path="url(#pf54c92d0ff)">
     <use xlink:href="#C0_0_4208e6bf56" x="573.652926" y="411.06421" style="fill: #00008b"/>
    </g>
    <g clip-path="url(#pf54c92d0ff)">
     <use xlink:href="#C0_0_4208e6bf56" x="66.380199" y="273.893076" style="fill: #00008b"/>
    </g>
    <g clip-path="url(#pf54c92d0ff)">
     <use xlink:href="#C0_0_4208e6bf56" x="352.982562" y="398.594107" style="fill: #00008b"/>
    </g>
    <g clip-path="url(#pf54c92d0ff)">
     <use xlink:href="#C0_0_4208e6bf56" x="498.30207" y="199.072457" style="fill: #00008b"/>
    </g>
    <g clip-path="url(#pf54c92d0ff)">
     <use xlink:href="#C0_0_4208e6bf56" x="379.893582" y="68.136375" style="fill: #00008b"/>
    </g>
    <g clip-path="url(#pf54c92d0ff)">
     <use xlink:href="#C0_0_4208e6bf56" x="372.71731" y="471.336375" style="fill: #00008b"/>
    </g>
    <g clip-path="url(#pf54c92d0ff)">
     <use xlink:href="#C0_0_4208e6bf56" x="444.48003" y="273.893076" style="fill: #00008b"/>
    </g>
   </g>
   <g id="matplotlib.axis_1">
    <g id="xtick_1">
     <g id="line2d_1">
      <defs>
       <path id="m97f6d8a9d6" d="M 0 0 
L 0 3.5 
" style="stroke: #000000; stroke-width: 0.8"/>
      </defs>
      <g>
       <use xlink:href="#m97f6d8a9d6" x="65.200889" y="491.496375" style="stroke: #000000; stroke-width: 0.8"/>
      </g>
     </g>
     <g id="text_1">
      <text style="font-size: 10px; font-family: 'Helvetica', 'Arial', 'DejaVu Sans', 'Bitstream Vera Sans', 'Computer Modern Sans Serif', 'Lucida Grande', 'Verdana', 'Geneva', 'Lucid', 'Avant Garde', sans-serif; text-anchor: middle" x="65.200889" y="505.669812" transform="rotate(-0 65.200889 505.669812)">−1.2</text>
     </g>
    </g>
    <g id="xtick_2">
     <g id="line2d_2">
      <g>
       <use xlink:href="#m97f6d8a9d6" x="142.766623" y="491.496375" style="stroke: #000000; stroke-width: 0.8"/>
      </g>
     </g>
     <g id="text_2">
      <text style="font-size: 10px; font-family: 'Helvetica', 'Arial', 'DejaVu Sans', 'Bitstream Vera Sans', 'Computer Modern Sans Serif', 'Lucida Grande', 'Verdana', 'Geneva', 'Lucid', 'Avant Garde', sans-serif; text-anchor: middle" x="142.766623" y="505.669812" transform="rotate(-0 142.766623 505.669812)">−1.0</text>
     </g>
    </g>
    <g id="xtick_3">
     <g id="line2d_3">
      <g>
       <use xlink:href="#m97f6d8a9d6" x="220.332357" y="491.496375" style="stroke: #000000; stroke-width: 0.8"/>
      </g>
     </g>
     <g id="text_3">
      <text style="font-size: 10px; font-family: 'Helvetica', 'Arial', 'DejaVu Sans', 'Bitstream Vera Sans', 'Computer Modern Sans Serif', 'Lucida Grande', 'Verdana', 'Geneva', 'Lucid', 'Avant Garde', sans-serif; text-anchor: middle" x="220.332357" y="505.669812" transform="rotate(-0 220.332357 505.669812)">−0.8</text>
     </g>
    </g>
    <g id="xtick_4">
     <g id="line2d_4">
      <g>
       <use xlink:href="#m97f6d8a9d6" x="297.898091" y="491.496375" style="stroke: #000000; stroke-width: 0.8"/>
      </g>
     </g>
     <g id="text_4">
      <text style="font-size: 10px; font-family: 'Helvetica', 'Arial', 'DejaVu Sans', 'Bitstream Vera Sans', 'Computer Modern Sans Serif', 'Lucida Grande', 'Verdana', 'Geneva', 'Lucid', 'Avant Garde', sans-serif; text-anchor: middle" x="297.898091" y="505.669812" transform="rotate(-0 297.898091 505.669812)">−0.6</text>
     </g>
    </g>
    <g id="xtick_5">
     <g id="line2d_5">
      <g>
       <use xlink:href="#m97f6d8a9d6" x="375.463826" y="491.496375" style="stroke: #000000; stroke-width: 0.8"/>
      </g>
     </g>
     <g id="text_5">
      <text style="font-size: 10px; font-family: 'Helvetica', 'Arial', 'DejaVu Sans', 'Bitstream Vera Sans', 'Computer Modern Sans Serif', 'Lucida Grande', 'Verdana', 'Geneva', 'Lucid', 'Avant Garde', sans-serif; text-anchor: middle" x="375.463826" y="505.669812" transform="rotate(-0 375.463826 505.669812)">−0.4</text>
     </g>
    </g>
    <g id="xtick_6">
     <g id="line2d_6">
      <g>
       <use xlink:href="#m97f6d8a9d6" x="453.02956" y="491.496375" style="stroke: #000000; stroke-width: 0.8"/>
      </g>
     </g>
     <g id="text_6">
      <text style="font-size: 10px; font-family: 'Helvetica', 'Arial', 'DejaVu Sans', 'Bitstream Vera Sans', 'Computer Modern Sans Serif', 'Lucida Grande', 'Verdana', 'Geneva', 'Lucid', 'Avant Garde', sans-serif; text-anchor: middle" x="453.02956" y="505.669812" transform="rotate(-0 453.02956 505.669812)">−0.2</text>
     </g>
    </g>
    <g id="xtick_7">
     <g id="line2d_7">
      <g>
       <use xlink:href="#m97f6d8a9d6" x="530.595294" y="491.496375" style="stroke: #000000; stroke-width: 0.8"/>
      </g>
     </g>
     <g id="text_7">
      <text style="font-size: 10px; font-family: 'Helvetica', 'Arial', 'DejaVu Sans', 'Bitstream Vera Sans', 'Computer Modern Sans Serif', 'Lucida Grande', 'Verdana', 'Geneva', 'Lucid', 'Avant Garde', sans-serif; text-anchor: middle" x="530.595294" y="505.669812" transform="rotate(-0 530.595294 505.669812)">0.0</text>
     </g>
    </g>
    <g id="text_8">
     <text style="font-size: 12px; font-family: 'Helvetica', 'Arial', 'DejaVu Sans', 'Bitstream Vera Sans', 'Computer Modern Sans Serif', 'Lucida Grande', 'Verdana', 'Geneva', 'Lucid', 'Avant Garde', sans-serif; text-anchor: middle" x="320.016563" y="520.502937" transform="rotate(-0 320.016563 520.502937)">H2B Intensity (Z-score)</text>
    </g>
    <g id="text_9">
     <text style="font-size: 10px; font-family: 'Helvetica', 'Arial', 'DejaVu Sans', 'Bitstream Vera Sans', 'Computer Modern Sans Serif', 'Lucida Grande', 'Verdana', 'Geneva', 'Lucid', 'Avant Garde', sans-serif; text-anchor: end" x="599.016562" y="517.927625" transform="rotate(-0 599.016562 517.927625)">1e−15</text>
    </g>
   </g>
   <g id="matplotlib.axis_2">
    <g id="ytick_1">
     <g id="line2d_8">
      <defs>
       <path id="m0fa2d63b8d" d="M 0 0 
L -3.5 0 
" style="stroke: #000000; stroke-width: 0.8"/>
      </defs>
      <g>
       <use xlink:href="#m0fa2d63b8d" x="41.016562" y="488.45067" style="stroke: #000000; stroke-width: 0.8"/>
      </g>
     </g>
     <g id="text_10">
      <text style="font-size: 10px; font-family: 'Helvetica', 'Arial', 'DejaVu Sans', 'Bitstream Vera Sans', 'Computer Modern Sans Serif', 'Lucida Grande', 'Verdana', 'Geneva', 'Lucid', 'Avant Garde', sans-serif; text-anchor: end" x="34.016562" y="492.037388" transform="rotate(-0 34.016562 492.037388)">−2</text>
     </g>
    </g>
    <g id="ytick_2">
     <g id="line2d_9">
      <g>
       <use xlink:href="#m0fa2d63b8d" x="41.016562" y="398.594107" style="stroke: #000000; stroke-width: 0.8"/>
      </g>
     </g>
     <g id="text_11">
      <text style="font-size: 10px; font-family: 'Helvetica', 'Arial', 'DejaVu Sans', 'Bitstream Vera Sans', 'Computer Modern Sans Serif', 'Lucida Grande', 'Verdana', 'Geneva', 'Lucid', 'Avant Garde', sans-serif; text-anchor: end" x="34.016562" y="402.180826" transform="rotate(-0 34.016562 402.180826)">0</text>
     </g>
    </g>
    <g id="ytick_3">
     <g id="line2d_10">
      <g>
       <use xlink:href="#m0fa2d63b8d" x="41.016562" y="308.737544" style="stroke: #000000; stroke-width: 0.8"/>
      </g>
     </g>
     <g id="text_12">
      <text style="font-size: 10px; font-family: 'Helvetica', 'Arial', 'DejaVu Sans', 'Bitstream Vera Sans', 'Computer Modern Sans Serif', 'Lucida Grande', 'Verdana', 'Geneva', 'Lucid', 'Avant Garde', sans-serif; text-anchor: end" x="34.016562" y="312.324263" transform="rotate(-0 34.016562 312.324263)">2</text>
     </g>
    </g>
    <g id="ytick_4">
     <g id="line2d_11">
      <g>
       <use xlink:href="#m0fa2d63b8d" x="41.016562" y="218.880982" style="stroke: #000000; stroke-width: 0.8"/>
      </g>
     </g>
     <g id="text_13">
      <text style="font-size: 10px; font-family: 'Helvetica', 'Arial', 'DejaVu Sans', 'Bitstream Vera Sans', 'Computer Modern Sans Serif', 'Lucida Grande', 'Verdana', 'Geneva', 'Lucid', 'Avant Garde', sans-serif; text-anchor: end" x="34.016562" y="222.4677" transform="rotate(-0 34.016562 222.4677)">4</text>
     </g>
    </g>
    <g id="ytick_5">
     <g id="line2d_12">
      <g>
       <use xlink:href="#m0fa2d63b8d" x="41.016562" y="129.024419" style="stroke: #000000; stroke-width: 0.8"/>
      </g>
     </g>
     <g id="text_14">
      <text style="font-size: 10px; font-family: 'Helvetica', 'Arial', 'DejaVu Sans', 'Bitstream Vera Sans', 'Computer Modern Sans Serif', 'Lucida Grande', 'Verdana', 'Geneva', 'Lucid', 'Avant Garde', sans-serif; text-anchor: end" x="34.016562" y="132.611138" transform="rotate(-0 34.016562 132.611138)">6</text>
     </g>
    </g>
    <g id="text_15">
     <text style="font-size: 12px; font-family: 'Helvetica', 'Arial', 'DejaVu Sans', 'Bitstream Vera Sans', 'Computer Modern Sans Serif', 'Lucida Grande', 'Verdana', 'Geneva', 'Lucid', 'Avant Garde', sans-serif; text-anchor: middle" x="16.0425" y="269.736375" transform="rotate(-90 16.0425 269.736375)">VSV Intensity (Z-score)</text>
    </g>
    <g id="text_16">
     <text style="font-size: 10px; font-family: 'Helvetica', 'Arial', 'DejaVu Sans', 'Bitstream Vera Sans', 'Computer Modern Sans Serif', 'Lucida Grande', 'Verdana', 'Geneva', 'Lucid', 'Avant Garde', sans-serif; text-anchor: start" x="41.016562" y="44.976375" transform="rotate(-0 41.016562 44.976375)">1e−16</text>
    </g>
   </g>
   <g id="line2d_13">
    <path d="M 66.380199 274.1591 
L 71.504166 274.561012 
L 76.628133 274.962925 
L 81.7521 275.364838 
L 86.876067 275.766751 
L 92.000034 276.168663 
L 97.124001 276.570576 
L 102.247967 276.972489 
L 107.371934 277.374401 
L 112.495901 277.776314 
L 117.619868 278.178227 
L 122.743835 278.58014 
L 127.867802 278.982052 
L 132.991769 279.383965 
L 138.115736 279.785878 
L 143.239703 280.18779 
L 148.36367 280.589703 
L 153.487637 280.991616 
L 158.611604 281.393528 
L 163.735571 281.795441 
L 168.859538 282.197354 
L 173.983505 282.599267 
L 179.107472 283.001179 
L 184.231439 283.403092 
L 189.355405 283.805005 
L 194.479372 284.206917 
L 199.603339 284.60883 
L 204.727306 285.010743 
L 209.851273 285.412656 
L 214.97524 285.814568 
L 220.099207 286.216481 
L 225.223174 286.618394 
L 230.347141 287.020306 
L 235.471108 287.422219 
L 240.595075 287.824132 
L 245.719042 288.226044 
L 250.843009 288.627957 
L 255.966976 289.02987 
L 261.090943 289.431783 
L 266.21491 289.833695 
L 271.338877 290.235608 
L 276.462843 290.637521 
L 281.58681 291.039433 
L 286.710777 291.441346 
L 291.834744 291.843259 
L 296.958711 292.245172 
L 302.082678 292.647084 
L 307.206645 293.048997 
L 312.330612 293.45091 
L 317.454579 293.852822 
L 322.578546 294.254735 
L 327.702513 294.656648 
L 332.82648 295.058561 
L 337.950447 295.460473 
L 343.074414 295.862386 
L 348.198381 296.264299 
L 353.322348 296.666211 
L 358.446315 297.068124 
L 363.570282 297.470037 
L 368.694248 297.871949 
L 373.818215 298.273862 
L 378.942182 298.675775 
L 384.066149 299.077688 
L 389.190116 299.4796 
L 394.314083 299.881513 
L 399.43805 300.283426 
L 404.562017 300.685338 
L 409.685984 301.087251 
L 414.809951 301.489164 
L 419.933918 301.891077 
L 425.057885 302.292989 
L 430.181852 302.694902 
L 435.305819 303.096815 
L 440.429786 303.498727 
L 445.553753 303.90064 
L 450.67772 304.302553 
L 455.801686 304.704465 
L 460.925653 305.106378 
L 466.04962 305.508291 
L 471.173587 305.910204 
L 476.297554 306.312116 
L 481.421521 306.714029 
L 486.545488 307.115942 
L 491.669455 307.517854 
L 496.793422 307.919767 
L 501.917389 308.32168 
L 507.041356 308.723593 
L 512.165323 309.125505 
L 517.28929 309.527418 
L 522.413257 309.929331 
L 527.537224 310.331243 
L 532.661191 310.733156 
L 537.785158 311.135069 
L 542.909124 311.536981 
L 548.033091 311.938894 
L 553.157058 312.340807 
L 558.281025 312.74272 
L 563.404992 313.144632 
L 568.528959 313.546545 
L 573.652926 313.948458 
" clip-path="url(#pf54c92d0ff)" style="fill: none; stroke: #000000; stroke-width: 2; stroke-linecap: square"/>
   </g>
   <g id="patch_3">
    <path d="M 41.016562 491.496375 
L 41.016562 47.976375 
" style="fill: none; stroke: #000000; stroke-width: 0.8; stroke-linejoin: miter; stroke-linecap: square"/>
   </g>
   <g id="patch_4">
    <path d="M 41.016562 491.496375 
L 599.016562 491.496375 
" style="fill: none; stroke: #000000; stroke-width: 0.8; stroke-linejoin: miter; stroke-linecap: square"/>
   </g>
   <g id="text_17">
    <text style="font-size: 9px; font-family: 'Helvetica', 'Arial', 'DejaVu Sans', 'Bitstream Vera Sans', 'Computer Modern Sans Serif', 'Lucida Grande', 'Verdana', 'Geneva', 'Lucid', 'Avant Garde', sans-serif; text-anchor: start" x="417.186806" y="293.833282" transform="rotate(-0 417.186806 293.833282)">A</text>
   </g>
   <g id="text_18">
    <text style="font-size: 9px; font-family: 'Helvetica', 'Arial', 'DejaVu Sans', 'Bitstream Vera Sans', 'Computer Modern Sans Serif', 'Lucida Grande', 'Verdana', 'Geneva', 'Lucid', 'Avant Garde', sans-serif; text-anchor: start" x="578.652926" y="406.06421" transform="rotate(-0 578.652926 406.06421)">AL</text>
   </g>
   <g id="text_19">
    <text style="font-size: 9px; font-family: 'Helvetica', 'Arial', 'DejaVu Sans', 'Bitstream Vera Sans', 'Computer Modern Sans Serif', 'Lucida Grande', 'Verdana', 'Geneva', 'Lucid', 'Avant Garde', sans-serif; text-anchor: start" x="71.380199" y="268.893076" transform="rotate(-0 71.380199 268.893076)">AM</text>
   </g>
   <g id="text_20">
    <text style="font-size: 9px; font-family: 'Helvetica', 'Arial', 'DejaVu Sans', 'Bitstream Vera Sans', 'Computer Modern Sans Serif', 'Lucida Grande', 'Verdana', 'Geneva', 'Lucid', 'Avant Garde', sans-serif; text-anchor: start" x="357.982562" y="393.594107" transform="rotate(-0 357.982562 393.594107)">LM</text>
   </g>
   <g id="text_21">
    <text style="font-size: 9px; font-family: 'Helvetica', 'Arial', 'DejaVu Sans', 'Bitstream Vera Sans', 'Computer Modern Sans Serif', 'Lucida Grande', 'Verdana', 'Geneva', 'Lucid', 'Avant Garde', sans-serif; text-anchor: start" x="503.30207" y="194.072457" transform="rotate(-0 503.30207 194.072457)">LI</text>
   </g>
   <g id="text_22">
    <text style="font-size: 9px; font-family: 'Helvetica', 'Arial', 'DejaVu Sans', 'Bitstream Vera Sans', 'Computer Modern Sans Serif', 'Lucida Grande', 'Verdana', 'Geneva', 'Lucid', 'Avant Garde', sans-serif; text-anchor: start" x="384.893582" y="63.136375" transform="rotate(-0 384.893582 63.136375)">PM</text>
   </g>
   <g id="text_23">
    <text style="font-size: 9px; font-family: 'Helvetica', 'Arial', 'DejaVu Sans', 'Bitstream Vera Sans', 'Computer Modern Sans Serif', 'Lucida Grande', 'Verdana', 'Geneva', 'Lucid', 'Avant Garde', sans-serif; text-anchor: start" x="377.71731" y="466.336375" transform="rotate(-0 377.71731 466.336375)">POR</text>
   </g>
   <g id="text_24">
    <text style="font-size: 9px; font-family: 'Helvetica', 'Arial', 'DejaVu Sans', 'Bitstream Vera Sans', 'Computer Modern Sans Serif', 'Lucida Grande', 'Verdana', 'Geneva', 'Lucid', 'Avant Garde', sans-serif; text-anchor: start" x="449.48003" y="268.893076" transform="rotate(-0 449.48003 268.893076)">RL</text>
   </g>
   <g id="text_25">
    <text style="font-size: 12px; font-family: 'Helvetica', 'Arial', 'DejaVu Sans', 'Bitstream Vera Sans', 'Computer Modern Sans Serif', 'Lucida Grande', 'Verdana', 'Geneva', 'Lucid', 'Avant Garde', sans-serif" transform="translate(274.3275 15.808125)">p12 - All Regions</text>
    <text style="font-size: 12px; font-family: 'Helvetica', 'Arial', 'DejaVu Sans', 'Bitstream Vera Sans', 'Computer Modern Sans Serif', 'Lucida Grande', 'Verdana', 'Geneva', 'Lucid', 'Avant Garde', sans-serif" transform="translate(231.660938 29.074125)">Complete Pairs Analysis (zscore)</text>
    <text style="font-size: 12px; font-family: 'Helvetica', 'Arial', 'DejaVu Sans', 'Bitstream Vera Sans', 'Computer Modern Sans Serif', 'Lucida Grande', 'Verdana', 'Geneva', 'Lucid', 'Avant Garde', sans-serif" transform="translate(258.315938 41.976375)">r = -0.0905, r² = 0.0082</text>
   </g>
  </g>
 </g>
 <defs>
  <clipPath id="pf54c92d0ff">
   <rect x="41.016562" y="47.976375" width="558" height="443.52"/>
  </clipPath>
 </defs>
</svg>
