<?xml version="1.0" encoding="utf-8" standalone="no"?>
<!DOCTYPE svg PUBLIC "-//W3C//DTD SVG 1.1//EN"
  "http://www.w3.org/Graphics/SVG/1.1/DTD/svg11.dtd">
<svg xmlns:xlink="http://www.w3.org/1999/xlink" width="614.275937pt" height="530.162937pt" viewBox="0 0 614.275937 530.162937" xmlns="http://www.w3.org/2000/svg" version="1.1">
 <metadata>
  <rdf:RDF xmlns:dc="http://purl.org/dc/elements/1.1/" xmlns:cc="http://creativecommons.org/ns#" xmlns:rdf="http://www.w3.org/1999/02/22-rdf-syntax-ns#">
   <cc:Work>
    <dc:type rdf:resource="http://purl.org/dc/dcmitype/StillImage"/>
    <dc:date>2026-02-24T12:29:37.980875</dc:date>
    <dc:format>image/svg+xml</dc:format>
    <dc:creator>
     <cc:Agent>
      <dc:title>Matplotlib v3.10.5, https://matplotlib.org/</dc:title>
     </cc:Agent>
    </dc:creator>
   </cc:Work>
  </rdf:RDF>
 </metadata>
 <defs>
  <style type="text/css">*{stroke-linejoin: round; stroke-linecap: butt}</style>
 </defs>
 <g id="figure_1">
  <g id="patch_1">
   <path d="M 0 530.162937 
L 614.275937 530.162937 
L 614.275937 0 
L 0 0 
z
" style="fill: #ffffff"/>
  </g>
  <g id="axes_1">
   <g id="patch_2">
    <path d="M 49.075938 491.383875 
L 607.075938 491.383875 
L 607.075938 47.863875 
L 49.075938 47.863875 
z
" style="fill: #ffffff"/>
   </g>
   <g id="PathCollection_1">
    <defs>
     <path id="C0_0_48dd685f26" d="M 0 5 
C 1.326016 5 2.597899 4.473168 3.535534 3.535534 
C 4.473168 2.597899 5 1.326016 5 -0 
C 5 -1.326016 4.473168 -2.597899 3.535534 -3.535534 
C 2.597899 -4.473168 1.326016 -5 0 -5 
C -1.326016 -5 -2.597899 -4.473168 -3.535534 -3.535534 
C -4.473168 -2.597899 -5 -1.326016 -5 0 
C -5 1.326016 -4.473168 2.597899 -3.535534 3.535534 
C -2.597899 4.473168 -1.326016 5 0 5 
z
"/>
    </defs>
    <g clip-path="url(#p7465807875)">
     <use xlink:href="#C0_0_48dd685f26" x="383.312614" y="471.223875" style="fill: #00008b"/>
    </g>
    <g clip-path="url(#p7465807875)">
     <use xlink:href="#C0_0_48dd685f26" x="392.093797" y="471.223875" style="fill: #00008b"/>
    </g>
    <g clip-path="url(#p7465807875)">
     <use xlink:href="#C0_0_48dd685f26" x="74.439574" y="471.223875" style="fill: #00008b"/>
    </g>
    <g clip-path="url(#p7465807875)">
     <use xlink:href="#C0_0_48dd685f26" x="581.712301" y="471.223875" style="fill: #00008b"/>
    </g>
    <g clip-path="url(#p7465807875)">
     <use xlink:href="#C0_0_48dd685f26" x="414.101628" y="471.223875" style="fill: #00008b"/>
    </g>
    <g clip-path="url(#p7465807875)">
     <use xlink:href="#C0_0_48dd685f26" x="177.639148" y="471.223875" style="fill: #00008b"/>
    </g>
    <g clip-path="url(#p7465807875)">
     <use xlink:href="#C0_0_48dd685f26" x="323.078279" y="68.023875" style="fill: #00008b"/>
    </g>
    <g clip-path="url(#p7465807875)">
     <use xlink:href="#C0_0_48dd685f26" x="186.54053" y="471.223875" style="fill: #00008b"/>
    </g>
   </g>
   <g id="matplotlib.axis_1">
    <g id="xtick_1">
     <g id="line2d_1">
      <defs>
       <path id="m7b7296359e" d="M 0 0 
L 0 3.5 
" style="stroke: #000000; stroke-width: 0.8"/>
      </defs>
      <g>
       <use xlink:href="#m7b7296359e" x="104.266733" y="491.383875" style="stroke: #000000; stroke-width: 0.8"/>
      </g>
     </g>
     <g id="text_1">
      <text style="font-size: 10px; font-family: 'Helvetica', 'Arial', 'DejaVu Sans', 'Bitstream Vera Sans', 'Computer Modern Sans Serif', 'Lucida Grande', 'Verdana', 'Geneva', 'Lucid', 'Avant Garde', sans-serif; text-anchor: middle" x="104.266733" y="505.557312" transform="rotate(-0 104.266733 505.557312)">1.5</text>
     </g>
    </g>
    <g id="xtick_2">
     <g id="line2d_2">
      <g>
       <use xlink:href="#m7b7296359e" x="207.342495" y="491.383875" style="stroke: #000000; stroke-width: 0.8"/>
      </g>
     </g>
     <g id="text_2">
      <text style="font-size: 10px; font-family: 'Helvetica', 'Arial', 'DejaVu Sans', 'Bitstream Vera Sans', 'Computer Modern Sans Serif', 'Lucida Grande', 'Verdana', 'Geneva', 'Lucid', 'Avant Garde', sans-serif; text-anchor: middle" x="207.342495" y="505.557312" transform="rotate(-0 207.342495 505.557312)">1.6</text>
     </g>
    </g>
    <g id="xtick_3">
     <g id="line2d_3">
      <g>
       <use xlink:href="#m7b7296359e" x="310.418258" y="491.383875" style="stroke: #000000; stroke-width: 0.8"/>
      </g>
     </g>
     <g id="text_3">
      <text style="font-size: 10px; font-family: 'Helvetica', 'Arial', 'DejaVu Sans', 'Bitstream Vera Sans', 'Computer Modern Sans Serif', 'Lucida Grande', 'Verdana', 'Geneva', 'Lucid', 'Avant Garde', sans-serif; text-anchor: middle" x="310.418258" y="505.557312" transform="rotate(-0 310.418258 505.557312)">1.7</text>
     </g>
    </g>
    <g id="xtick_4">
     <g id="line2d_4">
      <g>
       <use xlink:href="#m7b7296359e" x="413.494021" y="491.383875" style="stroke: #000000; stroke-width: 0.8"/>
      </g>
     </g>
     <g id="text_4">
      <text style="font-size: 10px; font-family: 'Helvetica', 'Arial', 'DejaVu Sans', 'Bitstream Vera Sans', 'Computer Modern Sans Serif', 'Lucida Grande', 'Verdana', 'Geneva', 'Lucid', 'Avant Garde', sans-serif; text-anchor: middle" x="413.494021" y="505.557312" transform="rotate(-0 413.494021 505.557312)">1.8</text>
     </g>
    </g>
    <g id="xtick_5">
     <g id="line2d_5">
      <g>
       <use xlink:href="#m7b7296359e" x="516.569783" y="491.383875" style="stroke: #000000; stroke-width: 0.8"/>
      </g>
     </g>
     <g id="text_5">
      <text style="font-size: 10px; font-family: 'Helvetica', 'Arial', 'DejaVu Sans', 'Bitstream Vera Sans', 'Computer Modern Sans Serif', 'Lucida Grande', 'Verdana', 'Geneva', 'Lucid', 'Avant Garde', sans-serif; text-anchor: middle" x="516.569783" y="505.557312" transform="rotate(-0 516.569783 505.557312)">1.9</text>
     </g>
    </g>
    <g id="text_6">
     <text style="font-size: 12px; font-family: 'Helvetica', 'Arial', 'DejaVu Sans', 'Bitstream Vera Sans', 'Computer Modern Sans Serif', 'Lucida Grande', 'Verdana', 'Geneva', 'Lucid', 'Avant Garde', sans-serif; text-anchor: middle" x="328.075938" y="520.390437" transform="rotate(-0 328.075938 520.390437)">H2B Intensity (Robust Normalized)</text>
    </g>
   </g>
   <g id="matplotlib.axis_2">
    <g id="ytick_1">
     <g id="line2d_6">
      <defs>
       <path id="m241eb7178e" d="M 0 0 
L -3.5 0 
" style="stroke: #000000; stroke-width: 0.8"/>
      </defs>
      <g>
       <use xlink:href="#m241eb7178e" x="49.075938" y="471.223875" style="stroke: #000000; stroke-width: 0.8"/>
      </g>
     </g>
     <g id="text_7">
      <text style="font-size: 10px; font-family: 'Helvetica', 'Arial', 'DejaVu Sans', 'Bitstream Vera Sans', 'Computer Modern Sans Serif', 'Lucida Grande', 'Verdana', 'Geneva', 'Lucid', 'Avant Garde', sans-serif; text-anchor: end" x="42.075938" y="474.810594" transform="rotate(-0 42.075938 474.810594)">0.00</text>
     </g>
    </g>
    <g id="ytick_2">
     <g id="line2d_7">
      <g>
       <use xlink:href="#m241eb7178e" x="49.075938" y="420.208395" style="stroke: #000000; stroke-width: 0.8"/>
      </g>
     </g>
     <g id="text_8">
      <text style="font-size: 10px; font-family: 'Helvetica', 'Arial', 'DejaVu Sans', 'Bitstream Vera Sans', 'Computer Modern Sans Serif', 'Lucida Grande', 'Verdana', 'Geneva', 'Lucid', 'Avant Garde', sans-serif; text-anchor: end" x="42.075938" y="423.795114" transform="rotate(-0 42.075938 423.795114)">0.02</text>
     </g>
    </g>
    <g id="ytick_3">
     <g id="line2d_8">
      <g>
       <use xlink:href="#m241eb7178e" x="49.075938" y="369.192915" style="stroke: #000000; stroke-width: 0.8"/>
      </g>
     </g>
     <g id="text_9">
      <text style="font-size: 10px; font-family: 'Helvetica', 'Arial', 'DejaVu Sans', 'Bitstream Vera Sans', 'Computer Modern Sans Serif', 'Lucida Grande', 'Verdana', 'Geneva', 'Lucid', 'Avant Garde', sans-serif; text-anchor: end" x="42.075938" y="372.779634" transform="rotate(-0 42.075938 372.779634)">0.04</text>
     </g>
    </g>
    <g id="ytick_4">
     <g id="line2d_9">
      <g>
       <use xlink:href="#m241eb7178e" x="49.075938" y="318.177436" style="stroke: #000000; stroke-width: 0.8"/>
      </g>
     </g>
     <g id="text_10">
      <text style="font-size: 10px; font-family: 'Helvetica', 'Arial', 'DejaVu Sans', 'Bitstream Vera Sans', 'Computer Modern Sans Serif', 'Lucida Grande', 'Verdana', 'Geneva', 'Lucid', 'Avant Garde', sans-serif; text-anchor: end" x="42.075938" y="321.764154" transform="rotate(-0 42.075938 321.764154)">0.06</text>
     </g>
    </g>
    <g id="ytick_5">
     <g id="line2d_10">
      <g>
       <use xlink:href="#m241eb7178e" x="49.075938" y="267.161956" style="stroke: #000000; stroke-width: 0.8"/>
      </g>
     </g>
     <g id="text_11">
      <text style="font-size: 10px; font-family: 'Helvetica', 'Arial', 'DejaVu Sans', 'Bitstream Vera Sans', 'Computer Modern Sans Serif', 'Lucida Grande', 'Verdana', 'Geneva', 'Lucid', 'Avant Garde', sans-serif; text-anchor: end" x="42.075938" y="270.748675" transform="rotate(-0 42.075938 270.748675)">0.08</text>
     </g>
    </g>
    <g id="ytick_6">
     <g id="line2d_11">
      <g>
       <use xlink:href="#m241eb7178e" x="49.075938" y="216.146476" style="stroke: #000000; stroke-width: 0.8"/>
      </g>
     </g>
     <g id="text_12">
      <text style="font-size: 10px; font-family: 'Helvetica', 'Arial', 'DejaVu Sans', 'Bitstream Vera Sans', 'Computer Modern Sans Serif', 'Lucida Grande', 'Verdana', 'Geneva', 'Lucid', 'Avant Garde', sans-serif; text-anchor: end" x="42.075938" y="219.733195" transform="rotate(-0 42.075938 219.733195)">0.10</text>
     </g>
    </g>
    <g id="ytick_7">
     <g id="line2d_12">
      <g>
       <use xlink:href="#m241eb7178e" x="49.075938" y="165.130996" style="stroke: #000000; stroke-width: 0.8"/>
      </g>
     </g>
     <g id="text_13">
      <text style="font-size: 10px; font-family: 'Helvetica', 'Arial', 'DejaVu Sans', 'Bitstream Vera Sans', 'Computer Modern Sans Serif', 'Lucida Grande', 'Verdana', 'Geneva', 'Lucid', 'Avant Garde', sans-serif; text-anchor: end" x="42.075938" y="168.717715" transform="rotate(-0 42.075938 168.717715)">0.12</text>
     </g>
    </g>
    <g id="ytick_8">
     <g id="line2d_13">
      <g>
       <use xlink:href="#m241eb7178e" x="49.075938" y="114.115517" style="stroke: #000000; stroke-width: 0.8"/>
      </g>
     </g>
     <g id="text_14">
      <text style="font-size: 10px; font-family: 'Helvetica', 'Arial', 'DejaVu Sans', 'Bitstream Vera Sans', 'Computer Modern Sans Serif', 'Lucida Grande', 'Verdana', 'Geneva', 'Lucid', 'Avant Garde', sans-serif; text-anchor: end" x="42.075938" y="117.702235" transform="rotate(-0 42.075938 117.702235)">0.14</text>
     </g>
    </g>
    <g id="ytick_9">
     <g id="line2d_14">
      <g>
       <use xlink:href="#m241eb7178e" x="49.075938" y="63.100037" style="stroke: #000000; stroke-width: 0.8"/>
      </g>
     </g>
     <g id="text_15">
      <text style="font-size: 10px; font-family: 'Helvetica', 'Arial', 'DejaVu Sans', 'Bitstream Vera Sans', 'Computer Modern Sans Serif', 'Lucida Grande', 'Verdana', 'Geneva', 'Lucid', 'Avant Garde', sans-serif; text-anchor: end" x="42.075938" y="66.686756" transform="rotate(-0 42.075938 66.686756)">0.16</text>
     </g>
    </g>
    <g id="text_16">
     <text style="font-size: 12px; font-family: 'Helvetica', 'Arial', 'DejaVu Sans', 'Bitstream Vera Sans', 'Computer Modern Sans Serif', 'Lucida Grande', 'Verdana', 'Geneva', 'Lucid', 'Avant Garde', sans-serif; text-anchor: middle" x="16.0425" y="269.623875" transform="rotate(-90 16.0425 269.623875)">VSV Intensity (Robust Normalized)</text>
    </g>
   </g>
   <g id="line2d_15">
    <path d="M 74.439574 424.238169 
L 79.563541 424.165929 
L 84.687508 424.093689 
L 89.811475 424.021449 
L 94.935442 423.949209 
L 100.059409 423.876969 
L 105.183376 423.804729 
L 110.307342 423.732489 
L 115.431309 423.660249 
L 120.555276 423.588009 
L 125.679243 423.515769 
L 130.80321 423.443529 
L 135.927177 423.371289 
L 141.051144 423.299049 
L 146.175111 423.226809 
L 151.299078 423.154569 
L 156.423045 423.082329 
L 161.547012 423.010089 
L 166.670979 422.93785 
L 171.794946 422.86561 
L 176.918913 422.79337 
L 182.04288 422.72113 
L 187.166847 422.64889 
L 192.290814 422.57665 
L 197.41478 422.50441 
L 202.538747 422.43217 
L 207.662714 422.35993 
L 212.786681 422.28769 
L 217.910648 422.21545 
L 223.034615 422.14321 
L 228.158582 422.07097 
L 233.282549 421.99873 
L 238.406516 421.92649 
L 243.530483 421.85425 
L 248.65445 421.78201 
L 253.778417 421.70977 
L 258.902384 421.63753 
L 264.026351 421.56529 
L 269.150318 421.49305 
L 274.274285 421.42081 
L 279.398252 421.34857 
L 284.522218 421.27633 
L 289.646185 421.20409 
L 294.770152 421.13185 
L 299.894119 421.05961 
L 305.018086 420.98737 
L 310.142053 420.91513 
L 315.26602 420.84289 
L 320.389987 420.77065 
L 325.513954 420.69841 
L 330.637921 420.62617 
L 335.761888 420.55393 
L 340.885855 420.48169 
L 346.009822 420.40945 
L 351.133789 420.33721 
L 356.257756 420.26497 
L 361.381723 420.19273 
L 366.50569 420.12049 
L 371.629657 420.04825 
L 376.753623 419.97601 
L 381.87759 419.90377 
L 387.001557 419.83153 
L 392.125524 419.75929 
L 397.249491 419.68705 
L 402.373458 419.61481 
L 407.497425 419.54257 
L 412.621392 419.47033 
L 417.745359 419.39809 
L 422.869326 419.32585 
L 427.993293 419.25361 
L 433.11726 419.18137 
L 438.241227 419.10913 
L 443.365194 419.03689 
L 448.489161 418.96465 
L 453.613128 418.89241 
L 458.737095 418.82017 
L 463.861061 418.74793 
L 468.985028 418.67569 
L 474.108995 418.60345 
L 479.232962 418.53121 
L 484.356929 418.45897 
L 489.480896 418.38673 
L 494.604863 418.31449 
L 499.72883 418.24225 
L 504.852797 418.17001 
L 509.976764 418.09777 
L 515.100731 418.02553 
L 520.224698 417.95329 
L 525.348665 417.88105 
L 530.472632 417.80881 
L 535.596599 417.73657 
L 540.720566 417.66433 
L 545.844533 417.59209 
L 550.968499 417.51985 
L 556.092466 417.44761 
L 561.216433 417.37537 
L 566.3404 417.30313 
L 571.464367 417.23089 
L 576.588334 417.15865 
L 581.712301 417.08641 
" clip-path="url(#p7465807875)" style="fill: none; stroke: #000000; stroke-width: 2; stroke-linecap: square"/>
   </g>
   <g id="patch_3">
    <path d="M 49.075938 491.383875 
L 49.075938 47.863875 
" style="fill: none; stroke: #000000; stroke-width: 0.8; stroke-linejoin: miter; stroke-linecap: square"/>
   </g>
   <g id="patch_4">
    <path d="M 49.075937 491.383875 
L 607.075938 491.383875 
" style="fill: none; stroke: #000000; stroke-width: 0.8; stroke-linejoin: miter; stroke-linecap: square"/>
   </g>
   <g id="text_17">
    <text style="font-size: 9px; font-family: 'Helvetica', 'Arial', 'DejaVu Sans', 'Bitstream Vera Sans', 'Computer Modern Sans Serif', 'Lucida Grande', 'Verdana', 'Geneva', 'Lucid', 'Avant Garde', sans-serif; text-anchor: start" x="388.312614" y="466.223875" transform="rotate(-0 388.312614 466.223875)">A</text>
   </g>
   <g id="text_18">
    <text style="font-size: 9px; font-family: 'Helvetica', 'Arial', 'DejaVu Sans', 'Bitstream Vera Sans', 'Computer Modern Sans Serif', 'Lucida Grande', 'Verdana', 'Geneva', 'Lucid', 'Avant Garde', sans-serif; text-anchor: start" x="397.093797" y="466.223875" transform="rotate(-0 397.093797 466.223875)">AL</text>
   </g>
   <g id="text_19">
    <text style="font-size: 9px; font-family: 'Helvetica', 'Arial', 'DejaVu Sans', 'Bitstream Vera Sans', 'Computer Modern Sans Serif', 'Lucida Grande', 'Verdana', 'Geneva', 'Lucid', 'Avant Garde', sans-serif; text-anchor: start" x="79.439574" y="466.223875" transform="rotate(-0 79.439574 466.223875)">AM</text>
   </g>
   <g id="text_20">
    <text style="font-size: 9px; font-family: 'Helvetica', 'Arial', 'DejaVu Sans', 'Bitstream Vera Sans', 'Computer Modern Sans Serif', 'Lucida Grande', 'Verdana', 'Geneva', 'Lucid', 'Avant Garde', sans-serif; text-anchor: start" x="586.712301" y="466.223875" transform="rotate(-0 586.712301 466.223875)">LM</text>
   </g>
   <g id="text_21">
    <text style="font-size: 9px; font-family: 'Helvetica', 'Arial', 'DejaVu Sans', 'Bitstream Vera Sans', 'Computer Modern Sans Serif', 'Lucida Grande', 'Verdana', 'Geneva', 'Lucid', 'Avant Garde', sans-serif; text-anchor: start" x="419.101628" y="466.223875" transform="rotate(-0 419.101628 466.223875)">LI</text>
   </g>
   <g id="text_22">
    <text style="font-size: 9px; font-family: 'Helvetica', 'Arial', 'DejaVu Sans', 'Bitstream Vera Sans', 'Computer Modern Sans Serif', 'Lucida Grande', 'Verdana', 'Geneva', 'Lucid', 'Avant Garde', sans-serif; text-anchor: start" x="182.639148" y="466.223875" transform="rotate(-0 182.639148 466.223875)">PM</text>
   </g>
   <g id="text_23">
    <text style="font-size: 9px; font-family: 'Helvetica', 'Arial', 'DejaVu Sans', 'Bitstream Vera Sans', 'Computer Modern Sans Serif', 'Lucida Grande', 'Verdana', 'Geneva', 'Lucid', 'Avant Garde', sans-serif; text-anchor: start" x="328.078279" y="63.023875" transform="rotate(-0 328.078279 63.023875)">POR</text>
   </g>
   <g id="text_24">
    <text style="font-size: 9px; font-family: 'Helvetica', 'Arial', 'DejaVu Sans', 'Bitstream Vera Sans', 'Computer Modern Sans Serif', 'Lucida Grande', 'Verdana', 'Geneva', 'Lucid', 'Avant Garde', sans-serif; text-anchor: start" x="191.54053" y="466.223875" transform="rotate(-0 191.54053 466.223875)">RL</text>
   </g>
   <g id="text_25">
    <text style="font-size: 12px; font-family: 'Helvetica', 'Arial', 'DejaVu Sans', 'Bitstream Vera Sans', 'Computer Modern Sans Serif', 'Lucida Grande', 'Verdana', 'Geneva', 'Lucid', 'Avant Garde', sans-serif" transform="translate(285.723437 15.808125)">p3 - All Regions</text>
    <text style="font-size: 12px; font-family: 'Helvetica', 'Arial', 'DejaVu Sans', 'Bitstream Vera Sans', 'Computer Modern Sans Serif', 'Lucida Grande', 'Verdana', 'Geneva', 'Lucid', 'Avant Garde', sans-serif" transform="translate(245.712813 28.961625)">Imputed Data Analysis (robust)</text>
    <text style="font-size: 12px; font-family: 'Helvetica', 'Arial', 'DejaVu Sans', 'Bitstream Vera Sans', 'Computer Modern Sans Serif', 'Lucida Grande', 'Verdana', 'Geneva', 'Lucid', 'Avant Garde', sans-serif" transform="translate(266.375313 41.863875)">r = -0.0825, r² = 0.0068</text>
   </g>
  </g>
 </g>
 <defs>
  <clipPath id="p7465807875">
   <rect x="49.075938" y="47.863875" width="558" height="443.52"/>
  </clipPath>
 </defs>
</svg>
