<?xml version="1.0" encoding="utf-8" standalone="no"?>
<!DOCTYPE svg PUBLIC "-//W3C//DTD SVG 1.1//EN"
  "http://www.w3.org/Graphics/SVG/1.1/DTD/svg11.dtd">
<svg xmlns:xlink="http://www.w3.org/1999/xlink" width="608.7975pt" height="530.440437pt" viewBox="0 0 608.7975 530.440437" xmlns="http://www.w3.org/2000/svg" version="1.1">
 <metadata>
  <rdf:RDF xmlns:dc="http://purl.org/dc/elements/1.1/" xmlns:cc="http://creativecommons.org/ns#" xmlns:rdf="http://www.w3.org/1999/02/22-rdf-syntax-ns#">
   <cc:Work>
    <dc:type rdf:resource="http://purl.org/dc/dcmitype/StillImage"/>
    <dc:date>2026-02-24T12:29:46.124815</dc:date>
    <dc:format>image/svg+xml</dc:format>
    <dc:creator>
     <cc:Agent>
      <dc:title>Matplotlib v3.10.5, https://matplotlib.org/</dc:title>
     </cc:Agent>
    </dc:creator>
   </cc:Work>
  </rdf:RDF>
 </metadata>
 <defs>
  <style type="text/css">*{stroke-linejoin: round; stroke-linecap: butt}</style>
 </defs>
 <g id="figure_1">
  <g id="patch_1">
   <path d="M -0 530.440437 
L 608.7975 530.440437 
L 608.7975 0 
L -0 0 
z
" style="fill: #ffffff"/>
  </g>
  <g id="axes_1">
   <g id="patch_2">
    <path d="M 43.5975 491.578875 
L 601.5975 491.578875 
L 601.5975 48.058875 
L 43.5975 48.058875 
z
" style="fill: #ffffff"/>
   </g>
   <g id="PathCollection_1">
    <defs>
     <path id="C0_0_848bae1f8f" d="M 0 5 
C 1.326016 5 2.597899 4.473168 3.535534 3.535534 
C 4.473168 2.597899 5 1.326016 5 -0 
C 5 -1.326016 4.473168 -2.597899 3.535534 -3.535534 
C 2.597899 -4.473168 1.326016 -5 0 -5 
C -1.326016 -5 -2.597899 -4.473168 -3.535534 -3.535534 
C -4.473168 -2.597899 -5 -1.326016 -5 0 
C -5 1.326016 -4.473168 2.597899 -3.535534 3.535534 
C -2.597899 4.473168 -1.326016 5 0 5 
z
"/>
    </defs>
    <g clip-path="url(#p77e067c222)">
     <use xlink:href="#C0_0_848bae1f8f" x="347.156039" y="164.800228" style="fill: #00008b"/>
    </g>
    <g clip-path="url(#p77e067c222)">
     <use xlink:href="#C0_0_848bae1f8f" x="68.961136" y="199.210834" style="fill: #00008b"/>
    </g>
    <g clip-path="url(#p77e067c222)">
     <use xlink:href="#C0_0_848bae1f8f" x="232.296284" y="137.770635" style="fill: #00008b"/>
    </g>
    <g clip-path="url(#p77e067c222)">
     <use xlink:href="#C0_0_848bae1f8f" x="462.775142" y="404.587935" style="fill: #00008b"/>
    </g>
    <g clip-path="url(#p77e067c222)">
     <use xlink:href="#C0_0_848bae1f8f" x="576.233864" y="471.418875" style="fill: #00008b"/>
    </g>
    <g clip-path="url(#p77e067c222)">
     <use xlink:href="#C0_0_848bae1f8f" x="453.713828" y="68.218875" style="fill: #00008b"/>
    </g>
    <g clip-path="url(#p77e067c222)">
     <use xlink:href="#C0_0_848bae1f8f" x="253.052276" y="128.575573" style="fill: #00008b"/>
    </g>
   </g>
   <g id="matplotlib.axis_1">
    <g id="xtick_1">
     <g id="line2d_1">
      <defs>
       <path id="m5182574cc9" d="M 0 0 
L 0 3.5 
" style="stroke: #000000; stroke-width: 0.8"/>
      </defs>
      <g>
       <use xlink:href="#m5182574cc9" x="73.601319" y="491.578875" style="stroke: #000000; stroke-width: 0.8"/>
      </g>
     </g>
     <g id="text_1">
      <text style="font-size: 10px; font-family: 'Helvetica', 'Arial', 'DejaVu Sans', 'Bitstream Vera Sans', 'Computer Modern Sans Serif', 'Lucida Grande', 'Verdana', 'Geneva', 'Lucid', 'Avant Garde', sans-serif; text-anchor: middle" x="73.601319" y="505.752312" transform="rotate(-0 73.601319 505.752312)">1.04</text>
     </g>
    </g>
    <g id="xtick_2">
     <g id="line2d_2">
      <g>
       <use xlink:href="#m5182574cc9" x="135.752594" y="491.578875" style="stroke: #000000; stroke-width: 0.8"/>
      </g>
     </g>
     <g id="text_2">
      <text style="font-size: 10px; font-family: 'Helvetica', 'Arial', 'DejaVu Sans', 'Bitstream Vera Sans', 'Computer Modern Sans Serif', 'Lucida Grande', 'Verdana', 'Geneva', 'Lucid', 'Avant Garde', sans-serif; text-anchor: middle" x="135.752594" y="505.752312" transform="rotate(-0 135.752594 505.752312)">1.06</text>
     </g>
    </g>
    <g id="xtick_3">
     <g id="line2d_3">
      <g>
       <use xlink:href="#m5182574cc9" x="197.903869" y="491.578875" style="stroke: #000000; stroke-width: 0.8"/>
      </g>
     </g>
     <g id="text_3">
      <text style="font-size: 10px; font-family: 'Helvetica', 'Arial', 'DejaVu Sans', 'Bitstream Vera Sans', 'Computer Modern Sans Serif', 'Lucida Grande', 'Verdana', 'Geneva', 'Lucid', 'Avant Garde', sans-serif; text-anchor: middle" x="197.903869" y="505.752312" transform="rotate(-0 197.903869 505.752312)">1.08</text>
     </g>
    </g>
    <g id="xtick_4">
     <g id="line2d_4">
      <g>
       <use xlink:href="#m5182574cc9" x="260.055143" y="491.578875" style="stroke: #000000; stroke-width: 0.8"/>
      </g>
     </g>
     <g id="text_4">
      <text style="font-size: 10px; font-family: 'Helvetica', 'Arial', 'DejaVu Sans', 'Bitstream Vera Sans', 'Computer Modern Sans Serif', 'Lucida Grande', 'Verdana', 'Geneva', 'Lucid', 'Avant Garde', sans-serif; text-anchor: middle" x="260.055143" y="505.752312" transform="rotate(-0 260.055143 505.752312)">1.10</text>
     </g>
    </g>
    <g id="xtick_5">
     <g id="line2d_5">
      <g>
       <use xlink:href="#m5182574cc9" x="322.206418" y="491.578875" style="stroke: #000000; stroke-width: 0.8"/>
      </g>
     </g>
     <g id="text_5">
      <text style="font-size: 10px; font-family: 'Helvetica', 'Arial', 'DejaVu Sans', 'Bitstream Vera Sans', 'Computer Modern Sans Serif', 'Lucida Grande', 'Verdana', 'Geneva', 'Lucid', 'Avant Garde', sans-serif; text-anchor: middle" x="322.206418" y="505.752312" transform="rotate(-0 322.206418 505.752312)">1.12</text>
     </g>
    </g>
    <g id="xtick_6">
     <g id="line2d_6">
      <g>
       <use xlink:href="#m5182574cc9" x="384.357693" y="491.578875" style="stroke: #000000; stroke-width: 0.8"/>
      </g>
     </g>
     <g id="text_6">
      <text style="font-size: 10px; font-family: 'Helvetica', 'Arial', 'DejaVu Sans', 'Bitstream Vera Sans', 'Computer Modern Sans Serif', 'Lucida Grande', 'Verdana', 'Geneva', 'Lucid', 'Avant Garde', sans-serif; text-anchor: middle" x="384.357693" y="505.752312" transform="rotate(-0 384.357693 505.752312)">1.14</text>
     </g>
    </g>
    <g id="xtick_7">
     <g id="line2d_7">
      <g>
       <use xlink:href="#m5182574cc9" x="446.508968" y="491.578875" style="stroke: #000000; stroke-width: 0.8"/>
      </g>
     </g>
     <g id="text_7">
      <text style="font-size: 10px; font-family: 'Helvetica', 'Arial', 'DejaVu Sans', 'Bitstream Vera Sans', 'Computer Modern Sans Serif', 'Lucida Grande', 'Verdana', 'Geneva', 'Lucid', 'Avant Garde', sans-serif; text-anchor: middle" x="446.508968" y="505.752312" transform="rotate(-0 446.508968 505.752312)">1.16</text>
     </g>
    </g>
    <g id="xtick_8">
     <g id="line2d_8">
      <g>
       <use xlink:href="#m5182574cc9" x="508.660243" y="491.578875" style="stroke: #000000; stroke-width: 0.8"/>
      </g>
     </g>
     <g id="text_8">
      <text style="font-size: 10px; font-family: 'Helvetica', 'Arial', 'DejaVu Sans', 'Bitstream Vera Sans', 'Computer Modern Sans Serif', 'Lucida Grande', 'Verdana', 'Geneva', 'Lucid', 'Avant Garde', sans-serif; text-anchor: middle" x="508.660243" y="505.752312" transform="rotate(-0 508.660243 505.752312)">1.18</text>
     </g>
    </g>
    <g id="xtick_9">
     <g id="line2d_9">
      <g>
       <use xlink:href="#m5182574cc9" x="570.811518" y="491.578875" style="stroke: #000000; stroke-width: 0.8"/>
      </g>
     </g>
     <g id="text_9">
      <text style="font-size: 10px; font-family: 'Helvetica', 'Arial', 'DejaVu Sans', 'Bitstream Vera Sans', 'Computer Modern Sans Serif', 'Lucida Grande', 'Verdana', 'Geneva', 'Lucid', 'Avant Garde', sans-serif; text-anchor: middle" x="570.811518" y="505.752312" transform="rotate(-0 570.811518 505.752312)">1.20</text>
     </g>
    </g>
    <g id="text_10">
     <text style="font-size: 12px; font-family: 'Helvetica', 'Arial', 'DejaVu Sans', 'Bitstream Vera Sans', 'Computer Modern Sans Serif', 'Lucida Grande', 'Verdana', 'Geneva', 'Lucid', 'Avant Garde', sans-serif; text-anchor: middle" x="322.5975" y="520.585437" transform="rotate(-0 322.5975 520.585437)">H2B Intensity (log10)</text>
    </g>
   </g>
   <g id="matplotlib.axis_2">
    <g id="ytick_1">
     <g id="line2d_10">
      <defs>
       <path id="me814eb6609" d="M 0 0 
L -3.5 0 
" style="stroke: #000000; stroke-width: 0.8"/>
      </defs>
      <g>
       <use xlink:href="#me814eb6609" x="43.5975" y="472.742219" style="stroke: #000000; stroke-width: 0.8"/>
      </g>
     </g>
     <g id="text_11">
      <text style="font-size: 10px; font-family: 'Helvetica', 'Arial', 'DejaVu Sans', 'Bitstream Vera Sans', 'Computer Modern Sans Serif', 'Lucida Grande', 'Verdana', 'Geneva', 'Lucid', 'Avant Garde', sans-serif; text-anchor: end" x="36.5975" y="476.328937" transform="rotate(-0 36.5975 476.328937)">0.4</text>
     </g>
    </g>
    <g id="ytick_2">
     <g id="line2d_11">
      <g>
       <use xlink:href="#me814eb6609" x="43.5975" y="378.513281" style="stroke: #000000; stroke-width: 0.8"/>
      </g>
     </g>
     <g id="text_12">
      <text style="font-size: 10px; font-family: 'Helvetica', 'Arial', 'DejaVu Sans', 'Bitstream Vera Sans', 'Computer Modern Sans Serif', 'Lucida Grande', 'Verdana', 'Geneva', 'Lucid', 'Avant Garde', sans-serif; text-anchor: end" x="36.5975" y="382.1" transform="rotate(-0 36.5975 382.1)">0.5</text>
     </g>
    </g>
    <g id="ytick_3">
     <g id="line2d_12">
      <g>
       <use xlink:href="#me814eb6609" x="43.5975" y="284.284344" style="stroke: #000000; stroke-width: 0.8"/>
      </g>
     </g>
     <g id="text_13">
      <text style="font-size: 10px; font-family: 'Helvetica', 'Arial', 'DejaVu Sans', 'Bitstream Vera Sans', 'Computer Modern Sans Serif', 'Lucida Grande', 'Verdana', 'Geneva', 'Lucid', 'Avant Garde', sans-serif; text-anchor: end" x="36.5975" y="287.871063" transform="rotate(-0 36.5975 287.871063)">0.6</text>
     </g>
    </g>
    <g id="ytick_4">
     <g id="line2d_13">
      <g>
       <use xlink:href="#me814eb6609" x="43.5975" y="190.055407" style="stroke: #000000; stroke-width: 0.8"/>
      </g>
     </g>
     <g id="text_14">
      <text style="font-size: 10px; font-family: 'Helvetica', 'Arial', 'DejaVu Sans', 'Bitstream Vera Sans', 'Computer Modern Sans Serif', 'Lucida Grande', 'Verdana', 'Geneva', 'Lucid', 'Avant Garde', sans-serif; text-anchor: end" x="36.5975" y="193.642125" transform="rotate(-0 36.5975 193.642125)">0.7</text>
     </g>
    </g>
    <g id="ytick_5">
     <g id="line2d_14">
      <g>
       <use xlink:href="#me814eb6609" x="43.5975" y="95.826469" style="stroke: #000000; stroke-width: 0.8"/>
      </g>
     </g>
     <g id="text_15">
      <text style="font-size: 10px; font-family: 'Helvetica', 'Arial', 'DejaVu Sans', 'Bitstream Vera Sans', 'Computer Modern Sans Serif', 'Lucida Grande', 'Verdana', 'Geneva', 'Lucid', 'Avant Garde', sans-serif; text-anchor: end" x="36.5975" y="99.413188" transform="rotate(-0 36.5975 99.413188)">0.8</text>
     </g>
    </g>
    <g id="text_16">
     <text style="font-size: 12px; font-family: 'Helvetica', 'Arial', 'DejaVu Sans', 'Bitstream Vera Sans', 'Computer Modern Sans Serif', 'Lucida Grande', 'Verdana', 'Geneva', 'Lucid', 'Avant Garde', sans-serif; text-anchor: middle" x="16.0425" y="269.818875" transform="rotate(-90 16.0425 269.818875)">VSV Intensity (log10)</text>
    </g>
   </g>
   <g id="line2d_15">
    <path d="M 68.961136 90.66037 
L 74.085103 93.18008 
L 79.20907 95.69979 
L 84.333037 98.219499 
L 89.457004 100.739209 
L 94.580971 103.258919 
L 99.704938 105.778628 
L 104.828905 108.298338 
L 109.952872 110.818048 
L 115.076839 113.337757 
L 120.200806 115.857467 
L 125.324773 118.377177 
L 130.44874 120.896887 
L 135.572707 123.416596 
L 140.696674 125.936306 
L 145.82064 128.456016 
L 150.944607 130.975725 
L 156.068574 133.495435 
L 161.192541 136.015145 
L 166.316508 138.534854 
L 171.440475 141.054564 
L 176.564442 143.574274 
L 181.688409 146.093983 
L 186.812376 148.613693 
L 191.936343 151.133403 
L 197.06031 153.653113 
L 202.184277 156.172822 
L 207.308244 158.692532 
L 212.432211 161.212242 
L 217.556178 163.731951 
L 222.680145 166.251661 
L 227.804112 168.771371 
L 232.928079 171.29108 
L 238.052045 173.81079 
L 243.176012 176.3305 
L 248.299979 178.850209 
L 253.423946 181.369919 
L 258.547913 183.889629 
L 263.67188 186.409338 
L 268.795847 188.929048 
L 273.919814 191.448758 
L 279.043781 193.968468 
L 284.167748 196.488177 
L 289.291715 199.007887 
L 294.415682 201.527597 
L 299.539649 204.047306 
L 304.663616 206.567016 
L 309.787583 209.086726 
L 314.91155 211.606435 
L 320.035517 214.126145 
L 325.159483 216.645855 
L 330.28345 219.165564 
L 335.407417 221.685274 
L 340.531384 224.204984 
L 345.655351 226.724694 
L 350.779318 229.244403 
L 355.903285 231.764113 
L 361.027252 234.283823 
L 366.151219 236.803532 
L 371.275186 239.323242 
L 376.399153 241.842952 
L 381.52312 244.362661 
L 386.647087 246.882371 
L 391.771054 249.402081 
L 396.895021 251.92179 
L 402.018988 254.4415 
L 407.142955 256.96121 
L 412.266921 259.48092 
L 417.390888 262.000629 
L 422.514855 264.520339 
L 427.638822 267.040049 
L 432.762789 269.559758 
L 437.886756 272.079468 
L 443.010723 274.599178 
L 448.13469 277.118887 
L 453.258657 279.638597 
L 458.382624 282.158307 
L 463.506591 284.678016 
L 468.630558 287.197726 
L 473.754525 289.717436 
L 478.878492 292.237145 
L 484.002459 294.756855 
L 489.126426 297.276565 
L 494.250393 299.796275 
L 499.37436 302.315984 
L 504.498326 304.835694 
L 509.622293 307.355404 
L 514.74626 309.875113 
L 519.870227 312.394823 
L 524.994194 314.914533 
L 530.118161 317.434242 
L 535.242128 319.953952 
L 540.366095 322.473662 
L 545.490062 324.993371 
L 550.614029 327.513081 
L 555.737996 330.032791 
L 560.861963 332.552501 
L 565.98593 335.07221 
L 571.109897 337.59192 
L 576.233864 340.11163 
" clip-path="url(#p77e067c222)" style="fill: none; stroke: #000000; stroke-width: 2; stroke-linecap: square"/>
   </g>
   <g id="patch_3">
    <path d="M 43.5975 491.578875 
L 43.5975 48.058875 
" style="fill: none; stroke: #000000; stroke-width: 0.8; stroke-linejoin: miter; stroke-linecap: square"/>
   </g>
   <g id="patch_4">
    <path d="M 43.5975 491.578875 
L 601.5975 491.578875 
" style="fill: none; stroke: #000000; stroke-width: 0.8; stroke-linejoin: miter; stroke-linecap: square"/>
   </g>
   <g id="text_17">
    <text style="font-size: 9px; font-family: 'Helvetica', 'Arial', 'DejaVu Sans', 'Bitstream Vera Sans', 'Computer Modern Sans Serif', 'Lucida Grande', 'Verdana', 'Geneva', 'Lucid', 'Avant Garde', sans-serif; text-anchor: start" x="352.156039" y="159.800228" transform="rotate(-0 352.156039 159.800228)">A</text>
   </g>
   <g id="text_18">
    <text style="font-size: 9px; font-family: 'Helvetica', 'Arial', 'DejaVu Sans', 'Bitstream Vera Sans', 'Computer Modern Sans Serif', 'Lucida Grande', 'Verdana', 'Geneva', 'Lucid', 'Avant Garde', sans-serif; text-anchor: start" x="73.961136" y="194.210834" transform="rotate(-0 73.961136 194.210834)">AL</text>
   </g>
   <g id="text_19">
    <text style="font-size: 9px; font-family: 'Helvetica', 'Arial', 'DejaVu Sans', 'Bitstream Vera Sans', 'Computer Modern Sans Serif', 'Lucida Grande', 'Verdana', 'Geneva', 'Lucid', 'Avant Garde', sans-serif; text-anchor: start" x="237.296284" y="132.770635" transform="rotate(-0 237.296284 132.770635)">AM</text>
   </g>
   <g id="text_20">
    <text style="font-size: 9px; font-family: 'Helvetica', 'Arial', 'DejaVu Sans', 'Bitstream Vera Sans', 'Computer Modern Sans Serif', 'Lucida Grande', 'Verdana', 'Geneva', 'Lucid', 'Avant Garde', sans-serif; text-anchor: start" x="467.775142" y="399.587935" transform="rotate(-0 467.775142 399.587935)">LM</text>
   </g>
   <g id="text_21">
    <text style="font-size: 9px; font-family: 'Helvetica', 'Arial', 'DejaVu Sans', 'Bitstream Vera Sans', 'Computer Modern Sans Serif', 'Lucida Grande', 'Verdana', 'Geneva', 'Lucid', 'Avant Garde', sans-serif; text-anchor: start" x="581.233864" y="466.418875" transform="rotate(-0 581.233864 466.418875)">LI</text>
   </g>
   <g id="text_22">
    <text style="font-size: 9px; font-family: 'Helvetica', 'Arial', 'DejaVu Sans', 'Bitstream Vera Sans', 'Computer Modern Sans Serif', 'Lucida Grande', 'Verdana', 'Geneva', 'Lucid', 'Avant Garde', sans-serif; text-anchor: start" x="458.713828" y="63.218875" transform="rotate(-0 458.713828 63.218875)">PM</text>
   </g>
   <g id="text_23">
    <text style="font-size: 9px; font-family: 'Helvetica', 'Arial', 'DejaVu Sans', 'Bitstream Vera Sans', 'Computer Modern Sans Serif', 'Lucida Grande', 'Verdana', 'Geneva', 'Lucid', 'Avant Garde', sans-serif; text-anchor: start" x="258.052276" y="123.575573" transform="rotate(-0 258.052276 123.575573)">RL</text>
   </g>
   <g id="text_24">
    <text style="font-size: 12px; font-family: 'Helvetica', 'Arial', 'DejaVu Sans', 'Bitstream Vera Sans', 'Computer Modern Sans Serif', 'Lucida Grande', 'Verdana', 'Geneva', 'Lucid', 'Avant Garde', sans-serif" transform="translate(276.908438 15.808125)">p20 - All Regions</text>
    <text style="font-size: 12px; font-family: 'Helvetica', 'Arial', 'DejaVu Sans', 'Bitstream Vera Sans', 'Computer Modern Sans Serif', 'Lucida Grande', 'Verdana', 'Geneva', 'Lucid', 'Avant Garde', sans-serif" transform="translate(243.906563 29.074125)">Complete Pairs Analysis (log)</text>
    <text style="font-size: 12px; font-family: 'Helvetica', 'Arial', 'DejaVu Sans', 'Bitstream Vera Sans', 'Computer Modern Sans Serif', 'Lucida Grande', 'Verdana', 'Geneva', 'Lucid', 'Avant Garde', sans-serif" transform="translate(260.896875 42.058875)">r = -0.5546, r² = 0.3075</text>
   </g>
  </g>
 </g>
 <defs>
  <clipPath id="p77e067c222">
   <rect x="43.5975" y="48.058875" width="558" height="443.52"/>
  </clipPath>
 </defs>
</svg>
