<?xml version="1.0" encoding="utf-8" standalone="no"?>
<!DOCTYPE svg PUBLIC "-//W3C//DTD SVG 1.1//EN"
  "http://www.w3.org/Graphics/SVG/1.1/DTD/svg11.dtd">
<svg xmlns:xlink="http://www.w3.org/1999/xlink" width="608.7975pt" height="530.356062pt" viewBox="0 0 608.7975 530.356062" xmlns="http://www.w3.org/2000/svg" version="1.1">
 <metadata>
  <rdf:RDF xmlns:dc="http://purl.org/dc/elements/1.1/" xmlns:cc="http://creativecommons.org/ns#" xmlns:rdf="http://www.w3.org/1999/02/22-rdf-syntax-ns#">
   <cc:Work>
    <dc:type rdf:resource="http://purl.org/dc/dcmitype/StillImage"/>
    <dc:date>2026-02-24T12:29:46.934205</dc:date>
    <dc:format>image/svg+xml</dc:format>
    <dc:creator>
     <cc:Agent>
      <dc:title>Matplotlib v3.10.5, https://matplotlib.org/</dc:title>
     </cc:Agent>
    </dc:creator>
   </cc:Work>
  </rdf:RDF>
 </metadata>
 <defs>
  <style type="text/css">*{stroke-linejoin: round; stroke-linecap: butt}</style>
 </defs>
 <g id="figure_1">
  <g id="patch_1">
   <path d="M -0 530.356062 
L 608.7975 530.356062 
L 608.7975 0 
L -0 0 
z
" style="fill: #ffffff"/>
  </g>
  <g id="axes_1">
   <g id="patch_2">
    <path d="M 43.5975 491.4945 
L 601.5975 491.4945 
L 601.5975 47.9745 
L 43.5975 47.9745 
z
" style="fill: #ffffff"/>
   </g>
   <g id="PathCollection_1">
    <defs>
     <path id="C0_0_004408ebde" d="M 0 5 
C 1.326016 5 2.597899 4.473168 3.535534 3.535534 
C 4.473168 2.597899 5 1.326016 5 -0 
C 5 -1.326016 4.473168 -2.597899 3.535534 -3.535534 
C 2.597899 -4.473168 1.326016 -5 0 -5 
C -1.326016 -5 -2.597899 -4.473168 -3.535534 -3.535534 
C -4.473168 -2.597899 -5 -1.326016 -5 0 
C -5 1.326016 -4.473168 2.597899 -3.535534 3.535534 
C -2.597899 4.473168 -1.326016 5 0 5 
z
"/>
    </defs>
    <g clip-path="url(#pf33ea093de)">
     <use xlink:href="#C0_0_004408ebde" x="576.233864" y="262.151946" style="fill: #00008b"/>
    </g>
    <g clip-path="url(#pf33ea093de)">
     <use xlink:href="#C0_0_004408ebde" x="465.277015" y="471.3345" style="fill: #00008b"/>
    </g>
    <g clip-path="url(#pf33ea093de)">
     <use xlink:href="#C0_0_004408ebde" x="422.546838" y="373.339014" style="fill: #00008b"/>
    </g>
    <g clip-path="url(#pf33ea093de)">
     <use xlink:href="#C0_0_004408ebde" x="133.935868" y="221.67662" style="fill: #00008b"/>
    </g>
    <g clip-path="url(#pf33ea093de)">
     <use xlink:href="#C0_0_004408ebde" x="68.961136" y="137.856784" style="fill: #00008b"/>
    </g>
    <g clip-path="url(#pf33ea093de)">
     <use xlink:href="#C0_0_004408ebde" x="217.085906" y="398.661164" style="fill: #00008b"/>
    </g>
    <g clip-path="url(#pf33ea093de)">
     <use xlink:href="#C0_0_004408ebde" x="75.47248" y="68.1345" style="fill: #00008b"/>
    </g>
    <g clip-path="url(#pf33ea093de)">
     <use xlink:href="#C0_0_004408ebde" x="360.625366" y="291.348848" style="fill: #00008b"/>
    </g>
   </g>
   <g id="matplotlib.axis_1">
    <g id="xtick_1">
     <g id="line2d_1">
      <defs>
       <path id="m8c6445e8b2" d="M 0 0 
L 0 3.5 
" style="stroke: #000000; stroke-width: 0.8"/>
      </defs>
      <g>
       <use xlink:href="#m8c6445e8b2" x="151.603008" y="491.4945" style="stroke: #000000; stroke-width: 0.8"/>
      </g>
     </g>
     <g id="text_1">
      <text style="font-size: 10px; font-family: 'Helvetica', 'Arial', 'DejaVu Sans', 'Bitstream Vera Sans', 'Computer Modern Sans Serif', 'Lucida Grande', 'Verdana', 'Geneva', 'Lucid', 'Avant Garde', sans-serif; text-anchor: middle" x="151.603008" y="505.667937" transform="rotate(-0 151.603008 505.667937)">0.88</text>
     </g>
    </g>
    <g id="xtick_2">
     <g id="line2d_2">
      <g>
       <use xlink:href="#m8c6445e8b2" x="272.959303" y="491.4945" style="stroke: #000000; stroke-width: 0.8"/>
      </g>
     </g>
     <g id="text_2">
      <text style="font-size: 10px; font-family: 'Helvetica', 'Arial', 'DejaVu Sans', 'Bitstream Vera Sans', 'Computer Modern Sans Serif', 'Lucida Grande', 'Verdana', 'Geneva', 'Lucid', 'Avant Garde', sans-serif; text-anchor: middle" x="272.959303" y="505.667937" transform="rotate(-0 272.959303 505.667937)">0.89</text>
     </g>
    </g>
    <g id="xtick_3">
     <g id="line2d_3">
      <g>
       <use xlink:href="#m8c6445e8b2" x="394.315599" y="491.4945" style="stroke: #000000; stroke-width: 0.8"/>
      </g>
     </g>
     <g id="text_3">
      <text style="font-size: 10px; font-family: 'Helvetica', 'Arial', 'DejaVu Sans', 'Bitstream Vera Sans', 'Computer Modern Sans Serif', 'Lucida Grande', 'Verdana', 'Geneva', 'Lucid', 'Avant Garde', sans-serif; text-anchor: middle" x="394.315599" y="505.667937" transform="rotate(-0 394.315599 505.667937)">0.90</text>
     </g>
    </g>
    <g id="xtick_4">
     <g id="line2d_4">
      <g>
       <use xlink:href="#m8c6445e8b2" x="515.671895" y="491.4945" style="stroke: #000000; stroke-width: 0.8"/>
      </g>
     </g>
     <g id="text_4">
      <text style="font-size: 10px; font-family: 'Helvetica', 'Arial', 'DejaVu Sans', 'Bitstream Vera Sans', 'Computer Modern Sans Serif', 'Lucida Grande', 'Verdana', 'Geneva', 'Lucid', 'Avant Garde', sans-serif; text-anchor: middle" x="515.671895" y="505.667937" transform="rotate(-0 515.671895 505.667937)">0.91</text>
     </g>
    </g>
    <g id="text_5">
     <text style="font-size: 12px; font-family: 'Helvetica', 'Arial', 'DejaVu Sans', 'Bitstream Vera Sans', 'Computer Modern Sans Serif', 'Lucida Grande', 'Verdana', 'Geneva', 'Lucid', 'Avant Garde', sans-serif; text-anchor: middle" x="322.5975" y="520.501062" transform="rotate(-0 322.5975 520.501062)">H2B Intensity (log10)</text>
    </g>
   </g>
   <g id="matplotlib.axis_2">
    <g id="ytick_1">
     <g id="line2d_5">
      <defs>
       <path id="m8c616a2d94" d="M 0 0 
L -3.5 0 
" style="stroke: #000000; stroke-width: 0.8"/>
      </defs>
      <g>
       <use xlink:href="#m8c616a2d94" x="43.5975" y="470.286889" style="stroke: #000000; stroke-width: 0.8"/>
      </g>
     </g>
     <g id="text_6">
      <text style="font-size: 10px; font-family: 'Helvetica', 'Arial', 'DejaVu Sans', 'Bitstream Vera Sans', 'Computer Modern Sans Serif', 'Lucida Grande', 'Verdana', 'Geneva', 'Lucid', 'Avant Garde', sans-serif; text-anchor: end" x="36.5975" y="473.873607" transform="rotate(-0 36.5975 473.873607)">0.4</text>
     </g>
    </g>
    <g id="ytick_2">
     <g id="line2d_6">
      <g>
       <use xlink:href="#m8c616a2d94" x="43.5975" y="373.672619" style="stroke: #000000; stroke-width: 0.8"/>
      </g>
     </g>
     <g id="text_7">
      <text style="font-size: 10px; font-family: 'Helvetica', 'Arial', 'DejaVu Sans', 'Bitstream Vera Sans', 'Computer Modern Sans Serif', 'Lucida Grande', 'Verdana', 'Geneva', 'Lucid', 'Avant Garde', sans-serif; text-anchor: end" x="36.5975" y="377.259338" transform="rotate(-0 36.5975 377.259338)">0.6</text>
     </g>
    </g>
    <g id="ytick_3">
     <g id="line2d_7">
      <g>
       <use xlink:href="#m8c616a2d94" x="43.5975" y="277.058349" style="stroke: #000000; stroke-width: 0.8"/>
      </g>
     </g>
     <g id="text_8">
      <text style="font-size: 10px; font-family: 'Helvetica', 'Arial', 'DejaVu Sans', 'Bitstream Vera Sans', 'Computer Modern Sans Serif', 'Lucida Grande', 'Verdana', 'Geneva', 'Lucid', 'Avant Garde', sans-serif; text-anchor: end" x="36.5975" y="280.645068" transform="rotate(-0 36.5975 280.645068)">0.8</text>
     </g>
    </g>
    <g id="ytick_4">
     <g id="line2d_8">
      <g>
       <use xlink:href="#m8c616a2d94" x="43.5975" y="180.44408" style="stroke: #000000; stroke-width: 0.8"/>
      </g>
     </g>
     <g id="text_9">
      <text style="font-size: 10px; font-family: 'Helvetica', 'Arial', 'DejaVu Sans', 'Bitstream Vera Sans', 'Computer Modern Sans Serif', 'Lucida Grande', 'Verdana', 'Geneva', 'Lucid', 'Avant Garde', sans-serif; text-anchor: end" x="36.5975" y="184.030799" transform="rotate(-0 36.5975 184.030799)">1.0</text>
     </g>
    </g>
    <g id="ytick_5">
     <g id="line2d_9">
      <g>
       <use xlink:href="#m8c616a2d94" x="43.5975" y="83.82981" style="stroke: #000000; stroke-width: 0.8"/>
      </g>
     </g>
     <g id="text_10">
      <text style="font-size: 10px; font-family: 'Helvetica', 'Arial', 'DejaVu Sans', 'Bitstream Vera Sans', 'Computer Modern Sans Serif', 'Lucida Grande', 'Verdana', 'Geneva', 'Lucid', 'Avant Garde', sans-serif; text-anchor: end" x="36.5975" y="87.416529" transform="rotate(-0 36.5975 87.416529)">1.2</text>
     </g>
    </g>
    <g id="text_11">
     <text style="font-size: 12px; font-family: 'Helvetica', 'Arial', 'DejaVu Sans', 'Bitstream Vera Sans', 'Computer Modern Sans Serif', 'Lucida Grande', 'Verdana', 'Geneva', 'Lucid', 'Avant Garde', sans-serif; text-anchor: middle" x="16.0425" y="269.7345" transform="rotate(-90 16.0425 269.7345)">VSV Intensity (log10)</text>
    </g>
   </g>
   <g id="line2d_10">
    <path d="M 68.961136 176.86085 
L 74.085103 179.206661 
L 79.20907 181.552472 
L 84.333037 183.898284 
L 89.457004 186.244095 
L 94.580971 188.589906 
L 99.704938 190.935718 
L 104.828905 193.281529 
L 109.952872 195.62734 
L 115.076839 197.973152 
L 120.200806 200.318963 
L 125.324773 202.664774 
L 130.44874 205.010586 
L 135.572707 207.356397 
L 140.696674 209.702208 
L 145.82064 212.048019 
L 150.944607 214.393831 
L 156.068574 216.739642 
L 161.192541 219.085453 
L 166.316508 221.431265 
L 171.440475 223.777076 
L 176.564442 226.122887 
L 181.688409 228.468699 
L 186.812376 230.81451 
L 191.936343 233.160321 
L 197.06031 235.506133 
L 202.184277 237.851944 
L 207.308244 240.197755 
L 212.432211 242.543567 
L 217.556178 244.889378 
L 222.680145 247.235189 
L 227.804112 249.581001 
L 232.928079 251.926812 
L 238.052045 254.272623 
L 243.176012 256.618435 
L 248.299979 258.964246 
L 253.423946 261.310057 
L 258.547913 263.655869 
L 263.67188 266.00168 
L 268.795847 268.347491 
L 273.919814 270.693303 
L 279.043781 273.039114 
L 284.167748 275.384925 
L 289.291715 277.730737 
L 294.415682 280.076548 
L 299.539649 282.422359 
L 304.663616 284.768171 
L 309.787583 287.113982 
L 314.91155 289.459793 
L 320.035517 291.805605 
L 325.159483 294.151416 
L 330.28345 296.497227 
L 335.407417 298.843038 
L 340.531384 301.18885 
L 345.655351 303.534661 
L 350.779318 305.880472 
L 355.903285 308.226284 
L 361.027252 310.572095 
L 366.151219 312.917906 
L 371.275186 315.263718 
L 376.399153 317.609529 
L 381.52312 319.95534 
L 386.647087 322.301152 
L 391.771054 324.646963 
L 396.895021 326.992774 
L 402.018988 329.338586 
L 407.142955 331.684397 
L 412.266921 334.030208 
L 417.390888 336.37602 
L 422.514855 338.721831 
L 427.638822 341.067642 
L 432.762789 343.413454 
L 437.886756 345.759265 
L 443.010723 348.105076 
L 448.13469 350.450888 
L 453.258657 352.796699 
L 458.382624 355.14251 
L 463.506591 357.488322 
L 468.630558 359.834133 
L 473.754525 362.179944 
L 478.878492 364.525756 
L 484.002459 366.871567 
L 489.126426 369.217378 
L 494.250393 371.56319 
L 499.37436 373.909001 
L 504.498326 376.254812 
L 509.622293 378.600623 
L 514.74626 380.946435 
L 519.870227 383.292246 
L 524.994194 385.638057 
L 530.118161 387.983869 
L 535.242128 390.32968 
L 540.366095 392.675491 
L 545.490062 395.021303 
L 550.614029 397.367114 
L 555.737996 399.712925 
L 560.861963 402.058737 
L 565.98593 404.404548 
L 571.109897 406.750359 
L 576.233864 409.096171 
" clip-path="url(#pf33ea093de)" style="fill: none; stroke: #000000; stroke-width: 2; stroke-linecap: square"/>
   </g>
   <g id="patch_3">
    <path d="M 43.5975 491.4945 
L 43.5975 47.9745 
" style="fill: none; stroke: #000000; stroke-width: 0.8; stroke-linejoin: miter; stroke-linecap: square"/>
   </g>
   <g id="patch_4">
    <path d="M 43.5975 491.4945 
L 601.5975 491.4945 
" style="fill: none; stroke: #000000; stroke-width: 0.8; stroke-linejoin: miter; stroke-linecap: square"/>
   </g>
   <g id="text_12">
    <text style="font-size: 9px; font-family: 'Helvetica', 'Arial', 'DejaVu Sans', 'Bitstream Vera Sans', 'Computer Modern Sans Serif', 'Lucida Grande', 'Verdana', 'Geneva', 'Lucid', 'Avant Garde', sans-serif; text-anchor: start" x="581.233864" y="257.151946" transform="rotate(-0 581.233864 257.151946)">A</text>
   </g>
   <g id="text_13">
    <text style="font-size: 9px; font-family: 'Helvetica', 'Arial', 'DejaVu Sans', 'Bitstream Vera Sans', 'Computer Modern Sans Serif', 'Lucida Grande', 'Verdana', 'Geneva', 'Lucid', 'Avant Garde', sans-serif; text-anchor: start" x="470.277015" y="466.3345" transform="rotate(-0 470.277015 466.3345)">AL</text>
   </g>
   <g id="text_14">
    <text style="font-size: 9px; font-family: 'Helvetica', 'Arial', 'DejaVu Sans', 'Bitstream Vera Sans', 'Computer Modern Sans Serif', 'Lucida Grande', 'Verdana', 'Geneva', 'Lucid', 'Avant Garde', sans-serif; text-anchor: start" x="427.546838" y="368.339014" transform="rotate(-0 427.546838 368.339014)">AM</text>
   </g>
   <g id="text_15">
    <text style="font-size: 9px; font-family: 'Helvetica', 'Arial', 'DejaVu Sans', 'Bitstream Vera Sans', 'Computer Modern Sans Serif', 'Lucida Grande', 'Verdana', 'Geneva', 'Lucid', 'Avant Garde', sans-serif; text-anchor: start" x="138.935868" y="216.67662" transform="rotate(-0 138.935868 216.67662)">LM</text>
   </g>
   <g id="text_16">
    <text style="font-size: 9px; font-family: 'Helvetica', 'Arial', 'DejaVu Sans', 'Bitstream Vera Sans', 'Computer Modern Sans Serif', 'Lucida Grande', 'Verdana', 'Geneva', 'Lucid', 'Avant Garde', sans-serif; text-anchor: start" x="73.961136" y="132.856784" transform="rotate(-0 73.961136 132.856784)">LI</text>
   </g>
   <g id="text_17">
    <text style="font-size: 9px; font-family: 'Helvetica', 'Arial', 'DejaVu Sans', 'Bitstream Vera Sans', 'Computer Modern Sans Serif', 'Lucida Grande', 'Verdana', 'Geneva', 'Lucid', 'Avant Garde', sans-serif; text-anchor: start" x="222.085906" y="393.661164" transform="rotate(-0 222.085906 393.661164)">PM</text>
   </g>
   <g id="text_18">
    <text style="font-size: 9px; font-family: 'Helvetica', 'Arial', 'DejaVu Sans', 'Bitstream Vera Sans', 'Computer Modern Sans Serif', 'Lucida Grande', 'Verdana', 'Geneva', 'Lucid', 'Avant Garde', sans-serif; text-anchor: start" x="80.47248" y="63.1345" transform="rotate(-0 80.47248 63.1345)">POR</text>
   </g>
   <g id="text_19">
    <text style="font-size: 9px; font-family: 'Helvetica', 'Arial', 'DejaVu Sans', 'Bitstream Vera Sans', 'Computer Modern Sans Serif', 'Lucida Grande', 'Verdana', 'Geneva', 'Lucid', 'Avant Garde', sans-serif; text-anchor: start" x="365.625366" y="286.348848" transform="rotate(-0 365.625366 286.348848)">RL</text>
   </g>
   <g id="text_20">
    <text style="font-size: 12px; font-family: 'Helvetica', 'Arial', 'DejaVu Sans', 'Bitstream Vera Sans', 'Computer Modern Sans Serif', 'Lucida Grande', 'Verdana', 'Geneva', 'Lucid', 'Avant Garde', sans-serif" transform="translate(273.908438 15.83625)">adult - All Regions</text>
    <text style="font-size: 12px; font-family: 'Helvetica', 'Arial', 'DejaVu Sans', 'Bitstream Vera Sans', 'Computer Modern Sans Serif', 'Lucida Grande', 'Verdana', 'Geneva', 'Lucid', 'Avant Garde', sans-serif" transform="translate(229.558125 28.98975)">Averaged Replicates Analysis (log)</text>
    <text style="font-size: 12px; font-family: 'Helvetica', 'Arial', 'DejaVu Sans', 'Bitstream Vera Sans', 'Computer Modern Sans Serif', 'Lucida Grande', 'Verdana', 'Geneva', 'Lucid', 'Avant Garde', sans-serif" transform="translate(260.896875 41.9745)">r = -0.6514, r² = 0.4243</text>
   </g>
  </g>
 </g>
 <defs>
  <clipPath id="pf33ea093de">
   <rect x="43.5975" y="47.9745" width="558" height="443.52"/>
  </clipPath>
 </defs>
</svg>
