<?xml version="1.0" encoding="utf-8" standalone="no"?>
<!DOCTYPE svg PUBLIC "-//W3C//DTD SVG 1.1//EN"
  "http://www.w3.org/Graphics/SVG/1.1/DTD/svg11.dtd">
<svg xmlns:xlink="http://www.w3.org/1999/xlink" width="608.7975pt" height="530.327937pt" viewBox="0 0 608.7975 530.327937" xmlns="http://www.w3.org/2000/svg" version="1.1">
 <metadata>
  <rdf:RDF xmlns:dc="http://purl.org/dc/elements/1.1/" xmlns:cc="http://creativecommons.org/ns#" xmlns:rdf="http://www.w3.org/1999/02/22-rdf-syntax-ns#">
   <cc:Work>
    <dc:type rdf:resource="http://purl.org/dc/dcmitype/StillImage"/>
    <dc:date>2026-02-24T12:29:46.540082</dc:date>
    <dc:format>image/svg+xml</dc:format>
    <dc:creator>
     <cc:Agent>
      <dc:title>Matplotlib v3.10.5, https://matplotlib.org/</dc:title>
     </cc:Agent>
    </dc:creator>
   </cc:Work>
  </rdf:RDF>
 </metadata>
 <defs>
  <style type="text/css">*{stroke-linejoin: round; stroke-linecap: butt}</style>
 </defs>
 <g id="figure_1">
  <g id="patch_1">
   <path d="M -0 530.327937 
L 608.7975 530.327937 
L 608.7975 0 
L -0 0 
z
" style="fill: #ffffff"/>
  </g>
  <g id="axes_1">
   <g id="patch_2">
    <path d="M 43.5975 491.466375 
L 601.5975 491.466375 
L 601.5975 47.946375 
L 43.5975 47.946375 
z
" style="fill: #ffffff"/>
   </g>
   <g id="PathCollection_1">
    <defs>
     <path id="C0_0_4e824b315c" d="M 0 5 
C 1.326016 5 2.597899 4.473168 3.535534 3.535534 
C 4.473168 2.597899 5 1.326016 5 -0 
C 5 -1.326016 4.473168 -2.597899 3.535534 -3.535534 
C 2.597899 -4.473168 1.326016 -5 0 -5 
C -1.326016 -5 -2.597899 -4.473168 -3.535534 -3.535534 
C -4.473168 -2.597899 -5 -1.326016 -5 0 
C -5 1.326016 -4.473168 2.597899 -3.535534 3.535534 
C -2.597899 4.473168 -1.326016 5 0 5 
z
"/>
    </defs>
    <g clip-path="url(#p49417aaf58)">
     <use xlink:href="#C0_0_4e824b315c" x="576.233864" y="143.022485" style="fill: #00008b"/>
    </g>
    <g clip-path="url(#p49417aaf58)">
     <use xlink:href="#C0_0_4e824b315c" x="194.613047" y="228.114277" style="fill: #00008b"/>
    </g>
    <g clip-path="url(#p49417aaf58)">
     <use xlink:href="#C0_0_4e824b315c" x="364.831882" y="180.626471" style="fill: #00008b"/>
    </g>
    <g clip-path="url(#p49417aaf58)">
     <use xlink:href="#C0_0_4e824b315c" x="126.200437" y="381.173977" style="fill: #00008b"/>
    </g>
    <g clip-path="url(#p49417aaf58)">
     <use xlink:href="#C0_0_4e824b315c" x="68.961136" y="451.999342" style="fill: #00008b"/>
    </g>
    <g clip-path="url(#p49417aaf58)">
     <use xlink:href="#C0_0_4e824b315c" x="206.506228" y="232.029903" style="fill: #00008b"/>
    </g>
    <g clip-path="url(#p49417aaf58)">
     <use xlink:href="#C0_0_4e824b315c" x="101.165869" y="471.306375" style="fill: #00008b"/>
    </g>
    <g clip-path="url(#p49417aaf58)">
     <use xlink:href="#C0_0_4e824b315c" x="323.598509" y="181.811736" style="fill: #00008b"/>
    </g>
   </g>
   <g id="matplotlib.axis_1">
    <g id="xtick_1">
     <g id="line2d_1">
      <defs>
       <path id="m2a0c474193" d="M 0 0 
L 0 3.5 
" style="stroke: #000000; stroke-width: 0.8"/>
      </defs>
      <g>
       <use xlink:href="#m2a0c474193" x="64.370089" y="491.466375" style="stroke: #000000; stroke-width: 0.8"/>
      </g>
     </g>
     <g id="text_1">
      <text style="font-size: 10px; font-family: 'Helvetica', 'Arial', 'DejaVu Sans', 'Bitstream Vera Sans', 'Computer Modern Sans Serif', 'Lucida Grande', 'Verdana', 'Geneva', 'Lucid', 'Avant Garde', sans-serif; text-anchor: middle" x="64.370089" y="505.639812" transform="rotate(-0 64.370089 505.639812)">0.875</text>
     </g>
    </g>
    <g id="xtick_2">
     <g id="line2d_2">
      <g>
       <use xlink:href="#m2a0c474193" x="136.938238" y="491.466375" style="stroke: #000000; stroke-width: 0.8"/>
      </g>
     </g>
     <g id="text_2">
      <text style="font-size: 10px; font-family: 'Helvetica', 'Arial', 'DejaVu Sans', 'Bitstream Vera Sans', 'Computer Modern Sans Serif', 'Lucida Grande', 'Verdana', 'Geneva', 'Lucid', 'Avant Garde', sans-serif; text-anchor: middle" x="136.938238" y="505.639812" transform="rotate(-0 136.938238 505.639812)">0.900</text>
     </g>
    </g>
    <g id="xtick_3">
     <g id="line2d_3">
      <g>
       <use xlink:href="#m2a0c474193" x="209.506387" y="491.466375" style="stroke: #000000; stroke-width: 0.8"/>
      </g>
     </g>
     <g id="text_3">
      <text style="font-size: 10px; font-family: 'Helvetica', 'Arial', 'DejaVu Sans', 'Bitstream Vera Sans', 'Computer Modern Sans Serif', 'Lucida Grande', 'Verdana', 'Geneva', 'Lucid', 'Avant Garde', sans-serif; text-anchor: middle" x="209.506387" y="505.639812" transform="rotate(-0 209.506387 505.639812)">0.925</text>
     </g>
    </g>
    <g id="xtick_4">
     <g id="line2d_4">
      <g>
       <use xlink:href="#m2a0c474193" x="282.074536" y="491.466375" style="stroke: #000000; stroke-width: 0.8"/>
      </g>
     </g>
     <g id="text_4">
      <text style="font-size: 10px; font-family: 'Helvetica', 'Arial', 'DejaVu Sans', 'Bitstream Vera Sans', 'Computer Modern Sans Serif', 'Lucida Grande', 'Verdana', 'Geneva', 'Lucid', 'Avant Garde', sans-serif; text-anchor: middle" x="282.074536" y="505.639812" transform="rotate(-0 282.074536 505.639812)">0.950</text>
     </g>
    </g>
    <g id="xtick_5">
     <g id="line2d_5">
      <g>
       <use xlink:href="#m2a0c474193" x="354.642685" y="491.466375" style="stroke: #000000; stroke-width: 0.8"/>
      </g>
     </g>
     <g id="text_5">
      <text style="font-size: 10px; font-family: 'Helvetica', 'Arial', 'DejaVu Sans', 'Bitstream Vera Sans', 'Computer Modern Sans Serif', 'Lucida Grande', 'Verdana', 'Geneva', 'Lucid', 'Avant Garde', sans-serif; text-anchor: middle" x="354.642685" y="505.639812" transform="rotate(-0 354.642685 505.639812)">0.975</text>
     </g>
    </g>
    <g id="xtick_6">
     <g id="line2d_6">
      <g>
       <use xlink:href="#m2a0c474193" x="427.210834" y="491.466375" style="stroke: #000000; stroke-width: 0.8"/>
      </g>
     </g>
     <g id="text_6">
      <text style="font-size: 10px; font-family: 'Helvetica', 'Arial', 'DejaVu Sans', 'Bitstream Vera Sans', 'Computer Modern Sans Serif', 'Lucida Grande', 'Verdana', 'Geneva', 'Lucid', 'Avant Garde', sans-serif; text-anchor: middle" x="427.210834" y="505.639812" transform="rotate(-0 427.210834 505.639812)">1.000</text>
     </g>
    </g>
    <g id="xtick_7">
     <g id="line2d_7">
      <g>
       <use xlink:href="#m2a0c474193" x="499.778983" y="491.466375" style="stroke: #000000; stroke-width: 0.8"/>
      </g>
     </g>
     <g id="text_7">
      <text style="font-size: 10px; font-family: 'Helvetica', 'Arial', 'DejaVu Sans', 'Bitstream Vera Sans', 'Computer Modern Sans Serif', 'Lucida Grande', 'Verdana', 'Geneva', 'Lucid', 'Avant Garde', sans-serif; text-anchor: middle" x="499.778983" y="505.639812" transform="rotate(-0 499.778983 505.639812)">1.025</text>
     </g>
    </g>
    <g id="xtick_8">
     <g id="line2d_8">
      <g>
       <use xlink:href="#m2a0c474193" x="572.347132" y="491.466375" style="stroke: #000000; stroke-width: 0.8"/>
      </g>
     </g>
     <g id="text_8">
      <text style="font-size: 10px; font-family: 'Helvetica', 'Arial', 'DejaVu Sans', 'Bitstream Vera Sans', 'Computer Modern Sans Serif', 'Lucida Grande', 'Verdana', 'Geneva', 'Lucid', 'Avant Garde', sans-serif; text-anchor: middle" x="572.347132" y="505.639812" transform="rotate(-0 572.347132 505.639812)">1.050</text>
     </g>
    </g>
    <g id="text_9">
     <text style="font-size: 12px; font-family: 'Helvetica', 'Arial', 'DejaVu Sans', 'Bitstream Vera Sans', 'Computer Modern Sans Serif', 'Lucida Grande', 'Verdana', 'Geneva', 'Lucid', 'Avant Garde', sans-serif; text-anchor: middle" x="322.5975" y="520.472937" transform="rotate(-0 322.5975 520.472937)">H2B Intensity (log10)</text>
    </g>
   </g>
   <g id="matplotlib.axis_2">
    <g id="ytick_1">
     <g id="line2d_9">
      <defs>
       <path id="m1dace9f596" d="M 0 0 
L -3.5 0 
" style="stroke: #000000; stroke-width: 0.8"/>
      </defs>
      <g>
       <use xlink:href="#m1dace9f596" x="43.5975" y="402.579188" style="stroke: #000000; stroke-width: 0.8"/>
      </g>
     </g>
     <g id="text_10">
      <text style="font-size: 10px; font-family: 'Helvetica', 'Arial', 'DejaVu Sans', 'Bitstream Vera Sans', 'Computer Modern Sans Serif', 'Lucida Grande', 'Verdana', 'Geneva', 'Lucid', 'Avant Garde', sans-serif; text-anchor: end" x="36.5975" y="406.165907" transform="rotate(-0 36.5975 406.165907)">0.3</text>
     </g>
    </g>
    <g id="ytick_2">
     <g id="line2d_10">
      <g>
       <use xlink:href="#m1dace9f596" x="43.5975" y="309.321827" style="stroke: #000000; stroke-width: 0.8"/>
      </g>
     </g>
     <g id="text_11">
      <text style="font-size: 10px; font-family: 'Helvetica', 'Arial', 'DejaVu Sans', 'Bitstream Vera Sans', 'Computer Modern Sans Serif', 'Lucida Grande', 'Verdana', 'Geneva', 'Lucid', 'Avant Garde', sans-serif; text-anchor: end" x="36.5975" y="312.908546" transform="rotate(-0 36.5975 312.908546)">0.4</text>
     </g>
    </g>
    <g id="ytick_3">
     <g id="line2d_11">
      <g>
       <use xlink:href="#m1dace9f596" x="43.5975" y="216.064467" style="stroke: #000000; stroke-width: 0.8"/>
      </g>
     </g>
     <g id="text_12">
      <text style="font-size: 10px; font-family: 'Helvetica', 'Arial', 'DejaVu Sans', 'Bitstream Vera Sans', 'Computer Modern Sans Serif', 'Lucida Grande', 'Verdana', 'Geneva', 'Lucid', 'Avant Garde', sans-serif; text-anchor: end" x="36.5975" y="219.651185" transform="rotate(-0 36.5975 219.651185)">0.5</text>
     </g>
    </g>
    <g id="ytick_4">
     <g id="line2d_12">
      <g>
       <use xlink:href="#m1dace9f596" x="43.5975" y="122.807106" style="stroke: #000000; stroke-width: 0.8"/>
      </g>
     </g>
     <g id="text_13">
      <text style="font-size: 10px; font-family: 'Helvetica', 'Arial', 'DejaVu Sans', 'Bitstream Vera Sans', 'Computer Modern Sans Serif', 'Lucida Grande', 'Verdana', 'Geneva', 'Lucid', 'Avant Garde', sans-serif; text-anchor: end" x="36.5975" y="126.393825" transform="rotate(-0 36.5975 126.393825)">0.6</text>
     </g>
    </g>
    <g id="text_14">
     <text style="font-size: 12px; font-family: 'Helvetica', 'Arial', 'DejaVu Sans', 'Bitstream Vera Sans', 'Computer Modern Sans Serif', 'Lucida Grande', 'Verdana', 'Geneva', 'Lucid', 'Avant Garde', sans-serif; text-anchor: middle" x="16.0425" y="269.706375" transform="rotate(-90 16.0425 269.706375)">VSV Intensity (log10)</text>
    </g>
   </g>
   <g id="line2d_13">
    <path d="M 68.961136 398.636316 
L 74.085103 395.29763 
L 79.20907 391.958944 
L 84.333037 388.620257 
L 89.457004 385.281571 
L 94.580971 381.942885 
L 99.704938 378.604199 
L 104.828905 375.265512 
L 109.952872 371.926826 
L 115.076839 368.58814 
L 120.200806 365.249454 
L 125.324773 361.910767 
L 130.44874 358.572081 
L 135.572707 355.233395 
L 140.696674 351.894708 
L 145.82064 348.556022 
L 150.944607 345.217336 
L 156.068574 341.87865 
L 161.192541 338.539963 
L 166.316508 335.201277 
L 171.440475 331.862591 
L 176.564442 328.523905 
L 181.688409 325.185218 
L 186.812376 321.846532 
L 191.936343 318.507846 
L 197.06031 315.169159 
L 202.184277 311.830473 
L 207.308244 308.491787 
L 212.432211 305.153101 
L 217.556178 301.814414 
L 222.680145 298.475728 
L 227.804112 295.137042 
L 232.928079 291.798355 
L 238.052045 288.459669 
L 243.176012 285.120983 
L 248.299979 281.782297 
L 253.423946 278.44361 
L 258.547913 275.104924 
L 263.67188 271.766238 
L 268.795847 268.427552 
L 273.919814 265.088865 
L 279.043781 261.750179 
L 284.167748 258.411493 
L 289.291715 255.072806 
L 294.415682 251.73412 
L 299.539649 248.395434 
L 304.663616 245.056748 
L 309.787583 241.718061 
L 314.91155 238.379375 
L 320.035517 235.040689 
L 325.159483 231.702003 
L 330.28345 228.363316 
L 335.407417 225.02463 
L 340.531384 221.685944 
L 345.655351 218.347257 
L 350.779318 215.008571 
L 355.903285 211.669885 
L 361.027252 208.331199 
L 366.151219 204.992512 
L 371.275186 201.653826 
L 376.399153 198.31514 
L 381.52312 194.976453 
L 386.647087 191.637767 
L 391.771054 188.299081 
L 396.895021 184.960395 
L 402.018988 181.621708 
L 407.142955 178.283022 
L 412.266921 174.944336 
L 417.390888 171.60565 
L 422.514855 168.266963 
L 427.638822 164.928277 
L 432.762789 161.589591 
L 437.886756 158.250904 
L 443.010723 154.912218 
L 448.13469 151.573532 
L 453.258657 148.234846 
L 458.382624 144.896159 
L 463.506591 141.557473 
L 468.630558 138.218787 
L 473.754525 134.880101 
L 478.878492 131.541414 
L 484.002459 128.202728 
L 489.126426 124.864042 
L 494.250393 121.525355 
L 499.37436 118.186669 
L 504.498326 114.847983 
L 509.622293 111.509297 
L 514.74626 108.17061 
L 519.870227 104.831924 
L 524.994194 101.493238 
L 530.118161 98.154551 
L 535.242128 94.815865 
L 540.366095 91.477179 
L 545.490062 88.138493 
L 550.614029 84.799806 
L 555.737996 81.46112 
L 560.861963 78.122434 
L 565.98593 74.783748 
L 571.109897 71.445061 
L 576.233864 68.106375 
" clip-path="url(#p49417aaf58)" style="fill: none; stroke: #000000; stroke-width: 2; stroke-linecap: square"/>
   </g>
   <g id="patch_3">
    <path d="M 43.5975 491.466375 
L 43.5975 47.946375 
" style="fill: none; stroke: #000000; stroke-width: 0.8; stroke-linejoin: miter; stroke-linecap: square"/>
   </g>
   <g id="patch_4">
    <path d="M 43.5975 491.466375 
L 601.5975 491.466375 
" style="fill: none; stroke: #000000; stroke-width: 0.8; stroke-linejoin: miter; stroke-linecap: square"/>
   </g>
   <g id="text_15">
    <text style="font-size: 9px; font-family: 'Helvetica', 'Arial', 'DejaVu Sans', 'Bitstream Vera Sans', 'Computer Modern Sans Serif', 'Lucida Grande', 'Verdana', 'Geneva', 'Lucid', 'Avant Garde', sans-serif; text-anchor: start" x="581.233864" y="138.022485" transform="rotate(-0 581.233864 138.022485)">A</text>
   </g>
   <g id="text_16">
    <text style="font-size: 9px; font-family: 'Helvetica', 'Arial', 'DejaVu Sans', 'Bitstream Vera Sans', 'Computer Modern Sans Serif', 'Lucida Grande', 'Verdana', 'Geneva', 'Lucid', 'Avant Garde', sans-serif; text-anchor: start" x="199.613047" y="223.114277" transform="rotate(-0 199.613047 223.114277)">AL</text>
   </g>
   <g id="text_17">
    <text style="font-size: 9px; font-family: 'Helvetica', 'Arial', 'DejaVu Sans', 'Bitstream Vera Sans', 'Computer Modern Sans Serif', 'Lucida Grande', 'Verdana', 'Geneva', 'Lucid', 'Avant Garde', sans-serif; text-anchor: start" x="369.831882" y="175.626471" transform="rotate(-0 369.831882 175.626471)">AM</text>
   </g>
   <g id="text_18">
    <text style="font-size: 9px; font-family: 'Helvetica', 'Arial', 'DejaVu Sans', 'Bitstream Vera Sans', 'Computer Modern Sans Serif', 'Lucida Grande', 'Verdana', 'Geneva', 'Lucid', 'Avant Garde', sans-serif; text-anchor: start" x="131.200437" y="376.173977" transform="rotate(-0 131.200437 376.173977)">LM</text>
   </g>
   <g id="text_19">
    <text style="font-size: 9px; font-family: 'Helvetica', 'Arial', 'DejaVu Sans', 'Bitstream Vera Sans', 'Computer Modern Sans Serif', 'Lucida Grande', 'Verdana', 'Geneva', 'Lucid', 'Avant Garde', sans-serif; text-anchor: start" x="73.961136" y="446.999342" transform="rotate(-0 73.961136 446.999342)">LI</text>
   </g>
   <g id="text_20">
    <text style="font-size: 9px; font-family: 'Helvetica', 'Arial', 'DejaVu Sans', 'Bitstream Vera Sans', 'Computer Modern Sans Serif', 'Lucida Grande', 'Verdana', 'Geneva', 'Lucid', 'Avant Garde', sans-serif; text-anchor: start" x="211.506228" y="227.029903" transform="rotate(-0 211.506228 227.029903)">PM</text>
   </g>
   <g id="text_21">
    <text style="font-size: 9px; font-family: 'Helvetica', 'Arial', 'DejaVu Sans', 'Bitstream Vera Sans', 'Computer Modern Sans Serif', 'Lucida Grande', 'Verdana', 'Geneva', 'Lucid', 'Avant Garde', sans-serif; text-anchor: start" x="106.165869" y="466.306375" transform="rotate(-0 106.165869 466.306375)">POR</text>
   </g>
   <g id="text_22">
    <text style="font-size: 9px; font-family: 'Helvetica', 'Arial', 'DejaVu Sans', 'Bitstream Vera Sans', 'Computer Modern Sans Serif', 'Lucida Grande', 'Verdana', 'Geneva', 'Lucid', 'Avant Garde', sans-serif; text-anchor: start" x="328.598509" y="176.811736" transform="rotate(-0 328.598509 176.811736)">RL</text>
   </g>
   <g id="text_23">
    <text style="font-size: 12px; font-family: 'Helvetica', 'Arial', 'DejaVu Sans', 'Bitstream Vera Sans', 'Computer Modern Sans Serif', 'Lucida Grande', 'Verdana', 'Geneva', 'Lucid', 'Avant Garde', sans-serif" transform="translate(276.908438 15.808125)">p12 - All Regions</text>
    <text style="font-size: 12px; font-family: 'Helvetica', 'Arial', 'DejaVu Sans', 'Bitstream Vera Sans', 'Computer Modern Sans Serif', 'Lucida Grande', 'Verdana', 'Geneva', 'Lucid', 'Avant Garde', sans-serif" transform="translate(229.558125 28.961625)">Averaged Replicates Analysis (log)</text>
    <text style="font-size: 12px; font-family: 'Helvetica', 'Arial', 'DejaVu Sans', 'Bitstream Vera Sans', 'Computer Modern Sans Serif', 'Lucida Grande', 'Verdana', 'Geneva', 'Lucid', 'Avant Garde', sans-serif" transform="translate(262.894688 41.946375)">r = 0.8428, r² = 0.7103</text>
   </g>
  </g>
 </g>
 <defs>
  <clipPath id="p49417aaf58">
   <rect x="43.5975" y="47.946375" width="558" height="443.52"/>
  </clipPath>
 </defs>
</svg>
