<?xml version="1.0" encoding="utf-8" standalone="no"?>
<!DOCTYPE svg PUBLIC "-//W3C//DTD SVG 1.1//EN"
  "http://www.w3.org/Graphics/SVG/1.1/DTD/svg11.dtd">
<svg xmlns:xlink="http://www.w3.org/1999/xlink" width="614.555625pt" height="530.245437pt" viewBox="0 0 614.555625 530.245437" xmlns="http://www.w3.org/2000/svg" version="1.1">
 <metadata>
  <rdf:RDF xmlns:dc="http://purl.org/dc/elements/1.1/" xmlns:cc="http://creativecommons.org/ns#" xmlns:rdf="http://www.w3.org/1999/02/22-rdf-syntax-ns#">
   <cc:Work>
    <dc:type rdf:resource="http://purl.org/dc/dcmitype/StillImage"/>
    <dc:date>2026-02-24T12:30:04.780327</dc:date>
    <dc:format>image/svg+xml</dc:format>
    <dc:creator>
     <cc:Agent>
      <dc:title>Matplotlib v3.10.5, https://matplotlib.org/</dc:title>
     </cc:Agent>
    </dc:creator>
   </cc:Work>
  </rdf:RDF>
 </metadata>
 <defs>
  <style type="text/css">*{stroke-linejoin: round; stroke-linecap: butt}</style>
 </defs>
 <g id="figure_1">
  <g id="patch_1">
   <path d="M 0 530.245437 
L 614.555625 530.245437 
L 614.555625 0 
L 0 0 
z
" style="fill: #ffffff"/>
  </g>
  <g id="axes_1">
   <g id="patch_2">
    <path d="M 49.355625 491.466375 
L 607.355625 491.466375 
L 607.355625 47.946375 
L 49.355625 47.946375 
z
" style="fill: #ffffff"/>
   </g>
   <g id="PathCollection_1">
    <defs>
     <path id="C0_0_05eb90c162" d="M 0 5 
C 1.326016 5 2.597899 4.473168 3.535534 3.535534 
C 4.473168 2.597899 5 1.326016 5 -0 
C 5 -1.326016 4.473168 -2.597899 3.535534 -3.535534 
C 2.597899 -4.473168 1.326016 -5 0 -5 
C -1.326016 -5 -2.597899 -4.473168 -3.535534 -3.535534 
C -4.473168 -2.597899 -5 -1.326016 -5 0 
C -5 1.326016 -4.473168 2.597899 -3.535534 3.535534 
C -2.597899 4.473168 -1.326016 5 0 5 
z
"/>
    </defs>
    <g clip-path="url(#pf108066848)">
     <use xlink:href="#C0_0_05eb90c162" x="581.991989" y="130.137144" style="fill: #00008b"/>
    </g>
    <g clip-path="url(#pf108066848)">
     <use xlink:href="#C0_0_05eb90c162" x="243.81017" y="192.167913" style="fill: #00008b"/>
    </g>
    <g clip-path="url(#pf108066848)">
     <use xlink:href="#C0_0_05eb90c162" x="243.81017" y="130.137144" style="fill: #00008b"/>
    </g>
    <g clip-path="url(#pf108066848)">
     <use xlink:href="#C0_0_05eb90c162" x="345.264716" y="471.306375" style="fill: #00008b"/>
    </g>
    <g clip-path="url(#pf108066848)">
     <use xlink:href="#C0_0_05eb90c162" x="243.81017" y="316.229452" style="fill: #00008b"/>
    </g>
    <g clip-path="url(#pf108066848)">
     <use xlink:href="#C0_0_05eb90c162" x="243.81017" y="68.106375" style="fill: #00008b"/>
    </g>
    <g clip-path="url(#pf108066848)">
     <use xlink:href="#C0_0_05eb90c162" x="243.81017" y="130.137144" style="fill: #00008b"/>
    </g>
    <g clip-path="url(#pf108066848)">
     <use xlink:href="#C0_0_05eb90c162" x="74.719261" y="192.167913" style="fill: #00008b"/>
    </g>
   </g>
   <g id="matplotlib.axis_1">
    <g id="xtick_1">
     <g id="line2d_1">
      <defs>
       <path id="m7095d66283" d="M 0 0 
L 0 3.5 
" style="stroke: #000000; stroke-width: 0.8"/>
      </defs>
      <g>
       <use xlink:href="#m7095d66283" x="121.96733" y="491.466375" style="stroke: #000000; stroke-width: 0.8"/>
      </g>
     </g>
     <g id="text_1">
      <text style="font-size: 10px; font-family: 'Helvetica', 'Arial', 'DejaVu Sans', 'Bitstream Vera Sans', 'Computer Modern Sans Serif', 'Lucida Grande', 'Verdana', 'Geneva', 'Lucid', 'Avant Garde', sans-serif; text-anchor: middle" x="121.96733" y="505.639812" transform="rotate(-0 121.96733 505.639812)">−0.5</text>
     </g>
    </g>
    <g id="xtick_2">
     <g id="line2d_2">
      <g>
       <use xlink:href="#m7095d66283" x="243.81017" y="491.466375" style="stroke: #000000; stroke-width: 0.8"/>
      </g>
     </g>
     <g id="text_2">
      <text style="font-size: 10px; font-family: 'Helvetica', 'Arial', 'DejaVu Sans', 'Bitstream Vera Sans', 'Computer Modern Sans Serif', 'Lucida Grande', 'Verdana', 'Geneva', 'Lucid', 'Avant Garde', sans-serif; text-anchor: middle" x="243.81017" y="505.639812" transform="rotate(-0 243.81017 505.639812)">0.0</text>
     </g>
    </g>
    <g id="xtick_3">
     <g id="line2d_3">
      <g>
       <use xlink:href="#m7095d66283" x="365.653011" y="491.466375" style="stroke: #000000; stroke-width: 0.8"/>
      </g>
     </g>
     <g id="text_3">
      <text style="font-size: 10px; font-family: 'Helvetica', 'Arial', 'DejaVu Sans', 'Bitstream Vera Sans', 'Computer Modern Sans Serif', 'Lucida Grande', 'Verdana', 'Geneva', 'Lucid', 'Avant Garde', sans-serif; text-anchor: middle" x="365.653011" y="505.639812" transform="rotate(-0 365.653011 505.639812)">0.5</text>
     </g>
    </g>
    <g id="xtick_4">
     <g id="line2d_4">
      <g>
       <use xlink:href="#m7095d66283" x="487.495852" y="491.466375" style="stroke: #000000; stroke-width: 0.8"/>
      </g>
     </g>
     <g id="text_4">
      <text style="font-size: 10px; font-family: 'Helvetica', 'Arial', 'DejaVu Sans', 'Bitstream Vera Sans', 'Computer Modern Sans Serif', 'Lucida Grande', 'Verdana', 'Geneva', 'Lucid', 'Avant Garde', sans-serif; text-anchor: middle" x="487.495852" y="505.639812" transform="rotate(-0 487.495852 505.639812)">1.0</text>
     </g>
    </g>
    <g id="text_5">
     <text style="font-size: 12px; font-family: 'Helvetica', 'Arial', 'DejaVu Sans', 'Bitstream Vera Sans', 'Computer Modern Sans Serif', 'Lucida Grande', 'Verdana', 'Geneva', 'Lucid', 'Avant Garde', sans-serif; text-anchor: middle" x="328.355625" y="520.472937" transform="rotate(-0 328.355625 520.472937)">H2B Intensity (Robust Normalized)</text>
    </g>
    <g id="text_6">
     <text style="font-size: 10px; font-family: 'Helvetica', 'Arial', 'DejaVu Sans', 'Bitstream Vera Sans', 'Computer Modern Sans Serif', 'Lucida Grande', 'Verdana', 'Geneva', 'Lucid', 'Avant Garde', sans-serif; text-anchor: end" x="607.355625" y="517.897625" transform="rotate(-0 607.355625 517.897625)">1e−16</text>
    </g>
   </g>
   <g id="matplotlib.axis_2">
    <g id="ytick_1">
     <g id="line2d_5">
      <defs>
       <path id="mf325ab7d8f" d="M 0 0 
L -3.5 0 
" style="stroke: #000000; stroke-width: 0.8"/>
      </defs>
      <g>
       <use xlink:href="#mf325ab7d8f" x="49.355625" y="471.529663" style="stroke: #000000; stroke-width: 0.8"/>
      </g>
     </g>
     <g id="text_7">
      <text style="font-size: 10px; font-family: 'Helvetica', 'Arial', 'DejaVu Sans', 'Bitstream Vera Sans', 'Computer Modern Sans Serif', 'Lucida Grande', 'Verdana', 'Geneva', 'Lucid', 'Avant Garde', sans-serif; text-anchor: end" x="42.355625" y="475.116381" transform="rotate(-0 42.355625 475.116381)">−2.5</text>
     </g>
    </g>
    <g id="ytick_2">
     <g id="line2d_6">
      <g>
       <use xlink:href="#mf325ab7d8f" x="49.355625" y="415.657313" style="stroke: #000000; stroke-width: 0.8"/>
      </g>
     </g>
     <g id="text_8">
      <text style="font-size: 10px; font-family: 'Helvetica', 'Arial', 'DejaVu Sans', 'Bitstream Vera Sans', 'Computer Modern Sans Serif', 'Lucida Grande', 'Verdana', 'Geneva', 'Lucid', 'Avant Garde', sans-serif; text-anchor: end" x="42.355625" y="419.244032" transform="rotate(-0 42.355625 419.244032)">−2.0</text>
     </g>
    </g>
    <g id="ytick_3">
     <g id="line2d_7">
      <g>
       <use xlink:href="#mf325ab7d8f" x="49.355625" y="359.784963" style="stroke: #000000; stroke-width: 0.8"/>
      </g>
     </g>
     <g id="text_9">
      <text style="font-size: 10px; font-family: 'Helvetica', 'Arial', 'DejaVu Sans', 'Bitstream Vera Sans', 'Computer Modern Sans Serif', 'Lucida Grande', 'Verdana', 'Geneva', 'Lucid', 'Avant Garde', sans-serif; text-anchor: end" x="42.355625" y="363.371682" transform="rotate(-0 42.355625 363.371682)">−1.5</text>
     </g>
    </g>
    <g id="ytick_4">
     <g id="line2d_8">
      <g>
       <use xlink:href="#mf325ab7d8f" x="49.355625" y="303.912613" style="stroke: #000000; stroke-width: 0.8"/>
      </g>
     </g>
     <g id="text_10">
      <text style="font-size: 10px; font-family: 'Helvetica', 'Arial', 'DejaVu Sans', 'Bitstream Vera Sans', 'Computer Modern Sans Serif', 'Lucida Grande', 'Verdana', 'Geneva', 'Lucid', 'Avant Garde', sans-serif; text-anchor: end" x="42.355625" y="307.499332" transform="rotate(-0 42.355625 307.499332)">−1.0</text>
     </g>
    </g>
    <g id="ytick_5">
     <g id="line2d_9">
      <g>
       <use xlink:href="#mf325ab7d8f" x="49.355625" y="248.040263" style="stroke: #000000; stroke-width: 0.8"/>
      </g>
     </g>
     <g id="text_11">
      <text style="font-size: 10px; font-family: 'Helvetica', 'Arial', 'DejaVu Sans', 'Bitstream Vera Sans', 'Computer Modern Sans Serif', 'Lucida Grande', 'Verdana', 'Geneva', 'Lucid', 'Avant Garde', sans-serif; text-anchor: end" x="42.355625" y="251.626982" transform="rotate(-0 42.355625 251.626982)">−0.5</text>
     </g>
    </g>
    <g id="ytick_6">
     <g id="line2d_10">
      <g>
       <use xlink:href="#mf325ab7d8f" x="49.355625" y="192.167913" style="stroke: #000000; stroke-width: 0.8"/>
      </g>
     </g>
     <g id="text_12">
      <text style="font-size: 10px; font-family: 'Helvetica', 'Arial', 'DejaVu Sans', 'Bitstream Vera Sans', 'Computer Modern Sans Serif', 'Lucida Grande', 'Verdana', 'Geneva', 'Lucid', 'Avant Garde', sans-serif; text-anchor: end" x="42.355625" y="195.754632" transform="rotate(-0 42.355625 195.754632)">0.0</text>
     </g>
    </g>
    <g id="ytick_7">
     <g id="line2d_11">
      <g>
       <use xlink:href="#mf325ab7d8f" x="49.355625" y="136.295564" style="stroke: #000000; stroke-width: 0.8"/>
      </g>
     </g>
     <g id="text_13">
      <text style="font-size: 10px; font-family: 'Helvetica', 'Arial', 'DejaVu Sans', 'Bitstream Vera Sans', 'Computer Modern Sans Serif', 'Lucida Grande', 'Verdana', 'Geneva', 'Lucid', 'Avant Garde', sans-serif; text-anchor: end" x="42.355625" y="139.882282" transform="rotate(-0 42.355625 139.882282)">0.5</text>
     </g>
    </g>
    <g id="ytick_8">
     <g id="line2d_12">
      <g>
       <use xlink:href="#mf325ab7d8f" x="49.355625" y="80.423214" style="stroke: #000000; stroke-width: 0.8"/>
      </g>
     </g>
     <g id="text_14">
      <text style="font-size: 10px; font-family: 'Helvetica', 'Arial', 'DejaVu Sans', 'Bitstream Vera Sans', 'Computer Modern Sans Serif', 'Lucida Grande', 'Verdana', 'Geneva', 'Lucid', 'Avant Garde', sans-serif; text-anchor: end" x="42.355625" y="84.009933" transform="rotate(-0 42.355625 84.009933)">1.0</text>
     </g>
    </g>
    <g id="text_15">
     <text style="font-size: 12px; font-family: 'Helvetica', 'Arial', 'DejaVu Sans', 'Bitstream Vera Sans', 'Computer Modern Sans Serif', 'Lucida Grande', 'Verdana', 'Geneva', 'Lucid', 'Avant Garde', sans-serif; text-anchor: middle" x="16.0425" y="269.706375" transform="rotate(-90 16.0425 269.706375)">VSV Intensity (Robust Normalized)</text>
    </g>
    <g id="text_16">
     <text style="font-size: 10px; font-family: 'Helvetica', 'Arial', 'DejaVu Sans', 'Bitstream Vera Sans', 'Computer Modern Sans Serif', 'Lucida Grande', 'Verdana', 'Geneva', 'Lucid', 'Avant Garde', sans-serif; text-anchor: start" x="49.355625" y="44.946375" transform="rotate(-0 49.355625 44.946375)">1e−16</text>
    </g>
   </g>
   <g id="line2d_13">
    <path d="M 74.719261 197.89099 
L 79.843228 198.040175 
L 84.967195 198.189359 
L 90.091162 198.338543 
L 95.215129 198.487727 
L 100.339096 198.636911 
L 105.463063 198.786095 
L 110.58703 198.935279 
L 115.710997 199.084464 
L 120.834964 199.233648 
L 125.958931 199.382832 
L 131.082898 199.532016 
L 136.206865 199.6812 
L 141.330832 199.830384 
L 146.454799 199.979568 
L 151.578765 200.128753 
L 156.702732 200.277937 
L 161.826699 200.427121 
L 166.950666 200.576305 
L 172.074633 200.725489 
L 177.1986 200.874673 
L 182.322567 201.023858 
L 187.446534 201.173042 
L 192.570501 201.322226 
L 197.694468 201.47141 
L 202.818435 201.620594 
L 207.942402 201.769778 
L 213.066369 201.918962 
L 218.190336 202.068147 
L 223.314303 202.217331 
L 228.43827 202.366515 
L 233.562237 202.515699 
L 238.686204 202.664883 
L 243.81017 202.814067 
L 248.934137 202.963251 
L 254.058104 203.112436 
L 259.182071 203.26162 
L 264.306038 203.410804 
L 269.430005 203.559988 
L 274.553972 203.709172 
L 279.677939 203.858356 
L 284.801906 204.007541 
L 289.925873 204.156725 
L 295.04984 204.305909 
L 300.173807 204.455093 
L 305.297774 204.604277 
L 310.421741 204.753461 
L 315.545708 204.902645 
L 320.669675 205.05183 
L 325.793642 205.201014 
L 330.917608 205.350198 
L 336.041575 205.499382 
L 341.165542 205.648566 
L 346.289509 205.79775 
L 351.413476 205.946934 
L 356.537443 206.096119 
L 361.66141 206.245303 
L 366.785377 206.394487 
L 371.909344 206.543671 
L 377.033311 206.692855 
L 382.157278 206.842039 
L 387.281245 206.991223 
L 392.405212 207.140408 
L 397.529179 207.289592 
L 402.653146 207.438776 
L 407.777113 207.58796 
L 412.90108 207.737144 
L 418.025046 207.886328 
L 423.149013 208.035513 
L 428.27298 208.184697 
L 433.396947 208.333881 
L 438.520914 208.483065 
L 443.644881 208.632249 
L 448.768848 208.781433 
L 453.892815 208.930617 
L 459.016782 209.079802 
L 464.140749 209.228986 
L 469.264716 209.37817 
L 474.388683 209.527354 
L 479.51265 209.676538 
L 484.636617 209.825722 
L 489.760584 209.974906 
L 494.884551 210.124091 
L 500.008518 210.273275 
L 505.132485 210.422459 
L 510.256451 210.571643 
L 515.380418 210.720827 
L 520.504385 210.870011 
L 525.628352 211.019196 
L 530.752319 211.16838 
L 535.876286 211.317564 
L 541.000253 211.466748 
L 546.12422 211.615932 
L 551.248187 211.765116 
L 556.372154 211.9143 
L 561.496121 212.063485 
L 566.620088 212.212669 
L 571.744055 212.361853 
L 576.868022 212.511037 
L 581.991989 212.660221 
" clip-path="url(#pf108066848)" style="fill: none; stroke: #000000; stroke-width: 2; stroke-linecap: square"/>
   </g>
   <g id="patch_3">
    <path d="M 49.355625 491.466375 
L 49.355625 47.946375 
" style="fill: none; stroke: #000000; stroke-width: 0.8; stroke-linejoin: miter; stroke-linecap: square"/>
   </g>
   <g id="patch_4">
    <path d="M 49.355625 491.466375 
L 607.355625 491.466375 
" style="fill: none; stroke: #000000; stroke-width: 0.8; stroke-linejoin: miter; stroke-linecap: square"/>
   </g>
   <g id="text_17">
    <text style="font-size: 9px; font-family: 'Helvetica', 'Arial', 'DejaVu Sans', 'Bitstream Vera Sans', 'Computer Modern Sans Serif', 'Lucida Grande', 'Verdana', 'Geneva', 'Lucid', 'Avant Garde', sans-serif; text-anchor: start" x="586.991989" y="125.137144" transform="rotate(-0 586.991989 125.137144)">A</text>
   </g>
   <g id="text_18">
    <text style="font-size: 9px; font-family: 'Helvetica', 'Arial', 'DejaVu Sans', 'Bitstream Vera Sans', 'Computer Modern Sans Serif', 'Lucida Grande', 'Verdana', 'Geneva', 'Lucid', 'Avant Garde', sans-serif; text-anchor: start" x="248.81017" y="187.167913" transform="rotate(-0 248.81017 187.167913)">AL</text>
   </g>
   <g id="text_19">
    <text style="font-size: 9px; font-family: 'Helvetica', 'Arial', 'DejaVu Sans', 'Bitstream Vera Sans', 'Computer Modern Sans Serif', 'Lucida Grande', 'Verdana', 'Geneva', 'Lucid', 'Avant Garde', sans-serif; text-anchor: start" x="248.81017" y="125.137144" transform="rotate(-0 248.81017 125.137144)">AM</text>
   </g>
   <g id="text_20">
    <text style="font-size: 9px; font-family: 'Helvetica', 'Arial', 'DejaVu Sans', 'Bitstream Vera Sans', 'Computer Modern Sans Serif', 'Lucida Grande', 'Verdana', 'Geneva', 'Lucid', 'Avant Garde', sans-serif; text-anchor: start" x="350.264716" y="466.306375" transform="rotate(-0 350.264716 466.306375)">LM</text>
   </g>
   <g id="text_21">
    <text style="font-size: 9px; font-family: 'Helvetica', 'Arial', 'DejaVu Sans', 'Bitstream Vera Sans', 'Computer Modern Sans Serif', 'Lucida Grande', 'Verdana', 'Geneva', 'Lucid', 'Avant Garde', sans-serif; text-anchor: start" x="248.81017" y="311.229452" transform="rotate(-0 248.81017 311.229452)">LI</text>
   </g>
   <g id="text_22">
    <text style="font-size: 9px; font-family: 'Helvetica', 'Arial', 'DejaVu Sans', 'Bitstream Vera Sans', 'Computer Modern Sans Serif', 'Lucida Grande', 'Verdana', 'Geneva', 'Lucid', 'Avant Garde', sans-serif; text-anchor: start" x="248.81017" y="63.106375" transform="rotate(-0 248.81017 63.106375)">PM</text>
   </g>
   <g id="text_23">
    <text style="font-size: 9px; font-family: 'Helvetica', 'Arial', 'DejaVu Sans', 'Bitstream Vera Sans', 'Computer Modern Sans Serif', 'Lucida Grande', 'Verdana', 'Geneva', 'Lucid', 'Avant Garde', sans-serif; text-anchor: start" x="248.81017" y="125.137144" transform="rotate(-0 248.81017 125.137144)">POR</text>
   </g>
   <g id="text_24">
    <text style="font-size: 9px; font-family: 'Helvetica', 'Arial', 'DejaVu Sans', 'Bitstream Vera Sans', 'Computer Modern Sans Serif', 'Lucida Grande', 'Verdana', 'Geneva', 'Lucid', 'Avant Garde', sans-serif; text-anchor: start" x="79.719261" y="187.167913" transform="rotate(-0 79.719261 187.167913)">RL</text>
   </g>
   <g id="text_25">
    <text style="font-size: 12px; font-family: 'Helvetica', 'Arial', 'DejaVu Sans', 'Bitstream Vera Sans', 'Computer Modern Sans Serif', 'Lucida Grande', 'Verdana', 'Geneva', 'Lucid', 'Avant Garde', sans-serif" transform="translate(282.666563 15.808125)">p12 - All Regions</text>
    <text style="font-size: 12px; font-family: 'Helvetica', 'Arial', 'DejaVu Sans', 'Bitstream Vera Sans', 'Computer Modern Sans Serif', 'Lucida Grande', 'Verdana', 'Geneva', 'Lucid', 'Avant Garde', sans-serif" transform="translate(226.648125 28.961625)">Averaged Replicates Analysis (robust)</text>
    <text style="font-size: 12px; font-family: 'Helvetica', 'Arial', 'DejaVu Sans', 'Bitstream Vera Sans', 'Computer Modern Sans Serif', 'Lucida Grande', 'Verdana', 'Geneva', 'Lucid', 'Avant Garde', sans-serif" transform="translate(266.655 41.946375)">r = -0.0422, r² = 0.0018</text>
   </g>
  </g>
 </g>
 <defs>
  <clipPath id="pf108066848">
   <rect x="49.355625" y="47.946375" width="558" height="443.52"/>
  </clipPath>
 </defs>
</svg>
