<?xml version="1.0" encoding="utf-8" standalone="no"?>
<!DOCTYPE svg PUBLIC "-//W3C//DTD SVG 1.1//EN"
  "http://www.w3.org/Graphics/SVG/1.1/DTD/svg11.dtd">
<svg xmlns:xlink="http://www.w3.org/1999/xlink" width="614.555625pt" height="530.191062pt" viewBox="0 0 614.555625 530.191062" xmlns="http://www.w3.org/2000/svg" version="1.1">
 <metadata>
  <rdf:RDF xmlns:dc="http://purl.org/dc/elements/1.1/" xmlns:cc="http://creativecommons.org/ns#" xmlns:rdf="http://www.w3.org/1999/02/22-rdf-syntax-ns#">
   <cc:Work>
    <dc:type rdf:resource="http://purl.org/dc/dcmitype/StillImage"/>
    <dc:date>2026-02-24T12:29:36.196887</dc:date>
    <dc:format>image/svg+xml</dc:format>
    <dc:creator>
     <cc:Agent>
      <dc:title>Matplotlib v3.10.5, https://matplotlib.org/</dc:title>
     </cc:Agent>
    </dc:creator>
   </cc:Work>
  </rdf:RDF>
 </metadata>
 <defs>
  <style type="text/css">*{stroke-linejoin: round; stroke-linecap: butt}</style>
 </defs>
 <g id="figure_1">
  <g id="patch_1">
   <path d="M 0 530.191062 
L 614.555625 530.191062 
L 614.555625 0 
L 0 0 
z
" style="fill: #ffffff"/>
  </g>
  <g id="axes_1">
   <g id="patch_2">
    <path d="M 49.355625 491.412 
L 607.355625 491.412 
L 607.355625 47.892 
L 49.355625 47.892 
z
" style="fill: #ffffff"/>
   </g>
   <g id="PathCollection_1">
    <defs>
     <path id="C0_0_cedfd81c2f" d="M 0 5 
C 1.326016 5 2.597899 4.473168 3.535534 3.535534 
C 4.473168 2.597899 5 1.326016 5 -0 
C 5 -1.326016 4.473168 -2.597899 3.535534 -3.535534 
C 2.597899 -4.473168 1.326016 -5 0 -5 
C -1.326016 -5 -2.597899 -4.473168 -3.535534 -3.535534 
C -4.473168 -2.597899 -5 -1.326016 -5 0 
C -5 1.326016 -4.473168 2.597899 -3.535534 3.535534 
C -2.597899 4.473168 -1.326016 5 0 5 
z
"/>
    </defs>
    <g clip-path="url(#p4e3cec0410)">
     <use xlink:href="#C0_0_cedfd81c2f" x="142.355625" y="471.252" style="fill: #00008b"/>
    </g>
    <g clip-path="url(#p4e3cec0410)">
     <use xlink:href="#C0_0_cedfd81c2f" x="74.719261" y="187.936325" style="fill: #00008b"/>
    </g>
    <g clip-path="url(#p4e3cec0410)">
     <use xlink:href="#C0_0_cedfd81c2f" x="311.446534" y="171.439559" style="fill: #00008b"/>
    </g>
    <g clip-path="url(#p4e3cec0410)">
     <use xlink:href="#C0_0_cedfd81c2f" x="581.991989" y="105.452494" style="fill: #00008b"/>
    </g>
    <g clip-path="url(#p4e3cec0410)">
     <use xlink:href="#C0_0_cedfd81c2f" x="446.719261" y="178.509601" style="fill: #00008b"/>
    </g>
    <g clip-path="url(#p4e3cec0410)">
     <use xlink:href="#C0_0_cedfd81c2f" x="159.264716" y="164.369516" style="fill: #00008b"/>
    </g>
    <g clip-path="url(#p4e3cec0410)">
     <use xlink:href="#C0_0_cedfd81c2f" x="527.037443" y="257.353719" style="fill: #00008b"/>
    </g>
    <g clip-path="url(#p4e3cec0410)">
     <use xlink:href="#C0_0_cedfd81c2f" x="243.81017" y="68.052" style="fill: #00008b"/>
    </g>
   </g>
   <g id="matplotlib.axis_1">
    <g id="xtick_1">
     <g id="line2d_1">
      <defs>
       <path id="mc67c0724d4" d="M 0 0 
L 0 3.5 
" style="stroke: #000000; stroke-width: 0.8"/>
      </defs>
      <g>
       <use xlink:href="#mc67c0724d4" x="64.403381" y="491.412" style="stroke: #000000; stroke-width: 0.8"/>
      </g>
     </g>
     <g id="text_1">
      <text style="font-size: 10px; font-family: 'Helvetica', 'Arial', 'DejaVu Sans', 'Bitstream Vera Sans', 'Computer Modern Sans Serif', 'Lucida Grande', 'Verdana', 'Geneva', 'Lucid', 'Avant Garde', sans-serif; text-anchor: middle" x="64.403381" y="505.585437" transform="rotate(-0 64.403381 505.585437)">−4</text>
     </g>
    </g>
    <g id="xtick_2">
     <g id="line2d_2">
      <g>
       <use xlink:href="#mc67c0724d4" x="171.015867" y="491.412" style="stroke: #000000; stroke-width: 0.8"/>
      </g>
     </g>
     <g id="text_2">
      <text style="font-size: 10px; font-family: 'Helvetica', 'Arial', 'DejaVu Sans', 'Bitstream Vera Sans', 'Computer Modern Sans Serif', 'Lucida Grande', 'Verdana', 'Geneva', 'Lucid', 'Avant Garde', sans-serif; text-anchor: middle" x="171.015867" y="505.585437" transform="rotate(-0 171.015867 505.585437)">−2</text>
     </g>
    </g>
    <g id="xtick_3">
     <g id="line2d_3">
      <g>
       <use xlink:href="#mc67c0724d4" x="277.628352" y="491.412" style="stroke: #000000; stroke-width: 0.8"/>
      </g>
     </g>
     <g id="text_3">
      <text style="font-size: 10px; font-family: 'Helvetica', 'Arial', 'DejaVu Sans', 'Bitstream Vera Sans', 'Computer Modern Sans Serif', 'Lucida Grande', 'Verdana', 'Geneva', 'Lucid', 'Avant Garde', sans-serif; text-anchor: middle" x="277.628352" y="505.585437" transform="rotate(-0 277.628352 505.585437)">0</text>
     </g>
    </g>
    <g id="xtick_4">
     <g id="line2d_4">
      <g>
       <use xlink:href="#mc67c0724d4" x="384.240838" y="491.412" style="stroke: #000000; stroke-width: 0.8"/>
      </g>
     </g>
     <g id="text_4">
      <text style="font-size: 10px; font-family: 'Helvetica', 'Arial', 'DejaVu Sans', 'Bitstream Vera Sans', 'Computer Modern Sans Serif', 'Lucida Grande', 'Verdana', 'Geneva', 'Lucid', 'Avant Garde', sans-serif; text-anchor: middle" x="384.240838" y="505.585437" transform="rotate(-0 384.240838 505.585437)">2</text>
     </g>
    </g>
    <g id="xtick_5">
     <g id="line2d_5">
      <g>
       <use xlink:href="#mc67c0724d4" x="490.853324" y="491.412" style="stroke: #000000; stroke-width: 0.8"/>
      </g>
     </g>
     <g id="text_5">
      <text style="font-size: 10px; font-family: 'Helvetica', 'Arial', 'DejaVu Sans', 'Bitstream Vera Sans', 'Computer Modern Sans Serif', 'Lucida Grande', 'Verdana', 'Geneva', 'Lucid', 'Avant Garde', sans-serif; text-anchor: middle" x="490.853324" y="505.585437" transform="rotate(-0 490.853324 505.585437)">4</text>
     </g>
    </g>
    <g id="xtick_6">
     <g id="line2d_6">
      <g>
       <use xlink:href="#mc67c0724d4" x="597.465809" y="491.412" style="stroke: #000000; stroke-width: 0.8"/>
      </g>
     </g>
     <g id="text_6">
      <text style="font-size: 10px; font-family: 'Helvetica', 'Arial', 'DejaVu Sans', 'Bitstream Vera Sans', 'Computer Modern Sans Serif', 'Lucida Grande', 'Verdana', 'Geneva', 'Lucid', 'Avant Garde', sans-serif; text-anchor: middle" x="597.465809" y="505.585437" transform="rotate(-0 597.465809 505.585437)">6</text>
     </g>
    </g>
    <g id="text_7">
     <text style="font-size: 12px; font-family: 'Helvetica', 'Arial', 'DejaVu Sans', 'Bitstream Vera Sans', 'Computer Modern Sans Serif', 'Lucida Grande', 'Verdana', 'Geneva', 'Lucid', 'Avant Garde', sans-serif; text-anchor: middle" x="328.355625" y="520.418562" transform="rotate(-0 328.355625 520.418562)">H2B Intensity (Z-score)</text>
    </g>
    <g id="text_8">
     <text style="font-size: 10px; font-family: 'Helvetica', 'Arial', 'DejaVu Sans', 'Bitstream Vera Sans', 'Computer Modern Sans Serif', 'Lucida Grande', 'Verdana', 'Geneva', 'Lucid', 'Avant Garde', sans-serif; text-anchor: end" x="607.355625" y="517.84325" transform="rotate(-0 607.355625 517.84325)">1e−16</text>
    </g>
   </g>
   <g id="matplotlib.axis_2">
    <g id="ytick_1">
     <g id="line2d_7">
      <defs>
       <path id="m5d5c2c5a63" d="M 0 0 
L -3.5 0 
" style="stroke: #000000; stroke-width: 0.8"/>
      </defs>
      <g>
       <use xlink:href="#m5d5c2c5a63" x="49.355625" y="452.122114" style="stroke: #000000; stroke-width: 0.8"/>
      </g>
     </g>
     <g id="text_9">
      <text style="font-size: 10px; font-family: 'Helvetica', 'Arial', 'DejaVu Sans', 'Bitstream Vera Sans', 'Computer Modern Sans Serif', 'Lucida Grande', 'Verdana', 'Geneva', 'Lucid', 'Avant Garde', sans-serif; text-anchor: end" x="42.355625" y="455.708832" transform="rotate(-0 42.355625 455.708832)">−2.0</text>
     </g>
    </g>
    <g id="ytick_2">
     <g id="line2d_8">
      <g>
       <use xlink:href="#m5d5c2c5a63" x="49.355625" y="377.827283" style="stroke: #000000; stroke-width: 0.8"/>
      </g>
     </g>
     <g id="text_10">
      <text style="font-size: 10px; font-family: 'Helvetica', 'Arial', 'DejaVu Sans', 'Bitstream Vera Sans', 'Computer Modern Sans Serif', 'Lucida Grande', 'Verdana', 'Geneva', 'Lucid', 'Avant Garde', sans-serif; text-anchor: end" x="42.355625" y="381.414002" transform="rotate(-0 42.355625 381.414002)">−1.5</text>
     </g>
    </g>
    <g id="ytick_3">
     <g id="line2d_9">
      <g>
       <use xlink:href="#m5d5c2c5a63" x="49.355625" y="303.532453" style="stroke: #000000; stroke-width: 0.8"/>
      </g>
     </g>
     <g id="text_11">
      <text style="font-size: 10px; font-family: 'Helvetica', 'Arial', 'DejaVu Sans', 'Bitstream Vera Sans', 'Computer Modern Sans Serif', 'Lucida Grande', 'Verdana', 'Geneva', 'Lucid', 'Avant Garde', sans-serif; text-anchor: end" x="42.355625" y="307.119172" transform="rotate(-0 42.355625 307.119172)">−1.0</text>
     </g>
    </g>
    <g id="ytick_4">
     <g id="line2d_10">
      <g>
       <use xlink:href="#m5d5c2c5a63" x="49.355625" y="229.237623" style="stroke: #000000; stroke-width: 0.8"/>
      </g>
     </g>
     <g id="text_12">
      <text style="font-size: 10px; font-family: 'Helvetica', 'Arial', 'DejaVu Sans', 'Bitstream Vera Sans', 'Computer Modern Sans Serif', 'Lucida Grande', 'Verdana', 'Geneva', 'Lucid', 'Avant Garde', sans-serif; text-anchor: end" x="42.355625" y="232.824341" transform="rotate(-0 42.355625 232.824341)">−0.5</text>
     </g>
    </g>
    <g id="ytick_5">
     <g id="line2d_11">
      <g>
       <use xlink:href="#m5d5c2c5a63" x="49.355625" y="154.942792" style="stroke: #000000; stroke-width: 0.8"/>
      </g>
     </g>
     <g id="text_13">
      <text style="font-size: 10px; font-family: 'Helvetica', 'Arial', 'DejaVu Sans', 'Bitstream Vera Sans', 'Computer Modern Sans Serif', 'Lucida Grande', 'Verdana', 'Geneva', 'Lucid', 'Avant Garde', sans-serif; text-anchor: end" x="42.355625" y="158.529511" transform="rotate(-0 42.355625 158.529511)">0.0</text>
     </g>
    </g>
    <g id="ytick_6">
     <g id="line2d_12">
      <g>
       <use xlink:href="#m5d5c2c5a63" x="49.355625" y="80.647962" style="stroke: #000000; stroke-width: 0.8"/>
      </g>
     </g>
     <g id="text_14">
      <text style="font-size: 10px; font-family: 'Helvetica', 'Arial', 'DejaVu Sans', 'Bitstream Vera Sans', 'Computer Modern Sans Serif', 'Lucida Grande', 'Verdana', 'Geneva', 'Lucid', 'Avant Garde', sans-serif; text-anchor: end" x="42.355625" y="84.234681" transform="rotate(-0 42.355625 84.234681)">0.5</text>
     </g>
    </g>
    <g id="text_15">
     <text style="font-size: 12px; font-family: 'Helvetica', 'Arial', 'DejaVu Sans', 'Bitstream Vera Sans', 'Computer Modern Sans Serif', 'Lucida Grande', 'Verdana', 'Geneva', 'Lucid', 'Avant Garde', sans-serif; text-anchor: middle" x="16.0425" y="269.652" transform="rotate(-90 16.0425 269.652)">VSV Intensity (Z-score)</text>
    </g>
    <g id="text_16">
     <text style="font-size: 10px; font-family: 'Helvetica', 'Arial', 'DejaVu Sans', 'Bitstream Vera Sans', 'Computer Modern Sans Serif', 'Lucida Grande', 'Verdana', 'Geneva', 'Lucid', 'Avant Garde', sans-serif; text-anchor: start" x="49.355625" y="44.892" transform="rotate(-0 49.355625 44.892)">1e−15</text>
    </g>
   </g>
   <g id="line2d_13">
    <path d="M 74.719261 242.799465 
L 79.843228 241.882834 
L 84.967195 240.966203 
L 90.091162 240.049573 
L 95.215129 239.132942 
L 100.339096 238.216311 
L 105.463063 237.29968 
L 110.58703 236.38305 
L 115.710997 235.466419 
L 120.834964 234.549788 
L 125.958931 233.633157 
L 131.082898 232.716527 
L 136.206865 231.799896 
L 141.330832 230.883265 
L 146.454799 229.966634 
L 151.578765 229.050004 
L 156.702732 228.133373 
L 161.826699 227.216742 
L 166.950666 226.300111 
L 172.074633 225.383481 
L 177.1986 224.46685 
L 182.322567 223.550219 
L 187.446534 222.633588 
L 192.570501 221.716958 
L 197.694468 220.800327 
L 202.818435 219.883696 
L 207.942402 218.967065 
L 213.066369 218.050435 
L 218.190336 217.133804 
L 223.314303 216.217173 
L 228.43827 215.300542 
L 233.562237 214.383912 
L 238.686204 213.467281 
L 243.81017 212.55065 
L 248.934137 211.634019 
L 254.058104 210.717389 
L 259.182071 209.800758 
L 264.306038 208.884127 
L 269.430005 207.967496 
L 274.553972 207.050866 
L 279.677939 206.134235 
L 284.801906 205.217604 
L 289.925873 204.300973 
L 295.04984 203.384343 
L 300.173807 202.467712 
L 305.297774 201.551081 
L 310.421741 200.63445 
L 315.545708 199.71782 
L 320.669675 198.801189 
L 325.793642 197.884558 
L 330.917608 196.967927 
L 336.041575 196.051297 
L 341.165542 195.134666 
L 346.289509 194.218035 
L 351.413476 193.301404 
L 356.537443 192.384774 
L 361.66141 191.468143 
L 366.785377 190.551512 
L 371.909344 189.634881 
L 377.033311 188.718251 
L 382.157278 187.80162 
L 387.281245 186.884989 
L 392.405212 185.968358 
L 397.529179 185.051728 
L 402.653146 184.135097 
L 407.777113 183.218466 
L 412.90108 182.301835 
L 418.025046 181.385205 
L 423.149013 180.468574 
L 428.27298 179.551943 
L 433.396947 178.635312 
L 438.520914 177.718682 
L 443.644881 176.802051 
L 448.768848 175.88542 
L 453.892815 174.968789 
L 459.016782 174.052159 
L 464.140749 173.135528 
L 469.264716 172.218897 
L 474.388683 171.302266 
L 479.51265 170.385636 
L 484.636617 169.469005 
L 489.760584 168.552374 
L 494.884551 167.635743 
L 500.008518 166.719113 
L 505.132485 165.802482 
L 510.256451 164.885851 
L 515.380418 163.969221 
L 520.504385 163.05259 
L 525.628352 162.135959 
L 530.752319 161.219328 
L 535.876286 160.302698 
L 541.000253 159.386067 
L 546.12422 158.469436 
L 551.248187 157.552805 
L 556.372154 156.636175 
L 561.496121 155.719544 
L 566.620088 154.802913 
L 571.744055 153.886282 
L 576.868022 152.969652 
L 581.991989 152.053021 
" clip-path="url(#p4e3cec0410)" style="fill: none; stroke: #000000; stroke-width: 2; stroke-linecap: square"/>
   </g>
   <g id="patch_3">
    <path d="M 49.355625 491.412 
L 49.355625 47.892 
" style="fill: none; stroke: #000000; stroke-width: 0.8; stroke-linejoin: miter; stroke-linecap: square"/>
   </g>
   <g id="patch_4">
    <path d="M 49.355625 491.412 
L 607.355625 491.412 
" style="fill: none; stroke: #000000; stroke-width: 0.8; stroke-linejoin: miter; stroke-linecap: square"/>
   </g>
   <g id="text_17">
    <text style="font-size: 9px; font-family: 'Helvetica', 'Arial', 'DejaVu Sans', 'Bitstream Vera Sans', 'Computer Modern Sans Serif', 'Lucida Grande', 'Verdana', 'Geneva', 'Lucid', 'Avant Garde', sans-serif; text-anchor: start" x="147.355625" y="466.252" transform="rotate(-0 147.355625 466.252)">A</text>
   </g>
   <g id="text_18">
    <text style="font-size: 9px; font-family: 'Helvetica', 'Arial', 'DejaVu Sans', 'Bitstream Vera Sans', 'Computer Modern Sans Serif', 'Lucida Grande', 'Verdana', 'Geneva', 'Lucid', 'Avant Garde', sans-serif; text-anchor: start" x="79.719261" y="182.936325" transform="rotate(-0 79.719261 182.936325)">AL</text>
   </g>
   <g id="text_19">
    <text style="font-size: 9px; font-family: 'Helvetica', 'Arial', 'DejaVu Sans', 'Bitstream Vera Sans', 'Computer Modern Sans Serif', 'Lucida Grande', 'Verdana', 'Geneva', 'Lucid', 'Avant Garde', sans-serif; text-anchor: start" x="316.446534" y="166.439559" transform="rotate(-0 316.446534 166.439559)">AM</text>
   </g>
   <g id="text_20">
    <text style="font-size: 9px; font-family: 'Helvetica', 'Arial', 'DejaVu Sans', 'Bitstream Vera Sans', 'Computer Modern Sans Serif', 'Lucida Grande', 'Verdana', 'Geneva', 'Lucid', 'Avant Garde', sans-serif; text-anchor: start" x="586.991989" y="100.452494" transform="rotate(-0 586.991989 100.452494)">LM</text>
   </g>
   <g id="text_21">
    <text style="font-size: 9px; font-family: 'Helvetica', 'Arial', 'DejaVu Sans', 'Bitstream Vera Sans', 'Computer Modern Sans Serif', 'Lucida Grande', 'Verdana', 'Geneva', 'Lucid', 'Avant Garde', sans-serif; text-anchor: start" x="451.719261" y="173.509601" transform="rotate(-0 451.719261 173.509601)">LI</text>
   </g>
   <g id="text_22">
    <text style="font-size: 9px; font-family: 'Helvetica', 'Arial', 'DejaVu Sans', 'Bitstream Vera Sans', 'Computer Modern Sans Serif', 'Lucida Grande', 'Verdana', 'Geneva', 'Lucid', 'Avant Garde', sans-serif; text-anchor: start" x="164.264716" y="159.369516" transform="rotate(-0 164.264716 159.369516)">PM</text>
   </g>
   <g id="text_23">
    <text style="font-size: 9px; font-family: 'Helvetica', 'Arial', 'DejaVu Sans', 'Bitstream Vera Sans', 'Computer Modern Sans Serif', 'Lucida Grande', 'Verdana', 'Geneva', 'Lucid', 'Avant Garde', sans-serif; text-anchor: start" x="532.037443" y="252.353719" transform="rotate(-0 532.037443 252.353719)">POR</text>
   </g>
   <g id="text_24">
    <text style="font-size: 9px; font-family: 'Helvetica', 'Arial', 'DejaVu Sans', 'Bitstream Vera Sans', 'Computer Modern Sans Serif', 'Lucida Grande', 'Verdana', 'Geneva', 'Lucid', 'Avant Garde', sans-serif; text-anchor: start" x="248.81017" y="63.052" transform="rotate(-0 248.81017 63.052)">RL</text>
   </g>
   <g id="text_25">
    <text style="font-size: 12px; font-family: 'Helvetica', 'Arial', 'DejaVu Sans', 'Bitstream Vera Sans', 'Computer Modern Sans Serif', 'Lucida Grande', 'Verdana', 'Geneva', 'Lucid', 'Avant Garde', sans-serif" transform="translate(279.666563 15.83625)">adult - All Regions</text>
    <text style="font-size: 12px; font-family: 'Helvetica', 'Arial', 'DejaVu Sans', 'Bitstream Vera Sans', 'Computer Modern Sans Serif', 'Lucida Grande', 'Verdana', 'Geneva', 'Lucid', 'Avant Garde', sans-serif" transform="translate(244.995938 28.98975)">Imputed Data Analysis (zscore)</text>
    <text style="font-size: 12px; font-family: 'Helvetica', 'Arial', 'DejaVu Sans', 'Bitstream Vera Sans', 'Computer Modern Sans Serif', 'Lucida Grande', 'Verdana', 'Geneva', 'Lucid', 'Avant Garde', sans-serif" transform="translate(268.652813 41.892)">r = 0.2750, r² = 0.0756</text>
   </g>
  </g>
 </g>
 <defs>
  <clipPath id="p4e3cec0410">
   <rect x="49.355625" y="47.892" width="558" height="443.52"/>
  </clipPath>
 </defs>
</svg>
