<?xml version="1.0" encoding="utf-8" standalone="no"?>
<!DOCTYPE svg PUBLIC "-//W3C//DTD SVG 1.1//EN"
  "http://www.w3.org/Graphics/SVG/1.1/DTD/svg11.dtd">
<svg xmlns:xlink="http://www.w3.org/1999/xlink" width="606.216563pt" height="530.191062pt" viewBox="0 0 606.216563 530.191062" xmlns="http://www.w3.org/2000/svg" version="1.1">
 <metadata>
  <rdf:RDF xmlns:dc="http://purl.org/dc/elements/1.1/" xmlns:cc="http://creativecommons.org/ns#" xmlns:rdf="http://www.w3.org/1999/02/22-rdf-syntax-ns#">
   <cc:Work>
    <dc:type rdf:resource="http://purl.org/dc/dcmitype/StillImage"/>
    <dc:date>2026-02-24T12:29:50.015367</dc:date>
    <dc:format>image/svg+xml</dc:format>
    <dc:creator>
     <cc:Agent>
      <dc:title>Matplotlib v3.10.5, https://matplotlib.org/</dc:title>
     </cc:Agent>
    </dc:creator>
   </cc:Work>
  </rdf:RDF>
 </metadata>
 <defs>
  <style type="text/css">*{stroke-linejoin: round; stroke-linecap: butt}</style>
 </defs>
 <g id="figure_1">
  <g id="patch_1">
   <path d="M 0 530.191062 
L 606.216563 530.191062 
L 606.216563 0 
L 0 0 
z
" style="fill: #ffffff"/>
  </g>
  <g id="axes_1">
   <g id="patch_2">
    <path d="M 41.016562 491.412 
L 599.016562 491.412 
L 599.016562 47.892 
L 41.016562 47.892 
z
" style="fill: #ffffff"/>
   </g>
   <g id="PathCollection_1">
    <defs>
     <path id="C0_0_61e9ead603" d="M 0 5 
C 1.326016 5 2.597899 4.473168 3.535534 3.535534 
C 4.473168 2.597899 5 1.326016 5 -0 
C 5 -1.326016 4.473168 -2.597899 3.535534 -3.535534 
C 2.597899 -4.473168 1.326016 -5 0 -5 
C -1.326016 -5 -2.597899 -4.473168 -3.535534 -3.535534 
C -4.473168 -2.597899 -5 -1.326016 -5 0 
C -5 1.326016 -4.473168 2.597899 -3.535534 3.535534 
C -2.597899 4.473168 -1.326016 5 0 5 
z
"/>
    </defs>
    <g clip-path="url(#p36e7fae29c)">
     <use xlink:href="#C0_0_61e9ead603" x="522.480677" y="471.252" style="fill: #00008b"/>
    </g>
    <g clip-path="url(#p36e7fae29c)">
     <use xlink:href="#C0_0_61e9ead603" x="502.456754" y="153.686758" style="fill: #00008b"/>
    </g>
    <g clip-path="url(#p36e7fae29c)">
     <use xlink:href="#C0_0_61e9ead603" x="493.557232" y="322.412954" style="fill: #00008b"/>
    </g>
    <g clip-path="url(#p36e7fae29c)">
     <use xlink:href="#C0_0_61e9ead603" x="66.380199" y="195.161453" style="fill: #00008b"/>
    </g>
    <g clip-path="url(#p36e7fae29c)">
     <use xlink:href="#C0_0_61e9ead603" x="457.959146" y="204.061055" style="fill: #00008b"/>
    </g>
    <g clip-path="url(#p36e7fae29c)">
     <use xlink:href="#C0_0_61e9ead603" x="395.662496" y="300.025434" style="fill: #00008b"/>
    </g>
    <g clip-path="url(#p36e7fae29c)">
     <use xlink:href="#C0_0_61e9ead603" x="471.308429" y="305.858484" style="fill: #00008b"/>
    </g>
    <g clip-path="url(#p36e7fae29c)">
     <use xlink:href="#C0_0_61e9ead603" x="573.652926" y="68.052" style="fill: #00008b"/>
    </g>
   </g>
   <g id="matplotlib.axis_1">
    <g id="xtick_1">
     <g id="line2d_1">
      <defs>
       <path id="m34c6638538" d="M 0 0 
L 0 3.5 
" style="stroke: #000000; stroke-width: 0.8"/>
      </defs>
      <g>
       <use xlink:href="#m34c6638538" x="54.91943" y="491.412" style="stroke: #000000; stroke-width: 0.8"/>
      </g>
     </g>
     <g id="text_1">
      <text style="font-size: 10px; font-family: 'Helvetica', 'Arial', 'DejaVu Sans', 'Bitstream Vera Sans', 'Computer Modern Sans Serif', 'Lucida Grande', 'Verdana', 'Geneva', 'Lucid', 'Avant Garde', sans-serif; text-anchor: middle" x="54.91943" y="505.585437" transform="rotate(-0 54.91943 505.585437)">−3.0</text>
     </g>
    </g>
    <g id="xtick_2">
     <g id="line2d_2">
      <g>
       <use xlink:href="#m34c6638538" x="125.059223" y="491.412" style="stroke: #000000; stroke-width: 0.8"/>
      </g>
     </g>
     <g id="text_2">
      <text style="font-size: 10px; font-family: 'Helvetica', 'Arial', 'DejaVu Sans', 'Bitstream Vera Sans', 'Computer Modern Sans Serif', 'Lucida Grande', 'Verdana', 'Geneva', 'Lucid', 'Avant Garde', sans-serif; text-anchor: middle" x="125.059223" y="505.585437" transform="rotate(-0 125.059223 505.585437)">−2.5</text>
     </g>
    </g>
    <g id="xtick_3">
     <g id="line2d_3">
      <g>
       <use xlink:href="#m34c6638538" x="195.199016" y="491.412" style="stroke: #000000; stroke-width: 0.8"/>
      </g>
     </g>
     <g id="text_3">
      <text style="font-size: 10px; font-family: 'Helvetica', 'Arial', 'DejaVu Sans', 'Bitstream Vera Sans', 'Computer Modern Sans Serif', 'Lucida Grande', 'Verdana', 'Geneva', 'Lucid', 'Avant Garde', sans-serif; text-anchor: middle" x="195.199016" y="505.585437" transform="rotate(-0 195.199016 505.585437)">−2.0</text>
     </g>
    </g>
    <g id="xtick_4">
     <g id="line2d_4">
      <g>
       <use xlink:href="#m34c6638538" x="265.33881" y="491.412" style="stroke: #000000; stroke-width: 0.8"/>
      </g>
     </g>
     <g id="text_4">
      <text style="font-size: 10px; font-family: 'Helvetica', 'Arial', 'DejaVu Sans', 'Bitstream Vera Sans', 'Computer Modern Sans Serif', 'Lucida Grande', 'Verdana', 'Geneva', 'Lucid', 'Avant Garde', sans-serif; text-anchor: middle" x="265.33881" y="505.585437" transform="rotate(-0 265.33881 505.585437)">−1.5</text>
     </g>
    </g>
    <g id="xtick_5">
     <g id="line2d_5">
      <g>
       <use xlink:href="#m34c6638538" x="335.478603" y="491.412" style="stroke: #000000; stroke-width: 0.8"/>
      </g>
     </g>
     <g id="text_5">
      <text style="font-size: 10px; font-family: 'Helvetica', 'Arial', 'DejaVu Sans', 'Bitstream Vera Sans', 'Computer Modern Sans Serif', 'Lucida Grande', 'Verdana', 'Geneva', 'Lucid', 'Avant Garde', sans-serif; text-anchor: middle" x="335.478603" y="505.585437" transform="rotate(-0 335.478603 505.585437)">−1.0</text>
     </g>
    </g>
    <g id="xtick_6">
     <g id="line2d_6">
      <g>
       <use xlink:href="#m34c6638538" x="405.618396" y="491.412" style="stroke: #000000; stroke-width: 0.8"/>
      </g>
     </g>
     <g id="text_6">
      <text style="font-size: 10px; font-family: 'Helvetica', 'Arial', 'DejaVu Sans', 'Bitstream Vera Sans', 'Computer Modern Sans Serif', 'Lucida Grande', 'Verdana', 'Geneva', 'Lucid', 'Avant Garde', sans-serif; text-anchor: middle" x="405.618396" y="505.585437" transform="rotate(-0 405.618396 505.585437)">−0.5</text>
     </g>
    </g>
    <g id="xtick_7">
     <g id="line2d_7">
      <g>
       <use xlink:href="#m34c6638538" x="475.758189" y="491.412" style="stroke: #000000; stroke-width: 0.8"/>
      </g>
     </g>
     <g id="text_7">
      <text style="font-size: 10px; font-family: 'Helvetica', 'Arial', 'DejaVu Sans', 'Bitstream Vera Sans', 'Computer Modern Sans Serif', 'Lucida Grande', 'Verdana', 'Geneva', 'Lucid', 'Avant Garde', sans-serif; text-anchor: middle" x="475.758189" y="505.585437" transform="rotate(-0 475.758189 505.585437)">0.0</text>
     </g>
    </g>
    <g id="xtick_8">
     <g id="line2d_8">
      <g>
       <use xlink:href="#m34c6638538" x="545.897983" y="491.412" style="stroke: #000000; stroke-width: 0.8"/>
      </g>
     </g>
     <g id="text_8">
      <text style="font-size: 10px; font-family: 'Helvetica', 'Arial', 'DejaVu Sans', 'Bitstream Vera Sans', 'Computer Modern Sans Serif', 'Lucida Grande', 'Verdana', 'Geneva', 'Lucid', 'Avant Garde', sans-serif; text-anchor: middle" x="545.897983" y="505.585437" transform="rotate(-0 545.897983 505.585437)">0.5</text>
     </g>
    </g>
    <g id="text_9">
     <text style="font-size: 12px; font-family: 'Helvetica', 'Arial', 'DejaVu Sans', 'Bitstream Vera Sans', 'Computer Modern Sans Serif', 'Lucida Grande', 'Verdana', 'Geneva', 'Lucid', 'Avant Garde', sans-serif; text-anchor: middle" x="320.016563" y="520.418562" transform="rotate(-0 320.016563 520.418562)">H2B Intensity (Z-score)</text>
    </g>
    <g id="text_10">
     <text style="font-size: 10px; font-family: 'Helvetica', 'Arial', 'DejaVu Sans', 'Bitstream Vera Sans', 'Computer Modern Sans Serif', 'Lucida Grande', 'Verdana', 'Geneva', 'Lucid', 'Avant Garde', sans-serif; text-anchor: end" x="599.016562" y="517.84325" transform="rotate(-0 599.016562 517.84325)">1e−15</text>
    </g>
   </g>
   <g id="matplotlib.axis_2">
    <g id="ytick_1">
     <g id="line2d_9">
      <defs>
       <path id="m1c86a2c0dd" d="M 0 0 
L -3.5 0 
" style="stroke: #000000; stroke-width: 0.8"/>
      </defs>
      <g>
       <use xlink:href="#m1c86a2c0dd" x="41.016562" y="483.913498" style="stroke: #000000; stroke-width: 0.8"/>
      </g>
     </g>
     <g id="text_11">
      <text style="font-size: 10px; font-family: 'Helvetica', 'Arial', 'DejaVu Sans', 'Bitstream Vera Sans', 'Computer Modern Sans Serif', 'Lucida Grande', 'Verdana', 'Geneva', 'Lucid', 'Avant Garde', sans-serif; text-anchor: end" x="34.016562" y="487.500217" transform="rotate(-0 34.016562 487.500217)">−2</text>
     </g>
    </g>
    <g id="ytick_2">
     <g id="line2d_10">
      <g>
       <use xlink:href="#m1c86a2c0dd" x="41.016562" y="391.969466" style="stroke: #000000; stroke-width: 0.8"/>
      </g>
     </g>
     <g id="text_12">
      <text style="font-size: 10px; font-family: 'Helvetica', 'Arial', 'DejaVu Sans', 'Bitstream Vera Sans', 'Computer Modern Sans Serif', 'Lucida Grande', 'Verdana', 'Geneva', 'Lucid', 'Avant Garde', sans-serif; text-anchor: end" x="34.016562" y="395.556185" transform="rotate(-0 34.016562 395.556185)">−1</text>
     </g>
    </g>
    <g id="ytick_3">
     <g id="line2d_11">
      <g>
       <use xlink:href="#m1c86a2c0dd" x="41.016562" y="300.025434" style="stroke: #000000; stroke-width: 0.8"/>
      </g>
     </g>
     <g id="text_13">
      <text style="font-size: 10px; font-family: 'Helvetica', 'Arial', 'DejaVu Sans', 'Bitstream Vera Sans', 'Computer Modern Sans Serif', 'Lucida Grande', 'Verdana', 'Geneva', 'Lucid', 'Avant Garde', sans-serif; text-anchor: end" x="34.016562" y="303.612152" transform="rotate(-0 34.016562 303.612152)">0</text>
     </g>
    </g>
    <g id="ytick_4">
     <g id="line2d_12">
      <g>
       <use xlink:href="#m1c86a2c0dd" x="41.016562" y="208.081401" style="stroke: #000000; stroke-width: 0.8"/>
      </g>
     </g>
     <g id="text_14">
      <text style="font-size: 10px; font-family: 'Helvetica', 'Arial', 'DejaVu Sans', 'Bitstream Vera Sans', 'Computer Modern Sans Serif', 'Lucida Grande', 'Verdana', 'Geneva', 'Lucid', 'Avant Garde', sans-serif; text-anchor: end" x="34.016562" y="211.66812" transform="rotate(-0 34.016562 211.66812)">1</text>
     </g>
    </g>
    <g id="ytick_5">
     <g id="line2d_13">
      <g>
       <use xlink:href="#m1c86a2c0dd" x="41.016562" y="116.137369" style="stroke: #000000; stroke-width: 0.8"/>
      </g>
     </g>
     <g id="text_15">
      <text style="font-size: 10px; font-family: 'Helvetica', 'Arial', 'DejaVu Sans', 'Bitstream Vera Sans', 'Computer Modern Sans Serif', 'Lucida Grande', 'Verdana', 'Geneva', 'Lucid', 'Avant Garde', sans-serif; text-anchor: end" x="34.016562" y="119.724088" transform="rotate(-0 34.016562 119.724088)">2</text>
     </g>
    </g>
    <g id="text_16">
     <text style="font-size: 12px; font-family: 'Helvetica', 'Arial', 'DejaVu Sans', 'Bitstream Vera Sans', 'Computer Modern Sans Serif', 'Lucida Grande', 'Verdana', 'Geneva', 'Lucid', 'Avant Garde', sans-serif; text-anchor: middle" x="16.0425" y="269.652" transform="rotate(-90 16.0425 269.652)">VSV Intensity (Z-score)</text>
    </g>
    <g id="text_17">
     <text style="font-size: 10px; font-family: 'Helvetica', 'Arial', 'DejaVu Sans', 'Bitstream Vera Sans', 'Computer Modern Sans Serif', 'Lucida Grande', 'Verdana', 'Geneva', 'Lucid', 'Avant Garde', sans-serif; text-anchor: start" x="41.016562" y="44.892" transform="rotate(-0 41.016562 44.892)">1e−15</text>
    </g>
   </g>
   <g id="line2d_14">
    <path d="M 66.380199 229.075881 
L 71.504166 229.40199 
L 76.628133 229.728099 
L 81.7521 230.054208 
L 86.876067 230.380317 
L 92.000034 230.706426 
L 97.124001 231.032534 
L 102.247967 231.358643 
L 107.371934 231.684752 
L 112.495901 232.010861 
L 117.619868 232.33697 
L 122.743835 232.663079 
L 127.867802 232.989188 
L 132.991769 233.315297 
L 138.115736 233.641406 
L 143.239703 233.967515 
L 148.36367 234.293623 
L 153.487637 234.619732 
L 158.611604 234.945841 
L 163.735571 235.27195 
L 168.859538 235.598059 
L 173.983505 235.924168 
L 179.107472 236.250277 
L 184.231439 236.576386 
L 189.355405 236.902495 
L 194.479372 237.228604 
L 199.603339 237.554712 
L 204.727306 237.880821 
L 209.851273 238.20693 
L 214.97524 238.533039 
L 220.099207 238.859148 
L 225.223174 239.185257 
L 230.347141 239.511366 
L 235.471108 239.837475 
L 240.595075 240.163584 
L 245.719042 240.489692 
L 250.843009 240.815801 
L 255.966976 241.14191 
L 261.090943 241.468019 
L 266.21491 241.794128 
L 271.338877 242.120237 
L 276.462843 242.446346 
L 281.58681 242.772455 
L 286.710777 243.098564 
L 291.834744 243.424673 
L 296.958711 243.750781 
L 302.082678 244.07689 
L 307.206645 244.402999 
L 312.330612 244.729108 
L 317.454579 245.055217 
L 322.578546 245.381326 
L 327.702513 245.707435 
L 332.82648 246.033544 
L 337.950447 246.359653 
L 343.074414 246.685762 
L 348.198381 247.01187 
L 353.322348 247.337979 
L 358.446315 247.664088 
L 363.570282 247.990197 
L 368.694248 248.316306 
L 373.818215 248.642415 
L 378.942182 248.968524 
L 384.066149 249.294633 
L 389.190116 249.620742 
L 394.314083 249.946851 
L 399.43805 250.272959 
L 404.562017 250.599068 
L 409.685984 250.925177 
L 414.809951 251.251286 
L 419.933918 251.577395 
L 425.057885 251.903504 
L 430.181852 252.229613 
L 435.305819 252.555722 
L 440.429786 252.881831 
L 445.553753 253.20794 
L 450.67772 253.534048 
L 455.801686 253.860157 
L 460.925653 254.186266 
L 466.04962 254.512375 
L 471.173587 254.838484 
L 476.297554 255.164593 
L 481.421521 255.490702 
L 486.545488 255.816811 
L 491.669455 256.14292 
L 496.793422 256.469029 
L 501.917389 256.795137 
L 507.041356 257.121246 
L 512.165323 257.447355 
L 517.28929 257.773464 
L 522.413257 258.099573 
L 527.537224 258.425682 
L 532.661191 258.751791 
L 537.785158 259.0779 
L 542.909124 259.404009 
L 548.033091 259.730118 
L 553.157058 260.056226 
L 558.281025 260.382335 
L 563.404992 260.708444 
L 568.528959 261.034553 
L 573.652926 261.360662 
" clip-path="url(#p36e7fae29c)" style="fill: none; stroke: #000000; stroke-width: 2; stroke-linecap: square"/>
   </g>
   <g id="patch_3">
    <path d="M 41.016562 491.412 
L 41.016562 47.892 
" style="fill: none; stroke: #000000; stroke-width: 0.8; stroke-linejoin: miter; stroke-linecap: square"/>
   </g>
   <g id="patch_4">
    <path d="M 41.016563 491.412 
L 599.016562 491.412 
" style="fill: none; stroke: #000000; stroke-width: 0.8; stroke-linejoin: miter; stroke-linecap: square"/>
   </g>
   <g id="text_18">
    <text style="font-size: 9px; font-family: 'Helvetica', 'Arial', 'DejaVu Sans', 'Bitstream Vera Sans', 'Computer Modern Sans Serif', 'Lucida Grande', 'Verdana', 'Geneva', 'Lucid', 'Avant Garde', sans-serif; text-anchor: start" x="527.480677" y="466.252" transform="rotate(-0 527.480677 466.252)">A</text>
   </g>
   <g id="text_19">
    <text style="font-size: 9px; font-family: 'Helvetica', 'Arial', 'DejaVu Sans', 'Bitstream Vera Sans', 'Computer Modern Sans Serif', 'Lucida Grande', 'Verdana', 'Geneva', 'Lucid', 'Avant Garde', sans-serif; text-anchor: start" x="507.456754" y="148.686758" transform="rotate(-0 507.456754 148.686758)">AL</text>
   </g>
   <g id="text_20">
    <text style="font-size: 9px; font-family: 'Helvetica', 'Arial', 'DejaVu Sans', 'Bitstream Vera Sans', 'Computer Modern Sans Serif', 'Lucida Grande', 'Verdana', 'Geneva', 'Lucid', 'Avant Garde', sans-serif; text-anchor: start" x="498.557232" y="317.412954" transform="rotate(-0 498.557232 317.412954)">AM</text>
   </g>
   <g id="text_21">
    <text style="font-size: 9px; font-family: 'Helvetica', 'Arial', 'DejaVu Sans', 'Bitstream Vera Sans', 'Computer Modern Sans Serif', 'Lucida Grande', 'Verdana', 'Geneva', 'Lucid', 'Avant Garde', sans-serif; text-anchor: start" x="71.380199" y="190.161453" transform="rotate(-0 71.380199 190.161453)">LM</text>
   </g>
   <g id="text_22">
    <text style="font-size: 9px; font-family: 'Helvetica', 'Arial', 'DejaVu Sans', 'Bitstream Vera Sans', 'Computer Modern Sans Serif', 'Lucida Grande', 'Verdana', 'Geneva', 'Lucid', 'Avant Garde', sans-serif; text-anchor: start" x="462.959146" y="199.061055" transform="rotate(-0 462.959146 199.061055)">LI</text>
   </g>
   <g id="text_23">
    <text style="font-size: 9px; font-family: 'Helvetica', 'Arial', 'DejaVu Sans', 'Bitstream Vera Sans', 'Computer Modern Sans Serif', 'Lucida Grande', 'Verdana', 'Geneva', 'Lucid', 'Avant Garde', sans-serif; text-anchor: start" x="400.662496" y="295.025434" transform="rotate(-0 400.662496 295.025434)">PM</text>
   </g>
   <g id="text_24">
    <text style="font-size: 9px; font-family: 'Helvetica', 'Arial', 'DejaVu Sans', 'Bitstream Vera Sans', 'Computer Modern Sans Serif', 'Lucida Grande', 'Verdana', 'Geneva', 'Lucid', 'Avant Garde', sans-serif; text-anchor: start" x="476.308429" y="300.858484" transform="rotate(-0 476.308429 300.858484)">POR</text>
   </g>
   <g id="text_25">
    <text style="font-size: 9px; font-family: 'Helvetica', 'Arial', 'DejaVu Sans', 'Bitstream Vera Sans', 'Computer Modern Sans Serif', 'Lucida Grande', 'Verdana', 'Geneva', 'Lucid', 'Avant Garde', sans-serif; text-anchor: start" x="578.652926" y="63.052" transform="rotate(-0 578.652926 63.052)">RL</text>
   </g>
   <g id="text_26">
    <text style="font-size: 12px; font-family: 'Helvetica', 'Arial', 'DejaVu Sans', 'Bitstream Vera Sans', 'Computer Modern Sans Serif', 'Lucida Grande', 'Verdana', 'Geneva', 'Lucid', 'Avant Garde', sans-serif" transform="translate(271.3275 15.83625)">adult - All Regions</text>
    <text style="font-size: 12px; font-family: 'Helvetica', 'Arial', 'DejaVu Sans', 'Bitstream Vera Sans', 'Computer Modern Sans Serif', 'Lucida Grande', 'Verdana', 'Geneva', 'Lucid', 'Avant Garde', sans-serif" transform="translate(236.656875 28.98975)">Imputed Data Analysis (zscore)</text>
    <text style="font-size: 12px; font-family: 'Helvetica', 'Arial', 'DejaVu Sans', 'Bitstream Vera Sans', 'Computer Modern Sans Serif', 'Lucida Grande', 'Verdana', 'Geneva', 'Lucid', 'Avant Garde', sans-serif" transform="translate(258.315938 41.892)">r = -0.0811, r² = 0.0066</text>
   </g>
  </g>
 </g>
 <defs>
  <clipPath id="p36e7fae29c">
   <rect x="41.016562" y="47.892" width="558" height="443.52"/>
  </clipPath>
 </defs>
</svg>
