<?xml version="1.0" encoding="utf-8" standalone="no"?>
<!DOCTYPE svg PUBLIC "-//W3C//DTD SVG 1.1//EN"
  "http://www.w3.org/Graphics/SVG/1.1/DTD/svg11.dtd">
<svg xmlns:xlink="http://www.w3.org/1999/xlink" width="606.216563pt" height="530.162937pt" viewBox="0 0 606.216563 530.162937" xmlns="http://www.w3.org/2000/svg" version="1.1">
 <metadata>
  <rdf:RDF xmlns:dc="http://purl.org/dc/elements/1.1/" xmlns:cc="http://creativecommons.org/ns#" xmlns:rdf="http://www.w3.org/1999/02/22-rdf-syntax-ns#">
   <cc:Work>
    <dc:type rdf:resource="http://purl.org/dc/dcmitype/StillImage"/>
    <dc:date>2026-02-24T12:29:49.573930</dc:date>
    <dc:format>image/svg+xml</dc:format>
    <dc:creator>
     <cc:Agent>
      <dc:title>Matplotlib v3.10.5, https://matplotlib.org/</dc:title>
     </cc:Agent>
    </dc:creator>
   </cc:Work>
  </rdf:RDF>
 </metadata>
 <defs>
  <style type="text/css">*{stroke-linejoin: round; stroke-linecap: butt}</style>
 </defs>
 <g id="figure_1">
  <g id="patch_1">
   <path d="M 0 530.162937 
L 606.216563 530.162937 
L 606.216563 0 
L 0 0 
z
" style="fill: #ffffff"/>
  </g>
  <g id="axes_1">
   <g id="patch_2">
    <path d="M 41.016562 491.383875 
L 599.016562 491.383875 
L 599.016562 47.863875 
L 41.016562 47.863875 
z
" style="fill: #ffffff"/>
   </g>
   <g id="PathCollection_1">
    <defs>
     <path id="C0_0_74fa50cd28" d="M 0 5 
C 1.326016 5 2.597899 4.473168 3.535534 3.535534 
C 4.473168 2.597899 5 1.326016 5 -0 
C 5 -1.326016 4.473168 -2.597899 3.535534 -3.535534 
C 2.597899 -4.473168 1.326016 -5 0 -5 
C -1.326016 -5 -2.597899 -4.473168 -3.535534 -3.535534 
C -4.473168 -2.597899 -5 -1.326016 -5 0 
C -5 1.326016 -4.473168 2.597899 -3.535534 3.535534 
C -2.597899 4.473168 -1.326016 5 0 5 
z
"/>
    </defs>
    <g clip-path="url(#p830ed74897)">
     <use xlink:href="#C0_0_74fa50cd28" x="397.102124" y="186.982551" style="fill: #00008b"/>
    </g>
    <g clip-path="url(#p830ed74897)">
     <use xlink:href="#C0_0_74fa50cd28" x="504.027258" y="238.33379" style="fill: #00008b"/>
    </g>
    <g clip-path="url(#p830ed74897)">
     <use xlink:href="#C0_0_74fa50cd28" x="66.380199" y="471.223875" style="fill: #00008b"/>
    </g>
    <g clip-path="url(#p830ed74897)">
     <use xlink:href="#C0_0_74fa50cd28" x="573.652926" y="176.187623" style="fill: #00008b"/>
    </g>
    <g clip-path="url(#p830ed74897)">
     <use xlink:href="#C0_0_74fa50cd28" x="484.13421" y="169.111751" style="fill: #00008b"/>
    </g>
    <g clip-path="url(#p830ed74897)">
     <use xlink:href="#C0_0_74fa50cd28" x="240.44437" y="173.828466" style="fill: #00008b"/>
    </g>
    <g clip-path="url(#p830ed74897)">
     <use xlink:href="#C0_0_74fa50cd28" x="464.241161" y="68.023875" style="fill: #00008b"/>
    </g>
    <g clip-path="url(#p830ed74897)">
     <use xlink:href="#C0_0_74fa50cd28" x="285.203728" y="185.838717" style="fill: #00008b"/>
    </g>
   </g>
   <g id="matplotlib.axis_1">
    <g id="xtick_1">
     <g id="line2d_1">
      <defs>
       <path id="m5159ad12f1" d="M 0 0 
L 0 3.5 
" style="stroke: #000000; stroke-width: 0.8"/>
      </defs>
      <g>
       <use xlink:href="#m5159ad12f1" x="139.812619" y="491.383875" style="stroke: #000000; stroke-width: 0.8"/>
      </g>
     </g>
     <g id="text_1">
      <text style="font-size: 10px; font-family: 'Helvetica', 'Arial', 'DejaVu Sans', 'Bitstream Vera Sans', 'Computer Modern Sans Serif', 'Lucida Grande', 'Verdana', 'Geneva', 'Lucid', 'Avant Garde', sans-serif; text-anchor: middle" x="139.812619" y="505.557312" transform="rotate(-0 139.812619 505.557312)">−4</text>
     </g>
    </g>
    <g id="xtick_2">
     <g id="line2d_2">
      <g>
       <use xlink:href="#m5159ad12f1" x="247.321008" y="491.383875" style="stroke: #000000; stroke-width: 0.8"/>
      </g>
     </g>
     <g id="text_2">
      <text style="font-size: 10px; font-family: 'Helvetica', 'Arial', 'DejaVu Sans', 'Bitstream Vera Sans', 'Computer Modern Sans Serif', 'Lucida Grande', 'Verdana', 'Geneva', 'Lucid', 'Avant Garde', sans-serif; text-anchor: middle" x="247.321008" y="505.557312" transform="rotate(-0 247.321008 505.557312)">−2</text>
     </g>
    </g>
    <g id="xtick_3">
     <g id="line2d_3">
      <g>
       <use xlink:href="#m5159ad12f1" x="354.829397" y="491.383875" style="stroke: #000000; stroke-width: 0.8"/>
      </g>
     </g>
     <g id="text_3">
      <text style="font-size: 10px; font-family: 'Helvetica', 'Arial', 'DejaVu Sans', 'Bitstream Vera Sans', 'Computer Modern Sans Serif', 'Lucida Grande', 'Verdana', 'Geneva', 'Lucid', 'Avant Garde', sans-serif; text-anchor: middle" x="354.829397" y="505.557312" transform="rotate(-0 354.829397 505.557312)">0</text>
     </g>
    </g>
    <g id="xtick_4">
     <g id="line2d_4">
      <g>
       <use xlink:href="#m5159ad12f1" x="462.337786" y="491.383875" style="stroke: #000000; stroke-width: 0.8"/>
      </g>
     </g>
     <g id="text_4">
      <text style="font-size: 10px; font-family: 'Helvetica', 'Arial', 'DejaVu Sans', 'Bitstream Vera Sans', 'Computer Modern Sans Serif', 'Lucida Grande', 'Verdana', 'Geneva', 'Lucid', 'Avant Garde', sans-serif; text-anchor: middle" x="462.337786" y="505.557312" transform="rotate(-0 462.337786 505.557312)">2</text>
     </g>
    </g>
    <g id="xtick_5">
     <g id="line2d_5">
      <g>
       <use xlink:href="#m5159ad12f1" x="569.846175" y="491.383875" style="stroke: #000000; stroke-width: 0.8"/>
      </g>
     </g>
     <g id="text_5">
      <text style="font-size: 10px; font-family: 'Helvetica', 'Arial', 'DejaVu Sans', 'Bitstream Vera Sans', 'Computer Modern Sans Serif', 'Lucida Grande', 'Verdana', 'Geneva', 'Lucid', 'Avant Garde', sans-serif; text-anchor: middle" x="569.846175" y="505.557312" transform="rotate(-0 569.846175 505.557312)">4</text>
     </g>
    </g>
    <g id="text_6">
     <text style="font-size: 12px; font-family: 'Helvetica', 'Arial', 'DejaVu Sans', 'Bitstream Vera Sans', 'Computer Modern Sans Serif', 'Lucida Grande', 'Verdana', 'Geneva', 'Lucid', 'Avant Garde', sans-serif; text-anchor: middle" x="320.016563" y="520.390437" transform="rotate(-0 320.016563 520.390437)">H2B Intensity (Z-score)</text>
    </g>
    <g id="text_7">
     <text style="font-size: 10px; font-family: 'Helvetica', 'Arial', 'DejaVu Sans', 'Bitstream Vera Sans', 'Computer Modern Sans Serif', 'Lucida Grande', 'Verdana', 'Geneva', 'Lucid', 'Avant Garde', sans-serif; text-anchor: end" x="599.016562" y="517.815125" transform="rotate(-0 599.016562 517.815125)">1e−16</text>
    </g>
   </g>
   <g id="matplotlib.axis_2">
    <g id="ytick_1">
     <g id="line2d_6">
      <defs>
       <path id="m5097e60290" d="M 0 0 
L -3.5 0 
" style="stroke: #000000; stroke-width: 0.8"/>
      </defs>
      <g>
       <use xlink:href="#m5097e60290" x="41.016562" y="433.10437" style="stroke: #000000; stroke-width: 0.8"/>
      </g>
     </g>
     <g id="text_8">
      <text style="font-size: 10px; font-family: 'Helvetica', 'Arial', 'DejaVu Sans', 'Bitstream Vera Sans', 'Computer Modern Sans Serif', 'Lucida Grande', 'Verdana', 'Geneva', 'Lucid', 'Avant Garde', sans-serif; text-anchor: end" x="34.016562" y="436.691089" transform="rotate(-0 34.016562 436.691089)">−8</text>
     </g>
    </g>
    <g id="ytick_2">
     <g id="line2d_7">
      <g>
       <use xlink:href="#m5097e60290" x="41.016562" y="371.287957" style="stroke: #000000; stroke-width: 0.8"/>
      </g>
     </g>
     <g id="text_9">
      <text style="font-size: 10px; font-family: 'Helvetica', 'Arial', 'DejaVu Sans', 'Bitstream Vera Sans', 'Computer Modern Sans Serif', 'Lucida Grande', 'Verdana', 'Geneva', 'Lucid', 'Avant Garde', sans-serif; text-anchor: end" x="34.016562" y="374.874676" transform="rotate(-0 34.016562 374.874676)">−6</text>
     </g>
    </g>
    <g id="ytick_3">
     <g id="line2d_8">
      <g>
       <use xlink:href="#m5097e60290" x="41.016562" y="309.471544" style="stroke: #000000; stroke-width: 0.8"/>
      </g>
     </g>
     <g id="text_10">
      <text style="font-size: 10px; font-family: 'Helvetica', 'Arial', 'DejaVu Sans', 'Bitstream Vera Sans', 'Computer Modern Sans Serif', 'Lucida Grande', 'Verdana', 'Geneva', 'Lucid', 'Avant Garde', sans-serif; text-anchor: end" x="34.016562" y="313.058263" transform="rotate(-0 34.016562 313.058263)">−4</text>
     </g>
    </g>
    <g id="ytick_4">
     <g id="line2d_9">
      <g>
       <use xlink:href="#m5097e60290" x="41.016562" y="247.655131" style="stroke: #000000; stroke-width: 0.8"/>
      </g>
     </g>
     <g id="text_11">
      <text style="font-size: 10px; font-family: 'Helvetica', 'Arial', 'DejaVu Sans', 'Bitstream Vera Sans', 'Computer Modern Sans Serif', 'Lucida Grande', 'Verdana', 'Geneva', 'Lucid', 'Avant Garde', sans-serif; text-anchor: end" x="34.016562" y="251.241849" transform="rotate(-0 34.016562 251.241849)">−2</text>
     </g>
    </g>
    <g id="ytick_5">
     <g id="line2d_10">
      <g>
       <use xlink:href="#m5097e60290" x="41.016562" y="185.838717" style="stroke: #000000; stroke-width: 0.8"/>
      </g>
     </g>
     <g id="text_12">
      <text style="font-size: 10px; font-family: 'Helvetica', 'Arial', 'DejaVu Sans', 'Bitstream Vera Sans', 'Computer Modern Sans Serif', 'Lucida Grande', 'Verdana', 'Geneva', 'Lucid', 'Avant Garde', sans-serif; text-anchor: end" x="34.016562" y="189.425436" transform="rotate(-0 34.016562 189.425436)">0</text>
     </g>
    </g>
    <g id="ytick_6">
     <g id="line2d_11">
      <g>
       <use xlink:href="#m5097e60290" x="41.016562" y="124.022304" style="stroke: #000000; stroke-width: 0.8"/>
      </g>
     </g>
     <g id="text_13">
      <text style="font-size: 10px; font-family: 'Helvetica', 'Arial', 'DejaVu Sans', 'Bitstream Vera Sans', 'Computer Modern Sans Serif', 'Lucida Grande', 'Verdana', 'Geneva', 'Lucid', 'Avant Garde', sans-serif; text-anchor: end" x="34.016562" y="127.609023" transform="rotate(-0 34.016562 127.609023)">2</text>
     </g>
    </g>
    <g id="ytick_7">
     <g id="line2d_12">
      <g>
       <use xlink:href="#m5097e60290" x="41.016562" y="62.205891" style="stroke: #000000; stroke-width: 0.8"/>
      </g>
     </g>
     <g id="text_14">
      <text style="font-size: 10px; font-family: 'Helvetica', 'Arial', 'DejaVu Sans', 'Bitstream Vera Sans', 'Computer Modern Sans Serif', 'Lucida Grande', 'Verdana', 'Geneva', 'Lucid', 'Avant Garde', sans-serif; text-anchor: end" x="34.016562" y="65.79261" transform="rotate(-0 34.016562 65.79261)">4</text>
     </g>
    </g>
    <g id="text_15">
     <text style="font-size: 12px; font-family: 'Helvetica', 'Arial', 'DejaVu Sans', 'Bitstream Vera Sans', 'Computer Modern Sans Serif', 'Lucida Grande', 'Verdana', 'Geneva', 'Lucid', 'Avant Garde', sans-serif; text-anchor: middle" x="16.0425" y="269.623875" transform="rotate(-90 16.0425 269.623875)">VSV Intensity (Z-score)</text>
    </g>
    <g id="text_16">
     <text style="font-size: 10px; font-family: 'Helvetica', 'Arial', 'DejaVu Sans', 'Bitstream Vera Sans', 'Computer Modern Sans Serif', 'Lucida Grande', 'Verdana', 'Geneva', 'Lucid', 'Avant Garde', sans-serif; text-anchor: start" x="41.016562" y="44.863875" transform="rotate(-0 41.016562 44.863875)">1e−15</text>
    </g>
   </g>
   <g id="line2d_13">
    <path d="M 66.380199 356.628703 
L 71.504166 354.187537 
L 76.628133 351.746371 
L 81.7521 349.305204 
L 86.876067 346.864038 
L 92.000034 344.422872 
L 97.124001 341.981705 
L 102.247967 339.540539 
L 107.371934 337.099373 
L 112.495901 334.658206 
L 117.619868 332.21704 
L 122.743835 329.775874 
L 127.867802 327.334707 
L 132.991769 324.893541 
L 138.115736 322.452375 
L 143.239703 320.011208 
L 148.36367 317.570042 
L 153.487637 315.128876 
L 158.611604 312.687709 
L 163.735571 310.246543 
L 168.859538 307.805377 
L 173.983505 305.36421 
L 179.107472 302.923044 
L 184.231439 300.481878 
L 189.355405 298.040711 
L 194.479372 295.599545 
L 199.603339 293.158379 
L 204.727306 290.717212 
L 209.851273 288.276046 
L 214.97524 285.83488 
L 220.099207 283.393713 
L 225.223174 280.952547 
L 230.347141 278.511381 
L 235.471108 276.070214 
L 240.595075 273.629048 
L 245.719042 271.187882 
L 250.843009 268.746715 
L 255.966976 266.305549 
L 261.090943 263.864383 
L 266.21491 261.423216 
L 271.338877 258.98205 
L 276.462843 256.540884 
L 281.58681 254.099717 
L 286.710777 251.658551 
L 291.834744 249.217385 
L 296.958711 246.776218 
L 302.082678 244.335052 
L 307.206645 241.893886 
L 312.330612 239.452719 
L 317.454579 237.011553 
L 322.578546 234.570387 
L 327.702513 232.12922 
L 332.82648 229.688054 
L 337.950447 227.246888 
L 343.074414 224.805721 
L 348.198381 222.364555 
L 353.322348 219.923389 
L 358.446315 217.482222 
L 363.570282 215.041056 
L 368.694248 212.59989 
L 373.818215 210.158723 
L 378.942182 207.717557 
L 384.066149 205.276391 
L 389.190116 202.835224 
L 394.314083 200.394058 
L 399.43805 197.952892 
L 404.562017 195.511725 
L 409.685984 193.070559 
L 414.809951 190.629393 
L 419.933918 188.188226 
L 425.057885 185.74706 
L 430.181852 183.305894 
L 435.305819 180.864727 
L 440.429786 178.423561 
L 445.553753 175.982395 
L 450.67772 173.541228 
L 455.801686 171.100062 
L 460.925653 168.658896 
L 466.04962 166.217729 
L 471.173587 163.776563 
L 476.297554 161.335397 
L 481.421521 158.89423 
L 486.545488 156.453064 
L 491.669455 154.011898 
L 496.793422 151.570731 
L 501.917389 149.129565 
L 507.041356 146.688399 
L 512.165323 144.247232 
L 517.28929 141.806066 
L 522.413257 139.3649 
L 527.537224 136.923733 
L 532.661191 134.482567 
L 537.785158 132.041401 
L 542.909124 129.600234 
L 548.033091 127.159068 
L 553.157058 124.717902 
L 558.281025 122.276735 
L 563.404992 119.835569 
L 568.528959 117.394403 
L 573.652926 114.953236 
" clip-path="url(#p830ed74897)" style="fill: none; stroke: #000000; stroke-width: 2; stroke-linecap: square"/>
   </g>
   <g id="patch_3">
    <path d="M 41.016562 491.383875 
L 41.016562 47.863875 
" style="fill: none; stroke: #000000; stroke-width: 0.8; stroke-linejoin: miter; stroke-linecap: square"/>
   </g>
   <g id="patch_4">
    <path d="M 41.016563 491.383875 
L 599.016562 491.383875 
" style="fill: none; stroke: #000000; stroke-width: 0.8; stroke-linejoin: miter; stroke-linecap: square"/>
   </g>
   <g id="text_17">
    <text style="font-size: 9px; font-family: 'Helvetica', 'Arial', 'DejaVu Sans', 'Bitstream Vera Sans', 'Computer Modern Sans Serif', 'Lucida Grande', 'Verdana', 'Geneva', 'Lucid', 'Avant Garde', sans-serif; text-anchor: start" x="402.102124" y="181.982551" transform="rotate(-0 402.102124 181.982551)">A</text>
   </g>
   <g id="text_18">
    <text style="font-size: 9px; font-family: 'Helvetica', 'Arial', 'DejaVu Sans', 'Bitstream Vera Sans', 'Computer Modern Sans Serif', 'Lucida Grande', 'Verdana', 'Geneva', 'Lucid', 'Avant Garde', sans-serif; text-anchor: start" x="509.027258" y="233.33379" transform="rotate(-0 509.027258 233.33379)">AL</text>
   </g>
   <g id="text_19">
    <text style="font-size: 9px; font-family: 'Helvetica', 'Arial', 'DejaVu Sans', 'Bitstream Vera Sans', 'Computer Modern Sans Serif', 'Lucida Grande', 'Verdana', 'Geneva', 'Lucid', 'Avant Garde', sans-serif; text-anchor: start" x="71.380199" y="466.223875" transform="rotate(-0 71.380199 466.223875)">AM</text>
   </g>
   <g id="text_20">
    <text style="font-size: 9px; font-family: 'Helvetica', 'Arial', 'DejaVu Sans', 'Bitstream Vera Sans', 'Computer Modern Sans Serif', 'Lucida Grande', 'Verdana', 'Geneva', 'Lucid', 'Avant Garde', sans-serif; text-anchor: start" x="578.652926" y="171.187623" transform="rotate(-0 578.652926 171.187623)">LM</text>
   </g>
   <g id="text_21">
    <text style="font-size: 9px; font-family: 'Helvetica', 'Arial', 'DejaVu Sans', 'Bitstream Vera Sans', 'Computer Modern Sans Serif', 'Lucida Grande', 'Verdana', 'Geneva', 'Lucid', 'Avant Garde', sans-serif; text-anchor: start" x="489.13421" y="164.111751" transform="rotate(-0 489.13421 164.111751)">LI</text>
   </g>
   <g id="text_22">
    <text style="font-size: 9px; font-family: 'Helvetica', 'Arial', 'DejaVu Sans', 'Bitstream Vera Sans', 'Computer Modern Sans Serif', 'Lucida Grande', 'Verdana', 'Geneva', 'Lucid', 'Avant Garde', sans-serif; text-anchor: start" x="245.44437" y="168.828466" transform="rotate(-0 245.44437 168.828466)">PM</text>
   </g>
   <g id="text_23">
    <text style="font-size: 9px; font-family: 'Helvetica', 'Arial', 'DejaVu Sans', 'Bitstream Vera Sans', 'Computer Modern Sans Serif', 'Lucida Grande', 'Verdana', 'Geneva', 'Lucid', 'Avant Garde', sans-serif; text-anchor: start" x="469.241161" y="63.023875" transform="rotate(-0 469.241161 63.023875)">POR</text>
   </g>
   <g id="text_24">
    <text style="font-size: 9px; font-family: 'Helvetica', 'Arial', 'DejaVu Sans', 'Bitstream Vera Sans', 'Computer Modern Sans Serif', 'Lucida Grande', 'Verdana', 'Geneva', 'Lucid', 'Avant Garde', sans-serif; text-anchor: start" x="290.203728" y="180.838717" transform="rotate(-0 290.203728 180.838717)">RL</text>
   </g>
   <g id="text_25">
    <text style="font-size: 12px; font-family: 'Helvetica', 'Arial', 'DejaVu Sans', 'Bitstream Vera Sans', 'Computer Modern Sans Serif', 'Lucida Grande', 'Verdana', 'Geneva', 'Lucid', 'Avant Garde', sans-serif" transform="translate(274.3275 15.808125)">p12 - All Regions</text>
    <text style="font-size: 12px; font-family: 'Helvetica', 'Arial', 'DejaVu Sans', 'Bitstream Vera Sans', 'Computer Modern Sans Serif', 'Lucida Grande', 'Verdana', 'Geneva', 'Lucid', 'Avant Garde', sans-serif" transform="translate(236.656875 28.961625)">Imputed Data Analysis (zscore)</text>
    <text style="font-size: 12px; font-family: 'Helvetica', 'Arial', 'DejaVu Sans', 'Bitstream Vera Sans', 'Computer Modern Sans Serif', 'Lucida Grande', 'Verdana', 'Geneva', 'Lucid', 'Avant Garde', sans-serif" transform="translate(260.31375 41.863875)">r = 0.6897, r² = 0.4756</text>
   </g>
  </g>
 </g>
 <defs>
  <clipPath id="p830ed74897">
   <rect x="41.016562" y="47.863875" width="558" height="443.52"/>
  </clipPath>
 </defs>
</svg>
