<?xml version="1.0" encoding="utf-8" standalone="no"?>
<!DOCTYPE svg PUBLIC "-//W3C//DTD SVG 1.1//EN"
  "http://www.w3.org/Graphics/SVG/1.1/DTD/svg11.dtd">
<svg xmlns:xlink="http://www.w3.org/1999/xlink" width="608.715pt" height="530.162937pt" viewBox="0 0 608.715 530.162937" xmlns="http://www.w3.org/2000/svg" version="1.1">
 <metadata>
  <rdf:RDF xmlns:dc="http://purl.org/dc/elements/1.1/" xmlns:cc="http://creativecommons.org/ns#" xmlns:rdf="http://www.w3.org/1999/02/22-rdf-syntax-ns#">
   <cc:Work>
    <dc:type rdf:resource="http://purl.org/dc/dcmitype/StillImage"/>
    <dc:date>2026-02-24T12:29:49.765345</dc:date>
    <dc:format>image/svg+xml</dc:format>
    <dc:creator>
     <cc:Agent>
      <dc:title>Matplotlib v3.10.5, https://matplotlib.org/</dc:title>
     </cc:Agent>
    </dc:creator>
   </cc:Work>
  </rdf:RDF>
 </metadata>
 <defs>
  <style type="text/css">*{stroke-linejoin: round; stroke-linecap: butt}</style>
 </defs>
 <g id="figure_1">
  <g id="patch_1">
   <path d="M 0 530.162937 
L 608.715 530.162937 
L 608.715 0 
L 0 0 
z
" style="fill: #ffffff"/>
  </g>
  <g id="axes_1">
   <g id="patch_2">
    <path d="M 43.515 491.383875 
L 601.515 491.383875 
L 601.515 47.863875 
L 43.515 47.863875 
z
" style="fill: #ffffff"/>
   </g>
   <g id="PathCollection_1">
    <defs>
     <path id="C0_0_a9d001cb75" d="M 0 5 
C 1.326016 5 2.597899 4.473168 3.535534 3.535534 
C 4.473168 2.597899 5 1.326016 5 -0 
C 5 -1.326016 4.473168 -2.597899 3.535534 -3.535534 
C 2.597899 -4.473168 1.326016 -5 0 -5 
C -1.326016 -5 -2.597899 -4.473168 -3.535534 -3.535534 
C -4.473168 -2.597899 -5 -1.326016 -5 0 
C -5 1.326016 -4.473168 2.597899 -3.535534 3.535534 
C -2.597899 4.473168 -1.326016 5 0 5 
z
"/>
    </defs>
    <g clip-path="url(#p278d712ff8)">
     <use xlink:href="#C0_0_a9d001cb75" x="68.878636" y="415.462173" style="fill: #00008b"/>
    </g>
    <g clip-path="url(#p278d712ff8)">
     <use xlink:href="#C0_0_a9d001cb75" x="68.878636" y="421.896215" style="fill: #00008b"/>
    </g>
    <g clip-path="url(#p278d712ff8)">
     <use xlink:href="#C0_0_a9d001cb75" x="68.878636" y="449.777066" style="fill: #00008b"/>
    </g>
    <g clip-path="url(#p278d712ff8)">
     <use xlink:href="#C0_0_a9d001cb75" x="68.878636" y="385.436641" style="fill: #00008b"/>
    </g>
    <g clip-path="url(#p278d712ff8)">
     <use xlink:href="#C0_0_a9d001cb75" x="68.878636" y="68.023875" style="fill: #00008b"/>
    </g>
    <g clip-path="url(#p278d712ff8)">
     <use xlink:href="#C0_0_a9d001cb75" x="68.878636" y="376.857918" style="fill: #00008b"/>
    </g>
    <g clip-path="url(#p278d712ff8)">
     <use xlink:href="#C0_0_a9d001cb75" x="576.151364" y="428.330258" style="fill: #00008b"/>
    </g>
    <g clip-path="url(#p278d712ff8)">
     <use xlink:href="#C0_0_a9d001cb75" x="68.878636" y="471.223875" style="fill: #00008b"/>
    </g>
   </g>
   <g id="matplotlib.axis_1">
    <g id="xtick_1">
     <g id="line2d_1">
      <defs>
       <path id="m529e77c057" d="M 0 0 
L 0 3.5 
" style="stroke: #000000; stroke-width: 0.8"/>
      </defs>
      <g>
       <use xlink:href="#m529e77c057" x="68.878636" y="491.383875" style="stroke: #000000; stroke-width: 0.8"/>
      </g>
     </g>
     <g id="text_1">
      <text style="font-size: 10px; font-family: 'Helvetica', 'Arial', 'DejaVu Sans', 'Bitstream Vera Sans', 'Computer Modern Sans Serif', 'Lucida Grande', 'Verdana', 'Geneva', 'Lucid', 'Avant Garde', sans-serif; text-anchor: middle" x="68.878636" y="505.557312" transform="rotate(-0 68.878636 505.557312)">0</text>
     </g>
    </g>
    <g id="xtick_2">
     <g id="line2d_2">
      <g>
       <use xlink:href="#m529e77c057" x="172.442171" y="491.383875" style="stroke: #000000; stroke-width: 0.8"/>
      </g>
     </g>
     <g id="text_2">
      <text style="font-size: 10px; font-family: 'Helvetica', 'Arial', 'DejaVu Sans', 'Bitstream Vera Sans', 'Computer Modern Sans Serif', 'Lucida Grande', 'Verdana', 'Geneva', 'Lucid', 'Avant Garde', sans-serif; text-anchor: middle" x="172.442171" y="505.557312" transform="rotate(-0 172.442171 505.557312)">1</text>
     </g>
    </g>
    <g id="xtick_3">
     <g id="line2d_3">
      <g>
       <use xlink:href="#m529e77c057" x="276.005706" y="491.383875" style="stroke: #000000; stroke-width: 0.8"/>
      </g>
     </g>
     <g id="text_3">
      <text style="font-size: 10px; font-family: 'Helvetica', 'Arial', 'DejaVu Sans', 'Bitstream Vera Sans', 'Computer Modern Sans Serif', 'Lucida Grande', 'Verdana', 'Geneva', 'Lucid', 'Avant Garde', sans-serif; text-anchor: middle" x="276.005706" y="505.557312" transform="rotate(-0 276.005706 505.557312)">2</text>
     </g>
    </g>
    <g id="xtick_4">
     <g id="line2d_4">
      <g>
       <use xlink:href="#m529e77c057" x="379.56924" y="491.383875" style="stroke: #000000; stroke-width: 0.8"/>
      </g>
     </g>
     <g id="text_4">
      <text style="font-size: 10px; font-family: 'Helvetica', 'Arial', 'DejaVu Sans', 'Bitstream Vera Sans', 'Computer Modern Sans Serif', 'Lucida Grande', 'Verdana', 'Geneva', 'Lucid', 'Avant Garde', sans-serif; text-anchor: middle" x="379.56924" y="505.557312" transform="rotate(-0 379.56924 505.557312)">3</text>
     </g>
    </g>
    <g id="xtick_5">
     <g id="line2d_5">
      <g>
       <use xlink:href="#m529e77c057" x="483.132775" y="491.383875" style="stroke: #000000; stroke-width: 0.8"/>
      </g>
     </g>
     <g id="text_5">
      <text style="font-size: 10px; font-family: 'Helvetica', 'Arial', 'DejaVu Sans', 'Bitstream Vera Sans', 'Computer Modern Sans Serif', 'Lucida Grande', 'Verdana', 'Geneva', 'Lucid', 'Avant Garde', sans-serif; text-anchor: middle" x="483.132775" y="505.557312" transform="rotate(-0 483.132775 505.557312)">4</text>
     </g>
    </g>
    <g id="xtick_6">
     <g id="line2d_6">
      <g>
       <use xlink:href="#m529e77c057" x="586.69631" y="491.383875" style="stroke: #000000; stroke-width: 0.8"/>
      </g>
     </g>
     <g id="text_6">
      <text style="font-size: 10px; font-family: 'Helvetica', 'Arial', 'DejaVu Sans', 'Bitstream Vera Sans', 'Computer Modern Sans Serif', 'Lucida Grande', 'Verdana', 'Geneva', 'Lucid', 'Avant Garde', sans-serif; text-anchor: middle" x="586.69631" y="505.557312" transform="rotate(-0 586.69631 505.557312)">5</text>
     </g>
    </g>
    <g id="text_7">
     <text style="font-size: 12px; font-family: 'Helvetica', 'Arial', 'DejaVu Sans', 'Bitstream Vera Sans', 'Computer Modern Sans Serif', 'Lucida Grande', 'Verdana', 'Geneva', 'Lucid', 'Avant Garde', sans-serif; text-anchor: middle" x="322.515" y="520.390437" transform="rotate(-0 322.515 520.390437)">H2B Intensity (Z-score)</text>
    </g>
   </g>
   <g id="matplotlib.axis_2">
    <g id="ytick_1">
     <g id="line2d_7">
      <defs>
       <path id="m30ad567beb" d="M 0 0 
L -3.5 0 
" style="stroke: #000000; stroke-width: 0.8"/>
      </defs>
      <g>
       <use xlink:href="#m30ad567beb" x="43.515" y="428.330258" style="stroke: #000000; stroke-width: 0.8"/>
      </g>
     </g>
     <g id="text_8">
      <text style="font-size: 10px; font-family: 'Helvetica', 'Arial', 'DejaVu Sans', 'Bitstream Vera Sans', 'Computer Modern Sans Serif', 'Lucida Grande', 'Verdana', 'Geneva', 'Lucid', 'Avant Garde', sans-serif; text-anchor: end" x="36.515" y="431.916977" transform="rotate(-0 36.515 431.916977)">0.0</text>
     </g>
    </g>
    <g id="ytick_2">
     <g id="line2d_8">
      <g>
       <use xlink:href="#m30ad567beb" x="43.515" y="351.059987" style="stroke: #000000; stroke-width: 0.8"/>
      </g>
     </g>
     <g id="text_9">
      <text style="font-size: 10px; font-family: 'Helvetica', 'Arial', 'DejaVu Sans', 'Bitstream Vera Sans', 'Computer Modern Sans Serif', 'Lucida Grande', 'Verdana', 'Geneva', 'Lucid', 'Avant Garde', sans-serif; text-anchor: end" x="36.515" y="354.646706" transform="rotate(-0 36.515 354.646706)">0.5</text>
     </g>
    </g>
    <g id="ytick_3">
     <g id="line2d_9">
      <g>
       <use xlink:href="#m30ad567beb" x="43.515" y="273.789716" style="stroke: #000000; stroke-width: 0.8"/>
      </g>
     </g>
     <g id="text_10">
      <text style="font-size: 10px; font-family: 'Helvetica', 'Arial', 'DejaVu Sans', 'Bitstream Vera Sans', 'Computer Modern Sans Serif', 'Lucida Grande', 'Verdana', 'Geneva', 'Lucid', 'Avant Garde', sans-serif; text-anchor: end" x="36.515" y="277.376435" transform="rotate(-0 36.515 277.376435)">1.0</text>
     </g>
    </g>
    <g id="ytick_4">
     <g id="line2d_10">
      <g>
       <use xlink:href="#m30ad567beb" x="43.515" y="196.519445" style="stroke: #000000; stroke-width: 0.8"/>
      </g>
     </g>
     <g id="text_11">
      <text style="font-size: 10px; font-family: 'Helvetica', 'Arial', 'DejaVu Sans', 'Bitstream Vera Sans', 'Computer Modern Sans Serif', 'Lucida Grande', 'Verdana', 'Geneva', 'Lucid', 'Avant Garde', sans-serif; text-anchor: end" x="36.515" y="200.106164" transform="rotate(-0 36.515 200.106164)">1.5</text>
     </g>
    </g>
    <g id="ytick_5">
     <g id="line2d_11">
      <g>
       <use xlink:href="#m30ad567beb" x="43.515" y="119.249174" style="stroke: #000000; stroke-width: 0.8"/>
      </g>
     </g>
     <g id="text_12">
      <text style="font-size: 10px; font-family: 'Helvetica', 'Arial', 'DejaVu Sans', 'Bitstream Vera Sans', 'Computer Modern Sans Serif', 'Lucida Grande', 'Verdana', 'Geneva', 'Lucid', 'Avant Garde', sans-serif; text-anchor: end" x="36.515" y="122.835893" transform="rotate(-0 36.515 122.835893)">2.0</text>
     </g>
    </g>
    <g id="text_13">
     <text style="font-size: 12px; font-family: 'Helvetica', 'Arial', 'DejaVu Sans', 'Bitstream Vera Sans', 'Computer Modern Sans Serif', 'Lucida Grande', 'Verdana', 'Geneva', 'Lucid', 'Avant Garde', sans-serif; text-anchor: middle" x="16.0425" y="269.623875" transform="rotate(-90 16.0425 269.623875)">VSV Intensity (Z-score)</text>
    </g>
    <g id="text_14">
     <text style="font-size: 10px; font-family: 'Helvetica', 'Arial', 'DejaVu Sans', 'Bitstream Vera Sans', 'Computer Modern Sans Serif', 'Lucida Grande', 'Verdana', 'Geneva', 'Lucid', 'Avant Garde', sans-serif; text-anchor: start" x="43.515" y="44.863875" transform="rotate(-0 43.515 44.863875)">1e−15</text>
    </g>
   </g>
   <g id="line2d_12">
    <path d="M 68.878636 369.811109 
L 74.002603 370.402212 
L 79.12657 370.993314 
L 84.250537 371.584417 
L 89.374504 372.175519 
L 94.498471 372.766622 
L 99.622438 373.357724 
L 104.746405 373.948827 
L 109.870372 374.539929 
L 114.994339 375.131032 
L 120.118306 375.722134 
L 125.242273 376.313237 
L 130.36624 376.904339 
L 135.490207 377.495442 
L 140.614174 378.086544 
L 145.73814 378.677647 
L 150.862107 379.268749 
L 155.986074 379.859852 
L 161.110041 380.450954 
L 166.234008 381.042057 
L 171.357975 381.633159 
L 176.481942 382.224262 
L 181.605909 382.815364 
L 186.729876 383.406467 
L 191.853843 383.997569 
L 196.97781 384.588672 
L 202.101777 385.179774 
L 207.225744 385.770877 
L 212.349711 386.361979 
L 217.473678 386.953082 
L 222.597645 387.544184 
L 227.721612 388.135287 
L 232.845579 388.72639 
L 237.969545 389.317492 
L 243.093512 389.908595 
L 248.217479 390.499697 
L 253.341446 391.0908 
L 258.465413 391.681902 
L 263.58938 392.273005 
L 268.713347 392.864107 
L 273.837314 393.45521 
L 278.961281 394.046312 
L 284.085248 394.637415 
L 289.209215 395.228517 
L 294.333182 395.81962 
L 299.457149 396.410722 
L 304.581116 397.001825 
L 309.705083 397.592927 
L 314.82905 398.18403 
L 319.953017 398.775132 
L 325.076983 399.366235 
L 330.20095 399.957337 
L 335.324917 400.54844 
L 340.448884 401.139542 
L 345.572851 401.730645 
L 350.696818 402.321747 
L 355.820785 402.91285 
L 360.944752 403.503952 
L 366.068719 404.095055 
L 371.192686 404.686157 
L 376.316653 405.27726 
L 381.44062 405.868362 
L 386.564587 406.459465 
L 391.688554 407.050567 
L 396.812521 407.64167 
L 401.936488 408.232772 
L 407.060455 408.823875 
L 412.184421 409.414978 
L 417.308388 410.00608 
L 422.432355 410.597183 
L 427.556322 411.188285 
L 432.680289 411.779388 
L 437.804256 412.37049 
L 442.928223 412.961593 
L 448.05219 413.552695 
L 453.176157 414.143798 
L 458.300124 414.7349 
L 463.424091 415.326003 
L 468.548058 415.917105 
L 473.672025 416.508208 
L 478.795992 417.09931 
L 483.919959 417.690413 
L 489.043926 418.281515 
L 494.167893 418.872618 
L 499.29186 419.46372 
L 504.415826 420.054823 
L 509.539793 420.645925 
L 514.66376 421.237028 
L 519.787727 421.82813 
L 524.911694 422.419233 
L 530.035661 423.010335 
L 535.159628 423.601438 
L 540.283595 424.19254 
L 545.407562 424.783643 
L 550.531529 425.374745 
L 555.655496 425.965848 
L 560.779463 426.55695 
L 565.90343 427.148053 
L 571.027397 427.739155 
L 576.151364 428.330258 
" clip-path="url(#p278d712ff8)" style="fill: none; stroke: #000000; stroke-width: 2; stroke-linecap: square"/>
   </g>
   <g id="patch_3">
    <path d="M 43.515 491.383875 
L 43.515 47.863875 
" style="fill: none; stroke: #000000; stroke-width: 0.8; stroke-linejoin: miter; stroke-linecap: square"/>
   </g>
   <g id="patch_4">
    <path d="M 43.515 491.383875 
L 601.515 491.383875 
" style="fill: none; stroke: #000000; stroke-width: 0.8; stroke-linejoin: miter; stroke-linecap: square"/>
   </g>
   <g id="text_15">
    <text style="font-size: 9px; font-family: 'Helvetica', 'Arial', 'DejaVu Sans', 'Bitstream Vera Sans', 'Computer Modern Sans Serif', 'Lucida Grande', 'Verdana', 'Geneva', 'Lucid', 'Avant Garde', sans-serif; text-anchor: start" x="73.878636" y="410.462173" transform="rotate(-0 73.878636 410.462173)">A</text>
   </g>
   <g id="text_16">
    <text style="font-size: 9px; font-family: 'Helvetica', 'Arial', 'DejaVu Sans', 'Bitstream Vera Sans', 'Computer Modern Sans Serif', 'Lucida Grande', 'Verdana', 'Geneva', 'Lucid', 'Avant Garde', sans-serif; text-anchor: start" x="73.878636" y="416.896215" transform="rotate(-0 73.878636 416.896215)">AL</text>
   </g>
   <g id="text_17">
    <text style="font-size: 9px; font-family: 'Helvetica', 'Arial', 'DejaVu Sans', 'Bitstream Vera Sans', 'Computer Modern Sans Serif', 'Lucida Grande', 'Verdana', 'Geneva', 'Lucid', 'Avant Garde', sans-serif; text-anchor: start" x="73.878636" y="444.777066" transform="rotate(-0 73.878636 444.777066)">AM</text>
   </g>
   <g id="text_18">
    <text style="font-size: 9px; font-family: 'Helvetica', 'Arial', 'DejaVu Sans', 'Bitstream Vera Sans', 'Computer Modern Sans Serif', 'Lucida Grande', 'Verdana', 'Geneva', 'Lucid', 'Avant Garde', sans-serif; text-anchor: start" x="73.878636" y="380.436641" transform="rotate(-0 73.878636 380.436641)">LM</text>
   </g>
   <g id="text_19">
    <text style="font-size: 9px; font-family: 'Helvetica', 'Arial', 'DejaVu Sans', 'Bitstream Vera Sans', 'Computer Modern Sans Serif', 'Lucida Grande', 'Verdana', 'Geneva', 'Lucid', 'Avant Garde', sans-serif; text-anchor: start" x="73.878636" y="63.023875" transform="rotate(-0 73.878636 63.023875)">LI</text>
   </g>
   <g id="text_20">
    <text style="font-size: 9px; font-family: 'Helvetica', 'Arial', 'DejaVu Sans', 'Bitstream Vera Sans', 'Computer Modern Sans Serif', 'Lucida Grande', 'Verdana', 'Geneva', 'Lucid', 'Avant Garde', sans-serif; text-anchor: start" x="73.878636" y="371.857918" transform="rotate(-0 73.878636 371.857918)">PM</text>
   </g>
   <g id="text_21">
    <text style="font-size: 9px; font-family: 'Helvetica', 'Arial', 'DejaVu Sans', 'Bitstream Vera Sans', 'Computer Modern Sans Serif', 'Lucida Grande', 'Verdana', 'Geneva', 'Lucid', 'Avant Garde', sans-serif; text-anchor: start" x="581.151364" y="423.330258" transform="rotate(-0 581.151364 423.330258)">POR</text>
   </g>
   <g id="text_22">
    <text style="font-size: 9px; font-family: 'Helvetica', 'Arial', 'DejaVu Sans', 'Bitstream Vera Sans', 'Computer Modern Sans Serif', 'Lucida Grande', 'Verdana', 'Geneva', 'Lucid', 'Avant Garde', sans-serif; text-anchor: start" x="73.878636" y="466.223875" transform="rotate(-0 73.878636 466.223875)">RL</text>
   </g>
   <g id="text_23">
    <text style="font-size: 12px; font-family: 'Helvetica', 'Arial', 'DejaVu Sans', 'Bitstream Vera Sans', 'Computer Modern Sans Serif', 'Lucida Grande', 'Verdana', 'Geneva', 'Lucid', 'Avant Garde', sans-serif" transform="translate(276.825938 15.808125)">p20 - All Regions</text>
    <text style="font-size: 12px; font-family: 'Helvetica', 'Arial', 'DejaVu Sans', 'Bitstream Vera Sans', 'Computer Modern Sans Serif', 'Lucida Grande', 'Verdana', 'Geneva', 'Lucid', 'Avant Garde', sans-serif" transform="translate(239.155312 28.961625)">Imputed Data Analysis (zscore)</text>
    <text style="font-size: 12px; font-family: 'Helvetica', 'Arial', 'DejaVu Sans', 'Bitstream Vera Sans', 'Computer Modern Sans Serif', 'Lucida Grande', 'Verdana', 'Geneva', 'Lucid', 'Avant Garde', sans-serif" transform="translate(260.814375 41.863875)">r = -0.1608, r² = 0.0259</text>
   </g>
  </g>
 </g>
 <defs>
  <clipPath id="p278d712ff8">
   <rect x="43.515" y="47.863875" width="558" height="443.52"/>
  </clipPath>
 </defs>
</svg>
