<?xml version="1.0" encoding="utf-8" standalone="no"?>
<!DOCTYPE svg PUBLIC "-//W3C//DTD SVG 1.1//EN"
  "http://www.w3.org/Graphics/SVG/1.1/DTD/svg11.dtd">
<svg xmlns:xlink="http://www.w3.org/1999/xlink" width="614.555625pt" height="530.162937pt" viewBox="0 0 614.555625 530.162937" xmlns="http://www.w3.org/2000/svg" version="1.1">
 <metadata>
  <rdf:RDF xmlns:dc="http://purl.org/dc/elements/1.1/" xmlns:cc="http://creativecommons.org/ns#" xmlns:rdf="http://www.w3.org/1999/02/22-rdf-syntax-ns#">
   <cc:Work>
    <dc:type rdf:resource="http://purl.org/dc/dcmitype/StillImage"/>
    <dc:date>2026-02-24T12:29:49.371530</dc:date>
    <dc:format>image/svg+xml</dc:format>
    <dc:creator>
     <cc:Agent>
      <dc:title>Matplotlib v3.10.5, https://matplotlib.org/</dc:title>
     </cc:Agent>
    </dc:creator>
   </cc:Work>
  </rdf:RDF>
 </metadata>
 <defs>
  <style type="text/css">*{stroke-linejoin: round; stroke-linecap: butt}</style>
 </defs>
 <g id="figure_1">
  <g id="patch_1">
   <path d="M 0 530.162937 
L 614.555625 530.162937 
L 614.555625 0 
L 0 0 
z
" style="fill: #ffffff"/>
  </g>
  <g id="axes_1">
   <g id="patch_2">
    <path d="M 49.355625 491.383875 
L 607.355625 491.383875 
L 607.355625 47.863875 
L 49.355625 47.863875 
z
" style="fill: #ffffff"/>
   </g>
   <g id="PathCollection_1">
    <defs>
     <path id="C0_0_caded8615d" d="M 0 5 
C 1.326016 5 2.597899 4.473168 3.535534 3.535534 
C 4.473168 2.597899 5 1.326016 5 -0 
C 5 -1.326016 4.473168 -2.597899 3.535534 -3.535534 
C 2.597899 -4.473168 1.326016 -5 0 -5 
C -1.326016 -5 -2.597899 -4.473168 -3.535534 -3.535534 
C -4.473168 -2.597899 -5 -1.326016 -5 0 
C -5 1.326016 -4.473168 2.597899 -3.535534 3.535534 
C -2.597899 4.473168 -1.326016 5 0 5 
z
"/>
    </defs>
    <g clip-path="url(#p32aed5f4e8)">
     <use xlink:href="#C0_0_caded8615d" x="480.537443" y="385.97395" style="fill: #00008b"/>
    </g>
    <g clip-path="url(#p32aed5f4e8)">
     <use xlink:href="#C0_0_caded8615d" x="535.876286" y="398.406231" style="fill: #00008b"/>
    </g>
    <g clip-path="url(#p32aed5f4e8)">
     <use xlink:href="#C0_0_caded8615d" x="517.430005" y="384.302383" style="fill: #00008b"/>
    </g>
    <g clip-path="url(#p32aed5f4e8)">
     <use xlink:href="#C0_0_caded8615d" x="471.314303" y="397.67492" style="fill: #00008b"/>
    </g>
    <g clip-path="url(#p32aed5f4e8)">
     <use xlink:href="#C0_0_caded8615d" x="480.537443" y="471.223875" style="fill: #00008b"/>
    </g>
    <g clip-path="url(#p32aed5f4e8)">
     <use xlink:href="#C0_0_caded8615d" x="581.991989" y="454.508203" style="fill: #00008b"/>
    </g>
    <g clip-path="url(#p32aed5f4e8)">
     <use xlink:href="#C0_0_caded8615d" x="74.719261" y="68.023875" style="fill: #00008b"/>
    </g>
    <g clip-path="url(#p32aed5f4e8)">
     <use xlink:href="#C0_0_caded8615d" x="554.322567" y="390.988651" style="fill: #00008b"/>
    </g>
   </g>
   <g id="matplotlib.axis_1">
    <g id="xtick_1">
     <g id="line2d_1">
      <defs>
       <path id="m6f74b37b10" d="M 0 0 
L 0 3.5 
" style="stroke: #000000; stroke-width: 0.8"/>
      </defs>
      <g>
       <use xlink:href="#m6f74b37b10" x="120.502965" y="491.383875" style="stroke: #000000; stroke-width: 0.8"/>
      </g>
     </g>
     <g id="text_1">
      <text style="font-size: 10px; font-family: 'Helvetica', 'Arial', 'DejaVu Sans', 'Bitstream Vera Sans', 'Computer Modern Sans Serif', 'Lucida Grande', 'Verdana', 'Geneva', 'Lucid', 'Avant Garde', sans-serif; text-anchor: middle" x="120.502965" y="505.557312" transform="rotate(-0 120.502965 505.557312)">−2.0</text>
     </g>
    </g>
    <g id="xtick_2">
     <g id="line2d_2">
      <g>
       <use xlink:href="#m6f74b37b10" x="224.346295" y="491.383875" style="stroke: #000000; stroke-width: 0.8"/>
      </g>
     </g>
     <g id="text_2">
      <text style="font-size: 10px; font-family: 'Helvetica', 'Arial', 'DejaVu Sans', 'Bitstream Vera Sans', 'Computer Modern Sans Serif', 'Lucida Grande', 'Verdana', 'Geneva', 'Lucid', 'Avant Garde', sans-serif; text-anchor: middle" x="224.346295" y="505.557312" transform="rotate(-0 224.346295 505.557312)">−1.5</text>
     </g>
    </g>
    <g id="xtick_3">
     <g id="line2d_3">
      <g>
       <use xlink:href="#m6f74b37b10" x="328.189626" y="491.383875" style="stroke: #000000; stroke-width: 0.8"/>
      </g>
     </g>
     <g id="text_3">
      <text style="font-size: 10px; font-family: 'Helvetica', 'Arial', 'DejaVu Sans', 'Bitstream Vera Sans', 'Computer Modern Sans Serif', 'Lucida Grande', 'Verdana', 'Geneva', 'Lucid', 'Avant Garde', sans-serif; text-anchor: middle" x="328.189626" y="505.557312" transform="rotate(-0 328.189626 505.557312)">−1.0</text>
     </g>
    </g>
    <g id="xtick_4">
     <g id="line2d_4">
      <g>
       <use xlink:href="#m6f74b37b10" x="432.032956" y="491.383875" style="stroke: #000000; stroke-width: 0.8"/>
      </g>
     </g>
     <g id="text_4">
      <text style="font-size: 10px; font-family: 'Helvetica', 'Arial', 'DejaVu Sans', 'Bitstream Vera Sans', 'Computer Modern Sans Serif', 'Lucida Grande', 'Verdana', 'Geneva', 'Lucid', 'Avant Garde', sans-serif; text-anchor: middle" x="432.032956" y="505.557312" transform="rotate(-0 432.032956 505.557312)">−0.5</text>
     </g>
    </g>
    <g id="xtick_5">
     <g id="line2d_5">
      <g>
       <use xlink:href="#m6f74b37b10" x="535.876286" y="491.383875" style="stroke: #000000; stroke-width: 0.8"/>
      </g>
     </g>
     <g id="text_5">
      <text style="font-size: 10px; font-family: 'Helvetica', 'Arial', 'DejaVu Sans', 'Bitstream Vera Sans', 'Computer Modern Sans Serif', 'Lucida Grande', 'Verdana', 'Geneva', 'Lucid', 'Avant Garde', sans-serif; text-anchor: middle" x="535.876286" y="505.557312" transform="rotate(-0 535.876286 505.557312)">0.0</text>
     </g>
    </g>
    <g id="text_6">
     <text style="font-size: 12px; font-family: 'Helvetica', 'Arial', 'DejaVu Sans', 'Bitstream Vera Sans', 'Computer Modern Sans Serif', 'Lucida Grande', 'Verdana', 'Geneva', 'Lucid', 'Avant Garde', sans-serif; text-anchor: middle" x="328.355625" y="520.390437" transform="rotate(-0 328.355625 520.390437)">H2B Intensity (Z-score)</text>
    </g>
    <g id="text_7">
     <text style="font-size: 10px; font-family: 'Helvetica', 'Arial', 'DejaVu Sans', 'Bitstream Vera Sans', 'Computer Modern Sans Serif', 'Lucida Grande', 'Verdana', 'Geneva', 'Lucid', 'Avant Garde', sans-serif; text-anchor: end" x="607.355625" y="517.815125" transform="rotate(-0 607.355625 517.815125)">1e−15</text>
    </g>
   </g>
   <g id="matplotlib.axis_2">
    <g id="ytick_1">
     <g id="line2d_6">
      <defs>
       <path id="ma674c6cfc3" d="M 0 0 
L -3.5 0 
" style="stroke: #000000; stroke-width: 0.8"/>
      </defs>
      <g>
       <use xlink:href="#ma674c6cfc3" x="49.355625" y="464.585743" style="stroke: #000000; stroke-width: 0.8"/>
      </g>
     </g>
     <g id="text_8">
      <text style="font-size: 10px; font-family: 'Helvetica', 'Arial', 'DejaVu Sans', 'Bitstream Vera Sans', 'Computer Modern Sans Serif', 'Lucida Grande', 'Verdana', 'Geneva', 'Lucid', 'Avant Garde', sans-serif; text-anchor: end" x="42.355625" y="468.172461" transform="rotate(-0 42.355625 468.172461)">−0.2</text>
     </g>
    </g>
    <g id="ytick_2">
     <g id="line2d_7">
      <g>
       <use xlink:href="#ma674c6cfc3" x="49.355625" y="404.361189" style="stroke: #000000; stroke-width: 0.8"/>
      </g>
     </g>
     <g id="text_9">
      <text style="font-size: 10px; font-family: 'Helvetica', 'Arial', 'DejaVu Sans', 'Bitstream Vera Sans', 'Computer Modern Sans Serif', 'Lucida Grande', 'Verdana', 'Geneva', 'Lucid', 'Avant Garde', sans-serif; text-anchor: end" x="42.355625" y="407.947907" transform="rotate(-0 42.355625 407.947907)">0.0</text>
     </g>
    </g>
    <g id="ytick_3">
     <g id="line2d_8">
      <g>
       <use xlink:href="#ma674c6cfc3" x="49.355625" y="344.136635" style="stroke: #000000; stroke-width: 0.8"/>
      </g>
     </g>
     <g id="text_10">
      <text style="font-size: 10px; font-family: 'Helvetica', 'Arial', 'DejaVu Sans', 'Bitstream Vera Sans', 'Computer Modern Sans Serif', 'Lucida Grande', 'Verdana', 'Geneva', 'Lucid', 'Avant Garde', sans-serif; text-anchor: end" x="42.355625" y="347.723354" transform="rotate(-0 42.355625 347.723354)">0.2</text>
     </g>
    </g>
    <g id="ytick_4">
     <g id="line2d_9">
      <g>
       <use xlink:href="#ma674c6cfc3" x="49.355625" y="283.912081" style="stroke: #000000; stroke-width: 0.8"/>
      </g>
     </g>
     <g id="text_11">
      <text style="font-size: 10px; font-family: 'Helvetica', 'Arial', 'DejaVu Sans', 'Bitstream Vera Sans', 'Computer Modern Sans Serif', 'Lucida Grande', 'Verdana', 'Geneva', 'Lucid', 'Avant Garde', sans-serif; text-anchor: end" x="42.355625" y="287.4988" transform="rotate(-0 42.355625 287.4988)">0.4</text>
     </g>
    </g>
    <g id="ytick_5">
     <g id="line2d_10">
      <g>
       <use xlink:href="#ma674c6cfc3" x="49.355625" y="223.687527" style="stroke: #000000; stroke-width: 0.8"/>
      </g>
     </g>
     <g id="text_12">
      <text style="font-size: 10px; font-family: 'Helvetica', 'Arial', 'DejaVu Sans', 'Bitstream Vera Sans', 'Computer Modern Sans Serif', 'Lucida Grande', 'Verdana', 'Geneva', 'Lucid', 'Avant Garde', sans-serif; text-anchor: end" x="42.355625" y="227.274246" transform="rotate(-0 42.355625 227.274246)">0.6</text>
     </g>
    </g>
    <g id="ytick_6">
     <g id="line2d_11">
      <g>
       <use xlink:href="#ma674c6cfc3" x="49.355625" y="163.462974" style="stroke: #000000; stroke-width: 0.8"/>
      </g>
     </g>
     <g id="text_13">
      <text style="font-size: 10px; font-family: 'Helvetica', 'Arial', 'DejaVu Sans', 'Bitstream Vera Sans', 'Computer Modern Sans Serif', 'Lucida Grande', 'Verdana', 'Geneva', 'Lucid', 'Avant Garde', sans-serif; text-anchor: end" x="42.355625" y="167.049692" transform="rotate(-0 42.355625 167.049692)">0.8</text>
     </g>
    </g>
    <g id="ytick_7">
     <g id="line2d_12">
      <g>
       <use xlink:href="#ma674c6cfc3" x="49.355625" y="103.23842" style="stroke: #000000; stroke-width: 0.8"/>
      </g>
     </g>
     <g id="text_14">
      <text style="font-size: 10px; font-family: 'Helvetica', 'Arial', 'DejaVu Sans', 'Bitstream Vera Sans', 'Computer Modern Sans Serif', 'Lucida Grande', 'Verdana', 'Geneva', 'Lucid', 'Avant Garde', sans-serif; text-anchor: end" x="42.355625" y="106.825139" transform="rotate(-0 42.355625 106.825139)">1.0</text>
     </g>
    </g>
    <g id="text_15">
     <text style="font-size: 12px; font-family: 'Helvetica', 'Arial', 'DejaVu Sans', 'Bitstream Vera Sans', 'Computer Modern Sans Serif', 'Lucida Grande', 'Verdana', 'Geneva', 'Lucid', 'Avant Garde', sans-serif; text-anchor: middle" x="16.0425" y="269.623875" transform="rotate(-90 16.0425 269.623875)">VSV Intensity (Z-score)</text>
    </g>
    <g id="text_16">
     <text style="font-size: 10px; font-family: 'Helvetica', 'Arial', 'DejaVu Sans', 'Bitstream Vera Sans', 'Computer Modern Sans Serif', 'Lucida Grande', 'Verdana', 'Geneva', 'Lucid', 'Avant Garde', sans-serif; text-anchor: start" x="49.355625" y="44.863875" transform="rotate(-0 49.355625 44.863875)">1e−15</text>
    </g>
   </g>
   <g id="line2d_13">
    <path d="M 74.719261 83.267661 
L 79.843228 87.045704 
L 84.967195 90.823748 
L 90.091162 94.601792 
L 95.215129 98.379835 
L 100.339096 102.157879 
L 105.463063 105.935923 
L 110.58703 109.713966 
L 115.710997 113.49201 
L 120.834964 117.270054 
L 125.958931 121.048097 
L 131.082898 124.826141 
L 136.206865 128.604185 
L 141.330832 132.382228 
L 146.454799 136.160272 
L 151.578765 139.938315 
L 156.702732 143.716359 
L 161.826699 147.494403 
L 166.950666 151.272446 
L 172.074633 155.05049 
L 177.1986 158.828534 
L 182.322567 162.606577 
L 187.446534 166.384621 
L 192.570501 170.162665 
L 197.694468 173.940708 
L 202.818435 177.718752 
L 207.942402 181.496796 
L 213.066369 185.274839 
L 218.190336 189.052883 
L 223.314303 192.830927 
L 228.43827 196.60897 
L 233.562237 200.387014 
L 238.686204 204.165058 
L 243.81017 207.943101 
L 248.934137 211.721145 
L 254.058104 215.499189 
L 259.182071 219.277232 
L 264.306038 223.055276 
L 269.430005 226.83332 
L 274.553972 230.611363 
L 279.677939 234.389407 
L 284.801906 238.167451 
L 289.925873 241.945494 
L 295.04984 245.723538 
L 300.173807 249.501582 
L 305.297774 253.279625 
L 310.421741 257.057669 
L 315.545708 260.835713 
L 320.669675 264.613756 
L 325.793642 268.3918 
L 330.917608 272.169843 
L 336.041575 275.947887 
L 341.165542 279.725931 
L 346.289509 283.503974 
L 351.413476 287.282018 
L 356.537443 291.060062 
L 361.66141 294.838105 
L 366.785377 298.616149 
L 371.909344 302.394193 
L 377.033311 306.172236 
L 382.157278 309.95028 
L 387.281245 313.728324 
L 392.405212 317.506367 
L 397.529179 321.284411 
L 402.653146 325.062455 
L 407.777113 328.840498 
L 412.90108 332.618542 
L 418.025046 336.396586 
L 423.149013 340.174629 
L 428.27298 343.952673 
L 433.396947 347.730717 
L 438.520914 351.50876 
L 443.644881 355.286804 
L 448.768848 359.064848 
L 453.892815 362.842891 
L 459.016782 366.620935 
L 464.140749 370.398979 
L 469.264716 374.177022 
L 474.388683 377.955066 
L 479.51265 381.73311 
L 484.636617 385.511153 
L 489.760584 389.289197 
L 494.884551 393.06724 
L 500.008518 396.845284 
L 505.132485 400.623328 
L 510.256451 404.401371 
L 515.380418 408.179415 
L 520.504385 411.957459 
L 525.628352 415.735502 
L 530.752319 419.513546 
L 535.876286 423.29159 
L 541.000253 427.069633 
L 546.12422 430.847677 
L 551.248187 434.625721 
L 556.372154 438.403764 
L 561.496121 442.181808 
L 566.620088 445.959852 
L 571.744055 449.737895 
L 576.868022 453.515939 
L 581.991989 457.293983 
" clip-path="url(#p32aed5f4e8)" style="fill: none; stroke: #000000; stroke-width: 2; stroke-linecap: square"/>
   </g>
   <g id="patch_3">
    <path d="M 49.355625 491.383875 
L 49.355625 47.863875 
" style="fill: none; stroke: #000000; stroke-width: 0.8; stroke-linejoin: miter; stroke-linecap: square"/>
   </g>
   <g id="patch_4">
    <path d="M 49.355625 491.383875 
L 607.355625 491.383875 
" style="fill: none; stroke: #000000; stroke-width: 0.8; stroke-linejoin: miter; stroke-linecap: square"/>
   </g>
   <g id="text_17">
    <text style="font-size: 9px; font-family: 'Helvetica', 'Arial', 'DejaVu Sans', 'Bitstream Vera Sans', 'Computer Modern Sans Serif', 'Lucida Grande', 'Verdana', 'Geneva', 'Lucid', 'Avant Garde', sans-serif; text-anchor: start" x="485.537443" y="380.97395" transform="rotate(-0 485.537443 380.97395)">A</text>
   </g>
   <g id="text_18">
    <text style="font-size: 9px; font-family: 'Helvetica', 'Arial', 'DejaVu Sans', 'Bitstream Vera Sans', 'Computer Modern Sans Serif', 'Lucida Grande', 'Verdana', 'Geneva', 'Lucid', 'Avant Garde', sans-serif; text-anchor: start" x="540.876286" y="393.406231" transform="rotate(-0 540.876286 393.406231)">AL</text>
   </g>
   <g id="text_19">
    <text style="font-size: 9px; font-family: 'Helvetica', 'Arial', 'DejaVu Sans', 'Bitstream Vera Sans', 'Computer Modern Sans Serif', 'Lucida Grande', 'Verdana', 'Geneva', 'Lucid', 'Avant Garde', sans-serif; text-anchor: start" x="522.430005" y="379.302383" transform="rotate(-0 522.430005 379.302383)">AM</text>
   </g>
   <g id="text_20">
    <text style="font-size: 9px; font-family: 'Helvetica', 'Arial', 'DejaVu Sans', 'Bitstream Vera Sans', 'Computer Modern Sans Serif', 'Lucida Grande', 'Verdana', 'Geneva', 'Lucid', 'Avant Garde', sans-serif; text-anchor: start" x="476.314303" y="392.67492" transform="rotate(-0 476.314303 392.67492)">LM</text>
   </g>
   <g id="text_21">
    <text style="font-size: 9px; font-family: 'Helvetica', 'Arial', 'DejaVu Sans', 'Bitstream Vera Sans', 'Computer Modern Sans Serif', 'Lucida Grande', 'Verdana', 'Geneva', 'Lucid', 'Avant Garde', sans-serif; text-anchor: start" x="485.537443" y="466.223875" transform="rotate(-0 485.537443 466.223875)">LI</text>
   </g>
   <g id="text_22">
    <text style="font-size: 9px; font-family: 'Helvetica', 'Arial', 'DejaVu Sans', 'Bitstream Vera Sans', 'Computer Modern Sans Serif', 'Lucida Grande', 'Verdana', 'Geneva', 'Lucid', 'Avant Garde', sans-serif; text-anchor: start" x="586.991989" y="449.508203" transform="rotate(-0 586.991989 449.508203)">PM</text>
   </g>
   <g id="text_23">
    <text style="font-size: 9px; font-family: 'Helvetica', 'Arial', 'DejaVu Sans', 'Bitstream Vera Sans', 'Computer Modern Sans Serif', 'Lucida Grande', 'Verdana', 'Geneva', 'Lucid', 'Avant Garde', sans-serif; text-anchor: start" x="79.719261" y="63.023875" transform="rotate(-0 79.719261 63.023875)">POR</text>
   </g>
   <g id="text_24">
    <text style="font-size: 9px; font-family: 'Helvetica', 'Arial', 'DejaVu Sans', 'Bitstream Vera Sans', 'Computer Modern Sans Serif', 'Lucida Grande', 'Verdana', 'Geneva', 'Lucid', 'Avant Garde', sans-serif; text-anchor: start" x="559.322567" y="385.988651" transform="rotate(-0 559.322567 385.988651)">RL</text>
   </g>
   <g id="text_25">
    <text style="font-size: 12px; font-family: 'Helvetica', 'Arial', 'DejaVu Sans', 'Bitstream Vera Sans', 'Computer Modern Sans Serif', 'Lucida Grande', 'Verdana', 'Geneva', 'Lucid', 'Avant Garde', sans-serif" transform="translate(286.003125 15.808125)">p3 - All Regions</text>
    <text style="font-size: 12px; font-family: 'Helvetica', 'Arial', 'DejaVu Sans', 'Bitstream Vera Sans', 'Computer Modern Sans Serif', 'Lucida Grande', 'Verdana', 'Geneva', 'Lucid', 'Avant Garde', sans-serif" transform="translate(244.995938 28.961625)">Imputed Data Analysis (zscore)</text>
    <text style="font-size: 12px; font-family: 'Helvetica', 'Arial', 'DejaVu Sans', 'Bitstream Vera Sans', 'Computer Modern Sans Serif', 'Lucida Grande', 'Verdana', 'Geneva', 'Lucid', 'Avant Garde', sans-serif" transform="translate(266.655 41.863875)">r = -0.9445, r² = 0.8921</text>
   </g>
  </g>
 </g>
 <defs>
  <clipPath id="p32aed5f4e8">
   <rect x="49.355625" y="47.863875" width="558" height="443.52"/>
  </clipPath>
 </defs>
</svg>
