<?xml version="1.0" encoding="utf-8" standalone="no"?>
<!DOCTYPE svg PUBLIC "-//W3C//DTD SVG 1.1//EN"
  "http://www.w3.org/Graphics/SVG/1.1/DTD/svg11.dtd">
<svg xmlns:xlink="http://www.w3.org/1999/xlink" width="608.7975pt" height="530.327937pt" viewBox="0 0 608.7975 530.327937" xmlns="http://www.w3.org/2000/svg" version="1.1">
 <metadata>
  <rdf:RDF xmlns:dc="http://purl.org/dc/elements/1.1/" xmlns:cc="http://creativecommons.org/ns#" xmlns:rdf="http://www.w3.org/1999/02/22-rdf-syntax-ns#">
   <cc:Work>
    <dc:type rdf:resource="http://purl.org/dc/dcmitype/StillImage"/>
    <dc:date>2026-02-24T12:30:00.932500</dc:date>
    <dc:format>image/svg+xml</dc:format>
    <dc:creator>
     <cc:Agent>
      <dc:title>Matplotlib v3.10.5, https://matplotlib.org/</dc:title>
     </cc:Agent>
    </dc:creator>
   </cc:Work>
  </rdf:RDF>
 </metadata>
 <defs>
  <style type="text/css">*{stroke-linejoin: round; stroke-linecap: butt}</style>
 </defs>
 <g id="figure_1">
  <g id="patch_1">
   <path d="M -0 530.327937 
L 608.7975 530.327937 
L 608.7975 0 
L -0 0 
z
" style="fill: #ffffff"/>
  </g>
  <g id="axes_1">
   <g id="patch_2">
    <path d="M 43.5975 491.466375 
L 601.5975 491.466375 
L 601.5975 47.946375 
L 43.5975 47.946375 
z
" style="fill: #ffffff"/>
   </g>
   <g id="PathCollection_1">
    <defs>
     <path id="C0_0_1140db8c79" d="M 0 5 
C 1.326016 5 2.597899 4.473168 3.535534 3.535534 
C 4.473168 2.597899 5 1.326016 5 -0 
C 5 -1.326016 4.473168 -2.597899 3.535534 -3.535534 
C 2.597899 -4.473168 1.326016 -5 0 -5 
C -1.326016 -5 -2.597899 -4.473168 -3.535534 -3.535534 
C -4.473168 -2.597899 -5 -1.326016 -5 0 
C -5 1.326016 -4.473168 2.597899 -3.535534 3.535534 
C -2.597899 4.473168 -1.326016 5 0 5 
z
"/>
    </defs>
    <g clip-path="url(#p683bb86a75)">
     <use xlink:href="#C0_0_1140db8c79" x="68.961136" y="471.306375" style="fill: #00008b"/>
    </g>
    <g clip-path="url(#p683bb86a75)">
     <use xlink:href="#C0_0_1140db8c79" x="295.767969" y="175.485922" style="fill: #00008b"/>
    </g>
    <g clip-path="url(#p683bb86a75)">
     <use xlink:href="#C0_0_1140db8c79" x="466.60285" y="274.779848" style="fill: #00008b"/>
    </g>
    <g clip-path="url(#p683bb86a75)">
     <use xlink:href="#C0_0_1140db8c79" x="496.177352" y="68.106375" style="fill: #00008b"/>
    </g>
    <g clip-path="url(#p683bb86a75)">
     <use xlink:href="#C0_0_1140db8c79" x="310.311547" y="177.066269" style="fill: #00008b"/>
    </g>
    <g clip-path="url(#p683bb86a75)">
     <use xlink:href="#C0_0_1140db8c79" x="576.233864" y="250.207535" style="fill: #00008b"/>
    </g>
    <g clip-path="url(#p683bb86a75)">
     <use xlink:href="#C0_0_1140db8c79" x="279.296953" y="425.914195" style="fill: #00008b"/>
    </g>
    <g clip-path="url(#p683bb86a75)">
     <use xlink:href="#C0_0_1140db8c79" x="183.851893" y="154.06039" style="fill: #00008b"/>
    </g>
   </g>
   <g id="matplotlib.axis_1">
    <g id="xtick_1">
     <g id="line2d_1">
      <defs>
       <path id="m3e07c3376e" d="M 0 0 
L 0 3.5 
" style="stroke: #000000; stroke-width: 0.8"/>
      </defs>
      <g>
       <use xlink:href="#m3e07c3376e" x="64.655306" y="491.466375" style="stroke: #000000; stroke-width: 0.8"/>
      </g>
     </g>
     <g id="text_1">
      <text style="font-size: 10px; font-family: 'Helvetica', 'Arial', 'DejaVu Sans', 'Bitstream Vera Sans', 'Computer Modern Sans Serif', 'Lucida Grande', 'Verdana', 'Geneva', 'Lucid', 'Avant Garde', sans-serif; text-anchor: middle" x="64.655306" y="505.639812" transform="rotate(-0 64.655306 505.639812)">0.4</text>
     </g>
    </g>
    <g id="xtick_2">
     <g id="line2d_2">
      <g>
       <use xlink:href="#m3e07c3376e" x="142.714241" y="491.466375" style="stroke: #000000; stroke-width: 0.8"/>
      </g>
     </g>
     <g id="text_2">
      <text style="font-size: 10px; font-family: 'Helvetica', 'Arial', 'DejaVu Sans', 'Bitstream Vera Sans', 'Computer Modern Sans Serif', 'Lucida Grande', 'Verdana', 'Geneva', 'Lucid', 'Avant Garde', sans-serif; text-anchor: middle" x="142.714241" y="505.639812" transform="rotate(-0 142.714241 505.639812)">0.5</text>
     </g>
    </g>
    <g id="xtick_3">
     <g id="line2d_3">
      <g>
       <use xlink:href="#m3e07c3376e" x="220.773177" y="491.466375" style="stroke: #000000; stroke-width: 0.8"/>
      </g>
     </g>
     <g id="text_3">
      <text style="font-size: 10px; font-family: 'Helvetica', 'Arial', 'DejaVu Sans', 'Bitstream Vera Sans', 'Computer Modern Sans Serif', 'Lucida Grande', 'Verdana', 'Geneva', 'Lucid', 'Avant Garde', sans-serif; text-anchor: middle" x="220.773177" y="505.639812" transform="rotate(-0 220.773177 505.639812)">0.6</text>
     </g>
    </g>
    <g id="xtick_4">
     <g id="line2d_4">
      <g>
       <use xlink:href="#m3e07c3376e" x="298.832113" y="491.466375" style="stroke: #000000; stroke-width: 0.8"/>
      </g>
     </g>
     <g id="text_4">
      <text style="font-size: 10px; font-family: 'Helvetica', 'Arial', 'DejaVu Sans', 'Bitstream Vera Sans', 'Computer Modern Sans Serif', 'Lucida Grande', 'Verdana', 'Geneva', 'Lucid', 'Avant Garde', sans-serif; text-anchor: middle" x="298.832113" y="505.639812" transform="rotate(-0 298.832113 505.639812)">0.7</text>
     </g>
    </g>
    <g id="xtick_5">
     <g id="line2d_5">
      <g>
       <use xlink:href="#m3e07c3376e" x="376.891049" y="491.466375" style="stroke: #000000; stroke-width: 0.8"/>
      </g>
     </g>
     <g id="text_5">
      <text style="font-size: 10px; font-family: 'Helvetica', 'Arial', 'DejaVu Sans', 'Bitstream Vera Sans', 'Computer Modern Sans Serif', 'Lucida Grande', 'Verdana', 'Geneva', 'Lucid', 'Avant Garde', sans-serif; text-anchor: middle" x="376.891049" y="505.639812" transform="rotate(-0 376.891049 505.639812)">0.8</text>
     </g>
    </g>
    <g id="xtick_6">
     <g id="line2d_6">
      <g>
       <use xlink:href="#m3e07c3376e" x="454.949985" y="491.466375" style="stroke: #000000; stroke-width: 0.8"/>
      </g>
     </g>
     <g id="text_6">
      <text style="font-size: 10px; font-family: 'Helvetica', 'Arial', 'DejaVu Sans', 'Bitstream Vera Sans', 'Computer Modern Sans Serif', 'Lucida Grande', 'Verdana', 'Geneva', 'Lucid', 'Avant Garde', sans-serif; text-anchor: middle" x="454.949985" y="505.639812" transform="rotate(-0 454.949985 505.639812)">0.9</text>
     </g>
    </g>
    <g id="xtick_7">
     <g id="line2d_7">
      <g>
       <use xlink:href="#m3e07c3376e" x="533.00892" y="491.466375" style="stroke: #000000; stroke-width: 0.8"/>
      </g>
     </g>
     <g id="text_7">
      <text style="font-size: 10px; font-family: 'Helvetica', 'Arial', 'DejaVu Sans', 'Bitstream Vera Sans', 'Computer Modern Sans Serif', 'Lucida Grande', 'Verdana', 'Geneva', 'Lucid', 'Avant Garde', sans-serif; text-anchor: middle" x="533.00892" y="505.639812" transform="rotate(-0 533.00892 505.639812)">1.0</text>
     </g>
    </g>
    <g id="text_8">
     <text style="font-size: 12px; font-family: 'Helvetica', 'Arial', 'DejaVu Sans', 'Bitstream Vera Sans', 'Computer Modern Sans Serif', 'Lucida Grande', 'Verdana', 'Geneva', 'Lucid', 'Avant Garde', sans-serif; text-anchor: middle" x="322.5975" y="520.472937" transform="rotate(-0 322.5975 520.472937)">H2B Intensity (log10)</text>
    </g>
   </g>
   <g id="matplotlib.axis_2">
    <g id="ytick_1">
     <g id="line2d_8">
      <defs>
       <path id="mffbf9c42e5" d="M 0 0 
L -3.5 0 
" style="stroke: #000000; stroke-width: 0.8"/>
      </defs>
      <g>
       <use xlink:href="#mffbf9c42e5" x="43.5975" y="465.632788" style="stroke: #000000; stroke-width: 0.8"/>
      </g>
     </g>
     <g id="text_9">
      <text style="font-size: 10px; font-family: 'Helvetica', 'Arial', 'DejaVu Sans', 'Bitstream Vera Sans', 'Computer Modern Sans Serif', 'Lucida Grande', 'Verdana', 'Geneva', 'Lucid', 'Avant Garde', sans-serif; text-anchor: end" x="36.5975" y="469.219507" transform="rotate(-0 36.5975 469.219507)">0.4</text>
     </g>
    </g>
    <g id="ytick_2">
     <g id="line2d_9">
      <g>
       <use xlink:href="#mffbf9c42e5" x="43.5975" y="386.777841" style="stroke: #000000; stroke-width: 0.8"/>
      </g>
     </g>
     <g id="text_10">
      <text style="font-size: 10px; font-family: 'Helvetica', 'Arial', 'DejaVu Sans', 'Bitstream Vera Sans', 'Computer Modern Sans Serif', 'Lucida Grande', 'Verdana', 'Geneva', 'Lucid', 'Avant Garde', sans-serif; text-anchor: end" x="36.5975" y="390.36456" transform="rotate(-0 36.5975 390.36456)">0.6</text>
     </g>
    </g>
    <g id="ytick_3">
     <g id="line2d_10">
      <g>
       <use xlink:href="#mffbf9c42e5" x="43.5975" y="307.922894" style="stroke: #000000; stroke-width: 0.8"/>
      </g>
     </g>
     <g id="text_11">
      <text style="font-size: 10px; font-family: 'Helvetica', 'Arial', 'DejaVu Sans', 'Bitstream Vera Sans', 'Computer Modern Sans Serif', 'Lucida Grande', 'Verdana', 'Geneva', 'Lucid', 'Avant Garde', sans-serif; text-anchor: end" x="36.5975" y="311.509613" transform="rotate(-0 36.5975 311.509613)">0.8</text>
     </g>
    </g>
    <g id="ytick_4">
     <g id="line2d_11">
      <g>
       <use xlink:href="#mffbf9c42e5" x="43.5975" y="229.067947" style="stroke: #000000; stroke-width: 0.8"/>
      </g>
     </g>
     <g id="text_12">
      <text style="font-size: 10px; font-family: 'Helvetica', 'Arial', 'DejaVu Sans', 'Bitstream Vera Sans', 'Computer Modern Sans Serif', 'Lucida Grande', 'Verdana', 'Geneva', 'Lucid', 'Avant Garde', sans-serif; text-anchor: end" x="36.5975" y="232.654666" transform="rotate(-0 36.5975 232.654666)">1.0</text>
     </g>
    </g>
    <g id="ytick_5">
     <g id="line2d_12">
      <g>
       <use xlink:href="#mffbf9c42e5" x="43.5975" y="150.213001" style="stroke: #000000; stroke-width: 0.8"/>
      </g>
     </g>
     <g id="text_13">
      <text style="font-size: 10px; font-family: 'Helvetica', 'Arial', 'DejaVu Sans', 'Bitstream Vera Sans', 'Computer Modern Sans Serif', 'Lucida Grande', 'Verdana', 'Geneva', 'Lucid', 'Avant Garde', sans-serif; text-anchor: end" x="36.5975" y="153.799719" transform="rotate(-0 36.5975 153.799719)">1.2</text>
     </g>
    </g>
    <g id="ytick_6">
     <g id="line2d_13">
      <g>
       <use xlink:href="#mffbf9c42e5" x="43.5975" y="71.358054" style="stroke: #000000; stroke-width: 0.8"/>
      </g>
     </g>
     <g id="text_14">
      <text style="font-size: 10px; font-family: 'Helvetica', 'Arial', 'DejaVu Sans', 'Bitstream Vera Sans', 'Computer Modern Sans Serif', 'Lucida Grande', 'Verdana', 'Geneva', 'Lucid', 'Avant Garde', sans-serif; text-anchor: end" x="36.5975" y="74.944772" transform="rotate(-0 36.5975 74.944772)">1.4</text>
     </g>
    </g>
    <g id="text_15">
     <text style="font-size: 12px; font-family: 'Helvetica', 'Arial', 'DejaVu Sans', 'Bitstream Vera Sans', 'Computer Modern Sans Serif', 'Lucida Grande', 'Verdana', 'Geneva', 'Lucid', 'Avant Garde', sans-serif; text-anchor: middle" x="16.0425" y="269.706375" transform="rotate(-90 16.0425 269.706375)">VSV Intensity (log10)</text>
    </g>
   </g>
   <g id="line2d_14">
    <path d="M 68.961136 349.674322 
L 74.085103 347.744639 
L 79.20907 345.814955 
L 84.333037 343.885272 
L 89.457004 341.955589 
L 94.580971 340.025905 
L 99.704938 338.096222 
L 104.828905 336.166539 
L 109.952872 334.236855 
L 115.076839 332.307172 
L 120.200806 330.377489 
L 125.324773 328.447805 
L 130.44874 326.518122 
L 135.572707 324.588439 
L 140.696674 322.658755 
L 145.82064 320.729072 
L 150.944607 318.799389 
L 156.068574 316.869705 
L 161.192541 314.940022 
L 166.316508 313.010339 
L 171.440475 311.080655 
L 176.564442 309.150972 
L 181.688409 307.221289 
L 186.812376 305.291605 
L 191.936343 303.361922 
L 197.06031 301.432239 
L 202.184277 299.502555 
L 207.308244 297.572872 
L 212.432211 295.643189 
L 217.556178 293.713505 
L 222.680145 291.783822 
L 227.804112 289.854139 
L 232.928079 287.924455 
L 238.052045 285.994772 
L 243.176012 284.065089 
L 248.299979 282.135405 
L 253.423946 280.205722 
L 258.547913 278.276039 
L 263.67188 276.346355 
L 268.795847 274.416672 
L 273.919814 272.486989 
L 279.043781 270.557305 
L 284.167748 268.627622 
L 289.291715 266.697938 
L 294.415682 264.768255 
L 299.539649 262.838572 
L 304.663616 260.908888 
L 309.787583 258.979205 
L 314.91155 257.049522 
L 320.035517 255.119838 
L 325.159483 253.190155 
L 330.28345 251.260472 
L 335.407417 249.330788 
L 340.531384 247.401105 
L 345.655351 245.471422 
L 350.779318 243.541738 
L 355.903285 241.612055 
L 361.027252 239.682372 
L 366.151219 237.752688 
L 371.275186 235.823005 
L 376.399153 233.893322 
L 381.52312 231.963638 
L 386.647087 230.033955 
L 391.771054 228.104272 
L 396.895021 226.174588 
L 402.018988 224.244905 
L 407.142955 222.315222 
L 412.266921 220.385538 
L 417.390888 218.455855 
L 422.514855 216.526172 
L 427.638822 214.596488 
L 432.762789 212.666805 
L 437.886756 210.737122 
L 443.010723 208.807438 
L 448.13469 206.877755 
L 453.258657 204.948072 
L 458.382624 203.018388 
L 463.506591 201.088705 
L 468.630558 199.159022 
L 473.754525 197.229338 
L 478.878492 195.299655 
L 484.002459 193.369972 
L 489.126426 191.440288 
L 494.250393 189.510605 
L 499.37436 187.580922 
L 504.498326 185.651238 
L 509.622293 183.721555 
L 514.74626 181.791871 
L 519.870227 179.862188 
L 524.994194 177.932505 
L 530.118161 176.002821 
L 535.242128 174.073138 
L 540.366095 172.143455 
L 545.490062 170.213771 
L 550.614029 168.284088 
L 555.737996 166.354405 
L 560.861963 164.424721 
L 565.98593 162.495038 
L 571.109897 160.565355 
L 576.233864 158.635671 
" clip-path="url(#p683bb86a75)" style="fill: none; stroke: #000000; stroke-width: 2; stroke-linecap: square"/>
   </g>
   <g id="patch_3">
    <path d="M 43.5975 491.466375 
L 43.5975 47.946375 
" style="fill: none; stroke: #000000; stroke-width: 0.8; stroke-linejoin: miter; stroke-linecap: square"/>
   </g>
   <g id="patch_4">
    <path d="M 43.5975 491.466375 
L 601.5975 491.466375 
" style="fill: none; stroke: #000000; stroke-width: 0.8; stroke-linejoin: miter; stroke-linecap: square"/>
   </g>
   <g id="text_16">
    <text style="font-size: 9px; font-family: 'Helvetica', 'Arial', 'DejaVu Sans', 'Bitstream Vera Sans', 'Computer Modern Sans Serif', 'Lucida Grande', 'Verdana', 'Geneva', 'Lucid', 'Avant Garde', sans-serif; text-anchor: start" x="73.961136" y="466.306375" transform="rotate(-0 73.961136 466.306375)">A</text>
   </g>
   <g id="text_17">
    <text style="font-size: 9px; font-family: 'Helvetica', 'Arial', 'DejaVu Sans', 'Bitstream Vera Sans', 'Computer Modern Sans Serif', 'Lucida Grande', 'Verdana', 'Geneva', 'Lucid', 'Avant Garde', sans-serif; text-anchor: start" x="300.767969" y="170.485922" transform="rotate(-0 300.767969 170.485922)">AL</text>
   </g>
   <g id="text_18">
    <text style="font-size: 9px; font-family: 'Helvetica', 'Arial', 'DejaVu Sans', 'Bitstream Vera Sans', 'Computer Modern Sans Serif', 'Lucida Grande', 'Verdana', 'Geneva', 'Lucid', 'Avant Garde', sans-serif; text-anchor: start" x="471.60285" y="269.779848" transform="rotate(-0 471.60285 269.779848)">AM</text>
   </g>
   <g id="text_19">
    <text style="font-size: 9px; font-family: 'Helvetica', 'Arial', 'DejaVu Sans', 'Bitstream Vera Sans', 'Computer Modern Sans Serif', 'Lucida Grande', 'Verdana', 'Geneva', 'Lucid', 'Avant Garde', sans-serif; text-anchor: start" x="501.177352" y="63.106375" transform="rotate(-0 501.177352 63.106375)">LM</text>
   </g>
   <g id="text_20">
    <text style="font-size: 9px; font-family: 'Helvetica', 'Arial', 'DejaVu Sans', 'Bitstream Vera Sans', 'Computer Modern Sans Serif', 'Lucida Grande', 'Verdana', 'Geneva', 'Lucid', 'Avant Garde', sans-serif; text-anchor: start" x="315.311547" y="172.066269" transform="rotate(-0 315.311547 172.066269)">LI</text>
   </g>
   <g id="text_21">
    <text style="font-size: 9px; font-family: 'Helvetica', 'Arial', 'DejaVu Sans', 'Bitstream Vera Sans', 'Computer Modern Sans Serif', 'Lucida Grande', 'Verdana', 'Geneva', 'Lucid', 'Avant Garde', sans-serif; text-anchor: start" x="581.233864" y="245.207535" transform="rotate(-0 581.233864 245.207535)">PM</text>
   </g>
   <g id="text_22">
    <text style="font-size: 9px; font-family: 'Helvetica', 'Arial', 'DejaVu Sans', 'Bitstream Vera Sans', 'Computer Modern Sans Serif', 'Lucida Grande', 'Verdana', 'Geneva', 'Lucid', 'Avant Garde', sans-serif; text-anchor: start" x="284.296953" y="420.914195" transform="rotate(-0 284.296953 420.914195)">POR</text>
   </g>
   <g id="text_23">
    <text style="font-size: 9px; font-family: 'Helvetica', 'Arial', 'DejaVu Sans', 'Bitstream Vera Sans', 'Computer Modern Sans Serif', 'Lucida Grande', 'Verdana', 'Geneva', 'Lucid', 'Avant Garde', sans-serif; text-anchor: start" x="188.851893" y="149.06039" transform="rotate(-0 188.851893 149.06039)">RL</text>
   </g>
   <g id="text_24">
    <text style="font-size: 12px; font-family: 'Helvetica', 'Arial', 'DejaVu Sans', 'Bitstream Vera Sans', 'Computer Modern Sans Serif', 'Lucida Grande', 'Verdana', 'Geneva', 'Lucid', 'Avant Garde', sans-serif" transform="translate(276.908438 15.808125)">p12 - All Regions</text>
    <text style="font-size: 12px; font-family: 'Helvetica', 'Arial', 'DejaVu Sans', 'Bitstream Vera Sans', 'Computer Modern Sans Serif', 'Lucida Grande', 'Verdana', 'Geneva', 'Lucid', 'Avant Garde', sans-serif" transform="translate(248.9025 28.961625)">Imputed Data Analysis (log)</text>
    <text style="font-size: 12px; font-family: 'Helvetica', 'Arial', 'DejaVu Sans', 'Bitstream Vera Sans', 'Computer Modern Sans Serif', 'Lucida Grande', 'Verdana', 'Geneva', 'Lucid', 'Avant Garde', sans-serif" transform="translate(262.894688 41.946375)">r = 0.4610, r² = 0.2125</text>
   </g>
  </g>
 </g>
 <defs>
  <clipPath id="p683bb86a75">
   <rect x="43.5975" y="47.946375" width="558" height="443.52"/>
  </clipPath>
 </defs>
</svg>
