<?xml version="1.0" encoding="utf-8" standalone="no"?>
<!DOCTYPE svg PUBLIC "-//W3C//DTD SVG 1.1//EN"
  "http://www.w3.org/Graphics/SVG/1.1/DTD/svg11.dtd">
<svg xmlns:xlink="http://www.w3.org/1999/xlink" width="608.7975pt" height="530.327937pt" viewBox="0 0 608.7975 530.327937" xmlns="http://www.w3.org/2000/svg" version="1.1">
 <metadata>
  <rdf:RDF xmlns:dc="http://purl.org/dc/elements/1.1/" xmlns:cc="http://creativecommons.org/ns#" xmlns:rdf="http://www.w3.org/1999/02/22-rdf-syntax-ns#">
   <cc:Work>
    <dc:type rdf:resource="http://purl.org/dc/dcmitype/StillImage"/>
    <dc:date>2026-02-24T12:30:01.133063</dc:date>
    <dc:format>image/svg+xml</dc:format>
    <dc:creator>
     <cc:Agent>
      <dc:title>Matplotlib v3.10.5, https://matplotlib.org/</dc:title>
     </cc:Agent>
    </dc:creator>
   </cc:Work>
  </rdf:RDF>
 </metadata>
 <defs>
  <style type="text/css">*{stroke-linejoin: round; stroke-linecap: butt}</style>
 </defs>
 <g id="figure_1">
  <g id="patch_1">
   <path d="M -0 530.327937 
L 608.7975 530.327937 
L 608.7975 0 
L -0 0 
z
" style="fill: #ffffff"/>
  </g>
  <g id="axes_1">
   <g id="patch_2">
    <path d="M 43.5975 491.466375 
L 601.5975 491.466375 
L 601.5975 47.946375 
L 43.5975 47.946375 
z
" style="fill: #ffffff"/>
   </g>
   <g id="PathCollection_1">
    <defs>
     <path id="C0_0_b85a1d6770" d="M 0 5 
C 1.326016 5 2.597899 4.473168 3.535534 3.535534 
C 4.473168 2.597899 5 1.326016 5 -0 
C 5 -1.326016 4.473168 -2.597899 3.535534 -3.535534 
C 2.597899 -4.473168 1.326016 -5 0 -5 
C -1.326016 -5 -2.597899 -4.473168 -3.535534 -3.535534 
C -4.473168 -2.597899 -5 -1.326016 -5 0 
C -5 1.326016 -4.473168 2.597899 -3.535534 3.535534 
C -2.597899 4.473168 -1.326016 5 0 5 
z
"/>
    </defs>
    <g clip-path="url(#p85803ed617)">
     <use xlink:href="#C0_0_b85a1d6770" x="68.961136" y="355.112048" style="fill: #00008b"/>
    </g>
    <g clip-path="url(#p85803ed617)">
     <use xlink:href="#C0_0_b85a1d6770" x="563.185025" y="68.106375" style="fill: #00008b"/>
    </g>
    <g clip-path="url(#p85803ed617)">
     <use xlink:href="#C0_0_b85a1d6770" x="405.788727" y="113.701706" style="fill: #00008b"/>
    </g>
    <g clip-path="url(#p85803ed617)">
     <use xlink:href="#C0_0_b85a1d6770" x="496.772145" y="190.618897" style="fill: #00008b"/>
    </g>
    <g clip-path="url(#p85803ed617)">
     <use xlink:href="#C0_0_b85a1d6770" x="511.019862" y="331.197654" style="fill: #00008b"/>
    </g>
    <g clip-path="url(#p85803ed617)">
     <use xlink:href="#C0_0_b85a1d6770" x="576.233864" y="127.017044" style="fill: #00008b"/>
    </g>
    <g clip-path="url(#p85803ed617)">
     <use xlink:href="#C0_0_b85a1d6770" x="226.66307" y="471.306375" style="fill: #00008b"/>
    </g>
    <g clip-path="url(#p85803ed617)">
     <use xlink:href="#C0_0_b85a1d6770" x="214.83239" y="257.938623" style="fill: #00008b"/>
    </g>
   </g>
   <g id="matplotlib.axis_1">
    <g id="xtick_1">
     <g id="line2d_1">
      <defs>
       <path id="m07089b96ca" d="M 0 0 
L 0 3.5 
" style="stroke: #000000; stroke-width: 0.8"/>
      </defs>
      <g>
       <use xlink:href="#m07089b96ca" x="115.591228" y="491.466375" style="stroke: #000000; stroke-width: 0.8"/>
      </g>
     </g>
     <g id="text_1">
      <text style="font-size: 10px; font-family: 'Helvetica', 'Arial', 'DejaVu Sans', 'Bitstream Vera Sans', 'Computer Modern Sans Serif', 'Lucida Grande', 'Verdana', 'Geneva', 'Lucid', 'Avant Garde', sans-serif; text-anchor: middle" x="115.591228" y="505.639812" transform="rotate(-0 115.591228 505.639812)">0.5</text>
     </g>
    </g>
    <g id="xtick_2">
     <g id="line2d_2">
      <g>
       <use xlink:href="#m07089b96ca" x="206.305951" y="491.466375" style="stroke: #000000; stroke-width: 0.8"/>
      </g>
     </g>
     <g id="text_2">
      <text style="font-size: 10px; font-family: 'Helvetica', 'Arial', 'DejaVu Sans', 'Bitstream Vera Sans', 'Computer Modern Sans Serif', 'Lucida Grande', 'Verdana', 'Geneva', 'Lucid', 'Avant Garde', sans-serif; text-anchor: middle" x="206.305951" y="505.639812" transform="rotate(-0 206.305951 505.639812)">0.6</text>
     </g>
    </g>
    <g id="xtick_3">
     <g id="line2d_3">
      <g>
       <use xlink:href="#m07089b96ca" x="297.020674" y="491.466375" style="stroke: #000000; stroke-width: 0.8"/>
      </g>
     </g>
     <g id="text_3">
      <text style="font-size: 10px; font-family: 'Helvetica', 'Arial', 'DejaVu Sans', 'Bitstream Vera Sans', 'Computer Modern Sans Serif', 'Lucida Grande', 'Verdana', 'Geneva', 'Lucid', 'Avant Garde', sans-serif; text-anchor: middle" x="297.020674" y="505.639812" transform="rotate(-0 297.020674 505.639812)">0.7</text>
     </g>
    </g>
    <g id="xtick_4">
     <g id="line2d_4">
      <g>
       <use xlink:href="#m07089b96ca" x="387.735397" y="491.466375" style="stroke: #000000; stroke-width: 0.8"/>
      </g>
     </g>
     <g id="text_4">
      <text style="font-size: 10px; font-family: 'Helvetica', 'Arial', 'DejaVu Sans', 'Bitstream Vera Sans', 'Computer Modern Sans Serif', 'Lucida Grande', 'Verdana', 'Geneva', 'Lucid', 'Avant Garde', sans-serif; text-anchor: middle" x="387.735397" y="505.639812" transform="rotate(-0 387.735397 505.639812)">0.8</text>
     </g>
    </g>
    <g id="xtick_5">
     <g id="line2d_5">
      <g>
       <use xlink:href="#m07089b96ca" x="478.45012" y="491.466375" style="stroke: #000000; stroke-width: 0.8"/>
      </g>
     </g>
     <g id="text_5">
      <text style="font-size: 10px; font-family: 'Helvetica', 'Arial', 'DejaVu Sans', 'Bitstream Vera Sans', 'Computer Modern Sans Serif', 'Lucida Grande', 'Verdana', 'Geneva', 'Lucid', 'Avant Garde', sans-serif; text-anchor: middle" x="478.45012" y="505.639812" transform="rotate(-0 478.45012 505.639812)">0.9</text>
     </g>
    </g>
    <g id="xtick_6">
     <g id="line2d_6">
      <g>
       <use xlink:href="#m07089b96ca" x="569.164843" y="491.466375" style="stroke: #000000; stroke-width: 0.8"/>
      </g>
     </g>
     <g id="text_6">
      <text style="font-size: 10px; font-family: 'Helvetica', 'Arial', 'DejaVu Sans', 'Bitstream Vera Sans', 'Computer Modern Sans Serif', 'Lucida Grande', 'Verdana', 'Geneva', 'Lucid', 'Avant Garde', sans-serif; text-anchor: middle" x="569.164843" y="505.639812" transform="rotate(-0 569.164843 505.639812)">1.0</text>
     </g>
    </g>
    <g id="text_7">
     <text style="font-size: 12px; font-family: 'Helvetica', 'Arial', 'DejaVu Sans', 'Bitstream Vera Sans', 'Computer Modern Sans Serif', 'Lucida Grande', 'Verdana', 'Geneva', 'Lucid', 'Avant Garde', sans-serif; text-anchor: middle" x="322.5975" y="520.472937" transform="rotate(-0 322.5975 520.472937)">H2B Intensity (log10)</text>
    </g>
   </g>
   <g id="matplotlib.axis_2">
    <g id="ytick_1">
     <g id="line2d_7">
      <defs>
       <path id="m19dff44e68" d="M 0 0 
L -3.5 0 
" style="stroke: #000000; stroke-width: 0.8"/>
      </defs>
      <g>
       <use xlink:href="#m19dff44e68" x="43.5975" y="486.445568" style="stroke: #000000; stroke-width: 0.8"/>
      </g>
     </g>
     <g id="text_8">
      <text style="font-size: 10px; font-family: 'Helvetica', 'Arial', 'DejaVu Sans', 'Bitstream Vera Sans', 'Computer Modern Sans Serif', 'Lucida Grande', 'Verdana', 'Geneva', 'Lucid', 'Avant Garde', sans-serif; text-anchor: end" x="36.5975" y="490.032286" transform="rotate(-0 36.5975 490.032286)">0.2</text>
     </g>
    </g>
    <g id="ytick_2">
     <g id="line2d_8">
      <g>
       <use xlink:href="#m19dff44e68" x="43.5975" y="402.902835" style="stroke: #000000; stroke-width: 0.8"/>
      </g>
     </g>
     <g id="text_9">
      <text style="font-size: 10px; font-family: 'Helvetica', 'Arial', 'DejaVu Sans', 'Bitstream Vera Sans', 'Computer Modern Sans Serif', 'Lucida Grande', 'Verdana', 'Geneva', 'Lucid', 'Avant Garde', sans-serif; text-anchor: end" x="36.5975" y="406.489553" transform="rotate(-0 36.5975 406.489553)">0.4</text>
     </g>
    </g>
    <g id="ytick_3">
     <g id="line2d_9">
      <g>
       <use xlink:href="#m19dff44e68" x="43.5975" y="319.360101" style="stroke: #000000; stroke-width: 0.8"/>
      </g>
     </g>
     <g id="text_10">
      <text style="font-size: 10px; font-family: 'Helvetica', 'Arial', 'DejaVu Sans', 'Bitstream Vera Sans', 'Computer Modern Sans Serif', 'Lucida Grande', 'Verdana', 'Geneva', 'Lucid', 'Avant Garde', sans-serif; text-anchor: end" x="36.5975" y="322.94682" transform="rotate(-0 36.5975 322.94682)">0.6</text>
     </g>
    </g>
    <g id="ytick_4">
     <g id="line2d_10">
      <g>
       <use xlink:href="#m19dff44e68" x="43.5975" y="235.817368" style="stroke: #000000; stroke-width: 0.8"/>
      </g>
     </g>
     <g id="text_11">
      <text style="font-size: 10px; font-family: 'Helvetica', 'Arial', 'DejaVu Sans', 'Bitstream Vera Sans', 'Computer Modern Sans Serif', 'Lucida Grande', 'Verdana', 'Geneva', 'Lucid', 'Avant Garde', sans-serif; text-anchor: end" x="36.5975" y="239.404087" transform="rotate(-0 36.5975 239.404087)">0.8</text>
     </g>
    </g>
    <g id="ytick_5">
     <g id="line2d_11">
      <g>
       <use xlink:href="#m19dff44e68" x="43.5975" y="152.274635" style="stroke: #000000; stroke-width: 0.8"/>
      </g>
     </g>
     <g id="text_12">
      <text style="font-size: 10px; font-family: 'Helvetica', 'Arial', 'DejaVu Sans', 'Bitstream Vera Sans', 'Computer Modern Sans Serif', 'Lucida Grande', 'Verdana', 'Geneva', 'Lucid', 'Avant Garde', sans-serif; text-anchor: end" x="36.5975" y="155.861354" transform="rotate(-0 36.5975 155.861354)">1.0</text>
     </g>
    </g>
    <g id="ytick_6">
     <g id="line2d_12">
      <g>
       <use xlink:href="#m19dff44e68" x="43.5975" y="68.731902" style="stroke: #000000; stroke-width: 0.8"/>
      </g>
     </g>
     <g id="text_13">
      <text style="font-size: 10px; font-family: 'Helvetica', 'Arial', 'DejaVu Sans', 'Bitstream Vera Sans', 'Computer Modern Sans Serif', 'Lucida Grande', 'Verdana', 'Geneva', 'Lucid', 'Avant Garde', sans-serif; text-anchor: end" x="36.5975" y="72.31862" transform="rotate(-0 36.5975 72.31862)">1.2</text>
     </g>
    </g>
    <g id="text_14">
     <text style="font-size: 12px; font-family: 'Helvetica', 'Arial', 'DejaVu Sans', 'Bitstream Vera Sans', 'Computer Modern Sans Serif', 'Lucida Grande', 'Verdana', 'Geneva', 'Lucid', 'Avant Garde', sans-serif; text-anchor: middle" x="16.0425" y="269.706375" transform="rotate(-90 16.0425 269.706375)">VSV Intensity (log10)</text>
    </g>
   </g>
   <g id="line2d_13">
    <path d="M 68.961136 395.677625 
L 74.085103 393.126783 
L 79.20907 390.57594 
L 84.333037 388.025097 
L 89.457004 385.474255 
L 94.580971 382.923412 
L 99.704938 380.37257 
L 104.828905 377.821727 
L 109.952872 375.270885 
L 115.076839 372.720042 
L 120.200806 370.1692 
L 125.324773 367.618357 
L 130.44874 365.067515 
L 135.572707 362.516672 
L 140.696674 359.96583 
L 145.82064 357.414987 
L 150.944607 354.864145 
L 156.068574 352.313302 
L 161.192541 349.76246 
L 166.316508 347.211617 
L 171.440475 344.660774 
L 176.564442 342.109932 
L 181.688409 339.559089 
L 186.812376 337.008247 
L 191.936343 334.457404 
L 197.06031 331.906562 
L 202.184277 329.355719 
L 207.308244 326.804877 
L 212.432211 324.254034 
L 217.556178 321.703192 
L 222.680145 319.152349 
L 227.804112 316.601507 
L 232.928079 314.050664 
L 238.052045 311.499822 
L 243.176012 308.948979 
L 248.299979 306.398136 
L 253.423946 303.847294 
L 258.547913 301.296451 
L 263.67188 298.745609 
L 268.795847 296.194766 
L 273.919814 293.643924 
L 279.043781 291.093081 
L 284.167748 288.542239 
L 289.291715 285.991396 
L 294.415682 283.440554 
L 299.539649 280.889711 
L 304.663616 278.338869 
L 309.787583 275.788026 
L 314.91155 273.237184 
L 320.035517 270.686341 
L 325.159483 268.135499 
L 330.28345 265.584656 
L 335.407417 263.033813 
L 340.531384 260.482971 
L 345.655351 257.932128 
L 350.779318 255.381286 
L 355.903285 252.830443 
L 361.027252 250.279601 
L 366.151219 247.728758 
L 371.275186 245.177916 
L 376.399153 242.627073 
L 381.52312 240.076231 
L 386.647087 237.525388 
L 391.771054 234.974546 
L 396.895021 232.423703 
L 402.018988 229.872861 
L 407.142955 227.322018 
L 412.266921 224.771176 
L 417.390888 222.220333 
L 422.514855 219.66949 
L 427.638822 217.118648 
L 432.762789 214.567805 
L 437.886756 212.016963 
L 443.010723 209.46612 
L 448.13469 206.915278 
L 453.258657 204.364435 
L 458.382624 201.813593 
L 463.506591 199.26275 
L 468.630558 196.711908 
L 473.754525 194.161065 
L 478.878492 191.610223 
L 484.002459 189.05938 
L 489.126426 186.508538 
L 494.250393 183.957695 
L 499.37436 181.406853 
L 504.498326 178.85601 
L 509.622293 176.305167 
L 514.74626 173.754325 
L 519.870227 171.203482 
L 524.994194 168.65264 
L 530.118161 166.101797 
L 535.242128 163.550955 
L 540.366095 161.000112 
L 545.490062 158.44927 
L 550.614029 155.898427 
L 555.737996 153.347585 
L 560.861963 150.796742 
L 565.98593 148.2459 
L 571.109897 145.695057 
L 576.233864 143.144215 
" clip-path="url(#p85803ed617)" style="fill: none; stroke: #000000; stroke-width: 2; stroke-linecap: square"/>
   </g>
   <g id="patch_3">
    <path d="M 43.5975 491.466375 
L 43.5975 47.946375 
" style="fill: none; stroke: #000000; stroke-width: 0.8; stroke-linejoin: miter; stroke-linecap: square"/>
   </g>
   <g id="patch_4">
    <path d="M 43.5975 491.466375 
L 601.5975 491.466375 
" style="fill: none; stroke: #000000; stroke-width: 0.8; stroke-linejoin: miter; stroke-linecap: square"/>
   </g>
   <g id="text_15">
    <text style="font-size: 9px; font-family: 'Helvetica', 'Arial', 'DejaVu Sans', 'Bitstream Vera Sans', 'Computer Modern Sans Serif', 'Lucida Grande', 'Verdana', 'Geneva', 'Lucid', 'Avant Garde', sans-serif; text-anchor: start" x="73.961136" y="350.112048" transform="rotate(-0 73.961136 350.112048)">A</text>
   </g>
   <g id="text_16">
    <text style="font-size: 9px; font-family: 'Helvetica', 'Arial', 'DejaVu Sans', 'Bitstream Vera Sans', 'Computer Modern Sans Serif', 'Lucida Grande', 'Verdana', 'Geneva', 'Lucid', 'Avant Garde', sans-serif; text-anchor: start" x="568.185025" y="63.106375" transform="rotate(-0 568.185025 63.106375)">AL</text>
   </g>
   <g id="text_17">
    <text style="font-size: 9px; font-family: 'Helvetica', 'Arial', 'DejaVu Sans', 'Bitstream Vera Sans', 'Computer Modern Sans Serif', 'Lucida Grande', 'Verdana', 'Geneva', 'Lucid', 'Avant Garde', sans-serif; text-anchor: start" x="410.788727" y="108.701706" transform="rotate(-0 410.788727 108.701706)">AM</text>
   </g>
   <g id="text_18">
    <text style="font-size: 9px; font-family: 'Helvetica', 'Arial', 'DejaVu Sans', 'Bitstream Vera Sans', 'Computer Modern Sans Serif', 'Lucida Grande', 'Verdana', 'Geneva', 'Lucid', 'Avant Garde', sans-serif; text-anchor: start" x="501.772145" y="185.618897" transform="rotate(-0 501.772145 185.618897)">LM</text>
   </g>
   <g id="text_19">
    <text style="font-size: 9px; font-family: 'Helvetica', 'Arial', 'DejaVu Sans', 'Bitstream Vera Sans', 'Computer Modern Sans Serif', 'Lucida Grande', 'Verdana', 'Geneva', 'Lucid', 'Avant Garde', sans-serif; text-anchor: start" x="516.019862" y="326.197654" transform="rotate(-0 516.019862 326.197654)">LI</text>
   </g>
   <g id="text_20">
    <text style="font-size: 9px; font-family: 'Helvetica', 'Arial', 'DejaVu Sans', 'Bitstream Vera Sans', 'Computer Modern Sans Serif', 'Lucida Grande', 'Verdana', 'Geneva', 'Lucid', 'Avant Garde', sans-serif; text-anchor: start" x="581.233864" y="122.017044" transform="rotate(-0 581.233864 122.017044)">PM</text>
   </g>
   <g id="text_21">
    <text style="font-size: 9px; font-family: 'Helvetica', 'Arial', 'DejaVu Sans', 'Bitstream Vera Sans', 'Computer Modern Sans Serif', 'Lucida Grande', 'Verdana', 'Geneva', 'Lucid', 'Avant Garde', sans-serif; text-anchor: start" x="231.66307" y="466.306375" transform="rotate(-0 231.66307 466.306375)">POR</text>
   </g>
   <g id="text_22">
    <text style="font-size: 9px; font-family: 'Helvetica', 'Arial', 'DejaVu Sans', 'Bitstream Vera Sans', 'Computer Modern Sans Serif', 'Lucida Grande', 'Verdana', 'Geneva', 'Lucid', 'Avant Garde', sans-serif; text-anchor: start" x="219.83239" y="252.938623" transform="rotate(-0 219.83239 252.938623)">RL</text>
   </g>
   <g id="text_23">
    <text style="font-size: 12px; font-family: 'Helvetica', 'Arial', 'DejaVu Sans', 'Bitstream Vera Sans', 'Computer Modern Sans Serif', 'Lucida Grande', 'Verdana', 'Geneva', 'Lucid', 'Avant Garde', sans-serif" transform="translate(276.908438 15.808125)">p20 - All Regions</text>
    <text style="font-size: 12px; font-family: 'Helvetica', 'Arial', 'DejaVu Sans', 'Bitstream Vera Sans', 'Computer Modern Sans Serif', 'Lucida Grande', 'Verdana', 'Geneva', 'Lucid', 'Avant Garde', sans-serif" transform="translate(248.9025 28.961625)">Imputed Data Analysis (log)</text>
    <text style="font-size: 12px; font-family: 'Helvetica', 'Arial', 'DejaVu Sans', 'Bitstream Vera Sans', 'Computer Modern Sans Serif', 'Lucida Grande', 'Verdana', 'Geneva', 'Lucid', 'Avant Garde', sans-serif" transform="translate(262.894688 41.946375)">r = 0.6761, r² = 0.4571</text>
   </g>
  </g>
 </g>
 <defs>
  <clipPath id="p85803ed617">
   <rect x="43.5975" y="47.946375" width="558" height="443.52"/>
  </clipPath>
 </defs>
</svg>
