<?xml version="1.0" encoding="utf-8" standalone="no"?>
<!DOCTYPE svg PUBLIC "-//W3C//DTD SVG 1.1//EN"
  "http://www.w3.org/Graphics/SVG/1.1/DTD/svg11.dtd">
<svg xmlns:xlink="http://www.w3.org/1999/xlink" width="608.7975pt" height="530.138562pt" viewBox="0 0 608.7975 530.138562" xmlns="http://www.w3.org/2000/svg" version="1.1">
 <metadata>
  <rdf:RDF xmlns:dc="http://purl.org/dc/elements/1.1/" xmlns:cc="http://creativecommons.org/ns#" xmlns:rdf="http://www.w3.org/1999/02/22-rdf-syntax-ns#">
   <cc:Work>
    <dc:type rdf:resource="http://purl.org/dc/dcmitype/StillImage"/>
    <dc:date>2026-02-24T12:29:17.382485</dc:date>
    <dc:format>image/svg+xml</dc:format>
    <dc:creator>
     <cc:Agent>
      <dc:title>Matplotlib v3.10.5, https://matplotlib.org/</dc:title>
     </cc:Agent>
    </dc:creator>
   </cc:Work>
  </rdf:RDF>
 </metadata>
 <defs>
  <style type="text/css">*{stroke-linejoin: round; stroke-linecap: butt}</style>
 </defs>
 <g id="figure_1">
  <g id="patch_1">
   <path d="M -0 530.138562 
L 608.7975 530.138562 
L 608.7975 0 
L -0 0 
z
" style="fill: #ffffff"/>
  </g>
  <g id="axes_1">
   <g id="patch_2">
    <path d="M 43.5975 491.277 
L 601.5975 491.277 
L 601.5975 47.757 
L 43.5975 47.757 
z
" style="fill: #ffffff"/>
   </g>
   <g id="PathCollection_1">
    <defs>
     <path id="C0_0_95034912ec" d="M 0 5 
C 1.326016 5 2.597899 4.473168 3.535534 3.535534 
C 4.473168 2.597899 5 1.326016 5 -0 
C 5 -1.326016 4.473168 -2.597899 3.535534 -3.535534 
C 2.597899 -4.473168 1.326016 -5 0 -5 
C -1.326016 -5 -2.597899 -4.473168 -3.535534 -3.535534 
C -4.473168 -2.597899 -5 -1.326016 -5 0 
C -5 1.326016 -4.473168 2.597899 -3.535534 3.535534 
C -2.597899 4.473168 -1.326016 5 0 5 
z
"/>
    </defs>
    <g clip-path="url(#pd17ba75ca6)">
     <use xlink:href="#C0_0_95034912ec" x="68.961136" y="366.693948" style="fill: #00008b"/>
    </g>
    <g clip-path="url(#pd17ba75ca6)">
     <use xlink:href="#C0_0_95034912ec" x="561.474234" y="471.117" style="fill: #00008b"/>
    </g>
    <g clip-path="url(#pd17ba75ca6)">
     <use xlink:href="#C0_0_95034912ec" x="381.980431" y="416.614776" style="fill: #00008b"/>
    </g>
    <g clip-path="url(#pd17ba75ca6)">
     <use xlink:href="#C0_0_95034912ec" x="328.975679" y="312.822393" style="fill: #00008b"/>
    </g>
    <g clip-path="url(#pd17ba75ca6)">
     <use xlink:href="#C0_0_95034912ec" x="576.233864" y="191.457013" style="fill: #00008b"/>
    </g>
    <g clip-path="url(#pd17ba75ca6)">
     <use xlink:href="#C0_0_95034912ec" x="247.656867" y="376.032128" style="fill: #00008b"/>
    </g>
    <g clip-path="url(#pd17ba75ca6)">
     <use xlink:href="#C0_0_95034912ec" x="204.339327" y="67.917" style="fill: #00008b"/>
    </g>
    <g clip-path="url(#pd17ba75ca6)">
     <use xlink:href="#C0_0_95034912ec" x="365.949783" y="81.994966" style="fill: #00008b"/>
    </g>
   </g>
   <g id="matplotlib.axis_1">
    <g id="xtick_1">
     <g id="line2d_1">
      <defs>
       <path id="m80300002ac" d="M 0 0 
L 0 3.5 
" style="stroke: #000000; stroke-width: 0.8"/>
      </defs>
      <g>
       <use xlink:href="#m80300002ac" x="90.899172" y="491.277" style="stroke: #000000; stroke-width: 0.8"/>
      </g>
     </g>
     <g id="text_1">
      <text style="font-size: 10px; font-family: 'Helvetica', 'Arial', 'DejaVu Sans', 'Bitstream Vera Sans', 'Computer Modern Sans Serif', 'Lucida Grande', 'Verdana', 'Geneva', 'Lucid', 'Avant Garde', sans-serif; text-anchor: middle" x="90.899172" y="505.450437" transform="rotate(-0 90.899172 505.450437)">0.6</text>
     </g>
    </g>
    <g id="xtick_2">
     <g id="line2d_2">
      <g>
       <use xlink:href="#m80300002ac" x="184.943465" y="491.277" style="stroke: #000000; stroke-width: 0.8"/>
      </g>
     </g>
     <g id="text_2">
      <text style="font-size: 10px; font-family: 'Helvetica', 'Arial', 'DejaVu Sans', 'Bitstream Vera Sans', 'Computer Modern Sans Serif', 'Lucida Grande', 'Verdana', 'Geneva', 'Lucid', 'Avant Garde', sans-serif; text-anchor: middle" x="184.943465" y="505.450437" transform="rotate(-0 184.943465 505.450437)">0.8</text>
     </g>
    </g>
    <g id="xtick_3">
     <g id="line2d_3">
      <g>
       <use xlink:href="#m80300002ac" x="278.987757" y="491.277" style="stroke: #000000; stroke-width: 0.8"/>
      </g>
     </g>
     <g id="text_3">
      <text style="font-size: 10px; font-family: 'Helvetica', 'Arial', 'DejaVu Sans', 'Bitstream Vera Sans', 'Computer Modern Sans Serif', 'Lucida Grande', 'Verdana', 'Geneva', 'Lucid', 'Avant Garde', sans-serif; text-anchor: middle" x="278.987757" y="505.450437" transform="rotate(-0 278.987757 505.450437)">1.0</text>
     </g>
    </g>
    <g id="xtick_4">
     <g id="line2d_4">
      <g>
       <use xlink:href="#m80300002ac" x="373.032049" y="491.277" style="stroke: #000000; stroke-width: 0.8"/>
      </g>
     </g>
     <g id="text_4">
      <text style="font-size: 10px; font-family: 'Helvetica', 'Arial', 'DejaVu Sans', 'Bitstream Vera Sans', 'Computer Modern Sans Serif', 'Lucida Grande', 'Verdana', 'Geneva', 'Lucid', 'Avant Garde', sans-serif; text-anchor: middle" x="373.032049" y="505.450437" transform="rotate(-0 373.032049 505.450437)">1.2</text>
     </g>
    </g>
    <g id="xtick_5">
     <g id="line2d_5">
      <g>
       <use xlink:href="#m80300002ac" x="467.076341" y="491.277" style="stroke: #000000; stroke-width: 0.8"/>
      </g>
     </g>
     <g id="text_5">
      <text style="font-size: 10px; font-family: 'Helvetica', 'Arial', 'DejaVu Sans', 'Bitstream Vera Sans', 'Computer Modern Sans Serif', 'Lucida Grande', 'Verdana', 'Geneva', 'Lucid', 'Avant Garde', sans-serif; text-anchor: middle" x="467.076341" y="505.450437" transform="rotate(-0 467.076341 505.450437)">1.4</text>
     </g>
    </g>
    <g id="xtick_6">
     <g id="line2d_6">
      <g>
       <use xlink:href="#m80300002ac" x="561.120633" y="491.277" style="stroke: #000000; stroke-width: 0.8"/>
      </g>
     </g>
     <g id="text_6">
      <text style="font-size: 10px; font-family: 'Helvetica', 'Arial', 'DejaVu Sans', 'Bitstream Vera Sans', 'Computer Modern Sans Serif', 'Lucida Grande', 'Verdana', 'Geneva', 'Lucid', 'Avant Garde', sans-serif; text-anchor: middle" x="561.120633" y="505.450437" transform="rotate(-0 561.120633 505.450437)">1.6</text>
     </g>
    </g>
    <g id="text_7">
     <text style="font-size: 12px; font-family: 'Helvetica', 'Arial', 'DejaVu Sans', 'Bitstream Vera Sans', 'Computer Modern Sans Serif', 'Lucida Grande', 'Verdana', 'Geneva', 'Lucid', 'Avant Garde', sans-serif; text-anchor: middle" x="322.5975" y="520.283562" transform="rotate(-0 322.5975 520.283562)">H2B Intensity (Averaged)</text>
    </g>
   </g>
   <g id="matplotlib.axis_2">
    <g id="ytick_1">
     <g id="line2d_7">
      <defs>
       <path id="mc5f6663c24" d="M 0 0 
L -3.5 0 
" style="stroke: #000000; stroke-width: 0.8"/>
      </defs>
      <g>
       <use xlink:href="#mc5f6663c24" x="43.5975" y="430.738765" style="stroke: #000000; stroke-width: 0.8"/>
      </g>
     </g>
     <g id="text_8">
      <text style="font-size: 10px; font-family: 'Helvetica', 'Arial', 'DejaVu Sans', 'Bitstream Vera Sans', 'Computer Modern Sans Serif', 'Lucida Grande', 'Verdana', 'Geneva', 'Lucid', 'Avant Garde', sans-serif; text-anchor: end" x="36.5975" y="434.325484" transform="rotate(-0 36.5975 434.325484)">0.2</text>
     </g>
    </g>
    <g id="ytick_2">
     <g id="line2d_8">
      <g>
       <use xlink:href="#mc5f6663c24" x="43.5975" y="348.778025" style="stroke: #000000; stroke-width: 0.8"/>
      </g>
     </g>
     <g id="text_9">
      <text style="font-size: 10px; font-family: 'Helvetica', 'Arial', 'DejaVu Sans', 'Bitstream Vera Sans', 'Computer Modern Sans Serif', 'Lucida Grande', 'Verdana', 'Geneva', 'Lucid', 'Avant Garde', sans-serif; text-anchor: end" x="36.5975" y="352.364744" transform="rotate(-0 36.5975 352.364744)">0.4</text>
     </g>
    </g>
    <g id="ytick_3">
     <g id="line2d_9">
      <g>
       <use xlink:href="#mc5f6663c24" x="43.5975" y="266.817285" style="stroke: #000000; stroke-width: 0.8"/>
      </g>
     </g>
     <g id="text_10">
      <text style="font-size: 10px; font-family: 'Helvetica', 'Arial', 'DejaVu Sans', 'Bitstream Vera Sans', 'Computer Modern Sans Serif', 'Lucida Grande', 'Verdana', 'Geneva', 'Lucid', 'Avant Garde', sans-serif; text-anchor: end" x="36.5975" y="270.404004" transform="rotate(-0 36.5975 270.404004)">0.6</text>
     </g>
    </g>
    <g id="ytick_4">
     <g id="line2d_10">
      <g>
       <use xlink:href="#mc5f6663c24" x="43.5975" y="184.856545" style="stroke: #000000; stroke-width: 0.8"/>
      </g>
     </g>
     <g id="text_11">
      <text style="font-size: 10px; font-family: 'Helvetica', 'Arial', 'DejaVu Sans', 'Bitstream Vera Sans', 'Computer Modern Sans Serif', 'Lucida Grande', 'Verdana', 'Geneva', 'Lucid', 'Avant Garde', sans-serif; text-anchor: end" x="36.5975" y="188.443264" transform="rotate(-0 36.5975 188.443264)">0.8</text>
     </g>
    </g>
    <g id="ytick_5">
     <g id="line2d_11">
      <g>
       <use xlink:href="#mc5f6663c24" x="43.5975" y="102.895805" style="stroke: #000000; stroke-width: 0.8"/>
      </g>
     </g>
     <g id="text_12">
      <text style="font-size: 10px; font-family: 'Helvetica', 'Arial', 'DejaVu Sans', 'Bitstream Vera Sans', 'Computer Modern Sans Serif', 'Lucida Grande', 'Verdana', 'Geneva', 'Lucid', 'Avant Garde', sans-serif; text-anchor: end" x="36.5975" y="106.482524" transform="rotate(-0 36.5975 106.482524)">1.0</text>
     </g>
    </g>
    <g id="text_13">
     <text style="font-size: 12px; font-family: 'Helvetica', 'Arial', 'DejaVu Sans', 'Bitstream Vera Sans', 'Computer Modern Sans Serif', 'Lucida Grande', 'Verdana', 'Geneva', 'Lucid', 'Avant Garde', sans-serif; text-anchor: middle" x="16.0425" y="269.517" transform="rotate(-90 16.0425 269.517)">VSV Intensity (Averaged)</text>
    </g>
   </g>
   <g id="line2d_12">
    <path d="M 68.961136 261.978319 
L 74.085103 262.421347 
L 79.20907 262.864375 
L 84.333037 263.307403 
L 89.457004 263.750432 
L 94.580971 264.19346 
L 99.704938 264.636488 
L 104.828905 265.079516 
L 109.952872 265.522544 
L 115.076839 265.965572 
L 120.200806 266.4086 
L 125.324773 266.851628 
L 130.44874 267.294656 
L 135.572707 267.737684 
L 140.696674 268.180712 
L 145.82064 268.62374 
L 150.944607 269.066768 
L 156.068574 269.509796 
L 161.192541 269.952824 
L 166.316508 270.395853 
L 171.440475 270.838881 
L 176.564442 271.281909 
L 181.688409 271.724937 
L 186.812376 272.167965 
L 191.936343 272.610993 
L 197.06031 273.054021 
L 202.184277 273.497049 
L 207.308244 273.940077 
L 212.432211 274.383105 
L 217.556178 274.826133 
L 222.680145 275.269161 
L 227.804112 275.712189 
L 232.928079 276.155217 
L 238.052045 276.598246 
L 243.176012 277.041274 
L 248.299979 277.484302 
L 253.423946 277.92733 
L 258.547913 278.370358 
L 263.67188 278.813386 
L 268.795847 279.256414 
L 273.919814 279.699442 
L 279.043781 280.14247 
L 284.167748 280.585498 
L 289.291715 281.028526 
L 294.415682 281.471554 
L 299.539649 281.914582 
L 304.663616 282.35761 
L 309.787583 282.800638 
L 314.91155 283.243667 
L 320.035517 283.686695 
L 325.159483 284.129723 
L 330.28345 284.572751 
L 335.407417 285.015779 
L 340.531384 285.458807 
L 345.655351 285.901835 
L 350.779318 286.344863 
L 355.903285 286.787891 
L 361.027252 287.230919 
L 366.151219 287.673947 
L 371.275186 288.116975 
L 376.399153 288.560003 
L 381.52312 289.003031 
L 386.647087 289.44606 
L 391.771054 289.889088 
L 396.895021 290.332116 
L 402.018988 290.775144 
L 407.142955 291.218172 
L 412.266921 291.6612 
L 417.390888 292.104228 
L 422.514855 292.547256 
L 427.638822 292.990284 
L 432.762789 293.433312 
L 437.886756 293.87634 
L 443.010723 294.319368 
L 448.13469 294.762396 
L 453.258657 295.205424 
L 458.382624 295.648452 
L 463.506591 296.091481 
L 468.630558 296.534509 
L 473.754525 296.977537 
L 478.878492 297.420565 
L 484.002459 297.863593 
L 489.126426 298.306621 
L 494.250393 298.749649 
L 499.37436 299.192677 
L 504.498326 299.635705 
L 509.622293 300.078733 
L 514.74626 300.521761 
L 519.870227 300.964789 
L 524.994194 301.407817 
L 530.118161 301.850845 
L 535.242128 302.293874 
L 540.366095 302.736902 
L 545.490062 303.17993 
L 550.614029 303.622958 
L 555.737996 304.065986 
L 560.861963 304.509014 
L 565.98593 304.952042 
L 571.109897 305.39507 
L 576.233864 305.838098 
" clip-path="url(#pd17ba75ca6)" style="fill: none; stroke: #000000; stroke-width: 2; stroke-linecap: square"/>
   </g>
   <g id="patch_3">
    <path d="M 43.5975 491.277 
L 43.5975 47.757 
" style="fill: none; stroke: #000000; stroke-width: 0.8; stroke-linejoin: miter; stroke-linecap: square"/>
   </g>
   <g id="patch_4">
    <path d="M 43.5975 491.277 
L 601.5975 491.277 
" style="fill: none; stroke: #000000; stroke-width: 0.8; stroke-linejoin: miter; stroke-linecap: square"/>
   </g>
   <g id="text_14">
    <text style="font-size: 9px; font-family: 'Helvetica', 'Arial', 'DejaVu Sans', 'Bitstream Vera Sans', 'Computer Modern Sans Serif', 'Lucida Grande', 'Verdana', 'Geneva', 'Lucid', 'Avant Garde', sans-serif; text-anchor: start" x="73.961136" y="361.693948" transform="rotate(-0 73.961136 361.693948)">A</text>
   </g>
   <g id="text_15">
    <text style="font-size: 9px; font-family: 'Helvetica', 'Arial', 'DejaVu Sans', 'Bitstream Vera Sans', 'Computer Modern Sans Serif', 'Lucida Grande', 'Verdana', 'Geneva', 'Lucid', 'Avant Garde', sans-serif; text-anchor: start" x="566.474234" y="466.117" transform="rotate(-0 566.474234 466.117)">AL</text>
   </g>
   <g id="text_16">
    <text style="font-size: 9px; font-family: 'Helvetica', 'Arial', 'DejaVu Sans', 'Bitstream Vera Sans', 'Computer Modern Sans Serif', 'Lucida Grande', 'Verdana', 'Geneva', 'Lucid', 'Avant Garde', sans-serif; text-anchor: start" x="386.980431" y="411.614776" transform="rotate(-0 386.980431 411.614776)">AM</text>
   </g>
   <g id="text_17">
    <text style="font-size: 9px; font-family: 'Helvetica', 'Arial', 'DejaVu Sans', 'Bitstream Vera Sans', 'Computer Modern Sans Serif', 'Lucida Grande', 'Verdana', 'Geneva', 'Lucid', 'Avant Garde', sans-serif; text-anchor: start" x="333.975679" y="307.822393" transform="rotate(-0 333.975679 307.822393)">LM</text>
   </g>
   <g id="text_18">
    <text style="font-size: 9px; font-family: 'Helvetica', 'Arial', 'DejaVu Sans', 'Bitstream Vera Sans', 'Computer Modern Sans Serif', 'Lucida Grande', 'Verdana', 'Geneva', 'Lucid', 'Avant Garde', sans-serif; text-anchor: start" x="581.233864" y="186.457013" transform="rotate(-0 581.233864 186.457013)">LI</text>
   </g>
   <g id="text_19">
    <text style="font-size: 9px; font-family: 'Helvetica', 'Arial', 'DejaVu Sans', 'Bitstream Vera Sans', 'Computer Modern Sans Serif', 'Lucida Grande', 'Verdana', 'Geneva', 'Lucid', 'Avant Garde', sans-serif; text-anchor: start" x="252.656867" y="371.032128" transform="rotate(-0 252.656867 371.032128)">PM</text>
   </g>
   <g id="text_20">
    <text style="font-size: 9px; font-family: 'Helvetica', 'Arial', 'DejaVu Sans', 'Bitstream Vera Sans', 'Computer Modern Sans Serif', 'Lucida Grande', 'Verdana', 'Geneva', 'Lucid', 'Avant Garde', sans-serif; text-anchor: start" x="209.339327" y="62.917" transform="rotate(-0 209.339327 62.917)">POR</text>
   </g>
   <g id="text_21">
    <text style="font-size: 9px; font-family: 'Helvetica', 'Arial', 'DejaVu Sans', 'Bitstream Vera Sans', 'Computer Modern Sans Serif', 'Lucida Grande', 'Verdana', 'Geneva', 'Lucid', 'Avant Garde', sans-serif; text-anchor: start" x="370.949783" y="76.994966" transform="rotate(-0 370.949783 76.994966)">RL</text>
   </g>
   <g id="text_22">
    <text style="font-size: 12px; font-family: 'Helvetica', 'Arial', 'DejaVu Sans', 'Bitstream Vera Sans', 'Computer Modern Sans Serif', 'Lucida Grande', 'Verdana', 'Geneva', 'Lucid', 'Avant Garde', sans-serif" transform="translate(273.908438 15.83625)">adult - All Regions</text>
    <text style="font-size: 12px; font-family: 'Helvetica', 'Arial', 'DejaVu Sans', 'Bitstream Vera Sans', 'Computer Modern Sans Serif', 'Lucida Grande', 'Verdana', 'Geneva', 'Lucid', 'Avant Garde', sans-serif" transform="translate(262.57125 28.85475)">Imputed Data Analysis</text>
    <text style="font-size: 12px; font-family: 'Helvetica', 'Arial', 'DejaVu Sans', 'Bitstream Vera Sans', 'Computer Modern Sans Serif', 'Lucida Grande', 'Verdana', 'Geneva', 'Lucid', 'Avant Garde', sans-serif" transform="translate(260.896875 41.757)">r = -0.0971, r² = 0.0094</text>
   </g>
  </g>
 </g>
 <defs>
  <clipPath id="pd17ba75ca6">
   <rect x="43.5975" y="47.757" width="558" height="443.52"/>
  </clipPath>
 </defs>
</svg>
