<?xml version="1.0" encoding="utf-8" standalone="no"?>
<!DOCTYPE svg PUBLIC "-//W3C//DTD SVG 1.1//EN"
  "http://www.w3.org/Graphics/SVG/1.1/DTD/svg11.dtd">
<svg xmlns:xlink="http://www.w3.org/1999/xlink" width="614.358438pt" height="530.110437pt" viewBox="0 0 614.358438 530.110437" xmlns="http://www.w3.org/2000/svg" version="1.1">
 <metadata>
  <rdf:RDF xmlns:dc="http://purl.org/dc/elements/1.1/" xmlns:cc="http://creativecommons.org/ns#" xmlns:rdf="http://www.w3.org/1999/02/22-rdf-syntax-ns#">
   <cc:Work>
    <dc:type rdf:resource="http://purl.org/dc/dcmitype/StillImage"/>
    <dc:date>2026-02-24T12:29:16.768425</dc:date>
    <dc:format>image/svg+xml</dc:format>
    <dc:creator>
     <cc:Agent>
      <dc:title>Matplotlib v3.10.5, https://matplotlib.org/</dc:title>
     </cc:Agent>
    </dc:creator>
   </cc:Work>
  </rdf:RDF>
 </metadata>
 <defs>
  <style type="text/css">*{stroke-linejoin: round; stroke-linecap: butt}</style>
 </defs>
 <g id="figure_1">
  <g id="patch_1">
   <path d="M 0 530.110437 
L 614.358438 530.110437 
L 614.358438 0 
L 0 0 
z
" style="fill: #ffffff"/>
  </g>
  <g id="axes_1">
   <g id="patch_2">
    <path d="M 49.158438 491.248875 
L 607.158437 491.248875 
L 607.158437 47.728875 
L 49.158438 47.728875 
z
" style="fill: #ffffff"/>
   </g>
   <g id="PathCollection_1">
    <defs>
     <path id="C0_0_772d0ef1b5" d="M 0 5 
C 1.326016 5 2.597899 4.473168 3.535534 3.535534 
C 4.473168 2.597899 5 1.326016 5 -0 
C 5 -1.326016 4.473168 -2.597899 3.535534 -3.535534 
C 2.597899 -4.473168 1.326016 -5 0 -5 
C -1.326016 -5 -2.597899 -4.473168 -3.535534 -3.535534 
C -4.473168 -2.597899 -5 -1.326016 -5 0 
C -5 1.326016 -4.473168 2.597899 -3.535534 3.535534 
C -2.597899 4.473168 -1.326016 5 0 5 
z
"/>
    </defs>
    <g clip-path="url(#pf173433270)">
     <use xlink:href="#C0_0_772d0ef1b5" x="581.794801" y="67.888875" style="fill: #00008b"/>
    </g>
    <g clip-path="url(#pf173433270)">
     <use xlink:href="#C0_0_772d0ef1b5" x="329.915032" y="296.811306" style="fill: #00008b"/>
    </g>
    <g clip-path="url(#pf173433270)">
     <use xlink:href="#C0_0_772d0ef1b5" x="181.655271" y="206.901683" style="fill: #00008b"/>
    </g>
    <g clip-path="url(#pf173433270)">
     <use xlink:href="#C0_0_772d0ef1b5" x="510.73896" y="88.250548" style="fill: #00008b"/>
    </g>
    <g clip-path="url(#pf173433270)">
     <use xlink:href="#C0_0_772d0ef1b5" x="388.918206" y="277.971517" style="fill: #00008b"/>
    </g>
    <g clip-path="url(#pf173433270)">
     <use xlink:href="#C0_0_772d0ef1b5" x="74.522074" y="99.123767" style="fill: #00008b"/>
    </g>
    <g clip-path="url(#pf173433270)">
     <use xlink:href="#C0_0_772d0ef1b5" x="503.654288" y="471.088875" style="fill: #00008b"/>
    </g>
    <g clip-path="url(#pf173433270)">
     <use xlink:href="#C0_0_772d0ef1b5" x="291.66355" y="119.599886" style="fill: #00008b"/>
    </g>
   </g>
   <g id="matplotlib.axis_1">
    <g id="xtick_1">
     <g id="line2d_1">
      <defs>
       <path id="m4f8ba04853" d="M 0 0 
L 0 3.5 
" style="stroke: #000000; stroke-width: 0.8"/>
      </defs>
      <g>
       <use xlink:href="#m4f8ba04853" x="93.339811" y="491.248875" style="stroke: #000000; stroke-width: 0.8"/>
      </g>
     </g>
     <g id="text_1">
      <text style="font-size: 10px; font-family: 'Helvetica', 'Arial', 'DejaVu Sans', 'Bitstream Vera Sans', 'Computer Modern Sans Serif', 'Lucida Grande', 'Verdana', 'Geneva', 'Lucid', 'Avant Garde', sans-serif; text-anchor: middle" x="93.339811" y="505.422312" transform="rotate(-0 93.339811 505.422312)">1.0</text>
     </g>
    </g>
    <g id="xtick_2">
     <g id="line2d_2">
      <g>
       <use xlink:href="#m4f8ba04853" x="199.679841" y="491.248875" style="stroke: #000000; stroke-width: 0.8"/>
      </g>
     </g>
     <g id="text_2">
      <text style="font-size: 10px; font-family: 'Helvetica', 'Arial', 'DejaVu Sans', 'Bitstream Vera Sans', 'Computer Modern Sans Serif', 'Lucida Grande', 'Verdana', 'Geneva', 'Lucid', 'Avant Garde', sans-serif; text-anchor: middle" x="199.679841" y="505.422312" transform="rotate(-0 199.679841 505.422312)">1.1</text>
     </g>
    </g>
    <g id="xtick_3">
     <g id="line2d_3">
      <g>
       <use xlink:href="#m4f8ba04853" x="306.019871" y="491.248875" style="stroke: #000000; stroke-width: 0.8"/>
      </g>
     </g>
     <g id="text_3">
      <text style="font-size: 10px; font-family: 'Helvetica', 'Arial', 'DejaVu Sans', 'Bitstream Vera Sans', 'Computer Modern Sans Serif', 'Lucida Grande', 'Verdana', 'Geneva', 'Lucid', 'Avant Garde', sans-serif; text-anchor: middle" x="306.019871" y="505.422312" transform="rotate(-0 306.019871 505.422312)">1.2</text>
     </g>
    </g>
    <g id="xtick_4">
     <g id="line2d_4">
      <g>
       <use xlink:href="#m4f8ba04853" x="412.359901" y="491.248875" style="stroke: #000000; stroke-width: 0.8"/>
      </g>
     </g>
     <g id="text_4">
      <text style="font-size: 10px; font-family: 'Helvetica', 'Arial', 'DejaVu Sans', 'Bitstream Vera Sans', 'Computer Modern Sans Serif', 'Lucida Grande', 'Verdana', 'Geneva', 'Lucid', 'Avant Garde', sans-serif; text-anchor: middle" x="412.359901" y="505.422312" transform="rotate(-0 412.359901 505.422312)">1.3</text>
     </g>
    </g>
    <g id="xtick_5">
     <g id="line2d_5">
      <g>
       <use xlink:href="#m4f8ba04853" x="518.699931" y="491.248875" style="stroke: #000000; stroke-width: 0.8"/>
      </g>
     </g>
     <g id="text_5">
      <text style="font-size: 10px; font-family: 'Helvetica', 'Arial', 'DejaVu Sans', 'Bitstream Vera Sans', 'Computer Modern Sans Serif', 'Lucida Grande', 'Verdana', 'Geneva', 'Lucid', 'Avant Garde', sans-serif; text-anchor: middle" x="518.699931" y="505.422312" transform="rotate(-0 518.699931 505.422312)">1.4</text>
     </g>
    </g>
    <g id="text_6">
     <text style="font-size: 12px; font-family: 'Helvetica', 'Arial', 'DejaVu Sans', 'Bitstream Vera Sans', 'Computer Modern Sans Serif', 'Lucida Grande', 'Verdana', 'Geneva', 'Lucid', 'Avant Garde', sans-serif; text-anchor: middle" x="328.158437" y="520.255437" transform="rotate(-0 328.158437 520.255437)">H2B Intensity (Averaged)</text>
    </g>
   </g>
   <g id="matplotlib.axis_2">
    <g id="ytick_1">
     <g id="line2d_6">
      <defs>
       <path id="m6578927fe7" d="M 0 0 
L -3.5 0 
" style="stroke: #000000; stroke-width: 0.8"/>
      </defs>
      <g>
       <use xlink:href="#m6578927fe7" x="49.158438" y="439.322983" style="stroke: #000000; stroke-width: 0.8"/>
      </g>
     </g>
     <g id="text_7">
      <text style="font-size: 10px; font-family: 'Helvetica', 'Arial', 'DejaVu Sans', 'Bitstream Vera Sans', 'Computer Modern Sans Serif', 'Lucida Grande', 'Verdana', 'Geneva', 'Lucid', 'Avant Garde', sans-serif; text-anchor: end" x="42.158438" y="442.909701" transform="rotate(-0 42.158438 442.909701)">0.12</text>
     </g>
    </g>
    <g id="ytick_2">
     <g id="line2d_7">
      <g>
       <use xlink:href="#m6578927fe7" x="49.158438" y="363.044639" style="stroke: #000000; stroke-width: 0.8"/>
      </g>
     </g>
     <g id="text_8">
      <text style="font-size: 10px; font-family: 'Helvetica', 'Arial', 'DejaVu Sans', 'Bitstream Vera Sans', 'Computer Modern Sans Serif', 'Lucida Grande', 'Verdana', 'Geneva', 'Lucid', 'Avant Garde', sans-serif; text-anchor: end" x="42.158438" y="366.631358" transform="rotate(-0 42.158438 366.631358)">0.14</text>
     </g>
    </g>
    <g id="ytick_3">
     <g id="line2d_8">
      <g>
       <use xlink:href="#m6578927fe7" x="49.158438" y="286.766296" style="stroke: #000000; stroke-width: 0.8"/>
      </g>
     </g>
     <g id="text_9">
      <text style="font-size: 10px; font-family: 'Helvetica', 'Arial', 'DejaVu Sans', 'Bitstream Vera Sans', 'Computer Modern Sans Serif', 'Lucida Grande', 'Verdana', 'Geneva', 'Lucid', 'Avant Garde', sans-serif; text-anchor: end" x="42.158438" y="290.353015" transform="rotate(-0 42.158438 290.353015)">0.16</text>
     </g>
    </g>
    <g id="ytick_4">
     <g id="line2d_9">
      <g>
       <use xlink:href="#m6578927fe7" x="49.158438" y="210.487953" style="stroke: #000000; stroke-width: 0.8"/>
      </g>
     </g>
     <g id="text_10">
      <text style="font-size: 10px; font-family: 'Helvetica', 'Arial', 'DejaVu Sans', 'Bitstream Vera Sans', 'Computer Modern Sans Serif', 'Lucida Grande', 'Verdana', 'Geneva', 'Lucid', 'Avant Garde', sans-serif; text-anchor: end" x="42.158438" y="214.074671" transform="rotate(-0 42.158438 214.074671)">0.18</text>
     </g>
    </g>
    <g id="ytick_5">
     <g id="line2d_10">
      <g>
       <use xlink:href="#m6578927fe7" x="49.158438" y="134.209609" style="stroke: #000000; stroke-width: 0.8"/>
      </g>
     </g>
     <g id="text_11">
      <text style="font-size: 10px; font-family: 'Helvetica', 'Arial', 'DejaVu Sans', 'Bitstream Vera Sans', 'Computer Modern Sans Serif', 'Lucida Grande', 'Verdana', 'Geneva', 'Lucid', 'Avant Garde', sans-serif; text-anchor: end" x="42.158438" y="137.796328" transform="rotate(-0 42.158438 137.796328)">0.20</text>
     </g>
    </g>
    <g id="ytick_6">
     <g id="line2d_11">
      <g>
       <use xlink:href="#m6578927fe7" x="49.158438" y="57.931266" style="stroke: #000000; stroke-width: 0.8"/>
      </g>
     </g>
     <g id="text_12">
      <text style="font-size: 10px; font-family: 'Helvetica', 'Arial', 'DejaVu Sans', 'Bitstream Vera Sans', 'Computer Modern Sans Serif', 'Lucida Grande', 'Verdana', 'Geneva', 'Lucid', 'Avant Garde', sans-serif; text-anchor: end" x="42.158438" y="61.517985" transform="rotate(-0 42.158438 61.517985)">0.22</text>
     </g>
    </g>
    <g id="text_13">
     <text style="font-size: 12px; font-family: 'Helvetica', 'Arial', 'DejaVu Sans', 'Bitstream Vera Sans', 'Computer Modern Sans Serif', 'Lucida Grande', 'Verdana', 'Geneva', 'Lucid', 'Avant Garde', sans-serif; text-anchor: middle" x="16.0425" y="269.488875" transform="rotate(-90 16.0425 269.488875)">VSV Intensity (Averaged)</text>
    </g>
   </g>
   <g id="line2d_12">
    <path d="M 74.522074 169.732513 
L 79.646041 170.342357 
L 84.770008 170.952201 
L 89.893975 171.562046 
L 95.017942 172.17189 
L 100.141909 172.781734 
L 105.265876 173.391578 
L 110.389842 174.001422 
L 115.513809 174.611267 
L 120.637776 175.221111 
L 125.761743 175.830955 
L 130.88571 176.440799 
L 136.009677 177.050644 
L 141.133644 177.660488 
L 146.257611 178.270332 
L 151.381578 178.880176 
L 156.505545 179.49002 
L 161.629512 180.099865 
L 166.753479 180.709709 
L 171.877446 181.319553 
L 177.001413 181.929397 
L 182.12538 182.539242 
L 187.249347 183.149086 
L 192.373314 183.75893 
L 197.49728 184.368774 
L 202.621247 184.978619 
L 207.745214 185.588463 
L 212.869181 186.198307 
L 217.993148 186.808151 
L 223.117115 187.417995 
L 228.241082 188.02784 
L 233.365049 188.637684 
L 238.489016 189.247528 
L 243.612983 189.857372 
L 248.73695 190.467217 
L 253.860917 191.077061 
L 258.984884 191.686905 
L 264.108851 192.296749 
L 269.232818 192.906593 
L 274.356785 193.516438 
L 279.480752 194.126282 
L 284.604718 194.736126 
L 289.728685 195.34597 
L 294.852652 195.955815 
L 299.976619 196.565659 
L 305.100586 197.175503 
L 310.224553 197.785347 
L 315.34852 198.395192 
L 320.472487 199.005036 
L 325.596454 199.61488 
L 330.720421 200.224724 
L 335.844388 200.834568 
L 340.968355 201.444413 
L 346.092322 202.054257 
L 351.216289 202.664101 
L 356.340256 203.273945 
L 361.464223 203.88379 
L 366.58819 204.493634 
L 371.712157 205.103478 
L 376.836123 205.713322 
L 381.96009 206.323166 
L 387.084057 206.933011 
L 392.208024 207.542855 
L 397.331991 208.152699 
L 402.455958 208.762543 
L 407.579925 209.372388 
L 412.703892 209.982232 
L 417.827859 210.592076 
L 422.951826 211.20192 
L 428.075793 211.811764 
L 433.19976 212.421609 
L 438.323727 213.031453 
L 443.447694 213.641297 
L 448.571661 214.251141 
L 453.695628 214.860986 
L 458.819595 215.47083 
L 463.943561 216.080674 
L 469.067528 216.690518 
L 474.191495 217.300363 
L 479.315462 217.910207 
L 484.439429 218.520051 
L 489.563396 219.129895 
L 494.687363 219.739739 
L 499.81133 220.349584 
L 504.935297 220.959428 
L 510.059264 221.569272 
L 515.183231 222.179116 
L 520.307198 222.788961 
L 525.431165 223.398805 
L 530.555132 224.008649 
L 535.679099 224.618493 
L 540.803066 225.228337 
L 545.927033 225.838182 
L 551.050999 226.448026 
L 556.174966 227.05787 
L 561.298933 227.667714 
L 566.4229 228.277559 
L 571.546867 228.887403 
L 576.670834 229.497247 
L 581.794801 230.107091 
" clip-path="url(#pf173433270)" style="fill: none; stroke: #000000; stroke-width: 2; stroke-linecap: square"/>
   </g>
   <g id="patch_3">
    <path d="M 49.158438 491.248875 
L 49.158438 47.728875 
" style="fill: none; stroke: #000000; stroke-width: 0.8; stroke-linejoin: miter; stroke-linecap: square"/>
   </g>
   <g id="patch_4">
    <path d="M 49.158438 491.248875 
L 607.158438 491.248875 
" style="fill: none; stroke: #000000; stroke-width: 0.8; stroke-linejoin: miter; stroke-linecap: square"/>
   </g>
   <g id="text_14">
    <text style="font-size: 9px; font-family: 'Helvetica', 'Arial', 'DejaVu Sans', 'Bitstream Vera Sans', 'Computer Modern Sans Serif', 'Lucida Grande', 'Verdana', 'Geneva', 'Lucid', 'Avant Garde', sans-serif; text-anchor: start" x="586.794801" y="62.888875" transform="rotate(-0 586.794801 62.888875)">A</text>
   </g>
   <g id="text_15">
    <text style="font-size: 9px; font-family: 'Helvetica', 'Arial', 'DejaVu Sans', 'Bitstream Vera Sans', 'Computer Modern Sans Serif', 'Lucida Grande', 'Verdana', 'Geneva', 'Lucid', 'Avant Garde', sans-serif; text-anchor: start" x="334.915032" y="291.811306" transform="rotate(-0 334.915032 291.811306)">AL</text>
   </g>
   <g id="text_16">
    <text style="font-size: 9px; font-family: 'Helvetica', 'Arial', 'DejaVu Sans', 'Bitstream Vera Sans', 'Computer Modern Sans Serif', 'Lucida Grande', 'Verdana', 'Geneva', 'Lucid', 'Avant Garde', sans-serif; text-anchor: start" x="186.655271" y="201.901683" transform="rotate(-0 186.655271 201.901683)">AM</text>
   </g>
   <g id="text_17">
    <text style="font-size: 9px; font-family: 'Helvetica', 'Arial', 'DejaVu Sans', 'Bitstream Vera Sans', 'Computer Modern Sans Serif', 'Lucida Grande', 'Verdana', 'Geneva', 'Lucid', 'Avant Garde', sans-serif; text-anchor: start" x="515.73896" y="83.250548" transform="rotate(-0 515.73896 83.250548)">LM</text>
   </g>
   <g id="text_18">
    <text style="font-size: 9px; font-family: 'Helvetica', 'Arial', 'DejaVu Sans', 'Bitstream Vera Sans', 'Computer Modern Sans Serif', 'Lucida Grande', 'Verdana', 'Geneva', 'Lucid', 'Avant Garde', sans-serif; text-anchor: start" x="393.918206" y="272.971517" transform="rotate(-0 393.918206 272.971517)">LI</text>
   </g>
   <g id="text_19">
    <text style="font-size: 9px; font-family: 'Helvetica', 'Arial', 'DejaVu Sans', 'Bitstream Vera Sans', 'Computer Modern Sans Serif', 'Lucida Grande', 'Verdana', 'Geneva', 'Lucid', 'Avant Garde', sans-serif; text-anchor: start" x="79.522074" y="94.123767" transform="rotate(-0 79.522074 94.123767)">PM</text>
   </g>
   <g id="text_20">
    <text style="font-size: 9px; font-family: 'Helvetica', 'Arial', 'DejaVu Sans', 'Bitstream Vera Sans', 'Computer Modern Sans Serif', 'Lucida Grande', 'Verdana', 'Geneva', 'Lucid', 'Avant Garde', sans-serif; text-anchor: start" x="508.654288" y="466.088875" transform="rotate(-0 508.654288 466.088875)">POR</text>
   </g>
   <g id="text_21">
    <text style="font-size: 9px; font-family: 'Helvetica', 'Arial', 'DejaVu Sans', 'Bitstream Vera Sans', 'Computer Modern Sans Serif', 'Lucida Grande', 'Verdana', 'Geneva', 'Lucid', 'Avant Garde', sans-serif; text-anchor: start" x="296.66355" y="114.599886" transform="rotate(-0 296.66355 114.599886)">RL</text>
   </g>
   <g id="text_22">
    <text style="font-size: 12px; font-family: 'Helvetica', 'Arial', 'DejaVu Sans', 'Bitstream Vera Sans', 'Computer Modern Sans Serif', 'Lucida Grande', 'Verdana', 'Geneva', 'Lucid', 'Avant Garde', sans-serif" transform="translate(285.805937 15.808125)">p3 - All Regions</text>
    <text style="font-size: 12px; font-family: 'Helvetica', 'Arial', 'DejaVu Sans', 'Bitstream Vera Sans', 'Computer Modern Sans Serif', 'Lucida Grande', 'Verdana', 'Geneva', 'Lucid', 'Avant Garde', sans-serif" transform="translate(268.132187 28.826625)">Imputed Data Analysis</text>
    <text style="font-size: 12px; font-family: 'Helvetica', 'Arial', 'DejaVu Sans', 'Bitstream Vera Sans', 'Computer Modern Sans Serif', 'Lucida Grande', 'Verdana', 'Geneva', 'Lucid', 'Avant Garde', sans-serif" transform="translate(266.457812 41.728875)">r = -0.1490, r² = 0.0222</text>
   </g>
  </g>
 </g>
 <defs>
  <clipPath id="pf173433270">
   <rect x="49.158438" y="47.728875" width="558" height="443.52"/>
  </clipPath>
 </defs>
</svg>
