<?xml version="1.0" encoding="utf-8" standalone="no"?>
<!DOCTYPE svg PUBLIC "-//W3C//DTD SVG 1.1//EN"
  "http://www.w3.org/Graphics/SVG/1.1/DTD/svg11.dtd">
<svg xmlns:xlink="http://www.w3.org/1999/xlink" width="608.7975pt" height="530.356062pt" viewBox="0 0 608.7975 530.356062" xmlns="http://www.w3.org/2000/svg" version="1.1">
 <metadata>
  <rdf:RDF xmlns:dc="http://purl.org/dc/elements/1.1/" xmlns:cc="http://creativecommons.org/ns#" xmlns:rdf="http://www.w3.org/1999/02/22-rdf-syntax-ns#">
   <cc:Work>
    <dc:type rdf:resource="http://purl.org/dc/dcmitype/StillImage"/>
    <dc:date>2026-02-24T12:28:50.938906</dc:date>
    <dc:format>image/svg+xml</dc:format>
    <dc:creator>
     <cc:Agent>
      <dc:title>Matplotlib v3.10.5, https://matplotlib.org/</dc:title>
     </cc:Agent>
    </dc:creator>
   </cc:Work>
  </rdf:RDF>
 </metadata>
 <defs>
  <style type="text/css">*{stroke-linejoin: round; stroke-linecap: butt}</style>
 </defs>
 <g id="figure_1">
  <g id="patch_1">
   <path d="M -0 530.356062 
L 608.7975 530.356062 
L 608.7975 0 
L -0 0 
z
" style="fill: #ffffff"/>
  </g>
  <g id="axes_1">
   <g id="patch_2">
    <path d="M 43.5975 491.4945 
L 601.5975 491.4945 
L 601.5975 47.9745 
L 43.5975 47.9745 
z
" style="fill: #ffffff"/>
   </g>
   <g id="PathCollection_1">
    <defs>
     <path id="C0_0_58bffc2f51" d="M 0 5 
C 1.326016 5 2.597899 4.473168 3.535534 3.535534 
C 4.473168 2.597899 5 1.326016 5 -0 
C 5 -1.326016 4.473168 -2.597899 3.535534 -3.535534 
C 2.597899 -4.473168 1.326016 -5 0 -5 
C -1.326016 -5 -2.597899 -4.473168 -3.535534 -3.535534 
C -4.473168 -2.597899 -5 -1.326016 -5 0 
C -5 1.326016 -4.473168 2.597899 -3.535534 3.535534 
C -2.597899 4.473168 -1.326016 5 0 5 
z
"/>
    </defs>
    <g clip-path="url(#p67f3fda1a9)">
     <use xlink:href="#C0_0_58bffc2f51" x="576.233864" y="243.554712" style="fill: #00008b"/>
    </g>
    <g clip-path="url(#p67f3fda1a9)">
     <use xlink:href="#C0_0_58bffc2f51" x="408.793982" y="471.3345" style="fill: #00008b"/>
    </g>
    <g clip-path="url(#p67f3fda1a9)">
     <use xlink:href="#C0_0_58bffc2f51" x="490.97189" y="362.587748" style="fill: #00008b"/>
    </g>
    <g clip-path="url(#p67f3fda1a9)">
     <use xlink:href="#C0_0_58bffc2f51" x="168.374758" y="206.688877" style="fill: #00008b"/>
    </g>
    <g clip-path="url(#p67f3fda1a9)">
     <use xlink:href="#C0_0_58bffc2f51" x="321.876391" y="120.792974" style="fill: #00008b"/>
    </g>
    <g clip-path="url(#p67f3fda1a9)">
     <use xlink:href="#C0_0_58bffc2f51" x="265.774308" y="387.837525" style="fill: #00008b"/>
    </g>
    <g clip-path="url(#p67f3fda1a9)">
     <use xlink:href="#C0_0_58bffc2f51" x="68.961136" y="68.1345" style="fill: #00008b"/>
    </g>
    <g clip-path="url(#p67f3fda1a9)">
     <use xlink:href="#C0_0_58bffc2f51" x="336.302959" y="279.460889" style="fill: #00008b"/>
    </g>
   </g>
   <g id="matplotlib.axis_1">
    <g id="xtick_1">
     <g id="line2d_1">
      <defs>
       <path id="m9f2c0020ec" d="M 0 0 
L 0 3.5 
" style="stroke: #000000; stroke-width: 0.8"/>
      </defs>
      <g>
       <use xlink:href="#m9f2c0020ec" x="125.447354" y="491.4945" style="stroke: #000000; stroke-width: 0.8"/>
      </g>
     </g>
     <g id="text_1">
      <text style="font-size: 10px; font-family: 'Helvetica', 'Arial', 'DejaVu Sans', 'Bitstream Vera Sans', 'Computer Modern Sans Serif', 'Lucida Grande', 'Verdana', 'Geneva', 'Lucid', 'Avant Garde', sans-serif; text-anchor: middle" x="125.447354" y="505.667937" transform="rotate(-0 125.447354 505.667937)">1.32</text>
     </g>
    </g>
    <g id="xtick_2">
     <g id="line2d_2">
      <g>
       <use xlink:href="#m9f2c0020ec" x="233.881062" y="491.4945" style="stroke: #000000; stroke-width: 0.8"/>
      </g>
     </g>
     <g id="text_2">
      <text style="font-size: 10px; font-family: 'Helvetica', 'Arial', 'DejaVu Sans', 'Bitstream Vera Sans', 'Computer Modern Sans Serif', 'Lucida Grande', 'Verdana', 'Geneva', 'Lucid', 'Avant Garde', sans-serif; text-anchor: middle" x="233.881062" y="505.667937" transform="rotate(-0 233.881062 505.667937)">1.33</text>
     </g>
    </g>
    <g id="xtick_3">
     <g id="line2d_3">
      <g>
       <use xlink:href="#m9f2c0020ec" x="342.314769" y="491.4945" style="stroke: #000000; stroke-width: 0.8"/>
      </g>
     </g>
     <g id="text_3">
      <text style="font-size: 10px; font-family: 'Helvetica', 'Arial', 'DejaVu Sans', 'Bitstream Vera Sans', 'Computer Modern Sans Serif', 'Lucida Grande', 'Verdana', 'Geneva', 'Lucid', 'Avant Garde', sans-serif; text-anchor: middle" x="342.314769" y="505.667937" transform="rotate(-0 342.314769 505.667937)">1.34</text>
     </g>
    </g>
    <g id="xtick_4">
     <g id="line2d_4">
      <g>
       <use xlink:href="#m9f2c0020ec" x="450.748477" y="491.4945" style="stroke: #000000; stroke-width: 0.8"/>
      </g>
     </g>
     <g id="text_4">
      <text style="font-size: 10px; font-family: 'Helvetica', 'Arial', 'DejaVu Sans', 'Bitstream Vera Sans', 'Computer Modern Sans Serif', 'Lucida Grande', 'Verdana', 'Geneva', 'Lucid', 'Avant Garde', sans-serif; text-anchor: middle" x="450.748477" y="505.667937" transform="rotate(-0 450.748477 505.667937)">1.35</text>
     </g>
    </g>
    <g id="xtick_5">
     <g id="line2d_5">
      <g>
       <use xlink:href="#m9f2c0020ec" x="559.182185" y="491.4945" style="stroke: #000000; stroke-width: 0.8"/>
      </g>
     </g>
     <g id="text_5">
      <text style="font-size: 10px; font-family: 'Helvetica', 'Arial', 'DejaVu Sans', 'Bitstream Vera Sans', 'Computer Modern Sans Serif', 'Lucida Grande', 'Verdana', 'Geneva', 'Lucid', 'Avant Garde', sans-serif; text-anchor: middle" x="559.182185" y="505.667937" transform="rotate(-0 559.182185 505.667937)">1.36</text>
     </g>
    </g>
    <g id="text_6">
     <text style="font-size: 12px; font-family: 'Helvetica', 'Arial', 'DejaVu Sans', 'Bitstream Vera Sans', 'Computer Modern Sans Serif', 'Lucida Grande', 'Verdana', 'Geneva', 'Lucid', 'Avant Garde', sans-serif; text-anchor: middle" x="322.5975" y="520.501062" transform="rotate(-0 322.5975 520.501062)">H2B Intensity (log10)</text>
    </g>
   </g>
   <g id="matplotlib.axis_2">
    <g id="ytick_1">
     <g id="line2d_6">
      <defs>
       <path id="m6134c8c1b9" d="M 0 0 
L -3.5 0 
" style="stroke: #000000; stroke-width: 0.8"/>
      </defs>
      <g>
       <use xlink:href="#m6134c8c1b9" x="43.5975" y="446.060352" style="stroke: #000000; stroke-width: 0.8"/>
      </g>
     </g>
     <g id="text_7">
      <text style="font-size: 10px; font-family: 'Helvetica', 'Arial', 'DejaVu Sans', 'Bitstream Vera Sans', 'Computer Modern Sans Serif', 'Lucida Grande', 'Verdana', 'Geneva', 'Lucid', 'Avant Garde', sans-serif; text-anchor: end" x="36.5975" y="449.647071" transform="rotate(-0 36.5975 449.647071)">0.8</text>
     </g>
    </g>
    <g id="ytick_2">
     <g id="line2d_7">
      <g>
       <use xlink:href="#m6134c8c1b9" x="43.5975" y="361.893537" style="stroke: #000000; stroke-width: 0.8"/>
      </g>
     </g>
     <g id="text_8">
      <text style="font-size: 10px; font-family: 'Helvetica', 'Arial', 'DejaVu Sans', 'Bitstream Vera Sans', 'Computer Modern Sans Serif', 'Lucida Grande', 'Verdana', 'Geneva', 'Lucid', 'Avant Garde', sans-serif; text-anchor: end" x="36.5975" y="365.480255" transform="rotate(-0 36.5975 365.480255)">1.0</text>
     </g>
    </g>
    <g id="ytick_3">
     <g id="line2d_8">
      <g>
       <use xlink:href="#m6134c8c1b9" x="43.5975" y="277.726721" style="stroke: #000000; stroke-width: 0.8"/>
      </g>
     </g>
     <g id="text_9">
      <text style="font-size: 10px; font-family: 'Helvetica', 'Arial', 'DejaVu Sans', 'Bitstream Vera Sans', 'Computer Modern Sans Serif', 'Lucida Grande', 'Verdana', 'Geneva', 'Lucid', 'Avant Garde', sans-serif; text-anchor: end" x="36.5975" y="281.31344" transform="rotate(-0 36.5975 281.31344)">1.2</text>
     </g>
    </g>
    <g id="ytick_4">
     <g id="line2d_9">
      <g>
       <use xlink:href="#m6134c8c1b9" x="43.5975" y="193.559905" style="stroke: #000000; stroke-width: 0.8"/>
      </g>
     </g>
     <g id="text_10">
      <text style="font-size: 10px; font-family: 'Helvetica', 'Arial', 'DejaVu Sans', 'Bitstream Vera Sans', 'Computer Modern Sans Serif', 'Lucida Grande', 'Verdana', 'Geneva', 'Lucid', 'Avant Garde', sans-serif; text-anchor: end" x="36.5975" y="197.146624" transform="rotate(-0 36.5975 197.146624)">1.4</text>
     </g>
    </g>
    <g id="ytick_5">
     <g id="line2d_10">
      <g>
       <use xlink:href="#m6134c8c1b9" x="43.5975" y="109.39309" style="stroke: #000000; stroke-width: 0.8"/>
      </g>
     </g>
     <g id="text_11">
      <text style="font-size: 10px; font-family: 'Helvetica', 'Arial', 'DejaVu Sans', 'Bitstream Vera Sans', 'Computer Modern Sans Serif', 'Lucida Grande', 'Verdana', 'Geneva', 'Lucid', 'Avant Garde', sans-serif; text-anchor: end" x="36.5975" y="112.979808" transform="rotate(-0 36.5975 112.979808)">1.6</text>
     </g>
    </g>
    <g id="text_12">
     <text style="font-size: 12px; font-family: 'Helvetica', 'Arial', 'DejaVu Sans', 'Bitstream Vera Sans', 'Computer Modern Sans Serif', 'Lucida Grande', 'Verdana', 'Geneva', 'Lucid', 'Avant Garde', sans-serif; text-anchor: middle" x="16.0425" y="269.7345" transform="rotate(-90 16.0425 269.7345)">VSV Intensity (log10)</text>
    </g>
   </g>
   <g id="line2d_11">
    <path d="M 68.961136 157.294954 
L 74.085103 159.461957 
L 79.20907 161.628961 
L 84.333037 163.795965 
L 89.457004 165.962968 
L 94.580971 168.129972 
L 99.704938 170.296976 
L 104.828905 172.463979 
L 109.952872 174.630983 
L 115.076839 176.797987 
L 120.200806 178.96499 
L 125.324773 181.131994 
L 130.44874 183.298998 
L 135.572707 185.466001 
L 140.696674 187.633005 
L 145.82064 189.800009 
L 150.944607 191.967012 
L 156.068574 194.134016 
L 161.192541 196.30102 
L 166.316508 198.468024 
L 171.440475 200.635027 
L 176.564442 202.802031 
L 181.688409 204.969035 
L 186.812376 207.136038 
L 191.936343 209.303042 
L 197.06031 211.470046 
L 202.184277 213.637049 
L 207.308244 215.804053 
L 212.432211 217.971057 
L 217.556178 220.13806 
L 222.680145 222.305064 
L 227.804112 224.472068 
L 232.928079 226.639071 
L 238.052045 228.806075 
L 243.176012 230.973079 
L 248.299979 233.140082 
L 253.423946 235.307086 
L 258.547913 237.47409 
L 263.67188 239.641093 
L 268.795847 241.808097 
L 273.919814 243.975101 
L 279.043781 246.142105 
L 284.167748 248.309108 
L 289.291715 250.476112 
L 294.415682 252.643116 
L 299.539649 254.810119 
L 304.663616 256.977123 
L 309.787583 259.144127 
L 314.91155 261.31113 
L 320.035517 263.478134 
L 325.159483 265.645138 
L 330.28345 267.812141 
L 335.407417 269.979145 
L 340.531384 272.146149 
L 345.655351 274.313152 
L 350.779318 276.480156 
L 355.903285 278.64716 
L 361.027252 280.814163 
L 366.151219 282.981167 
L 371.275186 285.148171 
L 376.399153 287.315174 
L 381.52312 289.482178 
L 386.647087 291.649182 
L 391.771054 293.816185 
L 396.895021 295.983189 
L 402.018988 298.150193 
L 407.142955 300.317197 
L 412.266921 302.4842 
L 417.390888 304.651204 
L 422.514855 306.818208 
L 427.638822 308.985211 
L 432.762789 311.152215 
L 437.886756 313.319219 
L 443.010723 315.486222 
L 448.13469 317.653226 
L 453.258657 319.82023 
L 458.382624 321.987233 
L 463.506591 324.154237 
L 468.630558 326.321241 
L 473.754525 328.488244 
L 478.878492 330.655248 
L 484.002459 332.822252 
L 489.126426 334.989255 
L 494.250393 337.156259 
L 499.37436 339.323263 
L 504.498326 341.490266 
L 509.622293 343.65727 
L 514.74626 345.824274 
L 519.870227 347.991278 
L 524.994194 350.158281 
L 530.118161 352.325285 
L 535.242128 354.492289 
L 540.366095 356.659292 
L 545.490062 358.826296 
L 550.614029 360.9933 
L 555.737996 363.160303 
L 560.861963 365.327307 
L 565.98593 367.494311 
L 571.109897 369.661314 
L 576.233864 371.828318 
" clip-path="url(#p67f3fda1a9)" style="fill: none; stroke: #000000; stroke-width: 2; stroke-linecap: square"/>
   </g>
   <g id="patch_3">
    <path d="M 43.5975 491.4945 
L 43.5975 47.9745 
" style="fill: none; stroke: #000000; stroke-width: 0.8; stroke-linejoin: miter; stroke-linecap: square"/>
   </g>
   <g id="patch_4">
    <path d="M 43.5975 491.4945 
L 601.5975 491.4945 
" style="fill: none; stroke: #000000; stroke-width: 0.8; stroke-linejoin: miter; stroke-linecap: square"/>
   </g>
   <g id="text_13">
    <text style="font-size: 9px; font-family: 'Helvetica', 'Arial', 'DejaVu Sans', 'Bitstream Vera Sans', 'Computer Modern Sans Serif', 'Lucida Grande', 'Verdana', 'Geneva', 'Lucid', 'Avant Garde', sans-serif; text-anchor: start" x="581.233864" y="238.554712" transform="rotate(-0 581.233864 238.554712)">A</text>
   </g>
   <g id="text_14">
    <text style="font-size: 9px; font-family: 'Helvetica', 'Arial', 'DejaVu Sans', 'Bitstream Vera Sans', 'Computer Modern Sans Serif', 'Lucida Grande', 'Verdana', 'Geneva', 'Lucid', 'Avant Garde', sans-serif; text-anchor: start" x="413.793982" y="466.3345" transform="rotate(-0 413.793982 466.3345)">AL</text>
   </g>
   <g id="text_15">
    <text style="font-size: 9px; font-family: 'Helvetica', 'Arial', 'DejaVu Sans', 'Bitstream Vera Sans', 'Computer Modern Sans Serif', 'Lucida Grande', 'Verdana', 'Geneva', 'Lucid', 'Avant Garde', sans-serif; text-anchor: start" x="495.97189" y="357.587748" transform="rotate(-0 495.97189 357.587748)">AM</text>
   </g>
   <g id="text_16">
    <text style="font-size: 9px; font-family: 'Helvetica', 'Arial', 'DejaVu Sans', 'Bitstream Vera Sans', 'Computer Modern Sans Serif', 'Lucida Grande', 'Verdana', 'Geneva', 'Lucid', 'Avant Garde', sans-serif; text-anchor: start" x="173.374758" y="201.688877" transform="rotate(-0 173.374758 201.688877)">LM</text>
   </g>
   <g id="text_17">
    <text style="font-size: 9px; font-family: 'Helvetica', 'Arial', 'DejaVu Sans', 'Bitstream Vera Sans', 'Computer Modern Sans Serif', 'Lucida Grande', 'Verdana', 'Geneva', 'Lucid', 'Avant Garde', sans-serif; text-anchor: start" x="326.876391" y="115.792974" transform="rotate(-0 326.876391 115.792974)">LI</text>
   </g>
   <g id="text_18">
    <text style="font-size: 9px; font-family: 'Helvetica', 'Arial', 'DejaVu Sans', 'Bitstream Vera Sans', 'Computer Modern Sans Serif', 'Lucida Grande', 'Verdana', 'Geneva', 'Lucid', 'Avant Garde', sans-serif; text-anchor: start" x="270.774308" y="382.837525" transform="rotate(-0 270.774308 382.837525)">PM</text>
   </g>
   <g id="text_19">
    <text style="font-size: 9px; font-family: 'Helvetica', 'Arial', 'DejaVu Sans', 'Bitstream Vera Sans', 'Computer Modern Sans Serif', 'Lucida Grande', 'Verdana', 'Geneva', 'Lucid', 'Avant Garde', sans-serif; text-anchor: start" x="73.961136" y="63.1345" transform="rotate(-0 73.961136 63.1345)">POR</text>
   </g>
   <g id="text_20">
    <text style="font-size: 9px; font-family: 'Helvetica', 'Arial', 'DejaVu Sans', 'Bitstream Vera Sans', 'Computer Modern Sans Serif', 'Lucida Grande', 'Verdana', 'Geneva', 'Lucid', 'Avant Garde', sans-serif; text-anchor: start" x="341.302959" y="274.460889" transform="rotate(-0 341.302959 274.460889)">RL</text>
   </g>
   <g id="text_21">
    <text style="font-size: 12px; font-family: 'Helvetica', 'Arial', 'DejaVu Sans', 'Bitstream Vera Sans', 'Computer Modern Sans Serif', 'Lucida Grande', 'Verdana', 'Geneva', 'Lucid', 'Avant Garde', sans-serif" transform="translate(273.908438 15.83625)">adult - All Regions</text>
    <text style="font-size: 12px; font-family: 'Helvetica', 'Arial', 'DejaVu Sans', 'Bitstream Vera Sans', 'Computer Modern Sans Serif', 'Lucida Grande', 'Verdana', 'Geneva', 'Lucid', 'Avant Garde', sans-serif" transform="translate(229.558125 28.98975)">Averaged Replicates Analysis (log)</text>
    <text style="font-size: 12px; font-family: 'Helvetica', 'Arial', 'DejaVu Sans', 'Bitstream Vera Sans', 'Computer Modern Sans Serif', 'Lucida Grande', 'Verdana', 'Geneva', 'Lucid', 'Avant Garde', sans-serif" transform="translate(260.896875 41.9745)">r = -0.5115, r² = 0.2616</text>
   </g>
  </g>
 </g>
 <defs>
  <clipPath id="p67f3fda1a9">
   <rect x="43.5975" y="47.9745" width="558" height="443.52"/>
  </clipPath>
 </defs>
</svg>
