<?xml version="1.0" encoding="utf-8" standalone="no"?>
<!DOCTYPE svg PUBLIC "-//W3C//DTD SVG 1.1//EN"
  "http://www.w3.org/Graphics/SVG/1.1/DTD/svg11.dtd">
<svg xmlns:xlink="http://www.w3.org/1999/xlink" width="614.358438pt" height="530.327937pt" viewBox="0 0 614.358438 530.327937" xmlns="http://www.w3.org/2000/svg" version="1.1">
 <metadata>
  <rdf:RDF xmlns:dc="http://purl.org/dc/elements/1.1/" xmlns:cc="http://creativecommons.org/ns#" xmlns:rdf="http://www.w3.org/1999/02/22-rdf-syntax-ns#">
   <cc:Work>
    <dc:type rdf:resource="http://purl.org/dc/dcmitype/StillImage"/>
    <dc:date>2026-02-24T12:29:18.637286</dc:date>
    <dc:format>image/svg+xml</dc:format>
    <dc:creator>
     <cc:Agent>
      <dc:title>Matplotlib v3.10.5, https://matplotlib.org/</dc:title>
     </cc:Agent>
    </dc:creator>
   </cc:Work>
  </rdf:RDF>
 </metadata>
 <defs>
  <style type="text/css">*{stroke-linejoin: round; stroke-linecap: butt}</style>
 </defs>
 <g id="figure_1">
  <g id="patch_1">
   <path d="M 0 530.327937 
L 614.358438 530.327937 
L 614.358438 0 
L 0 0 
z
" style="fill: #ffffff"/>
  </g>
  <g id="axes_1">
   <g id="patch_2">
    <path d="M 49.158438 491.466375 
L 607.158437 491.466375 
L 607.158437 47.946375 
L 49.158438 47.946375 
z
" style="fill: #ffffff"/>
   </g>
   <g id="PathCollection_1">
    <defs>
     <path id="C0_0_bd353997b5" d="M 0 5 
C 1.326016 5 2.597899 4.473168 3.535534 3.535534 
C 4.473168 2.597899 5 1.326016 5 -0 
C 5 -1.326016 4.473168 -2.597899 3.535534 -3.535534 
C 2.597899 -4.473168 1.326016 -5 0 -5 
C -1.326016 -5 -2.597899 -4.473168 -3.535534 -3.535534 
C -4.473168 -2.597899 -5 -1.326016 -5 0 
C -5 1.326016 -4.473168 2.597899 -3.535534 3.535534 
C -2.597899 4.473168 -1.326016 5 0 5 
z
"/>
    </defs>
    <g clip-path="url(#p1b8bcdf909)">
     <use xlink:href="#C0_0_bd353997b5" x="426.302409" y="107.851149" style="fill: #00008b"/>
    </g>
    <g clip-path="url(#p1b8bcdf909)">
     <use xlink:href="#C0_0_bd353997b5" x="555.392913" y="168.340685" style="fill: #00008b"/>
    </g>
    <g clip-path="url(#p1b8bcdf909)">
     <use xlink:href="#C0_0_bd353997b5" x="426.033594" y="68.106375" style="fill: #00008b"/>
    </g>
    <g clip-path="url(#p1b8bcdf909)">
     <use xlink:href="#C0_0_bd353997b5" x="344.436691" y="350.773949" style="fill: #00008b"/>
    </g>
    <g clip-path="url(#p1b8bcdf909)">
     <use xlink:href="#C0_0_bd353997b5" x="418.392278" y="410.224859" style="fill: #00008b"/>
    </g>
    <g clip-path="url(#p1b8bcdf909)">
     <use xlink:href="#C0_0_bd353997b5" x="429.089324" y="81.155311" style="fill: #00008b"/>
    </g>
    <g clip-path="url(#p1b8bcdf909)">
     <use xlink:href="#C0_0_bd353997b5" x="74.522074" y="468.511989" style="fill: #00008b"/>
    </g>
    <g clip-path="url(#p1b8bcdf909)">
     <use xlink:href="#C0_0_bd353997b5" x="581.794801" y="80.356209" style="fill: #00008b"/>
    </g>
   </g>
   <g id="matplotlib.axis_1">
    <g id="xtick_1">
     <g id="line2d_1">
      <defs>
       <path id="m844ac13b32" d="M 0 0 
L 0 3.5 
" style="stroke: #000000; stroke-width: 0.8"/>
      </defs>
      <g>
       <use xlink:href="#m844ac13b32" x="77.719525" y="491.466375" style="stroke: #000000; stroke-width: 0.8"/>
      </g>
     </g>
     <g id="text_1">
      <text style="font-size: 10px; font-family: 'Helvetica', 'Arial', 'DejaVu Sans', 'Bitstream Vera Sans', 'Computer Modern Sans Serif', 'Lucida Grande', 'Verdana', 'Geneva', 'Lucid', 'Avant Garde', sans-serif; text-anchor: middle" x="77.719525" y="505.639812" transform="rotate(-0 77.719525 505.639812)">0.16</text>
     </g>
    </g>
    <g id="xtick_2">
     <g id="line2d_2">
      <g>
       <use xlink:href="#m844ac13b32" x="172.414554" y="491.466375" style="stroke: #000000; stroke-width: 0.8"/>
      </g>
     </g>
     <g id="text_2">
      <text style="font-size: 10px; font-family: 'Helvetica', 'Arial', 'DejaVu Sans', 'Bitstream Vera Sans', 'Computer Modern Sans Serif', 'Lucida Grande', 'Verdana', 'Geneva', 'Lucid', 'Avant Garde', sans-serif; text-anchor: middle" x="172.414554" y="505.639812" transform="rotate(-0 172.414554 505.639812)">0.18</text>
     </g>
    </g>
    <g id="xtick_3">
     <g id="line2d_3">
      <g>
       <use xlink:href="#m844ac13b32" x="267.109583" y="491.466375" style="stroke: #000000; stroke-width: 0.8"/>
      </g>
     </g>
     <g id="text_3">
      <text style="font-size: 10px; font-family: 'Helvetica', 'Arial', 'DejaVu Sans', 'Bitstream Vera Sans', 'Computer Modern Sans Serif', 'Lucida Grande', 'Verdana', 'Geneva', 'Lucid', 'Avant Garde', sans-serif; text-anchor: middle" x="267.109583" y="505.639812" transform="rotate(-0 267.109583 505.639812)">0.20</text>
     </g>
    </g>
    <g id="xtick_4">
     <g id="line2d_4">
      <g>
       <use xlink:href="#m844ac13b32" x="361.804613" y="491.466375" style="stroke: #000000; stroke-width: 0.8"/>
      </g>
     </g>
     <g id="text_4">
      <text style="font-size: 10px; font-family: 'Helvetica', 'Arial', 'DejaVu Sans', 'Bitstream Vera Sans', 'Computer Modern Sans Serif', 'Lucida Grande', 'Verdana', 'Geneva', 'Lucid', 'Avant Garde', sans-serif; text-anchor: middle" x="361.804613" y="505.639812" transform="rotate(-0 361.804613 505.639812)">0.22</text>
     </g>
    </g>
    <g id="xtick_5">
     <g id="line2d_5">
      <g>
       <use xlink:href="#m844ac13b32" x="456.499642" y="491.466375" style="stroke: #000000; stroke-width: 0.8"/>
      </g>
     </g>
     <g id="text_5">
      <text style="font-size: 10px; font-family: 'Helvetica', 'Arial', 'DejaVu Sans', 'Bitstream Vera Sans', 'Computer Modern Sans Serif', 'Lucida Grande', 'Verdana', 'Geneva', 'Lucid', 'Avant Garde', sans-serif; text-anchor: middle" x="456.499642" y="505.639812" transform="rotate(-0 456.499642 505.639812)">0.24</text>
     </g>
    </g>
    <g id="xtick_6">
     <g id="line2d_6">
      <g>
       <use xlink:href="#m844ac13b32" x="551.194671" y="491.466375" style="stroke: #000000; stroke-width: 0.8"/>
      </g>
     </g>
     <g id="text_6">
      <text style="font-size: 10px; font-family: 'Helvetica', 'Arial', 'DejaVu Sans', 'Bitstream Vera Sans', 'Computer Modern Sans Serif', 'Lucida Grande', 'Verdana', 'Geneva', 'Lucid', 'Avant Garde', sans-serif; text-anchor: middle" x="551.194671" y="505.639812" transform="rotate(-0 551.194671 505.639812)">0.26</text>
     </g>
    </g>
    <g id="text_7">
     <text style="font-size: 12px; font-family: 'Helvetica', 'Arial', 'DejaVu Sans', 'Bitstream Vera Sans', 'Computer Modern Sans Serif', 'Lucida Grande', 'Verdana', 'Geneva', 'Lucid', 'Avant Garde', sans-serif; text-anchor: middle" x="328.158437" y="520.472937" transform="rotate(-0 328.158437 520.472937)">H2B Intensity (log10)</text>
    </g>
   </g>
   <g id="matplotlib.axis_2">
    <g id="ytick_1">
     <g id="line2d_7">
      <defs>
       <path id="mbe0ec0cb9c" d="M 0 0 
L -3.5 0 
" style="stroke: #000000; stroke-width: 0.8"/>
      </defs>
      <g>
       <use xlink:href="#mbe0ec0cb9c" x="49.158438" y="491.226478" style="stroke: #000000; stroke-width: 0.8"/>
      </g>
     </g>
     <g id="text_8">
      <text style="font-size: 10px; font-family: 'Helvetica', 'Arial', 'DejaVu Sans', 'Bitstream Vera Sans', 'Computer Modern Sans Serif', 'Lucida Grande', 'Verdana', 'Geneva', 'Lucid', 'Avant Garde', sans-serif; text-anchor: end" x="42.158438" y="494.813196" transform="rotate(-0 42.158438 494.813196)">0.02</text>
     </g>
    </g>
    <g id="ytick_2">
     <g id="line2d_8">
      <g>
       <use xlink:href="#mbe0ec0cb9c" x="49.158438" y="414.615287" style="stroke: #000000; stroke-width: 0.8"/>
      </g>
     </g>
     <g id="text_9">
      <text style="font-size: 10px; font-family: 'Helvetica', 'Arial', 'DejaVu Sans', 'Bitstream Vera Sans', 'Computer Modern Sans Serif', 'Lucida Grande', 'Verdana', 'Geneva', 'Lucid', 'Avant Garde', sans-serif; text-anchor: end" x="42.158438" y="418.202006" transform="rotate(-0 42.158438 418.202006)">0.04</text>
     </g>
    </g>
    <g id="ytick_3">
     <g id="line2d_9">
      <g>
       <use xlink:href="#mbe0ec0cb9c" x="49.158438" y="338.004096" style="stroke: #000000; stroke-width: 0.8"/>
      </g>
     </g>
     <g id="text_10">
      <text style="font-size: 10px; font-family: 'Helvetica', 'Arial', 'DejaVu Sans', 'Bitstream Vera Sans', 'Computer Modern Sans Serif', 'Lucida Grande', 'Verdana', 'Geneva', 'Lucid', 'Avant Garde', sans-serif; text-anchor: end" x="42.158438" y="341.590815" transform="rotate(-0 42.158438 341.590815)">0.06</text>
     </g>
    </g>
    <g id="ytick_4">
     <g id="line2d_10">
      <g>
       <use xlink:href="#mbe0ec0cb9c" x="49.158438" y="261.392905" style="stroke: #000000; stroke-width: 0.8"/>
      </g>
     </g>
     <g id="text_11">
      <text style="font-size: 10px; font-family: 'Helvetica', 'Arial', 'DejaVu Sans', 'Bitstream Vera Sans', 'Computer Modern Sans Serif', 'Lucida Grande', 'Verdana', 'Geneva', 'Lucid', 'Avant Garde', sans-serif; text-anchor: end" x="42.158438" y="264.979624" transform="rotate(-0 42.158438 264.979624)">0.08</text>
     </g>
    </g>
    <g id="ytick_5">
     <g id="line2d_11">
      <g>
       <use xlink:href="#mbe0ec0cb9c" x="49.158438" y="184.781714" style="stroke: #000000; stroke-width: 0.8"/>
      </g>
     </g>
     <g id="text_12">
      <text style="font-size: 10px; font-family: 'Helvetica', 'Arial', 'DejaVu Sans', 'Bitstream Vera Sans', 'Computer Modern Sans Serif', 'Lucida Grande', 'Verdana', 'Geneva', 'Lucid', 'Avant Garde', sans-serif; text-anchor: end" x="42.158438" y="188.368433" transform="rotate(-0 42.158438 188.368433)">0.10</text>
     </g>
    </g>
    <g id="ytick_6">
     <g id="line2d_12">
      <g>
       <use xlink:href="#mbe0ec0cb9c" x="49.158438" y="108.170524" style="stroke: #000000; stroke-width: 0.8"/>
      </g>
     </g>
     <g id="text_13">
      <text style="font-size: 10px; font-family: 'Helvetica', 'Arial', 'DejaVu Sans', 'Bitstream Vera Sans', 'Computer Modern Sans Serif', 'Lucida Grande', 'Verdana', 'Geneva', 'Lucid', 'Avant Garde', sans-serif; text-anchor: end" x="42.158438" y="111.757242" transform="rotate(-0 42.158438 111.757242)">0.12</text>
     </g>
    </g>
    <g id="text_14">
     <text style="font-size: 12px; font-family: 'Helvetica', 'Arial', 'DejaVu Sans', 'Bitstream Vera Sans', 'Computer Modern Sans Serif', 'Lucida Grande', 'Verdana', 'Geneva', 'Lucid', 'Avant Garde', sans-serif; text-anchor: middle" x="16.0425" y="269.706375" transform="rotate(-90 16.0425 269.706375)">VSV Intensity (log10)</text>
    </g>
   </g>
   <g id="line2d_13">
    <path d="M 74.522074 471.306375 
L 79.646041 467.385783 
L 84.770008 463.465191 
L 89.893975 459.544599 
L 95.017942 455.624007 
L 100.141909 451.703416 
L 105.265876 447.782824 
L 110.389842 443.862232 
L 115.513809 439.94164 
L 120.637776 436.021048 
L 125.761743 432.100456 
L 130.88571 428.179864 
L 136.009677 424.259272 
L 141.133644 420.33868 
L 146.257611 416.418089 
L 151.381578 412.497497 
L 156.505545 408.576905 
L 161.629512 404.656313 
L 166.753479 400.735721 
L 171.877446 396.815129 
L 177.001413 392.894537 
L 182.12538 388.973945 
L 187.249347 385.053353 
L 192.373314 381.132762 
L 197.49728 377.21217 
L 202.621247 373.291578 
L 207.745214 369.370986 
L 212.869181 365.450394 
L 217.993148 361.529802 
L 223.117115 357.60921 
L 228.241082 353.688618 
L 233.365049 349.768026 
L 238.489016 345.847435 
L 243.612983 341.926843 
L 248.73695 338.006251 
L 253.860917 334.085659 
L 258.984884 330.165067 
L 264.108851 326.244475 
L 269.232818 322.323883 
L 274.356785 318.403291 
L 279.480752 314.4827 
L 284.604718 310.562108 
L 289.728685 306.641516 
L 294.852652 302.720924 
L 299.976619 298.800332 
L 305.100586 294.87974 
L 310.224553 290.959148 
L 315.34852 287.038556 
L 320.472487 283.117964 
L 325.596454 279.197373 
L 330.720421 275.276781 
L 335.844388 271.356189 
L 340.968355 267.435597 
L 346.092322 263.515005 
L 351.216289 259.594413 
L 356.340256 255.673821 
L 361.464223 251.753229 
L 366.58819 247.832637 
L 371.712157 243.912046 
L 376.836123 239.991454 
L 381.96009 236.070862 
L 387.084057 232.15027 
L 392.208024 228.229678 
L 397.331991 224.309086 
L 402.455958 220.388494 
L 407.579925 216.467902 
L 412.703892 212.54731 
L 417.827859 208.626719 
L 422.951826 204.706127 
L 428.075793 200.785535 
L 433.19976 196.864943 
L 438.323727 192.944351 
L 443.447694 189.023759 
L 448.571661 185.103167 
L 453.695628 181.182575 
L 458.819595 177.261983 
L 463.943561 173.341392 
L 469.067528 169.4208 
L 474.191495 165.500208 
L 479.315462 161.579616 
L 484.439429 157.659024 
L 489.563396 153.738432 
L 494.687363 149.81784 
L 499.81133 145.897248 
L 504.935297 141.976656 
L 510.059264 138.056065 
L 515.183231 134.135473 
L 520.307198 130.214881 
L 525.431165 126.294289 
L 530.555132 122.373697 
L 535.679099 118.453105 
L 540.803066 114.532513 
L 545.927033 110.611921 
L 551.050999 106.691329 
L 556.174966 102.770738 
L 561.298933 98.850146 
L 566.4229 94.929554 
L 571.546867 91.008962 
L 576.670834 87.08837 
L 581.794801 83.167778 
" clip-path="url(#p1b8bcdf909)" style="fill: none; stroke: #000000; stroke-width: 2; stroke-linecap: square"/>
   </g>
   <g id="patch_3">
    <path d="M 49.158438 491.466375 
L 49.158438 47.946375 
" style="fill: none; stroke: #000000; stroke-width: 0.8; stroke-linejoin: miter; stroke-linecap: square"/>
   </g>
   <g id="patch_4">
    <path d="M 49.158437 491.466375 
L 607.158438 491.466375 
" style="fill: none; stroke: #000000; stroke-width: 0.8; stroke-linejoin: miter; stroke-linecap: square"/>
   </g>
   <g id="text_15">
    <text style="font-size: 9px; font-family: 'Helvetica', 'Arial', 'DejaVu Sans', 'Bitstream Vera Sans', 'Computer Modern Sans Serif', 'Lucida Grande', 'Verdana', 'Geneva', 'Lucid', 'Avant Garde', sans-serif; text-anchor: start" x="431.302409" y="102.851149" transform="rotate(-0 431.302409 102.851149)">A</text>
   </g>
   <g id="text_16">
    <text style="font-size: 9px; font-family: 'Helvetica', 'Arial', 'DejaVu Sans', 'Bitstream Vera Sans', 'Computer Modern Sans Serif', 'Lucida Grande', 'Verdana', 'Geneva', 'Lucid', 'Avant Garde', sans-serif; text-anchor: start" x="560.392913" y="163.340685" transform="rotate(-0 560.392913 163.340685)">AL</text>
   </g>
   <g id="text_17">
    <text style="font-size: 9px; font-family: 'Helvetica', 'Arial', 'DejaVu Sans', 'Bitstream Vera Sans', 'Computer Modern Sans Serif', 'Lucida Grande', 'Verdana', 'Geneva', 'Lucid', 'Avant Garde', sans-serif; text-anchor: start" x="431.033594" y="63.106375" transform="rotate(-0 431.033594 63.106375)">AM</text>
   </g>
   <g id="text_18">
    <text style="font-size: 9px; font-family: 'Helvetica', 'Arial', 'DejaVu Sans', 'Bitstream Vera Sans', 'Computer Modern Sans Serif', 'Lucida Grande', 'Verdana', 'Geneva', 'Lucid', 'Avant Garde', sans-serif; text-anchor: start" x="349.436691" y="345.773949" transform="rotate(-0 349.436691 345.773949)">LM</text>
   </g>
   <g id="text_19">
    <text style="font-size: 9px; font-family: 'Helvetica', 'Arial', 'DejaVu Sans', 'Bitstream Vera Sans', 'Computer Modern Sans Serif', 'Lucida Grande', 'Verdana', 'Geneva', 'Lucid', 'Avant Garde', sans-serif; text-anchor: start" x="423.392278" y="405.224859" transform="rotate(-0 423.392278 405.224859)">LI</text>
   </g>
   <g id="text_20">
    <text style="font-size: 9px; font-family: 'Helvetica', 'Arial', 'DejaVu Sans', 'Bitstream Vera Sans', 'Computer Modern Sans Serif', 'Lucida Grande', 'Verdana', 'Geneva', 'Lucid', 'Avant Garde', sans-serif; text-anchor: start" x="434.089324" y="76.155311" transform="rotate(-0 434.089324 76.155311)">PM</text>
   </g>
   <g id="text_21">
    <text style="font-size: 9px; font-family: 'Helvetica', 'Arial', 'DejaVu Sans', 'Bitstream Vera Sans', 'Computer Modern Sans Serif', 'Lucida Grande', 'Verdana', 'Geneva', 'Lucid', 'Avant Garde', sans-serif; text-anchor: start" x="79.522074" y="463.511989" transform="rotate(-0 79.522074 463.511989)">POR</text>
   </g>
   <g id="text_22">
    <text style="font-size: 9px; font-family: 'Helvetica', 'Arial', 'DejaVu Sans', 'Bitstream Vera Sans', 'Computer Modern Sans Serif', 'Lucida Grande', 'Verdana', 'Geneva', 'Lucid', 'Avant Garde', sans-serif; text-anchor: start" x="586.794801" y="75.356209" transform="rotate(-0 586.794801 75.356209)">RL</text>
   </g>
   <g id="text_23">
    <text style="font-size: 12px; font-family: 'Helvetica', 'Arial', 'DejaVu Sans', 'Bitstream Vera Sans', 'Computer Modern Sans Serif', 'Lucida Grande', 'Verdana', 'Geneva', 'Lucid', 'Avant Garde', sans-serif" transform="translate(282.469375 15.808125)">p20 - All Regions</text>
    <text style="font-size: 12px; font-family: 'Helvetica', 'Arial', 'DejaVu Sans', 'Bitstream Vera Sans', 'Computer Modern Sans Serif', 'Lucida Grande', 'Verdana', 'Geneva', 'Lucid', 'Avant Garde', sans-serif" transform="translate(235.119062 28.961625)">Averaged Replicates Analysis (log)</text>
    <text style="font-size: 12px; font-family: 'Helvetica', 'Arial', 'DejaVu Sans', 'Bitstream Vera Sans', 'Computer Modern Sans Serif', 'Lucida Grande', 'Verdana', 'Geneva', 'Lucid', 'Avant Garde', sans-serif" transform="translate(268.455625 41.946375)">r = 0.7164, r² = 0.5133</text>
   </g>
  </g>
 </g>
 <defs>
  <clipPath id="p1b8bcdf909">
   <rect x="49.158438" y="47.946375" width="558" height="443.52"/>
  </clipPath>
 </defs>
</svg>
