<?xml version="1.0" encoding="utf-8" standalone="no"?>
<!DOCTYPE svg PUBLIC "-//W3C//DTD SVG 1.1//EN"
  "http://www.w3.org/Graphics/SVG/1.1/DTD/svg11.dtd">
<svg xmlns:xlink="http://www.w3.org/1999/xlink" width="608.7975pt" height="530.440437pt" viewBox="0 0 608.7975 530.440437" xmlns="http://www.w3.org/2000/svg" version="1.1">
 <metadata>
  <rdf:RDF xmlns:dc="http://purl.org/dc/elements/1.1/" xmlns:cc="http://creativecommons.org/ns#" xmlns:rdf="http://www.w3.org/1999/02/22-rdf-syntax-ns#">
   <cc:Work>
    <dc:type rdf:resource="http://purl.org/dc/dcmitype/StillImage"/>
    <dc:date>2026-02-24T12:29:59.741391</dc:date>
    <dc:format>image/svg+xml</dc:format>
    <dc:creator>
     <cc:Agent>
      <dc:title>Matplotlib v3.10.5, https://matplotlib.org/</dc:title>
     </cc:Agent>
    </dc:creator>
   </cc:Work>
  </rdf:RDF>
 </metadata>
 <defs>
  <style type="text/css">*{stroke-linejoin: round; stroke-linecap: butt}</style>
 </defs>
 <g id="figure_1">
  <g id="patch_1">
   <path d="M -0 530.440437 
L 608.7975 530.440437 
L 608.7975 0 
L -0 0 
z
" style="fill: #ffffff"/>
  </g>
  <g id="axes_1">
   <g id="patch_2">
    <path d="M 43.5975 491.578875 
L 601.5975 491.578875 
L 601.5975 48.058875 
L 43.5975 48.058875 
z
" style="fill: #ffffff"/>
   </g>
   <g id="PathCollection_1">
    <defs>
     <path id="C0_0_4eea80cdfb" d="M 0 5 
C 1.326016 5 2.597899 4.473168 3.535534 3.535534 
C 4.473168 2.597899 5 1.326016 5 -0 
C 5 -1.326016 4.473168 -2.597899 3.535534 -3.535534 
C 2.597899 -4.473168 1.326016 -5 0 -5 
C -1.326016 -5 -2.597899 -4.473168 -3.535534 -3.535534 
C -4.473168 -2.597899 -5 -1.326016 -5 0 
C -5 1.326016 -4.473168 2.597899 -3.535534 3.535534 
C -2.597899 4.473168 -1.326016 5 0 5 
z
"/>
    </defs>
    <g clip-path="url(#p420f0cdbf1)">
     <use xlink:href="#C0_0_4eea80cdfb" x="68.961136" y="355.224548" style="fill: #00008b"/>
    </g>
    <g clip-path="url(#p420f0cdbf1)">
     <use xlink:href="#C0_0_4eea80cdfb" x="563.185025" y="68.218875" style="fill: #00008b"/>
    </g>
    <g clip-path="url(#p420f0cdbf1)">
     <use xlink:href="#C0_0_4eea80cdfb" x="405.788727" y="113.814206" style="fill: #00008b"/>
    </g>
    <g clip-path="url(#p420f0cdbf1)">
     <use xlink:href="#C0_0_4eea80cdfb" x="496.772145" y="190.731397" style="fill: #00008b"/>
    </g>
    <g clip-path="url(#p420f0cdbf1)">
     <use xlink:href="#C0_0_4eea80cdfb" x="511.019862" y="331.310154" style="fill: #00008b"/>
    </g>
    <g clip-path="url(#p420f0cdbf1)">
     <use xlink:href="#C0_0_4eea80cdfb" x="576.233864" y="127.129544" style="fill: #00008b"/>
    </g>
    <g clip-path="url(#p420f0cdbf1)">
     <use xlink:href="#C0_0_4eea80cdfb" x="226.66307" y="471.418875" style="fill: #00008b"/>
    </g>
    <g clip-path="url(#p420f0cdbf1)">
     <use xlink:href="#C0_0_4eea80cdfb" x="214.83239" y="258.051123" style="fill: #00008b"/>
    </g>
   </g>
   <g id="matplotlib.axis_1">
    <g id="xtick_1">
     <g id="line2d_1">
      <defs>
       <path id="m4903252845" d="M 0 0 
L 0 3.5 
" style="stroke: #000000; stroke-width: 0.8"/>
      </defs>
      <g>
       <use xlink:href="#m4903252845" x="115.591228" y="491.578875" style="stroke: #000000; stroke-width: 0.8"/>
      </g>
     </g>
     <g id="text_1">
      <text style="font-size: 10px; font-family: 'Helvetica', 'Arial', 'DejaVu Sans', 'Bitstream Vera Sans', 'Computer Modern Sans Serif', 'Lucida Grande', 'Verdana', 'Geneva', 'Lucid', 'Avant Garde', sans-serif; text-anchor: middle" x="115.591228" y="505.752312" transform="rotate(-0 115.591228 505.752312)">0.5</text>
     </g>
    </g>
    <g id="xtick_2">
     <g id="line2d_2">
      <g>
       <use xlink:href="#m4903252845" x="206.305951" y="491.578875" style="stroke: #000000; stroke-width: 0.8"/>
      </g>
     </g>
     <g id="text_2">
      <text style="font-size: 10px; font-family: 'Helvetica', 'Arial', 'DejaVu Sans', 'Bitstream Vera Sans', 'Computer Modern Sans Serif', 'Lucida Grande', 'Verdana', 'Geneva', 'Lucid', 'Avant Garde', sans-serif; text-anchor: middle" x="206.305951" y="505.752312" transform="rotate(-0 206.305951 505.752312)">0.6</text>
     </g>
    </g>
    <g id="xtick_3">
     <g id="line2d_3">
      <g>
       <use xlink:href="#m4903252845" x="297.020674" y="491.578875" style="stroke: #000000; stroke-width: 0.8"/>
      </g>
     </g>
     <g id="text_3">
      <text style="font-size: 10px; font-family: 'Helvetica', 'Arial', 'DejaVu Sans', 'Bitstream Vera Sans', 'Computer Modern Sans Serif', 'Lucida Grande', 'Verdana', 'Geneva', 'Lucid', 'Avant Garde', sans-serif; text-anchor: middle" x="297.020674" y="505.752312" transform="rotate(-0 297.020674 505.752312)">0.7</text>
     </g>
    </g>
    <g id="xtick_4">
     <g id="line2d_4">
      <g>
       <use xlink:href="#m4903252845" x="387.735397" y="491.578875" style="stroke: #000000; stroke-width: 0.8"/>
      </g>
     </g>
     <g id="text_4">
      <text style="font-size: 10px; font-family: 'Helvetica', 'Arial', 'DejaVu Sans', 'Bitstream Vera Sans', 'Computer Modern Sans Serif', 'Lucida Grande', 'Verdana', 'Geneva', 'Lucid', 'Avant Garde', sans-serif; text-anchor: middle" x="387.735397" y="505.752312" transform="rotate(-0 387.735397 505.752312)">0.8</text>
     </g>
    </g>
    <g id="xtick_5">
     <g id="line2d_5">
      <g>
       <use xlink:href="#m4903252845" x="478.45012" y="491.578875" style="stroke: #000000; stroke-width: 0.8"/>
      </g>
     </g>
     <g id="text_5">
      <text style="font-size: 10px; font-family: 'Helvetica', 'Arial', 'DejaVu Sans', 'Bitstream Vera Sans', 'Computer Modern Sans Serif', 'Lucida Grande', 'Verdana', 'Geneva', 'Lucid', 'Avant Garde', sans-serif; text-anchor: middle" x="478.45012" y="505.752312" transform="rotate(-0 478.45012 505.752312)">0.9</text>
     </g>
    </g>
    <g id="xtick_6">
     <g id="line2d_6">
      <g>
       <use xlink:href="#m4903252845" x="569.164843" y="491.578875" style="stroke: #000000; stroke-width: 0.8"/>
      </g>
     </g>
     <g id="text_6">
      <text style="font-size: 10px; font-family: 'Helvetica', 'Arial', 'DejaVu Sans', 'Bitstream Vera Sans', 'Computer Modern Sans Serif', 'Lucida Grande', 'Verdana', 'Geneva', 'Lucid', 'Avant Garde', sans-serif; text-anchor: middle" x="569.164843" y="505.752312" transform="rotate(-0 569.164843 505.752312)">1.0</text>
     </g>
    </g>
    <g id="text_7">
     <text style="font-size: 12px; font-family: 'Helvetica', 'Arial', 'DejaVu Sans', 'Bitstream Vera Sans', 'Computer Modern Sans Serif', 'Lucida Grande', 'Verdana', 'Geneva', 'Lucid', 'Avant Garde', sans-serif; text-anchor: middle" x="322.5975" y="520.585437" transform="rotate(-0 322.5975 520.585437)">H2B Intensity (log10)</text>
    </g>
   </g>
   <g id="matplotlib.axis_2">
    <g id="ytick_1">
     <g id="line2d_7">
      <defs>
       <path id="mdc8f064cc8" d="M 0 0 
L -3.5 0 
" style="stroke: #000000; stroke-width: 0.8"/>
      </defs>
      <g>
       <use xlink:href="#mdc8f064cc8" x="43.5975" y="486.558068" style="stroke: #000000; stroke-width: 0.8"/>
      </g>
     </g>
     <g id="text_8">
      <text style="font-size: 10px; font-family: 'Helvetica', 'Arial', 'DejaVu Sans', 'Bitstream Vera Sans', 'Computer Modern Sans Serif', 'Lucida Grande', 'Verdana', 'Geneva', 'Lucid', 'Avant Garde', sans-serif; text-anchor: end" x="36.5975" y="490.144786" transform="rotate(-0 36.5975 490.144786)">0.2</text>
     </g>
    </g>
    <g id="ytick_2">
     <g id="line2d_8">
      <g>
       <use xlink:href="#mdc8f064cc8" x="43.5975" y="403.015335" style="stroke: #000000; stroke-width: 0.8"/>
      </g>
     </g>
     <g id="text_9">
      <text style="font-size: 10px; font-family: 'Helvetica', 'Arial', 'DejaVu Sans', 'Bitstream Vera Sans', 'Computer Modern Sans Serif', 'Lucida Grande', 'Verdana', 'Geneva', 'Lucid', 'Avant Garde', sans-serif; text-anchor: end" x="36.5975" y="406.602053" transform="rotate(-0 36.5975 406.602053)">0.4</text>
     </g>
    </g>
    <g id="ytick_3">
     <g id="line2d_9">
      <g>
       <use xlink:href="#mdc8f064cc8" x="43.5975" y="319.472601" style="stroke: #000000; stroke-width: 0.8"/>
      </g>
     </g>
     <g id="text_10">
      <text style="font-size: 10px; font-family: 'Helvetica', 'Arial', 'DejaVu Sans', 'Bitstream Vera Sans', 'Computer Modern Sans Serif', 'Lucida Grande', 'Verdana', 'Geneva', 'Lucid', 'Avant Garde', sans-serif; text-anchor: end" x="36.5975" y="323.05932" transform="rotate(-0 36.5975 323.05932)">0.6</text>
     </g>
    </g>
    <g id="ytick_4">
     <g id="line2d_10">
      <g>
       <use xlink:href="#mdc8f064cc8" x="43.5975" y="235.929868" style="stroke: #000000; stroke-width: 0.8"/>
      </g>
     </g>
     <g id="text_11">
      <text style="font-size: 10px; font-family: 'Helvetica', 'Arial', 'DejaVu Sans', 'Bitstream Vera Sans', 'Computer Modern Sans Serif', 'Lucida Grande', 'Verdana', 'Geneva', 'Lucid', 'Avant Garde', sans-serif; text-anchor: end" x="36.5975" y="239.516587" transform="rotate(-0 36.5975 239.516587)">0.8</text>
     </g>
    </g>
    <g id="ytick_5">
     <g id="line2d_11">
      <g>
       <use xlink:href="#mdc8f064cc8" x="43.5975" y="152.387135" style="stroke: #000000; stroke-width: 0.8"/>
      </g>
     </g>
     <g id="text_12">
      <text style="font-size: 10px; font-family: 'Helvetica', 'Arial', 'DejaVu Sans', 'Bitstream Vera Sans', 'Computer Modern Sans Serif', 'Lucida Grande', 'Verdana', 'Geneva', 'Lucid', 'Avant Garde', sans-serif; text-anchor: end" x="36.5975" y="155.973854" transform="rotate(-0 36.5975 155.973854)">1.0</text>
     </g>
    </g>
    <g id="ytick_6">
     <g id="line2d_12">
      <g>
       <use xlink:href="#mdc8f064cc8" x="43.5975" y="68.844402" style="stroke: #000000; stroke-width: 0.8"/>
      </g>
     </g>
     <g id="text_13">
      <text style="font-size: 10px; font-family: 'Helvetica', 'Arial', 'DejaVu Sans', 'Bitstream Vera Sans', 'Computer Modern Sans Serif', 'Lucida Grande', 'Verdana', 'Geneva', 'Lucid', 'Avant Garde', sans-serif; text-anchor: end" x="36.5975" y="72.43112" transform="rotate(-0 36.5975 72.43112)">1.2</text>
     </g>
    </g>
    <g id="text_14">
     <text style="font-size: 12px; font-family: 'Helvetica', 'Arial', 'DejaVu Sans', 'Bitstream Vera Sans', 'Computer Modern Sans Serif', 'Lucida Grande', 'Verdana', 'Geneva', 'Lucid', 'Avant Garde', sans-serif; text-anchor: middle" x="16.0425" y="269.818875" transform="rotate(-90 16.0425 269.818875)">VSV Intensity (log10)</text>
    </g>
   </g>
   <g id="line2d_13">
    <path d="M 68.961136 395.790125 
L 74.085103 393.239283 
L 79.20907 390.68844 
L 84.333037 388.137597 
L 89.457004 385.586755 
L 94.580971 383.035912 
L 99.704938 380.48507 
L 104.828905 377.934227 
L 109.952872 375.383385 
L 115.076839 372.832542 
L 120.200806 370.2817 
L 125.324773 367.730857 
L 130.44874 365.180015 
L 135.572707 362.629172 
L 140.696674 360.07833 
L 145.82064 357.527487 
L 150.944607 354.976645 
L 156.068574 352.425802 
L 161.192541 349.87496 
L 166.316508 347.324117 
L 171.440475 344.773274 
L 176.564442 342.222432 
L 181.688409 339.671589 
L 186.812376 337.120747 
L 191.936343 334.569904 
L 197.06031 332.019062 
L 202.184277 329.468219 
L 207.308244 326.917377 
L 212.432211 324.366534 
L 217.556178 321.815692 
L 222.680145 319.264849 
L 227.804112 316.714007 
L 232.928079 314.163164 
L 238.052045 311.612322 
L 243.176012 309.061479 
L 248.299979 306.510636 
L 253.423946 303.959794 
L 258.547913 301.408951 
L 263.67188 298.858109 
L 268.795847 296.307266 
L 273.919814 293.756424 
L 279.043781 291.205581 
L 284.167748 288.654739 
L 289.291715 286.103896 
L 294.415682 283.553054 
L 299.539649 281.002211 
L 304.663616 278.451369 
L 309.787583 275.900526 
L 314.91155 273.349684 
L 320.035517 270.798841 
L 325.159483 268.247999 
L 330.28345 265.697156 
L 335.407417 263.146313 
L 340.531384 260.595471 
L 345.655351 258.044628 
L 350.779318 255.493786 
L 355.903285 252.942943 
L 361.027252 250.392101 
L 366.151219 247.841258 
L 371.275186 245.290416 
L 376.399153 242.739573 
L 381.52312 240.188731 
L 386.647087 237.637888 
L 391.771054 235.087046 
L 396.895021 232.536203 
L 402.018988 229.985361 
L 407.142955 227.434518 
L 412.266921 224.883676 
L 417.390888 222.332833 
L 422.514855 219.78199 
L 427.638822 217.231148 
L 432.762789 214.680305 
L 437.886756 212.129463 
L 443.010723 209.57862 
L 448.13469 207.027778 
L 453.258657 204.476935 
L 458.382624 201.926093 
L 463.506591 199.37525 
L 468.630558 196.824408 
L 473.754525 194.273565 
L 478.878492 191.722723 
L 484.002459 189.17188 
L 489.126426 186.621038 
L 494.250393 184.070195 
L 499.37436 181.519353 
L 504.498326 178.96851 
L 509.622293 176.417667 
L 514.74626 173.866825 
L 519.870227 171.315982 
L 524.994194 168.76514 
L 530.118161 166.214297 
L 535.242128 163.663455 
L 540.366095 161.112612 
L 545.490062 158.56177 
L 550.614029 156.010927 
L 555.737996 153.460085 
L 560.861963 150.909242 
L 565.98593 148.3584 
L 571.109897 145.807557 
L 576.233864 143.256715 
" clip-path="url(#p420f0cdbf1)" style="fill: none; stroke: #000000; stroke-width: 2; stroke-linecap: square"/>
   </g>
   <g id="patch_3">
    <path d="M 43.5975 491.578875 
L 43.5975 48.058875 
" style="fill: none; stroke: #000000; stroke-width: 0.8; stroke-linejoin: miter; stroke-linecap: square"/>
   </g>
   <g id="patch_4">
    <path d="M 43.5975 491.578875 
L 601.5975 491.578875 
" style="fill: none; stroke: #000000; stroke-width: 0.8; stroke-linejoin: miter; stroke-linecap: square"/>
   </g>
   <g id="text_15">
    <text style="font-size: 9px; font-family: 'Helvetica', 'Arial', 'DejaVu Sans', 'Bitstream Vera Sans', 'Computer Modern Sans Serif', 'Lucida Grande', 'Verdana', 'Geneva', 'Lucid', 'Avant Garde', sans-serif; text-anchor: start" x="73.961136" y="350.224548" transform="rotate(-0 73.961136 350.224548)">A</text>
   </g>
   <g id="text_16">
    <text style="font-size: 9px; font-family: 'Helvetica', 'Arial', 'DejaVu Sans', 'Bitstream Vera Sans', 'Computer Modern Sans Serif', 'Lucida Grande', 'Verdana', 'Geneva', 'Lucid', 'Avant Garde', sans-serif; text-anchor: start" x="568.185025" y="63.218875" transform="rotate(-0 568.185025 63.218875)">AL</text>
   </g>
   <g id="text_17">
    <text style="font-size: 9px; font-family: 'Helvetica', 'Arial', 'DejaVu Sans', 'Bitstream Vera Sans', 'Computer Modern Sans Serif', 'Lucida Grande', 'Verdana', 'Geneva', 'Lucid', 'Avant Garde', sans-serif; text-anchor: start" x="410.788727" y="108.814206" transform="rotate(-0 410.788727 108.814206)">AM</text>
   </g>
   <g id="text_18">
    <text style="font-size: 9px; font-family: 'Helvetica', 'Arial', 'DejaVu Sans', 'Bitstream Vera Sans', 'Computer Modern Sans Serif', 'Lucida Grande', 'Verdana', 'Geneva', 'Lucid', 'Avant Garde', sans-serif; text-anchor: start" x="501.772145" y="185.731397" transform="rotate(-0 501.772145 185.731397)">LM</text>
   </g>
   <g id="text_19">
    <text style="font-size: 9px; font-family: 'Helvetica', 'Arial', 'DejaVu Sans', 'Bitstream Vera Sans', 'Computer Modern Sans Serif', 'Lucida Grande', 'Verdana', 'Geneva', 'Lucid', 'Avant Garde', sans-serif; text-anchor: start" x="516.019862" y="326.310154" transform="rotate(-0 516.019862 326.310154)">LI</text>
   </g>
   <g id="text_20">
    <text style="font-size: 9px; font-family: 'Helvetica', 'Arial', 'DejaVu Sans', 'Bitstream Vera Sans', 'Computer Modern Sans Serif', 'Lucida Grande', 'Verdana', 'Geneva', 'Lucid', 'Avant Garde', sans-serif; text-anchor: start" x="581.233864" y="122.129544" transform="rotate(-0 581.233864 122.129544)">PM</text>
   </g>
   <g id="text_21">
    <text style="font-size: 9px; font-family: 'Helvetica', 'Arial', 'DejaVu Sans', 'Bitstream Vera Sans', 'Computer Modern Sans Serif', 'Lucida Grande', 'Verdana', 'Geneva', 'Lucid', 'Avant Garde', sans-serif; text-anchor: start" x="231.66307" y="466.418875" transform="rotate(-0 231.66307 466.418875)">POR</text>
   </g>
   <g id="text_22">
    <text style="font-size: 9px; font-family: 'Helvetica', 'Arial', 'DejaVu Sans', 'Bitstream Vera Sans', 'Computer Modern Sans Serif', 'Lucida Grande', 'Verdana', 'Geneva', 'Lucid', 'Avant Garde', sans-serif; text-anchor: start" x="219.83239" y="253.051123" transform="rotate(-0 219.83239 253.051123)">RL</text>
   </g>
   <g id="text_23">
    <text style="font-size: 12px; font-family: 'Helvetica', 'Arial', 'DejaVu Sans', 'Bitstream Vera Sans', 'Computer Modern Sans Serif', 'Lucida Grande', 'Verdana', 'Geneva', 'Lucid', 'Avant Garde', sans-serif" transform="translate(276.908438 15.808125)">p20 - All Regions</text>
    <text style="font-size: 12px; font-family: 'Helvetica', 'Arial', 'DejaVu Sans', 'Bitstream Vera Sans', 'Computer Modern Sans Serif', 'Lucida Grande', 'Verdana', 'Geneva', 'Lucid', 'Avant Garde', sans-serif" transform="translate(243.906563 29.074125)">Complete Pairs Analysis (log)</text>
    <text style="font-size: 12px; font-family: 'Helvetica', 'Arial', 'DejaVu Sans', 'Bitstream Vera Sans', 'Computer Modern Sans Serif', 'Lucida Grande', 'Verdana', 'Geneva', 'Lucid', 'Avant Garde', sans-serif" transform="translate(262.894688 42.058875)">r = 0.6761, r² = 0.4571</text>
   </g>
  </g>
 </g>
 <defs>
  <clipPath id="p420f0cdbf1">
   <rect x="43.5975" y="48.058875" width="558" height="443.52"/>
  </clipPath>
 </defs>
</svg>
