<?xml version="1.0" encoding="utf-8" standalone="no"?>
<!DOCTYPE svg PUBLIC "-//W3C//DTD SVG 1.1//EN"
  "http://www.w3.org/Graphics/SVG/1.1/DTD/svg11.dtd">
<svg xmlns:xlink="http://www.w3.org/1999/xlink" width="608.7975pt" height="530.440437pt" viewBox="0 0 608.7975 530.440437" xmlns="http://www.w3.org/2000/svg" version="1.1">
 <metadata>
  <rdf:RDF xmlns:dc="http://purl.org/dc/elements/1.1/" xmlns:cc="http://creativecommons.org/ns#" xmlns:rdf="http://www.w3.org/1999/02/22-rdf-syntax-ns#">
   <cc:Work>
    <dc:type rdf:resource="http://purl.org/dc/dcmitype/StillImage"/>
    <dc:date>2026-02-24T12:29:59.330484</dc:date>
    <dc:format>image/svg+xml</dc:format>
    <dc:creator>
     <cc:Agent>
      <dc:title>Matplotlib v3.10.5, https://matplotlib.org/</dc:title>
     </cc:Agent>
    </dc:creator>
   </cc:Work>
  </rdf:RDF>
 </metadata>
 <defs>
  <style type="text/css">*{stroke-linejoin: round; stroke-linecap: butt}</style>
 </defs>
 <g id="figure_1">
  <g id="patch_1">
   <path d="M -0 530.440437 
L 608.7975 530.440437 
L 608.7975 0 
L -0 0 
z
" style="fill: #ffffff"/>
  </g>
  <g id="axes_1">
   <g id="patch_2">
    <path d="M 43.5975 491.578875 
L 601.5975 491.578875 
L 601.5975 48.058875 
L 43.5975 48.058875 
z
" style="fill: #ffffff"/>
   </g>
   <g id="PathCollection_1">
    <defs>
     <path id="C0_0_47159fa855" d="M 0 5 
C 1.326016 5 2.597899 4.473168 3.535534 3.535534 
C 4.473168 2.597899 5 1.326016 5 -0 
C 5 -1.326016 4.473168 -2.597899 3.535534 -3.535534 
C 2.597899 -4.473168 1.326016 -5 0 -5 
C -1.326016 -5 -2.597899 -4.473168 -3.535534 -3.535534 
C -4.473168 -2.597899 -5 -1.326016 -5 0 
C -5 1.326016 -4.473168 2.597899 -3.535534 3.535534 
C -2.597899 4.473168 -1.326016 5 0 5 
z
"/>
    </defs>
    <g clip-path="url(#pa07f0bd8b7)">
     <use xlink:href="#C0_0_47159fa855" x="85.830858" y="178.559746" style="fill: #00008b"/>
    </g>
    <g clip-path="url(#pa07f0bd8b7)">
     <use xlink:href="#C0_0_47159fa855" x="316.365196" y="263.559934" style="fill: #00008b"/>
    </g>
    <g clip-path="url(#pa07f0bd8b7)">
     <use xlink:href="#C0_0_47159fa855" x="68.961136" y="195.979267" style="fill: #00008b"/>
    </g>
    <g clip-path="url(#pa07f0bd8b7)">
     <use xlink:href="#C0_0_47159fa855" x="576.233864" y="295.205528" style="fill: #00008b"/>
    </g>
    <g clip-path="url(#pa07f0bd8b7)">
     <use xlink:href="#C0_0_47159fa855" x="332.097402" y="456.105055" style="fill: #00008b"/>
    </g>
    <g clip-path="url(#pa07f0bd8b7)">
     <use xlink:href="#C0_0_47159fa855" x="270.170033" y="68.218875" style="fill: #00008b"/>
    </g>
    <g clip-path="url(#pa07f0bd8b7)">
     <use xlink:href="#C0_0_47159fa855" x="123.736653" y="471.418875" style="fill: #00008b"/>
    </g>
    <g clip-path="url(#pa07f0bd8b7)">
     <use xlink:href="#C0_0_47159fa855" x="289.362699" y="403.123574" style="fill: #00008b"/>
    </g>
   </g>
   <g id="matplotlib.axis_1">
    <g id="xtick_1">
     <g id="line2d_1">
      <defs>
       <path id="ma922d7b3e8" d="M 0 0 
L 0 3.5 
" style="stroke: #000000; stroke-width: 0.8"/>
      </defs>
      <g>
       <use xlink:href="#ma922d7b3e8" x="139.865215" y="491.578875" style="stroke: #000000; stroke-width: 0.8"/>
      </g>
     </g>
     <g id="text_1">
      <text style="font-size: 10px; font-family: 'Helvetica', 'Arial', 'DejaVu Sans', 'Bitstream Vera Sans', 'Computer Modern Sans Serif', 'Lucida Grande', 'Verdana', 'Geneva', 'Lucid', 'Avant Garde', sans-serif; text-anchor: middle" x="139.865215" y="505.752312" transform="rotate(-0 139.865215 505.752312)">0.4</text>
     </g>
    </g>
    <g id="xtick_2">
     <g id="line2d_2">
      <g>
       <use xlink:href="#ma922d7b3e8" x="253.31661" y="491.578875" style="stroke: #000000; stroke-width: 0.8"/>
      </g>
     </g>
     <g id="text_2">
      <text style="font-size: 10px; font-family: 'Helvetica', 'Arial', 'DejaVu Sans', 'Bitstream Vera Sans', 'Computer Modern Sans Serif', 'Lucida Grande', 'Verdana', 'Geneva', 'Lucid', 'Avant Garde', sans-serif; text-anchor: middle" x="253.31661" y="505.752312" transform="rotate(-0 253.31661 505.752312)">0.6</text>
     </g>
    </g>
    <g id="xtick_3">
     <g id="line2d_3">
      <g>
       <use xlink:href="#ma922d7b3e8" x="366.768005" y="491.578875" style="stroke: #000000; stroke-width: 0.8"/>
      </g>
     </g>
     <g id="text_3">
      <text style="font-size: 10px; font-family: 'Helvetica', 'Arial', 'DejaVu Sans', 'Bitstream Vera Sans', 'Computer Modern Sans Serif', 'Lucida Grande', 'Verdana', 'Geneva', 'Lucid', 'Avant Garde', sans-serif; text-anchor: middle" x="366.768005" y="505.752312" transform="rotate(-0 366.768005 505.752312)">0.8</text>
     </g>
    </g>
    <g id="xtick_4">
     <g id="line2d_4">
      <g>
       <use xlink:href="#ma922d7b3e8" x="480.2194" y="491.578875" style="stroke: #000000; stroke-width: 0.8"/>
      </g>
     </g>
     <g id="text_4">
      <text style="font-size: 10px; font-family: 'Helvetica', 'Arial', 'DejaVu Sans', 'Bitstream Vera Sans', 'Computer Modern Sans Serif', 'Lucida Grande', 'Verdana', 'Geneva', 'Lucid', 'Avant Garde', sans-serif; text-anchor: middle" x="480.2194" y="505.752312" transform="rotate(-0 480.2194 505.752312)">1.0</text>
     </g>
    </g>
    <g id="xtick_5">
     <g id="line2d_5">
      <g>
       <use xlink:href="#ma922d7b3e8" x="593.670796" y="491.578875" style="stroke: #000000; stroke-width: 0.8"/>
      </g>
     </g>
     <g id="text_5">
      <text style="font-size: 10px; font-family: 'Helvetica', 'Arial', 'DejaVu Sans', 'Bitstream Vera Sans', 'Computer Modern Sans Serif', 'Lucida Grande', 'Verdana', 'Geneva', 'Lucid', 'Avant Garde', sans-serif; text-anchor: middle" x="593.670796" y="505.752312" transform="rotate(-0 593.670796 505.752312)">1.2</text>
     </g>
    </g>
    <g id="text_6">
     <text style="font-size: 12px; font-family: 'Helvetica', 'Arial', 'DejaVu Sans', 'Bitstream Vera Sans', 'Computer Modern Sans Serif', 'Lucida Grande', 'Verdana', 'Geneva', 'Lucid', 'Avant Garde', sans-serif; text-anchor: middle" x="322.5975" y="520.585437" transform="rotate(-0 322.5975 520.585437)">H2B Intensity (log10)</text>
    </g>
   </g>
   <g id="matplotlib.axis_2">
    <g id="ytick_1">
     <g id="line2d_6">
      <defs>
       <path id="meba4265245" d="M 0 0 
L -3.5 0 
" style="stroke: #000000; stroke-width: 0.8"/>
      </defs>
      <g>
       <use xlink:href="#meba4265245" x="43.5975" y="434.239827" style="stroke: #000000; stroke-width: 0.8"/>
      </g>
     </g>
     <g id="text_7">
      <text style="font-size: 10px; font-family: 'Helvetica', 'Arial', 'DejaVu Sans', 'Bitstream Vera Sans', 'Computer Modern Sans Serif', 'Lucida Grande', 'Verdana', 'Geneva', 'Lucid', 'Avant Garde', sans-serif; text-anchor: end" x="36.5975" y="437.826545" transform="rotate(-0 36.5975 437.826545)">0.2</text>
     </g>
    </g>
    <g id="ytick_2">
     <g id="line2d_7">
      <g>
       <use xlink:href="#meba4265245" x="43.5975" y="375.156511" style="stroke: #000000; stroke-width: 0.8"/>
      </g>
     </g>
     <g id="text_8">
      <text style="font-size: 10px; font-family: 'Helvetica', 'Arial', 'DejaVu Sans', 'Bitstream Vera Sans', 'Computer Modern Sans Serif', 'Lucida Grande', 'Verdana', 'Geneva', 'Lucid', 'Avant Garde', sans-serif; text-anchor: end" x="36.5975" y="378.74323" transform="rotate(-0 36.5975 378.74323)">0.4</text>
     </g>
    </g>
    <g id="ytick_3">
     <g id="line2d_8">
      <g>
       <use xlink:href="#meba4265245" x="43.5975" y="316.073195" style="stroke: #000000; stroke-width: 0.8"/>
      </g>
     </g>
     <g id="text_9">
      <text style="font-size: 10px; font-family: 'Helvetica', 'Arial', 'DejaVu Sans', 'Bitstream Vera Sans', 'Computer Modern Sans Serif', 'Lucida Grande', 'Verdana', 'Geneva', 'Lucid', 'Avant Garde', sans-serif; text-anchor: end" x="36.5975" y="319.659914" transform="rotate(-0 36.5975 319.659914)">0.6</text>
     </g>
    </g>
    <g id="ytick_4">
     <g id="line2d_9">
      <g>
       <use xlink:href="#meba4265245" x="43.5975" y="256.98988" style="stroke: #000000; stroke-width: 0.8"/>
      </g>
     </g>
     <g id="text_10">
      <text style="font-size: 10px; font-family: 'Helvetica', 'Arial', 'DejaVu Sans', 'Bitstream Vera Sans', 'Computer Modern Sans Serif', 'Lucida Grande', 'Verdana', 'Geneva', 'Lucid', 'Avant Garde', sans-serif; text-anchor: end" x="36.5975" y="260.576598" transform="rotate(-0 36.5975 260.576598)">0.8</text>
     </g>
    </g>
    <g id="ytick_5">
     <g id="line2d_10">
      <g>
       <use xlink:href="#meba4265245" x="43.5975" y="197.906564" style="stroke: #000000; stroke-width: 0.8"/>
      </g>
     </g>
     <g id="text_11">
      <text style="font-size: 10px; font-family: 'Helvetica', 'Arial', 'DejaVu Sans', 'Bitstream Vera Sans', 'Computer Modern Sans Serif', 'Lucida Grande', 'Verdana', 'Geneva', 'Lucid', 'Avant Garde', sans-serif; text-anchor: end" x="36.5975" y="201.493283" transform="rotate(-0 36.5975 201.493283)">1.0</text>
     </g>
    </g>
    <g id="ytick_6">
     <g id="line2d_11">
      <g>
       <use xlink:href="#meba4265245" x="43.5975" y="138.823248" style="stroke: #000000; stroke-width: 0.8"/>
      </g>
     </g>
     <g id="text_12">
      <text style="font-size: 10px; font-family: 'Helvetica', 'Arial', 'DejaVu Sans', 'Bitstream Vera Sans', 'Computer Modern Sans Serif', 'Lucida Grande', 'Verdana', 'Geneva', 'Lucid', 'Avant Garde', sans-serif; text-anchor: end" x="36.5975" y="142.409967" transform="rotate(-0 36.5975 142.409967)">1.2</text>
     </g>
    </g>
    <g id="ytick_7">
     <g id="line2d_12">
      <g>
       <use xlink:href="#meba4265245" x="43.5975" y="79.739932" style="stroke: #000000; stroke-width: 0.8"/>
      </g>
     </g>
     <g id="text_13">
      <text style="font-size: 10px; font-family: 'Helvetica', 'Arial', 'DejaVu Sans', 'Bitstream Vera Sans', 'Computer Modern Sans Serif', 'Lucida Grande', 'Verdana', 'Geneva', 'Lucid', 'Avant Garde', sans-serif; text-anchor: end" x="36.5975" y="83.326651" transform="rotate(-0 36.5975 83.326651)">1.4</text>
     </g>
    </g>
    <g id="text_14">
     <text style="font-size: 12px; font-family: 'Helvetica', 'Arial', 'DejaVu Sans', 'Bitstream Vera Sans', 'Computer Modern Sans Serif', 'Lucida Grande', 'Verdana', 'Geneva', 'Lucid', 'Avant Garde', sans-serif; text-anchor: middle" x="16.0425" y="269.818875" transform="rotate(-90 16.0425 269.818875)">VSV Intensity (log10)</text>
    </g>
   </g>
   <g id="line2d_13">
    <path d="M 68.961136 266.420809 
L 74.085103 267.101727 
L 79.20907 267.782646 
L 84.333037 268.463565 
L 89.457004 269.144484 
L 94.580971 269.825402 
L 99.704938 270.506321 
L 104.828905 271.18724 
L 109.952872 271.868159 
L 115.076839 272.549077 
L 120.200806 273.229996 
L 125.324773 273.910915 
L 130.44874 274.591834 
L 135.572707 275.272752 
L 140.696674 275.953671 
L 145.82064 276.63459 
L 150.944607 277.315508 
L 156.068574 277.996427 
L 161.192541 278.677346 
L 166.316508 279.358265 
L 171.440475 280.039183 
L 176.564442 280.720102 
L 181.688409 281.401021 
L 186.812376 282.08194 
L 191.936343 282.762858 
L 197.06031 283.443777 
L 202.184277 284.124696 
L 207.308244 284.805615 
L 212.432211 285.486533 
L 217.556178 286.167452 
L 222.680145 286.848371 
L 227.804112 287.52929 
L 232.928079 288.210208 
L 238.052045 288.891127 
L 243.176012 289.572046 
L 248.299979 290.252965 
L 253.423946 290.933883 
L 258.547913 291.614802 
L 263.67188 292.295721 
L 268.795847 292.97664 
L 273.919814 293.657558 
L 279.043781 294.338477 
L 284.167748 295.019396 
L 289.291715 295.700315 
L 294.415682 296.381233 
L 299.539649 297.062152 
L 304.663616 297.743071 
L 309.787583 298.42399 
L 314.91155 299.104908 
L 320.035517 299.785827 
L 325.159483 300.466746 
L 330.28345 301.147665 
L 335.407417 301.828583 
L 340.531384 302.509502 
L 345.655351 303.190421 
L 350.779318 303.87134 
L 355.903285 304.552258 
L 361.027252 305.233177 
L 366.151219 305.914096 
L 371.275186 306.595015 
L 376.399153 307.275933 
L 381.52312 307.956852 
L 386.647087 308.637771 
L 391.771054 309.318689 
L 396.895021 309.999608 
L 402.018988 310.680527 
L 407.142955 311.361446 
L 412.266921 312.042364 
L 417.390888 312.723283 
L 422.514855 313.404202 
L 427.638822 314.085121 
L 432.762789 314.766039 
L 437.886756 315.446958 
L 443.010723 316.127877 
L 448.13469 316.808796 
L 453.258657 317.489714 
L 458.382624 318.170633 
L 463.506591 318.851552 
L 468.630558 319.532471 
L 473.754525 320.213389 
L 478.878492 320.894308 
L 484.002459 321.575227 
L 489.126426 322.256146 
L 494.250393 322.937064 
L 499.37436 323.617983 
L 504.498326 324.298902 
L 509.622293 324.979821 
L 514.74626 325.660739 
L 519.870227 326.341658 
L 524.994194 327.022577 
L 530.118161 327.703496 
L 535.242128 328.384414 
L 540.366095 329.065333 
L 545.490062 329.746252 
L 550.614029 330.427171 
L 555.737996 331.108089 
L 560.861963 331.789008 
L 565.98593 332.469927 
L 571.109897 333.150846 
L 576.233864 333.831764 
" clip-path="url(#pa07f0bd8b7)" style="fill: none; stroke: #000000; stroke-width: 2; stroke-linecap: square"/>
   </g>
   <g id="patch_3">
    <path d="M 43.5975 491.578875 
L 43.5975 48.058875 
" style="fill: none; stroke: #000000; stroke-width: 0.8; stroke-linejoin: miter; stroke-linecap: square"/>
   </g>
   <g id="patch_4">
    <path d="M 43.5975 491.578875 
L 601.5975 491.578875 
" style="fill: none; stroke: #000000; stroke-width: 0.8; stroke-linejoin: miter; stroke-linecap: square"/>
   </g>
   <g id="text_15">
    <text style="font-size: 9px; font-family: 'Helvetica', 'Arial', 'DejaVu Sans', 'Bitstream Vera Sans', 'Computer Modern Sans Serif', 'Lucida Grande', 'Verdana', 'Geneva', 'Lucid', 'Avant Garde', sans-serif; text-anchor: start" x="90.830858" y="173.559746" transform="rotate(-0 90.830858 173.559746)">A</text>
   </g>
   <g id="text_16">
    <text style="font-size: 9px; font-family: 'Helvetica', 'Arial', 'DejaVu Sans', 'Bitstream Vera Sans', 'Computer Modern Sans Serif', 'Lucida Grande', 'Verdana', 'Geneva', 'Lucid', 'Avant Garde', sans-serif; text-anchor: start" x="321.365196" y="258.559934" transform="rotate(-0 321.365196 258.559934)">AL</text>
   </g>
   <g id="text_17">
    <text style="font-size: 9px; font-family: 'Helvetica', 'Arial', 'DejaVu Sans', 'Bitstream Vera Sans', 'Computer Modern Sans Serif', 'Lucida Grande', 'Verdana', 'Geneva', 'Lucid', 'Avant Garde', sans-serif; text-anchor: start" x="73.961136" y="190.979267" transform="rotate(-0 73.961136 190.979267)">AM</text>
   </g>
   <g id="text_18">
    <text style="font-size: 9px; font-family: 'Helvetica', 'Arial', 'DejaVu Sans', 'Bitstream Vera Sans', 'Computer Modern Sans Serif', 'Lucida Grande', 'Verdana', 'Geneva', 'Lucid', 'Avant Garde', sans-serif; text-anchor: start" x="581.233864" y="290.205528" transform="rotate(-0 581.233864 290.205528)">LM</text>
   </g>
   <g id="text_19">
    <text style="font-size: 9px; font-family: 'Helvetica', 'Arial', 'DejaVu Sans', 'Bitstream Vera Sans', 'Computer Modern Sans Serif', 'Lucida Grande', 'Verdana', 'Geneva', 'Lucid', 'Avant Garde', sans-serif; text-anchor: start" x="337.097402" y="451.105055" transform="rotate(-0 337.097402 451.105055)">LI</text>
   </g>
   <g id="text_20">
    <text style="font-size: 9px; font-family: 'Helvetica', 'Arial', 'DejaVu Sans', 'Bitstream Vera Sans', 'Computer Modern Sans Serif', 'Lucida Grande', 'Verdana', 'Geneva', 'Lucid', 'Avant Garde', sans-serif; text-anchor: start" x="275.170033" y="63.218875" transform="rotate(-0 275.170033 63.218875)">PM</text>
   </g>
   <g id="text_21">
    <text style="font-size: 9px; font-family: 'Helvetica', 'Arial', 'DejaVu Sans', 'Bitstream Vera Sans', 'Computer Modern Sans Serif', 'Lucida Grande', 'Verdana', 'Geneva', 'Lucid', 'Avant Garde', sans-serif; text-anchor: start" x="128.736653" y="466.418875" transform="rotate(-0 128.736653 466.418875)">POR</text>
   </g>
   <g id="text_22">
    <text style="font-size: 9px; font-family: 'Helvetica', 'Arial', 'DejaVu Sans', 'Bitstream Vera Sans', 'Computer Modern Sans Serif', 'Lucida Grande', 'Verdana', 'Geneva', 'Lucid', 'Avant Garde', sans-serif; text-anchor: start" x="294.362699" y="398.123574" transform="rotate(-0 294.362699 398.123574)">RL</text>
   </g>
   <g id="text_23">
    <text style="font-size: 12px; font-family: 'Helvetica', 'Arial', 'DejaVu Sans', 'Bitstream Vera Sans', 'Computer Modern Sans Serif', 'Lucida Grande', 'Verdana', 'Geneva', 'Lucid', 'Avant Garde', sans-serif" transform="translate(280.245 15.808125)">p3 - All Regions</text>
    <text style="font-size: 12px; font-family: 'Helvetica', 'Arial', 'DejaVu Sans', 'Bitstream Vera Sans', 'Computer Modern Sans Serif', 'Lucida Grande', 'Verdana', 'Geneva', 'Lucid', 'Avant Garde', sans-serif" transform="translate(243.906563 29.074125)">Complete Pairs Analysis (log)</text>
    <text style="font-size: 12px; font-family: 'Helvetica', 'Arial', 'DejaVu Sans', 'Bitstream Vera Sans', 'Computer Modern Sans Serif', 'Lucida Grande', 'Verdana', 'Geneva', 'Lucid', 'Avant Garde', sans-serif" transform="translate(260.896875 42.058875)">r = -0.1543, r² = 0.0238</text>
   </g>
  </g>
 </g>
 <defs>
  <clipPath id="pa07f0bd8b7">
   <rect x="43.5975" y="48.058875" width="558" height="443.52"/>
  </clipPath>
 </defs>
</svg>
