<?xml version="1.0" encoding="utf-8" standalone="no"?>
<!DOCTYPE svg PUBLIC "-//W3C//DTD SVG 1.1//EN"
  "http://www.w3.org/Graphics/SVG/1.1/DTD/svg11.dtd">
<svg xmlns:xlink="http://www.w3.org/1999/xlink" width="614.358438pt" height="530.357937pt" viewBox="0 0 614.358438 530.357937" xmlns="http://www.w3.org/2000/svg" version="1.1">
 <metadata>
  <rdf:RDF xmlns:dc="http://purl.org/dc/elements/1.1/" xmlns:cc="http://creativecommons.org/ns#" xmlns:rdf="http://www.w3.org/1999/02/22-rdf-syntax-ns#">
   <cc:Work>
    <dc:type rdf:resource="http://purl.org/dc/dcmitype/StillImage"/>
    <dc:date>2026-02-24T12:29:29.252417</dc:date>
    <dc:format>image/svg+xml</dc:format>
    <dc:creator>
     <cc:Agent>
      <dc:title>Matplotlib v3.10.5, https://matplotlib.org/</dc:title>
     </cc:Agent>
    </dc:creator>
   </cc:Work>
  </rdf:RDF>
 </metadata>
 <defs>
  <style type="text/css">*{stroke-linejoin: round; stroke-linecap: butt}</style>
 </defs>
 <g id="figure_1">
  <g id="patch_1">
   <path d="M 0 530.357937 
L 614.358438 530.357937 
L 614.358438 0 
L 0 0 
z
" style="fill: #ffffff"/>
  </g>
  <g id="axes_1">
   <g id="patch_2">
    <path d="M 49.158438 491.496375 
L 607.158437 491.496375 
L 607.158437 47.976375 
L 49.158438 47.976375 
z
" style="fill: #ffffff"/>
   </g>
   <g id="PathCollection_1">
    <defs>
     <path id="C0_0_fba5743236" d="M 0 5 
C 1.326016 5 2.597899 4.473168 3.535534 3.535534 
C 4.473168 2.597899 5 1.326016 5 -0 
C 5 -1.326016 4.473168 -2.597899 3.535534 -3.535534 
C 2.597899 -4.473168 1.326016 -5 0 -5 
C -1.326016 -5 -2.597899 -4.473168 -3.535534 -3.535534 
C -4.473168 -2.597899 -5 -1.326016 -5 0 
C -5 1.326016 -4.473168 2.597899 -3.535534 3.535534 
C -2.597899 4.473168 -1.326016 5 0 5 
z
"/>
    </defs>
    <g clip-path="url(#pa6d38cdb7f)">
     <use xlink:href="#C0_0_fba5743236" x="383.395114" y="68.136375" style="fill: #00008b"/>
    </g>
    <g clip-path="url(#pa6d38cdb7f)">
     <use xlink:href="#C0_0_fba5743236" x="392.176297" y="323.305675" style="fill: #00008b"/>
    </g>
    <g clip-path="url(#pa6d38cdb7f)">
     <use xlink:href="#C0_0_fba5743236" x="74.522074" y="348.415694" style="fill: #00008b"/>
    </g>
    <g clip-path="url(#pa6d38cdb7f)">
     <use xlink:href="#C0_0_fba5743236" x="581.794801" y="317.590218" style="fill: #00008b"/>
    </g>
    <g clip-path="url(#pa6d38cdb7f)">
     <use xlink:href="#C0_0_fba5743236" x="414.184128" y="289.264184" style="fill: #00008b"/>
    </g>
    <g clip-path="url(#pa6d38cdb7f)">
     <use xlink:href="#C0_0_fba5743236" x="177.721648" y="471.336375" style="fill: #00008b"/>
    </g>
    <g clip-path="url(#pa6d38cdb7f)">
     <use xlink:href="#C0_0_fba5743236" x="255.636888" y="336.717882" style="fill: #00008b"/>
    </g>
    <g clip-path="url(#pa6d38cdb7f)">
     <use xlink:href="#C0_0_fba5743236" x="321.477181" y="365.87349" style="fill: #00008b"/>
    </g>
   </g>
   <g id="matplotlib.axis_1">
    <g id="xtick_1">
     <g id="line2d_1">
      <defs>
       <path id="mfcd6722d5a" d="M 0 0 
L 0 3.5 
" style="stroke: #000000; stroke-width: 0.8"/>
      </defs>
      <g>
       <use xlink:href="#mfcd6722d5a" x="104.349233" y="491.496375" style="stroke: #000000; stroke-width: 0.8"/>
      </g>
     </g>
     <g id="text_1">
      <text style="font-size: 10px; font-family: 'Helvetica', 'Arial', 'DejaVu Sans', 'Bitstream Vera Sans', 'Computer Modern Sans Serif', 'Lucida Grande', 'Verdana', 'Geneva', 'Lucid', 'Avant Garde', sans-serif; text-anchor: middle" x="104.349233" y="505.669812" transform="rotate(-0 104.349233 505.669812)">1.5</text>
     </g>
    </g>
    <g id="xtick_2">
     <g id="line2d_2">
      <g>
       <use xlink:href="#mfcd6722d5a" x="207.424995" y="491.496375" style="stroke: #000000; stroke-width: 0.8"/>
      </g>
     </g>
     <g id="text_2">
      <text style="font-size: 10px; font-family: 'Helvetica', 'Arial', 'DejaVu Sans', 'Bitstream Vera Sans', 'Computer Modern Sans Serif', 'Lucida Grande', 'Verdana', 'Geneva', 'Lucid', 'Avant Garde', sans-serif; text-anchor: middle" x="207.424995" y="505.669812" transform="rotate(-0 207.424995 505.669812)">1.6</text>
     </g>
    </g>
    <g id="xtick_3">
     <g id="line2d_3">
      <g>
       <use xlink:href="#mfcd6722d5a" x="310.500758" y="491.496375" style="stroke: #000000; stroke-width: 0.8"/>
      </g>
     </g>
     <g id="text_3">
      <text style="font-size: 10px; font-family: 'Helvetica', 'Arial', 'DejaVu Sans', 'Bitstream Vera Sans', 'Computer Modern Sans Serif', 'Lucida Grande', 'Verdana', 'Geneva', 'Lucid', 'Avant Garde', sans-serif; text-anchor: middle" x="310.500758" y="505.669812" transform="rotate(-0 310.500758 505.669812)">1.7</text>
     </g>
    </g>
    <g id="xtick_4">
     <g id="line2d_4">
      <g>
       <use xlink:href="#mfcd6722d5a" x="413.576521" y="491.496375" style="stroke: #000000; stroke-width: 0.8"/>
      </g>
     </g>
     <g id="text_4">
      <text style="font-size: 10px; font-family: 'Helvetica', 'Arial', 'DejaVu Sans', 'Bitstream Vera Sans', 'Computer Modern Sans Serif', 'Lucida Grande', 'Verdana', 'Geneva', 'Lucid', 'Avant Garde', sans-serif; text-anchor: middle" x="413.576521" y="505.669812" transform="rotate(-0 413.576521 505.669812)">1.8</text>
     </g>
    </g>
    <g id="xtick_5">
     <g id="line2d_5">
      <g>
       <use xlink:href="#mfcd6722d5a" x="516.652283" y="491.496375" style="stroke: #000000; stroke-width: 0.8"/>
      </g>
     </g>
     <g id="text_5">
      <text style="font-size: 10px; font-family: 'Helvetica', 'Arial', 'DejaVu Sans', 'Bitstream Vera Sans', 'Computer Modern Sans Serif', 'Lucida Grande', 'Verdana', 'Geneva', 'Lucid', 'Avant Garde', sans-serif; text-anchor: middle" x="516.652283" y="505.669812" transform="rotate(-0 516.652283 505.669812)">1.9</text>
     </g>
    </g>
    <g id="text_6">
     <text style="font-size: 12px; font-family: 'Helvetica', 'Arial', 'DejaVu Sans', 'Bitstream Vera Sans', 'Computer Modern Sans Serif', 'Lucida Grande', 'Verdana', 'Geneva', 'Lucid', 'Avant Garde', sans-serif; text-anchor: middle" x="328.158437" y="520.502937" transform="rotate(-0 328.158437 520.502937)">H2B Intensity (Averaged)</text>
    </g>
   </g>
   <g id="matplotlib.axis_2">
    <g id="ytick_1">
     <g id="line2d_6">
      <defs>
       <path id="mcc688f1729" d="M 0 0 
L -3.5 0 
" style="stroke: #000000; stroke-width: 0.8"/>
      </defs>
      <g>
       <use xlink:href="#mcc688f1729" x="49.158438" y="441.977061" style="stroke: #000000; stroke-width: 0.8"/>
      </g>
     </g>
     <g id="text_7">
      <text style="font-size: 10px; font-family: 'Helvetica', 'Arial', 'DejaVu Sans', 'Bitstream Vera Sans', 'Computer Modern Sans Serif', 'Lucida Grande', 'Verdana', 'Geneva', 'Lucid', 'Avant Garde', sans-serif; text-anchor: end" x="42.158438" y="445.56378" transform="rotate(-0 42.158438 445.56378)">0.14</text>
     </g>
    </g>
    <g id="ytick_2">
     <g id="line2d_7">
      <g>
       <use xlink:href="#mcc688f1729" x="49.158438" y="388.06728" style="stroke: #000000; stroke-width: 0.8"/>
      </g>
     </g>
     <g id="text_8">
      <text style="font-size: 10px; font-family: 'Helvetica', 'Arial', 'DejaVu Sans', 'Bitstream Vera Sans', 'Computer Modern Sans Serif', 'Lucida Grande', 'Verdana', 'Geneva', 'Lucid', 'Avant Garde', sans-serif; text-anchor: end" x="42.158438" y="391.653999" transform="rotate(-0 42.158438 391.653999)">0.16</text>
     </g>
    </g>
    <g id="ytick_3">
     <g id="line2d_8">
      <g>
       <use xlink:href="#mcc688f1729" x="49.158438" y="334.157499" style="stroke: #000000; stroke-width: 0.8"/>
      </g>
     </g>
     <g id="text_9">
      <text style="font-size: 10px; font-family: 'Helvetica', 'Arial', 'DejaVu Sans', 'Bitstream Vera Sans', 'Computer Modern Sans Serif', 'Lucida Grande', 'Verdana', 'Geneva', 'Lucid', 'Avant Garde', sans-serif; text-anchor: end" x="42.158438" y="337.744218" transform="rotate(-0 42.158438 337.744218)">0.18</text>
     </g>
    </g>
    <g id="ytick_4">
     <g id="line2d_9">
      <g>
       <use xlink:href="#mcc688f1729" x="49.158438" y="280.247718" style="stroke: #000000; stroke-width: 0.8"/>
      </g>
     </g>
     <g id="text_10">
      <text style="font-size: 10px; font-family: 'Helvetica', 'Arial', 'DejaVu Sans', 'Bitstream Vera Sans', 'Computer Modern Sans Serif', 'Lucida Grande', 'Verdana', 'Geneva', 'Lucid', 'Avant Garde', sans-serif; text-anchor: end" x="42.158438" y="283.834437" transform="rotate(-0 42.158438 283.834437)">0.20</text>
     </g>
    </g>
    <g id="ytick_5">
     <g id="line2d_10">
      <g>
       <use xlink:href="#mcc688f1729" x="49.158438" y="226.337937" style="stroke: #000000; stroke-width: 0.8"/>
      </g>
     </g>
     <g id="text_11">
      <text style="font-size: 10px; font-family: 'Helvetica', 'Arial', 'DejaVu Sans', 'Bitstream Vera Sans', 'Computer Modern Sans Serif', 'Lucida Grande', 'Verdana', 'Geneva', 'Lucid', 'Avant Garde', sans-serif; text-anchor: end" x="42.158438" y="229.924656" transform="rotate(-0 42.158438 229.924656)">0.22</text>
     </g>
    </g>
    <g id="ytick_6">
     <g id="line2d_11">
      <g>
       <use xlink:href="#mcc688f1729" x="49.158438" y="172.428156" style="stroke: #000000; stroke-width: 0.8"/>
      </g>
     </g>
     <g id="text_12">
      <text style="font-size: 10px; font-family: 'Helvetica', 'Arial', 'DejaVu Sans', 'Bitstream Vera Sans', 'Computer Modern Sans Serif', 'Lucida Grande', 'Verdana', 'Geneva', 'Lucid', 'Avant Garde', sans-serif; text-anchor: end" x="42.158438" y="176.014875" transform="rotate(-0 42.158438 176.014875)">0.24</text>
     </g>
    </g>
    <g id="ytick_7">
     <g id="line2d_12">
      <g>
       <use xlink:href="#mcc688f1729" x="49.158438" y="118.518375" style="stroke: #000000; stroke-width: 0.8"/>
      </g>
     </g>
     <g id="text_13">
      <text style="font-size: 10px; font-family: 'Helvetica', 'Arial', 'DejaVu Sans', 'Bitstream Vera Sans', 'Computer Modern Sans Serif', 'Lucida Grande', 'Verdana', 'Geneva', 'Lucid', 'Avant Garde', sans-serif; text-anchor: end" x="42.158438" y="122.105094" transform="rotate(-0 42.158438 122.105094)">0.26</text>
     </g>
    </g>
    <g id="ytick_8">
     <g id="line2d_13">
      <g>
       <use xlink:href="#mcc688f1729" x="49.158438" y="64.608594" style="stroke: #000000; stroke-width: 0.8"/>
      </g>
     </g>
     <g id="text_14">
      <text style="font-size: 10px; font-family: 'Helvetica', 'Arial', 'DejaVu Sans', 'Bitstream Vera Sans', 'Computer Modern Sans Serif', 'Lucida Grande', 'Verdana', 'Geneva', 'Lucid', 'Avant Garde', sans-serif; text-anchor: end" x="42.158438" y="68.195313" transform="rotate(-0 42.158438 68.195313)">0.28</text>
     </g>
    </g>
    <g id="text_15">
     <text style="font-size: 12px; font-family: 'Helvetica', 'Arial', 'DejaVu Sans', 'Bitstream Vera Sans', 'Computer Modern Sans Serif', 'Lucida Grande', 'Verdana', 'Geneva', 'Lucid', 'Avant Garde', sans-serif; text-anchor: middle" x="16.0425" y="269.736375" transform="rotate(-90 16.0425 269.736375)">VSV Intensity (Averaged)</text>
    </g>
   </g>
   <g id="line2d_14">
    <path d="M 74.522074 386.223642 
L 79.646041 384.768932 
L 84.770008 383.314223 
L 89.893975 381.859513 
L 95.017942 380.404804 
L 100.141909 378.950094 
L 105.265876 377.495385 
L 110.389842 376.040676 
L 115.513809 374.585966 
L 120.637776 373.131257 
L 125.761743 371.676547 
L 130.88571 370.221838 
L 136.009677 368.767128 
L 141.133644 367.312419 
L 146.257611 365.85771 
L 151.381578 364.403 
L 156.505545 362.948291 
L 161.629512 361.493581 
L 166.753479 360.038872 
L 171.877446 358.584162 
L 177.001413 357.129453 
L 182.12538 355.674743 
L 187.249347 354.220034 
L 192.373314 352.765325 
L 197.49728 351.310615 
L 202.621247 349.855906 
L 207.745214 348.401196 
L 212.869181 346.946487 
L 217.993148 345.491777 
L 223.117115 344.037068 
L 228.241082 342.582359 
L 233.365049 341.127649 
L 238.489016 339.67294 
L 243.612983 338.21823 
L 248.73695 336.763521 
L 253.860917 335.308811 
L 258.984884 333.854102 
L 264.108851 332.399392 
L 269.232818 330.944683 
L 274.356785 329.489974 
L 279.480752 328.035264 
L 284.604718 326.580555 
L 289.728685 325.125845 
L 294.852652 323.671136 
L 299.976619 322.216426 
L 305.100586 320.761717 
L 310.224553 319.307007 
L 315.34852 317.852298 
L 320.472487 316.397589 
L 325.596454 314.942879 
L 330.720421 313.48817 
L 335.844388 312.03346 
L 340.968355 310.578751 
L 346.092322 309.124041 
L 351.216289 307.669332 
L 356.340256 306.214623 
L 361.464223 304.759913 
L 366.58819 303.305204 
L 371.712157 301.850494 
L 376.836123 300.395785 
L 381.96009 298.941075 
L 387.084057 297.486366 
L 392.208024 296.031656 
L 397.331991 294.576947 
L 402.455958 293.122238 
L 407.579925 291.667528 
L 412.703892 290.212819 
L 417.827859 288.758109 
L 422.951826 287.3034 
L 428.075793 285.84869 
L 433.19976 284.393981 
L 438.323727 282.939272 
L 443.447694 281.484562 
L 448.571661 280.029853 
L 453.695628 278.575143 
L 458.819595 277.120434 
L 463.943561 275.665724 
L 469.067528 274.211015 
L 474.191495 272.756305 
L 479.315462 271.301596 
L 484.439429 269.846887 
L 489.563396 268.392177 
L 494.687363 266.937468 
L 499.81133 265.482758 
L 504.935297 264.028049 
L 510.059264 262.573339 
L 515.183231 261.11863 
L 520.307198 259.66392 
L 525.431165 258.209211 
L 530.555132 256.754502 
L 535.679099 255.299792 
L 540.803066 253.845083 
L 545.927033 252.390373 
L 551.050999 250.935664 
L 556.174966 249.480954 
L 561.298933 248.026245 
L 566.4229 246.571536 
L 571.546867 245.116826 
L 576.670834 243.662117 
L 581.794801 242.207407 
" clip-path="url(#pa6d38cdb7f)" style="fill: none; stroke: #000000; stroke-width: 2; stroke-linecap: square"/>
   </g>
   <g id="patch_3">
    <path d="M 49.158438 491.496375 
L 49.158438 47.976375 
" style="fill: none; stroke: #000000; stroke-width: 0.8; stroke-linejoin: miter; stroke-linecap: square"/>
   </g>
   <g id="patch_4">
    <path d="M 49.158437 491.496375 
L 607.158437 491.496375 
" style="fill: none; stroke: #000000; stroke-width: 0.8; stroke-linejoin: miter; stroke-linecap: square"/>
   </g>
   <g id="text_16">
    <text style="font-size: 9px; font-family: 'Helvetica', 'Arial', 'DejaVu Sans', 'Bitstream Vera Sans', 'Computer Modern Sans Serif', 'Lucida Grande', 'Verdana', 'Geneva', 'Lucid', 'Avant Garde', sans-serif; text-anchor: start" x="388.395114" y="63.136375" transform="rotate(-0 388.395114 63.136375)">A</text>
   </g>
   <g id="text_17">
    <text style="font-size: 9px; font-family: 'Helvetica', 'Arial', 'DejaVu Sans', 'Bitstream Vera Sans', 'Computer Modern Sans Serif', 'Lucida Grande', 'Verdana', 'Geneva', 'Lucid', 'Avant Garde', sans-serif; text-anchor: start" x="397.176297" y="318.305675" transform="rotate(-0 397.176297 318.305675)">AL</text>
   </g>
   <g id="text_18">
    <text style="font-size: 9px; font-family: 'Helvetica', 'Arial', 'DejaVu Sans', 'Bitstream Vera Sans', 'Computer Modern Sans Serif', 'Lucida Grande', 'Verdana', 'Geneva', 'Lucid', 'Avant Garde', sans-serif; text-anchor: start" x="79.522074" y="343.415694" transform="rotate(-0 79.522074 343.415694)">AM</text>
   </g>
   <g id="text_19">
    <text style="font-size: 9px; font-family: 'Helvetica', 'Arial', 'DejaVu Sans', 'Bitstream Vera Sans', 'Computer Modern Sans Serif', 'Lucida Grande', 'Verdana', 'Geneva', 'Lucid', 'Avant Garde', sans-serif; text-anchor: start" x="586.794801" y="312.590218" transform="rotate(-0 586.794801 312.590218)">LM</text>
   </g>
   <g id="text_20">
    <text style="font-size: 9px; font-family: 'Helvetica', 'Arial', 'DejaVu Sans', 'Bitstream Vera Sans', 'Computer Modern Sans Serif', 'Lucida Grande', 'Verdana', 'Geneva', 'Lucid', 'Avant Garde', sans-serif; text-anchor: start" x="419.184128" y="284.264184" transform="rotate(-0 419.184128 284.264184)">LI</text>
   </g>
   <g id="text_21">
    <text style="font-size: 9px; font-family: 'Helvetica', 'Arial', 'DejaVu Sans', 'Bitstream Vera Sans', 'Computer Modern Sans Serif', 'Lucida Grande', 'Verdana', 'Geneva', 'Lucid', 'Avant Garde', sans-serif; text-anchor: start" x="182.721648" y="466.336375" transform="rotate(-0 182.721648 466.336375)">PM</text>
   </g>
   <g id="text_22">
    <text style="font-size: 9px; font-family: 'Helvetica', 'Arial', 'DejaVu Sans', 'Bitstream Vera Sans', 'Computer Modern Sans Serif', 'Lucida Grande', 'Verdana', 'Geneva', 'Lucid', 'Avant Garde', sans-serif; text-anchor: start" x="260.636888" y="331.717882" transform="rotate(-0 260.636888 331.717882)">POR</text>
   </g>
   <g id="text_23">
    <text style="font-size: 9px; font-family: 'Helvetica', 'Arial', 'DejaVu Sans', 'Bitstream Vera Sans', 'Computer Modern Sans Serif', 'Lucida Grande', 'Verdana', 'Geneva', 'Lucid', 'Avant Garde', sans-serif; text-anchor: start" x="326.477181" y="360.87349" transform="rotate(-0 326.477181 360.87349)">RL</text>
   </g>
   <g id="text_24">
    <text style="font-size: 12px; font-family: 'Helvetica', 'Arial', 'DejaVu Sans', 'Bitstream Vera Sans', 'Computer Modern Sans Serif', 'Lucida Grande', 'Verdana', 'Geneva', 'Lucid', 'Avant Garde', sans-serif" transform="translate(285.805937 15.808125)">p3 - All Regions</text>
    <text style="font-size: 12px; font-family: 'Helvetica', 'Arial', 'DejaVu Sans', 'Bitstream Vera Sans', 'Computer Modern Sans Serif', 'Lucida Grande', 'Verdana', 'Geneva', 'Lucid', 'Avant Garde', sans-serif" transform="translate(263.13625 29.074125)">Complete Pairs Analysis</text>
    <text style="font-size: 12px; font-family: 'Helvetica', 'Arial', 'DejaVu Sans', 'Bitstream Vera Sans', 'Computer Modern Sans Serif', 'Lucida Grande', 'Verdana', 'Geneva', 'Lucid', 'Avant Garde', sans-serif" transform="translate(268.455625 41.976375)">r = 0.3908, r² = 0.1527</text>
   </g>
  </g>
 </g>
 <defs>
  <clipPath id="pa6d38cdb7f">
   <rect x="49.158438" y="47.976375" width="558" height="443.52"/>
  </clipPath>
 </defs>
</svg>
