<?xml version="1.0" encoding="utf-8" standalone="no"?>
<!DOCTYPE svg PUBLIC "-//W3C//DTD SVG 1.1//EN"
  "http://www.w3.org/Graphics/SVG/1.1/DTD/svg11.dtd">
<svg xmlns:xlink="http://www.w3.org/1999/xlink" width="606.019375pt" height="530.138562pt" viewBox="0 0 606.019375 530.138562" xmlns="http://www.w3.org/2000/svg" version="1.1">
 <metadata>
  <rdf:RDF xmlns:dc="http://purl.org/dc/elements/1.1/" xmlns:cc="http://creativecommons.org/ns#" xmlns:rdf="http://www.w3.org/1999/02/22-rdf-syntax-ns#">
   <cc:Work>
    <dc:type rdf:resource="http://purl.org/dc/dcmitype/StillImage"/>
    <dc:date>2026-02-24T12:28:49.475148</dc:date>
    <dc:format>image/svg+xml</dc:format>
    <dc:creator>
     <cc:Agent>
      <dc:title>Matplotlib v3.10.5, https://matplotlib.org/</dc:title>
     </cc:Agent>
    </dc:creator>
   </cc:Work>
  </rdf:RDF>
 </metadata>
 <defs>
  <style type="text/css">*{stroke-linejoin: round; stroke-linecap: butt}</style>
 </defs>
 <g id="figure_1">
  <g id="patch_1">
   <path d="M 0 530.138562 
L 606.019375 530.138562 
L 606.019375 0 
L 0 0 
z
" style="fill: #ffffff"/>
  </g>
  <g id="axes_1">
   <g id="patch_2">
    <path d="M 40.819375 491.277 
L 598.819375 491.277 
L 598.819375 47.757 
L 40.819375 47.757 
z
" style="fill: #ffffff"/>
   </g>
   <g id="PathCollection_1">
    <defs>
     <path id="C0_0_33f4b02c15" d="M 0 5 
C 1.326016 5 2.597899 4.473168 3.535534 3.535534 
C 4.473168 2.597899 5 1.326016 5 -0 
C 5 -1.326016 4.473168 -2.597899 3.535534 -3.535534 
C 2.597899 -4.473168 1.326016 -5 0 -5 
C -1.326016 -5 -2.597899 -4.473168 -3.535534 -3.535534 
C -4.473168 -2.597899 -5 -1.326016 -5 0 
C -5 1.326016 -4.473168 2.597899 -3.535534 3.535534 
C -2.597899 4.473168 -1.326016 5 0 5 
z
"/>
    </defs>
    <g clip-path="url(#p079d543113)">
     <use xlink:href="#C0_0_33f4b02c15" x="573.455739" y="356.577886" style="fill: #00008b"/>
    </g>
    <g clip-path="url(#p079d543113)">
     <use xlink:href="#C0_0_33f4b02c15" x="462.912764" y="471.117" style="fill: #00008b"/>
    </g>
    <g clip-path="url(#p079d543113)">
     <use xlink:href="#C0_0_33f4b02c15" x="514.115578" y="421.825597" style="fill: #00008b"/>
    </g>
    <g clip-path="url(#p079d543113)">
     <use xlink:href="#C0_0_33f4b02c15" x="171.142779" y="321.243714" style="fill: #00008b"/>
    </g>
    <g clip-path="url(#p079d543113)">
     <use xlink:href="#C0_0_33f4b02c15" x="353.067607" y="201.196072" style="fill: #00008b"/>
    </g>
    <g clip-path="url(#p079d543113)">
     <use xlink:href="#C0_0_33f4b02c15" x="260.105673" y="443.384029" style="fill: #00008b"/>
    </g>
    <g clip-path="url(#p079d543113)">
     <use xlink:href="#C0_0_33f4b02c15" x="66.183011" y="67.917" style="fill: #00008b"/>
    </g>
    <g clip-path="url(#p079d543113)">
     <use xlink:href="#C0_0_33f4b02c15" x="385.100881" y="385.534594" style="fill: #00008b"/>
    </g>
   </g>
   <g id="matplotlib.axis_1">
    <g id="xtick_1">
     <g id="line2d_1">
      <defs>
       <path id="m472dd9ce4f" d="M 0 0 
L 0 3.5 
" style="stroke: #000000; stroke-width: 0.8"/>
      </defs>
      <g>
       <use xlink:href="#m472dd9ce4f" x="133.142969" y="491.277" style="stroke: #000000; stroke-width: 0.8"/>
      </g>
     </g>
     <g id="text_1">
      <text style="font-size: 10px; font-family: 'Helvetica', 'Arial', 'DejaVu Sans', 'Bitstream Vera Sans', 'Computer Modern Sans Serif', 'Lucida Grande', 'Verdana', 'Geneva', 'Lucid', 'Avant Garde', sans-serif; text-anchor: middle" x="133.142969" y="505.450437" transform="rotate(-0 133.142969 505.450437)">20.0</text>
     </g>
    </g>
    <g id="xtick_2">
     <g id="line2d_2">
      <g>
       <use xlink:href="#m472dd9ce4f" x="241.330009" y="491.277" style="stroke: #000000; stroke-width: 0.8"/>
      </g>
     </g>
     <g id="text_2">
      <text style="font-size: 10px; font-family: 'Helvetica', 'Arial', 'DejaVu Sans', 'Bitstream Vera Sans', 'Computer Modern Sans Serif', 'Lucida Grande', 'Verdana', 'Geneva', 'Lucid', 'Avant Garde', sans-serif; text-anchor: middle" x="241.330009" y="505.450437" transform="rotate(-0 241.330009 505.450437)">20.5</text>
     </g>
    </g>
    <g id="xtick_3">
     <g id="line2d_3">
      <g>
       <use xlink:href="#m472dd9ce4f" x="349.517049" y="491.277" style="stroke: #000000; stroke-width: 0.8"/>
      </g>
     </g>
     <g id="text_3">
      <text style="font-size: 10px; font-family: 'Helvetica', 'Arial', 'DejaVu Sans', 'Bitstream Vera Sans', 'Computer Modern Sans Serif', 'Lucida Grande', 'Verdana', 'Geneva', 'Lucid', 'Avant Garde', sans-serif; text-anchor: middle" x="349.517049" y="505.450437" transform="rotate(-0 349.517049 505.450437)">21.0</text>
     </g>
    </g>
    <g id="xtick_4">
     <g id="line2d_4">
      <g>
       <use xlink:href="#m472dd9ce4f" x="457.704089" y="491.277" style="stroke: #000000; stroke-width: 0.8"/>
      </g>
     </g>
     <g id="text_4">
      <text style="font-size: 10px; font-family: 'Helvetica', 'Arial', 'DejaVu Sans', 'Bitstream Vera Sans', 'Computer Modern Sans Serif', 'Lucida Grande', 'Verdana', 'Geneva', 'Lucid', 'Avant Garde', sans-serif; text-anchor: middle" x="457.704089" y="505.450437" transform="rotate(-0 457.704089 505.450437)">21.5</text>
     </g>
    </g>
    <g id="xtick_5">
     <g id="line2d_5">
      <g>
       <use xlink:href="#m472dd9ce4f" x="565.891129" y="491.277" style="stroke: #000000; stroke-width: 0.8"/>
      </g>
     </g>
     <g id="text_5">
      <text style="font-size: 10px; font-family: 'Helvetica', 'Arial', 'DejaVu Sans', 'Bitstream Vera Sans', 'Computer Modern Sans Serif', 'Lucida Grande', 'Verdana', 'Geneva', 'Lucid', 'Avant Garde', sans-serif; text-anchor: middle" x="565.891129" y="505.450437" transform="rotate(-0 565.891129 505.450437)">22.0</text>
     </g>
    </g>
    <g id="text_6">
     <text style="font-size: 12px; font-family: 'Helvetica', 'Arial', 'DejaVu Sans', 'Bitstream Vera Sans', 'Computer Modern Sans Serif', 'Lucida Grande', 'Verdana', 'Geneva', 'Lucid', 'Avant Garde', sans-serif; text-anchor: middle" x="319.819375" y="520.283562" transform="rotate(-0 319.819375 520.283562)">H2B Intensity (Averaged)</text>
    </g>
   </g>
   <g id="matplotlib.axis_2">
    <g id="ytick_1">
     <g id="line2d_6">
      <defs>
       <path id="me5382b1e43" d="M 0 0 
L -3.5 0 
" style="stroke: #000000; stroke-width: 0.8"/>
      </defs>
      <g>
       <use xlink:href="#me5382b1e43" x="40.819375" y="425.856403" style="stroke: #000000; stroke-width: 0.8"/>
      </g>
     </g>
     <g id="text_7">
      <text style="font-size: 10px; font-family: 'Helvetica', 'Arial', 'DejaVu Sans', 'Bitstream Vera Sans', 'Computer Modern Sans Serif', 'Lucida Grande', 'Verdana', 'Geneva', 'Lucid', 'Avant Garde', sans-serif; text-anchor: end" x="33.819375" y="429.443122" transform="rotate(-0 33.819375 429.443122)">10</text>
     </g>
    </g>
    <g id="ytick_2">
     <g id="line2d_7">
      <g>
       <use xlink:href="#me5382b1e43" x="40.819375" y="342.770055" style="stroke: #000000; stroke-width: 0.8"/>
      </g>
     </g>
     <g id="text_8">
      <text style="font-size: 10px; font-family: 'Helvetica', 'Arial', 'DejaVu Sans', 'Bitstream Vera Sans', 'Computer Modern Sans Serif', 'Lucida Grande', 'Verdana', 'Geneva', 'Lucid', 'Avant Garde', sans-serif; text-anchor: end" x="33.819375" y="346.356774" transform="rotate(-0 33.819375 346.356774)">20</text>
     </g>
    </g>
    <g id="ytick_3">
     <g id="line2d_8">
      <g>
       <use xlink:href="#me5382b1e43" x="40.819375" y="259.683707" style="stroke: #000000; stroke-width: 0.8"/>
      </g>
     </g>
     <g id="text_9">
      <text style="font-size: 10px; font-family: 'Helvetica', 'Arial', 'DejaVu Sans', 'Bitstream Vera Sans', 'Computer Modern Sans Serif', 'Lucida Grande', 'Verdana', 'Geneva', 'Lucid', 'Avant Garde', sans-serif; text-anchor: end" x="33.819375" y="263.270426" transform="rotate(-0 33.819375 263.270426)">30</text>
     </g>
    </g>
    <g id="ytick_4">
     <g id="line2d_9">
      <g>
       <use xlink:href="#me5382b1e43" x="40.819375" y="176.597359" style="stroke: #000000; stroke-width: 0.8"/>
      </g>
     </g>
     <g id="text_10">
      <text style="font-size: 10px; font-family: 'Helvetica', 'Arial', 'DejaVu Sans', 'Bitstream Vera Sans', 'Computer Modern Sans Serif', 'Lucida Grande', 'Verdana', 'Geneva', 'Lucid', 'Avant Garde', sans-serif; text-anchor: end" x="33.819375" y="180.184078" transform="rotate(-0 33.819375 180.184078)">40</text>
     </g>
    </g>
    <g id="ytick_5">
     <g id="line2d_10">
      <g>
       <use xlink:href="#me5382b1e43" x="40.819375" y="93.511011" style="stroke: #000000; stroke-width: 0.8"/>
      </g>
     </g>
     <g id="text_11">
      <text style="font-size: 10px; font-family: 'Helvetica', 'Arial', 'DejaVu Sans', 'Bitstream Vera Sans', 'Computer Modern Sans Serif', 'Lucida Grande', 'Verdana', 'Geneva', 'Lucid', 'Avant Garde', sans-serif; text-anchor: end" x="33.819375" y="97.09773" transform="rotate(-0 33.819375 97.09773)">50</text>
     </g>
    </g>
    <g id="text_12">
     <text style="font-size: 12px; font-family: 'Helvetica', 'Arial', 'DejaVu Sans', 'Bitstream Vera Sans', 'Computer Modern Sans Serif', 'Lucida Grande', 'Verdana', 'Geneva', 'Lucid', 'Avant Garde', sans-serif; text-anchor: middle" x="16.0425" y="269.517" transform="rotate(-90 16.0425 269.517)">VSV Intensity (Averaged)</text>
    </g>
   </g>
   <g id="line2d_11">
    <path d="M 66.183011 194.459831 
L 71.306978 196.987317 
L 76.430945 199.514803 
L 81.554912 202.04229 
L 86.678879 204.569776 
L 91.802846 207.097262 
L 96.926813 209.624748 
L 102.05078 212.152235 
L 107.174747 214.679721 
L 112.298714 217.207207 
L 117.422681 219.734694 
L 122.546648 222.26218 
L 127.670615 224.789666 
L 132.794582 227.317152 
L 137.918549 229.844639 
L 143.042515 232.372125 
L 148.166482 234.899611 
L 153.290449 237.427098 
L 158.414416 239.954584 
L 163.538383 242.48207 
L 168.66235 245.009556 
L 173.786317 247.537043 
L 178.910284 250.064529 
L 184.034251 252.592015 
L 189.158218 255.119502 
L 194.282185 257.646988 
L 199.406152 260.174474 
L 204.530119 262.701961 
L 209.654086 265.229447 
L 214.778053 267.756933 
L 219.90202 270.284419 
L 225.025987 272.811906 
L 230.149954 275.339392 
L 235.27392 277.866878 
L 240.397887 280.394365 
L 245.521854 282.921851 
L 250.645821 285.449337 
L 255.769788 287.976823 
L 260.893755 290.50431 
L 266.017722 293.031796 
L 271.141689 295.559282 
L 276.265656 298.086769 
L 281.389623 300.614255 
L 286.51359 303.141741 
L 291.637557 305.669228 
L 296.761524 308.196714 
L 301.885491 310.7242 
L 307.009458 313.251686 
L 312.133425 315.779173 
L 317.257392 318.306659 
L 322.381358 320.834145 
L 327.505325 323.361632 
L 332.629292 325.889118 
L 337.753259 328.416604 
L 342.877226 330.94409 
L 348.001193 333.471577 
L 353.12516 335.999063 
L 358.249127 338.526549 
L 363.373094 341.054036 
L 368.497061 343.581522 
L 373.621028 346.109008 
L 378.744995 348.636494 
L 383.868962 351.163981 
L 388.992929 353.691467 
L 394.116896 356.218953 
L 399.240863 358.74644 
L 404.36483 361.273926 
L 409.488796 363.801412 
L 414.612763 366.328899 
L 419.73673 368.856385 
L 424.860697 371.383871 
L 429.984664 373.911357 
L 435.108631 376.438844 
L 440.232598 378.96633 
L 445.356565 381.493816 
L 450.480532 384.021303 
L 455.604499 386.548789 
L 460.728466 389.076275 
L 465.852433 391.603761 
L 470.9764 394.131248 
L 476.100367 396.658734 
L 481.224334 399.18622 
L 486.348301 401.713707 
L 491.472268 404.241193 
L 496.596235 406.768679 
L 501.720201 409.296165 
L 506.844168 411.823652 
L 511.968135 414.351138 
L 517.092102 416.878624 
L 522.216069 419.406111 
L 527.340036 421.933597 
L 532.464003 424.461083 
L 537.58797 426.98857 
L 542.711937 429.516056 
L 547.835904 432.043542 
L 552.959871 434.571028 
L 558.083838 437.098515 
L 563.207805 439.626001 
L 568.331772 442.153487 
L 573.455739 444.680974 
" clip-path="url(#p079d543113)" style="fill: none; stroke: #000000; stroke-width: 2; stroke-linecap: square"/>
   </g>
   <g id="patch_3">
    <path d="M 40.819375 491.277 
L 40.819375 47.757 
" style="fill: none; stroke: #000000; stroke-width: 0.8; stroke-linejoin: miter; stroke-linecap: square"/>
   </g>
   <g id="patch_4">
    <path d="M 40.819375 491.277 
L 598.819375 491.277 
" style="fill: none; stroke: #000000; stroke-width: 0.8; stroke-linejoin: miter; stroke-linecap: square"/>
   </g>
   <g id="text_13">
    <text style="font-size: 9px; font-family: 'Helvetica', 'Arial', 'DejaVu Sans', 'Bitstream Vera Sans', 'Computer Modern Sans Serif', 'Lucida Grande', 'Verdana', 'Geneva', 'Lucid', 'Avant Garde', sans-serif; text-anchor: start" x="578.455739" y="351.577886" transform="rotate(-0 578.455739 351.577886)">A</text>
   </g>
   <g id="text_14">
    <text style="font-size: 9px; font-family: 'Helvetica', 'Arial', 'DejaVu Sans', 'Bitstream Vera Sans', 'Computer Modern Sans Serif', 'Lucida Grande', 'Verdana', 'Geneva', 'Lucid', 'Avant Garde', sans-serif; text-anchor: start" x="467.912764" y="466.117" transform="rotate(-0 467.912764 466.117)">AL</text>
   </g>
   <g id="text_15">
    <text style="font-size: 9px; font-family: 'Helvetica', 'Arial', 'DejaVu Sans', 'Bitstream Vera Sans', 'Computer Modern Sans Serif', 'Lucida Grande', 'Verdana', 'Geneva', 'Lucid', 'Avant Garde', sans-serif; text-anchor: start" x="519.115578" y="416.825597" transform="rotate(-0 519.115578 416.825597)">AM</text>
   </g>
   <g id="text_16">
    <text style="font-size: 9px; font-family: 'Helvetica', 'Arial', 'DejaVu Sans', 'Bitstream Vera Sans', 'Computer Modern Sans Serif', 'Lucida Grande', 'Verdana', 'Geneva', 'Lucid', 'Avant Garde', sans-serif; text-anchor: start" x="176.142779" y="316.243714" transform="rotate(-0 176.142779 316.243714)">LM</text>
   </g>
   <g id="text_17">
    <text style="font-size: 9px; font-family: 'Helvetica', 'Arial', 'DejaVu Sans', 'Bitstream Vera Sans', 'Computer Modern Sans Serif', 'Lucida Grande', 'Verdana', 'Geneva', 'Lucid', 'Avant Garde', sans-serif; text-anchor: start" x="358.067607" y="196.196072" transform="rotate(-0 358.067607 196.196072)">LI</text>
   </g>
   <g id="text_18">
    <text style="font-size: 9px; font-family: 'Helvetica', 'Arial', 'DejaVu Sans', 'Bitstream Vera Sans', 'Computer Modern Sans Serif', 'Lucida Grande', 'Verdana', 'Geneva', 'Lucid', 'Avant Garde', sans-serif; text-anchor: start" x="265.105673" y="438.384029" transform="rotate(-0 265.105673 438.384029)">PM</text>
   </g>
   <g id="text_19">
    <text style="font-size: 9px; font-family: 'Helvetica', 'Arial', 'DejaVu Sans', 'Bitstream Vera Sans', 'Computer Modern Sans Serif', 'Lucida Grande', 'Verdana', 'Geneva', 'Lucid', 'Avant Garde', sans-serif; text-anchor: start" x="71.183011" y="62.917" transform="rotate(-0 71.183011 62.917)">POR</text>
   </g>
   <g id="text_20">
    <text style="font-size: 9px; font-family: 'Helvetica', 'Arial', 'DejaVu Sans', 'Bitstream Vera Sans', 'Computer Modern Sans Serif', 'Lucida Grande', 'Verdana', 'Geneva', 'Lucid', 'Avant Garde', sans-serif; text-anchor: start" x="390.100881" y="380.534594" transform="rotate(-0 390.100881 380.534594)">RL</text>
   </g>
   <g id="text_21">
    <text style="font-size: 12px; font-family: 'Helvetica', 'Arial', 'DejaVu Sans', 'Bitstream Vera Sans', 'Computer Modern Sans Serif', 'Lucida Grande', 'Verdana', 'Geneva', 'Lucid', 'Avant Garde', sans-serif" transform="translate(271.130313 15.83625)">adult - All Regions</text>
    <text style="font-size: 12px; font-family: 'Helvetica', 'Arial', 'DejaVu Sans', 'Bitstream Vera Sans', 'Computer Modern Sans Serif', 'Lucida Grande', 'Verdana', 'Geneva', 'Lucid', 'Avant Garde', sans-serif" transform="translate(259.793125 28.85475)">Imputed Data Analysis</text>
    <text style="font-size: 12px; font-family: 'Helvetica', 'Arial', 'DejaVu Sans', 'Bitstream Vera Sans', 'Computer Modern Sans Serif', 'Lucida Grande', 'Verdana', 'Geneva', 'Lucid', 'Avant Garde', sans-serif" transform="translate(258.11875 41.757)">r = -0.6285, r² = 0.3950</text>
   </g>
  </g>
 </g>
 <defs>
  <clipPath id="p079d543113">
   <rect x="40.819375" y="47.757" width="558" height="443.52"/>
  </clipPath>
 </defs>
</svg>
