<?xml version="1.0" encoding="utf-8" standalone="no"?>
<!DOCTYPE svg PUBLIC "-//W3C//DTD SVG 1.1//EN"
  "http://www.w3.org/Graphics/SVG/1.1/DTD/svg11.dtd">
<svg xmlns:xlink="http://www.w3.org/1999/xlink" width="614.358438pt" height="530.357937pt" viewBox="0 0 614.358438 530.357937" xmlns="http://www.w3.org/2000/svg" version="1.1">
 <metadata>
  <rdf:RDF xmlns:dc="http://purl.org/dc/elements/1.1/" xmlns:cc="http://creativecommons.org/ns#" xmlns:rdf="http://www.w3.org/1999/02/22-rdf-syntax-ns#">
   <cc:Work>
    <dc:type rdf:resource="http://purl.org/dc/dcmitype/StillImage"/>
    <dc:date>2026-02-24T12:29:38.817421</dc:date>
    <dc:format>image/svg+xml</dc:format>
    <dc:creator>
     <cc:Agent>
      <dc:title>Matplotlib v3.10.5, https://matplotlib.org/</dc:title>
     </cc:Agent>
    </dc:creator>
   </cc:Work>
  </rdf:RDF>
 </metadata>
 <defs>
  <style type="text/css">*{stroke-linejoin: round; stroke-linecap: butt}</style>
 </defs>
 <g id="figure_1">
  <g id="patch_1">
   <path d="M 0 530.357937 
L 614.358438 530.357937 
L 614.358438 0 
L 0 0 
z
" style="fill: #ffffff"/>
  </g>
  <g id="axes_1">
   <g id="patch_2">
    <path d="M 49.158438 491.496375 
L 607.158437 491.496375 
L 607.158437 47.976375 
L 49.158438 47.976375 
z
" style="fill: #ffffff"/>
   </g>
   <g id="PathCollection_1">
    <defs>
     <path id="C0_0_d8359e0acb" d="M 0 5 
C 1.326016 5 2.597899 4.473168 3.535534 3.535534 
C 4.473168 2.597899 5 1.326016 5 -0 
C 5 -1.326016 4.473168 -2.597899 3.535534 -3.535534 
C 2.597899 -4.473168 1.326016 -5 0 -5 
C -1.326016 -5 -2.597899 -4.473168 -3.535534 -3.535534 
C -4.473168 -2.597899 -5 -1.326016 -5 0 
C -5 1.326016 -4.473168 2.597899 -3.535534 3.535534 
C -2.597899 4.473168 -1.326016 5 0 5 
z
"/>
    </defs>
    <g clip-path="url(#pa521aee095)">
     <use xlink:href="#C0_0_d8359e0acb" x="74.522074" y="471.336375" style="fill: #00008b"/>
    </g>
    <g clip-path="url(#pa521aee095)">
     <use xlink:href="#C0_0_d8359e0acb" x="74.522074" y="471.336375" style="fill: #00008b"/>
    </g>
    <g clip-path="url(#pa521aee095)">
     <use xlink:href="#C0_0_d8359e0acb" x="74.522074" y="471.336375" style="fill: #00008b"/>
    </g>
    <g clip-path="url(#pa521aee095)">
     <use xlink:href="#C0_0_d8359e0acb" x="74.522074" y="471.336375" style="fill: #00008b"/>
    </g>
    <g clip-path="url(#pa521aee095)">
     <use xlink:href="#C0_0_d8359e0acb" x="74.522074" y="471.336375" style="fill: #00008b"/>
    </g>
    <g clip-path="url(#pa521aee095)">
     <use xlink:href="#C0_0_d8359e0acb" x="74.522074" y="471.336375" style="fill: #00008b"/>
    </g>
    <g clip-path="url(#pa521aee095)">
     <use xlink:href="#C0_0_d8359e0acb" x="569.663864" y="68.136375" style="fill: #00008b"/>
    </g>
    <g clip-path="url(#pa521aee095)">
     <use xlink:href="#C0_0_d8359e0acb" x="581.794801" y="90.697193" style="fill: #00008b"/>
    </g>
   </g>
   <g id="matplotlib.axis_1">
    <g id="xtick_1">
     <g id="line2d_1">
      <defs>
       <path id="m475b1cfc17" d="M 0 0 
L 0 3.5 
" style="stroke: #000000; stroke-width: 0.8"/>
      </defs>
      <g>
       <use xlink:href="#m475b1cfc17" x="74.522074" y="491.496375" style="stroke: #000000; stroke-width: 0.8"/>
      </g>
     </g>
     <g id="text_1">
      <text style="font-size: 10px; font-family: 'Helvetica', 'Arial', 'DejaVu Sans', 'Bitstream Vera Sans', 'Computer Modern Sans Serif', 'Lucida Grande', 'Verdana', 'Geneva', 'Lucid', 'Avant Garde', sans-serif; text-anchor: middle" x="74.522074" y="505.669812" transform="rotate(-0 74.522074 505.669812)">0.0</text>
     </g>
    </g>
    <g id="xtick_2">
     <g id="line2d_2">
      <g>
       <use xlink:href="#m475b1cfc17" x="191.655309" y="491.496375" style="stroke: #000000; stroke-width: 0.8"/>
      </g>
     </g>
     <g id="text_2">
      <text style="font-size: 10px; font-family: 'Helvetica', 'Arial', 'DejaVu Sans', 'Bitstream Vera Sans', 'Computer Modern Sans Serif', 'Lucida Grande', 'Verdana', 'Geneva', 'Lucid', 'Avant Garde', sans-serif; text-anchor: middle" x="191.655309" y="505.669812" transform="rotate(-0 191.655309 505.669812)">0.1</text>
     </g>
    </g>
    <g id="xtick_3">
     <g id="line2d_3">
      <g>
       <use xlink:href="#m475b1cfc17" x="308.788544" y="491.496375" style="stroke: #000000; stroke-width: 0.8"/>
      </g>
     </g>
     <g id="text_3">
      <text style="font-size: 10px; font-family: 'Helvetica', 'Arial', 'DejaVu Sans', 'Bitstream Vera Sans', 'Computer Modern Sans Serif', 'Lucida Grande', 'Verdana', 'Geneva', 'Lucid', 'Avant Garde', sans-serif; text-anchor: middle" x="308.788544" y="505.669812" transform="rotate(-0 308.788544 505.669812)">0.2</text>
     </g>
    </g>
    <g id="xtick_4">
     <g id="line2d_4">
      <g>
       <use xlink:href="#m475b1cfc17" x="425.921779" y="491.496375" style="stroke: #000000; stroke-width: 0.8"/>
      </g>
     </g>
     <g id="text_4">
      <text style="font-size: 10px; font-family: 'Helvetica', 'Arial', 'DejaVu Sans', 'Bitstream Vera Sans', 'Computer Modern Sans Serif', 'Lucida Grande', 'Verdana', 'Geneva', 'Lucid', 'Avant Garde', sans-serif; text-anchor: middle" x="425.921779" y="505.669812" transform="rotate(-0 425.921779 505.669812)">0.3</text>
     </g>
    </g>
    <g id="xtick_5">
     <g id="line2d_5">
      <g>
       <use xlink:href="#m475b1cfc17" x="543.055014" y="491.496375" style="stroke: #000000; stroke-width: 0.8"/>
      </g>
     </g>
     <g id="text_5">
      <text style="font-size: 10px; font-family: 'Helvetica', 'Arial', 'DejaVu Sans', 'Bitstream Vera Sans', 'Computer Modern Sans Serif', 'Lucida Grande', 'Verdana', 'Geneva', 'Lucid', 'Avant Garde', sans-serif; text-anchor: middle" x="543.055014" y="505.669812" transform="rotate(-0 543.055014 505.669812)">0.4</text>
     </g>
    </g>
    <g id="text_6">
     <text style="font-size: 12px; font-family: 'Helvetica', 'Arial', 'DejaVu Sans', 'Bitstream Vera Sans', 'Computer Modern Sans Serif', 'Lucida Grande', 'Verdana', 'Geneva', 'Lucid', 'Avant Garde', sans-serif; text-anchor: middle" x="328.158437" y="520.502937" transform="rotate(-0 328.158437 520.502937)">H2B Intensity (log10 + Z-score)</text>
    </g>
   </g>
   <g id="matplotlib.axis_2">
    <g id="ytick_1">
     <g id="line2d_6">
      <defs>
       <path id="m507c4a1120" d="M 0 0 
L -3.5 0 
" style="stroke: #000000; stroke-width: 0.8"/>
      </defs>
      <g>
       <use xlink:href="#m507c4a1120" x="49.158438" y="471.336375" style="stroke: #000000; stroke-width: 0.8"/>
      </g>
     </g>
     <g id="text_7">
      <text style="font-size: 10px; font-family: 'Helvetica', 'Arial', 'DejaVu Sans', 'Bitstream Vera Sans', 'Computer Modern Sans Serif', 'Lucida Grande', 'Verdana', 'Geneva', 'Lucid', 'Avant Garde', sans-serif; text-anchor: end" x="42.158438" y="474.923094" transform="rotate(-0 42.158438 474.923094)">0.00</text>
     </g>
    </g>
    <g id="ytick_2">
     <g id="line2d_7">
      <g>
       <use xlink:href="#m507c4a1120" x="49.158438" y="414.970205" style="stroke: #000000; stroke-width: 0.8"/>
      </g>
     </g>
     <g id="text_8">
      <text style="font-size: 10px; font-family: 'Helvetica', 'Arial', 'DejaVu Sans', 'Bitstream Vera Sans', 'Computer Modern Sans Serif', 'Lucida Grande', 'Verdana', 'Geneva', 'Lucid', 'Avant Garde', sans-serif; text-anchor: end" x="42.158438" y="418.556923" transform="rotate(-0 42.158438 418.556923)">0.01</text>
     </g>
    </g>
    <g id="ytick_3">
     <g id="line2d_8">
      <g>
       <use xlink:href="#m507c4a1120" x="49.158438" y="358.604034" style="stroke: #000000; stroke-width: 0.8"/>
      </g>
     </g>
     <g id="text_9">
      <text style="font-size: 10px; font-family: 'Helvetica', 'Arial', 'DejaVu Sans', 'Bitstream Vera Sans', 'Computer Modern Sans Serif', 'Lucida Grande', 'Verdana', 'Geneva', 'Lucid', 'Avant Garde', sans-serif; text-anchor: end" x="42.158438" y="362.190753" transform="rotate(-0 42.158438 362.190753)">0.02</text>
     </g>
    </g>
    <g id="ytick_4">
     <g id="line2d_9">
      <g>
       <use xlink:href="#m507c4a1120" x="49.158438" y="302.237864" style="stroke: #000000; stroke-width: 0.8"/>
      </g>
     </g>
     <g id="text_10">
      <text style="font-size: 10px; font-family: 'Helvetica', 'Arial', 'DejaVu Sans', 'Bitstream Vera Sans', 'Computer Modern Sans Serif', 'Lucida Grande', 'Verdana', 'Geneva', 'Lucid', 'Avant Garde', sans-serif; text-anchor: end" x="42.158438" y="305.824583" transform="rotate(-0 42.158438 305.824583)">0.03</text>
     </g>
    </g>
    <g id="ytick_5">
     <g id="line2d_10">
      <g>
       <use xlink:href="#m507c4a1120" x="49.158438" y="245.871694" style="stroke: #000000; stroke-width: 0.8"/>
      </g>
     </g>
     <g id="text_11">
      <text style="font-size: 10px; font-family: 'Helvetica', 'Arial', 'DejaVu Sans', 'Bitstream Vera Sans', 'Computer Modern Sans Serif', 'Lucida Grande', 'Verdana', 'Geneva', 'Lucid', 'Avant Garde', sans-serif; text-anchor: end" x="42.158438" y="249.458413" transform="rotate(-0 42.158438 249.458413)">0.04</text>
     </g>
    </g>
    <g id="ytick_6">
     <g id="line2d_11">
      <g>
       <use xlink:href="#m507c4a1120" x="49.158438" y="189.505524" style="stroke: #000000; stroke-width: 0.8"/>
      </g>
     </g>
     <g id="text_12">
      <text style="font-size: 10px; font-family: 'Helvetica', 'Arial', 'DejaVu Sans', 'Bitstream Vera Sans', 'Computer Modern Sans Serif', 'Lucida Grande', 'Verdana', 'Geneva', 'Lucid', 'Avant Garde', sans-serif; text-anchor: end" x="42.158438" y="193.092242" transform="rotate(-0 42.158438 193.092242)">0.05</text>
     </g>
    </g>
    <g id="ytick_7">
     <g id="line2d_12">
      <g>
       <use xlink:href="#m507c4a1120" x="49.158438" y="133.139353" style="stroke: #000000; stroke-width: 0.8"/>
      </g>
     </g>
     <g id="text_13">
      <text style="font-size: 10px; font-family: 'Helvetica', 'Arial', 'DejaVu Sans', 'Bitstream Vera Sans', 'Computer Modern Sans Serif', 'Lucida Grande', 'Verdana', 'Geneva', 'Lucid', 'Avant Garde', sans-serif; text-anchor: end" x="42.158438" y="136.726072" transform="rotate(-0 42.158438 136.726072)">0.06</text>
     </g>
    </g>
    <g id="ytick_8">
     <g id="line2d_13">
      <g>
       <use xlink:href="#m507c4a1120" x="49.158438" y="76.773183" style="stroke: #000000; stroke-width: 0.8"/>
      </g>
     </g>
     <g id="text_14">
      <text style="font-size: 10px; font-family: 'Helvetica', 'Arial', 'DejaVu Sans', 'Bitstream Vera Sans', 'Computer Modern Sans Serif', 'Lucida Grande', 'Verdana', 'Geneva', 'Lucid', 'Avant Garde', sans-serif; text-anchor: end" x="42.158438" y="80.359902" transform="rotate(-0 42.158438 80.359902)">0.07</text>
     </g>
    </g>
    <g id="text_15">
     <text style="font-size: 12px; font-family: 'Helvetica', 'Arial', 'DejaVu Sans', 'Bitstream Vera Sans', 'Computer Modern Sans Serif', 'Lucida Grande', 'Verdana', 'Geneva', 'Lucid', 'Avant Garde', sans-serif; text-anchor: middle" x="16.0425" y="269.736375" transform="rotate(-90 16.0425 269.736375)">VSV Intensity (log10 + Z-score)</text>
    </g>
   </g>
   <g id="line2d_14">
    <path d="M 74.522074 471.271751 
L 79.646041 467.267702 
L 84.770008 463.263653 
L 89.893975 459.259604 
L 95.017942 455.255554 
L 100.141909 451.251505 
L 105.265876 447.247456 
L 110.389842 443.243407 
L 115.513809 439.239358 
L 120.637776 435.235309 
L 125.761743 431.231259 
L 130.88571 427.22721 
L 136.009677 423.223161 
L 141.133644 419.219112 
L 146.257611 415.215063 
L 151.381578 411.211014 
L 156.505545 407.206964 
L 161.629512 403.202915 
L 166.753479 399.198866 
L 171.877446 395.194817 
L 177.001413 391.190768 
L 182.12538 387.186719 
L 187.249347 383.18267 
L 192.373314 379.17862 
L 197.49728 375.174571 
L 202.621247 371.170522 
L 207.745214 367.166473 
L 212.869181 363.162424 
L 217.993148 359.158375 
L 223.117115 355.154325 
L 228.241082 351.150276 
L 233.365049 347.146227 
L 238.489016 343.142178 
L 243.612983 339.138129 
L 248.73695 335.13408 
L 253.860917 331.13003 
L 258.984884 327.125981 
L 264.108851 323.121932 
L 269.232818 319.117883 
L 274.356785 315.113834 
L 279.480752 311.109785 
L 284.604718 307.105735 
L 289.728685 303.101686 
L 294.852652 299.097637 
L 299.976619 295.093588 
L 305.100586 291.089539 
L 310.224553 287.08549 
L 315.34852 283.08144 
L 320.472487 279.077391 
L 325.596454 275.073342 
L 330.720421 271.069293 
L 335.844388 267.065244 
L 340.968355 263.061195 
L 346.092322 259.057145 
L 351.216289 255.053096 
L 356.340256 251.049047 
L 361.464223 247.044998 
L 366.58819 243.040949 
L 371.712157 239.0369 
L 376.836123 235.03285 
L 381.96009 231.028801 
L 387.084057 227.024752 
L 392.208024 223.020703 
L 397.331991 219.016654 
L 402.455958 215.012605 
L 407.579925 211.008555 
L 412.703892 207.004506 
L 417.827859 203.000457 
L 422.951826 198.996408 
L 428.075793 194.992359 
L 433.19976 190.98831 
L 438.323727 186.984261 
L 443.447694 182.980211 
L 448.571661 178.976162 
L 453.695628 174.972113 
L 458.819595 170.968064 
L 463.943561 166.964015 
L 469.067528 162.959966 
L 474.191495 158.955916 
L 479.315462 154.951867 
L 484.439429 150.947818 
L 489.563396 146.943769 
L 494.687363 142.93972 
L 499.81133 138.935671 
L 504.935297 134.931621 
L 510.059264 130.927572 
L 515.183231 126.923523 
L 520.307198 122.919474 
L 525.431165 118.915425 
L 530.555132 114.911376 
L 535.679099 110.907326 
L 540.803066 106.903277 
L 545.927033 102.899228 
L 551.050999 98.895179 
L 556.174966 94.89113 
L 561.298933 90.887081 
L 566.4229 86.883031 
L 571.546867 82.878982 
L 576.670834 78.874933 
L 581.794801 74.870884 
" clip-path="url(#pa521aee095)" style="fill: none; stroke: #000000; stroke-width: 2; stroke-linecap: square"/>
   </g>
   <g id="patch_3">
    <path d="M 49.158438 491.496375 
L 49.158438 47.976375 
" style="fill: none; stroke: #000000; stroke-width: 0.8; stroke-linejoin: miter; stroke-linecap: square"/>
   </g>
   <g id="patch_4">
    <path d="M 49.158437 491.496375 
L 607.158437 491.496375 
" style="fill: none; stroke: #000000; stroke-width: 0.8; stroke-linejoin: miter; stroke-linecap: square"/>
   </g>
   <g id="text_16">
    <text style="font-size: 9px; font-family: 'Helvetica', 'Arial', 'DejaVu Sans', 'Bitstream Vera Sans', 'Computer Modern Sans Serif', 'Lucida Grande', 'Verdana', 'Geneva', 'Lucid', 'Avant Garde', sans-serif; text-anchor: start" x="79.522074" y="466.336375" transform="rotate(-0 79.522074 466.336375)">A</text>
   </g>
   <g id="text_17">
    <text style="font-size: 9px; font-family: 'Helvetica', 'Arial', 'DejaVu Sans', 'Bitstream Vera Sans', 'Computer Modern Sans Serif', 'Lucida Grande', 'Verdana', 'Geneva', 'Lucid', 'Avant Garde', sans-serif; text-anchor: start" x="79.522074" y="466.336375" transform="rotate(-0 79.522074 466.336375)">AL</text>
   </g>
   <g id="text_18">
    <text style="font-size: 9px; font-family: 'Helvetica', 'Arial', 'DejaVu Sans', 'Bitstream Vera Sans', 'Computer Modern Sans Serif', 'Lucida Grande', 'Verdana', 'Geneva', 'Lucid', 'Avant Garde', sans-serif; text-anchor: start" x="79.522074" y="466.336375" transform="rotate(-0 79.522074 466.336375)">AM</text>
   </g>
   <g id="text_19">
    <text style="font-size: 9px; font-family: 'Helvetica', 'Arial', 'DejaVu Sans', 'Bitstream Vera Sans', 'Computer Modern Sans Serif', 'Lucida Grande', 'Verdana', 'Geneva', 'Lucid', 'Avant Garde', sans-serif; text-anchor: start" x="79.522074" y="466.336375" transform="rotate(-0 79.522074 466.336375)">LM</text>
   </g>
   <g id="text_20">
    <text style="font-size: 9px; font-family: 'Helvetica', 'Arial', 'DejaVu Sans', 'Bitstream Vera Sans', 'Computer Modern Sans Serif', 'Lucida Grande', 'Verdana', 'Geneva', 'Lucid', 'Avant Garde', sans-serif; text-anchor: start" x="79.522074" y="466.336375" transform="rotate(-0 79.522074 466.336375)">LI</text>
   </g>
   <g id="text_21">
    <text style="font-size: 9px; font-family: 'Helvetica', 'Arial', 'DejaVu Sans', 'Bitstream Vera Sans', 'Computer Modern Sans Serif', 'Lucida Grande', 'Verdana', 'Geneva', 'Lucid', 'Avant Garde', sans-serif; text-anchor: start" x="79.522074" y="466.336375" transform="rotate(-0 79.522074 466.336375)">PM</text>
   </g>
   <g id="text_22">
    <text style="font-size: 9px; font-family: 'Helvetica', 'Arial', 'DejaVu Sans', 'Bitstream Vera Sans', 'Computer Modern Sans Serif', 'Lucida Grande', 'Verdana', 'Geneva', 'Lucid', 'Avant Garde', sans-serif; text-anchor: start" x="574.663864" y="63.136375" transform="rotate(-0 574.663864 63.136375)">POR</text>
   </g>
   <g id="text_23">
    <text style="font-size: 9px; font-family: 'Helvetica', 'Arial', 'DejaVu Sans', 'Bitstream Vera Sans', 'Computer Modern Sans Serif', 'Lucida Grande', 'Verdana', 'Geneva', 'Lucid', 'Avant Garde', sans-serif; text-anchor: start" x="586.794801" y="85.697193" transform="rotate(-0 586.794801 85.697193)">RL</text>
   </g>
   <g id="text_24">
    <text style="font-size: 12px; font-family: 'Helvetica', 'Arial', 'DejaVu Sans', 'Bitstream Vera Sans', 'Computer Modern Sans Serif', 'Lucida Grande', 'Verdana', 'Geneva', 'Lucid', 'Avant Garde', sans-serif" transform="translate(285.805937 15.808125)">p3 - All Regions</text>
    <text style="font-size: 12px; font-family: 'Helvetica', 'Arial', 'DejaVu Sans', 'Bitstream Vera Sans', 'Computer Modern Sans Serif', 'Lucida Grande', 'Verdana', 'Geneva', 'Lucid', 'Avant Garde', sans-serif" transform="translate(231.46 29.074125)">Complete Pairs Analysis (combined)</text>
    <text style="font-size: 12px; font-family: 'Helvetica', 'Arial', 'DejaVu Sans', 'Bitstream Vera Sans', 'Computer Modern Sans Serif', 'Lucida Grande', 'Verdana', 'Geneva', 'Lucid', 'Avant Garde', sans-serif" transform="translate(268.455625 41.976375)">r = 0.9989, r² = 0.9978</text>
   </g>
  </g>
 </g>
 <defs>
  <clipPath id="pa521aee095">
   <rect x="49.158438" y="47.976375" width="558" height="443.52"/>
  </clipPath>
 </defs>
</svg>
