<?xml version="1.0" encoding="utf-8" standalone="no"?>
<!DOCTYPE svg PUBLIC "-//W3C//DTD SVG 1.1//EN"
  "http://www.w3.org/Graphics/SVG/1.1/DTD/svg11.dtd">
<svg xmlns:xlink="http://www.w3.org/1999/xlink" width="608.7975pt" height="530.356062pt" viewBox="0 0 608.7975 530.356062" xmlns="http://www.w3.org/2000/svg" version="1.1">
 <metadata>
  <rdf:RDF xmlns:dc="http://purl.org/dc/elements/1.1/" xmlns:cc="http://creativecommons.org/ns#" xmlns:rdf="http://www.w3.org/1999/02/22-rdf-syntax-ns#">
   <cc:Work>
    <dc:type rdf:resource="http://purl.org/dc/dcmitype/StillImage"/>
    <dc:date>2026-02-24T12:30:00.536518</dc:date>
    <dc:format>image/svg+xml</dc:format>
    <dc:creator>
     <cc:Agent>
      <dc:title>Matplotlib v3.10.5, https://matplotlib.org/</dc:title>
     </cc:Agent>
    </dc:creator>
   </cc:Work>
  </rdf:RDF>
 </metadata>
 <defs>
  <style type="text/css">*{stroke-linejoin: round; stroke-linecap: butt}</style>
 </defs>
 <g id="figure_1">
  <g id="patch_1">
   <path d="M -0 530.356062 
L 608.7975 530.356062 
L 608.7975 0 
L -0 0 
z
" style="fill: #ffffff"/>
  </g>
  <g id="axes_1">
   <g id="patch_2">
    <path d="M 43.5975 491.4945 
L 601.5975 491.4945 
L 601.5975 47.9745 
L 43.5975 47.9745 
z
" style="fill: #ffffff"/>
   </g>
   <g id="PathCollection_1">
    <defs>
     <path id="C0_0_b8e4952b1e" d="M 0 5 
C 1.326016 5 2.597899 4.473168 3.535534 3.535534 
C 4.473168 2.597899 5 1.326016 5 -0 
C 5 -1.326016 4.473168 -2.597899 3.535534 -3.535534 
C 2.597899 -4.473168 1.326016 -5 0 -5 
C -1.326016 -5 -2.597899 -4.473168 -3.535534 -3.535534 
C -4.473168 -2.597899 -5 -1.326016 -5 0 
C -5 1.326016 -4.473168 2.597899 -3.535534 3.535534 
C -2.597899 4.473168 -1.326016 5 0 5 
z
"/>
    </defs>
    <g clip-path="url(#p902ef514e8)">
     <use xlink:href="#C0_0_b8e4952b1e" x="68.961136" y="273.75365" style="fill: #00008b"/>
    </g>
    <g clip-path="url(#p902ef514e8)">
     <use xlink:href="#C0_0_b8e4952b1e" x="212.155724" y="267.545821" style="fill: #00008b"/>
    </g>
    <g clip-path="url(#p902ef514e8)">
     <use xlink:href="#C0_0_b8e4952b1e" x="426.173153" y="230.605923" style="fill: #00008b"/>
    </g>
    <g clip-path="url(#p902ef514e8)">
     <use xlink:href="#C0_0_b8e4952b1e" x="576.233864" y="68.1345" style="fill: #00008b"/>
    </g>
    <g clip-path="url(#p902ef514e8)">
     <use xlink:href="#C0_0_b8e4952b1e" x="329.445851" y="365.776378" style="fill: #00008b"/>
    </g>
    <g clip-path="url(#p902ef514e8)">
     <use xlink:href="#C0_0_b8e4952b1e" x="411.720214" y="256.021878" style="fill: #00008b"/>
    </g>
    <g clip-path="url(#p902ef514e8)">
     <use xlink:href="#C0_0_b8e4952b1e" x="231.665541" y="471.3345" style="fill: #00008b"/>
    </g>
    <g clip-path="url(#p902ef514e8)">
     <use xlink:href="#C0_0_b8e4952b1e" x="438.600497" y="289.160488" style="fill: #00008b"/>
    </g>
   </g>
   <g id="matplotlib.axis_1">
    <g id="xtick_1">
     <g id="line2d_1">
      <defs>
       <path id="mda6c57339c" d="M 0 0 
L 0 3.5 
" style="stroke: #000000; stroke-width: 0.8"/>
      </defs>
      <g>
       <use xlink:href="#mda6c57339c" x="132.243394" y="491.4945" style="stroke: #000000; stroke-width: 0.8"/>
      </g>
     </g>
     <g id="text_1">
      <text style="font-size: 10px; font-family: 'Helvetica', 'Arial', 'DejaVu Sans', 'Bitstream Vera Sans', 'Computer Modern Sans Serif', 'Lucida Grande', 'Verdana', 'Geneva', 'Lucid', 'Avant Garde', sans-serif; text-anchor: middle" x="132.243394" y="505.667937" transform="rotate(-0 132.243394 505.667937)">0.7</text>
     </g>
    </g>
    <g id="xtick_2">
     <g id="line2d_2">
      <g>
       <use xlink:href="#mda6c57339c" x="229.502011" y="491.4945" style="stroke: #000000; stroke-width: 0.8"/>
      </g>
     </g>
     <g id="text_2">
      <text style="font-size: 10px; font-family: 'Helvetica', 'Arial', 'DejaVu Sans', 'Bitstream Vera Sans', 'Computer Modern Sans Serif', 'Lucida Grande', 'Verdana', 'Geneva', 'Lucid', 'Avant Garde', sans-serif; text-anchor: middle" x="229.502011" y="505.667937" transform="rotate(-0 229.502011 505.667937)">0.8</text>
     </g>
    </g>
    <g id="xtick_3">
     <g id="line2d_3">
      <g>
       <use xlink:href="#mda6c57339c" x="326.760628" y="491.4945" style="stroke: #000000; stroke-width: 0.8"/>
      </g>
     </g>
     <g id="text_3">
      <text style="font-size: 10px; font-family: 'Helvetica', 'Arial', 'DejaVu Sans', 'Bitstream Vera Sans', 'Computer Modern Sans Serif', 'Lucida Grande', 'Verdana', 'Geneva', 'Lucid', 'Avant Garde', sans-serif; text-anchor: middle" x="326.760628" y="505.667937" transform="rotate(-0 326.760628 505.667937)">0.9</text>
     </g>
    </g>
    <g id="xtick_4">
     <g id="line2d_4">
      <g>
       <use xlink:href="#mda6c57339c" x="424.019246" y="491.4945" style="stroke: #000000; stroke-width: 0.8"/>
      </g>
     </g>
     <g id="text_4">
      <text style="font-size: 10px; font-family: 'Helvetica', 'Arial', 'DejaVu Sans', 'Bitstream Vera Sans', 'Computer Modern Sans Serif', 'Lucida Grande', 'Verdana', 'Geneva', 'Lucid', 'Avant Garde', sans-serif; text-anchor: middle" x="424.019246" y="505.667937" transform="rotate(-0 424.019246 505.667937)">1.0</text>
     </g>
    </g>
    <g id="xtick_5">
     <g id="line2d_5">
      <g>
       <use xlink:href="#mda6c57339c" x="521.277863" y="491.4945" style="stroke: #000000; stroke-width: 0.8"/>
      </g>
     </g>
     <g id="text_5">
      <text style="font-size: 10px; font-family: 'Helvetica', 'Arial', 'DejaVu Sans', 'Bitstream Vera Sans', 'Computer Modern Sans Serif', 'Lucida Grande', 'Verdana', 'Geneva', 'Lucid', 'Avant Garde', sans-serif; text-anchor: middle" x="521.277863" y="505.667937" transform="rotate(-0 521.277863 505.667937)">1.1</text>
     </g>
    </g>
    <g id="text_6">
     <text style="font-size: 12px; font-family: 'Helvetica', 'Arial', 'DejaVu Sans', 'Bitstream Vera Sans', 'Computer Modern Sans Serif', 'Lucida Grande', 'Verdana', 'Geneva', 'Lucid', 'Avant Garde', sans-serif; text-anchor: middle" x="322.5975" y="520.501062" transform="rotate(-0 322.5975 520.501062)">H2B Intensity (log10)</text>
    </g>
   </g>
   <g id="matplotlib.axis_2">
    <g id="ytick_1">
     <g id="line2d_6">
      <defs>
       <path id="m586be01664" d="M 0 0 
L -3.5 0 
" style="stroke: #000000; stroke-width: 0.8"/>
      </defs>
      <g>
       <use xlink:href="#m586be01664" x="43.5975" y="458.642411" style="stroke: #000000; stroke-width: 0.8"/>
      </g>
     </g>
     <g id="text_7">
      <text style="font-size: 10px; font-family: 'Helvetica', 'Arial', 'DejaVu Sans', 'Bitstream Vera Sans', 'Computer Modern Sans Serif', 'Lucida Grande', 'Verdana', 'Geneva', 'Lucid', 'Avant Garde', sans-serif; text-anchor: end" x="36.5975" y="462.229129" transform="rotate(-0 36.5975 462.229129)">0.2</text>
     </g>
    </g>
    <g id="ytick_2">
     <g id="line2d_7">
      <g>
       <use xlink:href="#m586be01664" x="43.5975" y="394.044556" style="stroke: #000000; stroke-width: 0.8"/>
      </g>
     </g>
     <g id="text_8">
      <text style="font-size: 10px; font-family: 'Helvetica', 'Arial', 'DejaVu Sans', 'Bitstream Vera Sans', 'Computer Modern Sans Serif', 'Lucida Grande', 'Verdana', 'Geneva', 'Lucid', 'Avant Garde', sans-serif; text-anchor: end" x="36.5975" y="397.631275" transform="rotate(-0 36.5975 397.631275)">0.4</text>
     </g>
    </g>
    <g id="ytick_3">
     <g id="line2d_8">
      <g>
       <use xlink:href="#m586be01664" x="43.5975" y="329.446701" style="stroke: #000000; stroke-width: 0.8"/>
      </g>
     </g>
     <g id="text_9">
      <text style="font-size: 10px; font-family: 'Helvetica', 'Arial', 'DejaVu Sans', 'Bitstream Vera Sans', 'Computer Modern Sans Serif', 'Lucida Grande', 'Verdana', 'Geneva', 'Lucid', 'Avant Garde', sans-serif; text-anchor: end" x="36.5975" y="333.03342" transform="rotate(-0 36.5975 333.03342)">0.6</text>
     </g>
    </g>
    <g id="ytick_4">
     <g id="line2d_9">
      <g>
       <use xlink:href="#m586be01664" x="43.5975" y="264.848847" style="stroke: #000000; stroke-width: 0.8"/>
      </g>
     </g>
     <g id="text_10">
      <text style="font-size: 10px; font-family: 'Helvetica', 'Arial', 'DejaVu Sans', 'Bitstream Vera Sans', 'Computer Modern Sans Serif', 'Lucida Grande', 'Verdana', 'Geneva', 'Lucid', 'Avant Garde', sans-serif; text-anchor: end" x="36.5975" y="268.435565" transform="rotate(-0 36.5975 268.435565)">0.8</text>
     </g>
    </g>
    <g id="ytick_5">
     <g id="line2d_10">
      <g>
       <use xlink:href="#m586be01664" x="43.5975" y="200.250992" style="stroke: #000000; stroke-width: 0.8"/>
      </g>
     </g>
     <g id="text_11">
      <text style="font-size: 10px; font-family: 'Helvetica', 'Arial', 'DejaVu Sans', 'Bitstream Vera Sans', 'Computer Modern Sans Serif', 'Lucida Grande', 'Verdana', 'Geneva', 'Lucid', 'Avant Garde', sans-serif; text-anchor: end" x="36.5975" y="203.837711" transform="rotate(-0 36.5975 203.837711)">1.0</text>
     </g>
    </g>
    <g id="ytick_6">
     <g id="line2d_11">
      <g>
       <use xlink:href="#m586be01664" x="43.5975" y="135.653137" style="stroke: #000000; stroke-width: 0.8"/>
      </g>
     </g>
     <g id="text_12">
      <text style="font-size: 10px; font-family: 'Helvetica', 'Arial', 'DejaVu Sans', 'Bitstream Vera Sans', 'Computer Modern Sans Serif', 'Lucida Grande', 'Verdana', 'Geneva', 'Lucid', 'Avant Garde', sans-serif; text-anchor: end" x="36.5975" y="139.239856" transform="rotate(-0 36.5975 139.239856)">1.2</text>
     </g>
    </g>
    <g id="ytick_7">
     <g id="line2d_12">
      <g>
       <use xlink:href="#m586be01664" x="43.5975" y="71.055283" style="stroke: #000000; stroke-width: 0.8"/>
      </g>
     </g>
     <g id="text_13">
      <text style="font-size: 10px; font-family: 'Helvetica', 'Arial', 'DejaVu Sans', 'Bitstream Vera Sans', 'Computer Modern Sans Serif', 'Lucida Grande', 'Verdana', 'Geneva', 'Lucid', 'Avant Garde', sans-serif; text-anchor: end" x="36.5975" y="74.642001" transform="rotate(-0 36.5975 74.642001)">1.4</text>
     </g>
    </g>
    <g id="text_14">
     <text style="font-size: 12px; font-family: 'Helvetica', 'Arial', 'DejaVu Sans', 'Bitstream Vera Sans', 'Computer Modern Sans Serif', 'Lucida Grande', 'Verdana', 'Geneva', 'Lucid', 'Avant Garde', sans-serif; text-anchor: middle" x="16.0425" y="269.7345" transform="rotate(-90 16.0425 269.7345)">VSV Intensity (log10)</text>
    </g>
   </g>
   <g id="line2d_13">
    <path d="M 68.961136 387.425402 
L 74.085103 385.328567 
L 79.20907 383.231731 
L 84.333037 381.134896 
L 89.457004 379.03806 
L 94.580971 376.941225 
L 99.704938 374.844389 
L 104.828905 372.747554 
L 109.952872 370.650718 
L 115.076839 368.553883 
L 120.200806 366.457047 
L 125.324773 364.360212 
L 130.44874 362.263376 
L 135.572707 360.166541 
L 140.696674 358.069705 
L 145.82064 355.97287 
L 150.944607 353.876034 
L 156.068574 351.779199 
L 161.192541 349.682363 
L 166.316508 347.585528 
L 171.440475 345.488692 
L 176.564442 343.391857 
L 181.688409 341.295021 
L 186.812376 339.198186 
L 191.936343 337.10135 
L 197.06031 335.004515 
L 202.184277 332.907679 
L 207.308244 330.810844 
L 212.432211 328.714008 
L 217.556178 326.617173 
L 222.680145 324.520337 
L 227.804112 322.423502 
L 232.928079 320.326666 
L 238.052045 318.229831 
L 243.176012 316.132995 
L 248.299979 314.03616 
L 253.423946 311.939324 
L 258.547913 309.842489 
L 263.67188 307.745653 
L 268.795847 305.648818 
L 273.919814 303.551982 
L 279.043781 301.455147 
L 284.167748 299.358311 
L 289.291715 297.261476 
L 294.415682 295.16464 
L 299.539649 293.067805 
L 304.663616 290.970969 
L 309.787583 288.874134 
L 314.91155 286.777298 
L 320.035517 284.680463 
L 325.159483 282.583627 
L 330.28345 280.486792 
L 335.407417 278.389956 
L 340.531384 276.293121 
L 345.655351 274.196285 
L 350.779318 272.09945 
L 355.903285 270.002615 
L 361.027252 267.905779 
L 366.151219 265.808944 
L 371.275186 263.712108 
L 376.399153 261.615273 
L 381.52312 259.518437 
L 386.647087 257.421602 
L 391.771054 255.324766 
L 396.895021 253.227931 
L 402.018988 251.131095 
L 407.142955 249.03426 
L 412.266921 246.937424 
L 417.390888 244.840589 
L 422.514855 242.743753 
L 427.638822 240.646918 
L 432.762789 238.550082 
L 437.886756 236.453247 
L 443.010723 234.356411 
L 448.13469 232.259576 
L 453.258657 230.16274 
L 458.382624 228.065905 
L 463.506591 225.969069 
L 468.630558 223.872234 
L 473.754525 221.775398 
L 478.878492 219.678563 
L 484.002459 217.581727 
L 489.126426 215.484892 
L 494.250393 213.388056 
L 499.37436 211.291221 
L 504.498326 209.194385 
L 509.622293 207.09755 
L 514.74626 205.000714 
L 519.870227 202.903879 
L 524.994194 200.807043 
L 530.118161 198.710208 
L 535.242128 196.613372 
L 540.366095 194.516537 
L 545.490062 192.419701 
L 550.614029 190.322866 
L 555.737996 188.22603 
L 560.861963 186.129195 
L 565.98593 184.032359 
L 571.109897 181.935524 
L 576.233864 179.838688 
" clip-path="url(#p902ef514e8)" style="fill: none; stroke: #000000; stroke-width: 2; stroke-linecap: square"/>
   </g>
   <g id="patch_3">
    <path d="M 43.5975 491.4945 
L 43.5975 47.9745 
" style="fill: none; stroke: #000000; stroke-width: 0.8; stroke-linejoin: miter; stroke-linecap: square"/>
   </g>
   <g id="patch_4">
    <path d="M 43.5975 491.4945 
L 601.5975 491.4945 
" style="fill: none; stroke: #000000; stroke-width: 0.8; stroke-linejoin: miter; stroke-linecap: square"/>
   </g>
   <g id="text_15">
    <text style="font-size: 9px; font-family: 'Helvetica', 'Arial', 'DejaVu Sans', 'Bitstream Vera Sans', 'Computer Modern Sans Serif', 'Lucida Grande', 'Verdana', 'Geneva', 'Lucid', 'Avant Garde', sans-serif; text-anchor: start" x="73.961136" y="268.75365" transform="rotate(-0 73.961136 268.75365)">A</text>
   </g>
   <g id="text_16">
    <text style="font-size: 9px; font-family: 'Helvetica', 'Arial', 'DejaVu Sans', 'Bitstream Vera Sans', 'Computer Modern Sans Serif', 'Lucida Grande', 'Verdana', 'Geneva', 'Lucid', 'Avant Garde', sans-serif; text-anchor: start" x="217.155724" y="262.545821" transform="rotate(-0 217.155724 262.545821)">AL</text>
   </g>
   <g id="text_17">
    <text style="font-size: 9px; font-family: 'Helvetica', 'Arial', 'DejaVu Sans', 'Bitstream Vera Sans', 'Computer Modern Sans Serif', 'Lucida Grande', 'Verdana', 'Geneva', 'Lucid', 'Avant Garde', sans-serif; text-anchor: start" x="431.173153" y="225.605923" transform="rotate(-0 431.173153 225.605923)">AM</text>
   </g>
   <g id="text_18">
    <text style="font-size: 9px; font-family: 'Helvetica', 'Arial', 'DejaVu Sans', 'Bitstream Vera Sans', 'Computer Modern Sans Serif', 'Lucida Grande', 'Verdana', 'Geneva', 'Lucid', 'Avant Garde', sans-serif; text-anchor: start" x="581.233864" y="63.1345" transform="rotate(-0 581.233864 63.1345)">LM</text>
   </g>
   <g id="text_19">
    <text style="font-size: 9px; font-family: 'Helvetica', 'Arial', 'DejaVu Sans', 'Bitstream Vera Sans', 'Computer Modern Sans Serif', 'Lucida Grande', 'Verdana', 'Geneva', 'Lucid', 'Avant Garde', sans-serif; text-anchor: start" x="334.445851" y="360.776378" transform="rotate(-0 334.445851 360.776378)">LI</text>
   </g>
   <g id="text_20">
    <text style="font-size: 9px; font-family: 'Helvetica', 'Arial', 'DejaVu Sans', 'Bitstream Vera Sans', 'Computer Modern Sans Serif', 'Lucida Grande', 'Verdana', 'Geneva', 'Lucid', 'Avant Garde', sans-serif; text-anchor: start" x="416.720214" y="251.021878" transform="rotate(-0 416.720214 251.021878)">PM</text>
   </g>
   <g id="text_21">
    <text style="font-size: 9px; font-family: 'Helvetica', 'Arial', 'DejaVu Sans', 'Bitstream Vera Sans', 'Computer Modern Sans Serif', 'Lucida Grande', 'Verdana', 'Geneva', 'Lucid', 'Avant Garde', sans-serif; text-anchor: start" x="236.665541" y="466.3345" transform="rotate(-0 236.665541 466.3345)">POR</text>
   </g>
   <g id="text_22">
    <text style="font-size: 9px; font-family: 'Helvetica', 'Arial', 'DejaVu Sans', 'Bitstream Vera Sans', 'Computer Modern Sans Serif', 'Lucida Grande', 'Verdana', 'Geneva', 'Lucid', 'Avant Garde', sans-serif; text-anchor: start" x="443.600497" y="284.160488" transform="rotate(-0 443.600497 284.160488)">RL</text>
   </g>
   <g id="text_23">
    <text style="font-size: 12px; font-family: 'Helvetica', 'Arial', 'DejaVu Sans', 'Bitstream Vera Sans', 'Computer Modern Sans Serif', 'Lucida Grande', 'Verdana', 'Geneva', 'Lucid', 'Avant Garde', sans-serif" transform="translate(273.908438 15.83625)">adult - All Regions</text>
    <text style="font-size: 12px; font-family: 'Helvetica', 'Arial', 'DejaVu Sans', 'Bitstream Vera Sans', 'Computer Modern Sans Serif', 'Lucida Grande', 'Verdana', 'Geneva', 'Lucid', 'Avant Garde', sans-serif" transform="translate(229.558125 28.98975)">Averaged Replicates Analysis (log)</text>
    <text style="font-size: 12px; font-family: 'Helvetica', 'Arial', 'DejaVu Sans', 'Bitstream Vera Sans', 'Computer Modern Sans Serif', 'Lucida Grande', 'Verdana', 'Geneva', 'Lucid', 'Avant Garde', sans-serif" transform="translate(262.894688 41.9745)">r = 0.5715, r² = 0.3267</text>
   </g>
  </g>
 </g>
 <defs>
  <clipPath id="p902ef514e8">
   <rect x="43.5975" y="47.9745" width="558" height="443.52"/>
  </clipPath>
 </defs>
</svg>
