<?xml version="1.0" encoding="utf-8" standalone="no"?>
<!DOCTYPE svg PUBLIC "-//W3C//DTD SVG 1.1//EN"
  "http://www.w3.org/Graphics/SVG/1.1/DTD/svg11.dtd">
<svg xmlns:xlink="http://www.w3.org/1999/xlink" width="608.7975pt" height="530.327937pt" viewBox="0 0 608.7975 530.327937" xmlns="http://www.w3.org/2000/svg" version="1.1">
 <metadata>
  <rdf:RDF xmlns:dc="http://purl.org/dc/elements/1.1/" xmlns:cc="http://creativecommons.org/ns#" xmlns:rdf="http://www.w3.org/1999/02/22-rdf-syntax-ns#">
   <cc:Work>
    <dc:type rdf:resource="http://purl.org/dc/dcmitype/StillImage"/>
    <dc:date>2026-02-24T12:30:00.142861</dc:date>
    <dc:format>image/svg+xml</dc:format>
    <dc:creator>
     <cc:Agent>
      <dc:title>Matplotlib v3.10.5, https://matplotlib.org/</dc:title>
     </cc:Agent>
    </dc:creator>
   </cc:Work>
  </rdf:RDF>
 </metadata>
 <defs>
  <style type="text/css">*{stroke-linejoin: round; stroke-linecap: butt}</style>
 </defs>
 <g id="figure_1">
  <g id="patch_1">
   <path d="M -0 530.327937 
L 608.7975 530.327937 
L 608.7975 0 
L -0 0 
z
" style="fill: #ffffff"/>
  </g>
  <g id="axes_1">
   <g id="patch_2">
    <path d="M 43.5975 491.466375 
L 601.5975 491.466375 
L 601.5975 47.946375 
L 43.5975 47.946375 
z
" style="fill: #ffffff"/>
   </g>
   <g id="PathCollection_1">
    <defs>
     <path id="C0_0_cc4b98d046" d="M 0 5 
C 1.326016 5 2.597899 4.473168 3.535534 3.535534 
C 4.473168 2.597899 5 1.326016 5 -0 
C 5 -1.326016 4.473168 -2.597899 3.535534 -3.535534 
C 2.597899 -4.473168 1.326016 -5 0 -5 
C -1.326016 -5 -2.597899 -4.473168 -3.535534 -3.535534 
C -4.473168 -2.597899 -5 -1.326016 -5 0 
C -5 1.326016 -4.473168 2.597899 -3.535534 3.535534 
C -2.597899 4.473168 -1.326016 5 0 5 
z
"/>
    </defs>
    <g clip-path="url(#p64d20eb5bc)">
     <use xlink:href="#C0_0_cc4b98d046" x="68.961136" y="471.306375" style="fill: #00008b"/>
    </g>
    <g clip-path="url(#p64d20eb5bc)">
     <use xlink:href="#C0_0_cc4b98d046" x="295.767969" y="188.62712" style="fill: #00008b"/>
    </g>
    <g clip-path="url(#p64d20eb5bc)">
     <use xlink:href="#C0_0_cc4b98d046" x="466.60285" y="285.491177" style="fill: #00008b"/>
    </g>
    <g clip-path="url(#p64d20eb5bc)">
     <use xlink:href="#C0_0_cc4b98d046" x="496.177352" y="68.106375" style="fill: #00008b"/>
    </g>
    <g clip-path="url(#p64d20eb5bc)">
     <use xlink:href="#C0_0_cc4b98d046" x="310.311547" y="181.985754" style="fill: #00008b"/>
    </g>
    <g clip-path="url(#p64d20eb5bc)">
     <use xlink:href="#C0_0_cc4b98d046" x="576.233864" y="252.358343" style="fill: #00008b"/>
    </g>
    <g clip-path="url(#p64d20eb5bc)">
     <use xlink:href="#C0_0_cc4b98d046" x="279.296953" y="438.765577" style="fill: #00008b"/>
    </g>
    <g clip-path="url(#p64d20eb5bc)">
     <use xlink:href="#C0_0_cc4b98d046" x="183.851893" y="151.870986" style="fill: #00008b"/>
    </g>
   </g>
   <g id="matplotlib.axis_1">
    <g id="xtick_1">
     <g id="line2d_1">
      <defs>
       <path id="me4adab84f2" d="M 0 0 
L 0 3.5 
" style="stroke: #000000; stroke-width: 0.8"/>
      </defs>
      <g>
       <use xlink:href="#me4adab84f2" x="64.655306" y="491.466375" style="stroke: #000000; stroke-width: 0.8"/>
      </g>
     </g>
     <g id="text_1">
      <text style="font-size: 10px; font-family: 'Helvetica', 'Arial', 'DejaVu Sans', 'Bitstream Vera Sans', 'Computer Modern Sans Serif', 'Lucida Grande', 'Verdana', 'Geneva', 'Lucid', 'Avant Garde', sans-serif; text-anchor: middle" x="64.655306" y="505.639812" transform="rotate(-0 64.655306 505.639812)">0.4</text>
     </g>
    </g>
    <g id="xtick_2">
     <g id="line2d_2">
      <g>
       <use xlink:href="#me4adab84f2" x="142.714241" y="491.466375" style="stroke: #000000; stroke-width: 0.8"/>
      </g>
     </g>
     <g id="text_2">
      <text style="font-size: 10px; font-family: 'Helvetica', 'Arial', 'DejaVu Sans', 'Bitstream Vera Sans', 'Computer Modern Sans Serif', 'Lucida Grande', 'Verdana', 'Geneva', 'Lucid', 'Avant Garde', sans-serif; text-anchor: middle" x="142.714241" y="505.639812" transform="rotate(-0 142.714241 505.639812)">0.5</text>
     </g>
    </g>
    <g id="xtick_3">
     <g id="line2d_3">
      <g>
       <use xlink:href="#me4adab84f2" x="220.773177" y="491.466375" style="stroke: #000000; stroke-width: 0.8"/>
      </g>
     </g>
     <g id="text_3">
      <text style="font-size: 10px; font-family: 'Helvetica', 'Arial', 'DejaVu Sans', 'Bitstream Vera Sans', 'Computer Modern Sans Serif', 'Lucida Grande', 'Verdana', 'Geneva', 'Lucid', 'Avant Garde', sans-serif; text-anchor: middle" x="220.773177" y="505.639812" transform="rotate(-0 220.773177 505.639812)">0.6</text>
     </g>
    </g>
    <g id="xtick_4">
     <g id="line2d_4">
      <g>
       <use xlink:href="#me4adab84f2" x="298.832113" y="491.466375" style="stroke: #000000; stroke-width: 0.8"/>
      </g>
     </g>
     <g id="text_4">
      <text style="font-size: 10px; font-family: 'Helvetica', 'Arial', 'DejaVu Sans', 'Bitstream Vera Sans', 'Computer Modern Sans Serif', 'Lucida Grande', 'Verdana', 'Geneva', 'Lucid', 'Avant Garde', sans-serif; text-anchor: middle" x="298.832113" y="505.639812" transform="rotate(-0 298.832113 505.639812)">0.7</text>
     </g>
    </g>
    <g id="xtick_5">
     <g id="line2d_5">
      <g>
       <use xlink:href="#me4adab84f2" x="376.891049" y="491.466375" style="stroke: #000000; stroke-width: 0.8"/>
      </g>
     </g>
     <g id="text_5">
      <text style="font-size: 10px; font-family: 'Helvetica', 'Arial', 'DejaVu Sans', 'Bitstream Vera Sans', 'Computer Modern Sans Serif', 'Lucida Grande', 'Verdana', 'Geneva', 'Lucid', 'Avant Garde', sans-serif; text-anchor: middle" x="376.891049" y="505.639812" transform="rotate(-0 376.891049 505.639812)">0.8</text>
     </g>
    </g>
    <g id="xtick_6">
     <g id="line2d_6">
      <g>
       <use xlink:href="#me4adab84f2" x="454.949985" y="491.466375" style="stroke: #000000; stroke-width: 0.8"/>
      </g>
     </g>
     <g id="text_6">
      <text style="font-size: 10px; font-family: 'Helvetica', 'Arial', 'DejaVu Sans', 'Bitstream Vera Sans', 'Computer Modern Sans Serif', 'Lucida Grande', 'Verdana', 'Geneva', 'Lucid', 'Avant Garde', sans-serif; text-anchor: middle" x="454.949985" y="505.639812" transform="rotate(-0 454.949985 505.639812)">0.9</text>
     </g>
    </g>
    <g id="xtick_7">
     <g id="line2d_7">
      <g>
       <use xlink:href="#me4adab84f2" x="533.00892" y="491.466375" style="stroke: #000000; stroke-width: 0.8"/>
      </g>
     </g>
     <g id="text_7">
      <text style="font-size: 10px; font-family: 'Helvetica', 'Arial', 'DejaVu Sans', 'Bitstream Vera Sans', 'Computer Modern Sans Serif', 'Lucida Grande', 'Verdana', 'Geneva', 'Lucid', 'Avant Garde', sans-serif; text-anchor: middle" x="533.00892" y="505.639812" transform="rotate(-0 533.00892 505.639812)">1.0</text>
     </g>
    </g>
    <g id="text_8">
     <text style="font-size: 12px; font-family: 'Helvetica', 'Arial', 'DejaVu Sans', 'Bitstream Vera Sans', 'Computer Modern Sans Serif', 'Lucida Grande', 'Verdana', 'Geneva', 'Lucid', 'Avant Garde', sans-serif; text-anchor: middle" x="322.5975" y="520.472937" transform="rotate(-0 322.5975 520.472937)">H2B Intensity (log10)</text>
    </g>
   </g>
   <g id="matplotlib.axis_2">
    <g id="ytick_1">
     <g id="line2d_8">
      <defs>
       <path id="mea63398807" d="M 0 0 
L -3.5 0 
" style="stroke: #000000; stroke-width: 0.8"/>
      </defs>
      <g>
       <use xlink:href="#mea63398807" x="43.5975" y="459.347362" style="stroke: #000000; stroke-width: 0.8"/>
      </g>
     </g>
     <g id="text_9">
      <text style="font-size: 10px; font-family: 'Helvetica', 'Arial', 'DejaVu Sans', 'Bitstream Vera Sans', 'Computer Modern Sans Serif', 'Lucida Grande', 'Verdana', 'Geneva', 'Lucid', 'Avant Garde', sans-serif; text-anchor: end" x="36.5975" y="462.934081" transform="rotate(-0 36.5975 462.934081)">0.4</text>
     </g>
    </g>
    <g id="ytick_2">
     <g id="line2d_9">
      <g>
       <use xlink:href="#mea63398807" x="43.5975" y="381.318131" style="stroke: #000000; stroke-width: 0.8"/>
      </g>
     </g>
     <g id="text_10">
      <text style="font-size: 10px; font-family: 'Helvetica', 'Arial', 'DejaVu Sans', 'Bitstream Vera Sans', 'Computer Modern Sans Serif', 'Lucida Grande', 'Verdana', 'Geneva', 'Lucid', 'Avant Garde', sans-serif; text-anchor: end" x="36.5975" y="384.90485" transform="rotate(-0 36.5975 384.90485)">0.6</text>
     </g>
    </g>
    <g id="ytick_3">
     <g id="line2d_10">
      <g>
       <use xlink:href="#mea63398807" x="43.5975" y="303.2889" style="stroke: #000000; stroke-width: 0.8"/>
      </g>
     </g>
     <g id="text_11">
      <text style="font-size: 10px; font-family: 'Helvetica', 'Arial', 'DejaVu Sans', 'Bitstream Vera Sans', 'Computer Modern Sans Serif', 'Lucida Grande', 'Verdana', 'Geneva', 'Lucid', 'Avant Garde', sans-serif; text-anchor: end" x="36.5975" y="306.875618" transform="rotate(-0 36.5975 306.875618)">0.8</text>
     </g>
    </g>
    <g id="ytick_4">
     <g id="line2d_11">
      <g>
       <use xlink:href="#mea63398807" x="43.5975" y="225.259668" style="stroke: #000000; stroke-width: 0.8"/>
      </g>
     </g>
     <g id="text_12">
      <text style="font-size: 10px; font-family: 'Helvetica', 'Arial', 'DejaVu Sans', 'Bitstream Vera Sans', 'Computer Modern Sans Serif', 'Lucida Grande', 'Verdana', 'Geneva', 'Lucid', 'Avant Garde', sans-serif; text-anchor: end" x="36.5975" y="228.846387" transform="rotate(-0 36.5975 228.846387)">1.0</text>
     </g>
    </g>
    <g id="ytick_5">
     <g id="line2d_12">
      <g>
       <use xlink:href="#mea63398807" x="43.5975" y="147.230437" style="stroke: #000000; stroke-width: 0.8"/>
      </g>
     </g>
     <g id="text_13">
      <text style="font-size: 10px; font-family: 'Helvetica', 'Arial', 'DejaVu Sans', 'Bitstream Vera Sans', 'Computer Modern Sans Serif', 'Lucida Grande', 'Verdana', 'Geneva', 'Lucid', 'Avant Garde', sans-serif; text-anchor: end" x="36.5975" y="150.817156" transform="rotate(-0 36.5975 150.817156)">1.2</text>
     </g>
    </g>
    <g id="ytick_6">
     <g id="line2d_13">
      <g>
       <use xlink:href="#mea63398807" x="43.5975" y="69.201206" style="stroke: #000000; stroke-width: 0.8"/>
      </g>
     </g>
     <g id="text_14">
      <text style="font-size: 10px; font-family: 'Helvetica', 'Arial', 'DejaVu Sans', 'Bitstream Vera Sans', 'Computer Modern Sans Serif', 'Lucida Grande', 'Verdana', 'Geneva', 'Lucid', 'Avant Garde', sans-serif; text-anchor: end" x="36.5975" y="72.787925" transform="rotate(-0 36.5975 72.787925)">1.4</text>
     </g>
    </g>
    <g id="text_15">
     <text style="font-size: 12px; font-family: 'Helvetica', 'Arial', 'DejaVu Sans', 'Bitstream Vera Sans', 'Computer Modern Sans Serif', 'Lucida Grande', 'Verdana', 'Geneva', 'Lucid', 'Avant Garde', sans-serif; text-anchor: middle" x="16.0425" y="269.706375" transform="rotate(-90 16.0425 269.706375)">VSV Intensity (log10)</text>
    </g>
   </g>
   <g id="line2d_14">
    <path d="M 68.961136 353.651043 
L 74.085103 351.744915 
L 79.20907 349.838786 
L 84.333037 347.932658 
L 89.457004 346.02653 
L 94.580971 344.120401 
L 99.704938 342.214273 
L 104.828905 340.308145 
L 109.952872 338.402016 
L 115.076839 336.495888 
L 120.200806 334.589759 
L 125.324773 332.683631 
L 130.44874 330.777503 
L 135.572707 328.871374 
L 140.696674 326.965246 
L 145.82064 325.059118 
L 150.944607 323.152989 
L 156.068574 321.246861 
L 161.192541 319.340732 
L 166.316508 317.434604 
L 171.440475 315.528476 
L 176.564442 313.622347 
L 181.688409 311.716219 
L 186.812376 309.810091 
L 191.936343 307.903962 
L 197.06031 305.997834 
L 202.184277 304.091706 
L 207.308244 302.185577 
L 212.432211 300.279449 
L 217.556178 298.37332 
L 222.680145 296.467192 
L 227.804112 294.561064 
L 232.928079 292.654935 
L 238.052045 290.748807 
L 243.176012 288.842679 
L 248.299979 286.93655 
L 253.423946 285.030422 
L 258.547913 283.124294 
L 263.67188 281.218165 
L 268.795847 279.312037 
L 273.919814 277.405908 
L 279.043781 275.49978 
L 284.167748 273.593652 
L 289.291715 271.687523 
L 294.415682 269.781395 
L 299.539649 267.875267 
L 304.663616 265.969138 
L 309.787583 264.06301 
L 314.91155 262.156882 
L 320.035517 260.250753 
L 325.159483 258.344625 
L 330.28345 256.438496 
L 335.407417 254.532368 
L 340.531384 252.62624 
L 345.655351 250.720111 
L 350.779318 248.813983 
L 355.903285 246.907855 
L 361.027252 245.001726 
L 366.151219 243.095598 
L 371.275186 241.189469 
L 376.399153 239.283341 
L 381.52312 237.377213 
L 386.647087 235.471084 
L 391.771054 233.564956 
L 396.895021 231.658828 
L 402.018988 229.752699 
L 407.142955 227.846571 
L 412.266921 225.940443 
L 417.390888 224.034314 
L 422.514855 222.128186 
L 427.638822 220.222057 
L 432.762789 218.315929 
L 437.886756 216.409801 
L 443.010723 214.503672 
L 448.13469 212.597544 
L 453.258657 210.691416 
L 458.382624 208.785287 
L 463.506591 206.879159 
L 468.630558 204.973031 
L 473.754525 203.066902 
L 478.878492 201.160774 
L 484.002459 199.254645 
L 489.126426 197.348517 
L 494.250393 195.442389 
L 499.37436 193.53626 
L 504.498326 191.630132 
L 509.622293 189.724004 
L 514.74626 187.817875 
L 519.870227 185.911747 
L 524.994194 184.005619 
L 530.118161 182.09949 
L 535.242128 180.193362 
L 540.366095 178.287233 
L 545.490062 176.381105 
L 550.614029 174.474977 
L 555.737996 172.568848 
L 560.861963 170.66272 
L 565.98593 168.756592 
L 571.109897 166.850463 
L 576.233864 164.944335 
" clip-path="url(#p64d20eb5bc)" style="fill: none; stroke: #000000; stroke-width: 2; stroke-linecap: square"/>
   </g>
   <g id="patch_3">
    <path d="M 43.5975 491.466375 
L 43.5975 47.946375 
" style="fill: none; stroke: #000000; stroke-width: 0.8; stroke-linejoin: miter; stroke-linecap: square"/>
   </g>
   <g id="patch_4">
    <path d="M 43.5975 491.466375 
L 601.5975 491.466375 
" style="fill: none; stroke: #000000; stroke-width: 0.8; stroke-linejoin: miter; stroke-linecap: square"/>
   </g>
   <g id="text_16">
    <text style="font-size: 9px; font-family: 'Helvetica', 'Arial', 'DejaVu Sans', 'Bitstream Vera Sans', 'Computer Modern Sans Serif', 'Lucida Grande', 'Verdana', 'Geneva', 'Lucid', 'Avant Garde', sans-serif; text-anchor: start" x="73.961136" y="466.306375" transform="rotate(-0 73.961136 466.306375)">A</text>
   </g>
   <g id="text_17">
    <text style="font-size: 9px; font-family: 'Helvetica', 'Arial', 'DejaVu Sans', 'Bitstream Vera Sans', 'Computer Modern Sans Serif', 'Lucida Grande', 'Verdana', 'Geneva', 'Lucid', 'Avant Garde', sans-serif; text-anchor: start" x="300.767969" y="183.62712" transform="rotate(-0 300.767969 183.62712)">AL</text>
   </g>
   <g id="text_18">
    <text style="font-size: 9px; font-family: 'Helvetica', 'Arial', 'DejaVu Sans', 'Bitstream Vera Sans', 'Computer Modern Sans Serif', 'Lucida Grande', 'Verdana', 'Geneva', 'Lucid', 'Avant Garde', sans-serif; text-anchor: start" x="471.60285" y="280.491177" transform="rotate(-0 471.60285 280.491177)">AM</text>
   </g>
   <g id="text_19">
    <text style="font-size: 9px; font-family: 'Helvetica', 'Arial', 'DejaVu Sans', 'Bitstream Vera Sans', 'Computer Modern Sans Serif', 'Lucida Grande', 'Verdana', 'Geneva', 'Lucid', 'Avant Garde', sans-serif; text-anchor: start" x="501.177352" y="63.106375" transform="rotate(-0 501.177352 63.106375)">LM</text>
   </g>
   <g id="text_20">
    <text style="font-size: 9px; font-family: 'Helvetica', 'Arial', 'DejaVu Sans', 'Bitstream Vera Sans', 'Computer Modern Sans Serif', 'Lucida Grande', 'Verdana', 'Geneva', 'Lucid', 'Avant Garde', sans-serif; text-anchor: start" x="315.311547" y="176.985754" transform="rotate(-0 315.311547 176.985754)">LI</text>
   </g>
   <g id="text_21">
    <text style="font-size: 9px; font-family: 'Helvetica', 'Arial', 'DejaVu Sans', 'Bitstream Vera Sans', 'Computer Modern Sans Serif', 'Lucida Grande', 'Verdana', 'Geneva', 'Lucid', 'Avant Garde', sans-serif; text-anchor: start" x="581.233864" y="247.358343" transform="rotate(-0 581.233864 247.358343)">PM</text>
   </g>
   <g id="text_22">
    <text style="font-size: 9px; font-family: 'Helvetica', 'Arial', 'DejaVu Sans', 'Bitstream Vera Sans', 'Computer Modern Sans Serif', 'Lucida Grande', 'Verdana', 'Geneva', 'Lucid', 'Avant Garde', sans-serif; text-anchor: start" x="284.296953" y="433.765577" transform="rotate(-0 284.296953 433.765577)">POR</text>
   </g>
   <g id="text_23">
    <text style="font-size: 9px; font-family: 'Helvetica', 'Arial', 'DejaVu Sans', 'Bitstream Vera Sans', 'Computer Modern Sans Serif', 'Lucida Grande', 'Verdana', 'Geneva', 'Lucid', 'Avant Garde', sans-serif; text-anchor: start" x="188.851893" y="146.870986" transform="rotate(-0 188.851893 146.870986)">RL</text>
   </g>
   <g id="text_24">
    <text style="font-size: 12px; font-family: 'Helvetica', 'Arial', 'DejaVu Sans', 'Bitstream Vera Sans', 'Computer Modern Sans Serif', 'Lucida Grande', 'Verdana', 'Geneva', 'Lucid', 'Avant Garde', sans-serif" transform="translate(276.908438 15.808125)">p12 - All Regions</text>
    <text style="font-size: 12px; font-family: 'Helvetica', 'Arial', 'DejaVu Sans', 'Bitstream Vera Sans', 'Computer Modern Sans Serif', 'Lucida Grande', 'Verdana', 'Geneva', 'Lucid', 'Avant Garde', sans-serif" transform="translate(229.558125 28.961625)">Averaged Replicates Analysis (log)</text>
    <text style="font-size: 12px; font-family: 'Helvetica', 'Arial', 'DejaVu Sans', 'Bitstream Vera Sans', 'Computer Modern Sans Serif', 'Lucida Grande', 'Verdana', 'Geneva', 'Lucid', 'Avant Garde', sans-serif" transform="translate(262.894688 41.946375)">r = 0.4502, r² = 0.2027</text>
   </g>
  </g>
 </g>
 <defs>
  <clipPath id="p64d20eb5bc">
   <rect x="43.5975" y="47.946375" width="558" height="443.52"/>
  </clipPath>
 </defs>
</svg>
