<?xml version="1.0" encoding="utf-8" standalone="no"?>
<!DOCTYPE svg PUBLIC "-//W3C//DTD SVG 1.1//EN"
  "http://www.w3.org/Graphics/SVG/1.1/DTD/svg11.dtd">
<svg xmlns:xlink="http://www.w3.org/1999/xlink" width="606.019375pt" height="530.138562pt" viewBox="0 0 606.019375 530.138562" xmlns="http://www.w3.org/2000/svg" version="1.1">
 <metadata>
  <rdf:RDF xmlns:dc="http://purl.org/dc/elements/1.1/" xmlns:cc="http://creativecommons.org/ns#" xmlns:rdf="http://www.w3.org/1999/02/22-rdf-syntax-ns#">
   <cc:Work>
    <dc:type rdf:resource="http://purl.org/dc/dcmitype/StillImage"/>
    <dc:date>2026-02-24T12:29:59.138138</dc:date>
    <dc:format>image/svg+xml</dc:format>
    <dc:creator>
     <cc:Agent>
      <dc:title>Matplotlib v3.10.5, https://matplotlib.org/</dc:title>
     </cc:Agent>
    </dc:creator>
   </cc:Work>
  </rdf:RDF>
 </metadata>
 <defs>
  <style type="text/css">*{stroke-linejoin: round; stroke-linecap: butt}</style>
 </defs>
 <g id="figure_1">
  <g id="patch_1">
   <path d="M 0 530.138562 
L 606.019375 530.138562 
L 606.019375 0 
L 0 0 
z
" style="fill: #ffffff"/>
  </g>
  <g id="axes_1">
   <g id="patch_2">
    <path d="M 40.819375 491.277 
L 598.819375 491.277 
L 598.819375 47.757 
L 40.819375 47.757 
z
" style="fill: #ffffff"/>
   </g>
   <g id="PathCollection_1">
    <defs>
     <path id="C0_0_b2286f0485" d="M 0 5 
C 1.326016 5 2.597899 4.473168 3.535534 3.535534 
C 4.473168 2.597899 5 1.326016 5 -0 
C 5 -1.326016 4.473168 -2.597899 3.535534 -3.535534 
C 2.597899 -4.473168 1.326016 -5 0 -5 
C -1.326016 -5 -2.597899 -4.473168 -3.535534 -3.535534 
C -4.473168 -2.597899 -5 -1.326016 -5 0 
C -5 1.326016 -4.473168 2.597899 -3.535534 3.535534 
C -2.597899 4.473168 -1.326016 5 0 5 
z
"/>
    </defs>
    <g clip-path="url(#pa12ee82ffa)">
     <use xlink:href="#C0_0_b2286f0485" x="66.183011" y="337.480685" style="fill: #00008b"/>
    </g>
    <g clip-path="url(#pa12ee82ffa)">
     <use xlink:href="#C0_0_b2286f0485" x="153.129152" y="352.454062" style="fill: #00008b"/>
    </g>
    <g clip-path="url(#pa12ee82ffa)">
     <use xlink:href="#C0_0_b2286f0485" x="327.128516" y="377.895931" style="fill: #00008b"/>
    </g>
    <g clip-path="url(#pa12ee82ffa)">
     <use xlink:href="#C0_0_b2286f0485" x="573.455739" y="67.917" style="fill: #00008b"/>
    </g>
    <g clip-path="url(#pa12ee82ffa)">
     <use xlink:href="#C0_0_b2286f0485" x="231.587768" y="443.263945" style="fill: #00008b"/>
    </g>
    <g clip-path="url(#pa12ee82ffa)">
     <use xlink:href="#C0_0_b2286f0485" x="349.143934" y="335.721635" style="fill: #00008b"/>
    </g>
    <g clip-path="url(#pa12ee82ffa)">
     <use xlink:href="#C0_0_b2286f0485" x="190.343895" y="471.117" style="fill: #00008b"/>
    </g>
    <g clip-path="url(#pa12ee82ffa)">
     <use xlink:href="#C0_0_b2286f0485" x="470.461054" y="292.431844" style="fill: #00008b"/>
    </g>
   </g>
   <g id="matplotlib.axis_1">
    <g id="xtick_1">
     <g id="line2d_1">
      <defs>
       <path id="m5488ac0bec" d="M 0 0 
L 0 3.5 
" style="stroke: #000000; stroke-width: 0.8"/>
      </defs>
      <g>
       <use xlink:href="#m5488ac0bec" x="79.879445" y="491.277" style="stroke: #000000; stroke-width: 0.8"/>
      </g>
     </g>
     <g id="text_1">
      <text style="font-size: 10px; font-family: 'Helvetica', 'Arial', 'DejaVu Sans', 'Bitstream Vera Sans', 'Computer Modern Sans Serif', 'Lucida Grande', 'Verdana', 'Geneva', 'Lucid', 'Avant Garde', sans-serif; text-anchor: middle" x="79.879445" y="505.450437" transform="rotate(-0 79.879445 505.450437)">4</text>
     </g>
    </g>
    <g id="xtick_2">
     <g id="line2d_2">
      <g>
       <use xlink:href="#m5488ac0bec" x="172.995452" y="491.277" style="stroke: #000000; stroke-width: 0.8"/>
      </g>
     </g>
     <g id="text_2">
      <text style="font-size: 10px; font-family: 'Helvetica', 'Arial', 'DejaVu Sans', 'Bitstream Vera Sans', 'Computer Modern Sans Serif', 'Lucida Grande', 'Verdana', 'Geneva', 'Lucid', 'Avant Garde', sans-serif; text-anchor: middle" x="172.995452" y="505.450437" transform="rotate(-0 172.995452 505.450437)">6</text>
     </g>
    </g>
    <g id="xtick_3">
     <g id="line2d_3">
      <g>
       <use xlink:href="#m5488ac0bec" x="266.111459" y="491.277" style="stroke: #000000; stroke-width: 0.8"/>
      </g>
     </g>
     <g id="text_3">
      <text style="font-size: 10px; font-family: 'Helvetica', 'Arial', 'DejaVu Sans', 'Bitstream Vera Sans', 'Computer Modern Sans Serif', 'Lucida Grande', 'Verdana', 'Geneva', 'Lucid', 'Avant Garde', sans-serif; text-anchor: middle" x="266.111459" y="505.450437" transform="rotate(-0 266.111459 505.450437)">8</text>
     </g>
    </g>
    <g id="xtick_4">
     <g id="line2d_4">
      <g>
       <use xlink:href="#m5488ac0bec" x="359.227466" y="491.277" style="stroke: #000000; stroke-width: 0.8"/>
      </g>
     </g>
     <g id="text_4">
      <text style="font-size: 10px; font-family: 'Helvetica', 'Arial', 'DejaVu Sans', 'Bitstream Vera Sans', 'Computer Modern Sans Serif', 'Lucida Grande', 'Verdana', 'Geneva', 'Lucid', 'Avant Garde', sans-serif; text-anchor: middle" x="359.227466" y="505.450437" transform="rotate(-0 359.227466 505.450437)">10</text>
     </g>
    </g>
    <g id="xtick_5">
     <g id="line2d_5">
      <g>
       <use xlink:href="#m5488ac0bec" x="452.343473" y="491.277" style="stroke: #000000; stroke-width: 0.8"/>
      </g>
     </g>
     <g id="text_5">
      <text style="font-size: 10px; font-family: 'Helvetica', 'Arial', 'DejaVu Sans', 'Bitstream Vera Sans', 'Computer Modern Sans Serif', 'Lucida Grande', 'Verdana', 'Geneva', 'Lucid', 'Avant Garde', sans-serif; text-anchor: middle" x="452.343473" y="505.450437" transform="rotate(-0 452.343473 505.450437)">12</text>
     </g>
    </g>
    <g id="xtick_6">
     <g id="line2d_6">
      <g>
       <use xlink:href="#m5488ac0bec" x="545.45948" y="491.277" style="stroke: #000000; stroke-width: 0.8"/>
      </g>
     </g>
     <g id="text_6">
      <text style="font-size: 10px; font-family: 'Helvetica', 'Arial', 'DejaVu Sans', 'Bitstream Vera Sans', 'Computer Modern Sans Serif', 'Lucida Grande', 'Verdana', 'Geneva', 'Lucid', 'Avant Garde', sans-serif; text-anchor: middle" x="545.45948" y="505.450437" transform="rotate(-0 545.45948 505.450437)">14</text>
     </g>
    </g>
    <g id="text_7">
     <text style="font-size: 12px; font-family: 'Helvetica', 'Arial', 'DejaVu Sans', 'Bitstream Vera Sans', 'Computer Modern Sans Serif', 'Lucida Grande', 'Verdana', 'Geneva', 'Lucid', 'Avant Garde', sans-serif; text-anchor: middle" x="319.819375" y="520.283562" transform="rotate(-0 319.819375 520.283562)">H2B Intensity (Averaged)</text>
    </g>
   </g>
   <g id="matplotlib.axis_2">
    <g id="ytick_1">
     <g id="line2d_7">
      <defs>
       <path id="meaca894945" d="M 0 0 
L -3.5 0 
" style="stroke: #000000; stroke-width: 0.8"/>
      </defs>
      <g>
       <use xlink:href="#meaca894945" x="40.819375" y="477.732744" style="stroke: #000000; stroke-width: 0.8"/>
      </g>
     </g>
     <g id="text_8">
      <text style="font-size: 10px; font-family: 'Helvetica', 'Arial', 'DejaVu Sans', 'Bitstream Vera Sans', 'Computer Modern Sans Serif', 'Lucida Grande', 'Verdana', 'Geneva', 'Lucid', 'Avant Garde', sans-serif; text-anchor: end" x="33.819375" y="481.319463" transform="rotate(-0 33.819375 481.319463)">0</text>
     </g>
    </g>
    <g id="ytick_2">
     <g id="line2d_8">
      <g>
       <use xlink:href="#meaca894945" x="40.819375" y="413.377257" style="stroke: #000000; stroke-width: 0.8"/>
      </g>
     </g>
     <g id="text_9">
      <text style="font-size: 10px; font-family: 'Helvetica', 'Arial', 'DejaVu Sans', 'Bitstream Vera Sans', 'Computer Modern Sans Serif', 'Lucida Grande', 'Verdana', 'Geneva', 'Lucid', 'Avant Garde', sans-serif; text-anchor: end" x="33.819375" y="416.963975" transform="rotate(-0 33.819375 416.963975)">5</text>
     </g>
    </g>
    <g id="ytick_3">
     <g id="line2d_9">
      <g>
       <use xlink:href="#meaca894945" x="40.819375" y="349.021769" style="stroke: #000000; stroke-width: 0.8"/>
      </g>
     </g>
     <g id="text_10">
      <text style="font-size: 10px; font-family: 'Helvetica', 'Arial', 'DejaVu Sans', 'Bitstream Vera Sans', 'Computer Modern Sans Serif', 'Lucida Grande', 'Verdana', 'Geneva', 'Lucid', 'Avant Garde', sans-serif; text-anchor: end" x="33.819375" y="352.608488" transform="rotate(-0 33.819375 352.608488)">10</text>
     </g>
    </g>
    <g id="ytick_4">
     <g id="line2d_10">
      <g>
       <use xlink:href="#meaca894945" x="40.819375" y="284.666282" style="stroke: #000000; stroke-width: 0.8"/>
      </g>
     </g>
     <g id="text_11">
      <text style="font-size: 10px; font-family: 'Helvetica', 'Arial', 'DejaVu Sans', 'Bitstream Vera Sans', 'Computer Modern Sans Serif', 'Lucida Grande', 'Verdana', 'Geneva', 'Lucid', 'Avant Garde', sans-serif; text-anchor: end" x="33.819375" y="288.253" transform="rotate(-0 33.819375 288.253)">15</text>
     </g>
    </g>
    <g id="ytick_5">
     <g id="line2d_11">
      <g>
       <use xlink:href="#meaca894945" x="40.819375" y="220.310794" style="stroke: #000000; stroke-width: 0.8"/>
      </g>
     </g>
     <g id="text_12">
      <text style="font-size: 10px; font-family: 'Helvetica', 'Arial', 'DejaVu Sans', 'Bitstream Vera Sans', 'Computer Modern Sans Serif', 'Lucida Grande', 'Verdana', 'Geneva', 'Lucid', 'Avant Garde', sans-serif; text-anchor: end" x="33.819375" y="223.897513" transform="rotate(-0 33.819375 223.897513)">20</text>
     </g>
    </g>
    <g id="ytick_6">
     <g id="line2d_12">
      <g>
       <use xlink:href="#meaca894945" x="40.819375" y="155.955307" style="stroke: #000000; stroke-width: 0.8"/>
      </g>
     </g>
     <g id="text_13">
      <text style="font-size: 10px; font-family: 'Helvetica', 'Arial', 'DejaVu Sans', 'Bitstream Vera Sans', 'Computer Modern Sans Serif', 'Lucida Grande', 'Verdana', 'Geneva', 'Lucid', 'Avant Garde', sans-serif; text-anchor: end" x="33.819375" y="159.542026" transform="rotate(-0 33.819375 159.542026)">25</text>
     </g>
    </g>
    <g id="ytick_7">
     <g id="line2d_13">
      <g>
       <use xlink:href="#meaca894945" x="40.819375" y="91.599819" style="stroke: #000000; stroke-width: 0.8"/>
      </g>
     </g>
     <g id="text_14">
      <text style="font-size: 10px; font-family: 'Helvetica', 'Arial', 'DejaVu Sans', 'Bitstream Vera Sans', 'Computer Modern Sans Serif', 'Lucida Grande', 'Verdana', 'Geneva', 'Lucid', 'Avant Garde', sans-serif; text-anchor: end" x="33.819375" y="95.186538" transform="rotate(-0 33.819375 95.186538)">30</text>
     </g>
    </g>
    <g id="text_15">
     <text style="font-size: 12px; font-family: 'Helvetica', 'Arial', 'DejaVu Sans', 'Bitstream Vera Sans', 'Computer Modern Sans Serif', 'Lucida Grande', 'Verdana', 'Geneva', 'Lucid', 'Avant Garde', sans-serif; text-anchor: middle" x="16.0425" y="269.517" transform="rotate(-90 16.0425 269.517)">VSV Intensity (Averaged)</text>
    </g>
   </g>
   <g id="line2d_14">
    <path d="M 66.183011 454.675829 
L 71.306978 451.993184 
L 76.430945 449.310539 
L 81.554912 446.627894 
L 86.678879 443.945249 
L 91.802846 441.262604 
L 96.926813 438.579959 
L 102.05078 435.897314 
L 107.174747 433.214669 
L 112.298714 430.532024 
L 117.422681 427.849379 
L 122.546648 425.166735 
L 127.670615 422.48409 
L 132.794582 419.801445 
L 137.918549 417.1188 
L 143.042515 414.436155 
L 148.166482 411.75351 
L 153.290449 409.070865 
L 158.414416 406.38822 
L 163.538383 403.705575 
L 168.66235 401.02293 
L 173.786317 398.340285 
L 178.910284 395.65764 
L 184.034251 392.974995 
L 189.158218 390.29235 
L 194.282185 387.609705 
L 199.406152 384.92706 
L 204.530119 382.244415 
L 209.654086 379.56177 
L 214.778053 376.879125 
L 219.90202 374.19648 
L 225.025987 371.513835 
L 230.149954 368.83119 
L 235.27392 366.148545 
L 240.397887 363.4659 
L 245.521854 360.783255 
L 250.645821 358.10061 
L 255.769788 355.417965 
L 260.893755 352.73532 
L 266.017722 350.052675 
L 271.141689 347.37003 
L 276.265656 344.687385 
L 281.389623 342.00474 
L 286.51359 339.322095 
L 291.637557 336.63945 
L 296.761524 333.956805 
L 301.885491 331.27416 
L 307.009458 328.591515 
L 312.133425 325.90887 
L 317.257392 323.226225 
L 322.381358 320.54358 
L 327.505325 317.860935 
L 332.629292 315.17829 
L 337.753259 312.495645 
L 342.877226 309.813 
L 348.001193 307.130355 
L 353.12516 304.44771 
L 358.249127 301.765065 
L 363.373094 299.08242 
L 368.497061 296.399775 
L 373.621028 293.71713 
L 378.744995 291.034485 
L 383.868962 288.35184 
L 388.992929 285.669195 
L 394.116896 282.98655 
L 399.240863 280.303905 
L 404.36483 277.62126 
L 409.488796 274.938615 
L 414.612763 272.25597 
L 419.73673 269.573325 
L 424.860697 266.89068 
L 429.984664 264.208035 
L 435.108631 261.52539 
L 440.232598 258.842745 
L 445.356565 256.1601 
L 450.480532 253.477455 
L 455.604499 250.79481 
L 460.728466 248.112165 
L 465.852433 245.42952 
L 470.9764 242.746875 
L 476.100367 240.06423 
L 481.224334 237.381585 
L 486.348301 234.69894 
L 491.472268 232.016295 
L 496.596235 229.33365 
L 501.720201 226.651005 
L 506.844168 223.96836 
L 511.968135 221.285715 
L 517.092102 218.60307 
L 522.216069 215.920425 
L 527.340036 213.23778 
L 532.464003 210.555135 
L 537.58797 207.87249 
L 542.711937 205.189845 
L 547.835904 202.5072 
L 552.959871 199.824555 
L 558.083838 197.14191 
L 563.207805 194.459265 
L 568.331772 191.77662 
L 573.455739 189.093975 
" clip-path="url(#pa12ee82ffa)" style="fill: none; stroke: #000000; stroke-width: 2; stroke-linecap: square"/>
   </g>
   <g id="patch_3">
    <path d="M 40.819375 491.277 
L 40.819375 47.757 
" style="fill: none; stroke: #000000; stroke-width: 0.8; stroke-linejoin: miter; stroke-linecap: square"/>
   </g>
   <g id="patch_4">
    <path d="M 40.819375 491.277 
L 598.819375 491.277 
" style="fill: none; stroke: #000000; stroke-width: 0.8; stroke-linejoin: miter; stroke-linecap: square"/>
   </g>
   <g id="text_16">
    <text style="font-size: 9px; font-family: 'Helvetica', 'Arial', 'DejaVu Sans', 'Bitstream Vera Sans', 'Computer Modern Sans Serif', 'Lucida Grande', 'Verdana', 'Geneva', 'Lucid', 'Avant Garde', sans-serif; text-anchor: start" x="71.183011" y="332.480685" transform="rotate(-0 71.183011 332.480685)">A</text>
   </g>
   <g id="text_17">
    <text style="font-size: 9px; font-family: 'Helvetica', 'Arial', 'DejaVu Sans', 'Bitstream Vera Sans', 'Computer Modern Sans Serif', 'Lucida Grande', 'Verdana', 'Geneva', 'Lucid', 'Avant Garde', sans-serif; text-anchor: start" x="158.129152" y="347.454062" transform="rotate(-0 158.129152 347.454062)">AL</text>
   </g>
   <g id="text_18">
    <text style="font-size: 9px; font-family: 'Helvetica', 'Arial', 'DejaVu Sans', 'Bitstream Vera Sans', 'Computer Modern Sans Serif', 'Lucida Grande', 'Verdana', 'Geneva', 'Lucid', 'Avant Garde', sans-serif; text-anchor: start" x="332.128516" y="372.895931" transform="rotate(-0 332.128516 372.895931)">AM</text>
   </g>
   <g id="text_19">
    <text style="font-size: 9px; font-family: 'Helvetica', 'Arial', 'DejaVu Sans', 'Bitstream Vera Sans', 'Computer Modern Sans Serif', 'Lucida Grande', 'Verdana', 'Geneva', 'Lucid', 'Avant Garde', sans-serif; text-anchor: start" x="578.455739" y="62.917" transform="rotate(-0 578.455739 62.917)">LM</text>
   </g>
   <g id="text_20">
    <text style="font-size: 9px; font-family: 'Helvetica', 'Arial', 'DejaVu Sans', 'Bitstream Vera Sans', 'Computer Modern Sans Serif', 'Lucida Grande', 'Verdana', 'Geneva', 'Lucid', 'Avant Garde', sans-serif; text-anchor: start" x="236.587768" y="438.263945" transform="rotate(-0 236.587768 438.263945)">LI</text>
   </g>
   <g id="text_21">
    <text style="font-size: 9px; font-family: 'Helvetica', 'Arial', 'DejaVu Sans', 'Bitstream Vera Sans', 'Computer Modern Sans Serif', 'Lucida Grande', 'Verdana', 'Geneva', 'Lucid', 'Avant Garde', sans-serif; text-anchor: start" x="354.143934" y="330.721635" transform="rotate(-0 354.143934 330.721635)">PM</text>
   </g>
   <g id="text_22">
    <text style="font-size: 9px; font-family: 'Helvetica', 'Arial', 'DejaVu Sans', 'Bitstream Vera Sans', 'Computer Modern Sans Serif', 'Lucida Grande', 'Verdana', 'Geneva', 'Lucid', 'Avant Garde', sans-serif; text-anchor: start" x="195.343895" y="466.117" transform="rotate(-0 195.343895 466.117)">POR</text>
   </g>
   <g id="text_23">
    <text style="font-size: 9px; font-family: 'Helvetica', 'Arial', 'DejaVu Sans', 'Bitstream Vera Sans', 'Computer Modern Sans Serif', 'Lucida Grande', 'Verdana', 'Geneva', 'Lucid', 'Avant Garde', sans-serif; text-anchor: start" x="475.461054" y="287.431844" transform="rotate(-0 475.461054 287.431844)">RL</text>
   </g>
   <g id="text_24">
    <text style="font-size: 12px; font-family: 'Helvetica', 'Arial', 'DejaVu Sans', 'Bitstream Vera Sans', 'Computer Modern Sans Serif', 'Lucida Grande', 'Verdana', 'Geneva', 'Lucid', 'Avant Garde', sans-serif" transform="translate(271.130313 15.83625)">adult - All Regions</text>
    <text style="font-size: 12px; font-family: 'Helvetica', 'Arial', 'DejaVu Sans', 'Bitstream Vera Sans', 'Computer Modern Sans Serif', 'Lucida Grande', 'Verdana', 'Geneva', 'Lucid', 'Avant Garde', sans-serif" transform="translate(259.793125 28.85475)">Imputed Data Analysis</text>
    <text style="font-size: 12px; font-family: 'Helvetica', 'Arial', 'DejaVu Sans', 'Bitstream Vera Sans', 'Computer Modern Sans Serif', 'Lucida Grande', 'Verdana', 'Geneva', 'Lucid', 'Avant Garde', sans-serif" transform="translate(260.116563 41.757)">r = 0.7202, r² = 0.5187</text>
   </g>
  </g>
 </g>
 <defs>
  <clipPath id="pa12ee82ffa">
   <rect x="40.819375" y="47.757" width="558" height="443.52"/>
  </clipPath>
 </defs>
</svg>
