<?xml version="1.0" encoding="utf-8" standalone="no"?>
<!DOCTYPE svg PUBLIC "-//W3C//DTD SVG 1.1//EN"
  "http://www.w3.org/Graphics/SVG/1.1/DTD/svg11.dtd">
<svg xmlns:xlink="http://www.w3.org/1999/xlink" width="606.019375pt" height="530.110437pt" viewBox="0 0 606.019375 530.110437" xmlns="http://www.w3.org/2000/svg" version="1.1">
 <metadata>
  <rdf:RDF xmlns:dc="http://purl.org/dc/elements/1.1/" xmlns:cc="http://creativecommons.org/ns#" xmlns:rdf="http://www.w3.org/1999/02/22-rdf-syntax-ns#">
   <cc:Work>
    <dc:type rdf:resource="http://purl.org/dc/dcmitype/StillImage"/>
    <dc:date>2026-02-24T12:29:58.516257</dc:date>
    <dc:format>image/svg+xml</dc:format>
    <dc:creator>
     <cc:Agent>
      <dc:title>Matplotlib v3.10.5, https://matplotlib.org/</dc:title>
     </cc:Agent>
    </dc:creator>
   </cc:Work>
  </rdf:RDF>
 </metadata>
 <defs>
  <style type="text/css">*{stroke-linejoin: round; stroke-linecap: butt}</style>
 </defs>
 <g id="figure_1">
  <g id="patch_1">
   <path d="M 0 530.110437 
L 606.019375 530.110437 
L 606.019375 0 
L 0 0 
z
" style="fill: #ffffff"/>
  </g>
  <g id="axes_1">
   <g id="patch_2">
    <path d="M 40.819375 491.248875 
L 598.819375 491.248875 
L 598.819375 47.728875 
L 40.819375 47.728875 
z
" style="fill: #ffffff"/>
   </g>
   <g id="PathCollection_1">
    <defs>
     <path id="C0_0_0976ecdbfc" d="M 0 5 
C 1.326016 5 2.597899 4.473168 3.535534 3.535534 
C 4.473168 2.597899 5 1.326016 5 -0 
C 5 -1.326016 4.473168 -2.597899 3.535534 -3.535534 
C 2.597899 -4.473168 1.326016 -5 0 -5 
C -1.326016 -5 -2.597899 -4.473168 -3.535534 -3.535534 
C -4.473168 -2.597899 -5 -1.326016 -5 0 
C -5 1.326016 -4.473168 2.597899 -3.535534 3.535534 
C -2.597899 4.473168 -1.326016 5 0 5 
z
"/>
    </defs>
    <g clip-path="url(#p536e040c91)">
     <use xlink:href="#C0_0_0976ecdbfc" x="66.183011" y="385.347325" style="fill: #00008b"/>
    </g>
    <g clip-path="url(#p536e040c91)">
     <use xlink:href="#C0_0_0976ecdbfc" x="201.241593" y="425.721375" style="fill: #00008b"/>
    </g>
    <g clip-path="url(#p536e040c91)">
     <use xlink:href="#C0_0_0976ecdbfc" x="173.594486" y="378.727409" style="fill: #00008b"/>
    </g>
    <g clip-path="url(#p536e040c91)">
     <use xlink:href="#C0_0_0976ecdbfc" x="573.455739" y="389.165553" style="fill: #00008b"/>
    </g>
    <g clip-path="url(#p536e040c91)">
     <use xlink:href="#C0_0_0976ecdbfc" x="324.758456" y="471.088875" style="fill: #00008b"/>
    </g>
    <g clip-path="url(#p536e040c91)">
     <use xlink:href="#C0_0_0976ecdbfc" x="240.760949" y="67.888875" style="fill: #00008b"/>
    </g>
    <g clip-path="url(#p536e040c91)">
     <use xlink:href="#C0_0_0976ecdbfc" x="163.45878" y="466.330965" style="fill: #00008b"/>
    </g>
    <g clip-path="url(#p536e040c91)">
     <use xlink:href="#C0_0_0976ecdbfc" x="181.987778" y="459.901961" style="fill: #00008b"/>
    </g>
   </g>
   <g id="matplotlib.axis_1">
    <g id="xtick_1">
     <g id="line2d_1">
      <defs>
       <path id="mb57b69bc30" d="M 0 0 
L 0 3.5 
" style="stroke: #000000; stroke-width: 0.8"/>
      </defs>
      <g>
       <use xlink:href="#mb57b69bc30" x="116.76423" y="491.248875" style="stroke: #000000; stroke-width: 0.8"/>
      </g>
     </g>
     <g id="text_1">
      <text style="font-size: 10px; font-family: 'Helvetica', 'Arial', 'DejaVu Sans', 'Bitstream Vera Sans', 'Computer Modern Sans Serif', 'Lucida Grande', 'Verdana', 'Geneva', 'Lucid', 'Avant Garde', sans-serif; text-anchor: middle" x="116.76423" y="505.422312" transform="rotate(-0 116.76423 505.422312)">2</text>
     </g>
    </g>
    <g id="xtick_2">
     <g id="line2d_2">
      <g>
       <use xlink:href="#mb57b69bc30" x="200.655195" y="491.248875" style="stroke: #000000; stroke-width: 0.8"/>
      </g>
     </g>
     <g id="text_2">
      <text style="font-size: 10px; font-family: 'Helvetica', 'Arial', 'DejaVu Sans', 'Bitstream Vera Sans', 'Computer Modern Sans Serif', 'Lucida Grande', 'Verdana', 'Geneva', 'Lucid', 'Avant Garde', sans-serif; text-anchor: middle" x="200.655195" y="505.422312" transform="rotate(-0 200.655195 505.422312)">4</text>
     </g>
    </g>
    <g id="xtick_3">
     <g id="line2d_3">
      <g>
       <use xlink:href="#mb57b69bc30" x="284.54616" y="491.248875" style="stroke: #000000; stroke-width: 0.8"/>
      </g>
     </g>
     <g id="text_3">
      <text style="font-size: 10px; font-family: 'Helvetica', 'Arial', 'DejaVu Sans', 'Bitstream Vera Sans', 'Computer Modern Sans Serif', 'Lucida Grande', 'Verdana', 'Geneva', 'Lucid', 'Avant Garde', sans-serif; text-anchor: middle" x="284.54616" y="505.422312" transform="rotate(-0 284.54616 505.422312)">6</text>
     </g>
    </g>
    <g id="xtick_4">
     <g id="line2d_4">
      <g>
       <use xlink:href="#mb57b69bc30" x="368.437126" y="491.248875" style="stroke: #000000; stroke-width: 0.8"/>
      </g>
     </g>
     <g id="text_4">
      <text style="font-size: 10px; font-family: 'Helvetica', 'Arial', 'DejaVu Sans', 'Bitstream Vera Sans', 'Computer Modern Sans Serif', 'Lucida Grande', 'Verdana', 'Geneva', 'Lucid', 'Avant Garde', sans-serif; text-anchor: middle" x="368.437126" y="505.422312" transform="rotate(-0 368.437126 505.422312)">8</text>
     </g>
    </g>
    <g id="xtick_5">
     <g id="line2d_5">
      <g>
       <use xlink:href="#mb57b69bc30" x="452.328091" y="491.248875" style="stroke: #000000; stroke-width: 0.8"/>
      </g>
     </g>
     <g id="text_5">
      <text style="font-size: 10px; font-family: 'Helvetica', 'Arial', 'DejaVu Sans', 'Bitstream Vera Sans', 'Computer Modern Sans Serif', 'Lucida Grande', 'Verdana', 'Geneva', 'Lucid', 'Avant Garde', sans-serif; text-anchor: middle" x="452.328091" y="505.422312" transform="rotate(-0 452.328091 505.422312)">10</text>
     </g>
    </g>
    <g id="xtick_6">
     <g id="line2d_6">
      <g>
       <use xlink:href="#mb57b69bc30" x="536.219056" y="491.248875" style="stroke: #000000; stroke-width: 0.8"/>
      </g>
     </g>
     <g id="text_6">
      <text style="font-size: 10px; font-family: 'Helvetica', 'Arial', 'DejaVu Sans', 'Bitstream Vera Sans', 'Computer Modern Sans Serif', 'Lucida Grande', 'Verdana', 'Geneva', 'Lucid', 'Avant Garde', sans-serif; text-anchor: middle" x="536.219056" y="505.422312" transform="rotate(-0 536.219056 505.422312)">12</text>
     </g>
    </g>
    <g id="text_7">
     <text style="font-size: 12px; font-family: 'Helvetica', 'Arial', 'DejaVu Sans', 'Bitstream Vera Sans', 'Computer Modern Sans Serif', 'Lucida Grande', 'Verdana', 'Geneva', 'Lucid', 'Avant Garde', sans-serif; text-anchor: middle" x="319.819375" y="520.255437" transform="rotate(-0 319.819375 520.255437)">H2B Intensity (Averaged)</text>
    </g>
   </g>
   <g id="matplotlib.axis_2">
    <g id="ytick_1">
     <g id="line2d_7">
      <defs>
       <path id="mdcd498bd28" d="M 0 0 
L -3.5 0 
" style="stroke: #000000; stroke-width: 0.8"/>
      </defs>
      <g>
       <use xlink:href="#mdcd498bd28" x="40.819375" y="475.497194" style="stroke: #000000; stroke-width: 0.8"/>
      </g>
     </g>
     <g id="text_8">
      <text style="font-size: 10px; font-family: 'Helvetica', 'Arial', 'DejaVu Sans', 'Bitstream Vera Sans', 'Computer Modern Sans Serif', 'Lucida Grande', 'Verdana', 'Geneva', 'Lucid', 'Avant Garde', sans-serif; text-anchor: end" x="33.819375" y="479.083912" transform="rotate(-0 33.819375 479.083912)">0</text>
     </g>
    </g>
    <g id="ytick_2">
     <g id="line2d_8">
      <g>
       <use xlink:href="#mdcd498bd28" x="40.819375" y="413.51296" style="stroke: #000000; stroke-width: 0.8"/>
      </g>
     </g>
     <g id="text_9">
      <text style="font-size: 10px; font-family: 'Helvetica', 'Arial', 'DejaVu Sans', 'Bitstream Vera Sans', 'Computer Modern Sans Serif', 'Lucida Grande', 'Verdana', 'Geneva', 'Lucid', 'Avant Garde', sans-serif; text-anchor: end" x="33.819375" y="417.099679" transform="rotate(-0 33.819375 417.099679)">5</text>
     </g>
    </g>
    <g id="ytick_3">
     <g id="line2d_9">
      <g>
       <use xlink:href="#mdcd498bd28" x="40.819375" y="351.528727" style="stroke: #000000; stroke-width: 0.8"/>
      </g>
     </g>
     <g id="text_10">
      <text style="font-size: 10px; font-family: 'Helvetica', 'Arial', 'DejaVu Sans', 'Bitstream Vera Sans', 'Computer Modern Sans Serif', 'Lucida Grande', 'Verdana', 'Geneva', 'Lucid', 'Avant Garde', sans-serif; text-anchor: end" x="33.819375" y="355.115446" transform="rotate(-0 33.819375 355.115446)">10</text>
     </g>
    </g>
    <g id="ytick_4">
     <g id="line2d_10">
      <g>
       <use xlink:href="#mdcd498bd28" x="40.819375" y="289.544494" style="stroke: #000000; stroke-width: 0.8"/>
      </g>
     </g>
     <g id="text_11">
      <text style="font-size: 10px; font-family: 'Helvetica', 'Arial', 'DejaVu Sans', 'Bitstream Vera Sans', 'Computer Modern Sans Serif', 'Lucida Grande', 'Verdana', 'Geneva', 'Lucid', 'Avant Garde', sans-serif; text-anchor: end" x="33.819375" y="293.131212" transform="rotate(-0 33.819375 293.131212)">15</text>
     </g>
    </g>
    <g id="ytick_5">
     <g id="line2d_11">
      <g>
       <use xlink:href="#mdcd498bd28" x="40.819375" y="227.56026" style="stroke: #000000; stroke-width: 0.8"/>
      </g>
     </g>
     <g id="text_12">
      <text style="font-size: 10px; font-family: 'Helvetica', 'Arial', 'DejaVu Sans', 'Bitstream Vera Sans', 'Computer Modern Sans Serif', 'Lucida Grande', 'Verdana', 'Geneva', 'Lucid', 'Avant Garde', sans-serif; text-anchor: end" x="33.819375" y="231.146979" transform="rotate(-0 33.819375 231.146979)">20</text>
     </g>
    </g>
    <g id="ytick_6">
     <g id="line2d_12">
      <g>
       <use xlink:href="#mdcd498bd28" x="40.819375" y="165.576027" style="stroke: #000000; stroke-width: 0.8"/>
      </g>
     </g>
     <g id="text_13">
      <text style="font-size: 10px; font-family: 'Helvetica', 'Arial', 'DejaVu Sans', 'Bitstream Vera Sans', 'Computer Modern Sans Serif', 'Lucida Grande', 'Verdana', 'Geneva', 'Lucid', 'Avant Garde', sans-serif; text-anchor: end" x="33.819375" y="169.162746" transform="rotate(-0 33.819375 169.162746)">25</text>
     </g>
    </g>
    <g id="ytick_7">
     <g id="line2d_13">
      <g>
       <use xlink:href="#mdcd498bd28" x="40.819375" y="103.591793" style="stroke: #000000; stroke-width: 0.8"/>
      </g>
     </g>
     <g id="text_14">
      <text style="font-size: 10px; font-family: 'Helvetica', 'Arial', 'DejaVu Sans', 'Bitstream Vera Sans', 'Computer Modern Sans Serif', 'Lucida Grande', 'Verdana', 'Geneva', 'Lucid', 'Avant Garde', sans-serif; text-anchor: end" x="33.819375" y="107.178512" transform="rotate(-0 33.819375 107.178512)">30</text>
     </g>
    </g>
    <g id="text_15">
     <text style="font-size: 12px; font-family: 'Helvetica', 'Arial', 'DejaVu Sans', 'Bitstream Vera Sans', 'Computer Modern Sans Serif', 'Lucida Grande', 'Verdana', 'Geneva', 'Lucid', 'Avant Garde', sans-serif; text-anchor: middle" x="16.0425" y="269.488875" transform="rotate(-90 16.0425 269.488875)">VSV Intensity (Averaged)</text>
    </g>
   </g>
   <g id="line2d_14">
    <path d="M 66.183011 384.063972 
L 71.306978 383.959951 
L 76.430945 383.855931 
L 81.554912 383.75191 
L 86.678879 383.64789 
L 91.802846 383.543869 
L 96.926813 383.439848 
L 102.05078 383.335828 
L 107.174747 383.231807 
L 112.298714 383.127787 
L 117.422681 383.023766 
L 122.546648 382.919745 
L 127.670615 382.815725 
L 132.794582 382.711704 
L 137.918549 382.607683 
L 143.042515 382.503663 
L 148.166482 382.399642 
L 153.290449 382.295622 
L 158.414416 382.191601 
L 163.538383 382.08758 
L 168.66235 381.98356 
L 173.786317 381.879539 
L 178.910284 381.775519 
L 184.034251 381.671498 
L 189.158218 381.567477 
L 194.282185 381.463457 
L 199.406152 381.359436 
L 204.530119 381.255416 
L 209.654086 381.151395 
L 214.778053 381.047374 
L 219.90202 380.943354 
L 225.025987 380.839333 
L 230.149954 380.735313 
L 235.27392 380.631292 
L 240.397887 380.527271 
L 245.521854 380.423251 
L 250.645821 380.31923 
L 255.769788 380.215209 
L 260.893755 380.111189 
L 266.017722 380.007168 
L 271.141689 379.903148 
L 276.265656 379.799127 
L 281.389623 379.695106 
L 286.51359 379.591086 
L 291.637557 379.487065 
L 296.761524 379.383045 
L 301.885491 379.279024 
L 307.009458 379.175003 
L 312.133425 379.070983 
L 317.257392 378.966962 
L 322.381358 378.862942 
L 327.505325 378.758921 
L 332.629292 378.6549 
L 337.753259 378.55088 
L 342.877226 378.446859 
L 348.001193 378.342838 
L 353.12516 378.238818 
L 358.249127 378.134797 
L 363.373094 378.030777 
L 368.497061 377.926756 
L 373.621028 377.822735 
L 378.744995 377.718715 
L 383.868962 377.614694 
L 388.992929 377.510674 
L 394.116896 377.406653 
L 399.240863 377.302632 
L 404.36483 377.198612 
L 409.488796 377.094591 
L 414.612763 376.990571 
L 419.73673 376.88655 
L 424.860697 376.782529 
L 429.984664 376.678509 
L 435.108631 376.574488 
L 440.232598 376.470467 
L 445.356565 376.366447 
L 450.480532 376.262426 
L 455.604499 376.158406 
L 460.728466 376.054385 
L 465.852433 375.950364 
L 470.9764 375.846344 
L 476.100367 375.742323 
L 481.224334 375.638303 
L 486.348301 375.534282 
L 491.472268 375.430261 
L 496.596235 375.326241 
L 501.720201 375.22222 
L 506.844168 375.1182 
L 511.968135 375.014179 
L 517.092102 374.910158 
L 522.216069 374.806138 
L 527.340036 374.702117 
L 532.464003 374.598097 
L 537.58797 374.494076 
L 542.711937 374.390055 
L 547.835904 374.286035 
L 552.959871 374.182014 
L 558.083838 374.077993 
L 563.207805 373.973973 
L 568.331772 373.869952 
L 573.455739 373.765932 
" clip-path="url(#p536e040c91)" style="fill: none; stroke: #000000; stroke-width: 2; stroke-linecap: square"/>
   </g>
   <g id="patch_3">
    <path d="M 40.819375 491.248875 
L 40.819375 47.728875 
" style="fill: none; stroke: #000000; stroke-width: 0.8; stroke-linejoin: miter; stroke-linecap: square"/>
   </g>
   <g id="patch_4">
    <path d="M 40.819375 491.248875 
L 598.819375 491.248875 
" style="fill: none; stroke: #000000; stroke-width: 0.8; stroke-linejoin: miter; stroke-linecap: square"/>
   </g>
   <g id="text_16">
    <text style="font-size: 9px; font-family: 'Helvetica', 'Arial', 'DejaVu Sans', 'Bitstream Vera Sans', 'Computer Modern Sans Serif', 'Lucida Grande', 'Verdana', 'Geneva', 'Lucid', 'Avant Garde', sans-serif; text-anchor: start" x="71.183011" y="380.347325" transform="rotate(-0 71.183011 380.347325)">A</text>
   </g>
   <g id="text_17">
    <text style="font-size: 9px; font-family: 'Helvetica', 'Arial', 'DejaVu Sans', 'Bitstream Vera Sans', 'Computer Modern Sans Serif', 'Lucida Grande', 'Verdana', 'Geneva', 'Lucid', 'Avant Garde', sans-serif; text-anchor: start" x="206.241593" y="420.721375" transform="rotate(-0 206.241593 420.721375)">AL</text>
   </g>
   <g id="text_18">
    <text style="font-size: 9px; font-family: 'Helvetica', 'Arial', 'DejaVu Sans', 'Bitstream Vera Sans', 'Computer Modern Sans Serif', 'Lucida Grande', 'Verdana', 'Geneva', 'Lucid', 'Avant Garde', sans-serif; text-anchor: start" x="178.594486" y="373.727409" transform="rotate(-0 178.594486 373.727409)">AM</text>
   </g>
   <g id="text_19">
    <text style="font-size: 9px; font-family: 'Helvetica', 'Arial', 'DejaVu Sans', 'Bitstream Vera Sans', 'Computer Modern Sans Serif', 'Lucida Grande', 'Verdana', 'Geneva', 'Lucid', 'Avant Garde', sans-serif; text-anchor: start" x="578.455739" y="384.165553" transform="rotate(-0 578.455739 384.165553)">LM</text>
   </g>
   <g id="text_20">
    <text style="font-size: 9px; font-family: 'Helvetica', 'Arial', 'DejaVu Sans', 'Bitstream Vera Sans', 'Computer Modern Sans Serif', 'Lucida Grande', 'Verdana', 'Geneva', 'Lucid', 'Avant Garde', sans-serif; text-anchor: start" x="329.758456" y="466.088875" transform="rotate(-0 329.758456 466.088875)">LI</text>
   </g>
   <g id="text_21">
    <text style="font-size: 9px; font-family: 'Helvetica', 'Arial', 'DejaVu Sans', 'Bitstream Vera Sans', 'Computer Modern Sans Serif', 'Lucida Grande', 'Verdana', 'Geneva', 'Lucid', 'Avant Garde', sans-serif; text-anchor: start" x="245.760949" y="62.888875" transform="rotate(-0 245.760949 62.888875)">PM</text>
   </g>
   <g id="text_22">
    <text style="font-size: 9px; font-family: 'Helvetica', 'Arial', 'DejaVu Sans', 'Bitstream Vera Sans', 'Computer Modern Sans Serif', 'Lucida Grande', 'Verdana', 'Geneva', 'Lucid', 'Avant Garde', sans-serif; text-anchor: start" x="168.45878" y="461.330965" transform="rotate(-0 168.45878 461.330965)">POR</text>
   </g>
   <g id="text_23">
    <text style="font-size: 9px; font-family: 'Helvetica', 'Arial', 'DejaVu Sans', 'Bitstream Vera Sans', 'Computer Modern Sans Serif', 'Lucida Grande', 'Verdana', 'Geneva', 'Lucid', 'Avant Garde', sans-serif; text-anchor: start" x="186.987778" y="454.901961" transform="rotate(-0 186.987778 454.901961)">RL</text>
   </g>
   <g id="text_24">
    <text style="font-size: 12px; font-family: 'Helvetica', 'Arial', 'DejaVu Sans', 'Bitstream Vera Sans', 'Computer Modern Sans Serif', 'Lucida Grande', 'Verdana', 'Geneva', 'Lucid', 'Avant Garde', sans-serif" transform="translate(277.466875 15.808125)">p3 - All Regions</text>
    <text style="font-size: 12px; font-family: 'Helvetica', 'Arial', 'DejaVu Sans', 'Bitstream Vera Sans', 'Computer Modern Sans Serif', 'Lucida Grande', 'Verdana', 'Geneva', 'Lucid', 'Avant Garde', sans-serif" transform="translate(259.793125 28.826625)">Imputed Data Analysis</text>
    <text style="font-size: 12px; font-family: 'Helvetica', 'Arial', 'DejaVu Sans', 'Bitstream Vera Sans', 'Computer Modern Sans Serif', 'Lucida Grande', 'Verdana', 'Geneva', 'Lucid', 'Avant Garde', sans-serif" transform="translate(260.116563 41.728875)">r = 0.0235, r² = 0.0006</text>
   </g>
  </g>
 </g>
 <defs>
  <clipPath id="p536e040c91">
   <rect x="40.819375" y="47.728875" width="558" height="443.52"/>
  </clipPath>
 </defs>
</svg>
