<?xml version="1.0" encoding="utf-8" standalone="no"?>
<!DOCTYPE svg PUBLIC "-//W3C//DTD SVG 1.1//EN"
  "http://www.w3.org/Graphics/SVG/1.1/DTD/svg11.dtd">
<svg xmlns:xlink="http://www.w3.org/1999/xlink" width="614.555625pt" height="530.162937pt" viewBox="0 0 614.555625 530.162937" xmlns="http://www.w3.org/2000/svg" version="1.1">
 <metadata>
  <rdf:RDF xmlns:dc="http://purl.org/dc/elements/1.1/" xmlns:cc="http://creativecommons.org/ns#" xmlns:rdf="http://www.w3.org/1999/02/22-rdf-syntax-ns#">
   <cc:Work>
    <dc:type rdf:resource="http://purl.org/dc/dcmitype/StillImage"/>
    <dc:date>2026-02-24T12:29:52.096940</dc:date>
    <dc:format>image/svg+xml</dc:format>
    <dc:creator>
     <cc:Agent>
      <dc:title>Matplotlib v3.10.5, https://matplotlib.org/</dc:title>
     </cc:Agent>
    </dc:creator>
   </cc:Work>
  </rdf:RDF>
 </metadata>
 <defs>
  <style type="text/css">*{stroke-linejoin: round; stroke-linecap: butt}</style>
 </defs>
 <g id="figure_1">
  <g id="patch_1">
   <path d="M 0 530.162937 
L 614.555625 530.162937 
L 614.555625 0 
L 0 0 
z
" style="fill: #ffffff"/>
  </g>
  <g id="axes_1">
   <g id="patch_2">
    <path d="M 49.355625 491.383875 
L 607.355625 491.383875 
L 607.355625 47.863875 
L 49.355625 47.863875 
z
" style="fill: #ffffff"/>
   </g>
   <g id="PathCollection_1">
    <defs>
     <path id="C0_0_16ba9c9c5e" d="M 0 5 
C 1.326016 5 2.597899 4.473168 3.535534 3.535534 
C 4.473168 2.597899 5 1.326016 5 -0 
C 5 -1.326016 4.473168 -2.597899 3.535534 -3.535534 
C 2.597899 -4.473168 1.326016 -5 0 -5 
C -1.326016 -5 -2.597899 -4.473168 -3.535534 -3.535534 
C -4.473168 -2.597899 -5 -1.326016 -5 0 
C -5 1.326016 -4.473168 2.597899 -3.535534 3.535534 
C -2.597899 4.473168 -1.326016 5 0 5 
z
"/>
    </defs>
    <g clip-path="url(#p62e5c9edd2)">
     <use xlink:href="#C0_0_16ba9c9c5e" x="74.719261" y="269.623875" style="fill: #00008b"/>
    </g>
    <g clip-path="url(#p62e5c9edd2)">
     <use xlink:href="#C0_0_16ba9c9c5e" x="74.719261" y="269.623875" style="fill: #00008b"/>
    </g>
    <g clip-path="url(#p62e5c9edd2)">
     <use xlink:href="#C0_0_16ba9c9c5e" x="74.719261" y="471.223875" style="fill: #00008b"/>
    </g>
    <g clip-path="url(#p62e5c9edd2)">
     <use xlink:href="#C0_0_16ba9c9c5e" x="74.719261" y="269.623875" style="fill: #00008b"/>
    </g>
    <g clip-path="url(#p62e5c9edd2)">
     <use xlink:href="#C0_0_16ba9c9c5e" x="74.719261" y="269.623875" style="fill: #00008b"/>
    </g>
    <g clip-path="url(#p62e5c9edd2)">
     <use xlink:href="#C0_0_16ba9c9c5e" x="74.719261" y="269.623875" style="fill: #00008b"/>
    </g>
    <g clip-path="url(#p62e5c9edd2)">
     <use xlink:href="#C0_0_16ba9c9c5e" x="581.991989" y="269.623875" style="fill: #00008b"/>
    </g>
    <g clip-path="url(#p62e5c9edd2)">
     <use xlink:href="#C0_0_16ba9c9c5e" x="74.719261" y="68.023875" style="fill: #00008b"/>
    </g>
   </g>
   <g id="matplotlib.axis_1">
    <g id="xtick_1">
     <g id="line2d_1">
      <defs>
       <path id="mcbd1d8b294" d="M 0 0 
L 0 3.5 
" style="stroke: #000000; stroke-width: 0.8"/>
      </defs>
      <g>
       <use xlink:href="#mcbd1d8b294" x="74.719261" y="491.383875" style="stroke: #000000; stroke-width: 0.8"/>
      </g>
     </g>
     <g id="text_1">
      <text style="font-size: 10px; font-family: 'Helvetica', 'Arial', 'DejaVu Sans', 'Bitstream Vera Sans', 'Computer Modern Sans Serif', 'Lucida Grande', 'Verdana', 'Geneva', 'Lucid', 'Avant Garde', sans-serif; text-anchor: middle" x="74.719261" y="505.557312" transform="rotate(-0 74.719261 505.557312)">0</text>
     </g>
    </g>
    <g id="xtick_2">
     <g id="line2d_2">
      <g>
       <use xlink:href="#mcbd1d8b294" x="178.282796" y="491.383875" style="stroke: #000000; stroke-width: 0.8"/>
      </g>
     </g>
     <g id="text_2">
      <text style="font-size: 10px; font-family: 'Helvetica', 'Arial', 'DejaVu Sans', 'Bitstream Vera Sans', 'Computer Modern Sans Serif', 'Lucida Grande', 'Verdana', 'Geneva', 'Lucid', 'Avant Garde', sans-serif; text-anchor: middle" x="178.282796" y="505.557312" transform="rotate(-0 178.282796 505.557312)">1</text>
     </g>
    </g>
    <g id="xtick_3">
     <g id="line2d_3">
      <g>
       <use xlink:href="#mcbd1d8b294" x="281.846331" y="491.383875" style="stroke: #000000; stroke-width: 0.8"/>
      </g>
     </g>
     <g id="text_3">
      <text style="font-size: 10px; font-family: 'Helvetica', 'Arial', 'DejaVu Sans', 'Bitstream Vera Sans', 'Computer Modern Sans Serif', 'Lucida Grande', 'Verdana', 'Geneva', 'Lucid', 'Avant Garde', sans-serif; text-anchor: middle" x="281.846331" y="505.557312" transform="rotate(-0 281.846331 505.557312)">2</text>
     </g>
    </g>
    <g id="xtick_4">
     <g id="line2d_4">
      <g>
       <use xlink:href="#mcbd1d8b294" x="385.409865" y="491.383875" style="stroke: #000000; stroke-width: 0.8"/>
      </g>
     </g>
     <g id="text_4">
      <text style="font-size: 10px; font-family: 'Helvetica', 'Arial', 'DejaVu Sans', 'Bitstream Vera Sans', 'Computer Modern Sans Serif', 'Lucida Grande', 'Verdana', 'Geneva', 'Lucid', 'Avant Garde', sans-serif; text-anchor: middle" x="385.409865" y="505.557312" transform="rotate(-0 385.409865 505.557312)">3</text>
     </g>
    </g>
    <g id="xtick_5">
     <g id="line2d_5">
      <g>
       <use xlink:href="#mcbd1d8b294" x="488.9734" y="491.383875" style="stroke: #000000; stroke-width: 0.8"/>
      </g>
     </g>
     <g id="text_5">
      <text style="font-size: 10px; font-family: 'Helvetica', 'Arial', 'DejaVu Sans', 'Bitstream Vera Sans', 'Computer Modern Sans Serif', 'Lucida Grande', 'Verdana', 'Geneva', 'Lucid', 'Avant Garde', sans-serif; text-anchor: middle" x="488.9734" y="505.557312" transform="rotate(-0 488.9734 505.557312)">4</text>
     </g>
    </g>
    <g id="xtick_6">
     <g id="line2d_6">
      <g>
       <use xlink:href="#mcbd1d8b294" x="592.536935" y="491.383875" style="stroke: #000000; stroke-width: 0.8"/>
      </g>
     </g>
     <g id="text_6">
      <text style="font-size: 10px; font-family: 'Helvetica', 'Arial', 'DejaVu Sans', 'Bitstream Vera Sans', 'Computer Modern Sans Serif', 'Lucida Grande', 'Verdana', 'Geneva', 'Lucid', 'Avant Garde', sans-serif; text-anchor: middle" x="592.536935" y="505.557312" transform="rotate(-0 592.536935 505.557312)">5</text>
     </g>
    </g>
    <g id="text_7">
     <text style="font-size: 12px; font-family: 'Helvetica', 'Arial', 'DejaVu Sans', 'Bitstream Vera Sans', 'Computer Modern Sans Serif', 'Lucida Grande', 'Verdana', 'Geneva', 'Lucid', 'Avant Garde', sans-serif; text-anchor: middle" x="328.355625" y="520.390437" transform="rotate(-0 328.355625 520.390437)">H2B Intensity (Robust Normalized)</text>
    </g>
   </g>
   <g id="matplotlib.axis_2">
    <g id="ytick_1">
     <g id="line2d_7">
      <defs>
       <path id="m2413e2071b" d="M 0 0 
L -3.5 0 
" style="stroke: #000000; stroke-width: 0.8"/>
      </defs>
      <g>
       <use xlink:href="#m2413e2071b" x="49.355625" y="487.526039" style="stroke: #000000; stroke-width: 0.8"/>
      </g>
     </g>
     <g id="text_8">
      <text style="font-size: 10px; font-family: 'Helvetica', 'Arial', 'DejaVu Sans', 'Bitstream Vera Sans', 'Computer Modern Sans Serif', 'Lucida Grande', 'Verdana', 'Geneva', 'Lucid', 'Avant Garde', sans-serif; text-anchor: end" x="42.355625" y="491.112758" transform="rotate(-0 42.355625 491.112758)">−1.5</text>
     </g>
    </g>
    <g id="ytick_2">
     <g id="line2d_8">
      <g>
       <use xlink:href="#m2413e2071b" x="49.355625" y="414.891985" style="stroke: #000000; stroke-width: 0.8"/>
      </g>
     </g>
     <g id="text_9">
      <text style="font-size: 10px; font-family: 'Helvetica', 'Arial', 'DejaVu Sans', 'Bitstream Vera Sans', 'Computer Modern Sans Serif', 'Lucida Grande', 'Verdana', 'Geneva', 'Lucid', 'Avant Garde', sans-serif; text-anchor: end" x="42.355625" y="418.478703" transform="rotate(-0 42.355625 418.478703)">−1.0</text>
     </g>
    </g>
    <g id="ytick_3">
     <g id="line2d_9">
      <g>
       <use xlink:href="#m2413e2071b" x="49.355625" y="342.25793" style="stroke: #000000; stroke-width: 0.8"/>
      </g>
     </g>
     <g id="text_10">
      <text style="font-size: 10px; font-family: 'Helvetica', 'Arial', 'DejaVu Sans', 'Bitstream Vera Sans', 'Computer Modern Sans Serif', 'Lucida Grande', 'Verdana', 'Geneva', 'Lucid', 'Avant Garde', sans-serif; text-anchor: end" x="42.355625" y="345.844649" transform="rotate(-0 42.355625 345.844649)">−0.5</text>
     </g>
    </g>
    <g id="ytick_4">
     <g id="line2d_10">
      <g>
       <use xlink:href="#m2413e2071b" x="49.355625" y="269.623875" style="stroke: #000000; stroke-width: 0.8"/>
      </g>
     </g>
     <g id="text_11">
      <text style="font-size: 10px; font-family: 'Helvetica', 'Arial', 'DejaVu Sans', 'Bitstream Vera Sans', 'Computer Modern Sans Serif', 'Lucida Grande', 'Verdana', 'Geneva', 'Lucid', 'Avant Garde', sans-serif; text-anchor: end" x="42.355625" y="273.210594" transform="rotate(-0 42.355625 273.210594)">0.0</text>
     </g>
    </g>
    <g id="ytick_5">
     <g id="line2d_11">
      <g>
       <use xlink:href="#m2413e2071b" x="49.355625" y="196.98982" style="stroke: #000000; stroke-width: 0.8"/>
      </g>
     </g>
     <g id="text_12">
      <text style="font-size: 10px; font-family: 'Helvetica', 'Arial', 'DejaVu Sans', 'Bitstream Vera Sans', 'Computer Modern Sans Serif', 'Lucida Grande', 'Verdana', 'Geneva', 'Lucid', 'Avant Garde', sans-serif; text-anchor: end" x="42.355625" y="200.576539" transform="rotate(-0 42.355625 200.576539)">0.5</text>
     </g>
    </g>
    <g id="ytick_6">
     <g id="line2d_12">
      <g>
       <use xlink:href="#m2413e2071b" x="49.355625" y="124.355765" style="stroke: #000000; stroke-width: 0.8"/>
      </g>
     </g>
     <g id="text_13">
      <text style="font-size: 10px; font-family: 'Helvetica', 'Arial', 'DejaVu Sans', 'Bitstream Vera Sans', 'Computer Modern Sans Serif', 'Lucida Grande', 'Verdana', 'Geneva', 'Lucid', 'Avant Garde', sans-serif; text-anchor: end" x="42.355625" y="127.942484" transform="rotate(-0 42.355625 127.942484)">1.0</text>
     </g>
    </g>
    <g id="ytick_7">
     <g id="line2d_13">
      <g>
       <use xlink:href="#m2413e2071b" x="49.355625" y="51.721711" style="stroke: #000000; stroke-width: 0.8"/>
      </g>
     </g>
     <g id="text_14">
      <text style="font-size: 10px; font-family: 'Helvetica', 'Arial', 'DejaVu Sans', 'Bitstream Vera Sans', 'Computer Modern Sans Serif', 'Lucida Grande', 'Verdana', 'Geneva', 'Lucid', 'Avant Garde', sans-serif; text-anchor: end" x="42.355625" y="55.308429" transform="rotate(-0 42.355625 55.308429)">1.5</text>
     </g>
    </g>
    <g id="text_15">
     <text style="font-size: 12px; font-family: 'Helvetica', 'Arial', 'DejaVu Sans', 'Bitstream Vera Sans', 'Computer Modern Sans Serif', 'Lucida Grande', 'Verdana', 'Geneva', 'Lucid', 'Avant Garde', sans-serif; text-anchor: middle" x="16.0425" y="269.623875" transform="rotate(-90 16.0425 269.623875)">VSV Intensity (Robust Normalized)</text>
    </g>
    <g id="text_16">
     <text style="font-size: 10px; font-family: 'Helvetica', 'Arial', 'DejaVu Sans', 'Bitstream Vera Sans', 'Computer Modern Sans Serif', 'Lucida Grande', 'Verdana', 'Geneva', 'Lucid', 'Avant Garde', sans-serif; text-anchor: start" x="49.355625" y="44.863875" transform="rotate(-0 49.355625 44.863875)">1e−16</text>
    </g>
   </g>
   <g id="line2d_14">
    <path d="M 74.719261 269.623875 
L 79.843228 269.623875 
L 84.967195 269.623875 
L 90.091162 269.623875 
L 95.215129 269.623875 
L 100.339096 269.623875 
L 105.463063 269.623875 
L 110.58703 269.623875 
L 115.710997 269.623875 
L 120.834964 269.623875 
L 125.958931 269.623875 
L 131.082898 269.623875 
L 136.206865 269.623875 
L 141.330832 269.623875 
L 146.454799 269.623875 
L 151.578765 269.623875 
L 156.702732 269.623875 
L 161.826699 269.623875 
L 166.950666 269.623875 
L 172.074633 269.623875 
L 177.1986 269.623875 
L 182.322567 269.623875 
L 187.446534 269.623875 
L 192.570501 269.623875 
L 197.694468 269.623875 
L 202.818435 269.623875 
L 207.942402 269.623875 
L 213.066369 269.623875 
L 218.190336 269.623875 
L 223.314303 269.623875 
L 228.43827 269.623875 
L 233.562237 269.623875 
L 238.686204 269.623875 
L 243.81017 269.623875 
L 248.934137 269.623875 
L 254.058104 269.623875 
L 259.182071 269.623875 
L 264.306038 269.623875 
L 269.430005 269.623875 
L 274.553972 269.623875 
L 279.677939 269.623875 
L 284.801906 269.623875 
L 289.925873 269.623875 
L 295.04984 269.623875 
L 300.173807 269.623875 
L 305.297774 269.623875 
L 310.421741 269.623875 
L 315.545708 269.623875 
L 320.669675 269.623875 
L 325.793642 269.623875 
L 330.917608 269.623875 
L 336.041575 269.623875 
L 341.165542 269.623875 
L 346.289509 269.623875 
L 351.413476 269.623875 
L 356.537443 269.623875 
L 361.66141 269.623875 
L 366.785377 269.623875 
L 371.909344 269.623875 
L 377.033311 269.623875 
L 382.157278 269.623875 
L 387.281245 269.623875 
L 392.405212 269.623875 
L 397.529179 269.623875 
L 402.653146 269.623875 
L 407.777113 269.623875 
L 412.90108 269.623875 
L 418.025046 269.623875 
L 423.149013 269.623875 
L 428.27298 269.623875 
L 433.396947 269.623875 
L 438.520914 269.623875 
L 443.644881 269.623875 
L 448.768848 269.623875 
L 453.892815 269.623875 
L 459.016782 269.623875 
L 464.140749 269.623875 
L 469.264716 269.623875 
L 474.388683 269.623875 
L 479.51265 269.623875 
L 484.636617 269.623875 
L 489.760584 269.623875 
L 494.884551 269.623875 
L 500.008518 269.623875 
L 505.132485 269.623875 
L 510.256451 269.623875 
L 515.380418 269.623875 
L 520.504385 269.623875 
L 525.628352 269.623875 
L 530.752319 269.623875 
L 535.876286 269.623875 
L 541.000253 269.623875 
L 546.12422 269.623875 
L 551.248187 269.623875 
L 556.372154 269.623875 
L 561.496121 269.623875 
L 566.620088 269.623875 
L 571.744055 269.623875 
L 576.868022 269.623875 
L 581.991989 269.623875 
" clip-path="url(#p62e5c9edd2)" style="fill: none; stroke: #000000; stroke-width: 2; stroke-linecap: square"/>
   </g>
   <g id="patch_3">
    <path d="M 49.355625 491.383875 
L 49.355625 47.863875 
" style="fill: none; stroke: #000000; stroke-width: 0.8; stroke-linejoin: miter; stroke-linecap: square"/>
   </g>
   <g id="patch_4">
    <path d="M 49.355625 491.383875 
L 607.355625 491.383875 
" style="fill: none; stroke: #000000; stroke-width: 0.8; stroke-linejoin: miter; stroke-linecap: square"/>
   </g>
   <g id="text_17">
    <text style="font-size: 9px; font-family: 'Helvetica', 'Arial', 'DejaVu Sans', 'Bitstream Vera Sans', 'Computer Modern Sans Serif', 'Lucida Grande', 'Verdana', 'Geneva', 'Lucid', 'Avant Garde', sans-serif; text-anchor: start" x="79.719261" y="264.623875" transform="rotate(-0 79.719261 264.623875)">A</text>
   </g>
   <g id="text_18">
    <text style="font-size: 9px; font-family: 'Helvetica', 'Arial', 'DejaVu Sans', 'Bitstream Vera Sans', 'Computer Modern Sans Serif', 'Lucida Grande', 'Verdana', 'Geneva', 'Lucid', 'Avant Garde', sans-serif; text-anchor: start" x="79.719261" y="264.623875" transform="rotate(-0 79.719261 264.623875)">AL</text>
   </g>
   <g id="text_19">
    <text style="font-size: 9px; font-family: 'Helvetica', 'Arial', 'DejaVu Sans', 'Bitstream Vera Sans', 'Computer Modern Sans Serif', 'Lucida Grande', 'Verdana', 'Geneva', 'Lucid', 'Avant Garde', sans-serif; text-anchor: start" x="79.719261" y="466.223875" transform="rotate(-0 79.719261 466.223875)">AM</text>
   </g>
   <g id="text_20">
    <text style="font-size: 9px; font-family: 'Helvetica', 'Arial', 'DejaVu Sans', 'Bitstream Vera Sans', 'Computer Modern Sans Serif', 'Lucida Grande', 'Verdana', 'Geneva', 'Lucid', 'Avant Garde', sans-serif; text-anchor: start" x="79.719261" y="264.623875" transform="rotate(-0 79.719261 264.623875)">LM</text>
   </g>
   <g id="text_21">
    <text style="font-size: 9px; font-family: 'Helvetica', 'Arial', 'DejaVu Sans', 'Bitstream Vera Sans', 'Computer Modern Sans Serif', 'Lucida Grande', 'Verdana', 'Geneva', 'Lucid', 'Avant Garde', sans-serif; text-anchor: start" x="79.719261" y="264.623875" transform="rotate(-0 79.719261 264.623875)">LI</text>
   </g>
   <g id="text_22">
    <text style="font-size: 9px; font-family: 'Helvetica', 'Arial', 'DejaVu Sans', 'Bitstream Vera Sans', 'Computer Modern Sans Serif', 'Lucida Grande', 'Verdana', 'Geneva', 'Lucid', 'Avant Garde', sans-serif; text-anchor: start" x="79.719261" y="264.623875" transform="rotate(-0 79.719261 264.623875)">PM</text>
   </g>
   <g id="text_23">
    <text style="font-size: 9px; font-family: 'Helvetica', 'Arial', 'DejaVu Sans', 'Bitstream Vera Sans', 'Computer Modern Sans Serif', 'Lucida Grande', 'Verdana', 'Geneva', 'Lucid', 'Avant Garde', sans-serif; text-anchor: start" x="586.991989" y="264.623875" transform="rotate(-0 586.991989 264.623875)">POR</text>
   </g>
   <g id="text_24">
    <text style="font-size: 9px; font-family: 'Helvetica', 'Arial', 'DejaVu Sans', 'Bitstream Vera Sans', 'Computer Modern Sans Serif', 'Lucida Grande', 'Verdana', 'Geneva', 'Lucid', 'Avant Garde', sans-serif; text-anchor: start" x="79.719261" y="63.023875" transform="rotate(-0 79.719261 63.023875)">RL</text>
   </g>
   <g id="text_25">
    <text style="font-size: 12px; font-family: 'Helvetica', 'Arial', 'DejaVu Sans', 'Bitstream Vera Sans', 'Computer Modern Sans Serif', 'Lucida Grande', 'Verdana', 'Geneva', 'Lucid', 'Avant Garde', sans-serif" transform="translate(282.666563 15.808125)">p20 - All Regions</text>
    <text style="font-size: 12px; font-family: 'Helvetica', 'Arial', 'DejaVu Sans', 'Bitstream Vera Sans', 'Computer Modern Sans Serif', 'Lucida Grande', 'Verdana', 'Geneva', 'Lucid', 'Avant Garde', sans-serif" transform="translate(245.9925 28.961625)">Imputed Data Analysis (robust)</text>
    <text style="font-size: 12px; font-family: 'Helvetica', 'Arial', 'DejaVu Sans', 'Bitstream Vera Sans', 'Computer Modern Sans Serif', 'Lucida Grande', 'Verdana', 'Geneva', 'Lucid', 'Avant Garde', sans-serif" transform="translate(268.652813 41.863875)">r = 0.0000, r² = 0.0000</text>
   </g>
  </g>
 </g>
 <defs>
  <clipPath id="p62e5c9edd2">
   <rect x="49.355625" y="47.863875" width="558" height="443.52"/>
  </clipPath>
 </defs>
</svg>
