<?xml version="1.0" encoding="utf-8" standalone="no"?>
<!DOCTYPE svg PUBLIC "-//W3C//DTD SVG 1.1//EN"
  "http://www.w3.org/Graphics/SVG/1.1/DTD/svg11.dtd">
<svg xmlns:xlink="http://www.w3.org/1999/xlink" width="614.555625pt" height="530.275437pt" viewBox="0 0 614.555625 530.275437" xmlns="http://www.w3.org/2000/svg" version="1.1">
 <metadata>
  <rdf:RDF xmlns:dc="http://purl.org/dc/elements/1.1/" xmlns:cc="http://creativecommons.org/ns#" xmlns:rdf="http://www.w3.org/1999/02/22-rdf-syntax-ns#">
   <cc:Work>
    <dc:type rdf:resource="http://purl.org/dc/dcmitype/StillImage"/>
    <dc:date>2026-02-24T12:30:01.559291</dc:date>
    <dc:format>image/svg+xml</dc:format>
    <dc:creator>
     <cc:Agent>
      <dc:title>Matplotlib v3.10.5, https://matplotlib.org/</dc:title>
     </cc:Agent>
    </dc:creator>
   </cc:Work>
  </rdf:RDF>
 </metadata>
 <defs>
  <style type="text/css">*{stroke-linejoin: round; stroke-linecap: butt}</style>
 </defs>
 <g id="figure_1">
  <g id="patch_1">
   <path d="M 0 530.275437 
L 614.555625 530.275437 
L 614.555625 0 
L 0 0 
z
" style="fill: #ffffff"/>
  </g>
  <g id="axes_1">
   <g id="patch_2">
    <path d="M 49.355625 491.496375 
L 607.355625 491.496375 
L 607.355625 47.976375 
L 49.355625 47.976375 
z
" style="fill: #ffffff"/>
   </g>
   <g id="PathCollection_1">
    <defs>
     <path id="C0_0_a681855ba6" d="M 0 5 
C 1.326016 5 2.597899 4.473168 3.535534 3.535534 
C 4.473168 2.597899 5 1.326016 5 -0 
C 5 -1.326016 4.473168 -2.597899 3.535534 -3.535534 
C 2.597899 -4.473168 1.326016 -5 0 -5 
C -1.326016 -5 -2.597899 -4.473168 -3.535534 -3.535534 
C -4.473168 -2.597899 -5 -1.326016 -5 0 
C -5 1.326016 -4.473168 2.597899 -3.535534 3.535534 
C -2.597899 4.473168 -1.326016 5 0 5 
z
"/>
    </defs>
    <g clip-path="url(#pcf09865f3f)">
     <use xlink:href="#C0_0_a681855ba6" x="581.991989" y="79.633297" style="fill: #00008b"/>
    </g>
    <g clip-path="url(#pcf09865f3f)">
     <use xlink:href="#C0_0_a681855ba6" x="110.953028" y="471.336375" style="fill: #00008b"/>
    </g>
    <g clip-path="url(#pcf09865f3f)">
     <use xlink:href="#C0_0_a681855ba6" x="74.719261" y="275.484836" style="fill: #00008b"/>
    </g>
    <g clip-path="url(#pcf09865f3f)">
     <use xlink:href="#C0_0_a681855ba6" x="110.953028" y="79.633297" style="fill: #00008b"/>
    </g>
    <g clip-path="url(#pcf09865f3f)">
     <use xlink:href="#C0_0_a681855ba6" x="110.953028" y="79.633297" style="fill: #00008b"/>
    </g>
    <g clip-path="url(#pcf09865f3f)">
     <use xlink:href="#C0_0_a681855ba6" x="98.875106" y="177.559066" style="fill: #00008b"/>
    </g>
    <g clip-path="url(#pcf09865f3f)">
     <use xlink:href="#C0_0_a681855ba6" x="135.108872" y="79.633297" style="fill: #00008b"/>
    </g>
    <g clip-path="url(#pcf09865f3f)">
     <use xlink:href="#C0_0_a681855ba6" x="110.953028" y="79.633297" style="fill: #00008b"/>
    </g>
   </g>
   <g id="matplotlib.axis_1">
    <g id="xtick_1">
     <g id="line2d_1">
      <defs>
       <path id="m2b03866c52" d="M 0 0 
L 0 3.5 
" style="stroke: #000000; stroke-width: 0.8"/>
      </defs>
      <g>
       <use xlink:href="#m2b03866c52" x="110.953028" y="491.496375" style="stroke: #000000; stroke-width: 0.8"/>
      </g>
     </g>
     <g id="text_1">
      <text style="font-size: 10px; font-family: 'Helvetica', 'Arial', 'DejaVu Sans', 'Bitstream Vera Sans', 'Computer Modern Sans Serif', 'Lucida Grande', 'Verdana', 'Geneva', 'Lucid', 'Avant Garde', sans-serif; text-anchor: middle" x="110.953028" y="505.669812" transform="rotate(-0 110.953028 505.669812)">0.0</text>
     </g>
    </g>
    <g id="xtick_2">
     <g id="line2d_2">
      <g>
       <use xlink:href="#m2b03866c52" x="219.741278" y="491.496375" style="stroke: #000000; stroke-width: 0.8"/>
      </g>
     </g>
     <g id="text_2">
      <text style="font-size: 10px; font-family: 'Helvetica', 'Arial', 'DejaVu Sans', 'Bitstream Vera Sans', 'Computer Modern Sans Serif', 'Lucida Grande', 'Verdana', 'Geneva', 'Lucid', 'Avant Garde', sans-serif; text-anchor: middle" x="219.741278" y="505.669812" transform="rotate(-0 219.741278 505.669812)">0.5</text>
     </g>
    </g>
    <g id="xtick_3">
     <g id="line2d_3">
      <g>
       <use xlink:href="#m2b03866c52" x="328.529529" y="491.496375" style="stroke: #000000; stroke-width: 0.8"/>
      </g>
     </g>
     <g id="text_3">
      <text style="font-size: 10px; font-family: 'Helvetica', 'Arial', 'DejaVu Sans', 'Bitstream Vera Sans', 'Computer Modern Sans Serif', 'Lucida Grande', 'Verdana', 'Geneva', 'Lucid', 'Avant Garde', sans-serif; text-anchor: middle" x="328.529529" y="505.669812" transform="rotate(-0 328.529529 505.669812)">1.0</text>
     </g>
    </g>
    <g id="xtick_4">
     <g id="line2d_4">
      <g>
       <use xlink:href="#m2b03866c52" x="437.31778" y="491.496375" style="stroke: #000000; stroke-width: 0.8"/>
      </g>
     </g>
     <g id="text_4">
      <text style="font-size: 10px; font-family: 'Helvetica', 'Arial', 'DejaVu Sans', 'Bitstream Vera Sans', 'Computer Modern Sans Serif', 'Lucida Grande', 'Verdana', 'Geneva', 'Lucid', 'Avant Garde', sans-serif; text-anchor: middle" x="437.31778" y="505.669812" transform="rotate(-0 437.31778 505.669812)">1.5</text>
     </g>
    </g>
    <g id="xtick_5">
     <g id="line2d_5">
      <g>
       <use xlink:href="#m2b03866c52" x="546.106031" y="491.496375" style="stroke: #000000; stroke-width: 0.8"/>
      </g>
     </g>
     <g id="text_5">
      <text style="font-size: 10px; font-family: 'Helvetica', 'Arial', 'DejaVu Sans', 'Bitstream Vera Sans', 'Computer Modern Sans Serif', 'Lucida Grande', 'Verdana', 'Geneva', 'Lucid', 'Avant Garde', sans-serif; text-anchor: middle" x="546.106031" y="505.669812" transform="rotate(-0 546.106031 505.669812)">2.0</text>
     </g>
    </g>
    <g id="text_6">
     <text style="font-size: 12px; font-family: 'Helvetica', 'Arial', 'DejaVu Sans', 'Bitstream Vera Sans', 'Computer Modern Sans Serif', 'Lucida Grande', 'Verdana', 'Geneva', 'Lucid', 'Avant Garde', sans-serif; text-anchor: middle" x="328.355625" y="520.502937" transform="rotate(-0 328.355625 520.502937)">H2B Intensity (Z-score)</text>
    </g>
    <g id="text_7">
     <text style="font-size: 10px; font-family: 'Helvetica', 'Arial', 'DejaVu Sans', 'Bitstream Vera Sans', 'Computer Modern Sans Serif', 'Lucida Grande', 'Verdana', 'Geneva', 'Lucid', 'Avant Garde', sans-serif; text-anchor: end" x="607.355625" y="517.927625" transform="rotate(-0 607.355625 517.927625)">1e−15</text>
    </g>
   </g>
   <g id="matplotlib.axis_2">
    <g id="ytick_1">
     <g id="line2d_6">
      <defs>
       <path id="mfcf92bce3f" d="M 0 0 
L -3.5 0 
" style="stroke: #000000; stroke-width: 0.8"/>
      </defs>
      <g>
       <use xlink:href="#mfcf92bce3f" x="49.355625" y="432.448064" style="stroke: #000000; stroke-width: 0.8"/>
      </g>
     </g>
     <g id="text_8">
      <text style="font-size: 10px; font-family: 'Helvetica', 'Arial', 'DejaVu Sans', 'Bitstream Vera Sans', 'Computer Modern Sans Serif', 'Lucida Grande', 'Verdana', 'Geneva', 'Lucid', 'Avant Garde', sans-serif; text-anchor: end" x="42.355625" y="436.034783" transform="rotate(-0 42.355625 436.034783)">−2.0</text>
     </g>
    </g>
    <g id="ytick_2">
     <g id="line2d_7">
      <g>
       <use xlink:href="#mfcf92bce3f" x="49.355625" y="344.244372" style="stroke: #000000; stroke-width: 0.8"/>
      </g>
     </g>
     <g id="text_9">
      <text style="font-size: 10px; font-family: 'Helvetica', 'Arial', 'DejaVu Sans', 'Bitstream Vera Sans', 'Computer Modern Sans Serif', 'Lucida Grande', 'Verdana', 'Geneva', 'Lucid', 'Avant Garde', sans-serif; text-anchor: end" x="42.355625" y="347.831091" transform="rotate(-0 42.355625 347.831091)">−1.5</text>
     </g>
    </g>
    <g id="ytick_3">
     <g id="line2d_8">
      <g>
       <use xlink:href="#mfcf92bce3f" x="49.355625" y="256.04068" style="stroke: #000000; stroke-width: 0.8"/>
      </g>
     </g>
     <g id="text_10">
      <text style="font-size: 10px; font-family: 'Helvetica', 'Arial', 'DejaVu Sans', 'Bitstream Vera Sans', 'Computer Modern Sans Serif', 'Lucida Grande', 'Verdana', 'Geneva', 'Lucid', 'Avant Garde', sans-serif; text-anchor: end" x="42.355625" y="259.627399" transform="rotate(-0 42.355625 259.627399)">−1.0</text>
     </g>
    </g>
    <g id="ytick_4">
     <g id="line2d_9">
      <g>
       <use xlink:href="#mfcf92bce3f" x="49.355625" y="167.836988" style="stroke: #000000; stroke-width: 0.8"/>
      </g>
     </g>
     <g id="text_11">
      <text style="font-size: 10px; font-family: 'Helvetica', 'Arial', 'DejaVu Sans', 'Bitstream Vera Sans', 'Computer Modern Sans Serif', 'Lucida Grande', 'Verdana', 'Geneva', 'Lucid', 'Avant Garde', sans-serif; text-anchor: end" x="42.355625" y="171.423707" transform="rotate(-0 42.355625 171.423707)">−0.5</text>
     </g>
    </g>
    <g id="ytick_5">
     <g id="line2d_10">
      <g>
       <use xlink:href="#mfcf92bce3f" x="49.355625" y="79.633297" style="stroke: #000000; stroke-width: 0.8"/>
      </g>
     </g>
     <g id="text_12">
      <text style="font-size: 10px; font-family: 'Helvetica', 'Arial', 'DejaVu Sans', 'Bitstream Vera Sans', 'Computer Modern Sans Serif', 'Lucida Grande', 'Verdana', 'Geneva', 'Lucid', 'Avant Garde', sans-serif; text-anchor: end" x="42.355625" y="83.220015" transform="rotate(-0 42.355625 83.220015)">0.0</text>
     </g>
    </g>
    <g id="text_13">
     <text style="font-size: 12px; font-family: 'Helvetica', 'Arial', 'DejaVu Sans', 'Bitstream Vera Sans', 'Computer Modern Sans Serif', 'Lucida Grande', 'Verdana', 'Geneva', 'Lucid', 'Avant Garde', sans-serif; text-anchor: middle" x="16.0425" y="269.736375" transform="rotate(-90 16.0425 269.736375)">VSV Intensity (Z-score)</text>
    </g>
    <g id="text_14">
     <text style="font-size: 10px; font-family: 'Helvetica', 'Arial', 'DejaVu Sans', 'Bitstream Vera Sans', 'Computer Modern Sans Serif', 'Lucida Grande', 'Verdana', 'Geneva', 'Lucid', 'Avant Garde', sans-serif; text-anchor: start" x="49.355625" y="44.976375" transform="rotate(-0 49.355625 44.976375)">1e−16</text>
    </g>
   </g>
   <g id="line2d_11">
    <path d="M 74.719261 186.875073 
L 79.843228 185.675692 
L 84.967195 184.476311 
L 90.091162 183.27693 
L 95.215129 182.07755 
L 100.339096 180.878169 
L 105.463063 179.678788 
L 110.58703 178.479407 
L 115.710997 177.280027 
L 120.834964 176.080646 
L 125.958931 174.881265 
L 131.082898 173.681884 
L 136.206865 172.482503 
L 141.330832 171.283123 
L 146.454799 170.083742 
L 151.578765 168.884361 
L 156.702732 167.68498 
L 161.826699 166.485599 
L 166.950666 165.286219 
L 172.074633 164.086838 
L 177.1986 162.887457 
L 182.322567 161.688076 
L 187.446534 160.488696 
L 192.570501 159.289315 
L 197.694468 158.089934 
L 202.818435 156.890553 
L 207.942402 155.691172 
L 213.066369 154.491792 
L 218.190336 153.292411 
L 223.314303 152.09303 
L 228.43827 150.893649 
L 233.562237 149.694268 
L 238.686204 148.494888 
L 243.81017 147.295507 
L 248.934137 146.096126 
L 254.058104 144.896745 
L 259.182071 143.697365 
L 264.306038 142.497984 
L 269.430005 141.298603 
L 274.553972 140.099222 
L 279.677939 138.899841 
L 284.801906 137.700461 
L 289.925873 136.50108 
L 295.04984 135.301699 
L 300.173807 134.102318 
L 305.297774 132.902937 
L 310.421741 131.703557 
L 315.545708 130.504176 
L 320.669675 129.304795 
L 325.793642 128.105414 
L 330.917608 126.906034 
L 336.041575 125.706653 
L 341.165542 124.507272 
L 346.289509 123.307891 
L 351.413476 122.10851 
L 356.537443 120.90913 
L 361.66141 119.709749 
L 366.785377 118.510368 
L 371.909344 117.310987 
L 377.033311 116.111606 
L 382.157278 114.912226 
L 387.281245 113.712845 
L 392.405212 112.513464 
L 397.529179 111.314083 
L 402.653146 110.114703 
L 407.777113 108.915322 
L 412.90108 107.715941 
L 418.025046 106.51656 
L 423.149013 105.317179 
L 428.27298 104.117799 
L 433.396947 102.918418 
L 438.520914 101.719037 
L 443.644881 100.519656 
L 448.768848 99.320275 
L 453.892815 98.120895 
L 459.016782 96.921514 
L 464.140749 95.722133 
L 469.264716 94.522752 
L 474.388683 93.323372 
L 479.51265 92.123991 
L 484.636617 90.92461 
L 489.760584 89.725229 
L 494.884551 88.525848 
L 500.008518 87.326468 
L 505.132485 86.127087 
L 510.256451 84.927706 
L 515.380418 83.728325 
L 520.504385 82.528944 
L 525.628352 81.329564 
L 530.752319 80.130183 
L 535.876286 78.930802 
L 541.000253 77.731421 
L 546.12422 76.532041 
L 551.248187 75.33266 
L 556.372154 74.133279 
L 561.496121 72.933898 
L 566.620088 71.734517 
L 571.744055 70.535137 
L 576.868022 69.335756 
L 581.991989 68.136375 
" clip-path="url(#pcf09865f3f)" style="fill: none; stroke: #000000; stroke-width: 2; stroke-linecap: square"/>
   </g>
   <g id="patch_3">
    <path d="M 49.355625 491.496375 
L 49.355625 47.976375 
" style="fill: none; stroke: #000000; stroke-width: 0.8; stroke-linejoin: miter; stroke-linecap: square"/>
   </g>
   <g id="patch_4">
    <path d="M 49.355625 491.496375 
L 607.355625 491.496375 
" style="fill: none; stroke: #000000; stroke-width: 0.8; stroke-linejoin: miter; stroke-linecap: square"/>
   </g>
   <g id="text_15">
    <text style="font-size: 9px; font-family: 'Helvetica', 'Arial', 'DejaVu Sans', 'Bitstream Vera Sans', 'Computer Modern Sans Serif', 'Lucida Grande', 'Verdana', 'Geneva', 'Lucid', 'Avant Garde', sans-serif; text-anchor: start" x="586.991989" y="74.633297" transform="rotate(-0 586.991989 74.633297)">A</text>
   </g>
   <g id="text_16">
    <text style="font-size: 9px; font-family: 'Helvetica', 'Arial', 'DejaVu Sans', 'Bitstream Vera Sans', 'Computer Modern Sans Serif', 'Lucida Grande', 'Verdana', 'Geneva', 'Lucid', 'Avant Garde', sans-serif; text-anchor: start" x="115.953028" y="466.336375" transform="rotate(-0 115.953028 466.336375)">AL</text>
   </g>
   <g id="text_17">
    <text style="font-size: 9px; font-family: 'Helvetica', 'Arial', 'DejaVu Sans', 'Bitstream Vera Sans', 'Computer Modern Sans Serif', 'Lucida Grande', 'Verdana', 'Geneva', 'Lucid', 'Avant Garde', sans-serif; text-anchor: start" x="79.719261" y="270.484836" transform="rotate(-0 79.719261 270.484836)">AM</text>
   </g>
   <g id="text_18">
    <text style="font-size: 9px; font-family: 'Helvetica', 'Arial', 'DejaVu Sans', 'Bitstream Vera Sans', 'Computer Modern Sans Serif', 'Lucida Grande', 'Verdana', 'Geneva', 'Lucid', 'Avant Garde', sans-serif; text-anchor: start" x="115.953028" y="74.633297" transform="rotate(-0 115.953028 74.633297)">LM</text>
   </g>
   <g id="text_19">
    <text style="font-size: 9px; font-family: 'Helvetica', 'Arial', 'DejaVu Sans', 'Bitstream Vera Sans', 'Computer Modern Sans Serif', 'Lucida Grande', 'Verdana', 'Geneva', 'Lucid', 'Avant Garde', sans-serif; text-anchor: start" x="115.953028" y="74.633297" transform="rotate(-0 115.953028 74.633297)">LI</text>
   </g>
   <g id="text_20">
    <text style="font-size: 9px; font-family: 'Helvetica', 'Arial', 'DejaVu Sans', 'Bitstream Vera Sans', 'Computer Modern Sans Serif', 'Lucida Grande', 'Verdana', 'Geneva', 'Lucid', 'Avant Garde', sans-serif; text-anchor: start" x="103.875106" y="172.559066" transform="rotate(-0 103.875106 172.559066)">PM</text>
   </g>
   <g id="text_21">
    <text style="font-size: 9px; font-family: 'Helvetica', 'Arial', 'DejaVu Sans', 'Bitstream Vera Sans', 'Computer Modern Sans Serif', 'Lucida Grande', 'Verdana', 'Geneva', 'Lucid', 'Avant Garde', sans-serif; text-anchor: start" x="140.108872" y="74.633297" transform="rotate(-0 140.108872 74.633297)">POR</text>
   </g>
   <g id="text_22">
    <text style="font-size: 9px; font-family: 'Helvetica', 'Arial', 'DejaVu Sans', 'Bitstream Vera Sans', 'Computer Modern Sans Serif', 'Lucida Grande', 'Verdana', 'Geneva', 'Lucid', 'Avant Garde', sans-serif; text-anchor: start" x="115.953028" y="74.633297" transform="rotate(-0 115.953028 74.633297)">RL</text>
   </g>
   <g id="text_23">
    <text style="font-size: 12px; font-family: 'Helvetica', 'Arial', 'DejaVu Sans', 'Bitstream Vera Sans', 'Computer Modern Sans Serif', 'Lucida Grande', 'Verdana', 'Geneva', 'Lucid', 'Avant Garde', sans-serif" transform="translate(286.003125 15.808125)">p3 - All Regions</text>
    <text style="font-size: 12px; font-family: 'Helvetica', 'Arial', 'DejaVu Sans', 'Bitstream Vera Sans', 'Computer Modern Sans Serif', 'Lucida Grande', 'Verdana', 'Geneva', 'Lucid', 'Avant Garde', sans-serif" transform="translate(240 29.074125)">Complete Pairs Analysis (zscore)</text>
    <text style="font-size: 12px; font-family: 'Helvetica', 'Arial', 'DejaVu Sans', 'Bitstream Vera Sans', 'Computer Modern Sans Serif', 'Lucida Grande', 'Verdana', 'Geneva', 'Lucid', 'Avant Garde', sans-serif" transform="translate(268.652813 41.976375)">r = 0.2764, r² = 0.0764</text>
   </g>
  </g>
 </g>
 <defs>
  <clipPath id="pcf09865f3f">
   <rect x="49.355625" y="47.976375" width="558" height="443.52"/>
  </clipPath>
 </defs>
</svg>
