<?xml version="1.0" encoding="utf-8" standalone="no"?>
<!DOCTYPE svg PUBLIC "-//W3C//DTD SVG 1.1//EN"
  "http://www.w3.org/Graphics/SVG/1.1/DTD/svg11.dtd">
<svg xmlns:xlink="http://www.w3.org/1999/xlink" width="614.555625pt" height="530.245437pt" viewBox="0 0 614.555625 530.245437" xmlns="http://www.w3.org/2000/svg" version="1.1">
 <metadata>
  <rdf:RDF xmlns:dc="http://purl.org/dc/elements/1.1/" xmlns:cc="http://creativecommons.org/ns#" xmlns:rdf="http://www.w3.org/1999/02/22-rdf-syntax-ns#">
   <cc:Work>
    <dc:type rdf:resource="http://purl.org/dc/dcmitype/StillImage"/>
    <dc:date>2026-02-24T12:28:52.644365</dc:date>
    <dc:format>image/svg+xml</dc:format>
    <dc:creator>
     <cc:Agent>
      <dc:title>Matplotlib v3.10.5, https://matplotlib.org/</dc:title>
     </cc:Agent>
    </dc:creator>
   </cc:Work>
  </rdf:RDF>
 </metadata>
 <defs>
  <style type="text/css">*{stroke-linejoin: round; stroke-linecap: butt}</style>
 </defs>
 <g id="figure_1">
  <g id="patch_1">
   <path d="M 0 530.245437 
L 614.555625 530.245437 
L 614.555625 0 
L 0 0 
z
" style="fill: #ffffff"/>
  </g>
  <g id="axes_1">
   <g id="patch_2">
    <path d="M 49.355625 491.466375 
L 607.355625 491.466375 
L 607.355625 47.946375 
L 49.355625 47.946375 
z
" style="fill: #ffffff"/>
   </g>
   <g id="PathCollection_1">
    <defs>
     <path id="C0_0_cbec289ea3" d="M 0 5 
C 1.326016 5 2.597899 4.473168 3.535534 3.535534 
C 4.473168 2.597899 5 1.326016 5 -0 
C 5 -1.326016 4.473168 -2.597899 3.535534 -3.535534 
C 2.597899 -4.473168 1.326016 -5 0 -5 
C -1.326016 -5 -2.597899 -4.473168 -3.535534 -3.535534 
C -4.473168 -2.597899 -5 -1.326016 -5 0 
C -5 1.326016 -4.473168 2.597899 -3.535534 3.535534 
C -2.597899 4.473168 -1.326016 5 0 5 
z
"/>
    </defs>
    <g clip-path="url(#p76f7f4fd58)">
     <use xlink:href="#C0_0_cbec289ea3" x="159.264716" y="471.306375" style="fill: #00008b"/>
    </g>
    <g clip-path="url(#p76f7f4fd58)">
     <use xlink:href="#C0_0_cbec289ea3" x="356.537443" y="80.324557" style="fill: #00008b"/>
    </g>
    <g clip-path="url(#p76f7f4fd58)">
     <use xlink:href="#C0_0_cbec289ea3" x="159.264716" y="68.106375" style="fill: #00008b"/>
    </g>
    <g clip-path="url(#p76f7f4fd58)">
     <use xlink:href="#C0_0_cbec289ea3" x="74.719261" y="361.342739" style="fill: #00008b"/>
    </g>
    <g clip-path="url(#p76f7f4fd58)">
     <use xlink:href="#C0_0_cbec289ea3" x="271.991989" y="328.76092" style="fill: #00008b"/>
    </g>
    <g clip-path="url(#p76f7f4fd58)">
     <use xlink:href="#C0_0_cbec289ea3" x="271.991989" y="345.05183" style="fill: #00008b"/>
    </g>
    <g clip-path="url(#p76f7f4fd58)">
     <use xlink:href="#C0_0_cbec289ea3" x="581.991989" y="328.76092" style="fill: #00008b"/>
    </g>
    <g clip-path="url(#p76f7f4fd58)">
     <use xlink:href="#C0_0_cbec289ea3" x="271.991989" y="165.85183" style="fill: #00008b"/>
    </g>
   </g>
   <g id="matplotlib.axis_1">
    <g id="xtick_1">
     <g id="line2d_1">
      <defs>
       <path id="m4f3757646c" d="M 0 0 
L 0 3.5 
" style="stroke: #000000; stroke-width: 0.8"/>
      </defs>
      <g>
       <use xlink:href="#m4f3757646c" x="68.920587" y="491.466375" style="stroke: #000000; stroke-width: 0.8"/>
      </g>
     </g>
     <g id="text_1">
      <text style="font-size: 10px; font-family: 'Helvetica', 'Arial', 'DejaVu Sans', 'Bitstream Vera Sans', 'Computer Modern Sans Serif', 'Lucida Grande', 'Verdana', 'Geneva', 'Lucid', 'Avant Garde', sans-serif; text-anchor: middle" x="68.920587" y="505.639812" transform="rotate(-0 68.920587 505.639812)">−4</text>
     </g>
    </g>
    <g id="xtick_2">
     <g id="line2d_2">
      <g>
       <use xlink:href="#m4f3757646c" x="170.456288" y="491.466375" style="stroke: #000000; stroke-width: 0.8"/>
      </g>
     </g>
     <g id="text_2">
      <text style="font-size: 10px; font-family: 'Helvetica', 'Arial', 'DejaVu Sans', 'Bitstream Vera Sans', 'Computer Modern Sans Serif', 'Lucida Grande', 'Verdana', 'Geneva', 'Lucid', 'Avant Garde', sans-serif; text-anchor: middle" x="170.456288" y="505.639812" transform="rotate(-0 170.456288 505.639812)">−2</text>
     </g>
    </g>
    <g id="xtick_3">
     <g id="line2d_3">
      <g>
       <use xlink:href="#m4f3757646c" x="271.991989" y="491.466375" style="stroke: #000000; stroke-width: 0.8"/>
      </g>
     </g>
     <g id="text_3">
      <text style="font-size: 10px; font-family: 'Helvetica', 'Arial', 'DejaVu Sans', 'Bitstream Vera Sans', 'Computer Modern Sans Serif', 'Lucida Grande', 'Verdana', 'Geneva', 'Lucid', 'Avant Garde', sans-serif; text-anchor: middle" x="271.991989" y="505.639812" transform="rotate(-0 271.991989 505.639812)">0</text>
     </g>
    </g>
    <g id="xtick_4">
     <g id="line2d_4">
      <g>
       <use xlink:href="#m4f3757646c" x="373.527689" y="491.466375" style="stroke: #000000; stroke-width: 0.8"/>
      </g>
     </g>
     <g id="text_4">
      <text style="font-size: 10px; font-family: 'Helvetica', 'Arial', 'DejaVu Sans', 'Bitstream Vera Sans', 'Computer Modern Sans Serif', 'Lucida Grande', 'Verdana', 'Geneva', 'Lucid', 'Avant Garde', sans-serif; text-anchor: middle" x="373.527689" y="505.639812" transform="rotate(-0 373.527689 505.639812)">2</text>
     </g>
    </g>
    <g id="xtick_5">
     <g id="line2d_5">
      <g>
       <use xlink:href="#m4f3757646c" x="475.06339" y="491.466375" style="stroke: #000000; stroke-width: 0.8"/>
      </g>
     </g>
     <g id="text_5">
      <text style="font-size: 10px; font-family: 'Helvetica', 'Arial', 'DejaVu Sans', 'Bitstream Vera Sans', 'Computer Modern Sans Serif', 'Lucida Grande', 'Verdana', 'Geneva', 'Lucid', 'Avant Garde', sans-serif; text-anchor: middle" x="475.06339" y="505.639812" transform="rotate(-0 475.06339 505.639812)">4</text>
     </g>
    </g>
    <g id="xtick_6">
     <g id="line2d_6">
      <g>
       <use xlink:href="#m4f3757646c" x="576.599091" y="491.466375" style="stroke: #000000; stroke-width: 0.8"/>
      </g>
     </g>
     <g id="text_6">
      <text style="font-size: 10px; font-family: 'Helvetica', 'Arial', 'DejaVu Sans', 'Bitstream Vera Sans', 'Computer Modern Sans Serif', 'Lucida Grande', 'Verdana', 'Geneva', 'Lucid', 'Avant Garde', sans-serif; text-anchor: middle" x="576.599091" y="505.639812" transform="rotate(-0 576.599091 505.639812)">6</text>
     </g>
    </g>
    <g id="text_7">
     <text style="font-size: 12px; font-family: 'Helvetica', 'Arial', 'DejaVu Sans', 'Bitstream Vera Sans', 'Computer Modern Sans Serif', 'Lucida Grande', 'Verdana', 'Geneva', 'Lucid', 'Avant Garde', sans-serif; text-anchor: middle" x="328.355625" y="520.472937" transform="rotate(-0 328.355625 520.472937)">H2B Intensity (Z-score)</text>
    </g>
    <g id="text_8">
     <text style="font-size: 10px; font-family: 'Helvetica', 'Arial', 'DejaVu Sans', 'Bitstream Vera Sans', 'Computer Modern Sans Serif', 'Lucida Grande', 'Verdana', 'Geneva', 'Lucid', 'Avant Garde', sans-serif; text-anchor: end" x="607.355625" y="517.897625" transform="rotate(-0 607.355625 517.897625)">1e−16</text>
    </g>
   </g>
   <g id="matplotlib.axis_2">
    <g id="ytick_1">
     <g id="line2d_7">
      <defs>
       <path id="m384c8a5f29" d="M 0 0 
L -3.5 0 
" style="stroke: #000000; stroke-width: 0.8"/>
      </defs>
      <g>
       <use xlink:href="#m384c8a5f29" x="49.355625" y="475.496385" style="stroke: #000000; stroke-width: 0.8"/>
      </g>
     </g>
     <g id="text_9">
      <text style="font-size: 10px; font-family: 'Helvetica', 'Arial', 'DejaVu Sans', 'Bitstream Vera Sans', 'Computer Modern Sans Serif', 'Lucida Grande', 'Verdana', 'Geneva', 'Lucid', 'Avant Garde', sans-serif; text-anchor: end" x="42.355625" y="479.083103" transform="rotate(-0 42.355625 479.083103)">−1.0</text>
     </g>
    </g>
    <g id="ytick_2">
     <g id="line2d_8">
      <g>
       <use xlink:href="#m384c8a5f29" x="49.355625" y="402.128653" style="stroke: #000000; stroke-width: 0.8"/>
      </g>
     </g>
     <g id="text_10">
      <text style="font-size: 10px; font-family: 'Helvetica', 'Arial', 'DejaVu Sans', 'Bitstream Vera Sans', 'Computer Modern Sans Serif', 'Lucida Grande', 'Verdana', 'Geneva', 'Lucid', 'Avant Garde', sans-serif; text-anchor: end" x="42.355625" y="405.715371" transform="rotate(-0 42.355625 405.715371)">−0.5</text>
     </g>
    </g>
    <g id="ytick_3">
     <g id="line2d_9">
      <g>
       <use xlink:href="#m384c8a5f29" x="49.355625" y="328.76092" style="stroke: #000000; stroke-width: 0.8"/>
      </g>
     </g>
     <g id="text_11">
      <text style="font-size: 10px; font-family: 'Helvetica', 'Arial', 'DejaVu Sans', 'Bitstream Vera Sans', 'Computer Modern Sans Serif', 'Lucida Grande', 'Verdana', 'Geneva', 'Lucid', 'Avant Garde', sans-serif; text-anchor: end" x="42.355625" y="332.347639" transform="rotate(-0 42.355625 332.347639)">0.0</text>
     </g>
    </g>
    <g id="ytick_4">
     <g id="line2d_10">
      <g>
       <use xlink:href="#m384c8a5f29" x="49.355625" y="255.393188" style="stroke: #000000; stroke-width: 0.8"/>
      </g>
     </g>
     <g id="text_12">
      <text style="font-size: 10px; font-family: 'Helvetica', 'Arial', 'DejaVu Sans', 'Bitstream Vera Sans', 'Computer Modern Sans Serif', 'Lucida Grande', 'Verdana', 'Geneva', 'Lucid', 'Avant Garde', sans-serif; text-anchor: end" x="42.355625" y="258.979907" transform="rotate(-0 42.355625 258.979907)">0.5</text>
     </g>
    </g>
    <g id="ytick_5">
     <g id="line2d_11">
      <g>
       <use xlink:href="#m384c8a5f29" x="49.355625" y="182.025456" style="stroke: #000000; stroke-width: 0.8"/>
      </g>
     </g>
     <g id="text_13">
      <text style="font-size: 10px; font-family: 'Helvetica', 'Arial', 'DejaVu Sans', 'Bitstream Vera Sans', 'Computer Modern Sans Serif', 'Lucida Grande', 'Verdana', 'Geneva', 'Lucid', 'Avant Garde', sans-serif; text-anchor: end" x="42.355625" y="185.612175" transform="rotate(-0 42.355625 185.612175)">1.0</text>
     </g>
    </g>
    <g id="ytick_6">
     <g id="line2d_12">
      <g>
       <use xlink:href="#m384c8a5f29" x="49.355625" y="108.657724" style="stroke: #000000; stroke-width: 0.8"/>
      </g>
     </g>
     <g id="text_14">
      <text style="font-size: 10px; font-family: 'Helvetica', 'Arial', 'DejaVu Sans', 'Bitstream Vera Sans', 'Computer Modern Sans Serif', 'Lucida Grande', 'Verdana', 'Geneva', 'Lucid', 'Avant Garde', sans-serif; text-anchor: end" x="42.355625" y="112.244443" transform="rotate(-0 42.355625 112.244443)">1.5</text>
     </g>
    </g>
    <g id="text_15">
     <text style="font-size: 12px; font-family: 'Helvetica', 'Arial', 'DejaVu Sans', 'Bitstream Vera Sans', 'Computer Modern Sans Serif', 'Lucida Grande', 'Verdana', 'Geneva', 'Lucid', 'Avant Garde', sans-serif; text-anchor: middle" x="16.0425" y="269.706375" transform="rotate(-90 16.0425 269.706375)">VSV Intensity (Z-score)</text>
    </g>
    <g id="text_16">
     <text style="font-size: 10px; font-family: 'Helvetica', 'Arial', 'DejaVu Sans', 'Bitstream Vera Sans', 'Computer Modern Sans Serif', 'Lucida Grande', 'Verdana', 'Geneva', 'Lucid', 'Avant Garde', sans-serif; text-anchor: start" x="49.355625" y="44.946375" transform="rotate(-0 49.355625 44.946375)">1e−16</text>
    </g>
   </g>
   <g id="line2d_13">
    <path d="M 74.719261 286.97865 
L 79.843228 286.494935 
L 84.967195 286.011221 
L 90.091162 285.527506 
L 95.215129 285.043791 
L 100.339096 284.560077 
L 105.463063 284.076362 
L 110.58703 283.592648 
L 115.710997 283.108933 
L 120.834964 282.625219 
L 125.958931 282.141504 
L 131.082898 281.65779 
L 136.206865 281.174075 
L 141.330832 280.69036 
L 146.454799 280.206646 
L 151.578765 279.722931 
L 156.702732 279.239217 
L 161.826699 278.755502 
L 166.950666 278.271788 
L 172.074633 277.788073 
L 177.1986 277.304359 
L 182.322567 276.820644 
L 187.446534 276.33693 
L 192.570501 275.853215 
L 197.694468 275.3695 
L 202.818435 274.885786 
L 207.942402 274.402071 
L 213.066369 273.918357 
L 218.190336 273.434642 
L 223.314303 272.950928 
L 228.43827 272.467213 
L 233.562237 271.983499 
L 238.686204 271.499784 
L 243.81017 271.016069 
L 248.934137 270.532355 
L 254.058104 270.04864 
L 259.182071 269.564926 
L 264.306038 269.081211 
L 269.430005 268.597497 
L 274.553972 268.113782 
L 279.677939 267.630068 
L 284.801906 267.146353 
L 289.925873 266.662639 
L 295.04984 266.178924 
L 300.173807 265.695209 
L 305.297774 265.211495 
L 310.421741 264.72778 
L 315.545708 264.244066 
L 320.669675 263.760351 
L 325.793642 263.276637 
L 330.917608 262.792922 
L 336.041575 262.309208 
L 341.165542 261.825493 
L 346.289509 261.341778 
L 351.413476 260.858064 
L 356.537443 260.374349 
L 361.66141 259.890635 
L 366.785377 259.40692 
L 371.909344 258.923206 
L 377.033311 258.439491 
L 382.157278 257.955777 
L 387.281245 257.472062 
L 392.405212 256.988347 
L 397.529179 256.504633 
L 402.653146 256.020918 
L 407.777113 255.537204 
L 412.90108 255.053489 
L 418.025046 254.569775 
L 423.149013 254.08606 
L 428.27298 253.602346 
L 433.396947 253.118631 
L 438.520914 252.634917 
L 443.644881 252.151202 
L 448.768848 251.667487 
L 453.892815 251.183773 
L 459.016782 250.700058 
L 464.140749 250.216344 
L 469.264716 249.732629 
L 474.388683 249.248915 
L 479.51265 248.7652 
L 484.636617 248.281486 
L 489.760584 247.797771 
L 494.884551 247.314056 
L 500.008518 246.830342 
L 505.132485 246.346627 
L 510.256451 245.862913 
L 515.380418 245.379198 
L 520.504385 244.895484 
L 525.628352 244.411769 
L 530.752319 243.928055 
L 535.876286 243.44434 
L 541.000253 242.960626 
L 546.12422 242.476911 
L 551.248187 241.993196 
L 556.372154 241.509482 
L 561.496121 241.025767 
L 566.620088 240.542053 
L 571.744055 240.058338 
L 576.868022 239.574624 
L 581.991989 239.090909 
" clip-path="url(#p76f7f4fd58)" style="fill: none; stroke: #000000; stroke-width: 2; stroke-linecap: square"/>
   </g>
   <g id="patch_3">
    <path d="M 49.355625 491.466375 
L 49.355625 47.946375 
" style="fill: none; stroke: #000000; stroke-width: 0.8; stroke-linejoin: miter; stroke-linecap: square"/>
   </g>
   <g id="patch_4">
    <path d="M 49.355625 491.466375 
L 607.355625 491.466375 
" style="fill: none; stroke: #000000; stroke-width: 0.8; stroke-linejoin: miter; stroke-linecap: square"/>
   </g>
   <g id="text_17">
    <text style="font-size: 9px; font-family: 'Helvetica', 'Arial', 'DejaVu Sans', 'Bitstream Vera Sans', 'Computer Modern Sans Serif', 'Lucida Grande', 'Verdana', 'Geneva', 'Lucid', 'Avant Garde', sans-serif; text-anchor: start" x="164.264716" y="466.306375" transform="rotate(-0 164.264716 466.306375)">A</text>
   </g>
   <g id="text_18">
    <text style="font-size: 9px; font-family: 'Helvetica', 'Arial', 'DejaVu Sans', 'Bitstream Vera Sans', 'Computer Modern Sans Serif', 'Lucida Grande', 'Verdana', 'Geneva', 'Lucid', 'Avant Garde', sans-serif; text-anchor: start" x="361.537443" y="75.324557" transform="rotate(-0 361.537443 75.324557)">AL</text>
   </g>
   <g id="text_19">
    <text style="font-size: 9px; font-family: 'Helvetica', 'Arial', 'DejaVu Sans', 'Bitstream Vera Sans', 'Computer Modern Sans Serif', 'Lucida Grande', 'Verdana', 'Geneva', 'Lucid', 'Avant Garde', sans-serif; text-anchor: start" x="164.264716" y="63.106375" transform="rotate(-0 164.264716 63.106375)">AM</text>
   </g>
   <g id="text_20">
    <text style="font-size: 9px; font-family: 'Helvetica', 'Arial', 'DejaVu Sans', 'Bitstream Vera Sans', 'Computer Modern Sans Serif', 'Lucida Grande', 'Verdana', 'Geneva', 'Lucid', 'Avant Garde', sans-serif; text-anchor: start" x="79.719261" y="356.342739" transform="rotate(-0 79.719261 356.342739)">LM</text>
   </g>
   <g id="text_21">
    <text style="font-size: 9px; font-family: 'Helvetica', 'Arial', 'DejaVu Sans', 'Bitstream Vera Sans', 'Computer Modern Sans Serif', 'Lucida Grande', 'Verdana', 'Geneva', 'Lucid', 'Avant Garde', sans-serif; text-anchor: start" x="276.991989" y="323.76092" transform="rotate(-0 276.991989 323.76092)">LI</text>
   </g>
   <g id="text_22">
    <text style="font-size: 9px; font-family: 'Helvetica', 'Arial', 'DejaVu Sans', 'Bitstream Vera Sans', 'Computer Modern Sans Serif', 'Lucida Grande', 'Verdana', 'Geneva', 'Lucid', 'Avant Garde', sans-serif; text-anchor: start" x="276.991989" y="340.05183" transform="rotate(-0 276.991989 340.05183)">PM</text>
   </g>
   <g id="text_23">
    <text style="font-size: 9px; font-family: 'Helvetica', 'Arial', 'DejaVu Sans', 'Bitstream Vera Sans', 'Computer Modern Sans Serif', 'Lucida Grande', 'Verdana', 'Geneva', 'Lucid', 'Avant Garde', sans-serif; text-anchor: start" x="586.991989" y="323.76092" transform="rotate(-0 586.991989 323.76092)">POR</text>
   </g>
   <g id="text_24">
    <text style="font-size: 9px; font-family: 'Helvetica', 'Arial', 'DejaVu Sans', 'Bitstream Vera Sans', 'Computer Modern Sans Serif', 'Lucida Grande', 'Verdana', 'Geneva', 'Lucid', 'Avant Garde', sans-serif; text-anchor: start" x="276.991989" y="160.85183" transform="rotate(-0 276.991989 160.85183)">RL</text>
   </g>
   <g id="text_25">
    <text style="font-size: 12px; font-family: 'Helvetica', 'Arial', 'DejaVu Sans', 'Bitstream Vera Sans', 'Computer Modern Sans Serif', 'Lucida Grande', 'Verdana', 'Geneva', 'Lucid', 'Avant Garde', sans-serif" transform="translate(286.003125 15.808125)">p3 - All Regions</text>
    <text style="font-size: 12px; font-family: 'Helvetica', 'Arial', 'DejaVu Sans', 'Bitstream Vera Sans', 'Computer Modern Sans Serif', 'Lucida Grande', 'Verdana', 'Geneva', 'Lucid', 'Avant Garde', sans-serif" transform="translate(225.651563 28.961625)">Averaged Replicates Analysis (zscore)</text>
    <text style="font-size: 12px; font-family: 'Helvetica', 'Arial', 'DejaVu Sans', 'Bitstream Vera Sans', 'Computer Modern Sans Serif', 'Lucida Grande', 'Verdana', 'Geneva', 'Lucid', 'Avant Garde', sans-serif" transform="translate(268.652813 41.946375)">r = 0.1001, r² = 0.0100</text>
   </g>
  </g>
 </g>
 <defs>
  <clipPath id="p76f7f4fd58">
   <rect x="49.355625" y="47.946375" width="558" height="443.52"/>
  </clipPath>
 </defs>
</svg>
