<?xml version="1.0" encoding="utf-8" standalone="no"?>
<!DOCTYPE svg PUBLIC "-//W3C//DTD SVG 1.1//EN"
  "http://www.w3.org/Graphics/SVG/1.1/DTD/svg11.dtd">
<svg xmlns:xlink="http://www.w3.org/1999/xlink" width="606.299062pt" height="530.273562pt" viewBox="0 0 606.299062 530.273562" xmlns="http://www.w3.org/2000/svg" version="1.1">
 <metadata>
  <rdf:RDF xmlns:dc="http://purl.org/dc/elements/1.1/" xmlns:cc="http://creativecommons.org/ns#" xmlns:rdf="http://www.w3.org/1999/02/22-rdf-syntax-ns#">
   <cc:Work>
    <dc:type rdf:resource="http://purl.org/dc/dcmitype/StillImage"/>
    <dc:date>2026-02-24T12:29:40.904507</dc:date>
    <dc:format>image/svg+xml</dc:format>
    <dc:creator>
     <cc:Agent>
      <dc:title>Matplotlib v3.10.5, https://matplotlib.org/</dc:title>
     </cc:Agent>
    </dc:creator>
   </cc:Work>
  </rdf:RDF>
 </metadata>
 <defs>
  <style type="text/css">*{stroke-linejoin: round; stroke-linecap: butt}</style>
 </defs>
 <g id="figure_1">
  <g id="patch_1">
   <path d="M 0 530.273562 
L 606.299062 530.273562 
L 606.299062 0 
L 0 0 
z
" style="fill: #ffffff"/>
  </g>
  <g id="axes_1">
   <g id="patch_2">
    <path d="M 41.099063 491.412 
L 599.099062 491.412 
L 599.099062 47.892 
L 41.099063 47.892 
z
" style="fill: #ffffff"/>
   </g>
   <g id="PathCollection_1">
    <defs>
     <path id="C0_0_e82dcf6d6c" d="M 0 5 
C 1.326016 5 2.597899 4.473168 3.535534 3.535534 
C 4.473168 2.597899 5 1.326016 5 -0 
C 5 -1.326016 4.473168 -2.597899 3.535534 -3.535534 
C 2.597899 -4.473168 1.326016 -5 0 -5 
C -1.326016 -5 -2.597899 -4.473168 -3.535534 -3.535534 
C -4.473168 -2.597899 -5 -1.326016 -5 0 
C -5 1.326016 -4.473168 2.597899 -3.535534 3.535534 
C -2.597899 4.473168 -1.326016 5 0 5 
z
"/>
    </defs>
    <g clip-path="url(#p2ca39fb10e)">
     <use xlink:href="#C0_0_e82dcf6d6c" x="573.735426" y="161.279887" style="fill: #00008b"/>
    </g>
    <g clip-path="url(#p2ca39fb10e)">
     <use xlink:href="#C0_0_e82dcf6d6c" x="300.588573" y="68.052" style="fill: #00008b"/>
    </g>
    <g clip-path="url(#p2ca39fb10e)">
     <use xlink:href="#C0_0_e82dcf6d6c" x="281.078083" y="189.408832" style="fill: #00008b"/>
    </g>
    <g clip-path="url(#p2ca39fb10e)">
     <use xlink:href="#C0_0_e82dcf6d6c" x="339.609552" y="471.252" style="fill: #00008b"/>
    </g>
    <g clip-path="url(#p2ca39fb10e)">
     <use xlink:href="#C0_0_e82dcf6d6c" x="183.525636" y="205.577438" style="fill: #00008b"/>
    </g>
    <g clip-path="url(#p2ca39fb10e)">
     <use xlink:href="#C0_0_e82dcf6d6c" x="66.462699" y="177.374664" style="fill: #00008b"/>
    </g>
    <g clip-path="url(#p2ca39fb10e)">
     <use xlink:href="#C0_0_e82dcf6d6c" x="139.627035" y="197.013245" style="fill: #00008b"/>
    </g>
    <g clip-path="url(#p2ca39fb10e)">
     <use xlink:href="#C0_0_e82dcf6d6c" x="407.896265" y="218.719045" style="fill: #00008b"/>
    </g>
   </g>
   <g id="matplotlib.axis_1">
    <g id="xtick_1">
     <g id="line2d_1">
      <defs>
       <path id="m45d79aacf8" d="M 0 0 
L 0 3.5 
" style="stroke: #000000; stroke-width: 0.8"/>
      </defs>
      <g>
       <use xlink:href="#m45d79aacf8" x="108.95754" y="491.412" style="stroke: #000000; stroke-width: 0.8"/>
      </g>
     </g>
     <g id="text_1">
      <text style="font-size: 10px; font-family: 'Helvetica', 'Arial', 'DejaVu Sans', 'Bitstream Vera Sans', 'Computer Modern Sans Serif', 'Lucida Grande', 'Verdana', 'Geneva', 'Lucid', 'Avant Garde', sans-serif; text-anchor: middle" x="108.95754" y="505.585437" transform="rotate(-0 108.95754 505.585437)">−7.5</text>
     </g>
    </g>
    <g id="xtick_2">
     <g id="line2d_2">
      <g>
       <use xlink:href="#m45d79aacf8" x="185.841544" y="491.412" style="stroke: #000000; stroke-width: 0.8"/>
      </g>
     </g>
     <g id="text_2">
      <text style="font-size: 10px; font-family: 'Helvetica', 'Arial', 'DejaVu Sans', 'Bitstream Vera Sans', 'Computer Modern Sans Serif', 'Lucida Grande', 'Verdana', 'Geneva', 'Lucid', 'Avant Garde', sans-serif; text-anchor: middle" x="185.841544" y="505.585437" transform="rotate(-0 185.841544 505.585437)">−5.0</text>
     </g>
    </g>
    <g id="xtick_3">
     <g id="line2d_3">
      <g>
       <use xlink:href="#m45d79aacf8" x="262.725548" y="491.412" style="stroke: #000000; stroke-width: 0.8"/>
      </g>
     </g>
     <g id="text_3">
      <text style="font-size: 10px; font-family: 'Helvetica', 'Arial', 'DejaVu Sans', 'Bitstream Vera Sans', 'Computer Modern Sans Serif', 'Lucida Grande', 'Verdana', 'Geneva', 'Lucid', 'Avant Garde', sans-serif; text-anchor: middle" x="262.725548" y="505.585437" transform="rotate(-0 262.725548 505.585437)">−2.5</text>
     </g>
    </g>
    <g id="xtick_4">
     <g id="line2d_4">
      <g>
       <use xlink:href="#m45d79aacf8" x="339.609552" y="491.412" style="stroke: #000000; stroke-width: 0.8"/>
      </g>
     </g>
     <g id="text_4">
      <text style="font-size: 10px; font-family: 'Helvetica', 'Arial', 'DejaVu Sans', 'Bitstream Vera Sans', 'Computer Modern Sans Serif', 'Lucida Grande', 'Verdana', 'Geneva', 'Lucid', 'Avant Garde', sans-serif; text-anchor: middle" x="339.609552" y="505.585437" transform="rotate(-0 339.609552 505.585437)">0.0</text>
     </g>
    </g>
    <g id="xtick_5">
     <g id="line2d_5">
      <g>
       <use xlink:href="#m45d79aacf8" x="416.493556" y="491.412" style="stroke: #000000; stroke-width: 0.8"/>
      </g>
     </g>
     <g id="text_5">
      <text style="font-size: 10px; font-family: 'Helvetica', 'Arial', 'DejaVu Sans', 'Bitstream Vera Sans', 'Computer Modern Sans Serif', 'Lucida Grande', 'Verdana', 'Geneva', 'Lucid', 'Avant Garde', sans-serif; text-anchor: middle" x="416.493556" y="505.585437" transform="rotate(-0 416.493556 505.585437)">2.5</text>
     </g>
    </g>
    <g id="xtick_6">
     <g id="line2d_6">
      <g>
       <use xlink:href="#m45d79aacf8" x="493.37756" y="491.412" style="stroke: #000000; stroke-width: 0.8"/>
      </g>
     </g>
     <g id="text_6">
      <text style="font-size: 10px; font-family: 'Helvetica', 'Arial', 'DejaVu Sans', 'Bitstream Vera Sans', 'Computer Modern Sans Serif', 'Lucida Grande', 'Verdana', 'Geneva', 'Lucid', 'Avant Garde', sans-serif; text-anchor: middle" x="493.37756" y="505.585437" transform="rotate(-0 493.37756 505.585437)">5.0</text>
     </g>
    </g>
    <g id="xtick_7">
     <g id="line2d_7">
      <g>
       <use xlink:href="#m45d79aacf8" x="570.261564" y="491.412" style="stroke: #000000; stroke-width: 0.8"/>
      </g>
     </g>
     <g id="text_7">
      <text style="font-size: 10px; font-family: 'Helvetica', 'Arial', 'DejaVu Sans', 'Bitstream Vera Sans', 'Computer Modern Sans Serif', 'Lucida Grande', 'Verdana', 'Geneva', 'Lucid', 'Avant Garde', sans-serif; text-anchor: middle" x="570.261564" y="505.585437" transform="rotate(-0 570.261564 505.585437)">7.5</text>
     </g>
    </g>
    <g id="text_8">
     <text style="font-size: 12px; font-family: 'Helvetica', 'Arial', 'DejaVu Sans', 'Bitstream Vera Sans', 'Computer Modern Sans Serif', 'Lucida Grande', 'Verdana', 'Geneva', 'Lucid', 'Avant Garde', sans-serif; text-anchor: middle" x="320.099063" y="520.418562" transform="rotate(-0 320.099063 520.418562)">H2B Intensity (log10 + Z-score)</text>
    </g>
    <g id="text_9">
     <text style="font-size: 10px; font-family: 'Helvetica', 'Arial', 'DejaVu Sans', 'Bitstream Vera Sans', 'Computer Modern Sans Serif', 'Lucida Grande', 'Verdana', 'Geneva', 'Lucid', 'Avant Garde', sans-serif; text-anchor: end" x="599.099062" y="517.84325" transform="rotate(-0 599.099062 517.84325)">1e−16</text>
    </g>
   </g>
   <g id="matplotlib.axis_2">
    <g id="ytick_1">
     <g id="line2d_8">
      <defs>
       <path id="md89b7d7bbb" d="M 0 0 
L -3.5 0 
" style="stroke: #000000; stroke-width: 0.8"/>
      </defs>
      <g>
       <use xlink:href="#md89b7d7bbb" x="41.099063" y="427.982075" style="stroke: #000000; stroke-width: 0.8"/>
      </g>
     </g>
     <g id="text_10">
      <text style="font-size: 10px; font-family: 'Helvetica', 'Arial', 'DejaVu Sans', 'Bitstream Vera Sans', 'Computer Modern Sans Serif', 'Lucida Grande', 'Verdana', 'Geneva', 'Lucid', 'Avant Garde', sans-serif; text-anchor: end" x="34.099063" y="431.568793" transform="rotate(-0 34.099063 431.568793)">−3</text>
     </g>
    </g>
    <g id="ytick_2">
     <g id="line2d_9">
      <g>
       <use xlink:href="#md89b7d7bbb" x="41.099063" y="353.502659" style="stroke: #000000; stroke-width: 0.8"/>
      </g>
     </g>
     <g id="text_11">
      <text style="font-size: 10px; font-family: 'Helvetica', 'Arial', 'DejaVu Sans', 'Bitstream Vera Sans', 'Computer Modern Sans Serif', 'Lucida Grande', 'Verdana', 'Geneva', 'Lucid', 'Avant Garde', sans-serif; text-anchor: end" x="34.099063" y="357.089378" transform="rotate(-0 34.099063 357.089378)">−2</text>
     </g>
    </g>
    <g id="ytick_3">
     <g id="line2d_10">
      <g>
       <use xlink:href="#md89b7d7bbb" x="41.099063" y="279.023244" style="stroke: #000000; stroke-width: 0.8"/>
      </g>
     </g>
     <g id="text_12">
      <text style="font-size: 10px; font-family: 'Helvetica', 'Arial', 'DejaVu Sans', 'Bitstream Vera Sans', 'Computer Modern Sans Serif', 'Lucida Grande', 'Verdana', 'Geneva', 'Lucid', 'Avant Garde', sans-serif; text-anchor: end" x="34.099063" y="282.609963" transform="rotate(-0 34.099063 282.609963)">−1</text>
     </g>
    </g>
    <g id="ytick_4">
     <g id="line2d_11">
      <g>
       <use xlink:href="#md89b7d7bbb" x="41.099063" y="204.543829" style="stroke: #000000; stroke-width: 0.8"/>
      </g>
     </g>
     <g id="text_13">
      <text style="font-size: 10px; font-family: 'Helvetica', 'Arial', 'DejaVu Sans', 'Bitstream Vera Sans', 'Computer Modern Sans Serif', 'Lucida Grande', 'Verdana', 'Geneva', 'Lucid', 'Avant Garde', sans-serif; text-anchor: end" x="34.099063" y="208.130548" transform="rotate(-0 34.099063 208.130548)">0</text>
     </g>
    </g>
    <g id="ytick_5">
     <g id="line2d_12">
      <g>
       <use xlink:href="#md89b7d7bbb" x="41.099063" y="130.064413" style="stroke: #000000; stroke-width: 0.8"/>
      </g>
     </g>
     <g id="text_14">
      <text style="font-size: 10px; font-family: 'Helvetica', 'Arial', 'DejaVu Sans', 'Bitstream Vera Sans', 'Computer Modern Sans Serif', 'Lucida Grande', 'Verdana', 'Geneva', 'Lucid', 'Avant Garde', sans-serif; text-anchor: end" x="34.099063" y="133.651132" transform="rotate(-0 34.099063 133.651132)">1</text>
     </g>
    </g>
    <g id="ytick_6">
     <g id="line2d_13">
      <g>
       <use xlink:href="#md89b7d7bbb" x="41.099063" y="55.584998" style="stroke: #000000; stroke-width: 0.8"/>
      </g>
     </g>
     <g id="text_15">
      <text style="font-size: 10px; font-family: 'Helvetica', 'Arial', 'DejaVu Sans', 'Bitstream Vera Sans', 'Computer Modern Sans Serif', 'Lucida Grande', 'Verdana', 'Geneva', 'Lucid', 'Avant Garde', sans-serif; text-anchor: end" x="34.099063" y="59.171717" transform="rotate(-0 34.099063 59.171717)">2</text>
     </g>
    </g>
    <g id="text_16">
     <text style="font-size: 12px; font-family: 'Helvetica', 'Arial', 'DejaVu Sans', 'Bitstream Vera Sans', 'Computer Modern Sans Serif', 'Lucida Grande', 'Verdana', 'Geneva', 'Lucid', 'Avant Garde', sans-serif; text-anchor: middle" x="16.0425" y="269.652" transform="rotate(-90 16.0425 269.652)">VSV Intensity (log10 + Z-score)</text>
    </g>
    <g id="text_17">
     <text style="font-size: 10px; font-family: 'Helvetica', 'Arial', 'DejaVu Sans', 'Bitstream Vera Sans', 'Computer Modern Sans Serif', 'Lucida Grande', 'Verdana', 'Geneva', 'Lucid', 'Avant Garde', sans-serif; text-anchor: start" x="41.099063" y="44.892" transform="rotate(-0 41.099063 44.892)">1e−15</text>
    </g>
   </g>
   <g id="line2d_14">
    <path d="M 66.462699 200.629447 
L 71.586666 200.872843 
L 76.710633 201.116238 
L 81.8346 201.359634 
L 86.958567 201.60303 
L 92.082534 201.846426 
L 97.206501 202.089821 
L 102.330467 202.333217 
L 107.454434 202.576613 
L 112.578401 202.820009 
L 117.702368 203.063404 
L 122.826335 203.3068 
L 127.950302 203.550196 
L 133.074269 203.793591 
L 138.198236 204.036987 
L 143.322203 204.280383 
L 148.44617 204.523779 
L 153.570137 204.767174 
L 158.694104 205.01057 
L 163.818071 205.253966 
L 168.942038 205.497362 
L 174.066005 205.740757 
L 179.189972 205.984153 
L 184.313939 206.227549 
L 189.437905 206.470944 
L 194.561872 206.71434 
L 199.685839 206.957736 
L 204.809806 207.201132 
L 209.933773 207.444527 
L 215.05774 207.687923 
L 220.181707 207.931319 
L 225.305674 208.174714 
L 230.429641 208.41811 
L 235.553608 208.661506 
L 240.677575 208.904902 
L 245.801542 209.148297 
L 250.925509 209.391693 
L 256.049476 209.635089 
L 261.173443 209.878485 
L 266.29741 210.12188 
L 271.421377 210.365276 
L 276.545343 210.608672 
L 281.66931 210.852067 
L 286.793277 211.095463 
L 291.917244 211.338859 
L 297.041211 211.582255 
L 302.165178 211.82565 
L 307.289145 212.069046 
L 312.413112 212.312442 
L 317.537079 212.555837 
L 322.661046 212.799233 
L 327.785013 213.042629 
L 332.90898 213.286025 
L 338.032947 213.52942 
L 343.156914 213.772816 
L 348.280881 214.016212 
L 353.404848 214.259608 
L 358.528815 214.503003 
L 363.652782 214.746399 
L 368.776748 214.989795 
L 373.900715 215.23319 
L 379.024682 215.476586 
L 384.148649 215.719982 
L 389.272616 215.963378 
L 394.396583 216.206773 
L 399.52055 216.450169 
L 404.644517 216.693565 
L 409.768484 216.93696 
L 414.892451 217.180356 
L 420.016418 217.423752 
L 425.140385 217.667148 
L 430.264352 217.910543 
L 435.388319 218.153939 
L 440.512286 218.397335 
L 445.636253 218.640731 
L 450.76022 218.884126 
L 455.884186 219.127522 
L 461.008153 219.370918 
L 466.13212 219.614313 
L 471.256087 219.857709 
L 476.380054 220.101105 
L 481.504021 220.344501 
L 486.627988 220.587896 
L 491.751955 220.831292 
L 496.875922 221.074688 
L 501.999889 221.318084 
L 507.123856 221.561479 
L 512.247823 221.804875 
L 517.37179 222.048271 
L 522.495757 222.291666 
L 527.619724 222.535062 
L 532.743691 222.778458 
L 537.867658 223.021854 
L 542.991624 223.265249 
L 548.115591 223.508645 
L 553.239558 223.752041 
L 558.363525 223.995436 
L 563.487492 224.238832 
L 568.611459 224.482228 
L 573.735426 224.725624 
" clip-path="url(#p2ca39fb10e)" style="fill: none; stroke: #000000; stroke-width: 2; stroke-linecap: square"/>
   </g>
   <g id="patch_3">
    <path d="M 41.099063 491.412 
L 41.099063 47.892 
" style="fill: none; stroke: #000000; stroke-width: 0.8; stroke-linejoin: miter; stroke-linecap: square"/>
   </g>
   <g id="patch_4">
    <path d="M 41.099063 491.412 
L 599.099063 491.412 
" style="fill: none; stroke: #000000; stroke-width: 0.8; stroke-linejoin: miter; stroke-linecap: square"/>
   </g>
   <g id="text_18">
    <text style="font-size: 9px; font-family: 'Helvetica', 'Arial', 'DejaVu Sans', 'Bitstream Vera Sans', 'Computer Modern Sans Serif', 'Lucida Grande', 'Verdana', 'Geneva', 'Lucid', 'Avant Garde', sans-serif; text-anchor: start" x="578.735426" y="156.279887" transform="rotate(-0 578.735426 156.279887)">A</text>
   </g>
   <g id="text_19">
    <text style="font-size: 9px; font-family: 'Helvetica', 'Arial', 'DejaVu Sans', 'Bitstream Vera Sans', 'Computer Modern Sans Serif', 'Lucida Grande', 'Verdana', 'Geneva', 'Lucid', 'Avant Garde', sans-serif; text-anchor: start" x="305.588573" y="63.052" transform="rotate(-0 305.588573 63.052)">AL</text>
   </g>
   <g id="text_20">
    <text style="font-size: 9px; font-family: 'Helvetica', 'Arial', 'DejaVu Sans', 'Bitstream Vera Sans', 'Computer Modern Sans Serif', 'Lucida Grande', 'Verdana', 'Geneva', 'Lucid', 'Avant Garde', sans-serif; text-anchor: start" x="286.078083" y="184.408832" transform="rotate(-0 286.078083 184.408832)">AM</text>
   </g>
   <g id="text_21">
    <text style="font-size: 9px; font-family: 'Helvetica', 'Arial', 'DejaVu Sans', 'Bitstream Vera Sans', 'Computer Modern Sans Serif', 'Lucida Grande', 'Verdana', 'Geneva', 'Lucid', 'Avant Garde', sans-serif; text-anchor: start" x="344.609552" y="466.252" transform="rotate(-0 344.609552 466.252)">LM</text>
   </g>
   <g id="text_22">
    <text style="font-size: 9px; font-family: 'Helvetica', 'Arial', 'DejaVu Sans', 'Bitstream Vera Sans', 'Computer Modern Sans Serif', 'Lucida Grande', 'Verdana', 'Geneva', 'Lucid', 'Avant Garde', sans-serif; text-anchor: start" x="188.525636" y="200.577438" transform="rotate(-0 188.525636 200.577438)">LI</text>
   </g>
   <g id="text_23">
    <text style="font-size: 9px; font-family: 'Helvetica', 'Arial', 'DejaVu Sans', 'Bitstream Vera Sans', 'Computer Modern Sans Serif', 'Lucida Grande', 'Verdana', 'Geneva', 'Lucid', 'Avant Garde', sans-serif; text-anchor: start" x="71.462699" y="172.374664" transform="rotate(-0 71.462699 172.374664)">PM</text>
   </g>
   <g id="text_24">
    <text style="font-size: 9px; font-family: 'Helvetica', 'Arial', 'DejaVu Sans', 'Bitstream Vera Sans', 'Computer Modern Sans Serif', 'Lucida Grande', 'Verdana', 'Geneva', 'Lucid', 'Avant Garde', sans-serif; text-anchor: start" x="144.627035" y="192.013245" transform="rotate(-0 144.627035 192.013245)">POR</text>
   </g>
   <g id="text_25">
    <text style="font-size: 9px; font-family: 'Helvetica', 'Arial', 'DejaVu Sans', 'Bitstream Vera Sans', 'Computer Modern Sans Serif', 'Lucida Grande', 'Verdana', 'Geneva', 'Lucid', 'Avant Garde', sans-serif; text-anchor: start" x="412.896265" y="213.719045" transform="rotate(-0 412.896265 213.719045)">RL</text>
   </g>
   <g id="text_26">
    <text style="font-size: 12px; font-family: 'Helvetica', 'Arial', 'DejaVu Sans', 'Bitstream Vera Sans', 'Computer Modern Sans Serif', 'Lucida Grande', 'Verdana', 'Geneva', 'Lucid', 'Avant Garde', sans-serif" transform="translate(271.41 15.83625)">adult - All Regions</text>
    <text style="font-size: 12px; font-family: 'Helvetica', 'Arial', 'DejaVu Sans', 'Bitstream Vera Sans', 'Computer Modern Sans Serif', 'Lucida Grande', 'Verdana', 'Geneva', 'Lucid', 'Avant Garde', sans-serif" transform="translate(228.396563 28.98975)">Imputed Data Analysis (combined)</text>
    <text style="font-size: 12px; font-family: 'Helvetica', 'Arial', 'DejaVu Sans', 'Bitstream Vera Sans', 'Computer Modern Sans Serif', 'Lucida Grande', 'Verdana', 'Geneva', 'Lucid', 'Avant Garde', sans-serif" transform="translate(258.398438 41.892)">r = -0.0664, r² = 0.0044</text>
   </g>
  </g>
 </g>
 <defs>
  <clipPath id="p2ca39fb10e">
   <rect x="41.099063" y="47.892" width="558" height="443.52"/>
  </clipPath>
 </defs>
</svg>
