<?xml version="1.0" encoding="utf-8" standalone="no"?>
<!DOCTYPE svg PUBLIC "-//W3C//DTD SVG 1.1//EN"
  "http://www.w3.org/Graphics/SVG/1.1/DTD/svg11.dtd">
<svg xmlns:xlink="http://www.w3.org/1999/xlink" width="606.299062pt" height="530.245437pt" viewBox="0 0 606.299062 530.245437" xmlns="http://www.w3.org/2000/svg" version="1.1">
 <metadata>
  <rdf:RDF xmlns:dc="http://purl.org/dc/elements/1.1/" xmlns:cc="http://creativecommons.org/ns#" xmlns:rdf="http://www.w3.org/1999/02/22-rdf-syntax-ns#">
   <cc:Work>
    <dc:type rdf:resource="http://purl.org/dc/dcmitype/StillImage"/>
    <dc:date>2026-02-24T12:29:40.490544</dc:date>
    <dc:format>image/svg+xml</dc:format>
    <dc:creator>
     <cc:Agent>
      <dc:title>Matplotlib v3.10.5, https://matplotlib.org/</dc:title>
     </cc:Agent>
    </dc:creator>
   </cc:Work>
  </rdf:RDF>
 </metadata>
 <defs>
  <style type="text/css">*{stroke-linejoin: round; stroke-linecap: butt}</style>
 </defs>
 <g id="figure_1">
  <g id="patch_1">
   <path d="M 0 530.245437 
L 606.299062 530.245437 
L 606.299062 0 
L 0 0 
z
" style="fill: #ffffff"/>
  </g>
  <g id="axes_1">
   <g id="patch_2">
    <path d="M 41.099063 491.383875 
L 599.099062 491.383875 
L 599.099062 47.863875 
L 41.099063 47.863875 
z
" style="fill: #ffffff"/>
   </g>
   <g id="PathCollection_1">
    <defs>
     <path id="C0_0_74eb6be675" d="M 0 5 
C 1.326016 5 2.597899 4.473168 3.535534 3.535534 
C 4.473168 2.597899 5 1.326016 5 -0 
C 5 -1.326016 4.473168 -2.597899 3.535534 -3.535534 
C 2.597899 -4.473168 1.326016 -5 0 -5 
C -1.326016 -5 -2.597899 -4.473168 -3.535534 -3.535534 
C -4.473168 -2.597899 -5 -1.326016 -5 0 
C -5 1.326016 -4.473168 2.597899 -3.535534 3.535534 
C -2.597899 4.473168 -1.326016 5 0 5 
z
"/>
    </defs>
    <g clip-path="url(#pb9e8f7d149)">
     <use xlink:href="#C0_0_74eb6be675" x="520.428801" y="201.688799" style="fill: #00008b"/>
    </g>
    <g clip-path="url(#pb9e8f7d149)">
     <use xlink:href="#C0_0_74eb6be675" x="561.698446" y="221.778053" style="fill: #00008b"/>
    </g>
    <g clip-path="url(#pb9e8f7d149)">
     <use xlink:href="#C0_0_74eb6be675" x="66.462699" y="290.331358" style="fill: #00008b"/>
    </g>
    <g clip-path="url(#pb9e8f7d149)">
     <use xlink:href="#C0_0_74eb6be675" x="190.271636" y="162.326098" style="fill: #00008b"/>
    </g>
    <g clip-path="url(#pb9e8f7d149)">
     <use xlink:href="#C0_0_74eb6be675" x="320.958847" y="68.023875" style="fill: #00008b"/>
    </g>
    <g clip-path="url(#pb9e8f7d149)">
     <use xlink:href="#C0_0_74eb6be675" x="573.735426" y="471.223875" style="fill: #00008b"/>
    </g>
    <g clip-path="url(#pb9e8f7d149)">
     <use xlink:href="#C0_0_74eb6be675" x="359.64914" y="198.833473" style="fill: #00008b"/>
    </g>
    <g clip-path="url(#pb9e8f7d149)">
     <use xlink:href="#C0_0_74eb6be675" x="465.402606" y="152.230482" style="fill: #00008b"/>
    </g>
   </g>
   <g id="matplotlib.axis_1">
    <g id="xtick_1">
     <g id="line2d_1">
      <defs>
       <path id="m547a024030" d="M 0 0 
L 0 3.5 
" style="stroke: #000000; stroke-width: 0.8"/>
      </defs>
      <g>
       <use xlink:href="#m547a024030" x="91.04622" y="491.383875" style="stroke: #000000; stroke-width: 0.8"/>
      </g>
     </g>
     <g id="text_1">
      <text style="font-size: 10px; font-family: 'Helvetica', 'Arial', 'DejaVu Sans', 'Bitstream Vera Sans', 'Computer Modern Sans Serif', 'Lucida Grande', 'Verdana', 'Geneva', 'Lucid', 'Avant Garde', sans-serif; text-anchor: middle" x="91.04622" y="505.557312" transform="rotate(-0 91.04622 505.557312)">−6</text>
     </g>
    </g>
    <g id="xtick_2">
     <g id="line2d_2">
      <g>
       <use xlink:href="#m547a024030" x="165.391004" y="491.383875" style="stroke: #000000; stroke-width: 0.8"/>
      </g>
     </g>
     <g id="text_2">
      <text style="font-size: 10px; font-family: 'Helvetica', 'Arial', 'DejaVu Sans', 'Bitstream Vera Sans', 'Computer Modern Sans Serif', 'Lucida Grande', 'Verdana', 'Geneva', 'Lucid', 'Avant Garde', sans-serif; text-anchor: middle" x="165.391004" y="505.557312" transform="rotate(-0 165.391004 505.557312)">−4</text>
     </g>
    </g>
    <g id="xtick_3">
     <g id="line2d_3">
      <g>
       <use xlink:href="#m547a024030" x="239.735788" y="491.383875" style="stroke: #000000; stroke-width: 0.8"/>
      </g>
     </g>
     <g id="text_3">
      <text style="font-size: 10px; font-family: 'Helvetica', 'Arial', 'DejaVu Sans', 'Bitstream Vera Sans', 'Computer Modern Sans Serif', 'Lucida Grande', 'Verdana', 'Geneva', 'Lucid', 'Avant Garde', sans-serif; text-anchor: middle" x="239.735788" y="505.557312" transform="rotate(-0 239.735788 505.557312)">−2</text>
     </g>
    </g>
    <g id="xtick_4">
     <g id="line2d_4">
      <g>
       <use xlink:href="#m547a024030" x="314.080573" y="491.383875" style="stroke: #000000; stroke-width: 0.8"/>
      </g>
     </g>
     <g id="text_4">
      <text style="font-size: 10px; font-family: 'Helvetica', 'Arial', 'DejaVu Sans', 'Bitstream Vera Sans', 'Computer Modern Sans Serif', 'Lucida Grande', 'Verdana', 'Geneva', 'Lucid', 'Avant Garde', sans-serif; text-anchor: middle" x="314.080573" y="505.557312" transform="rotate(-0 314.080573 505.557312)">0</text>
     </g>
    </g>
    <g id="xtick_5">
     <g id="line2d_5">
      <g>
       <use xlink:href="#m547a024030" x="388.425357" y="491.383875" style="stroke: #000000; stroke-width: 0.8"/>
      </g>
     </g>
     <g id="text_5">
      <text style="font-size: 10px; font-family: 'Helvetica', 'Arial', 'DejaVu Sans', 'Bitstream Vera Sans', 'Computer Modern Sans Serif', 'Lucida Grande', 'Verdana', 'Geneva', 'Lucid', 'Avant Garde', sans-serif; text-anchor: middle" x="388.425357" y="505.557312" transform="rotate(-0 388.425357 505.557312)">2</text>
     </g>
    </g>
    <g id="xtick_6">
     <g id="line2d_6">
      <g>
       <use xlink:href="#m547a024030" x="462.770141" y="491.383875" style="stroke: #000000; stroke-width: 0.8"/>
      </g>
     </g>
     <g id="text_6">
      <text style="font-size: 10px; font-family: 'Helvetica', 'Arial', 'DejaVu Sans', 'Bitstream Vera Sans', 'Computer Modern Sans Serif', 'Lucida Grande', 'Verdana', 'Geneva', 'Lucid', 'Avant Garde', sans-serif; text-anchor: middle" x="462.770141" y="505.557312" transform="rotate(-0 462.770141 505.557312)">4</text>
     </g>
    </g>
    <g id="xtick_7">
     <g id="line2d_7">
      <g>
       <use xlink:href="#m547a024030" x="537.114925" y="491.383875" style="stroke: #000000; stroke-width: 0.8"/>
      </g>
     </g>
     <g id="text_7">
      <text style="font-size: 10px; font-family: 'Helvetica', 'Arial', 'DejaVu Sans', 'Bitstream Vera Sans', 'Computer Modern Sans Serif', 'Lucida Grande', 'Verdana', 'Geneva', 'Lucid', 'Avant Garde', sans-serif; text-anchor: middle" x="537.114925" y="505.557312" transform="rotate(-0 537.114925 505.557312)">6</text>
     </g>
    </g>
    <g id="text_8">
     <text style="font-size: 12px; font-family: 'Helvetica', 'Arial', 'DejaVu Sans', 'Bitstream Vera Sans', 'Computer Modern Sans Serif', 'Lucida Grande', 'Verdana', 'Geneva', 'Lucid', 'Avant Garde', sans-serif; text-anchor: middle" x="320.099063" y="520.390437" transform="rotate(-0 320.099063 520.390437)">H2B Intensity (log10 + Z-score)</text>
    </g>
    <g id="text_9">
     <text style="font-size: 10px; font-family: 'Helvetica', 'Arial', 'DejaVu Sans', 'Bitstream Vera Sans', 'Computer Modern Sans Serif', 'Lucida Grande', 'Verdana', 'Geneva', 'Lucid', 'Avant Garde', sans-serif; text-anchor: end" x="599.099062" y="517.815125" transform="rotate(-0 599.099062 517.815125)">1e−16</text>
    </g>
   </g>
   <g id="matplotlib.axis_2">
    <g id="ytick_1">
     <g id="line2d_8">
      <defs>
       <path id="m658ed61d46" d="M 0 0 
L -3.5 0 
" style="stroke: #000000; stroke-width: 0.8"/>
      </defs>
      <g>
       <use xlink:href="#m658ed61d46" x="41.099063" y="486.514998" style="stroke: #000000; stroke-width: 0.8"/>
      </g>
     </g>
     <g id="text_10">
      <text style="font-size: 10px; font-family: 'Helvetica', 'Arial', 'DejaVu Sans', 'Bitstream Vera Sans', 'Computer Modern Sans Serif', 'Lucida Grande', 'Verdana', 'Geneva', 'Lucid', 'Avant Garde', sans-serif; text-anchor: end" x="34.099063" y="490.101717" transform="rotate(-0 34.099063 490.101717)">−3</text>
     </g>
    </g>
    <g id="ytick_2">
     <g id="line2d_9">
      <g>
       <use xlink:href="#m658ed61d46" x="41.099063" y="398.337334" style="stroke: #000000; stroke-width: 0.8"/>
      </g>
     </g>
     <g id="text_11">
      <text style="font-size: 10px; font-family: 'Helvetica', 'Arial', 'DejaVu Sans', 'Bitstream Vera Sans', 'Computer Modern Sans Serif', 'Lucida Grande', 'Verdana', 'Geneva', 'Lucid', 'Avant Garde', sans-serif; text-anchor: end" x="34.099063" y="401.924052" transform="rotate(-0 34.099063 401.924052)">−2</text>
     </g>
    </g>
    <g id="ytick_3">
     <g id="line2d_10">
      <g>
       <use xlink:href="#m658ed61d46" x="41.099063" y="310.159669" style="stroke: #000000; stroke-width: 0.8"/>
      </g>
     </g>
     <g id="text_12">
      <text style="font-size: 10px; font-family: 'Helvetica', 'Arial', 'DejaVu Sans', 'Bitstream Vera Sans', 'Computer Modern Sans Serif', 'Lucida Grande', 'Verdana', 'Geneva', 'Lucid', 'Avant Garde', sans-serif; text-anchor: end" x="34.099063" y="313.746388" transform="rotate(-0 34.099063 313.746388)">−1</text>
     </g>
    </g>
    <g id="ytick_4">
     <g id="line2d_11">
      <g>
       <use xlink:href="#m658ed61d46" x="41.099063" y="221.982005" style="stroke: #000000; stroke-width: 0.8"/>
      </g>
     </g>
     <g id="text_13">
      <text style="font-size: 10px; font-family: 'Helvetica', 'Arial', 'DejaVu Sans', 'Bitstream Vera Sans', 'Computer Modern Sans Serif', 'Lucida Grande', 'Verdana', 'Geneva', 'Lucid', 'Avant Garde', sans-serif; text-anchor: end" x="34.099063" y="225.568723" transform="rotate(-0 34.099063 225.568723)">0</text>
     </g>
    </g>
    <g id="ytick_5">
     <g id="line2d_12">
      <g>
       <use xlink:href="#m658ed61d46" x="41.099063" y="133.80434" style="stroke: #000000; stroke-width: 0.8"/>
      </g>
     </g>
     <g id="text_14">
      <text style="font-size: 10px; font-family: 'Helvetica', 'Arial', 'DejaVu Sans', 'Bitstream Vera Sans', 'Computer Modern Sans Serif', 'Lucida Grande', 'Verdana', 'Geneva', 'Lucid', 'Avant Garde', sans-serif; text-anchor: end" x="34.099063" y="137.391059" transform="rotate(-0 34.099063 137.391059)">1</text>
     </g>
    </g>
    <g id="text_15">
     <text style="font-size: 12px; font-family: 'Helvetica', 'Arial', 'DejaVu Sans', 'Bitstream Vera Sans', 'Computer Modern Sans Serif', 'Lucida Grande', 'Verdana', 'Geneva', 'Lucid', 'Avant Garde', sans-serif; text-anchor: middle" x="16.0425" y="269.623875" transform="rotate(-90 16.0425 269.623875)">VSV Intensity (log10 + Z-score)</text>
    </g>
    <g id="text_16">
     <text style="font-size: 10px; font-family: 'Helvetica', 'Arial', 'DejaVu Sans', 'Bitstream Vera Sans', 'Computer Modern Sans Serif', 'Lucida Grande', 'Verdana', 'Geneva', 'Lucid', 'Avant Garde', sans-serif; text-anchor: start" x="41.099063" y="44.863875" transform="rotate(-0 41.099063 44.863875)">1e−15</text>
    </g>
   </g>
   <g id="line2d_13">
    <path d="M 66.462699 168.65961 
L 71.586666 169.50551 
L 76.710633 170.35141 
L 81.8346 171.19731 
L 86.958567 172.04321 
L 92.082534 172.88911 
L 97.206501 173.73501 
L 102.330467 174.58091 
L 107.454434 175.42681 
L 112.578401 176.27271 
L 117.702368 177.118609 
L 122.826335 177.964509 
L 127.950302 178.810409 
L 133.074269 179.656309 
L 138.198236 180.502209 
L 143.322203 181.348109 
L 148.44617 182.194009 
L 153.570137 183.039909 
L 158.694104 183.885809 
L 163.818071 184.731709 
L 168.942038 185.577609 
L 174.066005 186.423509 
L 179.189972 187.269409 
L 184.313939 188.115308 
L 189.437905 188.961208 
L 194.561872 189.807108 
L 199.685839 190.653008 
L 204.809806 191.498908 
L 209.933773 192.344808 
L 215.05774 193.190708 
L 220.181707 194.036608 
L 225.305674 194.882508 
L 230.429641 195.728408 
L 235.553608 196.574308 
L 240.677575 197.420208 
L 245.801542 198.266108 
L 250.925509 199.112007 
L 256.049476 199.957907 
L 261.173443 200.803807 
L 266.29741 201.649707 
L 271.421377 202.495607 
L 276.545343 203.341507 
L 281.66931 204.187407 
L 286.793277 205.033307 
L 291.917244 205.879207 
L 297.041211 206.725107 
L 302.165178 207.571007 
L 307.289145 208.416907 
L 312.413112 209.262806 
L 317.537079 210.108706 
L 322.661046 210.954606 
L 327.785013 211.800506 
L 332.90898 212.646406 
L 338.032947 213.492306 
L 343.156914 214.338206 
L 348.280881 215.184106 
L 353.404848 216.030006 
L 358.528815 216.875906 
L 363.652782 217.721806 
L 368.776748 218.567706 
L 373.900715 219.413606 
L 379.024682 220.259505 
L 384.148649 221.105405 
L 389.272616 221.951305 
L 394.396583 222.797205 
L 399.52055 223.643105 
L 404.644517 224.489005 
L 409.768484 225.334905 
L 414.892451 226.180805 
L 420.016418 227.026705 
L 425.140385 227.872605 
L 430.264352 228.718505 
L 435.388319 229.564405 
L 440.512286 230.410305 
L 445.636253 231.256204 
L 450.76022 232.102104 
L 455.884186 232.948004 
L 461.008153 233.793904 
L 466.13212 234.639804 
L 471.256087 235.485704 
L 476.380054 236.331604 
L 481.504021 237.177504 
L 486.627988 238.023404 
L 491.751955 238.869304 
L 496.875922 239.715204 
L 501.999889 240.561104 
L 507.123856 241.407004 
L 512.247823 242.252903 
L 517.37179 243.098803 
L 522.495757 243.944703 
L 527.619724 244.790603 
L 532.743691 245.636503 
L 537.867658 246.482403 
L 542.991624 247.328303 
L 548.115591 248.174203 
L 553.239558 249.020103 
L 558.363525 249.866003 
L 563.487492 250.711903 
L 568.611459 251.557803 
L 573.735426 252.403703 
" clip-path="url(#pb9e8f7d149)" style="fill: none; stroke: #000000; stroke-width: 2; stroke-linecap: square"/>
   </g>
   <g id="patch_3">
    <path d="M 41.099063 491.383875 
L 41.099063 47.863875 
" style="fill: none; stroke: #000000; stroke-width: 0.8; stroke-linejoin: miter; stroke-linecap: square"/>
   </g>
   <g id="patch_4">
    <path d="M 41.099062 491.383875 
L 599.099062 491.383875 
" style="fill: none; stroke: #000000; stroke-width: 0.8; stroke-linejoin: miter; stroke-linecap: square"/>
   </g>
   <g id="text_17">
    <text style="font-size: 9px; font-family: 'Helvetica', 'Arial', 'DejaVu Sans', 'Bitstream Vera Sans', 'Computer Modern Sans Serif', 'Lucida Grande', 'Verdana', 'Geneva', 'Lucid', 'Avant Garde', sans-serif; text-anchor: start" x="525.428801" y="196.688799" transform="rotate(-0 525.428801 196.688799)">A</text>
   </g>
   <g id="text_18">
    <text style="font-size: 9px; font-family: 'Helvetica', 'Arial', 'DejaVu Sans', 'Bitstream Vera Sans', 'Computer Modern Sans Serif', 'Lucida Grande', 'Verdana', 'Geneva', 'Lucid', 'Avant Garde', sans-serif; text-anchor: start" x="566.698446" y="216.778053" transform="rotate(-0 566.698446 216.778053)">AL</text>
   </g>
   <g id="text_19">
    <text style="font-size: 9px; font-family: 'Helvetica', 'Arial', 'DejaVu Sans', 'Bitstream Vera Sans', 'Computer Modern Sans Serif', 'Lucida Grande', 'Verdana', 'Geneva', 'Lucid', 'Avant Garde', sans-serif; text-anchor: start" x="71.462699" y="285.331358" transform="rotate(-0 71.462699 285.331358)">AM</text>
   </g>
   <g id="text_20">
    <text style="font-size: 9px; font-family: 'Helvetica', 'Arial', 'DejaVu Sans', 'Bitstream Vera Sans', 'Computer Modern Sans Serif', 'Lucida Grande', 'Verdana', 'Geneva', 'Lucid', 'Avant Garde', sans-serif; text-anchor: start" x="195.271636" y="157.326098" transform="rotate(-0 195.271636 157.326098)">LM</text>
   </g>
   <g id="text_21">
    <text style="font-size: 9px; font-family: 'Helvetica', 'Arial', 'DejaVu Sans', 'Bitstream Vera Sans', 'Computer Modern Sans Serif', 'Lucida Grande', 'Verdana', 'Geneva', 'Lucid', 'Avant Garde', sans-serif; text-anchor: start" x="325.958847" y="63.023875" transform="rotate(-0 325.958847 63.023875)">LI</text>
   </g>
   <g id="text_22">
    <text style="font-size: 9px; font-family: 'Helvetica', 'Arial', 'DejaVu Sans', 'Bitstream Vera Sans', 'Computer Modern Sans Serif', 'Lucida Grande', 'Verdana', 'Geneva', 'Lucid', 'Avant Garde', sans-serif; text-anchor: start" x="578.735426" y="466.223875" transform="rotate(-0 578.735426 466.223875)">PM</text>
   </g>
   <g id="text_23">
    <text style="font-size: 9px; font-family: 'Helvetica', 'Arial', 'DejaVu Sans', 'Bitstream Vera Sans', 'Computer Modern Sans Serif', 'Lucida Grande', 'Verdana', 'Geneva', 'Lucid', 'Avant Garde', sans-serif; text-anchor: start" x="364.64914" y="193.833473" transform="rotate(-0 364.64914 193.833473)">POR</text>
   </g>
   <g id="text_24">
    <text style="font-size: 9px; font-family: 'Helvetica', 'Arial', 'DejaVu Sans', 'Bitstream Vera Sans', 'Computer Modern Sans Serif', 'Lucida Grande', 'Verdana', 'Geneva', 'Lucid', 'Avant Garde', sans-serif; text-anchor: start" x="470.402606" y="147.230482" transform="rotate(-0 470.402606 147.230482)">RL</text>
   </g>
   <g id="text_25">
    <text style="font-size: 12px; font-family: 'Helvetica', 'Arial', 'DejaVu Sans', 'Bitstream Vera Sans', 'Computer Modern Sans Serif', 'Lucida Grande', 'Verdana', 'Geneva', 'Lucid', 'Avant Garde', sans-serif" transform="translate(274.41 15.808125)">p12 - All Regions</text>
    <text style="font-size: 12px; font-family: 'Helvetica', 'Arial', 'DejaVu Sans', 'Bitstream Vera Sans', 'Computer Modern Sans Serif', 'Lucida Grande', 'Verdana', 'Geneva', 'Lucid', 'Avant Garde', sans-serif" transform="translate(228.396563 28.961625)">Imputed Data Analysis (combined)</text>
    <text style="font-size: 12px; font-family: 'Helvetica', 'Arial', 'DejaVu Sans', 'Bitstream Vera Sans', 'Computer Modern Sans Serif', 'Lucida Grande', 'Verdana', 'Geneva', 'Lucid', 'Avant Garde', sans-serif" transform="translate(258.398438 41.863875)">r = -0.2536, r² = 0.0643</text>
   </g>
  </g>
 </g>
 <defs>
  <clipPath id="pb9e8f7d149">
   <rect x="41.099063" y="47.863875" width="558" height="443.52"/>
  </clipPath>
 </defs>
</svg>
