<?xml version="1.0" encoding="utf-8" standalone="no"?>
<!DOCTYPE svg PUBLIC "-//W3C//DTD SVG 1.1//EN"
  "http://www.w3.org/Graphics/SVG/1.1/DTD/svg11.dtd">
<svg xmlns:xlink="http://www.w3.org/1999/xlink" width="608.7975pt" height="530.357937pt" viewBox="0 0 608.7975 530.357937" xmlns="http://www.w3.org/2000/svg" version="1.1">
 <metadata>
  <rdf:RDF xmlns:dc="http://purl.org/dc/elements/1.1/" xmlns:cc="http://creativecommons.org/ns#" xmlns:rdf="http://www.w3.org/1999/02/22-rdf-syntax-ns#">
   <cc:Work>
    <dc:type rdf:resource="http://purl.org/dc/dcmitype/StillImage"/>
    <dc:date>2026-02-24T12:29:43.629997</dc:date>
    <dc:format>image/svg+xml</dc:format>
    <dc:creator>
     <cc:Agent>
      <dc:title>Matplotlib v3.10.5, https://matplotlib.org/</dc:title>
     </cc:Agent>
    </dc:creator>
   </cc:Work>
  </rdf:RDF>
 </metadata>
 <defs>
  <style type="text/css">*{stroke-linejoin: round; stroke-linecap: butt}</style>
 </defs>
 <g id="figure_1">
  <g id="patch_1">
   <path d="M -0 530.357937 
L 608.7975 530.357937 
L 608.7975 0 
L -0 0 
z
" style="fill: #ffffff"/>
  </g>
  <g id="axes_1">
   <g id="patch_2">
    <path d="M 43.5975 491.496375 
L 601.5975 491.496375 
L 601.5975 47.976375 
L 43.5975 47.976375 
z
" style="fill: #ffffff"/>
   </g>
   <g id="PathCollection_1">
    <defs>
     <path id="C0_0_73ee8bd183" d="M 0 5 
C 1.326016 5 2.597899 4.473168 3.535534 3.535534 
C 4.473168 2.597899 5 1.326016 5 -0 
C 5 -1.326016 4.473168 -2.597899 3.535534 -3.535534 
C 2.597899 -4.473168 1.326016 -5 0 -5 
C -1.326016 -5 -2.597899 -4.473168 -3.535534 -3.535534 
C -4.473168 -2.597899 -5 -1.326016 -5 0 
C -5 1.326016 -4.473168 2.597899 -3.535534 3.535534 
C -2.597899 4.473168 -1.326016 5 0 5 
z
"/>
    </defs>
    <g clip-path="url(#p99a71b022e)">
     <use xlink:href="#C0_0_73ee8bd183" x="576.233864" y="112.820111" style="fill: #00008b"/>
    </g>
    <g clip-path="url(#p99a71b022e)">
     <use xlink:href="#C0_0_73ee8bd183" x="269.103161" y="233.807142" style="fill: #00008b"/>
    </g>
    <g clip-path="url(#p99a71b022e)">
     <use xlink:href="#C0_0_73ee8bd183" x="423.716562" y="175.777962" style="fill: #00008b"/>
    </g>
    <g clip-path="url(#p99a71b022e)">
     <use xlink:href="#C0_0_73ee8bd183" x="188.803389" y="394.057734" style="fill: #00008b"/>
    </g>
    <g clip-path="url(#p99a71b022e)">
     <use xlink:href="#C0_0_73ee8bd183" x="172.723332" y="454.580536" style="fill: #00008b"/>
    </g>
    <g clip-path="url(#p99a71b022e)">
     <use xlink:href="#C0_0_73ee8bd183" x="246.636122" y="241.267225" style="fill: #00008b"/>
    </g>
    <g clip-path="url(#p99a71b022e)">
     <use xlink:href="#C0_0_73ee8bd183" x="68.961136" y="471.336375" style="fill: #00008b"/>
    </g>
    <g clip-path="url(#p99a71b022e)">
     <use xlink:href="#C0_0_73ee8bd183" x="427.97328" y="173.368317" style="fill: #00008b"/>
    </g>
   </g>
   <g id="matplotlib.axis_1">
    <g id="xtick_1">
     <g id="line2d_1">
      <defs>
       <path id="m3c7210ab55" d="M 0 0 
L 0 3.5 
" style="stroke: #000000; stroke-width: 0.8"/>
      </defs>
      <g>
       <use xlink:href="#m3c7210ab55" x="103.302205" y="491.496375" style="stroke: #000000; stroke-width: 0.8"/>
      </g>
     </g>
     <g id="text_1">
      <text style="font-size: 10px; font-family: 'Helvetica', 'Arial', 'DejaVu Sans', 'Bitstream Vera Sans', 'Computer Modern Sans Serif', 'Lucida Grande', 'Verdana', 'Geneva', 'Lucid', 'Avant Garde', sans-serif; text-anchor: middle" x="103.302205" y="505.669812" transform="rotate(-0 103.302205 505.669812)">6</text>
     </g>
    </g>
    <g id="xtick_2">
     <g id="line2d_2">
      <g>
       <use xlink:href="#m3c7210ab55" x="180.469852" y="491.496375" style="stroke: #000000; stroke-width: 0.8"/>
      </g>
     </g>
     <g id="text_2">
      <text style="font-size: 10px; font-family: 'Helvetica', 'Arial', 'DejaVu Sans', 'Bitstream Vera Sans', 'Computer Modern Sans Serif', 'Lucida Grande', 'Verdana', 'Geneva', 'Lucid', 'Avant Garde', sans-serif; text-anchor: middle" x="180.469852" y="505.669812" transform="rotate(-0 180.469852 505.669812)">7</text>
     </g>
    </g>
    <g id="xtick_3">
     <g id="line2d_3">
      <g>
       <use xlink:href="#m3c7210ab55" x="257.637499" y="491.496375" style="stroke: #000000; stroke-width: 0.8"/>
      </g>
     </g>
     <g id="text_3">
      <text style="font-size: 10px; font-family: 'Helvetica', 'Arial', 'DejaVu Sans', 'Bitstream Vera Sans', 'Computer Modern Sans Serif', 'Lucida Grande', 'Verdana', 'Geneva', 'Lucid', 'Avant Garde', sans-serif; text-anchor: middle" x="257.637499" y="505.669812" transform="rotate(-0 257.637499 505.669812)">8</text>
     </g>
    </g>
    <g id="xtick_4">
     <g id="line2d_4">
      <g>
       <use xlink:href="#m3c7210ab55" x="334.805146" y="491.496375" style="stroke: #000000; stroke-width: 0.8"/>
      </g>
     </g>
     <g id="text_4">
      <text style="font-size: 10px; font-family: 'Helvetica', 'Arial', 'DejaVu Sans', 'Bitstream Vera Sans', 'Computer Modern Sans Serif', 'Lucida Grande', 'Verdana', 'Geneva', 'Lucid', 'Avant Garde', sans-serif; text-anchor: middle" x="334.805146" y="505.669812" transform="rotate(-0 334.805146 505.669812)">9</text>
     </g>
    </g>
    <g id="xtick_5">
     <g id="line2d_5">
      <g>
       <use xlink:href="#m3c7210ab55" x="411.972793" y="491.496375" style="stroke: #000000; stroke-width: 0.8"/>
      </g>
     </g>
     <g id="text_5">
      <text style="font-size: 10px; font-family: 'Helvetica', 'Arial', 'DejaVu Sans', 'Bitstream Vera Sans', 'Computer Modern Sans Serif', 'Lucida Grande', 'Verdana', 'Geneva', 'Lucid', 'Avant Garde', sans-serif; text-anchor: middle" x="411.972793" y="505.669812" transform="rotate(-0 411.972793 505.669812)">10</text>
     </g>
    </g>
    <g id="xtick_6">
     <g id="line2d_6">
      <g>
       <use xlink:href="#m3c7210ab55" x="489.14044" y="491.496375" style="stroke: #000000; stroke-width: 0.8"/>
      </g>
     </g>
     <g id="text_6">
      <text style="font-size: 10px; font-family: 'Helvetica', 'Arial', 'DejaVu Sans', 'Bitstream Vera Sans', 'Computer Modern Sans Serif', 'Lucida Grande', 'Verdana', 'Geneva', 'Lucid', 'Avant Garde', sans-serif; text-anchor: middle" x="489.14044" y="505.669812" transform="rotate(-0 489.14044 505.669812)">11</text>
     </g>
    </g>
    <g id="xtick_7">
     <g id="line2d_7">
      <g>
       <use xlink:href="#m3c7210ab55" x="566.308087" y="491.496375" style="stroke: #000000; stroke-width: 0.8"/>
      </g>
     </g>
     <g id="text_7">
      <text style="font-size: 10px; font-family: 'Helvetica', 'Arial', 'DejaVu Sans', 'Bitstream Vera Sans', 'Computer Modern Sans Serif', 'Lucida Grande', 'Verdana', 'Geneva', 'Lucid', 'Avant Garde', sans-serif; text-anchor: middle" x="566.308087" y="505.669812" transform="rotate(-0 566.308087 505.669812)">12</text>
     </g>
    </g>
    <g id="text_8">
     <text style="font-size: 12px; font-family: 'Helvetica', 'Arial', 'DejaVu Sans', 'Bitstream Vera Sans', 'Computer Modern Sans Serif', 'Lucida Grande', 'Verdana', 'Geneva', 'Lucid', 'Avant Garde', sans-serif; text-anchor: middle" x="322.5975" y="520.502937" transform="rotate(-0 322.5975 520.502937)">H2B Intensity (Averaged)</text>
    </g>
   </g>
   <g id="matplotlib.axis_2">
    <g id="ytick_1">
     <g id="line2d_8">
      <defs>
       <path id="mf4ec859102" d="M 0 0 
L -3.5 0 
" style="stroke: #000000; stroke-width: 0.8"/>
      </defs>
      <g>
       <use xlink:href="#mf4ec859102" x="43.5975" y="418.514954" style="stroke: #000000; stroke-width: 0.8"/>
      </g>
     </g>
     <g id="text_9">
      <text style="font-size: 10px; font-family: 'Helvetica', 'Arial', 'DejaVu Sans', 'Bitstream Vera Sans', 'Computer Modern Sans Serif', 'Lucida Grande', 'Verdana', 'Geneva', 'Lucid', 'Avant Garde', sans-serif; text-anchor: end" x="36.5975" y="422.101672" transform="rotate(-0 36.5975 422.101672)">1.0</text>
     </g>
    </g>
    <g id="ytick_2">
     <g id="line2d_9">
      <g>
       <use xlink:href="#mf4ec859102" x="43.5975" y="334.96119" style="stroke: #000000; stroke-width: 0.8"/>
      </g>
     </g>
     <g id="text_10">
      <text style="font-size: 10px; font-family: 'Helvetica', 'Arial', 'DejaVu Sans', 'Bitstream Vera Sans', 'Computer Modern Sans Serif', 'Lucida Grande', 'Verdana', 'Geneva', 'Lucid', 'Avant Garde', sans-serif; text-anchor: end" x="36.5975" y="338.547909" transform="rotate(-0 36.5975 338.547909)">1.5</text>
     </g>
    </g>
    <g id="ytick_3">
     <g id="line2d_10">
      <g>
       <use xlink:href="#mf4ec859102" x="43.5975" y="251.407426" style="stroke: #000000; stroke-width: 0.8"/>
      </g>
     </g>
     <g id="text_11">
      <text style="font-size: 10px; font-family: 'Helvetica', 'Arial', 'DejaVu Sans', 'Bitstream Vera Sans', 'Computer Modern Sans Serif', 'Lucida Grande', 'Verdana', 'Geneva', 'Lucid', 'Avant Garde', sans-serif; text-anchor: end" x="36.5975" y="254.994145" transform="rotate(-0 36.5975 254.994145)">2.0</text>
     </g>
    </g>
    <g id="ytick_4">
     <g id="line2d_11">
      <g>
       <use xlink:href="#mf4ec859102" x="43.5975" y="167.853663" style="stroke: #000000; stroke-width: 0.8"/>
      </g>
     </g>
     <g id="text_12">
      <text style="font-size: 10px; font-family: 'Helvetica', 'Arial', 'DejaVu Sans', 'Bitstream Vera Sans', 'Computer Modern Sans Serif', 'Lucida Grande', 'Verdana', 'Geneva', 'Lucid', 'Avant Garde', sans-serif; text-anchor: end" x="36.5975" y="171.440382" transform="rotate(-0 36.5975 171.440382)">2.5</text>
     </g>
    </g>
    <g id="ytick_5">
     <g id="line2d_12">
      <g>
       <use xlink:href="#mf4ec859102" x="43.5975" y="84.299899" style="stroke: #000000; stroke-width: 0.8"/>
      </g>
     </g>
     <g id="text_13">
      <text style="font-size: 10px; font-family: 'Helvetica', 'Arial', 'DejaVu Sans', 'Bitstream Vera Sans', 'Computer Modern Sans Serif', 'Lucida Grande', 'Verdana', 'Geneva', 'Lucid', 'Avant Garde', sans-serif; text-anchor: end" x="36.5975" y="87.886618" transform="rotate(-0 36.5975 87.886618)">3.0</text>
     </g>
    </g>
    <g id="text_14">
     <text style="font-size: 12px; font-family: 'Helvetica', 'Arial', 'DejaVu Sans', 'Bitstream Vera Sans', 'Computer Modern Sans Serif', 'Lucida Grande', 'Verdana', 'Geneva', 'Lucid', 'Avant Garde', sans-serif; text-anchor: middle" x="16.0425" y="269.736375" transform="rotate(-90 16.0425 269.736375)">VSV Intensity (Averaged)</text>
    </g>
   </g>
   <g id="line2d_13">
    <path d="M 68.961136 456.562715 
L 74.085103 452.639216 
L 79.20907 448.715718 
L 84.333037 444.792219 
L 89.457004 440.868721 
L 94.580971 436.945223 
L 99.704938 433.021724 
L 104.828905 429.098226 
L 109.952872 425.174728 
L 115.076839 421.251229 
L 120.200806 417.327731 
L 125.324773 413.404232 
L 130.44874 409.480734 
L 135.572707 405.557236 
L 140.696674 401.633737 
L 145.82064 397.710239 
L 150.944607 393.78674 
L 156.068574 389.863242 
L 161.192541 385.939744 
L 166.316508 382.016245 
L 171.440475 378.092747 
L 176.564442 374.169249 
L 181.688409 370.24575 
L 186.812376 366.322252 
L 191.936343 362.398753 
L 197.06031 358.475255 
L 202.184277 354.551757 
L 207.308244 350.628258 
L 212.432211 346.70476 
L 217.556178 342.781262 
L 222.680145 338.857763 
L 227.804112 334.934265 
L 232.928079 331.010766 
L 238.052045 327.087268 
L 243.176012 323.16377 
L 248.299979 319.240271 
L 253.423946 315.316773 
L 258.547913 311.393275 
L 263.67188 307.469776 
L 268.795847 303.546278 
L 273.919814 299.622779 
L 279.043781 295.699281 
L 284.167748 291.775783 
L 289.291715 287.852284 
L 294.415682 283.928786 
L 299.539649 280.005287 
L 304.663616 276.081789 
L 309.787583 272.158291 
L 314.91155 268.234792 
L 320.035517 264.311294 
L 325.159483 260.387796 
L 330.28345 256.464297 
L 335.407417 252.540799 
L 340.531384 248.6173 
L 345.655351 244.693802 
L 350.779318 240.770304 
L 355.903285 236.846805 
L 361.027252 232.923307 
L 366.151219 228.999809 
L 371.275186 225.07631 
L 376.399153 221.152812 
L 381.52312 217.229313 
L 386.647087 213.305815 
L 391.771054 209.382317 
L 396.895021 205.458818 
L 402.018988 201.53532 
L 407.142955 197.611822 
L 412.266921 193.688323 
L 417.390888 189.764825 
L 422.514855 185.841326 
L 427.638822 181.917828 
L 432.762789 177.99433 
L 437.886756 174.070831 
L 443.010723 170.147333 
L 448.13469 166.223834 
L 453.258657 162.300336 
L 458.382624 158.376838 
L 463.506591 154.453339 
L 468.630558 150.529841 
L 473.754525 146.606343 
L 478.878492 142.682844 
L 484.002459 138.759346 
L 489.126426 134.835847 
L 494.250393 130.912349 
L 499.37436 126.988851 
L 504.498326 123.065352 
L 509.622293 119.141854 
L 514.74626 115.218356 
L 519.870227 111.294857 
L 524.994194 107.371359 
L 530.118161 103.44786 
L 535.242128 99.524362 
L 540.366095 95.600864 
L 545.490062 91.677365 
L 550.614029 87.753867 
L 555.737996 83.830369 
L 560.861963 79.90687 
L 565.98593 75.983372 
L 571.109897 72.059873 
L 576.233864 68.136375 
" clip-path="url(#p99a71b022e)" style="fill: none; stroke: #000000; stroke-width: 2; stroke-linecap: square"/>
   </g>
   <g id="patch_3">
    <path d="M 43.5975 491.496375 
L 43.5975 47.976375 
" style="fill: none; stroke: #000000; stroke-width: 0.8; stroke-linejoin: miter; stroke-linecap: square"/>
   </g>
   <g id="patch_4">
    <path d="M 43.5975 491.496375 
L 601.5975 491.496375 
" style="fill: none; stroke: #000000; stroke-width: 0.8; stroke-linejoin: miter; stroke-linecap: square"/>
   </g>
   <g id="text_15">
    <text style="font-size: 9px; font-family: 'Helvetica', 'Arial', 'DejaVu Sans', 'Bitstream Vera Sans', 'Computer Modern Sans Serif', 'Lucida Grande', 'Verdana', 'Geneva', 'Lucid', 'Avant Garde', sans-serif; text-anchor: start" x="581.233864" y="107.820111" transform="rotate(-0 581.233864 107.820111)">A</text>
   </g>
   <g id="text_16">
    <text style="font-size: 9px; font-family: 'Helvetica', 'Arial', 'DejaVu Sans', 'Bitstream Vera Sans', 'Computer Modern Sans Serif', 'Lucida Grande', 'Verdana', 'Geneva', 'Lucid', 'Avant Garde', sans-serif; text-anchor: start" x="274.103161" y="228.807142" transform="rotate(-0 274.103161 228.807142)">AL</text>
   </g>
   <g id="text_17">
    <text style="font-size: 9px; font-family: 'Helvetica', 'Arial', 'DejaVu Sans', 'Bitstream Vera Sans', 'Computer Modern Sans Serif', 'Lucida Grande', 'Verdana', 'Geneva', 'Lucid', 'Avant Garde', sans-serif; text-anchor: start" x="428.716562" y="170.777962" transform="rotate(-0 428.716562 170.777962)">AM</text>
   </g>
   <g id="text_18">
    <text style="font-size: 9px; font-family: 'Helvetica', 'Arial', 'DejaVu Sans', 'Bitstream Vera Sans', 'Computer Modern Sans Serif', 'Lucida Grande', 'Verdana', 'Geneva', 'Lucid', 'Avant Garde', sans-serif; text-anchor: start" x="193.803389" y="389.057734" transform="rotate(-0 193.803389 389.057734)">LM</text>
   </g>
   <g id="text_19">
    <text style="font-size: 9px; font-family: 'Helvetica', 'Arial', 'DejaVu Sans', 'Bitstream Vera Sans', 'Computer Modern Sans Serif', 'Lucida Grande', 'Verdana', 'Geneva', 'Lucid', 'Avant Garde', sans-serif; text-anchor: start" x="177.723332" y="449.580536" transform="rotate(-0 177.723332 449.580536)">LI</text>
   </g>
   <g id="text_20">
    <text style="font-size: 9px; font-family: 'Helvetica', 'Arial', 'DejaVu Sans', 'Bitstream Vera Sans', 'Computer Modern Sans Serif', 'Lucida Grande', 'Verdana', 'Geneva', 'Lucid', 'Avant Garde', sans-serif; text-anchor: start" x="251.636122" y="236.267225" transform="rotate(-0 251.636122 236.267225)">PM</text>
   </g>
   <g id="text_21">
    <text style="font-size: 9px; font-family: 'Helvetica', 'Arial', 'DejaVu Sans', 'Bitstream Vera Sans', 'Computer Modern Sans Serif', 'Lucida Grande', 'Verdana', 'Geneva', 'Lucid', 'Avant Garde', sans-serif; text-anchor: start" x="73.961136" y="466.336375" transform="rotate(-0 73.961136 466.336375)">POR</text>
   </g>
   <g id="text_22">
    <text style="font-size: 9px; font-family: 'Helvetica', 'Arial', 'DejaVu Sans', 'Bitstream Vera Sans', 'Computer Modern Sans Serif', 'Lucida Grande', 'Verdana', 'Geneva', 'Lucid', 'Avant Garde', sans-serif; text-anchor: start" x="432.97328" y="168.368317" transform="rotate(-0 432.97328 168.368317)">RL</text>
   </g>
   <g id="text_23">
    <text style="font-size: 12px; font-family: 'Helvetica', 'Arial', 'DejaVu Sans', 'Bitstream Vera Sans', 'Computer Modern Sans Serif', 'Lucida Grande', 'Verdana', 'Geneva', 'Lucid', 'Avant Garde', sans-serif" transform="translate(276.908438 15.808125)">p12 - All Regions</text>
    <text style="font-size: 12px; font-family: 'Helvetica', 'Arial', 'DejaVu Sans', 'Bitstream Vera Sans', 'Computer Modern Sans Serif', 'Lucida Grande', 'Verdana', 'Geneva', 'Lucid', 'Avant Garde', sans-serif" transform="translate(257.575312 29.074125)">Complete Pairs Analysis</text>
    <text style="font-size: 12px; font-family: 'Helvetica', 'Arial', 'DejaVu Sans', 'Bitstream Vera Sans', 'Computer Modern Sans Serif', 'Lucida Grande', 'Verdana', 'Geneva', 'Lucid', 'Avant Garde', sans-serif" transform="translate(262.894688 41.976375)">r = 0.9209, r² = 0.8481</text>
   </g>
  </g>
 </g>
 <defs>
  <clipPath id="p99a71b022e">
   <rect x="43.5975" y="47.976375" width="558" height="443.52"/>
  </clipPath>
 </defs>
</svg>
