<?xml version="1.0" encoding="utf-8" standalone="no"?>
<!DOCTYPE svg PUBLIC "-//W3C//DTD SVG 1.1//EN"
  "http://www.w3.org/Graphics/SVG/1.1/DTD/svg11.dtd">
<svg xmlns:xlink="http://www.w3.org/1999/xlink" width="600.458437pt" height="530.192937pt" viewBox="0 0 600.458437 530.192937" xmlns="http://www.w3.org/2000/svg" version="1.1">
 <metadata>
  <rdf:RDF xmlns:dc="http://purl.org/dc/elements/1.1/" xmlns:cc="http://creativecommons.org/ns#" xmlns:rdf="http://www.w3.org/1999/02/22-rdf-syntax-ns#">
   <cc:Work>
    <dc:type rdf:resource="http://purl.org/dc/dcmitype/StillImage"/>
    <dc:date>2026-02-24T12:29:44.437839</dc:date>
    <dc:format>image/svg+xml</dc:format>
    <dc:creator>
     <cc:Agent>
      <dc:title>Matplotlib v3.10.5, https://matplotlib.org/</dc:title>
     </cc:Agent>
    </dc:creator>
   </cc:Work>
  </rdf:RDF>
 </metadata>
 <defs>
  <style type="text/css">*{stroke-linejoin: round; stroke-linecap: butt}</style>
 </defs>
 <g id="figure_1">
  <g id="patch_1">
   <path d="M 0 530.192937 
L 600.458437 530.192937 
L 600.458437 0 
L 0 0 
z
" style="fill: #ffffff"/>
  </g>
  <g id="axes_1">
   <g id="patch_2">
    <path d="M 35.258437 491.331375 
L 593.258438 491.331375 
L 593.258438 47.811375 
L 35.258437 47.811375 
z
" style="fill: #ffffff"/>
   </g>
   <g id="PathCollection_1">
    <defs>
     <path id="C0_0_44bc363768" d="M 0 5 
C 1.326016 5 2.597899 4.473168 3.535534 3.535534 
C 4.473168 2.597899 5 1.326016 5 -0 
C 5 -1.326016 4.473168 -2.597899 3.535534 -3.535534 
C 2.597899 -4.473168 1.326016 -5 0 -5 
C -1.326016 -5 -2.597899 -4.473168 -3.535534 -3.535534 
C -4.473168 -2.597899 -5 -1.326016 -5 0 
C -5 1.326016 -4.473168 2.597899 -3.535534 3.535534 
C -2.597899 4.473168 -1.326016 5 0 5 
z
"/>
    </defs>
    <g clip-path="url(#pca188ad636)">
     <use xlink:href="#C0_0_44bc363768" x="567.894801" y="67.971375" style="fill: #00008b"/>
    </g>
    <g clip-path="url(#pca188ad636)">
     <use xlink:href="#C0_0_44bc363768" x="439.453733" y="172.570586" style="fill: #00008b"/>
    </g>
    <g clip-path="url(#pca188ad636)">
     <use xlink:href="#C0_0_44bc363768" x="518.522721" y="68.551166" style="fill: #00008b"/>
    </g>
    <g clip-path="url(#pca188ad636)">
     <use xlink:href="#C0_0_44bc363768" x="378.837594" y="352.159891" style="fill: #00008b"/>
    </g>
    <g clip-path="url(#pca188ad636)">
     <use xlink:href="#C0_0_44bc363768" x="309.522359" y="377.781759" style="fill: #00008b"/>
    </g>
    <g clip-path="url(#pca188ad636)">
     <use xlink:href="#C0_0_44bc363768" x="424.155048" y="97.220706" style="fill: #00008b"/>
    </g>
    <g clip-path="url(#pca188ad636)">
     <use xlink:href="#C0_0_44bc363768" x="60.622074" y="406.727377" style="fill: #00008b"/>
    </g>
    <g clip-path="url(#pca188ad636)">
     <use xlink:href="#C0_0_44bc363768" x="562.724593" y="84.389939" style="fill: #00008b"/>
    </g>
   </g>
   <g id="matplotlib.axis_1">
    <g id="xtick_1">
     <g id="line2d_1">
      <defs>
       <path id="m2827d6cc6c" d="M 0 0 
L 0 3.5 
" style="stroke: #000000; stroke-width: 0.8"/>
      </defs>
      <g>
       <use xlink:href="#m2827d6cc6c" x="114.621141" y="491.331375" style="stroke: #000000; stroke-width: 0.8"/>
      </g>
     </g>
     <g id="text_1">
      <text style="font-size: 10px; font-family: 'Helvetica', 'Arial', 'DejaVu Sans', 'Bitstream Vera Sans', 'Computer Modern Sans Serif', 'Lucida Grande', 'Verdana', 'Geneva', 'Lucid', 'Avant Garde', sans-serif; text-anchor: middle" x="114.621141" y="505.504812" transform="rotate(-0 114.621141 505.504812)">6</text>
     </g>
    </g>
    <g id="xtick_2">
     <g id="line2d_2">
      <g>
       <use xlink:href="#m2827d6cc6c" x="212.638995" y="491.331375" style="stroke: #000000; stroke-width: 0.8"/>
      </g>
     </g>
     <g id="text_2">
      <text style="font-size: 10px; font-family: 'Helvetica', 'Arial', 'DejaVu Sans', 'Bitstream Vera Sans', 'Computer Modern Sans Serif', 'Lucida Grande', 'Verdana', 'Geneva', 'Lucid', 'Avant Garde', sans-serif; text-anchor: middle" x="212.638995" y="505.504812" transform="rotate(-0 212.638995 505.504812)">8</text>
     </g>
    </g>
    <g id="xtick_3">
     <g id="line2d_3">
      <g>
       <use xlink:href="#m2827d6cc6c" x="310.65685" y="491.331375" style="stroke: #000000; stroke-width: 0.8"/>
      </g>
     </g>
     <g id="text_3">
      <text style="font-size: 10px; font-family: 'Helvetica', 'Arial', 'DejaVu Sans', 'Bitstream Vera Sans', 'Computer Modern Sans Serif', 'Lucida Grande', 'Verdana', 'Geneva', 'Lucid', 'Avant Garde', sans-serif; text-anchor: middle" x="310.65685" y="505.504812" transform="rotate(-0 310.65685 505.504812)">10</text>
     </g>
    </g>
    <g id="xtick_4">
     <g id="line2d_4">
      <g>
       <use xlink:href="#m2827d6cc6c" x="408.674704" y="491.331375" style="stroke: #000000; stroke-width: 0.8"/>
      </g>
     </g>
     <g id="text_4">
      <text style="font-size: 10px; font-family: 'Helvetica', 'Arial', 'DejaVu Sans', 'Bitstream Vera Sans', 'Computer Modern Sans Serif', 'Lucida Grande', 'Verdana', 'Geneva', 'Lucid', 'Avant Garde', sans-serif; text-anchor: middle" x="408.674704" y="505.504812" transform="rotate(-0 408.674704 505.504812)">12</text>
     </g>
    </g>
    <g id="xtick_5">
     <g id="line2d_5">
      <g>
       <use xlink:href="#m2827d6cc6c" x="506.692559" y="491.331375" style="stroke: #000000; stroke-width: 0.8"/>
      </g>
     </g>
     <g id="text_5">
      <text style="font-size: 10px; font-family: 'Helvetica', 'Arial', 'DejaVu Sans', 'Bitstream Vera Sans', 'Computer Modern Sans Serif', 'Lucida Grande', 'Verdana', 'Geneva', 'Lucid', 'Avant Garde', sans-serif; text-anchor: middle" x="506.692559" y="505.504812" transform="rotate(-0 506.692559 505.504812)">14</text>
     </g>
    </g>
    <g id="text_6">
     <text style="font-size: 12px; font-family: 'Helvetica', 'Arial', 'DejaVu Sans', 'Bitstream Vera Sans', 'Computer Modern Sans Serif', 'Lucida Grande', 'Verdana', 'Geneva', 'Lucid', 'Avant Garde', sans-serif; text-anchor: middle" x="314.258438" y="520.337937" transform="rotate(-0 314.258438 520.337937)">H2B Intensity (Averaged)</text>
    </g>
   </g>
   <g id="matplotlib.axis_2">
    <g id="ytick_1">
     <g id="line2d_6">
      <defs>
       <path id="mb57614132b" d="M 0 0 
L -3.5 0 
" style="stroke: #000000; stroke-width: 0.8"/>
      </defs>
      <g>
       <use xlink:href="#mb57614132b" x="35.258437" y="418.839126" style="stroke: #000000; stroke-width: 0.8"/>
      </g>
     </g>
     <g id="text_7">
      <text style="font-size: 10px; font-family: 'Helvetica', 'Arial', 'DejaVu Sans', 'Bitstream Vera Sans', 'Computer Modern Sans Serif', 'Lucida Grande', 'Verdana', 'Geneva', 'Lucid', 'Avant Garde', sans-serif; text-anchor: end" x="28.258437" y="422.425845" transform="rotate(-0 28.258437 422.425845)">1</text>
     </g>
    </g>
    <g id="ytick_2">
     <g id="line2d_7">
      <g>
       <use xlink:href="#mb57614132b" x="35.258437" y="335.256533" style="stroke: #000000; stroke-width: 0.8"/>
      </g>
     </g>
     <g id="text_8">
      <text style="font-size: 10px; font-family: 'Helvetica', 'Arial', 'DejaVu Sans', 'Bitstream Vera Sans', 'Computer Modern Sans Serif', 'Lucida Grande', 'Verdana', 'Geneva', 'Lucid', 'Avant Garde', sans-serif; text-anchor: end" x="28.258437" y="338.843251" transform="rotate(-0 28.258437 338.843251)">2</text>
     </g>
    </g>
    <g id="ytick_3">
     <g id="line2d_8">
      <g>
       <use xlink:href="#mb57614132b" x="35.258437" y="251.673939" style="stroke: #000000; stroke-width: 0.8"/>
      </g>
     </g>
     <g id="text_9">
      <text style="font-size: 10px; font-family: 'Helvetica', 'Arial', 'DejaVu Sans', 'Bitstream Vera Sans', 'Computer Modern Sans Serif', 'Lucida Grande', 'Verdana', 'Geneva', 'Lucid', 'Avant Garde', sans-serif; text-anchor: end" x="28.258437" y="255.260658" transform="rotate(-0 28.258437 255.260658)">3</text>
     </g>
    </g>
    <g id="ytick_4">
     <g id="line2d_9">
      <g>
       <use xlink:href="#mb57614132b" x="35.258437" y="168.091346" style="stroke: #000000; stroke-width: 0.8"/>
      </g>
     </g>
     <g id="text_10">
      <text style="font-size: 10px; font-family: 'Helvetica', 'Arial', 'DejaVu Sans', 'Bitstream Vera Sans', 'Computer Modern Sans Serif', 'Lucida Grande', 'Verdana', 'Geneva', 'Lucid', 'Avant Garde', sans-serif; text-anchor: end" x="28.258437" y="171.678064" transform="rotate(-0 28.258437 171.678064)">4</text>
     </g>
    </g>
    <g id="ytick_5">
     <g id="line2d_10">
      <g>
       <use xlink:href="#mb57614132b" x="35.258437" y="84.508752" style="stroke: #000000; stroke-width: 0.8"/>
      </g>
     </g>
     <g id="text_11">
      <text style="font-size: 10px; font-family: 'Helvetica', 'Arial', 'DejaVu Sans', 'Bitstream Vera Sans', 'Computer Modern Sans Serif', 'Lucida Grande', 'Verdana', 'Geneva', 'Lucid', 'Avant Garde', sans-serif; text-anchor: end" x="28.258437" y="88.095471" transform="rotate(-0 28.258437 88.095471)">5</text>
     </g>
    </g>
    <g id="text_12">
     <text style="font-size: 12px; font-family: 'Helvetica', 'Arial', 'DejaVu Sans', 'Bitstream Vera Sans', 'Computer Modern Sans Serif', 'Lucida Grande', 'Verdana', 'Geneva', 'Lucid', 'Avant Garde', sans-serif; text-anchor: middle" x="16.0425" y="269.571375" transform="rotate(-90 16.0425 269.571375)">VSV Intensity (Averaged)</text>
    </g>
   </g>
   <g id="line2d_11">
    <path d="M 60.622074 471.171375 
L 65.746041 467.218731 
L 70.870008 463.266088 
L 75.993975 459.313444 
L 81.117942 455.360801 
L 86.241909 451.408157 
L 91.365876 447.455514 
L 96.489842 443.50287 
L 101.613809 439.550227 
L 106.737776 435.597583 
L 111.861743 431.64494 
L 116.98571 427.692296 
L 122.109677 423.739653 
L 127.233644 419.787009 
L 132.357611 415.834365 
L 137.481578 411.881722 
L 142.605545 407.929078 
L 147.729512 403.976435 
L 152.853479 400.023791 
L 157.977446 396.071148 
L 163.101413 392.118504 
L 168.22538 388.165861 
L 173.349347 384.213217 
L 178.473314 380.260574 
L 183.59728 376.30793 
L 188.721247 372.355287 
L 193.845214 368.402643 
L 198.969181 364.449999 
L 204.093148 360.497356 
L 209.217115 356.544712 
L 214.341082 352.592069 
L 219.465049 348.639425 
L 224.589016 344.686782 
L 229.712983 340.734138 
L 234.83695 336.781495 
L 239.960917 332.828851 
L 245.084884 328.876208 
L 250.208851 324.923564 
L 255.332818 320.970921 
L 260.456785 317.018277 
L 265.580752 313.065633 
L 270.704718 309.11299 
L 275.828685 305.160346 
L 280.952652 301.207703 
L 286.076619 297.255059 
L 291.200586 293.302416 
L 296.324553 289.349772 
L 301.44852 285.397129 
L 306.572487 281.444485 
L 311.696454 277.491842 
L 316.820421 273.539198 
L 321.944388 269.586555 
L 327.068355 265.633911 
L 332.192322 261.681268 
L 337.316289 257.728624 
L 342.440256 253.77598 
L 347.564223 249.823337 
L 352.68819 245.870693 
L 357.812157 241.91805 
L 362.936123 237.965406 
L 368.06009 234.012763 
L 373.184057 230.060119 
L 378.308024 226.107476 
L 383.431991 222.154832 
L 388.555958 218.202189 
L 393.679925 214.249545 
L 398.803892 210.296902 
L 403.927859 206.344258 
L 409.051826 202.391614 
L 414.175793 198.438971 
L 419.29976 194.486327 
L 424.423727 190.533684 
L 429.547694 186.58104 
L 434.671661 182.628397 
L 439.795628 178.675753 
L 444.919595 174.72311 
L 450.043561 170.770466 
L 455.167528 166.817823 
L 460.291495 162.865179 
L 465.415462 158.912536 
L 470.539429 154.959892 
L 475.663396 151.007248 
L 480.787363 147.054605 
L 485.91133 143.101961 
L 491.035297 139.149318 
L 496.159264 135.196674 
L 501.283231 131.244031 
L 506.407198 127.291387 
L 511.531165 123.338744 
L 516.655132 119.3861 
L 521.779099 115.433457 
L 526.903066 111.480813 
L 532.027033 107.52817 
L 537.150999 103.575526 
L 542.274966 99.622882 
L 547.398933 95.670239 
L 552.5229 91.717595 
L 557.646867 87.764952 
L 562.770834 83.812308 
L 567.894801 79.859665 
" clip-path="url(#pca188ad636)" style="fill: none; stroke: #000000; stroke-width: 2; stroke-linecap: square"/>
   </g>
   <g id="patch_3">
    <path d="M 35.258437 491.331375 
L 35.258437 47.811375 
" style="fill: none; stroke: #000000; stroke-width: 0.8; stroke-linejoin: miter; stroke-linecap: square"/>
   </g>
   <g id="patch_4">
    <path d="M 35.258437 491.331375 
L 593.258437 491.331375 
" style="fill: none; stroke: #000000; stroke-width: 0.8; stroke-linejoin: miter; stroke-linecap: square"/>
   </g>
   <g id="text_13">
    <text style="font-size: 9px; font-family: 'Helvetica', 'Arial', 'DejaVu Sans', 'Bitstream Vera Sans', 'Computer Modern Sans Serif', 'Lucida Grande', 'Verdana', 'Geneva', 'Lucid', 'Avant Garde', sans-serif; text-anchor: start" x="572.894801" y="62.971375" transform="rotate(-0 572.894801 62.971375)">A</text>
   </g>
   <g id="text_14">
    <text style="font-size: 9px; font-family: 'Helvetica', 'Arial', 'DejaVu Sans', 'Bitstream Vera Sans', 'Computer Modern Sans Serif', 'Lucida Grande', 'Verdana', 'Geneva', 'Lucid', 'Avant Garde', sans-serif; text-anchor: start" x="444.453733" y="167.570586" transform="rotate(-0 444.453733 167.570586)">AL</text>
   </g>
   <g id="text_15">
    <text style="font-size: 9px; font-family: 'Helvetica', 'Arial', 'DejaVu Sans', 'Bitstream Vera Sans', 'Computer Modern Sans Serif', 'Lucida Grande', 'Verdana', 'Geneva', 'Lucid', 'Avant Garde', sans-serif; text-anchor: start" x="523.522721" y="63.551166" transform="rotate(-0 523.522721 63.551166)">AM</text>
   </g>
   <g id="text_16">
    <text style="font-size: 9px; font-family: 'Helvetica', 'Arial', 'DejaVu Sans', 'Bitstream Vera Sans', 'Computer Modern Sans Serif', 'Lucida Grande', 'Verdana', 'Geneva', 'Lucid', 'Avant Garde', sans-serif; text-anchor: start" x="383.837594" y="347.159891" transform="rotate(-0 383.837594 347.159891)">LM</text>
   </g>
   <g id="text_17">
    <text style="font-size: 9px; font-family: 'Helvetica', 'Arial', 'DejaVu Sans', 'Bitstream Vera Sans', 'Computer Modern Sans Serif', 'Lucida Grande', 'Verdana', 'Geneva', 'Lucid', 'Avant Garde', sans-serif; text-anchor: start" x="314.522359" y="372.781759" transform="rotate(-0 314.522359 372.781759)">LI</text>
   </g>
   <g id="text_18">
    <text style="font-size: 9px; font-family: 'Helvetica', 'Arial', 'DejaVu Sans', 'Bitstream Vera Sans', 'Computer Modern Sans Serif', 'Lucida Grande', 'Verdana', 'Geneva', 'Lucid', 'Avant Garde', sans-serif; text-anchor: start" x="429.155048" y="92.220706" transform="rotate(-0 429.155048 92.220706)">PM</text>
   </g>
   <g id="text_19">
    <text style="font-size: 9px; font-family: 'Helvetica', 'Arial', 'DejaVu Sans', 'Bitstream Vera Sans', 'Computer Modern Sans Serif', 'Lucida Grande', 'Verdana', 'Geneva', 'Lucid', 'Avant Garde', sans-serif; text-anchor: start" x="65.622074" y="401.727377" transform="rotate(-0 65.622074 401.727377)">POR</text>
   </g>
   <g id="text_20">
    <text style="font-size: 9px; font-family: 'Helvetica', 'Arial', 'DejaVu Sans', 'Bitstream Vera Sans', 'Computer Modern Sans Serif', 'Lucida Grande', 'Verdana', 'Geneva', 'Lucid', 'Avant Garde', sans-serif; text-anchor: start" x="567.724593" y="79.389939" transform="rotate(-0 567.724593 79.389939)">RL</text>
   </g>
   <g id="text_21">
    <text style="font-size: 12px; font-family: 'Helvetica', 'Arial', 'DejaVu Sans', 'Bitstream Vera Sans', 'Computer Modern Sans Serif', 'Lucida Grande', 'Verdana', 'Geneva', 'Lucid', 'Avant Garde', sans-serif" transform="translate(268.569375 15.808125)">p20 - All Regions</text>
    <text style="font-size: 12px; font-family: 'Helvetica', 'Arial', 'DejaVu Sans', 'Bitstream Vera Sans', 'Computer Modern Sans Serif', 'Lucida Grande', 'Verdana', 'Geneva', 'Lucid', 'Avant Garde', sans-serif" transform="translate(234.887812 28.826625)">Averaged Replicates Analysis</text>
    <text style="font-size: 12px; font-family: 'Helvetica', 'Arial', 'DejaVu Sans', 'Bitstream Vera Sans', 'Computer Modern Sans Serif', 'Lucida Grande', 'Verdana', 'Geneva', 'Lucid', 'Avant Garde', sans-serif" transform="translate(254.555625 41.811375)">r = 0.8585, r² = 0.7370</text>
   </g>
  </g>
 </g>
 <defs>
  <clipPath id="pca188ad636">
   <rect x="35.258437" y="47.811375" width="558" height="443.52"/>
  </clipPath>
 </defs>
</svg>
