<?xml version="1.0" encoding="utf-8" standalone="no"?>
<!DOCTYPE svg PUBLIC "-//W3C//DTD SVG 1.1//EN"
  "http://www.w3.org/Graphics/SVG/1.1/DTD/svg11.dtd">
<svg xmlns:xlink="http://www.w3.org/1999/xlink" width="614.555625pt" height="530.245437pt" viewBox="0 0 614.555625 530.245437" xmlns="http://www.w3.org/2000/svg" version="1.1">
 <metadata>
  <rdf:RDF xmlns:dc="http://purl.org/dc/elements/1.1/" xmlns:cc="http://creativecommons.org/ns#" xmlns:rdf="http://www.w3.org/1999/02/22-rdf-syntax-ns#">
   <cc:Work>
    <dc:type rdf:resource="http://purl.org/dc/dcmitype/StillImage"/>
    <dc:date>2026-02-24T12:29:23.324798</dc:date>
    <dc:format>image/svg+xml</dc:format>
    <dc:creator>
     <cc:Agent>
      <dc:title>Matplotlib v3.10.5, https://matplotlib.org/</dc:title>
     </cc:Agent>
    </dc:creator>
   </cc:Work>
  </rdf:RDF>
 </metadata>
 <defs>
  <style type="text/css">*{stroke-linejoin: round; stroke-linecap: butt}</style>
 </defs>
 <g id="figure_1">
  <g id="patch_1">
   <path d="M 0 530.245437 
L 614.555625 530.245437 
L 614.555625 0 
L 0 0 
z
" style="fill: #ffffff"/>
  </g>
  <g id="axes_1">
   <g id="patch_2">
    <path d="M 49.355625 491.466375 
L 607.355625 491.466375 
L 607.355625 47.946375 
L 49.355625 47.946375 
z
" style="fill: #ffffff"/>
   </g>
   <g id="PathCollection_1">
    <defs>
     <path id="C0_0_bedbea7e98" d="M 0 5 
C 1.326016 5 2.597899 4.473168 3.535534 3.535534 
C 4.473168 2.597899 5 1.326016 5 -0 
C 5 -1.326016 4.473168 -2.597899 3.535534 -3.535534 
C 2.597899 -4.473168 1.326016 -5 0 -5 
C -1.326016 -5 -2.597899 -4.473168 -3.535534 -3.535534 
C -4.473168 -2.597899 -5 -1.326016 -5 0 
C -5 1.326016 -4.473168 2.597899 -3.535534 3.535534 
C -2.597899 4.473168 -1.326016 5 0 5 
z
"/>
    </defs>
    <g clip-path="url(#p0efe85c9e4)">
     <use xlink:href="#C0_0_bedbea7e98" x="74.719261" y="229.386375" style="fill: #00008b"/>
    </g>
    <g clip-path="url(#p0efe85c9e4)">
     <use xlink:href="#C0_0_bedbea7e98" x="74.719261" y="68.106375" style="fill: #00008b"/>
    </g>
    <g clip-path="url(#p0efe85c9e4)">
     <use xlink:href="#C0_0_bedbea7e98" x="74.719261" y="471.306375" style="fill: #00008b"/>
    </g>
    <g clip-path="url(#p0efe85c9e4)">
     <use xlink:href="#C0_0_bedbea7e98" x="74.719261" y="229.386375" style="fill: #00008b"/>
    </g>
    <g clip-path="url(#p0efe85c9e4)">
     <use xlink:href="#C0_0_bedbea7e98" x="74.719261" y="229.386375" style="fill: #00008b"/>
    </g>
    <g clip-path="url(#p0efe85c9e4)">
     <use xlink:href="#C0_0_bedbea7e98" x="74.719261" y="229.386375" style="fill: #00008b"/>
    </g>
    <g clip-path="url(#p0efe85c9e4)">
     <use xlink:href="#C0_0_bedbea7e98" x="581.991989" y="68.106375" style="fill: #00008b"/>
    </g>
    <g clip-path="url(#p0efe85c9e4)">
     <use xlink:href="#C0_0_bedbea7e98" x="74.719261" y="229.386375" style="fill: #00008b"/>
    </g>
   </g>
   <g id="matplotlib.axis_1">
    <g id="xtick_1">
     <g id="line2d_1">
      <defs>
       <path id="m5031c1010f" d="M 0 0 
L 0 3.5 
" style="stroke: #000000; stroke-width: 0.8"/>
      </defs>
      <g>
       <use xlink:href="#m5031c1010f" x="74.719261" y="491.466375" style="stroke: #000000; stroke-width: 0.8"/>
      </g>
     </g>
     <g id="text_1">
      <text style="font-size: 10px; font-family: 'Helvetica', 'Arial', 'DejaVu Sans', 'Bitstream Vera Sans', 'Computer Modern Sans Serif', 'Lucida Grande', 'Verdana', 'Geneva', 'Lucid', 'Avant Garde', sans-serif; text-anchor: middle" x="74.719261" y="505.639812" transform="rotate(-0 74.719261 505.639812)">0.0</text>
     </g>
    </g>
    <g id="xtick_2">
     <g id="line2d_2">
      <g>
       <use xlink:href="#m5031c1010f" x="189.17768" y="491.466375" style="stroke: #000000; stroke-width: 0.8"/>
      </g>
     </g>
     <g id="text_2">
      <text style="font-size: 10px; font-family: 'Helvetica', 'Arial', 'DejaVu Sans', 'Bitstream Vera Sans', 'Computer Modern Sans Serif', 'Lucida Grande', 'Verdana', 'Geneva', 'Lucid', 'Avant Garde', sans-serif; text-anchor: middle" x="189.17768" y="505.639812" transform="rotate(-0 189.17768 505.639812)">0.1</text>
     </g>
    </g>
    <g id="xtick_3">
     <g id="line2d_3">
      <g>
       <use xlink:href="#m5031c1010f" x="303.636098" y="491.466375" style="stroke: #000000; stroke-width: 0.8"/>
      </g>
     </g>
     <g id="text_3">
      <text style="font-size: 10px; font-family: 'Helvetica', 'Arial', 'DejaVu Sans', 'Bitstream Vera Sans', 'Computer Modern Sans Serif', 'Lucida Grande', 'Verdana', 'Geneva', 'Lucid', 'Avant Garde', sans-serif; text-anchor: middle" x="303.636098" y="505.639812" transform="rotate(-0 303.636098 505.639812)">0.2</text>
     </g>
    </g>
    <g id="xtick_4">
     <g id="line2d_4">
      <g>
       <use xlink:href="#m5031c1010f" x="418.094516" y="491.466375" style="stroke: #000000; stroke-width: 0.8"/>
      </g>
     </g>
     <g id="text_4">
      <text style="font-size: 10px; font-family: 'Helvetica', 'Arial', 'DejaVu Sans', 'Bitstream Vera Sans', 'Computer Modern Sans Serif', 'Lucida Grande', 'Verdana', 'Geneva', 'Lucid', 'Avant Garde', sans-serif; text-anchor: middle" x="418.094516" y="505.639812" transform="rotate(-0 418.094516 505.639812)">0.3</text>
     </g>
    </g>
    <g id="xtick_5">
     <g id="line2d_5">
      <g>
       <use xlink:href="#m5031c1010f" x="532.552934" y="491.466375" style="stroke: #000000; stroke-width: 0.8"/>
      </g>
     </g>
     <g id="text_5">
      <text style="font-size: 10px; font-family: 'Helvetica', 'Arial', 'DejaVu Sans', 'Bitstream Vera Sans', 'Computer Modern Sans Serif', 'Lucida Grande', 'Verdana', 'Geneva', 'Lucid', 'Avant Garde', sans-serif; text-anchor: middle" x="532.552934" y="505.639812" transform="rotate(-0 532.552934 505.639812)">0.4</text>
     </g>
    </g>
    <g id="text_6">
     <text style="font-size: 12px; font-family: 'Helvetica', 'Arial', 'DejaVu Sans', 'Bitstream Vera Sans', 'Computer Modern Sans Serif', 'Lucida Grande', 'Verdana', 'Geneva', 'Lucid', 'Avant Garde', sans-serif; text-anchor: middle" x="328.355625" y="520.472937" transform="rotate(-0 328.355625 520.472937)">H2B Intensity (Robust Normalized)</text>
    </g>
   </g>
   <g id="matplotlib.axis_2">
    <g id="ytick_1">
     <g id="line2d_6">
      <defs>
       <path id="ma31fdc5e5f" d="M 0 0 
L -3.5 0 
" style="stroke: #000000; stroke-width: 0.8"/>
      </defs>
      <g>
       <use xlink:href="#ma31fdc5e5f" x="49.355625" y="447.288539" style="stroke: #000000; stroke-width: 0.8"/>
      </g>
     </g>
     <g id="text_7">
      <text style="font-size: 10px; font-family: 'Helvetica', 'Arial', 'DejaVu Sans', 'Bitstream Vera Sans', 'Computer Modern Sans Serif', 'Lucida Grande', 'Verdana', 'Geneva', 'Lucid', 'Avant Garde', sans-serif; text-anchor: end" x="42.355625" y="450.875258" transform="rotate(-0 42.355625 450.875258)">−1.5</text>
     </g>
    </g>
    <g id="ytick_2">
     <g id="line2d_7">
      <g>
       <use xlink:href="#ma31fdc5e5f" x="49.355625" y="374.654485" style="stroke: #000000; stroke-width: 0.8"/>
      </g>
     </g>
     <g id="text_8">
      <text style="font-size: 10px; font-family: 'Helvetica', 'Arial', 'DejaVu Sans', 'Bitstream Vera Sans', 'Computer Modern Sans Serif', 'Lucida Grande', 'Verdana', 'Geneva', 'Lucid', 'Avant Garde', sans-serif; text-anchor: end" x="42.355625" y="378.241203" transform="rotate(-0 42.355625 378.241203)">−1.0</text>
     </g>
    </g>
    <g id="ytick_3">
     <g id="line2d_8">
      <g>
       <use xlink:href="#ma31fdc5e5f" x="49.355625" y="302.02043" style="stroke: #000000; stroke-width: 0.8"/>
      </g>
     </g>
     <g id="text_9">
      <text style="font-size: 10px; font-family: 'Helvetica', 'Arial', 'DejaVu Sans', 'Bitstream Vera Sans', 'Computer Modern Sans Serif', 'Lucida Grande', 'Verdana', 'Geneva', 'Lucid', 'Avant Garde', sans-serif; text-anchor: end" x="42.355625" y="305.607149" transform="rotate(-0 42.355625 305.607149)">−0.5</text>
     </g>
    </g>
    <g id="ytick_4">
     <g id="line2d_9">
      <g>
       <use xlink:href="#ma31fdc5e5f" x="49.355625" y="229.386375" style="stroke: #000000; stroke-width: 0.8"/>
      </g>
     </g>
     <g id="text_10">
      <text style="font-size: 10px; font-family: 'Helvetica', 'Arial', 'DejaVu Sans', 'Bitstream Vera Sans', 'Computer Modern Sans Serif', 'Lucida Grande', 'Verdana', 'Geneva', 'Lucid', 'Avant Garde', sans-serif; text-anchor: end" x="42.355625" y="232.973094" transform="rotate(-0 42.355625 232.973094)">0.0</text>
     </g>
    </g>
    <g id="ytick_5">
     <g id="line2d_10">
      <g>
       <use xlink:href="#ma31fdc5e5f" x="49.355625" y="156.75232" style="stroke: #000000; stroke-width: 0.8"/>
      </g>
     </g>
     <g id="text_11">
      <text style="font-size: 10px; font-family: 'Helvetica', 'Arial', 'DejaVu Sans', 'Bitstream Vera Sans', 'Computer Modern Sans Serif', 'Lucida Grande', 'Verdana', 'Geneva', 'Lucid', 'Avant Garde', sans-serif; text-anchor: end" x="42.355625" y="160.339039" transform="rotate(-0 42.355625 160.339039)">0.5</text>
     </g>
    </g>
    <g id="ytick_6">
     <g id="line2d_11">
      <g>
       <use xlink:href="#ma31fdc5e5f" x="49.355625" y="84.118265" style="stroke: #000000; stroke-width: 0.8"/>
      </g>
     </g>
     <g id="text_12">
      <text style="font-size: 10px; font-family: 'Helvetica', 'Arial', 'DejaVu Sans', 'Bitstream Vera Sans', 'Computer Modern Sans Serif', 'Lucida Grande', 'Verdana', 'Geneva', 'Lucid', 'Avant Garde', sans-serif; text-anchor: end" x="42.355625" y="87.704984" transform="rotate(-0 42.355625 87.704984)">1.0</text>
     </g>
    </g>
    <g id="text_13">
     <text style="font-size: 12px; font-family: 'Helvetica', 'Arial', 'DejaVu Sans', 'Bitstream Vera Sans', 'Computer Modern Sans Serif', 'Lucida Grande', 'Verdana', 'Geneva', 'Lucid', 'Avant Garde', sans-serif; text-anchor: middle" x="16.0425" y="269.706375" transform="rotate(-90 16.0425 269.706375)">VSV Intensity (Robust Normalized)</text>
    </g>
    <g id="text_14">
     <text style="font-size: 10px; font-family: 'Helvetica', 'Arial', 'DejaVu Sans', 'Bitstream Vera Sans', 'Computer Modern Sans Serif', 'Lucida Grande', 'Verdana', 'Geneva', 'Lucid', 'Avant Garde', sans-serif; text-anchor: start" x="49.355625" y="44.946375" transform="rotate(-0 49.355625 44.946375)">1e−16</text>
    </g>
   </g>
   <g id="line2d_12">
    <path d="M 74.719261 240.906375 
L 79.843228 239.16092 
L 84.967195 237.415466 
L 90.091162 235.670011 
L 95.215129 233.924557 
L 100.339096 232.179102 
L 105.463063 230.433648 
L 110.58703 228.688193 
L 115.710997 226.942739 
L 120.834964 225.197284 
L 125.958931 223.45183 
L 131.082898 221.706375 
L 136.206865 219.96092 
L 141.330832 218.215466 
L 146.454799 216.470011 
L 151.578765 214.724557 
L 156.702732 212.979102 
L 161.826699 211.233648 
L 166.950666 209.488193 
L 172.074633 207.742739 
L 177.1986 205.997284 
L 182.322567 204.25183 
L 187.446534 202.506375 
L 192.570501 200.76092 
L 197.694468 199.015466 
L 202.818435 197.270011 
L 207.942402 195.524557 
L 213.066369 193.779102 
L 218.190336 192.033648 
L 223.314303 190.288193 
L 228.43827 188.542739 
L 233.562237 186.797284 
L 238.686204 185.05183 
L 243.81017 183.306375 
L 248.934137 181.56092 
L 254.058104 179.815466 
L 259.182071 178.070011 
L 264.306038 176.324557 
L 269.430005 174.579102 
L 274.553972 172.833648 
L 279.677939 171.088193 
L 284.801906 169.342739 
L 289.925873 167.597284 
L 295.04984 165.85183 
L 300.173807 164.106375 
L 305.297774 162.36092 
L 310.421741 160.615466 
L 315.545708 158.870011 
L 320.669675 157.124557 
L 325.793642 155.379102 
L 330.917608 153.633648 
L 336.041575 151.888193 
L 341.165542 150.142739 
L 346.289509 148.397284 
L 351.413476 146.65183 
L 356.537443 144.906375 
L 361.66141 143.16092 
L 366.785377 141.415466 
L 371.909344 139.670011 
L 377.033311 137.924557 
L 382.157278 136.179102 
L 387.281245 134.433648 
L 392.405212 132.688193 
L 397.529179 130.942739 
L 402.653146 129.197284 
L 407.777113 127.45183 
L 412.90108 125.706375 
L 418.025046 123.96092 
L 423.149013 122.215466 
L 428.27298 120.470011 
L 433.396947 118.724557 
L 438.520914 116.979102 
L 443.644881 115.233648 
L 448.768848 113.488193 
L 453.892815 111.742739 
L 459.016782 109.997284 
L 464.140749 108.25183 
L 469.264716 106.506375 
L 474.388683 104.76092 
L 479.51265 103.015466 
L 484.636617 101.270011 
L 489.760584 99.524557 
L 494.884551 97.779102 
L 500.008518 96.033648 
L 505.132485 94.288193 
L 510.256451 92.542739 
L 515.380418 90.797284 
L 520.504385 89.05183 
L 525.628352 87.306375 
L 530.752319 85.56092 
L 535.876286 83.815466 
L 541.000253 82.070011 
L 546.12422 80.324557 
L 551.248187 78.579102 
L 556.372154 76.833648 
L 561.496121 75.088193 
L 566.620088 73.342739 
L 571.744055 71.597284 
L 576.868022 69.85183 
L 581.991989 68.106375 
" clip-path="url(#p0efe85c9e4)" style="fill: none; stroke: #000000; stroke-width: 2; stroke-linecap: square"/>
   </g>
   <g id="patch_3">
    <path d="M 49.355625 491.466375 
L 49.355625 47.946375 
" style="fill: none; stroke: #000000; stroke-width: 0.8; stroke-linejoin: miter; stroke-linecap: square"/>
   </g>
   <g id="patch_4">
    <path d="M 49.355625 491.466375 
L 607.355625 491.466375 
" style="fill: none; stroke: #000000; stroke-width: 0.8; stroke-linejoin: miter; stroke-linecap: square"/>
   </g>
   <g id="text_15">
    <text style="font-size: 9px; font-family: 'Helvetica', 'Arial', 'DejaVu Sans', 'Bitstream Vera Sans', 'Computer Modern Sans Serif', 'Lucida Grande', 'Verdana', 'Geneva', 'Lucid', 'Avant Garde', sans-serif; text-anchor: start" x="79.719261" y="224.386375" transform="rotate(-0 79.719261 224.386375)">A</text>
   </g>
   <g id="text_16">
    <text style="font-size: 9px; font-family: 'Helvetica', 'Arial', 'DejaVu Sans', 'Bitstream Vera Sans', 'Computer Modern Sans Serif', 'Lucida Grande', 'Verdana', 'Geneva', 'Lucid', 'Avant Garde', sans-serif; text-anchor: start" x="79.719261" y="63.106375" transform="rotate(-0 79.719261 63.106375)">AL</text>
   </g>
   <g id="text_17">
    <text style="font-size: 9px; font-family: 'Helvetica', 'Arial', 'DejaVu Sans', 'Bitstream Vera Sans', 'Computer Modern Sans Serif', 'Lucida Grande', 'Verdana', 'Geneva', 'Lucid', 'Avant Garde', sans-serif; text-anchor: start" x="79.719261" y="466.306375" transform="rotate(-0 79.719261 466.306375)">AM</text>
   </g>
   <g id="text_18">
    <text style="font-size: 9px; font-family: 'Helvetica', 'Arial', 'DejaVu Sans', 'Bitstream Vera Sans', 'Computer Modern Sans Serif', 'Lucida Grande', 'Verdana', 'Geneva', 'Lucid', 'Avant Garde', sans-serif; text-anchor: start" x="79.719261" y="224.386375" transform="rotate(-0 79.719261 224.386375)">LM</text>
   </g>
   <g id="text_19">
    <text style="font-size: 9px; font-family: 'Helvetica', 'Arial', 'DejaVu Sans', 'Bitstream Vera Sans', 'Computer Modern Sans Serif', 'Lucida Grande', 'Verdana', 'Geneva', 'Lucid', 'Avant Garde', sans-serif; text-anchor: start" x="79.719261" y="224.386375" transform="rotate(-0 79.719261 224.386375)">LI</text>
   </g>
   <g id="text_20">
    <text style="font-size: 9px; font-family: 'Helvetica', 'Arial', 'DejaVu Sans', 'Bitstream Vera Sans', 'Computer Modern Sans Serif', 'Lucida Grande', 'Verdana', 'Geneva', 'Lucid', 'Avant Garde', sans-serif; text-anchor: start" x="79.719261" y="224.386375" transform="rotate(-0 79.719261 224.386375)">PM</text>
   </g>
   <g id="text_21">
    <text style="font-size: 9px; font-family: 'Helvetica', 'Arial', 'DejaVu Sans', 'Bitstream Vera Sans', 'Computer Modern Sans Serif', 'Lucida Grande', 'Verdana', 'Geneva', 'Lucid', 'Avant Garde', sans-serif; text-anchor: start" x="586.991989" y="63.106375" transform="rotate(-0 586.991989 63.106375)">POR</text>
   </g>
   <g id="text_22">
    <text style="font-size: 9px; font-family: 'Helvetica', 'Arial', 'DejaVu Sans', 'Bitstream Vera Sans', 'Computer Modern Sans Serif', 'Lucida Grande', 'Verdana', 'Geneva', 'Lucid', 'Avant Garde', sans-serif; text-anchor: start" x="79.719261" y="224.386375" transform="rotate(-0 79.719261 224.386375)">RL</text>
   </g>
   <g id="text_23">
    <text style="font-size: 12px; font-family: 'Helvetica', 'Arial', 'DejaVu Sans', 'Bitstream Vera Sans', 'Computer Modern Sans Serif', 'Lucida Grande', 'Verdana', 'Geneva', 'Lucid', 'Avant Garde', sans-serif" transform="translate(282.666563 15.808125)">p20 - All Regions</text>
    <text style="font-size: 12px; font-family: 'Helvetica', 'Arial', 'DejaVu Sans', 'Bitstream Vera Sans', 'Computer Modern Sans Serif', 'Lucida Grande', 'Verdana', 'Geneva', 'Lucid', 'Avant Garde', sans-serif" transform="translate(226.648125 28.961625)">Averaged Replicates Analysis (robust)</text>
    <text style="font-size: 12px; font-family: 'Helvetica', 'Arial', 'DejaVu Sans', 'Bitstream Vera Sans', 'Computer Modern Sans Serif', 'Lucida Grande', 'Verdana', 'Geneva', 'Lucid', 'Avant Garde', sans-serif" transform="translate(268.652813 41.946375)">r = 0.5714, r² = 0.3265</text>
   </g>
  </g>
 </g>
 <defs>
  <clipPath id="p0efe85c9e4">
   <rect x="49.355625" y="47.946375" width="558" height="443.52"/>
  </clipPath>
 </defs>
</svg>
