<?xml version="1.0" encoding="utf-8" standalone="no"?>
<!DOCTYPE svg PUBLIC "-//W3C//DTD SVG 1.1//EN"
  "http://www.w3.org/Graphics/SVG/1.1/DTD/svg11.dtd">
<svg xmlns:xlink="http://www.w3.org/1999/xlink" width="606.216563pt" height="530.245437pt" viewBox="0 0 606.216563 530.245437" xmlns="http://www.w3.org/2000/svg" version="1.1">
 <metadata>
  <rdf:RDF xmlns:dc="http://purl.org/dc/elements/1.1/" xmlns:cc="http://creativecommons.org/ns#" xmlns:rdf="http://www.w3.org/1999/02/22-rdf-syntax-ns#">
   <cc:Work>
    <dc:type rdf:resource="http://purl.org/dc/dcmitype/StillImage"/>
    <dc:date>2026-02-24T12:29:22.906229</dc:date>
    <dc:format>image/svg+xml</dc:format>
    <dc:creator>
     <cc:Agent>
      <dc:title>Matplotlib v3.10.5, https://matplotlib.org/</dc:title>
     </cc:Agent>
    </dc:creator>
   </cc:Work>
  </rdf:RDF>
 </metadata>
 <defs>
  <style type="text/css">*{stroke-linejoin: round; stroke-linecap: butt}</style>
 </defs>
 <g id="figure_1">
  <g id="patch_1">
   <path d="M 0 530.245437 
L 606.216563 530.245437 
L 606.216563 0 
L 0 0 
z
" style="fill: #ffffff"/>
  </g>
  <g id="axes_1">
   <g id="patch_2">
    <path d="M 41.016562 491.466375 
L 599.016562 491.466375 
L 599.016562 47.946375 
L 41.016562 47.946375 
z
" style="fill: #ffffff"/>
   </g>
   <g id="PathCollection_1">
    <defs>
     <path id="C0_0_bc27099653" d="M 0 5 
C 1.326016 5 2.597899 4.473168 3.535534 3.535534 
C 4.473168 2.597899 5 1.326016 5 -0 
C 5 -1.326016 4.473168 -2.597899 3.535534 -3.535534 
C 2.597899 -4.473168 1.326016 -5 0 -5 
C -1.326016 -5 -2.597899 -4.473168 -3.535534 -3.535534 
C -4.473168 -2.597899 -5 -1.326016 -5 0 
C -5 1.326016 -4.473168 2.597899 -3.535534 3.535534 
C -2.597899 4.473168 -1.326016 5 0 5 
z
"/>
    </defs>
    <g clip-path="url(#pf172bfc4f3)">
     <use xlink:href="#C0_0_bc27099653" x="573.652926" y="135.306375" style="fill: #00008b"/>
    </g>
    <g clip-path="url(#pf172bfc4f3)">
     <use xlink:href="#C0_0_bc27099653" x="360.064409" y="135.306375" style="fill: #00008b"/>
    </g>
    <g clip-path="url(#pf172bfc4f3)">
     <use xlink:href="#C0_0_bc27099653" x="546.954362" y="135.306375" style="fill: #00008b"/>
    </g>
    <g clip-path="url(#pf172bfc4f3)">
     <use xlink:href="#C0_0_bc27099653" x="66.380199" y="135.306375" style="fill: #00008b"/>
    </g>
    <g clip-path="url(#pf172bfc4f3)">
     <use xlink:href="#C0_0_bc27099653" x="573.652926" y="135.306375" style="fill: #00008b"/>
    </g>
    <g clip-path="url(#pf172bfc4f3)">
     <use xlink:href="#C0_0_bc27099653" x="573.652926" y="135.306375" style="fill: #00008b"/>
    </g>
    <g clip-path="url(#pf172bfc4f3)">
     <use xlink:href="#C0_0_bc27099653" x="573.652926" y="471.306375" style="fill: #00008b"/>
    </g>
    <g clip-path="url(#pf172bfc4f3)">
     <use xlink:href="#C0_0_bc27099653" x="573.652926" y="68.106375" style="fill: #00008b"/>
    </g>
   </g>
   <g id="matplotlib.axis_1">
    <g id="xtick_1">
     <g id="line2d_1">
      <defs>
       <path id="mc15834009c" d="M 0 0 
L 0 3.5 
" style="stroke: #000000; stroke-width: 0.8"/>
      </defs>
      <g>
       <use xlink:href="#mc15834009c" x="92.694344" y="491.466375" style="stroke: #000000; stroke-width: 0.8"/>
      </g>
     </g>
     <g id="text_1">
      <text style="font-size: 10px; font-family: 'Helvetica', 'Arial', 'DejaVu Sans', 'Bitstream Vera Sans', 'Computer Modern Sans Serif', 'Lucida Grande', 'Verdana', 'Geneva', 'Lucid', 'Avant Garde', sans-serif; text-anchor: middle" x="92.694344" y="505.639812" transform="rotate(-0 92.694344 505.639812)">−1.0</text>
     </g>
    </g>
    <g id="xtick_2">
     <g id="line2d_2">
      <g>
       <use xlink:href="#mc15834009c" x="188.88606" y="491.466375" style="stroke: #000000; stroke-width: 0.8"/>
      </g>
     </g>
     <g id="text_2">
      <text style="font-size: 10px; font-family: 'Helvetica', 'Arial', 'DejaVu Sans', 'Bitstream Vera Sans', 'Computer Modern Sans Serif', 'Lucida Grande', 'Verdana', 'Geneva', 'Lucid', 'Avant Garde', sans-serif; text-anchor: middle" x="188.88606" y="505.639812" transform="rotate(-0 188.88606 505.639812)">−0.8</text>
     </g>
    </g>
    <g id="xtick_3">
     <g id="line2d_3">
      <g>
       <use xlink:href="#mc15834009c" x="285.077777" y="491.466375" style="stroke: #000000; stroke-width: 0.8"/>
      </g>
     </g>
     <g id="text_3">
      <text style="font-size: 10px; font-family: 'Helvetica', 'Arial', 'DejaVu Sans', 'Bitstream Vera Sans', 'Computer Modern Sans Serif', 'Lucida Grande', 'Verdana', 'Geneva', 'Lucid', 'Avant Garde', sans-serif; text-anchor: middle" x="285.077777" y="505.639812" transform="rotate(-0 285.077777 505.639812)">−0.6</text>
     </g>
    </g>
    <g id="xtick_4">
     <g id="line2d_4">
      <g>
       <use xlink:href="#mc15834009c" x="381.269493" y="491.466375" style="stroke: #000000; stroke-width: 0.8"/>
      </g>
     </g>
     <g id="text_4">
      <text style="font-size: 10px; font-family: 'Helvetica', 'Arial', 'DejaVu Sans', 'Bitstream Vera Sans', 'Computer Modern Sans Serif', 'Lucida Grande', 'Verdana', 'Geneva', 'Lucid', 'Avant Garde', sans-serif; text-anchor: middle" x="381.269493" y="505.639812" transform="rotate(-0 381.269493 505.639812)">−0.4</text>
     </g>
    </g>
    <g id="xtick_5">
     <g id="line2d_5">
      <g>
       <use xlink:href="#mc15834009c" x="477.46121" y="491.466375" style="stroke: #000000; stroke-width: 0.8"/>
      </g>
     </g>
     <g id="text_5">
      <text style="font-size: 10px; font-family: 'Helvetica', 'Arial', 'DejaVu Sans', 'Bitstream Vera Sans', 'Computer Modern Sans Serif', 'Lucida Grande', 'Verdana', 'Geneva', 'Lucid', 'Avant Garde', sans-serif; text-anchor: middle" x="477.46121" y="505.639812" transform="rotate(-0 477.46121 505.639812)">−0.2</text>
     </g>
    </g>
    <g id="xtick_6">
     <g id="line2d_6">
      <g>
       <use xlink:href="#mc15834009c" x="573.652926" y="491.466375" style="stroke: #000000; stroke-width: 0.8"/>
      </g>
     </g>
     <g id="text_6">
      <text style="font-size: 10px; font-family: 'Helvetica', 'Arial', 'DejaVu Sans', 'Bitstream Vera Sans', 'Computer Modern Sans Serif', 'Lucida Grande', 'Verdana', 'Geneva', 'Lucid', 'Avant Garde', sans-serif; text-anchor: middle" x="573.652926" y="505.639812" transform="rotate(-0 573.652926 505.639812)">0.0</text>
     </g>
    </g>
    <g id="text_7">
     <text style="font-size: 12px; font-family: 'Helvetica', 'Arial', 'DejaVu Sans', 'Bitstream Vera Sans', 'Computer Modern Sans Serif', 'Lucida Grande', 'Verdana', 'Geneva', 'Lucid', 'Avant Garde', sans-serif; text-anchor: middle" x="320.016563" y="520.472937" transform="rotate(-0 320.016563 520.472937)">H2B Intensity (Robust Normalized)</text>
    </g>
    <g id="text_8">
     <text style="font-size: 10px; font-family: 'Helvetica', 'Arial', 'DejaVu Sans', 'Bitstream Vera Sans', 'Computer Modern Sans Serif', 'Lucida Grande', 'Verdana', 'Geneva', 'Lucid', 'Avant Garde', sans-serif; text-anchor: end" x="599.016562" y="517.897625" transform="rotate(-0 599.016562 517.897625)">1e−15</text>
    </g>
   </g>
   <g id="matplotlib.axis_2">
    <g id="ytick_1">
     <g id="line2d_7">
      <defs>
       <path id="m84e1908dac" d="M 0 0 
L -3.5 0 
" style="stroke: #000000; stroke-width: 0.8"/>
      </defs>
      <g>
       <use xlink:href="#m84e1908dac" x="41.016562" y="458.124396" style="stroke: #000000; stroke-width: 0.8"/>
      </g>
     </g>
     <g id="text_9">
      <text style="font-size: 10px; font-family: 'Helvetica', 'Arial', 'DejaVu Sans', 'Bitstream Vera Sans', 'Computer Modern Sans Serif', 'Lucida Grande', 'Verdana', 'Geneva', 'Lucid', 'Avant Garde', sans-serif; text-anchor: end" x="34.016562" y="461.711115" transform="rotate(-0 34.016562 461.711115)">−8</text>
     </g>
    </g>
    <g id="ytick_2">
     <g id="line2d_8">
      <g>
       <use xlink:href="#m84e1908dac" x="41.016562" y="377.419891" style="stroke: #000000; stroke-width: 0.8"/>
      </g>
     </g>
     <g id="text_10">
      <text style="font-size: 10px; font-family: 'Helvetica', 'Arial', 'DejaVu Sans', 'Bitstream Vera Sans', 'Computer Modern Sans Serif', 'Lucida Grande', 'Verdana', 'Geneva', 'Lucid', 'Avant Garde', sans-serif; text-anchor: end" x="34.016562" y="381.00661" transform="rotate(-0 34.016562 381.00661)">−6</text>
     </g>
    </g>
    <g id="ytick_3">
     <g id="line2d_9">
      <g>
       <use xlink:href="#m84e1908dac" x="41.016562" y="296.715386" style="stroke: #000000; stroke-width: 0.8"/>
      </g>
     </g>
     <g id="text_11">
      <text style="font-size: 10px; font-family: 'Helvetica', 'Arial', 'DejaVu Sans', 'Bitstream Vera Sans', 'Computer Modern Sans Serif', 'Lucida Grande', 'Verdana', 'Geneva', 'Lucid', 'Avant Garde', sans-serif; text-anchor: end" x="34.016562" y="300.302104" transform="rotate(-0 34.016562 300.302104)">−4</text>
     </g>
    </g>
    <g id="ytick_4">
     <g id="line2d_10">
      <g>
       <use xlink:href="#m84e1908dac" x="41.016562" y="216.01088" style="stroke: #000000; stroke-width: 0.8"/>
      </g>
     </g>
     <g id="text_12">
      <text style="font-size: 10px; font-family: 'Helvetica', 'Arial', 'DejaVu Sans', 'Bitstream Vera Sans', 'Computer Modern Sans Serif', 'Lucida Grande', 'Verdana', 'Geneva', 'Lucid', 'Avant Garde', sans-serif; text-anchor: end" x="34.016562" y="219.597599" transform="rotate(-0 34.016562 219.597599)">−2</text>
     </g>
    </g>
    <g id="ytick_5">
     <g id="line2d_11">
      <g>
       <use xlink:href="#m84e1908dac" x="41.016562" y="135.306375" style="stroke: #000000; stroke-width: 0.8"/>
      </g>
     </g>
     <g id="text_13">
      <text style="font-size: 10px; font-family: 'Helvetica', 'Arial', 'DejaVu Sans', 'Bitstream Vera Sans', 'Computer Modern Sans Serif', 'Lucida Grande', 'Verdana', 'Geneva', 'Lucid', 'Avant Garde', sans-serif; text-anchor: end" x="34.016562" y="138.893094" transform="rotate(-0 34.016562 138.893094)">0</text>
     </g>
    </g>
    <g id="ytick_6">
     <g id="line2d_12">
      <g>
       <use xlink:href="#m84e1908dac" x="41.016562" y="54.60187" style="stroke: #000000; stroke-width: 0.8"/>
      </g>
     </g>
     <g id="text_14">
      <text style="font-size: 10px; font-family: 'Helvetica', 'Arial', 'DejaVu Sans', 'Bitstream Vera Sans', 'Computer Modern Sans Serif', 'Lucida Grande', 'Verdana', 'Geneva', 'Lucid', 'Avant Garde', sans-serif; text-anchor: end" x="34.016562" y="58.188588" transform="rotate(-0 34.016562 58.188588)">2</text>
     </g>
    </g>
    <g id="text_15">
     <text style="font-size: 12px; font-family: 'Helvetica', 'Arial', 'DejaVu Sans', 'Bitstream Vera Sans', 'Computer Modern Sans Serif', 'Lucida Grande', 'Verdana', 'Geneva', 'Lucid', 'Avant Garde', sans-serif; text-anchor: middle" x="16.0425" y="269.706375" transform="rotate(-90 16.0425 269.706375)">VSV Intensity (Robust Normalized)</text>
    </g>
    <g id="text_16">
     <text style="font-size: 10px; font-family: 'Helvetica', 'Arial', 'DejaVu Sans', 'Bitstream Vera Sans', 'Computer Modern Sans Serif', 'Lucida Grande', 'Verdana', 'Geneva', 'Lucid', 'Avant Garde', sans-serif; text-anchor: start" x="41.016562" y="44.946375" transform="rotate(-0 41.016562 44.946375)">1e−16</text>
    </g>
   </g>
   <g id="line2d_13">
    <path d="M 66.380199 124.447838 
L 71.504166 124.998319 
L 76.628133 125.548799 
L 81.7521 126.09928 
L 86.876067 126.64976 
L 92.000034 127.20024 
L 97.124001 127.750721 
L 102.247967 128.301201 
L 107.371934 128.851682 
L 112.495901 129.402162 
L 117.619868 129.952643 
L 122.743835 130.503123 
L 127.867802 131.053603 
L 132.991769 131.604084 
L 138.115736 132.154564 
L 143.239703 132.705045 
L 148.36367 133.255525 
L 153.487637 133.806005 
L 158.611604 134.356486 
L 163.735571 134.906966 
L 168.859538 135.457447 
L 173.983505 136.007927 
L 179.107472 136.558408 
L 184.231439 137.108888 
L 189.355405 137.659368 
L 194.479372 138.209849 
L 199.603339 138.760329 
L 204.727306 139.31081 
L 209.851273 139.86129 
L 214.97524 140.41177 
L 220.099207 140.962251 
L 225.223174 141.512731 
L 230.347141 142.063212 
L 235.471108 142.613692 
L 240.595075 143.164172 
L 245.719042 143.714653 
L 250.843009 144.265133 
L 255.966976 144.815614 
L 261.090943 145.366094 
L 266.21491 145.916575 
L 271.338877 146.467055 
L 276.462843 147.017535 
L 281.58681 147.568016 
L 286.710777 148.118496 
L 291.834744 148.668977 
L 296.958711 149.219457 
L 302.082678 149.769937 
L 307.206645 150.320418 
L 312.330612 150.870898 
L 317.454579 151.421379 
L 322.578546 151.971859 
L 327.702513 152.52234 
L 332.82648 153.07282 
L 337.950447 153.6233 
L 343.074414 154.173781 
L 348.198381 154.724261 
L 353.322348 155.274742 
L 358.446315 155.825222 
L 363.570282 156.375702 
L 368.694248 156.926183 
L 373.818215 157.476663 
L 378.942182 158.027144 
L 384.066149 158.577624 
L 389.190116 159.128104 
L 394.314083 159.678585 
L 399.43805 160.229065 
L 404.562017 160.779546 
L 409.685984 161.330026 
L 414.809951 161.880507 
L 419.933918 162.430987 
L 425.057885 162.981467 
L 430.181852 163.531948 
L 435.305819 164.082428 
L 440.429786 164.632909 
L 445.553753 165.183389 
L 450.67772 165.733869 
L 455.801686 166.28435 
L 460.925653 166.83483 
L 466.04962 167.385311 
L 471.173587 167.935791 
L 476.297554 168.486272 
L 481.421521 169.036752 
L 486.545488 169.587232 
L 491.669455 170.137713 
L 496.793422 170.688193 
L 501.917389 171.238674 
L 507.041356 171.789154 
L 512.165323 172.339634 
L 517.28929 172.890115 
L 522.413257 173.440595 
L 527.537224 173.991076 
L 532.661191 174.541556 
L 537.785158 175.092036 
L 542.909124 175.642517 
L 548.033091 176.192997 
L 553.157058 176.743478 
L 558.281025 177.293958 
L 563.404992 177.844439 
L 568.528959 178.394919 
L 573.652926 178.945399 
" clip-path="url(#pf172bfc4f3)" style="fill: none; stroke: #000000; stroke-width: 2; stroke-linecap: square"/>
   </g>
   <g id="patch_3">
    <path d="M 41.016562 491.466375 
L 41.016562 47.946375 
" style="fill: none; stroke: #000000; stroke-width: 0.8; stroke-linejoin: miter; stroke-linecap: square"/>
   </g>
   <g id="patch_4">
    <path d="M 41.016562 491.466375 
L 599.016562 491.466375 
" style="fill: none; stroke: #000000; stroke-width: 0.8; stroke-linejoin: miter; stroke-linecap: square"/>
   </g>
   <g id="text_17">
    <text style="font-size: 9px; font-family: 'Helvetica', 'Arial', 'DejaVu Sans', 'Bitstream Vera Sans', 'Computer Modern Sans Serif', 'Lucida Grande', 'Verdana', 'Geneva', 'Lucid', 'Avant Garde', sans-serif; text-anchor: start" x="578.652926" y="130.306375" transform="rotate(-0 578.652926 130.306375)">A</text>
   </g>
   <g id="text_18">
    <text style="font-size: 9px; font-family: 'Helvetica', 'Arial', 'DejaVu Sans', 'Bitstream Vera Sans', 'Computer Modern Sans Serif', 'Lucida Grande', 'Verdana', 'Geneva', 'Lucid', 'Avant Garde', sans-serif; text-anchor: start" x="365.064409" y="130.306375" transform="rotate(-0 365.064409 130.306375)">AL</text>
   </g>
   <g id="text_19">
    <text style="font-size: 9px; font-family: 'Helvetica', 'Arial', 'DejaVu Sans', 'Bitstream Vera Sans', 'Computer Modern Sans Serif', 'Lucida Grande', 'Verdana', 'Geneva', 'Lucid', 'Avant Garde', sans-serif; text-anchor: start" x="551.954362" y="130.306375" transform="rotate(-0 551.954362 130.306375)">AM</text>
   </g>
   <g id="text_20">
    <text style="font-size: 9px; font-family: 'Helvetica', 'Arial', 'DejaVu Sans', 'Bitstream Vera Sans', 'Computer Modern Sans Serif', 'Lucida Grande', 'Verdana', 'Geneva', 'Lucid', 'Avant Garde', sans-serif; text-anchor: start" x="71.380199" y="130.306375" transform="rotate(-0 71.380199 130.306375)">LM</text>
   </g>
   <g id="text_21">
    <text style="font-size: 9px; font-family: 'Helvetica', 'Arial', 'DejaVu Sans', 'Bitstream Vera Sans', 'Computer Modern Sans Serif', 'Lucida Grande', 'Verdana', 'Geneva', 'Lucid', 'Avant Garde', sans-serif; text-anchor: start" x="578.652926" y="130.306375" transform="rotate(-0 578.652926 130.306375)">LI</text>
   </g>
   <g id="text_22">
    <text style="font-size: 9px; font-family: 'Helvetica', 'Arial', 'DejaVu Sans', 'Bitstream Vera Sans', 'Computer Modern Sans Serif', 'Lucida Grande', 'Verdana', 'Geneva', 'Lucid', 'Avant Garde', sans-serif; text-anchor: start" x="578.652926" y="130.306375" transform="rotate(-0 578.652926 130.306375)">PM</text>
   </g>
   <g id="text_23">
    <text style="font-size: 9px; font-family: 'Helvetica', 'Arial', 'DejaVu Sans', 'Bitstream Vera Sans', 'Computer Modern Sans Serif', 'Lucida Grande', 'Verdana', 'Geneva', 'Lucid', 'Avant Garde', sans-serif; text-anchor: start" x="578.652926" y="466.306375" transform="rotate(-0 578.652926 466.306375)">POR</text>
   </g>
   <g id="text_24">
    <text style="font-size: 9px; font-family: 'Helvetica', 'Arial', 'DejaVu Sans', 'Bitstream Vera Sans', 'Computer Modern Sans Serif', 'Lucida Grande', 'Verdana', 'Geneva', 'Lucid', 'Avant Garde', sans-serif; text-anchor: start" x="578.652926" y="63.106375" transform="rotate(-0 578.652926 63.106375)">RL</text>
   </g>
   <g id="text_25">
    <text style="font-size: 12px; font-family: 'Helvetica', 'Arial', 'DejaVu Sans', 'Bitstream Vera Sans', 'Computer Modern Sans Serif', 'Lucida Grande', 'Verdana', 'Geneva', 'Lucid', 'Avant Garde', sans-serif" transform="translate(277.664062 15.808125)">p3 - All Regions</text>
    <text style="font-size: 12px; font-family: 'Helvetica', 'Arial', 'DejaVu Sans', 'Bitstream Vera Sans', 'Computer Modern Sans Serif', 'Lucida Grande', 'Verdana', 'Geneva', 'Lucid', 'Avant Garde', sans-serif" transform="translate(218.309063 28.961625)">Averaged Replicates Analysis (robust)</text>
    <text style="font-size: 12px; font-family: 'Helvetica', 'Arial', 'DejaVu Sans', 'Bitstream Vera Sans', 'Computer Modern Sans Serif', 'Lucida Grande', 'Verdana', 'Geneva', 'Lucid', 'Avant Garde', sans-serif" transform="translate(260.31375 41.946375)">r = 0.0000, r² = 0.0000</text>
   </g>
  </g>
 </g>
 <defs>
  <clipPath id="pf172bfc4f3">
   <rect x="41.016562" y="47.946375" width="558" height="443.52"/>
  </clipPath>
 </defs>
</svg>
