<?xml version="1.0" encoding="utf-8" standalone="no"?>
<!DOCTYPE svg PUBLIC "-//W3C//DTD SVG 1.1//EN"
  "http://www.w3.org/Graphics/SVG/1.1/DTD/svg11.dtd">
<svg xmlns:xlink="http://www.w3.org/1999/xlink" width="614.555625pt" height="530.162937pt" viewBox="0 0 614.555625 530.162937" xmlns="http://www.w3.org/2000/svg" version="1.1">
 <metadata>
  <rdf:RDF xmlns:dc="http://purl.org/dc/elements/1.1/" xmlns:cc="http://creativecommons.org/ns#" xmlns:rdf="http://www.w3.org/1999/02/22-rdf-syntax-ns#">
   <cc:Work>
    <dc:type rdf:resource="http://purl.org/dc/dcmitype/StillImage"/>
    <dc:date>2026-02-24T12:28:53.472354</dc:date>
    <dc:format>image/svg+xml</dc:format>
    <dc:creator>
     <cc:Agent>
      <dc:title>Matplotlib v3.10.5, https://matplotlib.org/</dc:title>
     </cc:Agent>
    </dc:creator>
   </cc:Work>
  </rdf:RDF>
 </metadata>
 <defs>
  <style type="text/css">*{stroke-linejoin: round; stroke-linecap: butt}</style>
 </defs>
 <g id="figure_1">
  <g id="patch_1">
   <path d="M 0 530.162937 
L 614.555625 530.162937 
L 614.555625 0 
L 0 0 
z
" style="fill: #ffffff"/>
  </g>
  <g id="axes_1">
   <g id="patch_2">
    <path d="M 49.355625 491.383875 
L 607.355625 491.383875 
L 607.355625 47.863875 
L 49.355625 47.863875 
z
" style="fill: #ffffff"/>
   </g>
   <g id="PathCollection_1">
    <defs>
     <path id="C0_0_a995eb3661" d="M 0 5 
C 1.326016 5 2.597899 4.473168 3.535534 3.535534 
C 4.473168 2.597899 5 1.326016 5 -0 
C 5 -1.326016 4.473168 -2.597899 3.535534 -3.535534 
C 2.597899 -4.473168 1.326016 -5 0 -5 
C -1.326016 -5 -2.597899 -4.473168 -3.535534 -3.535534 
C -4.473168 -2.597899 -5 -1.326016 -5 0 
C -5 1.326016 -4.473168 2.597899 -3.535534 3.535534 
C -2.597899 4.473168 -1.326016 5 0 5 
z
"/>
    </defs>
    <g clip-path="url(#p445661f2f1)">
     <use xlink:href="#C0_0_a995eb3661" x="365.931383" y="471.223875" style="fill: #00008b"/>
    </g>
    <g clip-path="url(#p445661f2f1)">
     <use xlink:href="#C0_0_a995eb3661" x="422.295019" y="78.451461" style="fill: #00008b"/>
    </g>
    <g clip-path="url(#p445661f2f1)">
     <use xlink:href="#C0_0_a995eb3661" x="384.719261" y="68.023875" style="fill: #00008b"/>
    </g>
    <g clip-path="url(#p445661f2f1)">
     <use xlink:href="#C0_0_a995eb3661" x="356.537443" y="318.285944" style="fill: #00008b"/>
    </g>
    <g clip-path="url(#p445661f2f1)">
     <use xlink:href="#C0_0_a995eb3661" x="403.50714" y="290.479047" style="fill: #00008b"/>
    </g>
    <g clip-path="url(#p445661f2f1)">
     <use xlink:href="#C0_0_a995eb3661" x="403.50714" y="304.382496" style="fill: #00008b"/>
    </g>
    <g clip-path="url(#p445661f2f1)">
     <use xlink:href="#C0_0_a995eb3661" x="74.719261" y="290.479047" style="fill: #00008b"/>
    </g>
    <g clip-path="url(#p445661f2f1)">
     <use xlink:href="#C0_0_a995eb3661" x="581.991989" y="123.637668" style="fill: #00008b"/>
    </g>
   </g>
   <g id="matplotlib.axis_1">
    <g id="xtick_1">
     <g id="line2d_1">
      <defs>
       <path id="m724a96110e" d="M 0 0 
L 0 3.5 
" style="stroke: #000000; stroke-width: 0.8"/>
      </defs>
      <g>
       <use xlink:href="#m724a96110e" x="86.208075" y="491.383875" style="stroke: #000000; stroke-width: 0.8"/>
      </g>
     </g>
     <g id="text_1">
      <text style="font-size: 10px; font-family: 'Helvetica', 'Arial', 'DejaVu Sans', 'Bitstream Vera Sans', 'Computer Modern Sans Serif', 'Lucida Grande', 'Verdana', 'Geneva', 'Lucid', 'Avant Garde', sans-serif; text-anchor: middle" x="86.208075" y="505.557312" transform="rotate(-0 86.208075 505.557312)">−1.5</text>
     </g>
    </g>
    <g id="xtick_2">
     <g id="line2d_2">
      <g>
       <use xlink:href="#m724a96110e" x="191.97443" y="491.383875" style="stroke: #000000; stroke-width: 0.8"/>
      </g>
     </g>
     <g id="text_2">
      <text style="font-size: 10px; font-family: 'Helvetica', 'Arial', 'DejaVu Sans', 'Bitstream Vera Sans', 'Computer Modern Sans Serif', 'Lucida Grande', 'Verdana', 'Geneva', 'Lucid', 'Avant Garde', sans-serif; text-anchor: middle" x="191.97443" y="505.557312" transform="rotate(-0 191.97443 505.557312)">−1.0</text>
     </g>
    </g>
    <g id="xtick_3">
     <g id="line2d_3">
      <g>
       <use xlink:href="#m724a96110e" x="297.740785" y="491.383875" style="stroke: #000000; stroke-width: 0.8"/>
      </g>
     </g>
     <g id="text_3">
      <text style="font-size: 10px; font-family: 'Helvetica', 'Arial', 'DejaVu Sans', 'Bitstream Vera Sans', 'Computer Modern Sans Serif', 'Lucida Grande', 'Verdana', 'Geneva', 'Lucid', 'Avant Garde', sans-serif; text-anchor: middle" x="297.740785" y="505.557312" transform="rotate(-0 297.740785 505.557312)">−0.5</text>
     </g>
    </g>
    <g id="xtick_4">
     <g id="line2d_4">
      <g>
       <use xlink:href="#m724a96110e" x="403.50714" y="491.383875" style="stroke: #000000; stroke-width: 0.8"/>
      </g>
     </g>
     <g id="text_4">
      <text style="font-size: 10px; font-family: 'Helvetica', 'Arial', 'DejaVu Sans', 'Bitstream Vera Sans', 'Computer Modern Sans Serif', 'Lucida Grande', 'Verdana', 'Geneva', 'Lucid', 'Avant Garde', sans-serif; text-anchor: middle" x="403.50714" y="505.557312" transform="rotate(-0 403.50714 505.557312)">0.0</text>
     </g>
    </g>
    <g id="xtick_5">
     <g id="line2d_5">
      <g>
       <use xlink:href="#m724a96110e" x="509.273495" y="491.383875" style="stroke: #000000; stroke-width: 0.8"/>
      </g>
     </g>
     <g id="text_5">
      <text style="font-size: 10px; font-family: 'Helvetica', 'Arial', 'DejaVu Sans', 'Bitstream Vera Sans', 'Computer Modern Sans Serif', 'Lucida Grande', 'Verdana', 'Geneva', 'Lucid', 'Avant Garde', sans-serif; text-anchor: middle" x="509.273495" y="505.557312" transform="rotate(-0 509.273495 505.557312)">0.5</text>
     </g>
    </g>
    <g id="text_6">
     <text style="font-size: 12px; font-family: 'Helvetica', 'Arial', 'DejaVu Sans', 'Bitstream Vera Sans', 'Computer Modern Sans Serif', 'Lucida Grande', 'Verdana', 'Geneva', 'Lucid', 'Avant Garde', sans-serif; text-anchor: middle" x="328.355625" y="520.390437" transform="rotate(-0 328.355625 520.390437)">H2B Intensity (Z-score)</text>
    </g>
    <g id="text_7">
     <text style="font-size: 10px; font-family: 'Helvetica', 'Arial', 'DejaVu Sans', 'Bitstream Vera Sans', 'Computer Modern Sans Serif', 'Lucida Grande', 'Verdana', 'Geneva', 'Lucid', 'Avant Garde', sans-serif; text-anchor: end" x="607.355625" y="517.815125" transform="rotate(-0 607.355625 517.815125)">1e−15</text>
    </g>
   </g>
   <g id="matplotlib.axis_2">
    <g id="ytick_1">
     <g id="line2d_6">
      <defs>
       <path id="m3c7ee991ea" d="M 0 0 
L -3.5 0 
" style="stroke: #000000; stroke-width: 0.8"/>
      </defs>
      <g>
       <use xlink:href="#m3c7ee991ea" x="49.355625" y="478.325741" style="stroke: #000000; stroke-width: 0.8"/>
      </g>
     </g>
     <g id="text_8">
      <text style="font-size: 10px; font-family: 'Helvetica', 'Arial', 'DejaVu Sans', 'Bitstream Vera Sans', 'Computer Modern Sans Serif', 'Lucida Grande', 'Verdana', 'Geneva', 'Lucid', 'Avant Garde', sans-serif; text-anchor: end" x="42.355625" y="481.91246" transform="rotate(-0 42.355625 481.91246)">−1.5</text>
     </g>
    </g>
    <g id="ytick_2">
     <g id="line2d_7">
      <g>
       <use xlink:href="#m3c7ee991ea" x="49.355625" y="415.710176" style="stroke: #000000; stroke-width: 0.8"/>
      </g>
     </g>
     <g id="text_9">
      <text style="font-size: 10px; font-family: 'Helvetica', 'Arial', 'DejaVu Sans', 'Bitstream Vera Sans', 'Computer Modern Sans Serif', 'Lucida Grande', 'Verdana', 'Geneva', 'Lucid', 'Avant Garde', sans-serif; text-anchor: end" x="42.355625" y="419.296895" transform="rotate(-0 42.355625 419.296895)">−1.0</text>
     </g>
    </g>
    <g id="ytick_3">
     <g id="line2d_8">
      <g>
       <use xlink:href="#m3c7ee991ea" x="49.355625" y="353.094612" style="stroke: #000000; stroke-width: 0.8"/>
      </g>
     </g>
     <g id="text_10">
      <text style="font-size: 10px; font-family: 'Helvetica', 'Arial', 'DejaVu Sans', 'Bitstream Vera Sans', 'Computer Modern Sans Serif', 'Lucida Grande', 'Verdana', 'Geneva', 'Lucid', 'Avant Garde', sans-serif; text-anchor: end" x="42.355625" y="356.681331" transform="rotate(-0 42.355625 356.681331)">−0.5</text>
     </g>
    </g>
    <g id="ytick_4">
     <g id="line2d_9">
      <g>
       <use xlink:href="#m3c7ee991ea" x="49.355625" y="290.479047" style="stroke: #000000; stroke-width: 0.8"/>
      </g>
     </g>
     <g id="text_11">
      <text style="font-size: 10px; font-family: 'Helvetica', 'Arial', 'DejaVu Sans', 'Bitstream Vera Sans', 'Computer Modern Sans Serif', 'Lucida Grande', 'Verdana', 'Geneva', 'Lucid', 'Avant Garde', sans-serif; text-anchor: end" x="42.355625" y="294.065766" transform="rotate(-0 42.355625 294.065766)">0.0</text>
     </g>
    </g>
    <g id="ytick_5">
     <g id="line2d_10">
      <g>
       <use xlink:href="#m3c7ee991ea" x="49.355625" y="227.863483" style="stroke: #000000; stroke-width: 0.8"/>
      </g>
     </g>
     <g id="text_12">
      <text style="font-size: 10px; font-family: 'Helvetica', 'Arial', 'DejaVu Sans', 'Bitstream Vera Sans', 'Computer Modern Sans Serif', 'Lucida Grande', 'Verdana', 'Geneva', 'Lucid', 'Avant Garde', sans-serif; text-anchor: end" x="42.355625" y="231.450202" transform="rotate(-0 42.355625 231.450202)">0.5</text>
     </g>
    </g>
    <g id="ytick_6">
     <g id="line2d_11">
      <g>
       <use xlink:href="#m3c7ee991ea" x="49.355625" y="165.247918" style="stroke: #000000; stroke-width: 0.8"/>
      </g>
     </g>
     <g id="text_13">
      <text style="font-size: 10px; font-family: 'Helvetica', 'Arial', 'DejaVu Sans', 'Bitstream Vera Sans', 'Computer Modern Sans Serif', 'Lucida Grande', 'Verdana', 'Geneva', 'Lucid', 'Avant Garde', sans-serif; text-anchor: end" x="42.355625" y="168.834637" transform="rotate(-0 42.355625 168.834637)">1.0</text>
     </g>
    </g>
    <g id="ytick_7">
     <g id="line2d_12">
      <g>
       <use xlink:href="#m3c7ee991ea" x="49.355625" y="102.632354" style="stroke: #000000; stroke-width: 0.8"/>
      </g>
     </g>
     <g id="text_14">
      <text style="font-size: 10px; font-family: 'Helvetica', 'Arial', 'DejaVu Sans', 'Bitstream Vera Sans', 'Computer Modern Sans Serif', 'Lucida Grande', 'Verdana', 'Geneva', 'Lucid', 'Avant Garde', sans-serif; text-anchor: end" x="42.355625" y="106.219073" transform="rotate(-0 42.355625 106.219073)">1.5</text>
     </g>
    </g>
    <g id="text_15">
     <text style="font-size: 12px; font-family: 'Helvetica', 'Arial', 'DejaVu Sans', 'Bitstream Vera Sans', 'Computer Modern Sans Serif', 'Lucida Grande', 'Verdana', 'Geneva', 'Lucid', 'Avant Garde', sans-serif; text-anchor: middle" x="16.0425" y="269.623875" transform="rotate(-90 16.0425 269.623875)">VSV Intensity (Z-score)</text>
    </g>
    <g id="text_16">
     <text style="font-size: 10px; font-family: 'Helvetica', 'Arial', 'DejaVu Sans', 'Bitstream Vera Sans', 'Computer Modern Sans Serif', 'Lucida Grande', 'Verdana', 'Geneva', 'Lucid', 'Avant Garde', sans-serif; text-anchor: start" x="49.355625" y="44.863875" transform="rotate(-0 49.355625 44.863875)">1e−16</text>
    </g>
   </g>
   <g id="line2d_13">
    <path d="M 74.719261 349.483585 
L 79.843228 347.663467 
L 84.967195 345.843349 
L 90.091162 344.02323 
L 95.215129 342.203112 
L 100.339096 340.382994 
L 105.463063 338.562876 
L 110.58703 336.742758 
L 115.710997 334.922639 
L 120.834964 333.102521 
L 125.958931 331.282403 
L 131.082898 329.462285 
L 136.206865 327.642167 
L 141.330832 325.822048 
L 146.454799 324.00193 
L 151.578765 322.181812 
L 156.702732 320.361694 
L 161.826699 318.541575 
L 166.950666 316.721457 
L 172.074633 314.901339 
L 177.1986 313.081221 
L 182.322567 311.261103 
L 187.446534 309.440984 
L 192.570501 307.620866 
L 197.694468 305.800748 
L 202.818435 303.98063 
L 207.942402 302.160511 
L 213.066369 300.340393 
L 218.190336 298.520275 
L 223.314303 296.700157 
L 228.43827 294.880039 
L 233.562237 293.05992 
L 238.686204 291.239802 
L 243.81017 289.419684 
L 248.934137 287.599566 
L 254.058104 285.779447 
L 259.182071 283.959329 
L 264.306038 282.139211 
L 269.430005 280.319093 
L 274.553972 278.498975 
L 279.677939 276.678856 
L 284.801906 274.858738 
L 289.925873 273.03862 
L 295.04984 271.218502 
L 300.173807 269.398384 
L 305.297774 267.578265 
L 310.421741 265.758147 
L 315.545708 263.938029 
L 320.669675 262.117911 
L 325.793642 260.297792 
L 330.917608 258.477674 
L 336.041575 256.657556 
L 341.165542 254.837438 
L 346.289509 253.01732 
L 351.413476 251.197201 
L 356.537443 249.377083 
L 361.66141 247.556965 
L 366.785377 245.736847 
L 371.909344 243.916728 
L 377.033311 242.09661 
L 382.157278 240.276492 
L 387.281245 238.456374 
L 392.405212 236.636256 
L 397.529179 234.816137 
L 402.653146 232.996019 
L 407.777113 231.175901 
L 412.90108 229.355783 
L 418.025046 227.535664 
L 423.149013 225.715546 
L 428.27298 223.895428 
L 433.396947 222.07531 
L 438.520914 220.255192 
L 443.644881 218.435073 
L 448.768848 216.614955 
L 453.892815 214.794837 
L 459.016782 212.974719 
L 464.140749 211.154601 
L 469.264716 209.334482 
L 474.388683 207.514364 
L 479.51265 205.694246 
L 484.636617 203.874128 
L 489.760584 202.054009 
L 494.884551 200.233891 
L 500.008518 198.413773 
L 505.132485 196.593655 
L 510.256451 194.773537 
L 515.380418 192.953418 
L 520.504385 191.1333 
L 525.628352 189.313182 
L 530.752319 187.493064 
L 535.876286 185.672945 
L 541.000253 183.852827 
L 546.12422 182.032709 
L 551.248187 180.212591 
L 556.372154 178.392473 
L 561.496121 176.572354 
L 566.620088 174.752236 
L 571.744055 172.932118 
L 576.868022 171.112 
L 581.991989 169.291881 
" clip-path="url(#p445661f2f1)" style="fill: none; stroke: #000000; stroke-width: 2; stroke-linecap: square"/>
   </g>
   <g id="patch_3">
    <path d="M 49.355625 491.383875 
L 49.355625 47.863875 
" style="fill: none; stroke: #000000; stroke-width: 0.8; stroke-linejoin: miter; stroke-linecap: square"/>
   </g>
   <g id="patch_4">
    <path d="M 49.355625 491.383875 
L 607.355625 491.383875 
" style="fill: none; stroke: #000000; stroke-width: 0.8; stroke-linejoin: miter; stroke-linecap: square"/>
   </g>
   <g id="text_17">
    <text style="font-size: 9px; font-family: 'Helvetica', 'Arial', 'DejaVu Sans', 'Bitstream Vera Sans', 'Computer Modern Sans Serif', 'Lucida Grande', 'Verdana', 'Geneva', 'Lucid', 'Avant Garde', sans-serif; text-anchor: start" x="370.931383" y="466.223875" transform="rotate(-0 370.931383 466.223875)">A</text>
   </g>
   <g id="text_18">
    <text style="font-size: 9px; font-family: 'Helvetica', 'Arial', 'DejaVu Sans', 'Bitstream Vera Sans', 'Computer Modern Sans Serif', 'Lucida Grande', 'Verdana', 'Geneva', 'Lucid', 'Avant Garde', sans-serif; text-anchor: start" x="427.295019" y="73.451461" transform="rotate(-0 427.295019 73.451461)">AL</text>
   </g>
   <g id="text_19">
    <text style="font-size: 9px; font-family: 'Helvetica', 'Arial', 'DejaVu Sans', 'Bitstream Vera Sans', 'Computer Modern Sans Serif', 'Lucida Grande', 'Verdana', 'Geneva', 'Lucid', 'Avant Garde', sans-serif; text-anchor: start" x="389.719261" y="63.023875" transform="rotate(-0 389.719261 63.023875)">AM</text>
   </g>
   <g id="text_20">
    <text style="font-size: 9px; font-family: 'Helvetica', 'Arial', 'DejaVu Sans', 'Bitstream Vera Sans', 'Computer Modern Sans Serif', 'Lucida Grande', 'Verdana', 'Geneva', 'Lucid', 'Avant Garde', sans-serif; text-anchor: start" x="361.537443" y="313.285944" transform="rotate(-0 361.537443 313.285944)">LM</text>
   </g>
   <g id="text_21">
    <text style="font-size: 9px; font-family: 'Helvetica', 'Arial', 'DejaVu Sans', 'Bitstream Vera Sans', 'Computer Modern Sans Serif', 'Lucida Grande', 'Verdana', 'Geneva', 'Lucid', 'Avant Garde', sans-serif; text-anchor: start" x="408.50714" y="285.479047" transform="rotate(-0 408.50714 285.479047)">LI</text>
   </g>
   <g id="text_22">
    <text style="font-size: 9px; font-family: 'Helvetica', 'Arial', 'DejaVu Sans', 'Bitstream Vera Sans', 'Computer Modern Sans Serif', 'Lucida Grande', 'Verdana', 'Geneva', 'Lucid', 'Avant Garde', sans-serif; text-anchor: start" x="408.50714" y="299.382496" transform="rotate(-0 408.50714 299.382496)">PM</text>
   </g>
   <g id="text_23">
    <text style="font-size: 9px; font-family: 'Helvetica', 'Arial', 'DejaVu Sans', 'Bitstream Vera Sans', 'Computer Modern Sans Serif', 'Lucida Grande', 'Verdana', 'Geneva', 'Lucid', 'Avant Garde', sans-serif; text-anchor: start" x="79.719261" y="285.479047" transform="rotate(-0 79.719261 285.479047)">POR</text>
   </g>
   <g id="text_24">
    <text style="font-size: 9px; font-family: 'Helvetica', 'Arial', 'DejaVu Sans', 'Bitstream Vera Sans', 'Computer Modern Sans Serif', 'Lucida Grande', 'Verdana', 'Geneva', 'Lucid', 'Avant Garde', sans-serif; text-anchor: start" x="586.991989" y="118.637668" transform="rotate(-0 586.991989 118.637668)">RL</text>
   </g>
   <g id="text_25">
    <text style="font-size: 12px; font-family: 'Helvetica', 'Arial', 'DejaVu Sans', 'Bitstream Vera Sans', 'Computer Modern Sans Serif', 'Lucida Grande', 'Verdana', 'Geneva', 'Lucid', 'Avant Garde', sans-serif" transform="translate(286.003125 15.808125)">p3 - All Regions</text>
    <text style="font-size: 12px; font-family: 'Helvetica', 'Arial', 'DejaVu Sans', 'Bitstream Vera Sans', 'Computer Modern Sans Serif', 'Lucida Grande', 'Verdana', 'Geneva', 'Lucid', 'Avant Garde', sans-serif" transform="translate(244.995938 28.961625)">Imputed Data Analysis (zscore)</text>
    <text style="font-size: 12px; font-family: 'Helvetica', 'Arial', 'DejaVu Sans', 'Bitstream Vera Sans', 'Computer Modern Sans Serif', 'Lucida Grande', 'Verdana', 'Geneva', 'Lucid', 'Avant Garde', sans-serif" transform="translate(268.652813 41.863875)">r = 0.3545, r² = 0.1256</text>
   </g>
  </g>
 </g>
 <defs>
  <clipPath id="p445661f2f1">
   <rect x="49.355625" y="47.863875" width="558" height="443.52"/>
  </clipPath>
 </defs>
</svg>
