<?xml version="1.0" encoding="utf-8" standalone="no"?>
<!DOCTYPE svg PUBLIC "-//W3C//DTD SVG 1.1//EN"
  "http://www.w3.org/Graphics/SVG/1.1/DTD/svg11.dtd">
<svg xmlns:xlink="http://www.w3.org/1999/xlink" width="608.715pt" height="530.245437pt" viewBox="0 0 608.715 530.245437" xmlns="http://www.w3.org/2000/svg" version="1.1">
 <metadata>
  <rdf:RDF xmlns:dc="http://purl.org/dc/elements/1.1/" xmlns:cc="http://creativecommons.org/ns#" xmlns:rdf="http://www.w3.org/1999/02/22-rdf-syntax-ns#">
   <cc:Work>
    <dc:type rdf:resource="http://purl.org/dc/dcmitype/StillImage"/>
    <dc:date>2026-02-24T12:29:37.566856</dc:date>
    <dc:format>image/svg+xml</dc:format>
    <dc:creator>
     <cc:Agent>
      <dc:title>Matplotlib v3.10.5, https://matplotlib.org/</dc:title>
     </cc:Agent>
    </dc:creator>
   </cc:Work>
  </rdf:RDF>
 </metadata>
 <defs>
  <style type="text/css">*{stroke-linejoin: round; stroke-linecap: butt}</style>
 </defs>
 <g id="figure_1">
  <g id="patch_1">
   <path d="M 0 530.245437 
L 608.715 530.245437 
L 608.715 0 
L 0 0 
z
" style="fill: #ffffff"/>
  </g>
  <g id="axes_1">
   <g id="patch_2">
    <path d="M 43.515 491.466375 
L 601.515 491.466375 
L 601.515 47.946375 
L 43.515 47.946375 
z
" style="fill: #ffffff"/>
   </g>
   <g id="PathCollection_1">
    <defs>
     <path id="C0_0_fcb7564d4e" d="M 0 5 
C 1.326016 5 2.597899 4.473168 3.535534 3.535534 
C 4.473168 2.597899 5 1.326016 5 -0 
C 5 -1.326016 4.473168 -2.597899 3.535534 -3.535534 
C 2.597899 -4.473168 1.326016 -5 0 -5 
C -1.326016 -5 -2.597899 -4.473168 -3.535534 -3.535534 
C -4.473168 -2.597899 -5 -1.326016 -5 0 
C -5 1.326016 -4.473168 2.597899 -3.535534 3.535534 
C -2.597899 4.473168 -1.326016 5 0 5 
z
"/>
    </defs>
    <g clip-path="url(#p6d92db6cf8)">
     <use xlink:href="#C0_0_fcb7564d4e" x="68.878636" y="471.306375" style="fill: #00008b"/>
    </g>
    <g clip-path="url(#p6d92db6cf8)">
     <use xlink:href="#C0_0_fcb7564d4e" x="68.878636" y="148.746375" style="fill: #00008b"/>
    </g>
    <g clip-path="url(#p6d92db6cf8)">
     <use xlink:href="#C0_0_fcb7564d4e" x="68.878636" y="68.106375" style="fill: #00008b"/>
    </g>
    <g clip-path="url(#p6d92db6cf8)">
     <use xlink:href="#C0_0_fcb7564d4e" x="68.878636" y="471.306375" style="fill: #00008b"/>
    </g>
    <g clip-path="url(#p6d92db6cf8)">
     <use xlink:href="#C0_0_fcb7564d4e" x="68.878636" y="471.306375" style="fill: #00008b"/>
    </g>
    <g clip-path="url(#p6d92db6cf8)">
     <use xlink:href="#C0_0_fcb7564d4e" x="68.878636" y="471.306375" style="fill: #00008b"/>
    </g>
    <g clip-path="url(#p6d92db6cf8)">
     <use xlink:href="#C0_0_fcb7564d4e" x="576.151364" y="471.306375" style="fill: #00008b"/>
    </g>
    <g clip-path="url(#p6d92db6cf8)">
     <use xlink:href="#C0_0_fcb7564d4e" x="68.878636" y="471.306375" style="fill: #00008b"/>
    </g>
   </g>
   <g id="matplotlib.axis_1">
    <g id="xtick_1">
     <g id="line2d_1">
      <defs>
       <path id="mb691c0f986" d="M 0 0 
L 0 3.5 
" style="stroke: #000000; stroke-width: 0.8"/>
      </defs>
      <g>
       <use xlink:href="#mb691c0f986" x="68.878636" y="491.466375" style="stroke: #000000; stroke-width: 0.8"/>
      </g>
     </g>
     <g id="text_1">
      <text style="font-size: 10px; font-family: 'Helvetica', 'Arial', 'DejaVu Sans', 'Bitstream Vera Sans', 'Computer Modern Sans Serif', 'Lucida Grande', 'Verdana', 'Geneva', 'Lucid', 'Avant Garde', sans-serif; text-anchor: middle" x="68.878636" y="505.639812" transform="rotate(-0 68.878636 505.639812)">0.0</text>
     </g>
    </g>
    <g id="xtick_2">
     <g id="line2d_2">
      <g>
       <use xlink:href="#mb691c0f986" x="175.457689" y="491.466375" style="stroke: #000000; stroke-width: 0.8"/>
      </g>
     </g>
     <g id="text_2">
      <text style="font-size: 10px; font-family: 'Helvetica', 'Arial', 'DejaVu Sans', 'Bitstream Vera Sans', 'Computer Modern Sans Serif', 'Lucida Grande', 'Verdana', 'Geneva', 'Lucid', 'Avant Garde', sans-serif; text-anchor: middle" x="175.457689" y="505.639812" transform="rotate(-0 175.457689 505.639812)">0.1</text>
     </g>
    </g>
    <g id="xtick_3">
     <g id="line2d_3">
      <g>
       <use xlink:href="#mb691c0f986" x="282.036742" y="491.466375" style="stroke: #000000; stroke-width: 0.8"/>
      </g>
     </g>
     <g id="text_3">
      <text style="font-size: 10px; font-family: 'Helvetica', 'Arial', 'DejaVu Sans', 'Bitstream Vera Sans', 'Computer Modern Sans Serif', 'Lucida Grande', 'Verdana', 'Geneva', 'Lucid', 'Avant Garde', sans-serif; text-anchor: middle" x="282.036742" y="505.639812" transform="rotate(-0 282.036742 505.639812)">0.2</text>
     </g>
    </g>
    <g id="xtick_4">
     <g id="line2d_4">
      <g>
       <use xlink:href="#mb691c0f986" x="388.615795" y="491.466375" style="stroke: #000000; stroke-width: 0.8"/>
      </g>
     </g>
     <g id="text_4">
      <text style="font-size: 10px; font-family: 'Helvetica', 'Arial', 'DejaVu Sans', 'Bitstream Vera Sans', 'Computer Modern Sans Serif', 'Lucida Grande', 'Verdana', 'Geneva', 'Lucid', 'Avant Garde', sans-serif; text-anchor: middle" x="388.615795" y="505.639812" transform="rotate(-0 388.615795 505.639812)">0.3</text>
     </g>
    </g>
    <g id="xtick_5">
     <g id="line2d_5">
      <g>
       <use xlink:href="#mb691c0f986" x="495.194848" y="491.466375" style="stroke: #000000; stroke-width: 0.8"/>
      </g>
     </g>
     <g id="text_5">
      <text style="font-size: 10px; font-family: 'Helvetica', 'Arial', 'DejaVu Sans', 'Bitstream Vera Sans', 'Computer Modern Sans Serif', 'Lucida Grande', 'Verdana', 'Geneva', 'Lucid', 'Avant Garde', sans-serif; text-anchor: middle" x="495.194848" y="505.639812" transform="rotate(-0 495.194848 505.639812)">0.4</text>
     </g>
    </g>
    <g id="text_6">
     <text style="font-size: 12px; font-family: 'Helvetica', 'Arial', 'DejaVu Sans', 'Bitstream Vera Sans', 'Computer Modern Sans Serif', 'Lucida Grande', 'Verdana', 'Geneva', 'Lucid', 'Avant Garde', sans-serif; text-anchor: middle" x="322.515" y="520.472937" transform="rotate(-0 322.515 520.472937)">H2B Intensity (Robust Normalized)</text>
    </g>
   </g>
   <g id="matplotlib.axis_2">
    <g id="ytick_1">
     <g id="line2d_6">
      <defs>
       <path id="m08fb4cc7c4" d="M 0 0 
L -3.5 0 
" style="stroke: #000000; stroke-width: 0.8"/>
      </defs>
      <g>
       <use xlink:href="#m08fb4cc7c4" x="43.515" y="471.306375" style="stroke: #000000; stroke-width: 0.8"/>
      </g>
     </g>
     <g id="text_7">
      <text style="font-size: 10px; font-family: 'Helvetica', 'Arial', 'DejaVu Sans', 'Bitstream Vera Sans', 'Computer Modern Sans Serif', 'Lucida Grande', 'Verdana', 'Geneva', 'Lucid', 'Avant Garde', sans-serif; text-anchor: end" x="36.515" y="474.893094" transform="rotate(-0 36.515 474.893094)">0.0</text>
     </g>
    </g>
    <g id="ytick_2">
     <g id="line2d_7">
      <g>
       <use xlink:href="#m08fb4cc7c4" x="43.515" y="413.199131" style="stroke: #000000; stroke-width: 0.8"/>
      </g>
     </g>
     <g id="text_8">
      <text style="font-size: 10px; font-family: 'Helvetica', 'Arial', 'DejaVu Sans', 'Bitstream Vera Sans', 'Computer Modern Sans Serif', 'Lucida Grande', 'Verdana', 'Geneva', 'Lucid', 'Avant Garde', sans-serif; text-anchor: end" x="36.515" y="416.78585" transform="rotate(-0 36.515 416.78585)">0.2</text>
     </g>
    </g>
    <g id="ytick_3">
     <g id="line2d_8">
      <g>
       <use xlink:href="#m08fb4cc7c4" x="43.515" y="355.091887" style="stroke: #000000; stroke-width: 0.8"/>
      </g>
     </g>
     <g id="text_9">
      <text style="font-size: 10px; font-family: 'Helvetica', 'Arial', 'DejaVu Sans', 'Bitstream Vera Sans', 'Computer Modern Sans Serif', 'Lucida Grande', 'Verdana', 'Geneva', 'Lucid', 'Avant Garde', sans-serif; text-anchor: end" x="36.515" y="358.678606" transform="rotate(-0 36.515 358.678606)">0.4</text>
     </g>
    </g>
    <g id="ytick_4">
     <g id="line2d_9">
      <g>
       <use xlink:href="#m08fb4cc7c4" x="43.515" y="296.984644" style="stroke: #000000; stroke-width: 0.8"/>
      </g>
     </g>
     <g id="text_10">
      <text style="font-size: 10px; font-family: 'Helvetica', 'Arial', 'DejaVu Sans', 'Bitstream Vera Sans', 'Computer Modern Sans Serif', 'Lucida Grande', 'Verdana', 'Geneva', 'Lucid', 'Avant Garde', sans-serif; text-anchor: end" x="36.515" y="300.571362" transform="rotate(-0 36.515 300.571362)">0.6</text>
     </g>
    </g>
    <g id="ytick_5">
     <g id="line2d_10">
      <g>
       <use xlink:href="#m08fb4cc7c4" x="43.515" y="238.8774" style="stroke: #000000; stroke-width: 0.8"/>
      </g>
     </g>
     <g id="text_11">
      <text style="font-size: 10px; font-family: 'Helvetica', 'Arial', 'DejaVu Sans', 'Bitstream Vera Sans', 'Computer Modern Sans Serif', 'Lucida Grande', 'Verdana', 'Geneva', 'Lucid', 'Avant Garde', sans-serif; text-anchor: end" x="36.515" y="242.464118" transform="rotate(-0 36.515 242.464118)">0.8</text>
     </g>
    </g>
    <g id="ytick_6">
     <g id="line2d_11">
      <g>
       <use xlink:href="#m08fb4cc7c4" x="43.515" y="180.770156" style="stroke: #000000; stroke-width: 0.8"/>
      </g>
     </g>
     <g id="text_12">
      <text style="font-size: 10px; font-family: 'Helvetica', 'Arial', 'DejaVu Sans', 'Bitstream Vera Sans', 'Computer Modern Sans Serif', 'Lucida Grande', 'Verdana', 'Geneva', 'Lucid', 'Avant Garde', sans-serif; text-anchor: end" x="36.515" y="184.356875" transform="rotate(-0 36.515 184.356875)">1.0</text>
     </g>
    </g>
    <g id="ytick_7">
     <g id="line2d_12">
      <g>
       <use xlink:href="#m08fb4cc7c4" x="43.515" y="122.662912" style="stroke: #000000; stroke-width: 0.8"/>
      </g>
     </g>
     <g id="text_13">
      <text style="font-size: 10px; font-family: 'Helvetica', 'Arial', 'DejaVu Sans', 'Bitstream Vera Sans', 'Computer Modern Sans Serif', 'Lucida Grande', 'Verdana', 'Geneva', 'Lucid', 'Avant Garde', sans-serif; text-anchor: end" x="36.515" y="126.249631" transform="rotate(-0 36.515 126.249631)">1.2</text>
     </g>
    </g>
    <g id="ytick_8">
     <g id="line2d_13">
      <g>
       <use xlink:href="#m08fb4cc7c4" x="43.515" y="64.555668" style="stroke: #000000; stroke-width: 0.8"/>
      </g>
     </g>
     <g id="text_14">
      <text style="font-size: 10px; font-family: 'Helvetica', 'Arial', 'DejaVu Sans', 'Bitstream Vera Sans', 'Computer Modern Sans Serif', 'Lucida Grande', 'Verdana', 'Geneva', 'Lucid', 'Avant Garde', sans-serif; text-anchor: end" x="36.515" y="68.142387" transform="rotate(-0 36.515 68.142387)">1.4</text>
     </g>
    </g>
    <g id="text_15">
     <text style="font-size: 12px; font-family: 'Helvetica', 'Arial', 'DejaVu Sans', 'Bitstream Vera Sans', 'Computer Modern Sans Serif', 'Lucida Grande', 'Verdana', 'Geneva', 'Lucid', 'Avant Garde', sans-serif; text-anchor: middle" x="16.0425" y="269.706375" transform="rotate(-90 16.0425 269.706375)">VSV Intensity (Robust Normalized)</text>
    </g>
    <g id="text_16">
     <text style="font-size: 10px; font-family: 'Helvetica', 'Arial', 'DejaVu Sans', 'Bitstream Vera Sans', 'Computer Modern Sans Serif', 'Lucida Grande', 'Verdana', 'Geneva', 'Lucid', 'Avant Garde', sans-serif; text-anchor: start" x="43.515" y="44.946375" transform="rotate(-0 43.515 44.946375)">1e−16</text>
    </g>
   </g>
   <g id="line2d_14">
    <path d="M 68.878636 367.626375 
L 74.002603 368.673648 
L 79.12657 369.72092 
L 84.250537 370.768193 
L 89.374504 371.815466 
L 94.498471 372.862739 
L 99.622438 373.910011 
L 104.746405 374.957284 
L 109.870372 376.004557 
L 114.994339 377.05183 
L 120.118306 378.099102 
L 125.242273 379.146375 
L 130.36624 380.193648 
L 135.490207 381.24092 
L 140.614174 382.288193 
L 145.73814 383.335466 
L 150.862107 384.382739 
L 155.986074 385.430011 
L 161.110041 386.477284 
L 166.234008 387.524557 
L 171.357975 388.57183 
L 176.481942 389.619102 
L 181.605909 390.666375 
L 186.729876 391.713648 
L 191.853843 392.76092 
L 196.97781 393.808193 
L 202.101777 394.855466 
L 207.225744 395.902739 
L 212.349711 396.950011 
L 217.473678 397.997284 
L 222.597645 399.044557 
L 227.721612 400.09183 
L 232.845579 401.139102 
L 237.969545 402.186375 
L 243.093512 403.233648 
L 248.217479 404.28092 
L 253.341446 405.328193 
L 258.465413 406.375466 
L 263.58938 407.422739 
L 268.713347 408.470011 
L 273.837314 409.517284 
L 278.961281 410.564557 
L 284.085248 411.61183 
L 289.209215 412.659102 
L 294.333182 413.706375 
L 299.457149 414.753648 
L 304.581116 415.80092 
L 309.705083 416.848193 
L 314.82905 417.895466 
L 319.953017 418.942739 
L 325.076983 419.990011 
L 330.20095 421.037284 
L 335.324917 422.084557 
L 340.448884 423.13183 
L 345.572851 424.179102 
L 350.696818 425.226375 
L 355.820785 426.273648 
L 360.944752 427.32092 
L 366.068719 428.368193 
L 371.192686 429.415466 
L 376.316653 430.462739 
L 381.44062 431.510011 
L 386.564587 432.557284 
L 391.688554 433.604557 
L 396.812521 434.65183 
L 401.936488 435.699102 
L 407.060455 436.746375 
L 412.184421 437.793648 
L 417.308388 438.84092 
L 422.432355 439.888193 
L 427.556322 440.935466 
L 432.680289 441.982739 
L 437.804256 443.030011 
L 442.928223 444.077284 
L 448.05219 445.124557 
L 453.176157 446.17183 
L 458.300124 447.219102 
L 463.424091 448.266375 
L 468.548058 449.313648 
L 473.672025 450.36092 
L 478.795992 451.408193 
L 483.919959 452.455466 
L 489.043926 453.502739 
L 494.167893 454.550011 
L 499.29186 455.597284 
L 504.415826 456.644557 
L 509.539793 457.69183 
L 514.66376 458.739102 
L 519.787727 459.786375 
L 524.911694 460.833648 
L 530.035661 461.88092 
L 535.159628 462.928193 
L 540.283595 463.975466 
L 545.407562 465.022739 
L 550.531529 466.070011 
L 555.655496 467.117284 
L 560.779463 468.164557 
L 565.90343 469.21183 
L 571.027397 470.259102 
L 576.151364 471.306375 
" clip-path="url(#p6d92db6cf8)" style="fill: none; stroke: #000000; stroke-width: 2; stroke-linecap: square"/>
   </g>
   <g id="patch_3">
    <path d="M 43.515 491.466375 
L 43.515 47.946375 
" style="fill: none; stroke: #000000; stroke-width: 0.8; stroke-linejoin: miter; stroke-linecap: square"/>
   </g>
   <g id="patch_4">
    <path d="M 43.515 491.466375 
L 601.515 491.466375 
" style="fill: none; stroke: #000000; stroke-width: 0.8; stroke-linejoin: miter; stroke-linecap: square"/>
   </g>
   <g id="text_17">
    <text style="font-size: 9px; font-family: 'Helvetica', 'Arial', 'DejaVu Sans', 'Bitstream Vera Sans', 'Computer Modern Sans Serif', 'Lucida Grande', 'Verdana', 'Geneva', 'Lucid', 'Avant Garde', sans-serif; text-anchor: start" x="73.878636" y="466.306375" transform="rotate(-0 73.878636 466.306375)">A</text>
   </g>
   <g id="text_18">
    <text style="font-size: 9px; font-family: 'Helvetica', 'Arial', 'DejaVu Sans', 'Bitstream Vera Sans', 'Computer Modern Sans Serif', 'Lucida Grande', 'Verdana', 'Geneva', 'Lucid', 'Avant Garde', sans-serif; text-anchor: start" x="73.878636" y="143.746375" transform="rotate(-0 73.878636 143.746375)">AL</text>
   </g>
   <g id="text_19">
    <text style="font-size: 9px; font-family: 'Helvetica', 'Arial', 'DejaVu Sans', 'Bitstream Vera Sans', 'Computer Modern Sans Serif', 'Lucida Grande', 'Verdana', 'Geneva', 'Lucid', 'Avant Garde', sans-serif; text-anchor: start" x="73.878636" y="63.106375" transform="rotate(-0 73.878636 63.106375)">AM</text>
   </g>
   <g id="text_20">
    <text style="font-size: 9px; font-family: 'Helvetica', 'Arial', 'DejaVu Sans', 'Bitstream Vera Sans', 'Computer Modern Sans Serif', 'Lucida Grande', 'Verdana', 'Geneva', 'Lucid', 'Avant Garde', sans-serif; text-anchor: start" x="73.878636" y="466.306375" transform="rotate(-0 73.878636 466.306375)">LM</text>
   </g>
   <g id="text_21">
    <text style="font-size: 9px; font-family: 'Helvetica', 'Arial', 'DejaVu Sans', 'Bitstream Vera Sans', 'Computer Modern Sans Serif', 'Lucida Grande', 'Verdana', 'Geneva', 'Lucid', 'Avant Garde', sans-serif; text-anchor: start" x="73.878636" y="466.306375" transform="rotate(-0 73.878636 466.306375)">LI</text>
   </g>
   <g id="text_22">
    <text style="font-size: 9px; font-family: 'Helvetica', 'Arial', 'DejaVu Sans', 'Bitstream Vera Sans', 'Computer Modern Sans Serif', 'Lucida Grande', 'Verdana', 'Geneva', 'Lucid', 'Avant Garde', sans-serif; text-anchor: start" x="73.878636" y="466.306375" transform="rotate(-0 73.878636 466.306375)">PM</text>
   </g>
   <g id="text_23">
    <text style="font-size: 9px; font-family: 'Helvetica', 'Arial', 'DejaVu Sans', 'Bitstream Vera Sans', 'Computer Modern Sans Serif', 'Lucida Grande', 'Verdana', 'Geneva', 'Lucid', 'Avant Garde', sans-serif; text-anchor: start" x="581.151364" y="466.306375" transform="rotate(-0 581.151364 466.306375)">POR</text>
   </g>
   <g id="text_24">
    <text style="font-size: 9px; font-family: 'Helvetica', 'Arial', 'DejaVu Sans', 'Bitstream Vera Sans', 'Computer Modern Sans Serif', 'Lucida Grande', 'Verdana', 'Geneva', 'Lucid', 'Avant Garde', sans-serif; text-anchor: start" x="73.878636" y="466.306375" transform="rotate(-0 73.878636 466.306375)">RL</text>
   </g>
   <g id="text_25">
    <text style="font-size: 12px; font-family: 'Helvetica', 'Arial', 'DejaVu Sans', 'Bitstream Vera Sans', 'Computer Modern Sans Serif', 'Lucida Grande', 'Verdana', 'Geneva', 'Lucid', 'Avant Garde', sans-serif" transform="translate(276.825938 15.808125)">p20 - All Regions</text>
    <text style="font-size: 12px; font-family: 'Helvetica', 'Arial', 'DejaVu Sans', 'Bitstream Vera Sans', 'Computer Modern Sans Serif', 'Lucida Grande', 'Verdana', 'Geneva', 'Lucid', 'Avant Garde', sans-serif" transform="translate(220.8075 28.961625)">Averaged Replicates Analysis (robust)</text>
    <text style="font-size: 12px; font-family: 'Helvetica', 'Arial', 'DejaVu Sans', 'Bitstream Vera Sans', 'Computer Modern Sans Serif', 'Lucida Grande', 'Verdana', 'Geneva', 'Lucid', 'Avant Garde', sans-serif" transform="translate(260.814375 41.946375)">r = -0.2160, r² = 0.0466</text>
   </g>
  </g>
 </g>
 <defs>
  <clipPath id="p6d92db6cf8">
   <rect x="43.515" y="47.946375" width="558" height="443.52"/>
  </clipPath>
 </defs>
</svg>
