<?xml version="1.0" encoding="utf-8" standalone="no"?>
<!DOCTYPE svg PUBLIC "-//W3C//DTD SVG 1.1//EN"
  "http://www.w3.org/Graphics/SVG/1.1/DTD/svg11.dtd">
<svg xmlns:xlink="http://www.w3.org/1999/xlink" width="606.299062pt" height="530.245437pt" viewBox="0 0 606.299062 530.245437" xmlns="http://www.w3.org/2000/svg" version="1.1">
 <metadata>
  <rdf:RDF xmlns:dc="http://purl.org/dc/elements/1.1/" xmlns:cc="http://creativecommons.org/ns#" xmlns:rdf="http://www.w3.org/1999/02/22-rdf-syntax-ns#">
   <cc:Work>
    <dc:type rdf:resource="http://purl.org/dc/dcmitype/StillImage"/>
    <dc:date>2026-02-24T12:29:26.470660</dc:date>
    <dc:format>image/svg+xml</dc:format>
    <dc:creator>
     <cc:Agent>
      <dc:title>Matplotlib v3.10.5, https://matplotlib.org/</dc:title>
     </cc:Agent>
    </dc:creator>
   </cc:Work>
  </rdf:RDF>
 </metadata>
 <defs>
  <style type="text/css">*{stroke-linejoin: round; stroke-linecap: butt}</style>
 </defs>
 <g id="figure_1">
  <g id="patch_1">
   <path d="M 0 530.245437 
L 606.299062 530.245437 
L 606.299062 0 
L 0 0 
z
" style="fill: #ffffff"/>
  </g>
  <g id="axes_1">
   <g id="patch_2">
    <path d="M 41.099063 491.383875 
L 599.099062 491.383875 
L 599.099062 47.863875 
L 41.099063 47.863875 
z
" style="fill: #ffffff"/>
   </g>
   <g id="PathCollection_1">
    <defs>
     <path id="C0_0_47c5cedcf4" d="M 0 5 
C 1.326016 5 2.597899 4.473168 3.535534 3.535534 
C 4.473168 2.597899 5 1.326016 5 -0 
C 5 -1.326016 4.473168 -2.597899 3.535534 -3.535534 
C 2.597899 -4.473168 1.326016 -5 0 -5 
C -1.326016 -5 -2.597899 -4.473168 -3.535534 -3.535534 
C -4.473168 -2.597899 -5 -1.326016 -5 0 
C -5 1.326016 -4.473168 2.597899 -3.535534 3.535534 
C -2.597899 4.473168 -1.326016 5 0 5 
z
"/>
    </defs>
    <g clip-path="url(#pf7ed081de7)">
     <use xlink:href="#C0_0_47c5cedcf4" x="66.462699" y="215.863875" style="fill: #00008b"/>
    </g>
    <g clip-path="url(#pf7ed081de7)">
     <use xlink:href="#C0_0_47c5cedcf4" x="66.462699" y="471.223875" style="fill: #00008b"/>
    </g>
    <g clip-path="url(#pf7ed081de7)">
     <use xlink:href="#C0_0_47c5cedcf4" x="66.462699" y="276.343875" style="fill: #00008b"/>
    </g>
    <g clip-path="url(#pf7ed081de7)">
     <use xlink:href="#C0_0_47c5cedcf4" x="66.462699" y="296.503875" style="fill: #00008b"/>
    </g>
    <g clip-path="url(#pf7ed081de7)">
     <use xlink:href="#C0_0_47c5cedcf4" x="66.462699" y="68.023875" style="fill: #00008b"/>
    </g>
    <g clip-path="url(#pf7ed081de7)">
     <use xlink:href="#C0_0_47c5cedcf4" x="66.462699" y="363.703875" style="fill: #00008b"/>
    </g>
    <g clip-path="url(#pf7ed081de7)">
     <use xlink:href="#C0_0_47c5cedcf4" x="573.735426" y="336.823875" style="fill: #00008b"/>
    </g>
    <g clip-path="url(#pf7ed081de7)">
     <use xlink:href="#C0_0_47c5cedcf4" x="66.462699" y="417.463875" style="fill: #00008b"/>
    </g>
   </g>
   <g id="matplotlib.axis_1">
    <g id="xtick_1">
     <g id="line2d_1">
      <defs>
       <path id="me7d8f27fad" d="M 0 0 
L 0 3.5 
" style="stroke: #000000; stroke-width: 0.8"/>
      </defs>
      <g>
       <use xlink:href="#me7d8f27fad" x="66.462699" y="491.383875" style="stroke: #000000; stroke-width: 0.8"/>
      </g>
     </g>
     <g id="text_1">
      <text style="font-size: 10px; font-family: 'Helvetica', 'Arial', 'DejaVu Sans', 'Bitstream Vera Sans', 'Computer Modern Sans Serif', 'Lucida Grande', 'Verdana', 'Geneva', 'Lucid', 'Avant Garde', sans-serif; text-anchor: middle" x="66.462699" y="505.557312" transform="rotate(-0 66.462699 505.557312)">0.00</text>
     </g>
    </g>
    <g id="xtick_2">
     <g id="line2d_2">
      <g>
       <use xlink:href="#me7d8f27fad" x="130.140556" y="491.383875" style="stroke: #000000; stroke-width: 0.8"/>
      </g>
     </g>
     <g id="text_2">
      <text style="font-size: 10px; font-family: 'Helvetica', 'Arial', 'DejaVu Sans', 'Bitstream Vera Sans', 'Computer Modern Sans Serif', 'Lucida Grande', 'Verdana', 'Geneva', 'Lucid', 'Avant Garde', sans-serif; text-anchor: middle" x="130.140556" y="505.557312" transform="rotate(-0 130.140556 505.557312)">0.02</text>
     </g>
    </g>
    <g id="xtick_3">
     <g id="line2d_3">
      <g>
       <use xlink:href="#me7d8f27fad" x="193.818414" y="491.383875" style="stroke: #000000; stroke-width: 0.8"/>
      </g>
     </g>
     <g id="text_3">
      <text style="font-size: 10px; font-family: 'Helvetica', 'Arial', 'DejaVu Sans', 'Bitstream Vera Sans', 'Computer Modern Sans Serif', 'Lucida Grande', 'Verdana', 'Geneva', 'Lucid', 'Avant Garde', sans-serif; text-anchor: middle" x="193.818414" y="505.557312" transform="rotate(-0 193.818414 505.557312)">0.04</text>
     </g>
    </g>
    <g id="xtick_4">
     <g id="line2d_4">
      <g>
       <use xlink:href="#me7d8f27fad" x="257.496271" y="491.383875" style="stroke: #000000; stroke-width: 0.8"/>
      </g>
     </g>
     <g id="text_4">
      <text style="font-size: 10px; font-family: 'Helvetica', 'Arial', 'DejaVu Sans', 'Bitstream Vera Sans', 'Computer Modern Sans Serif', 'Lucida Grande', 'Verdana', 'Geneva', 'Lucid', 'Avant Garde', sans-serif; text-anchor: middle" x="257.496271" y="505.557312" transform="rotate(-0 257.496271 505.557312)">0.06</text>
     </g>
    </g>
    <g id="xtick_5">
     <g id="line2d_5">
      <g>
       <use xlink:href="#me7d8f27fad" x="321.174129" y="491.383875" style="stroke: #000000; stroke-width: 0.8"/>
      </g>
     </g>
     <g id="text_5">
      <text style="font-size: 10px; font-family: 'Helvetica', 'Arial', 'DejaVu Sans', 'Bitstream Vera Sans', 'Computer Modern Sans Serif', 'Lucida Grande', 'Verdana', 'Geneva', 'Lucid', 'Avant Garde', sans-serif; text-anchor: middle" x="321.174129" y="505.557312" transform="rotate(-0 321.174129 505.557312)">0.08</text>
     </g>
    </g>
    <g id="xtick_6">
     <g id="line2d_6">
      <g>
       <use xlink:href="#me7d8f27fad" x="384.851986" y="491.383875" style="stroke: #000000; stroke-width: 0.8"/>
      </g>
     </g>
     <g id="text_6">
      <text style="font-size: 10px; font-family: 'Helvetica', 'Arial', 'DejaVu Sans', 'Bitstream Vera Sans', 'Computer Modern Sans Serif', 'Lucida Grande', 'Verdana', 'Geneva', 'Lucid', 'Avant Garde', sans-serif; text-anchor: middle" x="384.851986" y="505.557312" transform="rotate(-0 384.851986 505.557312)">0.10</text>
     </g>
    </g>
    <g id="xtick_7">
     <g id="line2d_7">
      <g>
       <use xlink:href="#me7d8f27fad" x="448.529843" y="491.383875" style="stroke: #000000; stroke-width: 0.8"/>
      </g>
     </g>
     <g id="text_7">
      <text style="font-size: 10px; font-family: 'Helvetica', 'Arial', 'DejaVu Sans', 'Bitstream Vera Sans', 'Computer Modern Sans Serif', 'Lucida Grande', 'Verdana', 'Geneva', 'Lucid', 'Avant Garde', sans-serif; text-anchor: middle" x="448.529843" y="505.557312" transform="rotate(-0 448.529843 505.557312)">0.12</text>
     </g>
    </g>
    <g id="xtick_8">
     <g id="line2d_8">
      <g>
       <use xlink:href="#me7d8f27fad" x="512.207701" y="491.383875" style="stroke: #000000; stroke-width: 0.8"/>
      </g>
     </g>
     <g id="text_8">
      <text style="font-size: 10px; font-family: 'Helvetica', 'Arial', 'DejaVu Sans', 'Bitstream Vera Sans', 'Computer Modern Sans Serif', 'Lucida Grande', 'Verdana', 'Geneva', 'Lucid', 'Avant Garde', sans-serif; text-anchor: middle" x="512.207701" y="505.557312" transform="rotate(-0 512.207701 505.557312)">0.14</text>
     </g>
    </g>
    <g id="xtick_9">
     <g id="line2d_9">
      <g>
       <use xlink:href="#me7d8f27fad" x="575.885558" y="491.383875" style="stroke: #000000; stroke-width: 0.8"/>
      </g>
     </g>
     <g id="text_9">
      <text style="font-size: 10px; font-family: 'Helvetica', 'Arial', 'DejaVu Sans', 'Bitstream Vera Sans', 'Computer Modern Sans Serif', 'Lucida Grande', 'Verdana', 'Geneva', 'Lucid', 'Avant Garde', sans-serif; text-anchor: middle" x="575.885558" y="505.557312" transform="rotate(-0 575.885558 505.557312)">0.16</text>
     </g>
    </g>
    <g id="text_10">
     <text style="font-size: 12px; font-family: 'Helvetica', 'Arial', 'DejaVu Sans', 'Bitstream Vera Sans', 'Computer Modern Sans Serif', 'Lucida Grande', 'Verdana', 'Geneva', 'Lucid', 'Avant Garde', sans-serif; text-anchor: middle" x="320.099063" y="520.390437" transform="rotate(-0 320.099063 520.390437)">H2B Intensity (log10 + Z-score)</text>
    </g>
   </g>
   <g id="matplotlib.axis_2">
    <g id="ytick_1">
     <g id="line2d_10">
      <defs>
       <path id="ma4c97593db" d="M 0 0 
L -3.5 0 
" style="stroke: #000000; stroke-width: 0.8"/>
      </defs>
      <g>
       <use xlink:href="#ma4c97593db" x="41.099063" y="406.789281" style="stroke: #000000; stroke-width: 0.8"/>
      </g>
     </g>
     <g id="text_11">
      <text style="font-size: 10px; font-family: 'Helvetica', 'Arial', 'DejaVu Sans', 'Bitstream Vera Sans', 'Computer Modern Sans Serif', 'Lucida Grande', 'Verdana', 'Geneva', 'Lucid', 'Avant Garde', sans-serif; text-anchor: end" x="34.099063" y="410.376" transform="rotate(-0 34.099063 410.376)">−2</text>
     </g>
    </g>
    <g id="ytick_2">
     <g id="line2d_11">
      <g>
       <use xlink:href="#ma4c97593db" x="41.099063" y="309.943875" style="stroke: #000000; stroke-width: 0.8"/>
      </g>
     </g>
     <g id="text_12">
      <text style="font-size: 10px; font-family: 'Helvetica', 'Arial', 'DejaVu Sans', 'Bitstream Vera Sans', 'Computer Modern Sans Serif', 'Lucida Grande', 'Verdana', 'Geneva', 'Lucid', 'Avant Garde', sans-serif; text-anchor: end" x="34.099063" y="313.530594" transform="rotate(-0 34.099063 313.530594)">0</text>
     </g>
    </g>
    <g id="ytick_3">
     <g id="line2d_12">
      <g>
       <use xlink:href="#ma4c97593db" x="41.099063" y="213.098469" style="stroke: #000000; stroke-width: 0.8"/>
      </g>
     </g>
     <g id="text_13">
      <text style="font-size: 10px; font-family: 'Helvetica', 'Arial', 'DejaVu Sans', 'Bitstream Vera Sans', 'Computer Modern Sans Serif', 'Lucida Grande', 'Verdana', 'Geneva', 'Lucid', 'Avant Garde', sans-serif; text-anchor: end" x="34.099063" y="216.685187" transform="rotate(-0 34.099063 216.685187)">2</text>
     </g>
    </g>
    <g id="ytick_4">
     <g id="line2d_13">
      <g>
       <use xlink:href="#ma4c97593db" x="41.099063" y="116.253062" style="stroke: #000000; stroke-width: 0.8"/>
      </g>
     </g>
     <g id="text_14">
      <text style="font-size: 10px; font-family: 'Helvetica', 'Arial', 'DejaVu Sans', 'Bitstream Vera Sans', 'Computer Modern Sans Serif', 'Lucida Grande', 'Verdana', 'Geneva', 'Lucid', 'Avant Garde', sans-serif; text-anchor: end" x="34.099063" y="119.839781" transform="rotate(-0 34.099063 119.839781)">4</text>
     </g>
    </g>
    <g id="text_15">
     <text style="font-size: 12px; font-family: 'Helvetica', 'Arial', 'DejaVu Sans', 'Bitstream Vera Sans', 'Computer Modern Sans Serif', 'Lucida Grande', 'Verdana', 'Geneva', 'Lucid', 'Avant Garde', sans-serif; text-anchor: middle" x="16.0425" y="269.623875" transform="rotate(-90 16.0425 269.623875)">VSV Intensity (log10 + Z-score)</text>
    </g>
    <g id="text_16">
     <text style="font-size: 10px; font-family: 'Helvetica', 'Arial', 'DejaVu Sans', 'Bitstream Vera Sans', 'Computer Modern Sans Serif', 'Lucida Grande', 'Verdana', 'Geneva', 'Lucid', 'Avant Garde', sans-serif; text-anchor: start" x="41.099063" y="44.863875" transform="rotate(-0 41.099063 44.863875)">1e−16</text>
    </g>
   </g>
   <g id="line2d_14">
    <path d="M 66.462699 301.303875 
L 71.586666 301.662663 
L 76.710633 302.021451 
L 81.8346 302.380239 
L 86.958567 302.739027 
L 92.082534 303.097814 
L 97.206501 303.456602 
L 102.330467 303.81539 
L 107.454434 304.174178 
L 112.578401 304.532966 
L 117.702368 304.891754 
L 122.826335 305.250542 
L 127.950302 305.60933 
L 133.074269 305.968117 
L 138.198236 306.326905 
L 143.322203 306.685693 
L 148.44617 307.044481 
L 153.570137 307.403269 
L 158.694104 307.762057 
L 163.818071 308.120845 
L 168.942038 308.479633 
L 174.066005 308.83842 
L 179.189972 309.197208 
L 184.313939 309.555996 
L 189.437905 309.914784 
L 194.561872 310.273572 
L 199.685839 310.63236 
L 204.809806 310.991148 
L 209.933773 311.349936 
L 215.05774 311.708723 
L 220.181707 312.067511 
L 225.305674 312.426299 
L 230.429641 312.785087 
L 235.553608 313.143875 
L 240.677575 313.502663 
L 245.801542 313.861451 
L 250.925509 314.220239 
L 256.049476 314.579027 
L 261.173443 314.937814 
L 266.29741 315.296602 
L 271.421377 315.65539 
L 276.545343 316.014178 
L 281.66931 316.372966 
L 286.793277 316.731754 
L 291.917244 317.090542 
L 297.041211 317.44933 
L 302.165178 317.808117 
L 307.289145 318.166905 
L 312.413112 318.525693 
L 317.537079 318.884481 
L 322.661046 319.243269 
L 327.785013 319.602057 
L 332.90898 319.960845 
L 338.032947 320.319633 
L 343.156914 320.67842 
L 348.280881 321.037208 
L 353.404848 321.395996 
L 358.528815 321.754784 
L 363.652782 322.113572 
L 368.776748 322.47236 
L 373.900715 322.831148 
L 379.024682 323.189936 
L 384.148649 323.548723 
L 389.272616 323.907511 
L 394.396583 324.266299 
L 399.52055 324.625087 
L 404.644517 324.983875 
L 409.768484 325.342663 
L 414.892451 325.701451 
L 420.016418 326.060239 
L 425.140385 326.419027 
L 430.264352 326.777814 
L 435.388319 327.136602 
L 440.512286 327.49539 
L 445.636253 327.854178 
L 450.76022 328.212966 
L 455.884186 328.571754 
L 461.008153 328.930542 
L 466.13212 329.28933 
L 471.256087 329.648117 
L 476.380054 330.006905 
L 481.504021 330.365693 
L 486.627988 330.724481 
L 491.751955 331.083269 
L 496.875922 331.442057 
L 501.999889 331.800845 
L 507.123856 332.159633 
L 512.247823 332.51842 
L 517.37179 332.877208 
L 522.495757 333.235996 
L 527.619724 333.594784 
L 532.743691 333.953572 
L 537.867658 334.31236 
L 542.991624 334.671148 
L 548.115591 335.029936 
L 553.239558 335.388723 
L 558.363525 335.747511 
L 563.487492 336.106299 
L 568.611459 336.465087 
L 573.735426 336.823875 
" clip-path="url(#pf7ed081de7)" style="fill: none; stroke: #000000; stroke-width: 2; stroke-linecap: square"/>
   </g>
   <g id="patch_3">
    <path d="M 41.099063 491.383875 
L 41.099063 47.863875 
" style="fill: none; stroke: #000000; stroke-width: 0.8; stroke-linejoin: miter; stroke-linecap: square"/>
   </g>
   <g id="patch_4">
    <path d="M 41.099062 491.383875 
L 599.099063 491.383875 
" style="fill: none; stroke: #000000; stroke-width: 0.8; stroke-linejoin: miter; stroke-linecap: square"/>
   </g>
   <g id="text_17">
    <text style="font-size: 9px; font-family: 'Helvetica', 'Arial', 'DejaVu Sans', 'Bitstream Vera Sans', 'Computer Modern Sans Serif', 'Lucida Grande', 'Verdana', 'Geneva', 'Lucid', 'Avant Garde', sans-serif; text-anchor: start" x="71.462699" y="210.863875" transform="rotate(-0 71.462699 210.863875)">A</text>
   </g>
   <g id="text_18">
    <text style="font-size: 9px; font-family: 'Helvetica', 'Arial', 'DejaVu Sans', 'Bitstream Vera Sans', 'Computer Modern Sans Serif', 'Lucida Grande', 'Verdana', 'Geneva', 'Lucid', 'Avant Garde', sans-serif; text-anchor: start" x="71.462699" y="466.223875" transform="rotate(-0 71.462699 466.223875)">AL</text>
   </g>
   <g id="text_19">
    <text style="font-size: 9px; font-family: 'Helvetica', 'Arial', 'DejaVu Sans', 'Bitstream Vera Sans', 'Computer Modern Sans Serif', 'Lucida Grande', 'Verdana', 'Geneva', 'Lucid', 'Avant Garde', sans-serif; text-anchor: start" x="71.462699" y="271.343875" transform="rotate(-0 71.462699 271.343875)">AM</text>
   </g>
   <g id="text_20">
    <text style="font-size: 9px; font-family: 'Helvetica', 'Arial', 'DejaVu Sans', 'Bitstream Vera Sans', 'Computer Modern Sans Serif', 'Lucida Grande', 'Verdana', 'Geneva', 'Lucid', 'Avant Garde', sans-serif; text-anchor: start" x="71.462699" y="291.503875" transform="rotate(-0 71.462699 291.503875)">LM</text>
   </g>
   <g id="text_21">
    <text style="font-size: 9px; font-family: 'Helvetica', 'Arial', 'DejaVu Sans', 'Bitstream Vera Sans', 'Computer Modern Sans Serif', 'Lucida Grande', 'Verdana', 'Geneva', 'Lucid', 'Avant Garde', sans-serif; text-anchor: start" x="71.462699" y="63.023875" transform="rotate(-0 71.462699 63.023875)">LI</text>
   </g>
   <g id="text_22">
    <text style="font-size: 9px; font-family: 'Helvetica', 'Arial', 'DejaVu Sans', 'Bitstream Vera Sans', 'Computer Modern Sans Serif', 'Lucida Grande', 'Verdana', 'Geneva', 'Lucid', 'Avant Garde', sans-serif; text-anchor: start" x="71.462699" y="358.703875" transform="rotate(-0 71.462699 358.703875)">PM</text>
   </g>
   <g id="text_23">
    <text style="font-size: 9px; font-family: 'Helvetica', 'Arial', 'DejaVu Sans', 'Bitstream Vera Sans', 'Computer Modern Sans Serif', 'Lucida Grande', 'Verdana', 'Geneva', 'Lucid', 'Avant Garde', sans-serif; text-anchor: start" x="578.735426" y="331.823875" transform="rotate(-0 578.735426 331.823875)">POR</text>
   </g>
   <g id="text_24">
    <text style="font-size: 9px; font-family: 'Helvetica', 'Arial', 'DejaVu Sans', 'Bitstream Vera Sans', 'Computer Modern Sans Serif', 'Lucida Grande', 'Verdana', 'Geneva', 'Lucid', 'Avant Garde', sans-serif; text-anchor: start" x="71.462699" y="412.463875" transform="rotate(-0 71.462699 412.463875)">RL</text>
   </g>
   <g id="text_25">
    <text style="font-size: 12px; font-family: 'Helvetica', 'Arial', 'DejaVu Sans', 'Bitstream Vera Sans', 'Computer Modern Sans Serif', 'Lucida Grande', 'Verdana', 'Geneva', 'Lucid', 'Avant Garde', sans-serif" transform="translate(274.41 15.808125)">p20 - All Regions</text>
    <text style="font-size: 12px; font-family: 'Helvetica', 'Arial', 'DejaVu Sans', 'Bitstream Vera Sans', 'Computer Modern Sans Serif', 'Lucida Grande', 'Verdana', 'Geneva', 'Lucid', 'Avant Garde', sans-serif" transform="translate(228.396563 28.961625)">Imputed Data Analysis (combined)</text>
    <text style="font-size: 12px; font-family: 'Helvetica', 'Arial', 'DejaVu Sans', 'Bitstream Vera Sans', 'Computer Modern Sans Serif', 'Lucida Grande', 'Verdana', 'Geneva', 'Lucid', 'Avant Garde', sans-serif" transform="translate(258.398438 41.863875)">r = -0.1003, r² = 0.0101</text>
   </g>
  </g>
 </g>
 <defs>
  <clipPath id="pf7ed081de7">
   <rect x="41.099063" y="47.863875" width="558" height="443.52"/>
  </clipPath>
 </defs>
</svg>
