<?xml version="1.0" encoding="utf-8" standalone="no"?>
<!DOCTYPE svg PUBLIC "-//W3C//DTD SVG 1.1//EN"
  "http://www.w3.org/Graphics/SVG/1.1/DTD/svg11.dtd">
<svg xmlns:xlink="http://www.w3.org/1999/xlink" width="608.715pt" height="530.245437pt" viewBox="0 0 608.715 530.245437" xmlns="http://www.w3.org/2000/svg" version="1.1">
 <metadata>
  <rdf:RDF xmlns:dc="http://purl.org/dc/elements/1.1/" xmlns:cc="http://creativecommons.org/ns#" xmlns:rdf="http://www.w3.org/1999/02/22-rdf-syntax-ns#">
   <cc:Work>
    <dc:type rdf:resource="http://purl.org/dc/dcmitype/StillImage"/>
    <dc:date>2026-02-24T12:28:54.989199</dc:date>
    <dc:format>image/svg+xml</dc:format>
    <dc:creator>
     <cc:Agent>
      <dc:title>Matplotlib v3.10.5, https://matplotlib.org/</dc:title>
     </cc:Agent>
    </dc:creator>
   </cc:Work>
  </rdf:RDF>
 </metadata>
 <defs>
  <style type="text/css">*{stroke-linejoin: round; stroke-linecap: butt}</style>
 </defs>
 <g id="figure_1">
  <g id="patch_1">
   <path d="M 0 530.245437 
L 608.715 530.245437 
L 608.715 0 
L 0 0 
z
" style="fill: #ffffff"/>
  </g>
  <g id="axes_1">
   <g id="patch_2">
    <path d="M 43.515 491.466375 
L 601.515 491.466375 
L 601.515 47.946375 
L 43.515 47.946375 
z
" style="fill: #ffffff"/>
   </g>
   <g id="PathCollection_1">
    <defs>
     <path id="C0_0_7ccc93c4e4" d="M 0 5 
C 1.326016 5 2.597899 4.473168 3.535534 3.535534 
C 4.473168 2.597899 5 1.326016 5 -0 
C 5 -1.326016 4.473168 -2.597899 3.535534 -3.535534 
C 2.597899 -4.473168 1.326016 -5 0 -5 
C -1.326016 -5 -2.597899 -4.473168 -3.535534 -3.535534 
C -4.473168 -2.597899 -5 -1.326016 -5 0 
C -5 1.326016 -4.473168 2.597899 -3.535534 3.535534 
C -2.597899 4.473168 -1.326016 5 0 5 
z
"/>
    </defs>
    <g clip-path="url(#p2a0a4177fe)">
     <use xlink:href="#C0_0_7ccc93c4e4" x="114.994339" y="471.306375" style="fill: #00008b"/>
    </g>
    <g clip-path="url(#p2a0a4177fe)">
     <use xlink:href="#C0_0_7ccc93c4e4" x="345.572851" y="471.306375" style="fill: #00008b"/>
    </g>
    <g clip-path="url(#p2a0a4177fe)">
     <use xlink:href="#C0_0_7ccc93c4e4" x="161.110041" y="471.306375" style="fill: #00008b"/>
    </g>
    <g clip-path="url(#p2a0a4177fe)">
     <use xlink:href="#C0_0_7ccc93c4e4" x="68.878636" y="471.306375" style="fill: #00008b"/>
    </g>
    <g clip-path="url(#p2a0a4177fe)">
     <use xlink:href="#C0_0_7ccc93c4e4" x="253.341446" y="471.306375" style="fill: #00008b"/>
    </g>
    <g clip-path="url(#p2a0a4177fe)">
     <use xlink:href="#C0_0_7ccc93c4e4" x="253.341446" y="471.306375" style="fill: #00008b"/>
    </g>
    <g clip-path="url(#p2a0a4177fe)">
     <use xlink:href="#C0_0_7ccc93c4e4" x="576.151364" y="471.306375" style="fill: #00008b"/>
    </g>
    <g clip-path="url(#p2a0a4177fe)">
     <use xlink:href="#C0_0_7ccc93c4e4" x="253.341446" y="68.106375" style="fill: #00008b"/>
    </g>
   </g>
   <g id="matplotlib.axis_1">
    <g id="xtick_1">
     <g id="line2d_1">
      <defs>
       <path id="ma30250fe84" d="M 0 0 
L 0 3.5 
" style="stroke: #000000; stroke-width: 0.8"/>
      </defs>
      <g>
       <use xlink:href="#ma30250fe84" x="87.192118" y="491.466375" style="stroke: #000000; stroke-width: 0.8"/>
      </g>
     </g>
     <g id="text_1">
      <text style="font-size: 10px; font-family: 'Helvetica', 'Arial', 'DejaVu Sans', 'Bitstream Vera Sans', 'Computer Modern Sans Serif', 'Lucida Grande', 'Verdana', 'Geneva', 'Lucid', 'Avant Garde', sans-serif; text-anchor: middle" x="87.192118" y="505.639812" transform="rotate(-0 87.192118 505.639812)">−2</text>
     </g>
    </g>
    <g id="xtick_2">
     <g id="line2d_2">
      <g>
       <use xlink:href="#ma30250fe84" x="170.266782" y="491.466375" style="stroke: #000000; stroke-width: 0.8"/>
      </g>
     </g>
     <g id="text_2">
      <text style="font-size: 10px; font-family: 'Helvetica', 'Arial', 'DejaVu Sans', 'Bitstream Vera Sans', 'Computer Modern Sans Serif', 'Lucida Grande', 'Verdana', 'Geneva', 'Lucid', 'Avant Garde', sans-serif; text-anchor: middle" x="170.266782" y="505.639812" transform="rotate(-0 170.266782 505.639812)">−1</text>
     </g>
    </g>
    <g id="xtick_3">
     <g id="line2d_3">
      <g>
       <use xlink:href="#ma30250fe84" x="253.341446" y="491.466375" style="stroke: #000000; stroke-width: 0.8"/>
      </g>
     </g>
     <g id="text_3">
      <text style="font-size: 10px; font-family: 'Helvetica', 'Arial', 'DejaVu Sans', 'Bitstream Vera Sans', 'Computer Modern Sans Serif', 'Lucida Grande', 'Verdana', 'Geneva', 'Lucid', 'Avant Garde', sans-serif; text-anchor: middle" x="253.341446" y="505.639812" transform="rotate(-0 253.341446 505.639812)">0</text>
     </g>
    </g>
    <g id="xtick_4">
     <g id="line2d_4">
      <g>
       <use xlink:href="#ma30250fe84" x="336.41611" y="491.466375" style="stroke: #000000; stroke-width: 0.8"/>
      </g>
     </g>
     <g id="text_4">
      <text style="font-size: 10px; font-family: 'Helvetica', 'Arial', 'DejaVu Sans', 'Bitstream Vera Sans', 'Computer Modern Sans Serif', 'Lucida Grande', 'Verdana', 'Geneva', 'Lucid', 'Avant Garde', sans-serif; text-anchor: middle" x="336.41611" y="505.639812" transform="rotate(-0 336.41611 505.639812)">1</text>
     </g>
    </g>
    <g id="xtick_5">
     <g id="line2d_5">
      <g>
       <use xlink:href="#ma30250fe84" x="419.490775" y="491.466375" style="stroke: #000000; stroke-width: 0.8"/>
      </g>
     </g>
     <g id="text_5">
      <text style="font-size: 10px; font-family: 'Helvetica', 'Arial', 'DejaVu Sans', 'Bitstream Vera Sans', 'Computer Modern Sans Serif', 'Lucida Grande', 'Verdana', 'Geneva', 'Lucid', 'Avant Garde', sans-serif; text-anchor: middle" x="419.490775" y="505.639812" transform="rotate(-0 419.490775 505.639812)">2</text>
     </g>
    </g>
    <g id="xtick_6">
     <g id="line2d_6">
      <g>
       <use xlink:href="#ma30250fe84" x="502.565439" y="491.466375" style="stroke: #000000; stroke-width: 0.8"/>
      </g>
     </g>
     <g id="text_6">
      <text style="font-size: 10px; font-family: 'Helvetica', 'Arial', 'DejaVu Sans', 'Bitstream Vera Sans', 'Computer Modern Sans Serif', 'Lucida Grande', 'Verdana', 'Geneva', 'Lucid', 'Avant Garde', sans-serif; text-anchor: middle" x="502.565439" y="505.639812" transform="rotate(-0 502.565439 505.639812)">3</text>
     </g>
    </g>
    <g id="xtick_7">
     <g id="line2d_7">
      <g>
       <use xlink:href="#ma30250fe84" x="585.640103" y="491.466375" style="stroke: #000000; stroke-width: 0.8"/>
      </g>
     </g>
     <g id="text_7">
      <text style="font-size: 10px; font-family: 'Helvetica', 'Arial', 'DejaVu Sans', 'Bitstream Vera Sans', 'Computer Modern Sans Serif', 'Lucida Grande', 'Verdana', 'Geneva', 'Lucid', 'Avant Garde', sans-serif; text-anchor: middle" x="585.640103" y="505.639812" transform="rotate(-0 585.640103 505.639812)">4</text>
     </g>
    </g>
    <g id="text_8">
     <text style="font-size: 12px; font-family: 'Helvetica', 'Arial', 'DejaVu Sans', 'Bitstream Vera Sans', 'Computer Modern Sans Serif', 'Lucida Grande', 'Verdana', 'Geneva', 'Lucid', 'Avant Garde', sans-serif; text-anchor: middle" x="322.515" y="520.472937" transform="rotate(-0 322.515 520.472937)">H2B Intensity (Robust Normalized)</text>
    </g>
    <g id="text_9">
     <text style="font-size: 10px; font-family: 'Helvetica', 'Arial', 'DejaVu Sans', 'Bitstream Vera Sans', 'Computer Modern Sans Serif', 'Lucida Grande', 'Verdana', 'Geneva', 'Lucid', 'Avant Garde', sans-serif; text-anchor: end" x="601.515" y="517.897625" transform="rotate(-0 601.515 517.897625)">1e−16</text>
    </g>
   </g>
   <g id="matplotlib.axis_2">
    <g id="ytick_1">
     <g id="line2d_8">
      <defs>
       <path id="me88c9f1917" d="M 0 0 
L -3.5 0 
" style="stroke: #000000; stroke-width: 0.8"/>
      </defs>
      <g>
       <use xlink:href="#me88c9f1917" x="43.515" y="471.306375" style="stroke: #000000; stroke-width: 0.8"/>
      </g>
     </g>
     <g id="text_10">
      <text style="font-size: 10px; font-family: 'Helvetica', 'Arial', 'DejaVu Sans', 'Bitstream Vera Sans', 'Computer Modern Sans Serif', 'Lucida Grande', 'Verdana', 'Geneva', 'Lucid', 'Avant Garde', sans-serif; text-anchor: end" x="36.515" y="474.893094" transform="rotate(-0 36.515 474.893094)">0.0</text>
     </g>
    </g>
    <g id="ytick_2">
     <g id="line2d_9">
      <g>
       <use xlink:href="#me88c9f1917" x="43.515" y="380.513807" style="stroke: #000000; stroke-width: 0.8"/>
      </g>
     </g>
     <g id="text_11">
      <text style="font-size: 10px; font-family: 'Helvetica', 'Arial', 'DejaVu Sans', 'Bitstream Vera Sans', 'Computer Modern Sans Serif', 'Lucida Grande', 'Verdana', 'Geneva', 'Lucid', 'Avant Garde', sans-serif; text-anchor: end" x="36.515" y="384.100525" transform="rotate(-0 36.515 384.100525)">0.5</text>
     </g>
    </g>
    <g id="ytick_3">
     <g id="line2d_10">
      <g>
       <use xlink:href="#me88c9f1917" x="43.515" y="289.721238" style="stroke: #000000; stroke-width: 0.8"/>
      </g>
     </g>
     <g id="text_12">
      <text style="font-size: 10px; font-family: 'Helvetica', 'Arial', 'DejaVu Sans', 'Bitstream Vera Sans', 'Computer Modern Sans Serif', 'Lucida Grande', 'Verdana', 'Geneva', 'Lucid', 'Avant Garde', sans-serif; text-anchor: end" x="36.515" y="293.307957" transform="rotate(-0 36.515 293.307957)">1.0</text>
     </g>
    </g>
    <g id="ytick_4">
     <g id="line2d_11">
      <g>
       <use xlink:href="#me88c9f1917" x="43.515" y="198.92867" style="stroke: #000000; stroke-width: 0.8"/>
      </g>
     </g>
     <g id="text_13">
      <text style="font-size: 10px; font-family: 'Helvetica', 'Arial', 'DejaVu Sans', 'Bitstream Vera Sans', 'Computer Modern Sans Serif', 'Lucida Grande', 'Verdana', 'Geneva', 'Lucid', 'Avant Garde', sans-serif; text-anchor: end" x="36.515" y="202.515388" transform="rotate(-0 36.515 202.515388)">1.5</text>
     </g>
    </g>
    <g id="ytick_5">
     <g id="line2d_12">
      <g>
       <use xlink:href="#me88c9f1917" x="43.515" y="108.136101" style="stroke: #000000; stroke-width: 0.8"/>
      </g>
     </g>
     <g id="text_14">
      <text style="font-size: 10px; font-family: 'Helvetica', 'Arial', 'DejaVu Sans', 'Bitstream Vera Sans', 'Computer Modern Sans Serif', 'Lucida Grande', 'Verdana', 'Geneva', 'Lucid', 'Avant Garde', sans-serif; text-anchor: end" x="36.515" y="111.72282" transform="rotate(-0 36.515 111.72282)">2.0</text>
     </g>
    </g>
    <g id="text_15">
     <text style="font-size: 12px; font-family: 'Helvetica', 'Arial', 'DejaVu Sans', 'Bitstream Vera Sans', 'Computer Modern Sans Serif', 'Lucida Grande', 'Verdana', 'Geneva', 'Lucid', 'Avant Garde', sans-serif; text-anchor: middle" x="16.0425" y="269.706375" transform="rotate(-90 16.0425 269.706375)">VSV Intensity (Robust Normalized)</text>
    </g>
    <g id="text_16">
     <text style="font-size: 10px; font-family: 'Helvetica', 'Arial', 'DejaVu Sans', 'Bitstream Vera Sans', 'Computer Modern Sans Serif', 'Lucida Grande', 'Verdana', 'Geneva', 'Lucid', 'Avant Garde', sans-serif; text-anchor: start" x="43.515" y="44.946375" transform="rotate(-0 43.515 44.946375)">1e−16</text>
    </g>
   </g>
   <g id="line2d_13">
    <path d="M 68.878636 420.906375 
L 74.002603 420.906375 
L 79.12657 420.906375 
L 84.250537 420.906375 
L 89.374504 420.906375 
L 94.498471 420.906375 
L 99.622438 420.906375 
L 104.746405 420.906375 
L 109.870372 420.906375 
L 114.994339 420.906375 
L 120.118306 420.906375 
L 125.242273 420.906375 
L 130.36624 420.906375 
L 135.490207 420.906375 
L 140.614174 420.906375 
L 145.73814 420.906375 
L 150.862107 420.906375 
L 155.986074 420.906375 
L 161.110041 420.906375 
L 166.234008 420.906375 
L 171.357975 420.906375 
L 176.481942 420.906375 
L 181.605909 420.906375 
L 186.729876 420.906375 
L 191.853843 420.906375 
L 196.97781 420.906375 
L 202.101777 420.906375 
L 207.225744 420.906375 
L 212.349711 420.906375 
L 217.473678 420.906375 
L 222.597645 420.906375 
L 227.721612 420.906375 
L 232.845579 420.906375 
L 237.969545 420.906375 
L 243.093512 420.906375 
L 248.217479 420.906375 
L 253.341446 420.906375 
L 258.465413 420.906375 
L 263.58938 420.906375 
L 268.713347 420.906375 
L 273.837314 420.906375 
L 278.961281 420.906375 
L 284.085248 420.906375 
L 289.209215 420.906375 
L 294.333182 420.906375 
L 299.457149 420.906375 
L 304.581116 420.906375 
L 309.705083 420.906375 
L 314.82905 420.906375 
L 319.953017 420.906375 
L 325.076983 420.906375 
L 330.20095 420.906375 
L 335.324917 420.906375 
L 340.448884 420.906375 
L 345.572851 420.906375 
L 350.696818 420.906375 
L 355.820785 420.906375 
L 360.944752 420.906375 
L 366.068719 420.906375 
L 371.192686 420.906375 
L 376.316653 420.906375 
L 381.44062 420.906375 
L 386.564587 420.906375 
L 391.688554 420.906375 
L 396.812521 420.906375 
L 401.936488 420.906375 
L 407.060455 420.906375 
L 412.184421 420.906375 
L 417.308388 420.906375 
L 422.432355 420.906375 
L 427.556322 420.906375 
L 432.680289 420.906375 
L 437.804256 420.906375 
L 442.928223 420.906375 
L 448.05219 420.906375 
L 453.176157 420.906375 
L 458.300124 420.906375 
L 463.424091 420.906375 
L 468.548058 420.906375 
L 473.672025 420.906375 
L 478.795992 420.906375 
L 483.919959 420.906375 
L 489.043926 420.906375 
L 494.167893 420.906375 
L 499.29186 420.906375 
L 504.415826 420.906375 
L 509.539793 420.906375 
L 514.66376 420.906375 
L 519.787727 420.906375 
L 524.911694 420.906375 
L 530.035661 420.906375 
L 535.159628 420.906375 
L 540.283595 420.906375 
L 545.407562 420.906375 
L 550.531529 420.906375 
L 555.655496 420.906375 
L 560.779463 420.906375 
L 565.90343 420.906375 
L 571.027397 420.906375 
L 576.151364 420.906375 
" clip-path="url(#p2a0a4177fe)" style="fill: none; stroke: #000000; stroke-width: 2; stroke-linecap: square"/>
   </g>
   <g id="patch_3">
    <path d="M 43.515 491.466375 
L 43.515 47.946375 
" style="fill: none; stroke: #000000; stroke-width: 0.8; stroke-linejoin: miter; stroke-linecap: square"/>
   </g>
   <g id="patch_4">
    <path d="M 43.515 491.466375 
L 601.515 491.466375 
" style="fill: none; stroke: #000000; stroke-width: 0.8; stroke-linejoin: miter; stroke-linecap: square"/>
   </g>
   <g id="text_17">
    <text style="font-size: 9px; font-family: 'Helvetica', 'Arial', 'DejaVu Sans', 'Bitstream Vera Sans', 'Computer Modern Sans Serif', 'Lucida Grande', 'Verdana', 'Geneva', 'Lucid', 'Avant Garde', sans-serif; text-anchor: start" x="119.994339" y="466.306375" transform="rotate(-0 119.994339 466.306375)">A</text>
   </g>
   <g id="text_18">
    <text style="font-size: 9px; font-family: 'Helvetica', 'Arial', 'DejaVu Sans', 'Bitstream Vera Sans', 'Computer Modern Sans Serif', 'Lucida Grande', 'Verdana', 'Geneva', 'Lucid', 'Avant Garde', sans-serif; text-anchor: start" x="350.572851" y="466.306375" transform="rotate(-0 350.572851 466.306375)">AL</text>
   </g>
   <g id="text_19">
    <text style="font-size: 9px; font-family: 'Helvetica', 'Arial', 'DejaVu Sans', 'Bitstream Vera Sans', 'Computer Modern Sans Serif', 'Lucida Grande', 'Verdana', 'Geneva', 'Lucid', 'Avant Garde', sans-serif; text-anchor: start" x="166.110041" y="466.306375" transform="rotate(-0 166.110041 466.306375)">AM</text>
   </g>
   <g id="text_20">
    <text style="font-size: 9px; font-family: 'Helvetica', 'Arial', 'DejaVu Sans', 'Bitstream Vera Sans', 'Computer Modern Sans Serif', 'Lucida Grande', 'Verdana', 'Geneva', 'Lucid', 'Avant Garde', sans-serif; text-anchor: start" x="73.878636" y="466.306375" transform="rotate(-0 73.878636 466.306375)">LM</text>
   </g>
   <g id="text_21">
    <text style="font-size: 9px; font-family: 'Helvetica', 'Arial', 'DejaVu Sans', 'Bitstream Vera Sans', 'Computer Modern Sans Serif', 'Lucida Grande', 'Verdana', 'Geneva', 'Lucid', 'Avant Garde', sans-serif; text-anchor: start" x="258.341446" y="466.306375" transform="rotate(-0 258.341446 466.306375)">LI</text>
   </g>
   <g id="text_22">
    <text style="font-size: 9px; font-family: 'Helvetica', 'Arial', 'DejaVu Sans', 'Bitstream Vera Sans', 'Computer Modern Sans Serif', 'Lucida Grande', 'Verdana', 'Geneva', 'Lucid', 'Avant Garde', sans-serif; text-anchor: start" x="258.341446" y="466.306375" transform="rotate(-0 258.341446 466.306375)">PM</text>
   </g>
   <g id="text_23">
    <text style="font-size: 9px; font-family: 'Helvetica', 'Arial', 'DejaVu Sans', 'Bitstream Vera Sans', 'Computer Modern Sans Serif', 'Lucida Grande', 'Verdana', 'Geneva', 'Lucid', 'Avant Garde', sans-serif; text-anchor: start" x="581.151364" y="466.306375" transform="rotate(-0 581.151364 466.306375)">POR</text>
   </g>
   <g id="text_24">
    <text style="font-size: 9px; font-family: 'Helvetica', 'Arial', 'DejaVu Sans', 'Bitstream Vera Sans', 'Computer Modern Sans Serif', 'Lucida Grande', 'Verdana', 'Geneva', 'Lucid', 'Avant Garde', sans-serif; text-anchor: start" x="258.341446" y="63.106375" transform="rotate(-0 258.341446 63.106375)">RL</text>
   </g>
   <g id="text_25">
    <text style="font-size: 12px; font-family: 'Helvetica', 'Arial', 'DejaVu Sans', 'Bitstream Vera Sans', 'Computer Modern Sans Serif', 'Lucida Grande', 'Verdana', 'Geneva', 'Lucid', 'Avant Garde', sans-serif" transform="translate(280.1625 15.808125)">p3 - All Regions</text>
    <text style="font-size: 12px; font-family: 'Helvetica', 'Arial', 'DejaVu Sans', 'Bitstream Vera Sans', 'Computer Modern Sans Serif', 'Lucida Grande', 'Verdana', 'Geneva', 'Lucid', 'Avant Garde', sans-serif" transform="translate(220.8075 28.961625)">Averaged Replicates Analysis (robust)</text>
    <text style="font-size: 12px; font-family: 'Helvetica', 'Arial', 'DejaVu Sans', 'Bitstream Vera Sans', 'Computer Modern Sans Serif', 'Lucida Grande', 'Verdana', 'Geneva', 'Lucid', 'Avant Garde', sans-serif" transform="translate(262.812187 41.946375)">r = 0.0845, r² = 0.0071</text>
   </g>
  </g>
 </g>
 <defs>
  <clipPath id="p2a0a4177fe">
   <rect x="43.515" y="47.946375" width="558" height="443.52"/>
  </clipPath>
 </defs>
</svg>
