<?xml version="1.0" encoding="utf-8" standalone="no"?>
<!DOCTYPE svg PUBLIC "-//W3C//DTD SVG 1.1//EN"
  "http://www.w3.org/Graphics/SVG/1.1/DTD/svg11.dtd">
<svg xmlns:xlink="http://www.w3.org/1999/xlink" width="614.638125pt" height="530.245437pt" viewBox="0 0 614.638125 530.245437" xmlns="http://www.w3.org/2000/svg" version="1.1">
 <metadata>
  <rdf:RDF xmlns:dc="http://purl.org/dc/elements/1.1/" xmlns:cc="http://creativecommons.org/ns#" xmlns:rdf="http://www.w3.org/1999/02/22-rdf-syntax-ns#">
   <cc:Work>
    <dc:type rdf:resource="http://purl.org/dc/dcmitype/StillImage"/>
    <dc:date>2026-02-24T12:29:12.252519</dc:date>
    <dc:format>image/svg+xml</dc:format>
    <dc:creator>
     <cc:Agent>
      <dc:title>Matplotlib v3.10.5, https://matplotlib.org/</dc:title>
     </cc:Agent>
    </dc:creator>
   </cc:Work>
  </rdf:RDF>
 </metadata>
 <defs>
  <style type="text/css">*{stroke-linejoin: round; stroke-linecap: butt}</style>
 </defs>
 <g id="figure_1">
  <g id="patch_1">
   <path d="M 0 530.245437 
L 614.638125 530.245437 
L 614.638125 0 
L 0 0 
z
" style="fill: #ffffff"/>
  </g>
  <g id="axes_1">
   <g id="patch_2">
    <path d="M 49.438125 491.383875 
L 607.438125 491.383875 
L 607.438125 47.863875 
L 49.438125 47.863875 
z
" style="fill: #ffffff"/>
   </g>
   <g id="PathCollection_1">
    <defs>
     <path id="C0_0_bb6c21458a" d="M 0 5 
C 1.326016 5 2.597899 4.473168 3.535534 3.535534 
C 4.473168 2.597899 5 1.326016 5 -0 
C 5 -1.326016 4.473168 -2.597899 3.535534 -3.535534 
C 2.597899 -4.473168 1.326016 -5 0 -5 
C -1.326016 -5 -2.597899 -4.473168 -3.535534 -3.535534 
C -4.473168 -2.597899 -5 -1.326016 -5 0 
C -5 1.326016 -4.473168 2.597899 -3.535534 3.535534 
C -2.597899 4.473168 -1.326016 5 0 5 
z
"/>
    </defs>
    <g clip-path="url(#p98b7bf3c5c)">
     <use xlink:href="#C0_0_bb6c21458a" x="352.216534" y="68.023875" style="fill: #00008b"/>
    </g>
    <g clip-path="url(#p98b7bf3c5c)">
     <use xlink:href="#C0_0_bb6c21458a" x="455.256307" y="168.262836" style="fill: #00008b"/>
    </g>
    <g clip-path="url(#p98b7bf3c5c)">
     <use xlink:href="#C0_0_bb6c21458a" x="407.699489" y="93.457641" style="fill: #00008b"/>
    </g>
    <g clip-path="url(#p98b7bf3c5c)">
     <use xlink:href="#C0_0_bb6c21458a" x="352.216534" y="184.719979" style="fill: #00008b"/>
    </g>
    <g clip-path="url(#p98b7bf3c5c)">
     <use xlink:href="#C0_0_bb6c21458a" x="582.074489" y="201.177122" style="fill: #00008b"/>
    </g>
    <g clip-path="url(#p98b7bf3c5c)">
     <use xlink:href="#C0_0_bb6c21458a" x="542.443807" y="150.309589" style="fill: #00008b"/>
    </g>
    <g clip-path="url(#p98b7bf3c5c)">
     <use xlink:href="#C0_0_bb6c21458a" x="74.801761" y="471.223875" style="fill: #00008b"/>
    </g>
    <g clip-path="url(#p98b7bf3c5c)">
     <use xlink:href="#C0_0_bb6c21458a" x="146.136989" y="195.192706" style="fill: #00008b"/>
    </g>
   </g>
   <g id="matplotlib.axis_1">
    <g id="xtick_1">
     <g id="line2d_1">
      <defs>
       <path id="ma07ac6d055" d="M 0 0 
L 0 3.5 
" style="stroke: #000000; stroke-width: 0.8"/>
      </defs>
      <g>
       <use xlink:href="#ma07ac6d055" x="106.220995" y="491.383875" style="stroke: #000000; stroke-width: 0.8"/>
      </g>
     </g>
     <g id="text_1">
      <text style="font-size: 10px; font-family: 'Helvetica', 'Arial', 'DejaVu Sans', 'Bitstream Vera Sans', 'Computer Modern Sans Serif', 'Lucida Grande', 'Verdana', 'Geneva', 'Lucid', 'Avant Garde', sans-serif; text-anchor: middle" x="106.220995" y="505.557312" transform="rotate(-0 106.220995 505.557312)">−2.0</text>
     </g>
    </g>
    <g id="xtick_2">
     <g id="line2d_2">
      <g>
       <use xlink:href="#ma07ac6d055" x="195.461357" y="491.383875" style="stroke: #000000; stroke-width: 0.8"/>
      </g>
     </g>
     <g id="text_2">
      <text style="font-size: 10px; font-family: 'Helvetica', 'Arial', 'DejaVu Sans', 'Bitstream Vera Sans', 'Computer Modern Sans Serif', 'Lucida Grande', 'Verdana', 'Geneva', 'Lucid', 'Avant Garde', sans-serif; text-anchor: middle" x="195.461357" y="505.557312" transform="rotate(-0 195.461357 505.557312)">−1.5</text>
     </g>
    </g>
    <g id="xtick_3">
     <g id="line2d_3">
      <g>
       <use xlink:href="#ma07ac6d055" x="284.701719" y="491.383875" style="stroke: #000000; stroke-width: 0.8"/>
      </g>
     </g>
     <g id="text_3">
      <text style="font-size: 10px; font-family: 'Helvetica', 'Arial', 'DejaVu Sans', 'Bitstream Vera Sans', 'Computer Modern Sans Serif', 'Lucida Grande', 'Verdana', 'Geneva', 'Lucid', 'Avant Garde', sans-serif; text-anchor: middle" x="284.701719" y="505.557312" transform="rotate(-0 284.701719 505.557312)">−1.0</text>
     </g>
    </g>
    <g id="xtick_4">
     <g id="line2d_4">
      <g>
       <use xlink:href="#ma07ac6d055" x="373.942081" y="491.383875" style="stroke: #000000; stroke-width: 0.8"/>
      </g>
     </g>
     <g id="text_4">
      <text style="font-size: 10px; font-family: 'Helvetica', 'Arial', 'DejaVu Sans', 'Bitstream Vera Sans', 'Computer Modern Sans Serif', 'Lucida Grande', 'Verdana', 'Geneva', 'Lucid', 'Avant Garde', sans-serif; text-anchor: middle" x="373.942081" y="505.557312" transform="rotate(-0 373.942081 505.557312)">−0.5</text>
     </g>
    </g>
    <g id="xtick_5">
     <g id="line2d_5">
      <g>
       <use xlink:href="#ma07ac6d055" x="463.182443" y="491.383875" style="stroke: #000000; stroke-width: 0.8"/>
      </g>
     </g>
     <g id="text_5">
      <text style="font-size: 10px; font-family: 'Helvetica', 'Arial', 'DejaVu Sans', 'Bitstream Vera Sans', 'Computer Modern Sans Serif', 'Lucida Grande', 'Verdana', 'Geneva', 'Lucid', 'Avant Garde', sans-serif; text-anchor: middle" x="463.182443" y="505.557312" transform="rotate(-0 463.182443 505.557312)">0.0</text>
     </g>
    </g>
    <g id="xtick_6">
     <g id="line2d_6">
      <g>
       <use xlink:href="#ma07ac6d055" x="552.422805" y="491.383875" style="stroke: #000000; stroke-width: 0.8"/>
      </g>
     </g>
     <g id="text_6">
      <text style="font-size: 10px; font-family: 'Helvetica', 'Arial', 'DejaVu Sans', 'Bitstream Vera Sans', 'Computer Modern Sans Serif', 'Lucida Grande', 'Verdana', 'Geneva', 'Lucid', 'Avant Garde', sans-serif; text-anchor: middle" x="552.422805" y="505.557312" transform="rotate(-0 552.422805 505.557312)">0.5</text>
     </g>
    </g>
    <g id="text_7">
     <text style="font-size: 12px; font-family: 'Helvetica', 'Arial', 'DejaVu Sans', 'Bitstream Vera Sans', 'Computer Modern Sans Serif', 'Lucida Grande', 'Verdana', 'Geneva', 'Lucid', 'Avant Garde', sans-serif; text-anchor: middle" x="328.438125" y="520.390437" transform="rotate(-0 328.438125 520.390437)">H2B Intensity (log10 + Z-score)</text>
    </g>
    <g id="text_8">
     <text style="font-size: 10px; font-family: 'Helvetica', 'Arial', 'DejaVu Sans', 'Bitstream Vera Sans', 'Computer Modern Sans Serif', 'Lucida Grande', 'Verdana', 'Geneva', 'Lucid', 'Avant Garde', sans-serif; text-anchor: end" x="607.438125" y="517.815125" transform="rotate(-0 607.438125 517.815125)">1e−15</text>
    </g>
   </g>
   <g id="matplotlib.axis_2">
    <g id="ytick_1">
     <g id="line2d_7">
      <defs>
       <path id="ma3aeec3673" d="M 0 0 
L -3.5 0 
" style="stroke: #000000; stroke-width: 0.8"/>
      </defs>
      <g>
       <use xlink:href="#ma3aeec3673" x="49.438125" y="446.753577" style="stroke: #000000; stroke-width: 0.8"/>
      </g>
     </g>
     <g id="text_9">
      <text style="font-size: 10px; font-family: 'Helvetica', 'Arial', 'DejaVu Sans', 'Bitstream Vera Sans', 'Computer Modern Sans Serif', 'Lucida Grande', 'Verdana', 'Geneva', 'Lucid', 'Avant Garde', sans-serif; text-anchor: end" x="42.438125" y="450.340296" transform="rotate(-0 42.438125 450.340296)">−2.0</text>
     </g>
    </g>
    <g id="ytick_2">
     <g id="line2d_8">
      <g>
       <use xlink:href="#ma3aeec3673" x="49.438125" y="379.375048" style="stroke: #000000; stroke-width: 0.8"/>
      </g>
     </g>
     <g id="text_10">
      <text style="font-size: 10px; font-family: 'Helvetica', 'Arial', 'DejaVu Sans', 'Bitstream Vera Sans', 'Computer Modern Sans Serif', 'Lucida Grande', 'Verdana', 'Geneva', 'Lucid', 'Avant Garde', sans-serif; text-anchor: end" x="42.438125" y="382.961767" transform="rotate(-0 42.438125 382.961767)">−1.5</text>
     </g>
    </g>
    <g id="ytick_3">
     <g id="line2d_9">
      <g>
       <use xlink:href="#ma3aeec3673" x="49.438125" y="311.996518" style="stroke: #000000; stroke-width: 0.8"/>
      </g>
     </g>
     <g id="text_11">
      <text style="font-size: 10px; font-family: 'Helvetica', 'Arial', 'DejaVu Sans', 'Bitstream Vera Sans', 'Computer Modern Sans Serif', 'Lucida Grande', 'Verdana', 'Geneva', 'Lucid', 'Avant Garde', sans-serif; text-anchor: end" x="42.438125" y="315.583237" transform="rotate(-0 42.438125 315.583237)">−1.0</text>
     </g>
    </g>
    <g id="ytick_4">
     <g id="line2d_10">
      <g>
       <use xlink:href="#ma3aeec3673" x="49.438125" y="244.617989" style="stroke: #000000; stroke-width: 0.8"/>
      </g>
     </g>
     <g id="text_12">
      <text style="font-size: 10px; font-family: 'Helvetica', 'Arial', 'DejaVu Sans', 'Bitstream Vera Sans', 'Computer Modern Sans Serif', 'Lucida Grande', 'Verdana', 'Geneva', 'Lucid', 'Avant Garde', sans-serif; text-anchor: end" x="42.438125" y="248.204708" transform="rotate(-0 42.438125 248.204708)">−0.5</text>
     </g>
    </g>
    <g id="ytick_5">
     <g id="line2d_11">
      <g>
       <use xlink:href="#ma3aeec3673" x="49.438125" y="177.239459" style="stroke: #000000; stroke-width: 0.8"/>
      </g>
     </g>
     <g id="text_13">
      <text style="font-size: 10px; font-family: 'Helvetica', 'Arial', 'DejaVu Sans', 'Bitstream Vera Sans', 'Computer Modern Sans Serif', 'Lucida Grande', 'Verdana', 'Geneva', 'Lucid', 'Avant Garde', sans-serif; text-anchor: end" x="42.438125" y="180.826178" transform="rotate(-0 42.438125 180.826178)">0.0</text>
     </g>
    </g>
    <g id="ytick_6">
     <g id="line2d_12">
      <g>
       <use xlink:href="#ma3aeec3673" x="49.438125" y="109.86093" style="stroke: #000000; stroke-width: 0.8"/>
      </g>
     </g>
     <g id="text_14">
      <text style="font-size: 10px; font-family: 'Helvetica', 'Arial', 'DejaVu Sans', 'Bitstream Vera Sans', 'Computer Modern Sans Serif', 'Lucida Grande', 'Verdana', 'Geneva', 'Lucid', 'Avant Garde', sans-serif; text-anchor: end" x="42.438125" y="113.447649" transform="rotate(-0 42.438125 113.447649)">0.5</text>
     </g>
    </g>
    <g id="text_15">
     <text style="font-size: 12px; font-family: 'Helvetica', 'Arial', 'DejaVu Sans', 'Bitstream Vera Sans', 'Computer Modern Sans Serif', 'Lucida Grande', 'Verdana', 'Geneva', 'Lucid', 'Avant Garde', sans-serif; text-anchor: middle" x="16.0425" y="269.623875" transform="rotate(-90 16.0425 269.623875)">VSV Intensity (log10 + Z-score)</text>
    </g>
    <g id="text_16">
     <text style="font-size: 10px; font-family: 'Helvetica', 'Arial', 'DejaVu Sans', 'Bitstream Vera Sans', 'Computer Modern Sans Serif', 'Lucida Grande', 'Verdana', 'Geneva', 'Lucid', 'Avant Garde', sans-serif; text-anchor: start" x="49.438125" y="44.863875" transform="rotate(-0 49.438125 44.863875)">1e−15</text>
    </g>
   </g>
   <g id="line2d_13">
    <path d="M 74.801761 311.72423 
L 79.925728 309.595709 
L 85.049695 307.467189 
L 90.173662 305.338668 
L 95.297629 303.210147 
L 100.421596 301.081626 
L 105.545563 298.953106 
L 110.66953 296.824585 
L 115.793497 294.696064 
L 120.917464 292.567543 
L 126.041431 290.439023 
L 131.165398 288.310502 
L 136.289365 286.181981 
L 141.413332 284.05346 
L 146.537299 281.92494 
L 151.661265 279.796419 
L 156.785232 277.667898 
L 161.909199 275.539377 
L 167.033166 273.410857 
L 172.157133 271.282336 
L 177.2811 269.153815 
L 182.405067 267.025294 
L 187.529034 264.896774 
L 192.653001 262.768253 
L 197.776968 260.639732 
L 202.900935 258.511211 
L 208.024902 256.382691 
L 213.148869 254.25417 
L 218.272836 252.125649 
L 223.396803 249.997128 
L 228.52077 247.868608 
L 233.644737 245.740087 
L 238.768704 243.611566 
L 243.89267 241.483045 
L 249.016637 239.354525 
L 254.140604 237.226004 
L 259.264571 235.097483 
L 264.388538 232.968962 
L 269.512505 230.840442 
L 274.636472 228.711921 
L 279.760439 226.5834 
L 284.884406 224.454879 
L 290.008373 222.326359 
L 295.13234 220.197838 
L 300.256307 218.069317 
L 305.380274 215.940796 
L 310.504241 213.812275 
L 315.628208 211.683755 
L 320.752175 209.555234 
L 325.876142 207.426713 
L 331.000108 205.298192 
L 336.124075 203.169672 
L 341.248042 201.041151 
L 346.372009 198.91263 
L 351.495976 196.784109 
L 356.619943 194.655589 
L 361.74391 192.527068 
L 366.867877 190.398547 
L 371.991844 188.270026 
L 377.115811 186.141506 
L 382.239778 184.012985 
L 387.363745 181.884464 
L 392.487712 179.755943 
L 397.611679 177.627423 
L 402.735646 175.498902 
L 407.859613 173.370381 
L 412.98358 171.24186 
L 418.107546 169.11334 
L 423.231513 166.984819 
L 428.35548 164.856298 
L 433.479447 162.727777 
L 438.603414 160.599257 
L 443.727381 158.470736 
L 448.851348 156.342215 
L 453.975315 154.213694 
L 459.099282 152.085174 
L 464.223249 149.956653 
L 469.347216 147.828132 
L 474.471183 145.699611 
L 479.59515 143.571091 
L 484.719117 141.44257 
L 489.843084 139.314049 
L 494.967051 137.185528 
L 500.091018 135.057008 
L 505.214985 132.928487 
L 510.338951 130.799966 
L 515.462918 128.671445 
L 520.586885 126.542925 
L 525.710852 124.414404 
L 530.834819 122.285883 
L 535.958786 120.157362 
L 541.082753 118.028842 
L 546.20672 115.900321 
L 551.330687 113.7718 
L 556.454654 111.643279 
L 561.578621 109.514759 
L 566.702588 107.386238 
L 571.826555 105.257717 
L 576.950522 103.129196 
L 582.074489 101.000676 
" clip-path="url(#p98b7bf3c5c)" style="fill: none; stroke: #000000; stroke-width: 2; stroke-linecap: square"/>
   </g>
   <g id="patch_3">
    <path d="M 49.438125 491.383875 
L 49.438125 47.863875 
" style="fill: none; stroke: #000000; stroke-width: 0.8; stroke-linejoin: miter; stroke-linecap: square"/>
   </g>
   <g id="patch_4">
    <path d="M 49.438125 491.383875 
L 607.438125 491.383875 
" style="fill: none; stroke: #000000; stroke-width: 0.8; stroke-linejoin: miter; stroke-linecap: square"/>
   </g>
   <g id="text_17">
    <text style="font-size: 9px; font-family: 'Helvetica', 'Arial', 'DejaVu Sans', 'Bitstream Vera Sans', 'Computer Modern Sans Serif', 'Lucida Grande', 'Verdana', 'Geneva', 'Lucid', 'Avant Garde', sans-serif; text-anchor: start" x="357.216534" y="63.023875" transform="rotate(-0 357.216534 63.023875)">A</text>
   </g>
   <g id="text_18">
    <text style="font-size: 9px; font-family: 'Helvetica', 'Arial', 'DejaVu Sans', 'Bitstream Vera Sans', 'Computer Modern Sans Serif', 'Lucida Grande', 'Verdana', 'Geneva', 'Lucid', 'Avant Garde', sans-serif; text-anchor: start" x="460.256307" y="163.262836" transform="rotate(-0 460.256307 163.262836)">AL</text>
   </g>
   <g id="text_19">
    <text style="font-size: 9px; font-family: 'Helvetica', 'Arial', 'DejaVu Sans', 'Bitstream Vera Sans', 'Computer Modern Sans Serif', 'Lucida Grande', 'Verdana', 'Geneva', 'Lucid', 'Avant Garde', sans-serif; text-anchor: start" x="412.699489" y="88.457641" transform="rotate(-0 412.699489 88.457641)">AM</text>
   </g>
   <g id="text_20">
    <text style="font-size: 9px; font-family: 'Helvetica', 'Arial', 'DejaVu Sans', 'Bitstream Vera Sans', 'Computer Modern Sans Serif', 'Lucida Grande', 'Verdana', 'Geneva', 'Lucid', 'Avant Garde', sans-serif; text-anchor: start" x="357.216534" y="179.719979" transform="rotate(-0 357.216534 179.719979)">LM</text>
   </g>
   <g id="text_21">
    <text style="font-size: 9px; font-family: 'Helvetica', 'Arial', 'DejaVu Sans', 'Bitstream Vera Sans', 'Computer Modern Sans Serif', 'Lucida Grande', 'Verdana', 'Geneva', 'Lucid', 'Avant Garde', sans-serif; text-anchor: start" x="587.074489" y="196.177122" transform="rotate(-0 587.074489 196.177122)">LI</text>
   </g>
   <g id="text_22">
    <text style="font-size: 9px; font-family: 'Helvetica', 'Arial', 'DejaVu Sans', 'Bitstream Vera Sans', 'Computer Modern Sans Serif', 'Lucida Grande', 'Verdana', 'Geneva', 'Lucid', 'Avant Garde', sans-serif; text-anchor: start" x="547.443807" y="145.309589" transform="rotate(-0 547.443807 145.309589)">PM</text>
   </g>
   <g id="text_23">
    <text style="font-size: 9px; font-family: 'Helvetica', 'Arial', 'DejaVu Sans', 'Bitstream Vera Sans', 'Computer Modern Sans Serif', 'Lucida Grande', 'Verdana', 'Geneva', 'Lucid', 'Avant Garde', sans-serif; text-anchor: start" x="79.801761" y="466.223875" transform="rotate(-0 79.801761 466.223875)">POR</text>
   </g>
   <g id="text_24">
    <text style="font-size: 9px; font-family: 'Helvetica', 'Arial', 'DejaVu Sans', 'Bitstream Vera Sans', 'Computer Modern Sans Serif', 'Lucida Grande', 'Verdana', 'Geneva', 'Lucid', 'Avant Garde', sans-serif; text-anchor: start" x="151.136989" y="190.192706" transform="rotate(-0 151.136989 190.192706)">RL</text>
   </g>
   <g id="text_25">
    <text style="font-size: 12px; font-family: 'Helvetica', 'Arial', 'DejaVu Sans', 'Bitstream Vera Sans', 'Computer Modern Sans Serif', 'Lucida Grande', 'Verdana', 'Geneva', 'Lucid', 'Avant Garde', sans-serif" transform="translate(286.085625 15.808125)">p3 - All Regions</text>
    <text style="font-size: 12px; font-family: 'Helvetica', 'Arial', 'DejaVu Sans', 'Bitstream Vera Sans', 'Computer Modern Sans Serif', 'Lucida Grande', 'Verdana', 'Geneva', 'Lucid', 'Avant Garde', sans-serif" transform="translate(236.735625 28.961625)">Imputed Data Analysis (combined)</text>
    <text style="font-size: 12px; font-family: 'Helvetica', 'Arial', 'DejaVu Sans', 'Bitstream Vera Sans', 'Computer Modern Sans Serif', 'Lucida Grande', 'Verdana', 'Geneva', 'Lucid', 'Avant Garde', sans-serif" transform="translate(268.735313 41.863875)">r = 0.6013, r² = 0.3615</text>
   </g>
  </g>
 </g>
 <defs>
  <clipPath id="p98b7bf3c5c">
   <rect x="49.438125" y="47.863875" width="558" height="443.52"/>
  </clipPath>
 </defs>
</svg>
