<?xml version="1.0" encoding="utf-8" standalone="no"?>
<!DOCTYPE svg PUBLIC "-//W3C//DTD SVG 1.1//EN"
  "http://www.w3.org/Graphics/SVG/1.1/DTD/svg11.dtd">
<svg xmlns:xlink="http://www.w3.org/1999/xlink" width="608.7975pt" height="530.440437pt" viewBox="0 0 608.7975 530.440437" xmlns="http://www.w3.org/2000/svg" version="1.1">
 <metadata>
  <rdf:RDF xmlns:dc="http://purl.org/dc/elements/1.1/" xmlns:cc="http://creativecommons.org/ns#" xmlns:rdf="http://www.w3.org/1999/02/22-rdf-syntax-ns#">
   <cc:Work>
    <dc:type rdf:resource="http://purl.org/dc/dcmitype/StillImage"/>
    <dc:date>2026-02-24T12:28:49.902977</dc:date>
    <dc:format>image/svg+xml</dc:format>
    <dc:creator>
     <cc:Agent>
      <dc:title>Matplotlib v3.10.5, https://matplotlib.org/</dc:title>
     </cc:Agent>
    </dc:creator>
   </cc:Work>
  </rdf:RDF>
 </metadata>
 <defs>
  <style type="text/css">*{stroke-linejoin: round; stroke-linecap: butt}</style>
 </defs>
 <g id="figure_1">
  <g id="patch_1">
   <path d="M -0 530.440437 
L 608.7975 530.440437 
L 608.7975 0 
L -0 0 
z
" style="fill: #ffffff"/>
  </g>
  <g id="axes_1">
   <g id="patch_2">
    <path d="M 43.5975 491.578875 
L 601.5975 491.578875 
L 601.5975 48.058875 
L 43.5975 48.058875 
z
" style="fill: #ffffff"/>
   </g>
   <g id="PathCollection_1">
    <defs>
     <path id="C0_0_e5dfe9aa80" d="M 0 5 
C 1.326016 5 2.597899 4.473168 3.535534 3.535534 
C 4.473168 2.597899 5 1.326016 5 -0 
C 5 -1.326016 4.473168 -2.597899 3.535534 -3.535534 
C 2.597899 -4.473168 1.326016 -5 0 -5 
C -1.326016 -5 -2.597899 -4.473168 -3.535534 -3.535534 
C -4.473168 -2.597899 -5 -1.326016 -5 0 
C -5 1.326016 -4.473168 2.597899 -3.535534 3.535534 
C -2.597899 4.473168 -1.326016 5 0 5 
z
"/>
    </defs>
    <g clip-path="url(#p072a6b2ccf)">
     <use xlink:href="#C0_0_e5dfe9aa80" x="576.233864" y="111.265144" style="fill: #00008b"/>
    </g>
    <g clip-path="url(#p072a6b2ccf)">
     <use xlink:href="#C0_0_e5dfe9aa80" x="297.267126" y="193.065436" style="fill: #00008b"/>
    </g>
    <g clip-path="url(#p072a6b2ccf)">
     <use xlink:href="#C0_0_e5dfe9aa80" x="473.984193" y="142.825918" style="fill: #00008b"/>
    </g>
    <g clip-path="url(#p072a6b2ccf)">
     <use xlink:href="#C0_0_e5dfe9aa80" x="244.766318" y="355.753231" style="fill: #00008b"/>
    </g>
    <g clip-path="url(#p072a6b2ccf)">
     <use xlink:href="#C0_0_e5dfe9aa80" x="262.517029" y="428.181033" style="fill: #00008b"/>
    </g>
    <g clip-path="url(#p072a6b2ccf)">
     <use xlink:href="#C0_0_e5dfe9aa80" x="300.899427" y="194.627696" style="fill: #00008b"/>
    </g>
    <g clip-path="url(#p072a6b2ccf)">
     <use xlink:href="#C0_0_e5dfe9aa80" x="68.961136" y="471.418875" style="fill: #00008b"/>
    </g>
    <g clip-path="url(#p072a6b2ccf)">
     <use xlink:href="#C0_0_e5dfe9aa80" x="451.863798" y="146.111682" style="fill: #00008b"/>
    </g>
   </g>
   <g id="matplotlib.axis_1">
    <g id="xtick_1">
     <g id="line2d_1">
      <defs>
       <path id="m6a5c237298" d="M 0 0 
L 0 3.5 
" style="stroke: #000000; stroke-width: 0.8"/>
      </defs>
      <g>
       <use xlink:href="#m6a5c237298" x="92.87625" y="491.578875" style="stroke: #000000; stroke-width: 0.8"/>
      </g>
     </g>
     <g id="text_1">
      <text style="font-size: 10px; font-family: 'Helvetica', 'Arial', 'DejaVu Sans', 'Bitstream Vera Sans', 'Computer Modern Sans Serif', 'Lucida Grande', 'Verdana', 'Geneva', 'Lucid', 'Avant Garde', sans-serif; text-anchor: middle" x="92.87625" y="505.752312" transform="rotate(-0 92.87625 505.752312)">1.25</text>
     </g>
    </g>
    <g id="xtick_2">
     <g id="line2d_2">
      <g>
       <use xlink:href="#m6a5c237298" x="174.29186" y="491.578875" style="stroke: #000000; stroke-width: 0.8"/>
      </g>
     </g>
     <g id="text_2">
      <text style="font-size: 10px; font-family: 'Helvetica', 'Arial', 'DejaVu Sans', 'Bitstream Vera Sans', 'Computer Modern Sans Serif', 'Lucida Grande', 'Verdana', 'Geneva', 'Lucid', 'Avant Garde', sans-serif; text-anchor: middle" x="174.29186" y="505.752312" transform="rotate(-0 174.29186 505.752312)">1.30</text>
     </g>
    </g>
    <g id="xtick_3">
     <g id="line2d_3">
      <g>
       <use xlink:href="#m6a5c237298" x="255.707469" y="491.578875" style="stroke: #000000; stroke-width: 0.8"/>
      </g>
     </g>
     <g id="text_3">
      <text style="font-size: 10px; font-family: 'Helvetica', 'Arial', 'DejaVu Sans', 'Bitstream Vera Sans', 'Computer Modern Sans Serif', 'Lucida Grande', 'Verdana', 'Geneva', 'Lucid', 'Avant Garde', sans-serif; text-anchor: middle" x="255.707469" y="505.752312" transform="rotate(-0 255.707469 505.752312)">1.35</text>
     </g>
    </g>
    <g id="xtick_4">
     <g id="line2d_4">
      <g>
       <use xlink:href="#m6a5c237298" x="337.123079" y="491.578875" style="stroke: #000000; stroke-width: 0.8"/>
      </g>
     </g>
     <g id="text_4">
      <text style="font-size: 10px; font-family: 'Helvetica', 'Arial', 'DejaVu Sans', 'Bitstream Vera Sans', 'Computer Modern Sans Serif', 'Lucida Grande', 'Verdana', 'Geneva', 'Lucid', 'Avant Garde', sans-serif; text-anchor: middle" x="337.123079" y="505.752312" transform="rotate(-0 337.123079 505.752312)">1.40</text>
     </g>
    </g>
    <g id="xtick_5">
     <g id="line2d_5">
      <g>
       <use xlink:href="#m6a5c237298" x="418.538688" y="491.578875" style="stroke: #000000; stroke-width: 0.8"/>
      </g>
     </g>
     <g id="text_5">
      <text style="font-size: 10px; font-family: 'Helvetica', 'Arial', 'DejaVu Sans', 'Bitstream Vera Sans', 'Computer Modern Sans Serif', 'Lucida Grande', 'Verdana', 'Geneva', 'Lucid', 'Avant Garde', sans-serif; text-anchor: middle" x="418.538688" y="505.752312" transform="rotate(-0 418.538688 505.752312)">1.45</text>
     </g>
    </g>
    <g id="xtick_6">
     <g id="line2d_6">
      <g>
       <use xlink:href="#m6a5c237298" x="499.954298" y="491.578875" style="stroke: #000000; stroke-width: 0.8"/>
      </g>
     </g>
     <g id="text_6">
      <text style="font-size: 10px; font-family: 'Helvetica', 'Arial', 'DejaVu Sans', 'Bitstream Vera Sans', 'Computer Modern Sans Serif', 'Lucida Grande', 'Verdana', 'Geneva', 'Lucid', 'Avant Garde', sans-serif; text-anchor: middle" x="499.954298" y="505.752312" transform="rotate(-0 499.954298 505.752312)">1.50</text>
     </g>
    </g>
    <g id="xtick_7">
     <g id="line2d_7">
      <g>
       <use xlink:href="#m6a5c237298" x="581.369907" y="491.578875" style="stroke: #000000; stroke-width: 0.8"/>
      </g>
     </g>
     <g id="text_7">
      <text style="font-size: 10px; font-family: 'Helvetica', 'Arial', 'DejaVu Sans', 'Bitstream Vera Sans', 'Computer Modern Sans Serif', 'Lucida Grande', 'Verdana', 'Geneva', 'Lucid', 'Avant Garde', sans-serif; text-anchor: middle" x="581.369907" y="505.752312" transform="rotate(-0 581.369907 505.752312)">1.55</text>
     </g>
    </g>
    <g id="text_8">
     <text style="font-size: 12px; font-family: 'Helvetica', 'Arial', 'DejaVu Sans', 'Bitstream Vera Sans', 'Computer Modern Sans Serif', 'Lucida Grande', 'Verdana', 'Geneva', 'Lucid', 'Avant Garde', sans-serif; text-anchor: middle" x="322.5975" y="520.585437" transform="rotate(-0 322.5975 520.585437)">H2B Intensity (log10)</text>
    </g>
   </g>
   <g id="matplotlib.axis_2">
    <g id="ytick_1">
     <g id="line2d_8">
      <defs>
       <path id="m658062e3e8" d="M 0 0 
L -3.5 0 
" style="stroke: #000000; stroke-width: 0.8"/>
      </defs>
      <g>
       <use xlink:href="#m658062e3e8" x="43.5975" y="450.786159" style="stroke: #000000; stroke-width: 0.8"/>
      </g>
     </g>
     <g id="text_9">
      <text style="font-size: 10px; font-family: 'Helvetica', 'Arial', 'DejaVu Sans', 'Bitstream Vera Sans', 'Computer Modern Sans Serif', 'Lucida Grande', 'Verdana', 'Geneva', 'Lucid', 'Avant Garde', sans-serif; text-anchor: end" x="36.5975" y="454.372878" transform="rotate(-0 36.5975 454.372878)">0.5</text>
     </g>
    </g>
    <g id="ytick_2">
     <g id="line2d_9">
      <g>
       <use xlink:href="#m658062e3e8" x="43.5975" y="379.353493" style="stroke: #000000; stroke-width: 0.8"/>
      </g>
     </g>
     <g id="text_10">
      <text style="font-size: 10px; font-family: 'Helvetica', 'Arial', 'DejaVu Sans', 'Bitstream Vera Sans', 'Computer Modern Sans Serif', 'Lucida Grande', 'Verdana', 'Geneva', 'Lucid', 'Avant Garde', sans-serif; text-anchor: end" x="36.5975" y="382.940211" transform="rotate(-0 36.5975 382.940211)">0.6</text>
     </g>
    </g>
    <g id="ytick_3">
     <g id="line2d_10">
      <g>
       <use xlink:href="#m658062e3e8" x="43.5975" y="307.920826" style="stroke: #000000; stroke-width: 0.8"/>
      </g>
     </g>
     <g id="text_11">
      <text style="font-size: 10px; font-family: 'Helvetica', 'Arial', 'DejaVu Sans', 'Bitstream Vera Sans', 'Computer Modern Sans Serif', 'Lucida Grande', 'Verdana', 'Geneva', 'Lucid', 'Avant Garde', sans-serif; text-anchor: end" x="36.5975" y="311.507545" transform="rotate(-0 36.5975 311.507545)">0.7</text>
     </g>
    </g>
    <g id="ytick_4">
     <g id="line2d_11">
      <g>
       <use xlink:href="#m658062e3e8" x="43.5975" y="236.488159" style="stroke: #000000; stroke-width: 0.8"/>
      </g>
     </g>
     <g id="text_12">
      <text style="font-size: 10px; font-family: 'Helvetica', 'Arial', 'DejaVu Sans', 'Bitstream Vera Sans', 'Computer Modern Sans Serif', 'Lucida Grande', 'Verdana', 'Geneva', 'Lucid', 'Avant Garde', sans-serif; text-anchor: end" x="36.5975" y="240.074878" transform="rotate(-0 36.5975 240.074878)">0.8</text>
     </g>
    </g>
    <g id="ytick_5">
     <g id="line2d_12">
      <g>
       <use xlink:href="#m658062e3e8" x="43.5975" y="165.055493" style="stroke: #000000; stroke-width: 0.8"/>
      </g>
     </g>
     <g id="text_13">
      <text style="font-size: 10px; font-family: 'Helvetica', 'Arial', 'DejaVu Sans', 'Bitstream Vera Sans', 'Computer Modern Sans Serif', 'Lucida Grande', 'Verdana', 'Geneva', 'Lucid', 'Avant Garde', sans-serif; text-anchor: end" x="36.5975" y="168.642211" transform="rotate(-0 36.5975 168.642211)">0.9</text>
     </g>
    </g>
    <g id="ytick_6">
     <g id="line2d_13">
      <g>
       <use xlink:href="#m658062e3e8" x="43.5975" y="93.622826" style="stroke: #000000; stroke-width: 0.8"/>
      </g>
     </g>
     <g id="text_14">
      <text style="font-size: 10px; font-family: 'Helvetica', 'Arial', 'DejaVu Sans', 'Bitstream Vera Sans', 'Computer Modern Sans Serif', 'Lucida Grande', 'Verdana', 'Geneva', 'Lucid', 'Avant Garde', sans-serif; text-anchor: end" x="36.5975" y="97.209545" transform="rotate(-0 36.5975 97.209545)">1.0</text>
     </g>
    </g>
    <g id="text_15">
     <text style="font-size: 12px; font-family: 'Helvetica', 'Arial', 'DejaVu Sans', 'Bitstream Vera Sans', 'Computer Modern Sans Serif', 'Lucida Grande', 'Verdana', 'Geneva', 'Lucid', 'Avant Garde', sans-serif; text-anchor: middle" x="16.0425" y="269.818875" transform="rotate(-90 16.0425 269.818875)">VSV Intensity (log10)</text>
    </g>
   </g>
   <g id="line2d_14">
    <path d="M 68.961136 461.126985 
L 74.085103 457.158216 
L 79.20907 453.189447 
L 84.333037 449.220678 
L 89.457004 445.251909 
L 94.580971 441.283141 
L 99.704938 437.314372 
L 104.828905 433.345603 
L 109.952872 429.376834 
L 115.076839 425.408066 
L 120.200806 421.439297 
L 125.324773 417.470528 
L 130.44874 413.501759 
L 135.572707 409.53299 
L 140.696674 405.564222 
L 145.82064 401.595453 
L 150.944607 397.626684 
L 156.068574 393.657915 
L 161.192541 389.689146 
L 166.316508 385.720378 
L 171.440475 381.751609 
L 176.564442 377.78284 
L 181.688409 373.814071 
L 186.812376 369.845303 
L 191.936343 365.876534 
L 197.06031 361.907765 
L 202.184277 357.938996 
L 207.308244 353.970227 
L 212.432211 350.001459 
L 217.556178 346.03269 
L 222.680145 342.063921 
L 227.804112 338.095152 
L 232.928079 334.126384 
L 238.052045 330.157615 
L 243.176012 326.188846 
L 248.299979 322.220077 
L 253.423946 318.251308 
L 258.547913 314.28254 
L 263.67188 310.313771 
L 268.795847 306.345002 
L 273.919814 302.376233 
L 279.043781 298.407464 
L 284.167748 294.438696 
L 289.291715 290.469927 
L 294.415682 286.501158 
L 299.539649 282.532389 
L 304.663616 278.563621 
L 309.787583 274.594852 
L 314.91155 270.626083 
L 320.035517 266.657314 
L 325.159483 262.688545 
L 330.28345 258.719777 
L 335.407417 254.751008 
L 340.531384 250.782239 
L 345.655351 246.81347 
L 350.779318 242.844701 
L 355.903285 238.875933 
L 361.027252 234.907164 
L 366.151219 230.938395 
L 371.275186 226.969626 
L 376.399153 223.000858 
L 381.52312 219.032089 
L 386.647087 215.06332 
L 391.771054 211.094551 
L 396.895021 207.125782 
L 402.018988 203.157014 
L 407.142955 199.188245 
L 412.266921 195.219476 
L 417.390888 191.250707 
L 422.514855 187.281939 
L 427.638822 183.31317 
L 432.762789 179.344401 
L 437.886756 175.375632 
L 443.010723 171.406863 
L 448.13469 167.438095 
L 453.258657 163.469326 
L 458.382624 159.500557 
L 463.506591 155.531788 
L 468.630558 151.563019 
L 473.754525 147.594251 
L 478.878492 143.625482 
L 484.002459 139.656713 
L 489.126426 135.687944 
L 494.250393 131.719176 
L 499.37436 127.750407 
L 504.498326 123.781638 
L 509.622293 119.812869 
L 514.74626 115.8441 
L 519.870227 111.875332 
L 524.994194 107.906563 
L 530.118161 103.937794 
L 535.242128 99.969025 
L 540.366095 96.000256 
L 545.490062 92.031488 
L 550.614029 88.062719 
L 555.737996 84.09395 
L 560.861963 80.125181 
L 565.98593 76.156413 
L 571.109897 72.187644 
L 576.233864 68.218875 
" clip-path="url(#p072a6b2ccf)" style="fill: none; stroke: #000000; stroke-width: 2; stroke-linecap: square"/>
   </g>
   <g id="patch_3">
    <path d="M 43.5975 491.578875 
L 43.5975 48.058875 
" style="fill: none; stroke: #000000; stroke-width: 0.8; stroke-linejoin: miter; stroke-linecap: square"/>
   </g>
   <g id="patch_4">
    <path d="M 43.5975 491.578875 
L 601.5975 491.578875 
" style="fill: none; stroke: #000000; stroke-width: 0.8; stroke-linejoin: miter; stroke-linecap: square"/>
   </g>
   <g id="text_16">
    <text style="font-size: 9px; font-family: 'Helvetica', 'Arial', 'DejaVu Sans', 'Bitstream Vera Sans', 'Computer Modern Sans Serif', 'Lucida Grande', 'Verdana', 'Geneva', 'Lucid', 'Avant Garde', sans-serif; text-anchor: start" x="581.233864" y="106.265144" transform="rotate(-0 581.233864 106.265144)">A</text>
   </g>
   <g id="text_17">
    <text style="font-size: 9px; font-family: 'Helvetica', 'Arial', 'DejaVu Sans', 'Bitstream Vera Sans', 'Computer Modern Sans Serif', 'Lucida Grande', 'Verdana', 'Geneva', 'Lucid', 'Avant Garde', sans-serif; text-anchor: start" x="302.267126" y="188.065436" transform="rotate(-0 302.267126 188.065436)">AL</text>
   </g>
   <g id="text_18">
    <text style="font-size: 9px; font-family: 'Helvetica', 'Arial', 'DejaVu Sans', 'Bitstream Vera Sans', 'Computer Modern Sans Serif', 'Lucida Grande', 'Verdana', 'Geneva', 'Lucid', 'Avant Garde', sans-serif; text-anchor: start" x="478.984193" y="137.825918" transform="rotate(-0 478.984193 137.825918)">AM</text>
   </g>
   <g id="text_19">
    <text style="font-size: 9px; font-family: 'Helvetica', 'Arial', 'DejaVu Sans', 'Bitstream Vera Sans', 'Computer Modern Sans Serif', 'Lucida Grande', 'Verdana', 'Geneva', 'Lucid', 'Avant Garde', sans-serif; text-anchor: start" x="249.766318" y="350.753231" transform="rotate(-0 249.766318 350.753231)">LM</text>
   </g>
   <g id="text_20">
    <text style="font-size: 9px; font-family: 'Helvetica', 'Arial', 'DejaVu Sans', 'Bitstream Vera Sans', 'Computer Modern Sans Serif', 'Lucida Grande', 'Verdana', 'Geneva', 'Lucid', 'Avant Garde', sans-serif; text-anchor: start" x="267.517029" y="423.181033" transform="rotate(-0 267.517029 423.181033)">LI</text>
   </g>
   <g id="text_21">
    <text style="font-size: 9px; font-family: 'Helvetica', 'Arial', 'DejaVu Sans', 'Bitstream Vera Sans', 'Computer Modern Sans Serif', 'Lucida Grande', 'Verdana', 'Geneva', 'Lucid', 'Avant Garde', sans-serif; text-anchor: start" x="305.899427" y="189.627696" transform="rotate(-0 305.899427 189.627696)">PM</text>
   </g>
   <g id="text_22">
    <text style="font-size: 9px; font-family: 'Helvetica', 'Arial', 'DejaVu Sans', 'Bitstream Vera Sans', 'Computer Modern Sans Serif', 'Lucida Grande', 'Verdana', 'Geneva', 'Lucid', 'Avant Garde', sans-serif; text-anchor: start" x="73.961136" y="466.418875" transform="rotate(-0 73.961136 466.418875)">POR</text>
   </g>
   <g id="text_23">
    <text style="font-size: 9px; font-family: 'Helvetica', 'Arial', 'DejaVu Sans', 'Bitstream Vera Sans', 'Computer Modern Sans Serif', 'Lucida Grande', 'Verdana', 'Geneva', 'Lucid', 'Avant Garde', sans-serif; text-anchor: start" x="456.863798" y="141.111682" transform="rotate(-0 456.863798 141.111682)">RL</text>
   </g>
   <g id="text_24">
    <text style="font-size: 12px; font-family: 'Helvetica', 'Arial', 'DejaVu Sans', 'Bitstream Vera Sans', 'Computer Modern Sans Serif', 'Lucida Grande', 'Verdana', 'Geneva', 'Lucid', 'Avant Garde', sans-serif" transform="translate(276.908438 15.808125)">p12 - All Regions</text>
    <text style="font-size: 12px; font-family: 'Helvetica', 'Arial', 'DejaVu Sans', 'Bitstream Vera Sans', 'Computer Modern Sans Serif', 'Lucida Grande', 'Verdana', 'Geneva', 'Lucid', 'Avant Garde', sans-serif" transform="translate(243.906563 29.074125)">Complete Pairs Analysis (log)</text>
    <text style="font-size: 12px; font-family: 'Helvetica', 'Arial', 'DejaVu Sans', 'Bitstream Vera Sans', 'Computer Modern Sans Serif', 'Lucida Grande', 'Verdana', 'Geneva', 'Lucid', 'Avant Garde', sans-serif" transform="translate(262.894688 42.058875)">r = 0.8746, r² = 0.7649</text>
   </g>
  </g>
 </g>
 <defs>
  <clipPath id="p072a6b2ccf">
   <rect x="43.5975" y="48.058875" width="558" height="443.52"/>
  </clipPath>
 </defs>
</svg>
