<?xml version="1.0" encoding="utf-8" standalone="no"?>
<!DOCTYPE svg PUBLIC "-//W3C//DTD SVG 1.1//EN"
  "http://www.w3.org/Graphics/SVG/1.1/DTD/svg11.dtd">
<svg xmlns:xlink="http://www.w3.org/1999/xlink" width="620.801591pt" height="530.440437pt" viewBox="0 0 620.801591 530.440437" xmlns="http://www.w3.org/2000/svg" version="1.1">
 <metadata>
  <rdf:RDF xmlns:dc="http://purl.org/dc/elements/1.1/" xmlns:cc="http://creativecommons.org/ns#" xmlns:rdf="http://www.w3.org/1999/02/22-rdf-syntax-ns#">
   <cc:Work>
    <dc:type rdf:resource="http://purl.org/dc/dcmitype/StillImage"/>
    <dc:date>2026-02-24T12:28:50.110159</dc:date>
    <dc:format>image/svg+xml</dc:format>
    <dc:creator>
     <cc:Agent>
      <dc:title>Matplotlib v3.10.5, https://matplotlib.org/</dc:title>
     </cc:Agent>
    </dc:creator>
   </cc:Work>
  </rdf:RDF>
 </metadata>
 <defs>
  <style type="text/css">*{stroke-linejoin: round; stroke-linecap: butt}</style>
 </defs>
 <g id="figure_1">
  <g id="patch_1">
   <path d="M -0 530.440437 
L 620.801591 530.440437 
L 620.801591 0 
L -0 0 
z
" style="fill: #ffffff"/>
  </g>
  <g id="axes_1">
   <g id="patch_2">
    <path d="M 43.5975 491.578875 
L 601.5975 491.578875 
L 601.5975 48.058875 
L 43.5975 48.058875 
z
" style="fill: #ffffff"/>
   </g>
   <g id="PathCollection_1">
    <defs>
     <path id="C0_0_d384b862b5" d="M 0 5 
C 1.326016 5 2.597899 4.473168 3.535534 3.535534 
C 4.473168 2.597899 5 1.326016 5 -0 
C 5 -1.326016 4.473168 -2.597899 3.535534 -3.535534 
C 2.597899 -4.473168 1.326016 -5 0 -5 
C -1.326016 -5 -2.597899 -4.473168 -3.535534 -3.535534 
C -4.473168 -2.597899 -5 -1.326016 -5 0 
C -5 1.326016 -4.473168 2.597899 -3.535534 3.535534 
C -2.597899 4.473168 -1.326016 5 0 5 
z
"/>
    </defs>
    <g clip-path="url(#pc0cbc4aa11)">
     <use xlink:href="#C0_0_d384b862b5" x="333.518334" y="179.068681" style="fill: #00008b"/>
    </g>
    <g clip-path="url(#pc0cbc4aa11)">
     <use xlink:href="#C0_0_d384b862b5" x="68.961136" y="199.215311" style="fill: #00008b"/>
    </g>
    <g clip-path="url(#pc0cbc4aa11)">
     <use xlink:href="#C0_0_d384b862b5" x="216.95952" y="149.645172" style="fill: #00008b"/>
    </g>
    <g clip-path="url(#pc0cbc4aa11)">
     <use xlink:href="#C0_0_d384b862b5" x="450.498751" y="411.156946" style="fill: #00008b"/>
    </g>
    <g clip-path="url(#pc0cbc4aa11)">
     <use xlink:href="#C0_0_d384b862b5" x="576.233864" y="471.418875" style="fill: #00008b"/>
    </g>
    <g clip-path="url(#pc0cbc4aa11)">
     <use xlink:href="#C0_0_d384b862b5" x="483.434327" y="68.218875" style="fill: #00008b"/>
    </g>
    <g clip-path="url(#pc0cbc4aa11)">
     <use xlink:href="#C0_0_d384b862b5" x="242.395353" y="126.904355" style="fill: #00008b"/>
    </g>
   </g>
   <g id="matplotlib.axis_1">
    <g id="xtick_1">
     <g id="line2d_1">
      <defs>
       <path id="m8f6d07e345" d="M 0 0 
L 0 3.5 
" style="stroke: #000000; stroke-width: 0.8"/>
      </defs>
      <g>
       <use xlink:href="#m8f6d07e345" x="91.086488" y="491.578875" style="stroke: #000000; stroke-width: 0.8"/>
      </g>
     </g>
     <g id="text_1">
      <text style="font-size: 10px; font-family: 'Helvetica', 'Arial', 'DejaVu Sans', 'Bitstream Vera Sans', 'Computer Modern Sans Serif', 'Lucida Grande', 'Verdana', 'Geneva', 'Lucid', 'Avant Garde', sans-serif; text-anchor: middle" x="91.086488" y="505.752312" transform="rotate(-0 91.086488 505.752312)">1.500</text>
     </g>
    </g>
    <g id="xtick_2">
     <g id="line2d_2">
      <g>
       <use xlink:href="#m8f6d07e345" x="163.944226" y="491.578875" style="stroke: #000000; stroke-width: 0.8"/>
      </g>
     </g>
     <g id="text_2">
      <text style="font-size: 10px; font-family: 'Helvetica', 'Arial', 'DejaVu Sans', 'Bitstream Vera Sans', 'Computer Modern Sans Serif', 'Lucida Grande', 'Verdana', 'Geneva', 'Lucid', 'Avant Garde', sans-serif; text-anchor: middle" x="163.944226" y="505.752312" transform="rotate(-0 163.944226 505.752312)">1.525</text>
     </g>
    </g>
    <g id="xtick_3">
     <g id="line2d_3">
      <g>
       <use xlink:href="#m8f6d07e345" x="236.801964" y="491.578875" style="stroke: #000000; stroke-width: 0.8"/>
      </g>
     </g>
     <g id="text_3">
      <text style="font-size: 10px; font-family: 'Helvetica', 'Arial', 'DejaVu Sans', 'Bitstream Vera Sans', 'Computer Modern Sans Serif', 'Lucida Grande', 'Verdana', 'Geneva', 'Lucid', 'Avant Garde', sans-serif; text-anchor: middle" x="236.801964" y="505.752312" transform="rotate(-0 236.801964 505.752312)">1.550</text>
     </g>
    </g>
    <g id="xtick_4">
     <g id="line2d_4">
      <g>
       <use xlink:href="#m8f6d07e345" x="309.659702" y="491.578875" style="stroke: #000000; stroke-width: 0.8"/>
      </g>
     </g>
     <g id="text_4">
      <text style="font-size: 10px; font-family: 'Helvetica', 'Arial', 'DejaVu Sans', 'Bitstream Vera Sans', 'Computer Modern Sans Serif', 'Lucida Grande', 'Verdana', 'Geneva', 'Lucid', 'Avant Garde', sans-serif; text-anchor: middle" x="309.659702" y="505.752312" transform="rotate(-0 309.659702 505.752312)">1.575</text>
     </g>
    </g>
    <g id="xtick_5">
     <g id="line2d_5">
      <g>
       <use xlink:href="#m8f6d07e345" x="382.51744" y="491.578875" style="stroke: #000000; stroke-width: 0.8"/>
      </g>
     </g>
     <g id="text_5">
      <text style="font-size: 10px; font-family: 'Helvetica', 'Arial', 'DejaVu Sans', 'Bitstream Vera Sans', 'Computer Modern Sans Serif', 'Lucida Grande', 'Verdana', 'Geneva', 'Lucid', 'Avant Garde', sans-serif; text-anchor: middle" x="382.51744" y="505.752312" transform="rotate(-0 382.51744 505.752312)">1.600</text>
     </g>
    </g>
    <g id="xtick_6">
     <g id="line2d_6">
      <g>
       <use xlink:href="#m8f6d07e345" x="455.375177" y="491.578875" style="stroke: #000000; stroke-width: 0.8"/>
      </g>
     </g>
     <g id="text_6">
      <text style="font-size: 10px; font-family: 'Helvetica', 'Arial', 'DejaVu Sans', 'Bitstream Vera Sans', 'Computer Modern Sans Serif', 'Lucida Grande', 'Verdana', 'Geneva', 'Lucid', 'Avant Garde', sans-serif; text-anchor: middle" x="455.375177" y="505.752312" transform="rotate(-0 455.375177 505.752312)">1.625</text>
     </g>
    </g>
    <g id="xtick_7">
     <g id="line2d_7">
      <g>
       <use xlink:href="#m8f6d07e345" x="528.232915" y="491.578875" style="stroke: #000000; stroke-width: 0.8"/>
      </g>
     </g>
     <g id="text_7">
      <text style="font-size: 10px; font-family: 'Helvetica', 'Arial', 'DejaVu Sans', 'Bitstream Vera Sans', 'Computer Modern Sans Serif', 'Lucida Grande', 'Verdana', 'Geneva', 'Lucid', 'Avant Garde', sans-serif; text-anchor: middle" x="528.232915" y="505.752312" transform="rotate(-0 528.232915 505.752312)">1.650</text>
     </g>
    </g>
    <g id="xtick_8">
     <g id="line2d_8">
      <g>
       <use xlink:href="#m8f6d07e345" x="601.090653" y="491.578875" style="stroke: #000000; stroke-width: 0.8"/>
      </g>
     </g>
     <g id="text_8">
      <text style="font-size: 10px; font-family: 'Helvetica', 'Arial', 'DejaVu Sans', 'Bitstream Vera Sans', 'Computer Modern Sans Serif', 'Lucida Grande', 'Verdana', 'Geneva', 'Lucid', 'Avant Garde', sans-serif; text-anchor: middle" x="601.090653" y="505.752312" transform="rotate(-0 601.090653 505.752312)">1.675</text>
     </g>
    </g>
    <g id="text_9">
     <text style="font-size: 12px; font-family: 'Helvetica', 'Arial', 'DejaVu Sans', 'Bitstream Vera Sans', 'Computer Modern Sans Serif', 'Lucida Grande', 'Verdana', 'Geneva', 'Lucid', 'Avant Garde', sans-serif; text-anchor: middle" x="322.5975" y="520.585437" transform="rotate(-0 322.5975 520.585437)">H2B Intensity (log10)</text>
    </g>
   </g>
   <g id="matplotlib.axis_2">
    <g id="ytick_1">
     <g id="line2d_9">
      <defs>
       <path id="m5f96e6f7c4" d="M 0 0 
L -3.5 0 
" style="stroke: #000000; stroke-width: 0.8"/>
      </defs>
      <g>
       <use xlink:href="#m5f96e6f7c4" x="43.5975" y="449.15353" style="stroke: #000000; stroke-width: 0.8"/>
      </g>
     </g>
     <g id="text_10">
      <text style="font-size: 10px; font-family: 'Helvetica', 'Arial', 'DejaVu Sans', 'Bitstream Vera Sans', 'Computer Modern Sans Serif', 'Lucida Grande', 'Verdana', 'Geneva', 'Lucid', 'Avant Garde', sans-serif; text-anchor: end" x="36.5975" y="452.740249" transform="rotate(-0 36.5975 452.740249)">0.8</text>
     </g>
    </g>
    <g id="ytick_2">
     <g id="line2d_10">
      <g>
       <use xlink:href="#m5f96e6f7c4" x="43.5975" y="369.536676" style="stroke: #000000; stroke-width: 0.8"/>
      </g>
     </g>
     <g id="text_11">
      <text style="font-size: 10px; font-family: 'Helvetica', 'Arial', 'DejaVu Sans', 'Bitstream Vera Sans', 'Computer Modern Sans Serif', 'Lucida Grande', 'Verdana', 'Geneva', 'Lucid', 'Avant Garde', sans-serif; text-anchor: end" x="36.5975" y="373.123395" transform="rotate(-0 36.5975 373.123395)">0.9</text>
     </g>
    </g>
    <g id="ytick_3">
     <g id="line2d_11">
      <g>
       <use xlink:href="#m5f96e6f7c4" x="43.5975" y="289.919822" style="stroke: #000000; stroke-width: 0.8"/>
      </g>
     </g>
     <g id="text_12">
      <text style="font-size: 10px; font-family: 'Helvetica', 'Arial', 'DejaVu Sans', 'Bitstream Vera Sans', 'Computer Modern Sans Serif', 'Lucida Grande', 'Verdana', 'Geneva', 'Lucid', 'Avant Garde', sans-serif; text-anchor: end" x="36.5975" y="293.50654" transform="rotate(-0 36.5975 293.50654)">1.0</text>
     </g>
    </g>
    <g id="ytick_4">
     <g id="line2d_12">
      <g>
       <use xlink:href="#m5f96e6f7c4" x="43.5975" y="210.302967" style="stroke: #000000; stroke-width: 0.8"/>
      </g>
     </g>
     <g id="text_13">
      <text style="font-size: 10px; font-family: 'Helvetica', 'Arial', 'DejaVu Sans', 'Bitstream Vera Sans', 'Computer Modern Sans Serif', 'Lucida Grande', 'Verdana', 'Geneva', 'Lucid', 'Avant Garde', sans-serif; text-anchor: end" x="36.5975" y="213.889686" transform="rotate(-0 36.5975 213.889686)">1.1</text>
     </g>
    </g>
    <g id="ytick_5">
     <g id="line2d_13">
      <g>
       <use xlink:href="#m5f96e6f7c4" x="43.5975" y="130.686113" style="stroke: #000000; stroke-width: 0.8"/>
      </g>
     </g>
     <g id="text_14">
      <text style="font-size: 10px; font-family: 'Helvetica', 'Arial', 'DejaVu Sans', 'Bitstream Vera Sans', 'Computer Modern Sans Serif', 'Lucida Grande', 'Verdana', 'Geneva', 'Lucid', 'Avant Garde', sans-serif; text-anchor: end" x="36.5975" y="134.272832" transform="rotate(-0 36.5975 134.272832)">1.2</text>
     </g>
    </g>
    <g id="ytick_6">
     <g id="line2d_14">
      <g>
       <use xlink:href="#m5f96e6f7c4" x="43.5975" y="51.069259" style="stroke: #000000; stroke-width: 0.8"/>
      </g>
     </g>
     <g id="text_15">
      <text style="font-size: 10px; font-family: 'Helvetica', 'Arial', 'DejaVu Sans', 'Bitstream Vera Sans', 'Computer Modern Sans Serif', 'Lucida Grande', 'Verdana', 'Geneva', 'Lucid', 'Avant Garde', sans-serif; text-anchor: end" x="36.5975" y="54.655977" transform="rotate(-0 36.5975 54.655977)">1.3</text>
     </g>
    </g>
    <g id="text_16">
     <text style="font-size: 12px; font-family: 'Helvetica', 'Arial', 'DejaVu Sans', 'Bitstream Vera Sans', 'Computer Modern Sans Serif', 'Lucida Grande', 'Verdana', 'Geneva', 'Lucid', 'Avant Garde', sans-serif; text-anchor: middle" x="16.0425" y="269.818875" transform="rotate(-90 16.0425 269.818875)">VSV Intensity (log10)</text>
    </g>
   </g>
   <g id="line2d_15">
    <path d="M 68.961136 110.19873 
L 74.085103 112.461295 
L 79.20907 114.72386 
L 84.333037 116.986425 
L 89.457004 119.24899 
L 94.580971 121.511554 
L 99.704938 123.774119 
L 104.828905 126.036684 
L 109.952872 128.299249 
L 115.076839 130.561814 
L 120.200806 132.824378 
L 125.324773 135.086943 
L 130.44874 137.349508 
L 135.572707 139.612073 
L 140.696674 141.874638 
L 145.82064 144.137202 
L 150.944607 146.399767 
L 156.068574 148.662332 
L 161.192541 150.924897 
L 166.316508 153.187462 
L 171.440475 155.450026 
L 176.564442 157.712591 
L 181.688409 159.975156 
L 186.812376 162.237721 
L 191.936343 164.500286 
L 197.06031 166.76285 
L 202.184277 169.025415 
L 207.308244 171.28798 
L 212.432211 173.550545 
L 217.556178 175.81311 
L 222.680145 178.075674 
L 227.804112 180.338239 
L 232.928079 182.600804 
L 238.052045 184.863369 
L 243.176012 187.125934 
L 248.299979 189.388498 
L 253.423946 191.651063 
L 258.547913 193.913628 
L 263.67188 196.176193 
L 268.795847 198.438758 
L 273.919814 200.701322 
L 279.043781 202.963887 
L 284.167748 205.226452 
L 289.291715 207.489017 
L 294.415682 209.751582 
L 299.539649 212.014146 
L 304.663616 214.276711 
L 309.787583 216.539276 
L 314.91155 218.801841 
L 320.035517 221.064406 
L 325.159483 223.32697 
L 330.28345 225.589535 
L 335.407417 227.8521 
L 340.531384 230.114665 
L 345.655351 232.377229 
L 350.779318 234.639794 
L 355.903285 236.902359 
L 361.027252 239.164924 
L 366.151219 241.427489 
L 371.275186 243.690053 
L 376.399153 245.952618 
L 381.52312 248.215183 
L 386.647087 250.477748 
L 391.771054 252.740313 
L 396.895021 255.002877 
L 402.018988 257.265442 
L 407.142955 259.528007 
L 412.266921 261.790572 
L 417.390888 264.053137 
L 422.514855 266.315701 
L 427.638822 268.578266 
L 432.762789 270.840831 
L 437.886756 273.103396 
L 443.010723 275.365961 
L 448.13469 277.628525 
L 453.258657 279.89109 
L 458.382624 282.153655 
L 463.506591 284.41622 
L 468.630558 286.678785 
L 473.754525 288.941349 
L 478.878492 291.203914 
L 484.002459 293.466479 
L 489.126426 295.729044 
L 494.250393 297.991609 
L 499.37436 300.254173 
L 504.498326 302.516738 
L 509.622293 304.779303 
L 514.74626 307.041868 
L 519.870227 309.304433 
L 524.994194 311.566997 
L 530.118161 313.829562 
L 535.242128 316.092127 
L 540.366095 318.354692 
L 545.490062 320.617257 
L 550.614029 322.879821 
L 555.737996 325.142386 
L 560.861963 327.404951 
L 565.98593 329.667516 
L 571.109897 331.930081 
L 576.233864 334.192645 
" clip-path="url(#pc0cbc4aa11)" style="fill: none; stroke: #000000; stroke-width: 2; stroke-linecap: square"/>
   </g>
   <g id="patch_3">
    <path d="M 43.5975 491.578875 
L 43.5975 48.058875 
" style="fill: none; stroke: #000000; stroke-width: 0.8; stroke-linejoin: miter; stroke-linecap: square"/>
   </g>
   <g id="patch_4">
    <path d="M 43.5975 491.578875 
L 601.5975 491.578875 
" style="fill: none; stroke: #000000; stroke-width: 0.8; stroke-linejoin: miter; stroke-linecap: square"/>
   </g>
   <g id="text_17">
    <text style="font-size: 9px; font-family: 'Helvetica', 'Arial', 'DejaVu Sans', 'Bitstream Vera Sans', 'Computer Modern Sans Serif', 'Lucida Grande', 'Verdana', 'Geneva', 'Lucid', 'Avant Garde', sans-serif; text-anchor: start" x="338.518334" y="174.068681" transform="rotate(-0 338.518334 174.068681)">A</text>
   </g>
   <g id="text_18">
    <text style="font-size: 9px; font-family: 'Helvetica', 'Arial', 'DejaVu Sans', 'Bitstream Vera Sans', 'Computer Modern Sans Serif', 'Lucida Grande', 'Verdana', 'Geneva', 'Lucid', 'Avant Garde', sans-serif; text-anchor: start" x="73.961136" y="194.215311" transform="rotate(-0 73.961136 194.215311)">AL</text>
   </g>
   <g id="text_19">
    <text style="font-size: 9px; font-family: 'Helvetica', 'Arial', 'DejaVu Sans', 'Bitstream Vera Sans', 'Computer Modern Sans Serif', 'Lucida Grande', 'Verdana', 'Geneva', 'Lucid', 'Avant Garde', sans-serif; text-anchor: start" x="221.95952" y="144.645172" transform="rotate(-0 221.95952 144.645172)">AM</text>
   </g>
   <g id="text_20">
    <text style="font-size: 9px; font-family: 'Helvetica', 'Arial', 'DejaVu Sans', 'Bitstream Vera Sans', 'Computer Modern Sans Serif', 'Lucida Grande', 'Verdana', 'Geneva', 'Lucid', 'Avant Garde', sans-serif; text-anchor: start" x="455.498751" y="406.156946" transform="rotate(-0 455.498751 406.156946)">LM</text>
   </g>
   <g id="text_21">
    <text style="font-size: 9px; font-family: 'Helvetica', 'Arial', 'DejaVu Sans', 'Bitstream Vera Sans', 'Computer Modern Sans Serif', 'Lucida Grande', 'Verdana', 'Geneva', 'Lucid', 'Avant Garde', sans-serif; text-anchor: start" x="581.233864" y="466.418875" transform="rotate(-0 581.233864 466.418875)">LI</text>
   </g>
   <g id="text_22">
    <text style="font-size: 9px; font-family: 'Helvetica', 'Arial', 'DejaVu Sans', 'Bitstream Vera Sans', 'Computer Modern Sans Serif', 'Lucida Grande', 'Verdana', 'Geneva', 'Lucid', 'Avant Garde', sans-serif; text-anchor: start" x="488.434327" y="63.218875" transform="rotate(-0 488.434327 63.218875)">PM</text>
   </g>
   <g id="text_23">
    <text style="font-size: 9px; font-family: 'Helvetica', 'Arial', 'DejaVu Sans', 'Bitstream Vera Sans', 'Computer Modern Sans Serif', 'Lucida Grande', 'Verdana', 'Geneva', 'Lucid', 'Avant Garde', sans-serif; text-anchor: start" x="247.395353" y="121.904355" transform="rotate(-0 247.395353 121.904355)">RL</text>
   </g>
   <g id="text_24">
    <text style="font-size: 12px; font-family: 'Helvetica', 'Arial', 'DejaVu Sans', 'Bitstream Vera Sans', 'Computer Modern Sans Serif', 'Lucida Grande', 'Verdana', 'Geneva', 'Lucid', 'Avant Garde', sans-serif" transform="translate(276.908438 15.808125)">p20 - All Regions</text>
    <text style="font-size: 12px; font-family: 'Helvetica', 'Arial', 'DejaVu Sans', 'Bitstream Vera Sans', 'Computer Modern Sans Serif', 'Lucida Grande', 'Verdana', 'Geneva', 'Lucid', 'Avant Garde', sans-serif" transform="translate(243.906563 29.074125)">Complete Pairs Analysis (log)</text>
    <text style="font-size: 12px; font-family: 'Helvetica', 'Arial', 'DejaVu Sans', 'Bitstream Vera Sans', 'Computer Modern Sans Serif', 'Lucida Grande', 'Verdana', 'Geneva', 'Lucid', 'Avant Garde', sans-serif" transform="translate(260.896875 42.058875)">r = -0.5139, r² = 0.2641</text>
   </g>
  </g>
 </g>
 <defs>
  <clipPath id="pc0cbc4aa11">
   <rect x="43.5975" y="48.058875" width="558" height="443.52"/>
  </clipPath>
 </defs>
</svg>
