<?xml version="1.0" encoding="utf-8" standalone="no"?>
<!DOCTYPE svg PUBLIC "-//W3C//DTD SVG 1.1//EN"
  "http://www.w3.org/Graphics/SVG/1.1/DTD/svg11.dtd">
<svg xmlns:xlink="http://www.w3.org/1999/xlink" width="614.358438pt" height="530.440437pt" viewBox="0 0 614.358438 530.440437" xmlns="http://www.w3.org/2000/svg" version="1.1">
 <metadata>
  <rdf:RDF xmlns:dc="http://purl.org/dc/elements/1.1/" xmlns:cc="http://creativecommons.org/ns#" xmlns:rdf="http://www.w3.org/1999/02/22-rdf-syntax-ns#">
   <cc:Work>
    <dc:type rdf:resource="http://purl.org/dc/dcmitype/StillImage"/>
    <dc:date>2026-02-24T12:29:18.001600</dc:date>
    <dc:format>image/svg+xml</dc:format>
    <dc:creator>
     <cc:Agent>
      <dc:title>Matplotlib v3.10.5, https://matplotlib.org/</dc:title>
     </cc:Agent>
    </dc:creator>
   </cc:Work>
  </rdf:RDF>
 </metadata>
 <defs>
  <style type="text/css">*{stroke-linejoin: round; stroke-linecap: butt}</style>
 </defs>
 <g id="figure_1">
  <g id="patch_1">
   <path d="M 0 530.440437 
L 614.358438 530.440437 
L 614.358438 0 
L 0 0 
z
" style="fill: #ffffff"/>
  </g>
  <g id="axes_1">
   <g id="patch_2">
    <path d="M 49.158438 491.578875 
L 607.158437 491.578875 
L 607.158437 48.058875 
L 49.158438 48.058875 
z
" style="fill: #ffffff"/>
   </g>
   <g id="PathCollection_1">
    <defs>
     <path id="C0_0_e7c0c3c33e" d="M 0 5 
C 1.326016 5 2.597899 4.473168 3.535534 3.535534 
C 4.473168 2.597899 5 1.326016 5 -0 
C 5 -1.326016 4.473168 -2.597899 3.535534 -3.535534 
C 2.597899 -4.473168 1.326016 -5 0 -5 
C -1.326016 -5 -2.597899 -4.473168 -3.535534 -3.535534 
C -4.473168 -2.597899 -5 -1.326016 -5 0 
C -5 1.326016 -4.473168 2.597899 -3.535534 3.535534 
C -2.597899 4.473168 -1.326016 5 0 5 
z
"/>
    </defs>
    <g clip-path="url(#pc6b464071d)">
     <use xlink:href="#C0_0_e7c0c3c33e" x="74.849486" y="227.837255" style="fill: #00008b"/>
    </g>
    <g clip-path="url(#pc6b464071d)">
     <use xlink:href="#C0_0_e7c0c3c33e" x="232.079616" y="230.07212" style="fill: #00008b"/>
    </g>
    <g clip-path="url(#pc6b464071d)">
     <use xlink:href="#C0_0_e7c0c3c33e" x="74.522074" y="118.966764" style="fill: #00008b"/>
    </g>
    <g clip-path="url(#pc6b464071d)">
     <use xlink:href="#C0_0_e7c0c3c33e" x="313.34117" y="440.061573" style="fill: #00008b"/>
    </g>
    <g clip-path="url(#pc6b464071d)">
     <use xlink:href="#C0_0_e7c0c3c33e" x="581.794801" y="471.418875" style="fill: #00008b"/>
    </g>
    <g clip-path="url(#pc6b464071d)">
     <use xlink:href="#C0_0_e7c0c3c33e" x="431.805809" y="68.218875" style="fill: #00008b"/>
    </g>
    <g clip-path="url(#pc6b464071d)">
     <use xlink:href="#C0_0_e7c0c3c33e" x="264.236685" y="124.830226" style="fill: #00008b"/>
    </g>
   </g>
   <g id="matplotlib.axis_1">
    <g id="xtick_1">
     <g id="line2d_1">
      <defs>
       <path id="m63d45a2364" d="M 0 0 
L 0 3.5 
" style="stroke: #000000; stroke-width: 0.8"/>
      </defs>
      <g>
       <use xlink:href="#m63d45a2364" x="111.629223" y="491.578875" style="stroke: #000000; stroke-width: 0.8"/>
      </g>
     </g>
     <g id="text_1">
      <text style="font-size: 10px; font-family: 'Helvetica', 'Arial', 'DejaVu Sans', 'Bitstream Vera Sans', 'Computer Modern Sans Serif', 'Lucida Grande', 'Verdana', 'Geneva', 'Lucid', 'Avant Garde', sans-serif; text-anchor: middle" x="111.629223" y="505.752312" transform="rotate(-0 111.629223 505.752312)">0.24</text>
     </g>
    </g>
    <g id="xtick_2">
     <g id="line2d_2">
      <g>
       <use xlink:href="#m63d45a2364" x="226.966225" y="491.578875" style="stroke: #000000; stroke-width: 0.8"/>
      </g>
     </g>
     <g id="text_2">
      <text style="font-size: 10px; font-family: 'Helvetica', 'Arial', 'DejaVu Sans', 'Bitstream Vera Sans', 'Computer Modern Sans Serif', 'Lucida Grande', 'Verdana', 'Geneva', 'Lucid', 'Avant Garde', sans-serif; text-anchor: middle" x="226.966225" y="505.752312" transform="rotate(-0 226.966225 505.752312)">0.26</text>
     </g>
    </g>
    <g id="xtick_3">
     <g id="line2d_3">
      <g>
       <use xlink:href="#m63d45a2364" x="342.303227" y="491.578875" style="stroke: #000000; stroke-width: 0.8"/>
      </g>
     </g>
     <g id="text_3">
      <text style="font-size: 10px; font-family: 'Helvetica', 'Arial', 'DejaVu Sans', 'Bitstream Vera Sans', 'Computer Modern Sans Serif', 'Lucida Grande', 'Verdana', 'Geneva', 'Lucid', 'Avant Garde', sans-serif; text-anchor: middle" x="342.303227" y="505.752312" transform="rotate(-0 342.303227 505.752312)">0.28</text>
     </g>
    </g>
    <g id="xtick_4">
     <g id="line2d_4">
      <g>
       <use xlink:href="#m63d45a2364" x="457.640229" y="491.578875" style="stroke: #000000; stroke-width: 0.8"/>
      </g>
     </g>
     <g id="text_4">
      <text style="font-size: 10px; font-family: 'Helvetica', 'Arial', 'DejaVu Sans', 'Bitstream Vera Sans', 'Computer Modern Sans Serif', 'Lucida Grande', 'Verdana', 'Geneva', 'Lucid', 'Avant Garde', sans-serif; text-anchor: middle" x="457.640229" y="505.752312" transform="rotate(-0 457.640229 505.752312)">0.30</text>
     </g>
    </g>
    <g id="xtick_5">
     <g id="line2d_5">
      <g>
       <use xlink:href="#m63d45a2364" x="572.977231" y="491.578875" style="stroke: #000000; stroke-width: 0.8"/>
      </g>
     </g>
     <g id="text_5">
      <text style="font-size: 10px; font-family: 'Helvetica', 'Arial', 'DejaVu Sans', 'Bitstream Vera Sans', 'Computer Modern Sans Serif', 'Lucida Grande', 'Verdana', 'Geneva', 'Lucid', 'Avant Garde', sans-serif; text-anchor: middle" x="572.977231" y="505.752312" transform="rotate(-0 572.977231 505.752312)">0.32</text>
     </g>
    </g>
    <g id="text_6">
     <text style="font-size: 12px; font-family: 'Helvetica', 'Arial', 'DejaVu Sans', 'Bitstream Vera Sans', 'Computer Modern Sans Serif', 'Lucida Grande', 'Verdana', 'Geneva', 'Lucid', 'Avant Garde', sans-serif; text-anchor: middle" x="328.158437" y="520.585437" transform="rotate(-0 328.158437 520.585437)">H2B Intensity (log10)</text>
    </g>
   </g>
   <g id="matplotlib.axis_2">
    <g id="ytick_1">
     <g id="line2d_6">
      <defs>
       <path id="m4da9d1b13d" d="M 0 0 
L -3.5 0 
" style="stroke: #000000; stroke-width: 0.8"/>
      </defs>
      <g>
       <use xlink:href="#m4da9d1b13d" x="49.158438" y="436.17652" style="stroke: #000000; stroke-width: 0.8"/>
      </g>
     </g>
     <g id="text_7">
      <text style="font-size: 10px; font-family: 'Helvetica', 'Arial', 'DejaVu Sans', 'Bitstream Vera Sans', 'Computer Modern Sans Serif', 'Lucida Grande', 'Verdana', 'Geneva', 'Lucid', 'Avant Garde', sans-serif; text-anchor: end" x="42.158438" y="439.763239" transform="rotate(-0 42.158438 439.763239)">0.06</text>
     </g>
    </g>
    <g id="ytick_2">
     <g id="line2d_7">
      <g>
       <use xlink:href="#m4da9d1b13d" x="49.158438" y="353.784601" style="stroke: #000000; stroke-width: 0.8"/>
      </g>
     </g>
     <g id="text_8">
      <text style="font-size: 10px; font-family: 'Helvetica', 'Arial', 'DejaVu Sans', 'Bitstream Vera Sans', 'Computer Modern Sans Serif', 'Lucida Grande', 'Verdana', 'Geneva', 'Lucid', 'Avant Garde', sans-serif; text-anchor: end" x="42.158438" y="357.37132" transform="rotate(-0 42.158438 357.37132)">0.08</text>
     </g>
    </g>
    <g id="ytick_3">
     <g id="line2d_8">
      <g>
       <use xlink:href="#m4da9d1b13d" x="49.158438" y="271.392683" style="stroke: #000000; stroke-width: 0.8"/>
      </g>
     </g>
     <g id="text_9">
      <text style="font-size: 10px; font-family: 'Helvetica', 'Arial', 'DejaVu Sans', 'Bitstream Vera Sans', 'Computer Modern Sans Serif', 'Lucida Grande', 'Verdana', 'Geneva', 'Lucid', 'Avant Garde', sans-serif; text-anchor: end" x="42.158438" y="274.979401" transform="rotate(-0 42.158438 274.979401)">0.10</text>
     </g>
    </g>
    <g id="ytick_4">
     <g id="line2d_9">
      <g>
       <use xlink:href="#m4da9d1b13d" x="49.158438" y="189.000764" style="stroke: #000000; stroke-width: 0.8"/>
      </g>
     </g>
     <g id="text_10">
      <text style="font-size: 10px; font-family: 'Helvetica', 'Arial', 'DejaVu Sans', 'Bitstream Vera Sans', 'Computer Modern Sans Serif', 'Lucida Grande', 'Verdana', 'Geneva', 'Lucid', 'Avant Garde', sans-serif; text-anchor: end" x="42.158438" y="192.587483" transform="rotate(-0 42.158438 192.587483)">0.12</text>
     </g>
    </g>
    <g id="ytick_5">
     <g id="line2d_10">
      <g>
       <use xlink:href="#m4da9d1b13d" x="49.158438" y="106.608845" style="stroke: #000000; stroke-width: 0.8"/>
      </g>
     </g>
     <g id="text_11">
      <text style="font-size: 10px; font-family: 'Helvetica', 'Arial', 'DejaVu Sans', 'Bitstream Vera Sans', 'Computer Modern Sans Serif', 'Lucida Grande', 'Verdana', 'Geneva', 'Lucid', 'Avant Garde', sans-serif; text-anchor: end" x="42.158438" y="110.195564" transform="rotate(-0 42.158438 110.195564)">0.14</text>
     </g>
    </g>
    <g id="text_12">
     <text style="font-size: 12px; font-family: 'Helvetica', 'Arial', 'DejaVu Sans', 'Bitstream Vera Sans', 'Computer Modern Sans Serif', 'Lucida Grande', 'Verdana', 'Geneva', 'Lucid', 'Avant Garde', sans-serif; text-anchor: middle" x="16.0425" y="269.818875" transform="rotate(-90 16.0425 269.818875)">VSV Intensity (log10)</text>
    </g>
   </g>
   <g id="line2d_11">
    <path d="M 74.522074 158.046263 
L 79.646041 160.077105 
L 84.770008 162.107946 
L 89.893975 164.138788 
L 95.017942 166.169629 
L 100.141909 168.20047 
L 105.265876 170.231312 
L 110.389842 172.262153 
L 115.513809 174.292995 
L 120.637776 176.323836 
L 125.761743 178.354677 
L 130.88571 180.385519 
L 136.009677 182.41636 
L 141.133644 184.447202 
L 146.257611 186.478043 
L 151.381578 188.508884 
L 156.505545 190.539726 
L 161.629512 192.570567 
L 166.753479 194.601409 
L 171.877446 196.63225 
L 177.001413 198.663091 
L 182.12538 200.693933 
L 187.249347 202.724774 
L 192.373314 204.755616 
L 197.49728 206.786457 
L 202.621247 208.817298 
L 207.745214 210.84814 
L 212.869181 212.878981 
L 217.993148 214.909823 
L 223.117115 216.940664 
L 228.241082 218.971505 
L 233.365049 221.002347 
L 238.489016 223.033188 
L 243.612983 225.06403 
L 248.73695 227.094871 
L 253.860917 229.125713 
L 258.984884 231.156554 
L 264.108851 233.187395 
L 269.232818 235.218237 
L 274.356785 237.249078 
L 279.480752 239.27992 
L 284.604718 241.310761 
L 289.728685 243.341602 
L 294.852652 245.372444 
L 299.976619 247.403285 
L 305.100586 249.434127 
L 310.224553 251.464968 
L 315.34852 253.495809 
L 320.472487 255.526651 
L 325.596454 257.557492 
L 330.720421 259.588334 
L 335.844388 261.619175 
L 340.968355 263.650016 
L 346.092322 265.680858 
L 351.216289 267.711699 
L 356.340256 269.742541 
L 361.464223 271.773382 
L 366.58819 273.804223 
L 371.712157 275.835065 
L 376.836123 277.865906 
L 381.96009 279.896748 
L 387.084057 281.927589 
L 392.208024 283.95843 
L 397.331991 285.989272 
L 402.455958 288.020113 
L 407.579925 290.050955 
L 412.703892 292.081796 
L 417.827859 294.112637 
L 422.951826 296.143479 
L 428.075793 298.17432 
L 433.19976 300.205162 
L 438.323727 302.236003 
L 443.447694 304.266844 
L 448.571661 306.297686 
L 453.695628 308.328527 
L 458.819595 310.359369 
L 463.943561 312.39021 
L 469.067528 314.421051 
L 474.191495 316.451893 
L 479.315462 318.482734 
L 484.439429 320.513576 
L 489.563396 322.544417 
L 494.687363 324.575258 
L 499.81133 326.6061 
L 504.935297 328.636941 
L 510.059264 330.667783 
L 515.183231 332.698624 
L 520.307198 334.729465 
L 525.431165 336.760307 
L 530.555132 338.791148 
L 535.679099 340.82199 
L 540.803066 342.852831 
L 545.927033 344.883672 
L 551.050999 346.914514 
L 556.174966 348.945355 
L 561.298933 350.976197 
L 566.4229 353.007038 
L 571.546867 355.037879 
L 576.670834 357.068721 
L 581.794801 359.099562 
" clip-path="url(#pc6b464071d)" style="fill: none; stroke: #000000; stroke-width: 2; stroke-linecap: square"/>
   </g>
   <g id="patch_3">
    <path d="M 49.158438 491.578875 
L 49.158438 48.058875 
" style="fill: none; stroke: #000000; stroke-width: 0.8; stroke-linejoin: miter; stroke-linecap: square"/>
   </g>
   <g id="patch_4">
    <path d="M 49.158437 491.578875 
L 607.158437 491.578875 
" style="fill: none; stroke: #000000; stroke-width: 0.8; stroke-linejoin: miter; stroke-linecap: square"/>
   </g>
   <g id="text_13">
    <text style="font-size: 9px; font-family: 'Helvetica', 'Arial', 'DejaVu Sans', 'Bitstream Vera Sans', 'Computer Modern Sans Serif', 'Lucida Grande', 'Verdana', 'Geneva', 'Lucid', 'Avant Garde', sans-serif; text-anchor: start" x="79.849486" y="222.837255" transform="rotate(-0 79.849486 222.837255)">A</text>
   </g>
   <g id="text_14">
    <text style="font-size: 9px; font-family: 'Helvetica', 'Arial', 'DejaVu Sans', 'Bitstream Vera Sans', 'Computer Modern Sans Serif', 'Lucida Grande', 'Verdana', 'Geneva', 'Lucid', 'Avant Garde', sans-serif; text-anchor: start" x="237.079616" y="225.07212" transform="rotate(-0 237.079616 225.07212)">AL</text>
   </g>
   <g id="text_15">
    <text style="font-size: 9px; font-family: 'Helvetica', 'Arial', 'DejaVu Sans', 'Bitstream Vera Sans', 'Computer Modern Sans Serif', 'Lucida Grande', 'Verdana', 'Geneva', 'Lucid', 'Avant Garde', sans-serif; text-anchor: start" x="79.522074" y="113.966764" transform="rotate(-0 79.522074 113.966764)">AM</text>
   </g>
   <g id="text_16">
    <text style="font-size: 9px; font-family: 'Helvetica', 'Arial', 'DejaVu Sans', 'Bitstream Vera Sans', 'Computer Modern Sans Serif', 'Lucida Grande', 'Verdana', 'Geneva', 'Lucid', 'Avant Garde', sans-serif; text-anchor: start" x="318.34117" y="435.061573" transform="rotate(-0 318.34117 435.061573)">LM</text>
   </g>
   <g id="text_17">
    <text style="font-size: 9px; font-family: 'Helvetica', 'Arial', 'DejaVu Sans', 'Bitstream Vera Sans', 'Computer Modern Sans Serif', 'Lucida Grande', 'Verdana', 'Geneva', 'Lucid', 'Avant Garde', sans-serif; text-anchor: start" x="586.794801" y="466.418875" transform="rotate(-0 586.794801 466.418875)">LI</text>
   </g>
   <g id="text_18">
    <text style="font-size: 9px; font-family: 'Helvetica', 'Arial', 'DejaVu Sans', 'Bitstream Vera Sans', 'Computer Modern Sans Serif', 'Lucida Grande', 'Verdana', 'Geneva', 'Lucid', 'Avant Garde', sans-serif; text-anchor: start" x="436.805809" y="63.218875" transform="rotate(-0 436.805809 63.218875)">PM</text>
   </g>
   <g id="text_19">
    <text style="font-size: 9px; font-family: 'Helvetica', 'Arial', 'DejaVu Sans', 'Bitstream Vera Sans', 'Computer Modern Sans Serif', 'Lucida Grande', 'Verdana', 'Geneva', 'Lucid', 'Avant Garde', sans-serif; text-anchor: start" x="269.236685" y="119.830226" transform="rotate(-0 269.236685 119.830226)">RL</text>
   </g>
   <g id="text_20">
    <text style="font-size: 12px; font-family: 'Helvetica', 'Arial', 'DejaVu Sans', 'Bitstream Vera Sans', 'Computer Modern Sans Serif', 'Lucida Grande', 'Verdana', 'Geneva', 'Lucid', 'Avant Garde', sans-serif" transform="translate(282.469375 15.808125)">p20 - All Regions</text>
    <text style="font-size: 12px; font-family: 'Helvetica', 'Arial', 'DejaVu Sans', 'Bitstream Vera Sans', 'Computer Modern Sans Serif', 'Lucida Grande', 'Verdana', 'Geneva', 'Lucid', 'Avant Garde', sans-serif" transform="translate(249.4675 29.074125)">Complete Pairs Analysis (log)</text>
    <text style="font-size: 12px; font-family: 'Helvetica', 'Arial', 'DejaVu Sans', 'Bitstream Vera Sans', 'Computer Modern Sans Serif', 'Lucida Grande', 'Verdana', 'Geneva', 'Lucid', 'Avant Garde', sans-serif" transform="translate(266.457812 42.058875)">r = -0.4581, r² = 0.2099</text>
   </g>
  </g>
 </g>
 <defs>
  <clipPath id="pc6b464071d">
   <rect x="49.158438" y="48.058875" width="558" height="443.52"/>
  </clipPath>
 </defs>
</svg>
