<?xml version="1.0" encoding="utf-8" standalone="no"?>
<!DOCTYPE svg PUBLIC "-//W3C//DTD SVG 1.1//EN"
  "http://www.w3.org/Graphics/SVG/1.1/DTD/svg11.dtd">
<svg xmlns:xlink="http://www.w3.org/1999/xlink" width="608.7975pt" height="530.356062pt" viewBox="0 0 608.7975 530.356062" xmlns="http://www.w3.org/2000/svg" version="1.1">
 <metadata>
  <rdf:RDF xmlns:dc="http://purl.org/dc/elements/1.1/" xmlns:cc="http://creativecommons.org/ns#" xmlns:rdf="http://www.w3.org/1999/02/22-rdf-syntax-ns#">
   <cc:Work>
    <dc:type rdf:resource="http://purl.org/dc/dcmitype/StillImage"/>
    <dc:date>2026-02-24T12:29:47.755266</dc:date>
    <dc:format>image/svg+xml</dc:format>
    <dc:creator>
     <cc:Agent>
      <dc:title>Matplotlib v3.10.5, https://matplotlib.org/</dc:title>
     </cc:Agent>
    </dc:creator>
   </cc:Work>
  </rdf:RDF>
 </metadata>
 <defs>
  <style type="text/css">*{stroke-linejoin: round; stroke-linecap: butt}</style>
 </defs>
 <g id="figure_1">
  <g id="patch_1">
   <path d="M -0 530.356062 
L 608.7975 530.356062 
L 608.7975 0 
L -0 0 
z
" style="fill: #ffffff"/>
  </g>
  <g id="axes_1">
   <g id="patch_2">
    <path d="M 43.5975 491.4945 
L 601.5975 491.4945 
L 601.5975 47.9745 
L 43.5975 47.9745 
z
" style="fill: #ffffff"/>
   </g>
   <g id="PathCollection_1">
    <defs>
     <path id="C0_0_d8dfb50dae" d="M 0 5 
C 1.326016 5 2.597899 4.473168 3.535534 3.535534 
C 4.473168 2.597899 5 1.326016 5 -0 
C 5 -1.326016 4.473168 -2.597899 3.535534 -3.535534 
C 2.597899 -4.473168 1.326016 -5 0 -5 
C -1.326016 -5 -2.597899 -4.473168 -3.535534 -3.535534 
C -4.473168 -2.597899 -5 -1.326016 -5 0 
C -5 1.326016 -4.473168 2.597899 -3.535534 3.535534 
C -2.597899 4.473168 -1.326016 5 0 5 
z
"/>
    </defs>
    <g clip-path="url(#pa35d3679a9)">
     <use xlink:href="#C0_0_d8dfb50dae" x="576.233864" y="267.301347" style="fill: #00008b"/>
    </g>
    <g clip-path="url(#pa35d3679a9)">
     <use xlink:href="#C0_0_d8dfb50dae" x="493.808136" y="471.3345" style="fill: #00008b"/>
    </g>
    <g clip-path="url(#pa35d3679a9)">
     <use xlink:href="#C0_0_d8dfb50dae" x="433.748911" y="366.095729" style="fill: #00008b"/>
    </g>
    <g clip-path="url(#pa35d3679a9)">
     <use xlink:href="#C0_0_d8dfb50dae" x="133.053245" y="227.626785" style="fill: #00008b"/>
    </g>
    <g clip-path="url(#pa35d3679a9)">
     <use xlink:href="#C0_0_d8dfb50dae" x="78.281096" y="145.196847" style="fill: #00008b"/>
    </g>
    <g clip-path="url(#pa35d3679a9)">
     <use xlink:href="#C0_0_d8dfb50dae" x="214.559439" y="398.510001" style="fill: #00008b"/>
    </g>
    <g clip-path="url(#pa35d3679a9)">
     <use xlink:href="#C0_0_d8dfb50dae" x="68.961136" y="68.1345" style="fill: #00008b"/>
    </g>
    <g clip-path="url(#pa35d3679a9)">
     <use xlink:href="#C0_0_d8dfb50dae" x="380.1995" y="295.82129" style="fill: #00008b"/>
    </g>
   </g>
   <g id="matplotlib.axis_1">
    <g id="xtick_1">
     <g id="line2d_1">
      <defs>
       <path id="mc0fe8456f8" d="M 0 0 
L 0 3.5 
" style="stroke: #000000; stroke-width: 0.8"/>
      </defs>
      <g>
       <use xlink:href="#mc0fe8456f8" x="141.703455" y="491.4945" style="stroke: #000000; stroke-width: 0.8"/>
      </g>
     </g>
     <g id="text_1">
      <text style="font-size: 10px; font-family: 'Helvetica', 'Arial', 'DejaVu Sans', 'Bitstream Vera Sans', 'Computer Modern Sans Serif', 'Lucida Grande', 'Verdana', 'Geneva', 'Lucid', 'Avant Garde', sans-serif; text-anchor: middle" x="141.703455" y="505.667937" transform="rotate(-0 141.703455 505.667937)">0.88</text>
     </g>
    </g>
    <g id="xtick_2">
     <g id="line2d_2">
      <g>
       <use xlink:href="#mc0fe8456f8" x="264.794139" y="491.4945" style="stroke: #000000; stroke-width: 0.8"/>
      </g>
     </g>
     <g id="text_2">
      <text style="font-size: 10px; font-family: 'Helvetica', 'Arial', 'DejaVu Sans', 'Bitstream Vera Sans', 'Computer Modern Sans Serif', 'Lucida Grande', 'Verdana', 'Geneva', 'Lucid', 'Avant Garde', sans-serif; text-anchor: middle" x="264.794139" y="505.667937" transform="rotate(-0 264.794139 505.667937)">0.89</text>
     </g>
    </g>
    <g id="xtick_3">
     <g id="line2d_3">
      <g>
       <use xlink:href="#mc0fe8456f8" x="387.884823" y="491.4945" style="stroke: #000000; stroke-width: 0.8"/>
      </g>
     </g>
     <g id="text_3">
      <text style="font-size: 10px; font-family: 'Helvetica', 'Arial', 'DejaVu Sans', 'Bitstream Vera Sans', 'Computer Modern Sans Serif', 'Lucida Grande', 'Verdana', 'Geneva', 'Lucid', 'Avant Garde', sans-serif; text-anchor: middle" x="387.884823" y="505.667937" transform="rotate(-0 387.884823 505.667937)">0.90</text>
     </g>
    </g>
    <g id="xtick_4">
     <g id="line2d_4">
      <g>
       <use xlink:href="#mc0fe8456f8" x="510.975506" y="491.4945" style="stroke: #000000; stroke-width: 0.8"/>
      </g>
     </g>
     <g id="text_4">
      <text style="font-size: 10px; font-family: 'Helvetica', 'Arial', 'DejaVu Sans', 'Bitstream Vera Sans', 'Computer Modern Sans Serif', 'Lucida Grande', 'Verdana', 'Geneva', 'Lucid', 'Avant Garde', sans-serif; text-anchor: middle" x="510.975506" y="505.667937" transform="rotate(-0 510.975506 505.667937)">0.91</text>
     </g>
    </g>
    <g id="text_5">
     <text style="font-size: 12px; font-family: 'Helvetica', 'Arial', 'DejaVu Sans', 'Bitstream Vera Sans', 'Computer Modern Sans Serif', 'Lucida Grande', 'Verdana', 'Geneva', 'Lucid', 'Avant Garde', sans-serif; text-anchor: middle" x="322.5975" y="520.501062" transform="rotate(-0 322.5975 520.501062)">H2B Intensity (log10)</text>
    </g>
   </g>
   <g id="matplotlib.axis_2">
    <g id="ytick_1">
     <g id="line2d_5">
      <defs>
       <path id="m8136ed1b75" d="M 0 0 
L -3.5 0 
" style="stroke: #000000; stroke-width: 0.8"/>
      </defs>
      <g>
       <use xlink:href="#m8136ed1b75" x="43.5975" y="471.339092" style="stroke: #000000; stroke-width: 0.8"/>
      </g>
     </g>
     <g id="text_6">
      <text style="font-size: 10px; font-family: 'Helvetica', 'Arial', 'DejaVu Sans', 'Bitstream Vera Sans', 'Computer Modern Sans Serif', 'Lucida Grande', 'Verdana', 'Geneva', 'Lucid', 'Avant Garde', sans-serif; text-anchor: end" x="36.5975" y="474.925811" transform="rotate(-0 36.5975 474.925811)">0.4</text>
     </g>
    </g>
    <g id="ytick_2">
     <g id="line2d_6">
      <g>
       <use xlink:href="#m8136ed1b75" x="43.5975" y="377.066075" style="stroke: #000000; stroke-width: 0.8"/>
      </g>
     </g>
     <g id="text_7">
      <text style="font-size: 10px; font-family: 'Helvetica', 'Arial', 'DejaVu Sans', 'Bitstream Vera Sans', 'Computer Modern Sans Serif', 'Lucida Grande', 'Verdana', 'Geneva', 'Lucid', 'Avant Garde', sans-serif; text-anchor: end" x="36.5975" y="380.652793" transform="rotate(-0 36.5975 380.652793)">0.6</text>
     </g>
    </g>
    <g id="ytick_3">
     <g id="line2d_7">
      <g>
       <use xlink:href="#m8136ed1b75" x="43.5975" y="282.793058" style="stroke: #000000; stroke-width: 0.8"/>
      </g>
     </g>
     <g id="text_8">
      <text style="font-size: 10px; font-family: 'Helvetica', 'Arial', 'DejaVu Sans', 'Bitstream Vera Sans', 'Computer Modern Sans Serif', 'Lucida Grande', 'Verdana', 'Geneva', 'Lucid', 'Avant Garde', sans-serif; text-anchor: end" x="36.5975" y="286.379776" transform="rotate(-0 36.5975 286.379776)">0.8</text>
     </g>
    </g>
    <g id="ytick_4">
     <g id="line2d_8">
      <g>
       <use xlink:href="#m8136ed1b75" x="43.5975" y="188.52004" style="stroke: #000000; stroke-width: 0.8"/>
      </g>
     </g>
     <g id="text_9">
      <text style="font-size: 10px; font-family: 'Helvetica', 'Arial', 'DejaVu Sans', 'Bitstream Vera Sans', 'Computer Modern Sans Serif', 'Lucida Grande', 'Verdana', 'Geneva', 'Lucid', 'Avant Garde', sans-serif; text-anchor: end" x="36.5975" y="192.106759" transform="rotate(-0 36.5975 192.106759)">1.0</text>
     </g>
    </g>
    <g id="ytick_5">
     <g id="line2d_9">
      <g>
       <use xlink:href="#m8136ed1b75" x="43.5975" y="94.247023" style="stroke: #000000; stroke-width: 0.8"/>
      </g>
     </g>
     <g id="text_10">
      <text style="font-size: 10px; font-family: 'Helvetica', 'Arial', 'DejaVu Sans', 'Bitstream Vera Sans', 'Computer Modern Sans Serif', 'Lucida Grande', 'Verdana', 'Geneva', 'Lucid', 'Avant Garde', sans-serif; text-anchor: end" x="36.5975" y="97.833742" transform="rotate(-0 36.5975 97.833742)">1.2</text>
     </g>
    </g>
    <g id="text_11">
     <text style="font-size: 12px; font-family: 'Helvetica', 'Arial', 'DejaVu Sans', 'Bitstream Vera Sans', 'Computer Modern Sans Serif', 'Lucida Grande', 'Verdana', 'Geneva', 'Lucid', 'Avant Garde', sans-serif; text-anchor: middle" x="16.0425" y="269.7345" transform="rotate(-90 16.0425 269.7345)">VSV Intensity (log10)</text>
    </g>
   </g>
   <g id="line2d_10">
    <path d="M 68.961136 177.485426 
L 74.085103 179.785371 
L 79.20907 182.085315 
L 84.333037 184.38526 
L 89.457004 186.685204 
L 94.580971 188.985149 
L 99.704938 191.285093 
L 104.828905 193.585038 
L 109.952872 195.884982 
L 115.076839 198.184927 
L 120.200806 200.484871 
L 125.324773 202.784815 
L 130.44874 205.08476 
L 135.572707 207.384704 
L 140.696674 209.684649 
L 145.82064 211.984593 
L 150.944607 214.284538 
L 156.068574 216.584482 
L 161.192541 218.884427 
L 166.316508 221.184371 
L 171.440475 223.484316 
L 176.564442 225.78426 
L 181.688409 228.084205 
L 186.812376 230.384149 
L 191.936343 232.684094 
L 197.06031 234.984038 
L 202.184277 237.283983 
L 207.308244 239.583927 
L 212.432211 241.883872 
L 217.556178 244.183816 
L 222.680145 246.483761 
L 227.804112 248.783705 
L 232.928079 251.08365 
L 238.052045 253.383594 
L 243.176012 255.683539 
L 248.299979 257.983483 
L 253.423946 260.283428 
L 258.547913 262.583372 
L 263.67188 264.883316 
L 268.795847 267.183261 
L 273.919814 269.483205 
L 279.043781 271.78315 
L 284.167748 274.083094 
L 289.291715 276.383039 
L 294.415682 278.682983 
L 299.539649 280.982928 
L 304.663616 283.282872 
L 309.787583 285.582817 
L 314.91155 287.882761 
L 320.035517 290.182706 
L 325.159483 292.48265 
L 330.28345 294.782595 
L 335.407417 297.082539 
L 340.531384 299.382484 
L 345.655351 301.682428 
L 350.779318 303.982373 
L 355.903285 306.282317 
L 361.027252 308.582262 
L 366.151219 310.882206 
L 371.275186 313.182151 
L 376.399153 315.482095 
L 381.52312 317.78204 
L 386.647087 320.081984 
L 391.771054 322.381928 
L 396.895021 324.681873 
L 402.018988 326.981817 
L 407.142955 329.281762 
L 412.266921 331.581706 
L 417.390888 333.881651 
L 422.514855 336.181595 
L 427.638822 338.48154 
L 432.762789 340.781484 
L 437.886756 343.081429 
L 443.010723 345.381373 
L 448.13469 347.681318 
L 453.258657 349.981262 
L 458.382624 352.281207 
L 463.506591 354.581151 
L 468.630558 356.881096 
L 473.754525 359.18104 
L 478.878492 361.480985 
L 484.002459 363.780929 
L 489.126426 366.080874 
L 494.250393 368.380818 
L 499.37436 370.680763 
L 504.498326 372.980707 
L 509.622293 375.280652 
L 514.74626 377.580596 
L 519.870227 379.88054 
L 524.994194 382.180485 
L 530.118161 384.480429 
L 535.242128 386.780374 
L 540.366095 389.080318 
L 545.490062 391.380263 
L 550.614029 393.680207 
L 555.737996 395.980152 
L 560.861963 398.280096 
L 565.98593 400.580041 
L 571.109897 402.879985 
L 576.233864 405.17993 
" clip-path="url(#pa35d3679a9)" style="fill: none; stroke: #000000; stroke-width: 2; stroke-linecap: square"/>
   </g>
   <g id="patch_3">
    <path d="M 43.5975 491.4945 
L 43.5975 47.9745 
" style="fill: none; stroke: #000000; stroke-width: 0.8; stroke-linejoin: miter; stroke-linecap: square"/>
   </g>
   <g id="patch_4">
    <path d="M 43.5975 491.4945 
L 601.5975 491.4945 
" style="fill: none; stroke: #000000; stroke-width: 0.8; stroke-linejoin: miter; stroke-linecap: square"/>
   </g>
   <g id="text_12">
    <text style="font-size: 9px; font-family: 'Helvetica', 'Arial', 'DejaVu Sans', 'Bitstream Vera Sans', 'Computer Modern Sans Serif', 'Lucida Grande', 'Verdana', 'Geneva', 'Lucid', 'Avant Garde', sans-serif; text-anchor: start" x="581.233864" y="262.301347" transform="rotate(-0 581.233864 262.301347)">A</text>
   </g>
   <g id="text_13">
    <text style="font-size: 9px; font-family: 'Helvetica', 'Arial', 'DejaVu Sans', 'Bitstream Vera Sans', 'Computer Modern Sans Serif', 'Lucida Grande', 'Verdana', 'Geneva', 'Lucid', 'Avant Garde', sans-serif; text-anchor: start" x="498.808136" y="466.3345" transform="rotate(-0 498.808136 466.3345)">AL</text>
   </g>
   <g id="text_14">
    <text style="font-size: 9px; font-family: 'Helvetica', 'Arial', 'DejaVu Sans', 'Bitstream Vera Sans', 'Computer Modern Sans Serif', 'Lucida Grande', 'Verdana', 'Geneva', 'Lucid', 'Avant Garde', sans-serif; text-anchor: start" x="438.748911" y="361.095729" transform="rotate(-0 438.748911 361.095729)">AM</text>
   </g>
   <g id="text_15">
    <text style="font-size: 9px; font-family: 'Helvetica', 'Arial', 'DejaVu Sans', 'Bitstream Vera Sans', 'Computer Modern Sans Serif', 'Lucida Grande', 'Verdana', 'Geneva', 'Lucid', 'Avant Garde', sans-serif; text-anchor: start" x="138.053245" y="222.626785" transform="rotate(-0 138.053245 222.626785)">LM</text>
   </g>
   <g id="text_16">
    <text style="font-size: 9px; font-family: 'Helvetica', 'Arial', 'DejaVu Sans', 'Bitstream Vera Sans', 'Computer Modern Sans Serif', 'Lucida Grande', 'Verdana', 'Geneva', 'Lucid', 'Avant Garde', sans-serif; text-anchor: start" x="83.281096" y="140.196847" transform="rotate(-0 83.281096 140.196847)">LI</text>
   </g>
   <g id="text_17">
    <text style="font-size: 9px; font-family: 'Helvetica', 'Arial', 'DejaVu Sans', 'Bitstream Vera Sans', 'Computer Modern Sans Serif', 'Lucida Grande', 'Verdana', 'Geneva', 'Lucid', 'Avant Garde', sans-serif; text-anchor: start" x="219.559439" y="393.510001" transform="rotate(-0 219.559439 393.510001)">PM</text>
   </g>
   <g id="text_18">
    <text style="font-size: 9px; font-family: 'Helvetica', 'Arial', 'DejaVu Sans', 'Bitstream Vera Sans', 'Computer Modern Sans Serif', 'Lucida Grande', 'Verdana', 'Geneva', 'Lucid', 'Avant Garde', sans-serif; text-anchor: start" x="73.961136" y="63.1345" transform="rotate(-0 73.961136 63.1345)">POR</text>
   </g>
   <g id="text_19">
    <text style="font-size: 9px; font-family: 'Helvetica', 'Arial', 'DejaVu Sans', 'Bitstream Vera Sans', 'Computer Modern Sans Serif', 'Lucida Grande', 'Verdana', 'Geneva', 'Lucid', 'Avant Garde', sans-serif; text-anchor: start" x="385.1995" y="290.82129" transform="rotate(-0 385.1995 290.82129)">RL</text>
   </g>
   <g id="text_20">
    <text style="font-size: 12px; font-family: 'Helvetica', 'Arial', 'DejaVu Sans', 'Bitstream Vera Sans', 'Computer Modern Sans Serif', 'Lucida Grande', 'Verdana', 'Geneva', 'Lucid', 'Avant Garde', sans-serif" transform="translate(273.908438 15.83625)">adult - All Regions</text>
    <text style="font-size: 12px; font-family: 'Helvetica', 'Arial', 'DejaVu Sans', 'Bitstream Vera Sans', 'Computer Modern Sans Serif', 'Lucida Grande', 'Verdana', 'Geneva', 'Lucid', 'Avant Garde', sans-serif" transform="translate(248.9025 28.98975)">Imputed Data Analysis (log)</text>
    <text style="font-size: 12px; font-family: 'Helvetica', 'Arial', 'DejaVu Sans', 'Bitstream Vera Sans', 'Computer Modern Sans Serif', 'Lucida Grande', 'Verdana', 'Geneva', 'Lucid', 'Avant Garde', sans-serif" transform="translate(260.896875 41.9745)">r = -0.6687, r² = 0.4472</text>
   </g>
  </g>
 </g>
 <defs>
  <clipPath id="pa35d3679a9">
   <rect x="43.5975" y="47.9745" width="558" height="443.52"/>
  </clipPath>
 </defs>
</svg>
