<?xml version="1.0" encoding="utf-8" standalone="no"?>
<!DOCTYPE svg PUBLIC "-//W3C//DTD SVG 1.1//EN"
  "http://www.w3.org/Graphics/SVG/1.1/DTD/svg11.dtd">
<svg xmlns:xlink="http://www.w3.org/1999/xlink" width="608.7975pt" height="530.327937pt" viewBox="0 0 608.7975 530.327937" xmlns="http://www.w3.org/2000/svg" version="1.1">
 <metadata>
  <rdf:RDF xmlns:dc="http://purl.org/dc/elements/1.1/" xmlns:cc="http://creativecommons.org/ns#" xmlns:rdf="http://www.w3.org/1999/02/22-rdf-syntax-ns#">
   <cc:Work>
    <dc:type rdf:resource="http://purl.org/dc/dcmitype/StillImage"/>
    <dc:date>2026-02-24T12:29:47.344176</dc:date>
    <dc:format>image/svg+xml</dc:format>
    <dc:creator>
     <cc:Agent>
      <dc:title>Matplotlib v3.10.5, https://matplotlib.org/</dc:title>
     </cc:Agent>
    </dc:creator>
   </cc:Work>
  </rdf:RDF>
 </metadata>
 <defs>
  <style type="text/css">*{stroke-linejoin: round; stroke-linecap: butt}</style>
 </defs>
 <g id="figure_1">
  <g id="patch_1">
   <path d="M -0 530.327937 
L 608.7975 530.327937 
L 608.7975 0 
L -0 0 
z
" style="fill: #ffffff"/>
  </g>
  <g id="axes_1">
   <g id="patch_2">
    <path d="M 43.5975 491.466375 
L 601.5975 491.466375 
L 601.5975 47.946375 
L 43.5975 47.946375 
z
" style="fill: #ffffff"/>
   </g>
   <g id="PathCollection_1">
    <defs>
     <path id="C0_0_40ec3efe1f" d="M 0 5 
C 1.326016 5 2.597899 4.473168 3.535534 3.535534 
C 4.473168 2.597899 5 1.326016 5 -0 
C 5 -1.326016 4.473168 -2.597899 3.535534 -3.535534 
C 2.597899 -4.473168 1.326016 -5 0 -5 
C -1.326016 -5 -2.597899 -4.473168 -3.535534 -3.535534 
C -4.473168 -2.597899 -5 -1.326016 -5 0 
C -5 1.326016 -4.473168 2.597899 -3.535534 3.535534 
C -2.597899 4.473168 -1.326016 5 0 5 
z
"/>
    </defs>
    <g clip-path="url(#pb07c5c3ef7)">
     <use xlink:href="#C0_0_40ec3efe1f" x="576.233864" y="142.320662" style="fill: #00008b"/>
    </g>
    <g clip-path="url(#pb07c5c3ef7)">
     <use xlink:href="#C0_0_40ec3efe1f" x="194.613047" y="227.139578" style="fill: #00008b"/>
    </g>
    <g clip-path="url(#pb07c5c3ef7)">
     <use xlink:href="#C0_0_40ec3efe1f" x="364.831882" y="181.279319" style="fill: #00008b"/>
    </g>
    <g clip-path="url(#pb07c5c3ef7)">
     <use xlink:href="#C0_0_40ec3efe1f" x="126.200437" y="378.681644" style="fill: #00008b"/>
    </g>
    <g clip-path="url(#pb07c5c3ef7)">
     <use xlink:href="#C0_0_40ec3efe1f" x="68.961136" y="450.677721" style="fill: #00008b"/>
    </g>
    <g clip-path="url(#pb07c5c3ef7)">
     <use xlink:href="#C0_0_40ec3efe1f" x="206.506228" y="231.694063" style="fill: #00008b"/>
    </g>
    <g clip-path="url(#pb07c5c3ef7)">
     <use xlink:href="#C0_0_40ec3efe1f" x="101.165869" y="471.306375" style="fill: #00008b"/>
    </g>
    <g clip-path="url(#pb07c5c3ef7)">
     <use xlink:href="#C0_0_40ec3efe1f" x="323.598509" y="181.506285" style="fill: #00008b"/>
    </g>
   </g>
   <g id="matplotlib.axis_1">
    <g id="xtick_1">
     <g id="line2d_1">
      <defs>
       <path id="m1c96474d9b" d="M 0 0 
L 0 3.5 
" style="stroke: #000000; stroke-width: 0.8"/>
      </defs>
      <g>
       <use xlink:href="#m1c96474d9b" x="64.370089" y="491.466375" style="stroke: #000000; stroke-width: 0.8"/>
      </g>
     </g>
     <g id="text_1">
      <text style="font-size: 10px; font-family: 'Helvetica', 'Arial', 'DejaVu Sans', 'Bitstream Vera Sans', 'Computer Modern Sans Serif', 'Lucida Grande', 'Verdana', 'Geneva', 'Lucid', 'Avant Garde', sans-serif; text-anchor: middle" x="64.370089" y="505.639812" transform="rotate(-0 64.370089 505.639812)">0.875</text>
     </g>
    </g>
    <g id="xtick_2">
     <g id="line2d_2">
      <g>
       <use xlink:href="#m1c96474d9b" x="136.938238" y="491.466375" style="stroke: #000000; stroke-width: 0.8"/>
      </g>
     </g>
     <g id="text_2">
      <text style="font-size: 10px; font-family: 'Helvetica', 'Arial', 'DejaVu Sans', 'Bitstream Vera Sans', 'Computer Modern Sans Serif', 'Lucida Grande', 'Verdana', 'Geneva', 'Lucid', 'Avant Garde', sans-serif; text-anchor: middle" x="136.938238" y="505.639812" transform="rotate(-0 136.938238 505.639812)">0.900</text>
     </g>
    </g>
    <g id="xtick_3">
     <g id="line2d_3">
      <g>
       <use xlink:href="#m1c96474d9b" x="209.506387" y="491.466375" style="stroke: #000000; stroke-width: 0.8"/>
      </g>
     </g>
     <g id="text_3">
      <text style="font-size: 10px; font-family: 'Helvetica', 'Arial', 'DejaVu Sans', 'Bitstream Vera Sans', 'Computer Modern Sans Serif', 'Lucida Grande', 'Verdana', 'Geneva', 'Lucid', 'Avant Garde', sans-serif; text-anchor: middle" x="209.506387" y="505.639812" transform="rotate(-0 209.506387 505.639812)">0.925</text>
     </g>
    </g>
    <g id="xtick_4">
     <g id="line2d_4">
      <g>
       <use xlink:href="#m1c96474d9b" x="282.074536" y="491.466375" style="stroke: #000000; stroke-width: 0.8"/>
      </g>
     </g>
     <g id="text_4">
      <text style="font-size: 10px; font-family: 'Helvetica', 'Arial', 'DejaVu Sans', 'Bitstream Vera Sans', 'Computer Modern Sans Serif', 'Lucida Grande', 'Verdana', 'Geneva', 'Lucid', 'Avant Garde', sans-serif; text-anchor: middle" x="282.074536" y="505.639812" transform="rotate(-0 282.074536 505.639812)">0.950</text>
     </g>
    </g>
    <g id="xtick_5">
     <g id="line2d_5">
      <g>
       <use xlink:href="#m1c96474d9b" x="354.642685" y="491.466375" style="stroke: #000000; stroke-width: 0.8"/>
      </g>
     </g>
     <g id="text_5">
      <text style="font-size: 10px; font-family: 'Helvetica', 'Arial', 'DejaVu Sans', 'Bitstream Vera Sans', 'Computer Modern Sans Serif', 'Lucida Grande', 'Verdana', 'Geneva', 'Lucid', 'Avant Garde', sans-serif; text-anchor: middle" x="354.642685" y="505.639812" transform="rotate(-0 354.642685 505.639812)">0.975</text>
     </g>
    </g>
    <g id="xtick_6">
     <g id="line2d_6">
      <g>
       <use xlink:href="#m1c96474d9b" x="427.210834" y="491.466375" style="stroke: #000000; stroke-width: 0.8"/>
      </g>
     </g>
     <g id="text_6">
      <text style="font-size: 10px; font-family: 'Helvetica', 'Arial', 'DejaVu Sans', 'Bitstream Vera Sans', 'Computer Modern Sans Serif', 'Lucida Grande', 'Verdana', 'Geneva', 'Lucid', 'Avant Garde', sans-serif; text-anchor: middle" x="427.210834" y="505.639812" transform="rotate(-0 427.210834 505.639812)">1.000</text>
     </g>
    </g>
    <g id="xtick_7">
     <g id="line2d_7">
      <g>
       <use xlink:href="#m1c96474d9b" x="499.778983" y="491.466375" style="stroke: #000000; stroke-width: 0.8"/>
      </g>
     </g>
     <g id="text_7">
      <text style="font-size: 10px; font-family: 'Helvetica', 'Arial', 'DejaVu Sans', 'Bitstream Vera Sans', 'Computer Modern Sans Serif', 'Lucida Grande', 'Verdana', 'Geneva', 'Lucid', 'Avant Garde', sans-serif; text-anchor: middle" x="499.778983" y="505.639812" transform="rotate(-0 499.778983 505.639812)">1.025</text>
     </g>
    </g>
    <g id="xtick_8">
     <g id="line2d_8">
      <g>
       <use xlink:href="#m1c96474d9b" x="572.347132" y="491.466375" style="stroke: #000000; stroke-width: 0.8"/>
      </g>
     </g>
     <g id="text_8">
      <text style="font-size: 10px; font-family: 'Helvetica', 'Arial', 'DejaVu Sans', 'Bitstream Vera Sans', 'Computer Modern Sans Serif', 'Lucida Grande', 'Verdana', 'Geneva', 'Lucid', 'Avant Garde', sans-serif; text-anchor: middle" x="572.347132" y="505.639812" transform="rotate(-0 572.347132 505.639812)">1.050</text>
     </g>
    </g>
    <g id="text_9">
     <text style="font-size: 12px; font-family: 'Helvetica', 'Arial', 'DejaVu Sans', 'Bitstream Vera Sans', 'Computer Modern Sans Serif', 'Lucida Grande', 'Verdana', 'Geneva', 'Lucid', 'Avant Garde', sans-serif; text-anchor: middle" x="322.5975" y="520.472937" transform="rotate(-0 322.5975 520.472937)">H2B Intensity (log10)</text>
    </g>
   </g>
   <g id="matplotlib.axis_2">
    <g id="ytick_1">
     <g id="line2d_9">
      <defs>
       <path id="mfa176dc19d" d="M 0 0 
L -3.5 0 
" style="stroke: #000000; stroke-width: 0.8"/>
      </defs>
      <g>
       <use xlink:href="#mfa176dc19d" x="43.5975" y="402.749221" style="stroke: #000000; stroke-width: 0.8"/>
      </g>
     </g>
     <g id="text_10">
      <text style="font-size: 10px; font-family: 'Helvetica', 'Arial', 'DejaVu Sans', 'Bitstream Vera Sans', 'Computer Modern Sans Serif', 'Lucida Grande', 'Verdana', 'Geneva', 'Lucid', 'Avant Garde', sans-serif; text-anchor: end" x="36.5975" y="406.33594" transform="rotate(-0 36.5975 406.33594)">0.3</text>
     </g>
    </g>
    <g id="ytick_2">
     <g id="line2d_10">
      <g>
       <use xlink:href="#mfa176dc19d" x="43.5975" y="309.713421" style="stroke: #000000; stroke-width: 0.8"/>
      </g>
     </g>
     <g id="text_11">
      <text style="font-size: 10px; font-family: 'Helvetica', 'Arial', 'DejaVu Sans', 'Bitstream Vera Sans', 'Computer Modern Sans Serif', 'Lucida Grande', 'Verdana', 'Geneva', 'Lucid', 'Avant Garde', sans-serif; text-anchor: end" x="36.5975" y="313.30014" transform="rotate(-0 36.5975 313.30014)">0.4</text>
     </g>
    </g>
    <g id="ytick_3">
     <g id="line2d_11">
      <g>
       <use xlink:href="#mfa176dc19d" x="43.5975" y="216.677621" style="stroke: #000000; stroke-width: 0.8"/>
      </g>
     </g>
     <g id="text_12">
      <text style="font-size: 10px; font-family: 'Helvetica', 'Arial', 'DejaVu Sans', 'Bitstream Vera Sans', 'Computer Modern Sans Serif', 'Lucida Grande', 'Verdana', 'Geneva', 'Lucid', 'Avant Garde', sans-serif; text-anchor: end" x="36.5975" y="220.264339" transform="rotate(-0 36.5975 220.264339)">0.5</text>
     </g>
    </g>
    <g id="ytick_4">
     <g id="line2d_12">
      <g>
       <use xlink:href="#mfa176dc19d" x="43.5975" y="123.64182" style="stroke: #000000; stroke-width: 0.8"/>
      </g>
     </g>
     <g id="text_13">
      <text style="font-size: 10px; font-family: 'Helvetica', 'Arial', 'DejaVu Sans', 'Bitstream Vera Sans', 'Computer Modern Sans Serif', 'Lucida Grande', 'Verdana', 'Geneva', 'Lucid', 'Avant Garde', sans-serif; text-anchor: end" x="36.5975" y="127.228539" transform="rotate(-0 36.5975 127.228539)">0.6</text>
     </g>
    </g>
    <g id="text_14">
     <text style="font-size: 12px; font-family: 'Helvetica', 'Arial', 'DejaVu Sans', 'Bitstream Vera Sans', 'Computer Modern Sans Serif', 'Lucida Grande', 'Verdana', 'Geneva', 'Lucid', 'Avant Garde', sans-serif; text-anchor: middle" x="16.0425" y="269.706375" transform="rotate(-90 16.0425 269.706375)">VSV Intensity (log10)</text>
    </g>
   </g>
   <g id="line2d_13">
    <path d="M 68.961136 397.586634 
L 74.085103 394.258551 
L 79.20907 390.930467 
L 84.333037 387.602384 
L 89.457004 384.2743 
L 94.580971 380.946217 
L 99.704938 377.618133 
L 104.828905 374.29005 
L 109.952872 370.961967 
L 115.076839 367.633883 
L 120.200806 364.3058 
L 125.324773 360.977716 
L 130.44874 357.649633 
L 135.572707 354.321549 
L 140.696674 350.993466 
L 145.82064 347.665383 
L 150.944607 344.337299 
L 156.068574 341.009216 
L 161.192541 337.681132 
L 166.316508 334.353049 
L 171.440475 331.024966 
L 176.564442 327.696882 
L 181.688409 324.368799 
L 186.812376 321.040715 
L 191.936343 317.712632 
L 197.06031 314.384548 
L 202.184277 311.056465 
L 207.308244 307.728382 
L 212.432211 304.400298 
L 217.556178 301.072215 
L 222.680145 297.744131 
L 227.804112 294.416048 
L 232.928079 291.087964 
L 238.052045 287.759881 
L 243.176012 284.431798 
L 248.299979 281.103714 
L 253.423946 277.775631 
L 258.547913 274.447547 
L 263.67188 271.119464 
L 268.795847 267.79138 
L 273.919814 264.463297 
L 279.043781 261.135214 
L 284.167748 257.80713 
L 289.291715 254.479047 
L 294.415682 251.150963 
L 299.539649 247.82288 
L 304.663616 244.494796 
L 309.787583 241.166713 
L 314.91155 237.83863 
L 320.035517 234.510546 
L 325.159483 231.182463 
L 330.28345 227.854379 
L 335.407417 224.526296 
L 340.531384 221.198213 
L 345.655351 217.870129 
L 350.779318 214.542046 
L 355.903285 211.213962 
L 361.027252 207.885879 
L 366.151219 204.557795 
L 371.275186 201.229712 
L 376.399153 197.901629 
L 381.52312 194.573545 
L 386.647087 191.245462 
L 391.771054 187.917378 
L 396.895021 184.589295 
L 402.018988 181.261211 
L 407.142955 177.933128 
L 412.266921 174.605045 
L 417.390888 171.276961 
L 422.514855 167.948878 
L 427.638822 164.620794 
L 432.762789 161.292711 
L 437.886756 157.964627 
L 443.010723 154.636544 
L 448.13469 151.308461 
L 453.258657 147.980377 
L 458.382624 144.652294 
L 463.506591 141.32421 
L 468.630558 137.996127 
L 473.754525 134.668043 
L 478.878492 131.33996 
L 484.002459 128.011877 
L 489.126426 124.683793 
L 494.250393 121.35571 
L 499.37436 118.027626 
L 504.498326 114.699543 
L 509.622293 111.37146 
L 514.74626 108.043376 
L 519.870227 104.715293 
L 524.994194 101.387209 
L 530.118161 98.059126 
L 535.242128 94.731042 
L 540.366095 91.402959 
L 545.490062 88.074876 
L 550.614029 84.746792 
L 555.737996 81.418709 
L 560.861963 78.090625 
L 565.98593 74.762542 
L 571.109897 71.434458 
L 576.233864 68.106375 
" clip-path="url(#pb07c5c3ef7)" style="fill: none; stroke: #000000; stroke-width: 2; stroke-linecap: square"/>
   </g>
   <g id="patch_3">
    <path d="M 43.5975 491.466375 
L 43.5975 47.946375 
" style="fill: none; stroke: #000000; stroke-width: 0.8; stroke-linejoin: miter; stroke-linecap: square"/>
   </g>
   <g id="patch_4">
    <path d="M 43.5975 491.466375 
L 601.5975 491.466375 
" style="fill: none; stroke: #000000; stroke-width: 0.8; stroke-linejoin: miter; stroke-linecap: square"/>
   </g>
   <g id="text_15">
    <text style="font-size: 9px; font-family: 'Helvetica', 'Arial', 'DejaVu Sans', 'Bitstream Vera Sans', 'Computer Modern Sans Serif', 'Lucida Grande', 'Verdana', 'Geneva', 'Lucid', 'Avant Garde', sans-serif; text-anchor: start" x="581.233864" y="137.320662" transform="rotate(-0 581.233864 137.320662)">A</text>
   </g>
   <g id="text_16">
    <text style="font-size: 9px; font-family: 'Helvetica', 'Arial', 'DejaVu Sans', 'Bitstream Vera Sans', 'Computer Modern Sans Serif', 'Lucida Grande', 'Verdana', 'Geneva', 'Lucid', 'Avant Garde', sans-serif; text-anchor: start" x="199.613047" y="222.139578" transform="rotate(-0 199.613047 222.139578)">AL</text>
   </g>
   <g id="text_17">
    <text style="font-size: 9px; font-family: 'Helvetica', 'Arial', 'DejaVu Sans', 'Bitstream Vera Sans', 'Computer Modern Sans Serif', 'Lucida Grande', 'Verdana', 'Geneva', 'Lucid', 'Avant Garde', sans-serif; text-anchor: start" x="369.831882" y="176.279319" transform="rotate(-0 369.831882 176.279319)">AM</text>
   </g>
   <g id="text_18">
    <text style="font-size: 9px; font-family: 'Helvetica', 'Arial', 'DejaVu Sans', 'Bitstream Vera Sans', 'Computer Modern Sans Serif', 'Lucida Grande', 'Verdana', 'Geneva', 'Lucid', 'Avant Garde', sans-serif; text-anchor: start" x="131.200437" y="373.681644" transform="rotate(-0 131.200437 373.681644)">LM</text>
   </g>
   <g id="text_19">
    <text style="font-size: 9px; font-family: 'Helvetica', 'Arial', 'DejaVu Sans', 'Bitstream Vera Sans', 'Computer Modern Sans Serif', 'Lucida Grande', 'Verdana', 'Geneva', 'Lucid', 'Avant Garde', sans-serif; text-anchor: start" x="73.961136" y="445.677721" transform="rotate(-0 73.961136 445.677721)">LI</text>
   </g>
   <g id="text_20">
    <text style="font-size: 9px; font-family: 'Helvetica', 'Arial', 'DejaVu Sans', 'Bitstream Vera Sans', 'Computer Modern Sans Serif', 'Lucida Grande', 'Verdana', 'Geneva', 'Lucid', 'Avant Garde', sans-serif; text-anchor: start" x="211.506228" y="226.694063" transform="rotate(-0 211.506228 226.694063)">PM</text>
   </g>
   <g id="text_21">
    <text style="font-size: 9px; font-family: 'Helvetica', 'Arial', 'DejaVu Sans', 'Bitstream Vera Sans', 'Computer Modern Sans Serif', 'Lucida Grande', 'Verdana', 'Geneva', 'Lucid', 'Avant Garde', sans-serif; text-anchor: start" x="106.165869" y="466.306375" transform="rotate(-0 106.165869 466.306375)">POR</text>
   </g>
   <g id="text_22">
    <text style="font-size: 9px; font-family: 'Helvetica', 'Arial', 'DejaVu Sans', 'Bitstream Vera Sans', 'Computer Modern Sans Serif', 'Lucida Grande', 'Verdana', 'Geneva', 'Lucid', 'Avant Garde', sans-serif; text-anchor: start" x="328.598509" y="176.506285" transform="rotate(-0 328.598509 176.506285)">RL</text>
   </g>
   <g id="text_23">
    <text style="font-size: 12px; font-family: 'Helvetica', 'Arial', 'DejaVu Sans', 'Bitstream Vera Sans', 'Computer Modern Sans Serif', 'Lucida Grande', 'Verdana', 'Geneva', 'Lucid', 'Avant Garde', sans-serif" transform="translate(276.908438 15.808125)">p12 - All Regions</text>
    <text style="font-size: 12px; font-family: 'Helvetica', 'Arial', 'DejaVu Sans', 'Bitstream Vera Sans', 'Computer Modern Sans Serif', 'Lucida Grande', 'Verdana', 'Geneva', 'Lucid', 'Avant Garde', sans-serif" transform="translate(248.9025 28.961625)">Imputed Data Analysis (log)</text>
    <text style="font-size: 12px; font-family: 'Helvetica', 'Arial', 'DejaVu Sans', 'Bitstream Vera Sans', 'Computer Modern Sans Serif', 'Lucida Grande', 'Verdana', 'Geneva', 'Lucid', 'Avant Garde', sans-serif" transform="translate(262.894688 41.946375)">r = 0.8424, r² = 0.7097</text>
   </g>
  </g>
 </g>
 <defs>
  <clipPath id="pb07c5c3ef7">
   <rect x="43.5975" y="47.946375" width="558" height="443.52"/>
  </clipPath>
 </defs>
</svg>
