<?xml version="1.0" encoding="utf-8" standalone="no"?>
<!DOCTYPE svg PUBLIC "-//W3C//DTD SVG 1.1//EN"
  "http://www.w3.org/Graphics/SVG/1.1/DTD/svg11.dtd">
<svg xmlns:xlink="http://www.w3.org/1999/xlink" width="614.358438pt" height="530.192937pt" viewBox="0 0 614.358438 530.192937" xmlns="http://www.w3.org/2000/svg" version="1.1">
 <metadata>
  <rdf:RDF xmlns:dc="http://purl.org/dc/elements/1.1/" xmlns:cc="http://creativecommons.org/ns#" xmlns:rdf="http://www.w3.org/1999/02/22-rdf-syntax-ns#">
   <cc:Work>
    <dc:type rdf:resource="http://purl.org/dc/dcmitype/StillImage"/>
    <dc:date>2026-02-24T12:29:29.895101</dc:date>
    <dc:format>image/svg+xml</dc:format>
    <dc:creator>
     <cc:Agent>
      <dc:title>Matplotlib v3.10.5, https://matplotlib.org/</dc:title>
     </cc:Agent>
    </dc:creator>
   </cc:Work>
  </rdf:RDF>
 </metadata>
 <defs>
  <style type="text/css">*{stroke-linejoin: round; stroke-linecap: butt}</style>
 </defs>
 <g id="figure_1">
  <g id="patch_1">
   <path d="M 0 530.192937 
L 614.358438 530.192937 
L 614.358438 0 
L 0 0 
z
" style="fill: #ffffff"/>
  </g>
  <g id="axes_1">
   <g id="patch_2">
    <path d="M 49.158438 491.331375 
L 607.158437 491.331375 
L 607.158437 47.811375 
L 49.158438 47.811375 
z
" style="fill: #ffffff"/>
   </g>
   <g id="PathCollection_1">
    <defs>
     <path id="C0_0_631a5fb7ba" d="M 0 5 
C 1.326016 5 2.597899 4.473168 3.535534 3.535534 
C 4.473168 2.597899 5 1.326016 5 -0 
C 5 -1.326016 4.473168 -2.597899 3.535534 -3.535534 
C 2.597899 -4.473168 1.326016 -5 0 -5 
C -1.326016 -5 -2.597899 -4.473168 -3.535534 -3.535534 
C -4.473168 -2.597899 -5 -1.326016 -5 0 
C -5 1.326016 -4.473168 2.597899 -3.535534 3.535534 
C -2.597899 4.473168 -1.326016 5 0 5 
z
"/>
    </defs>
    <g clip-path="url(#p1313de8dd8)">
     <use xlink:href="#C0_0_631a5fb7ba" x="383.395114" y="67.971375" style="fill: #00008b"/>
    </g>
    <g clip-path="url(#p1313de8dd8)">
     <use xlink:href="#C0_0_631a5fb7ba" x="392.176297" y="310.76584" style="fill: #00008b"/>
    </g>
    <g clip-path="url(#p1313de8dd8)">
     <use xlink:href="#C0_0_631a5fb7ba" x="74.522074" y="249.302399" style="fill: #00008b"/>
    </g>
    <g clip-path="url(#p1313de8dd8)">
     <use xlink:href="#C0_0_631a5fb7ba" x="581.794801" y="157.716123" style="fill: #00008b"/>
    </g>
    <g clip-path="url(#p1313de8dd8)">
     <use xlink:href="#C0_0_631a5fb7ba" x="414.184128" y="296.905536" style="fill: #00008b"/>
    </g>
    <g clip-path="url(#p1313de8dd8)">
     <use xlink:href="#C0_0_631a5fb7ba" x="177.721648" y="232.870468" style="fill: #00008b"/>
    </g>
    <g clip-path="url(#p1313de8dd8)">
     <use xlink:href="#C0_0_631a5fb7ba" x="323.160779" y="471.171375" style="fill: #00008b"/>
    </g>
    <g clip-path="url(#p1313de8dd8)">
     <use xlink:href="#C0_0_631a5fb7ba" x="186.62303" y="165.939104" style="fill: #00008b"/>
    </g>
   </g>
   <g id="matplotlib.axis_1">
    <g id="xtick_1">
     <g id="line2d_1">
      <defs>
       <path id="m0072d1520f" d="M 0 0 
L 0 3.5 
" style="stroke: #000000; stroke-width: 0.8"/>
      </defs>
      <g>
       <use xlink:href="#m0072d1520f" x="104.349233" y="491.331375" style="stroke: #000000; stroke-width: 0.8"/>
      </g>
     </g>
     <g id="text_1">
      <text style="font-size: 10px; font-family: 'Helvetica', 'Arial', 'DejaVu Sans', 'Bitstream Vera Sans', 'Computer Modern Sans Serif', 'Lucida Grande', 'Verdana', 'Geneva', 'Lucid', 'Avant Garde', sans-serif; text-anchor: middle" x="104.349233" y="505.504812" transform="rotate(-0 104.349233 505.504812)">1.5</text>
     </g>
    </g>
    <g id="xtick_2">
     <g id="line2d_2">
      <g>
       <use xlink:href="#m0072d1520f" x="207.424995" y="491.331375" style="stroke: #000000; stroke-width: 0.8"/>
      </g>
     </g>
     <g id="text_2">
      <text style="font-size: 10px; font-family: 'Helvetica', 'Arial', 'DejaVu Sans', 'Bitstream Vera Sans', 'Computer Modern Sans Serif', 'Lucida Grande', 'Verdana', 'Geneva', 'Lucid', 'Avant Garde', sans-serif; text-anchor: middle" x="207.424995" y="505.504812" transform="rotate(-0 207.424995 505.504812)">1.6</text>
     </g>
    </g>
    <g id="xtick_3">
     <g id="line2d_3">
      <g>
       <use xlink:href="#m0072d1520f" x="310.500758" y="491.331375" style="stroke: #000000; stroke-width: 0.8"/>
      </g>
     </g>
     <g id="text_3">
      <text style="font-size: 10px; font-family: 'Helvetica', 'Arial', 'DejaVu Sans', 'Bitstream Vera Sans', 'Computer Modern Sans Serif', 'Lucida Grande', 'Verdana', 'Geneva', 'Lucid', 'Avant Garde', sans-serif; text-anchor: middle" x="310.500758" y="505.504812" transform="rotate(-0 310.500758 505.504812)">1.7</text>
     </g>
    </g>
    <g id="xtick_4">
     <g id="line2d_4">
      <g>
       <use xlink:href="#m0072d1520f" x="413.576521" y="491.331375" style="stroke: #000000; stroke-width: 0.8"/>
      </g>
     </g>
     <g id="text_4">
      <text style="font-size: 10px; font-family: 'Helvetica', 'Arial', 'DejaVu Sans', 'Bitstream Vera Sans', 'Computer Modern Sans Serif', 'Lucida Grande', 'Verdana', 'Geneva', 'Lucid', 'Avant Garde', sans-serif; text-anchor: middle" x="413.576521" y="505.504812" transform="rotate(-0 413.576521 505.504812)">1.8</text>
     </g>
    </g>
    <g id="xtick_5">
     <g id="line2d_5">
      <g>
       <use xlink:href="#m0072d1520f" x="516.652283" y="491.331375" style="stroke: #000000; stroke-width: 0.8"/>
      </g>
     </g>
     <g id="text_5">
      <text style="font-size: 10px; font-family: 'Helvetica', 'Arial', 'DejaVu Sans', 'Bitstream Vera Sans', 'Computer Modern Sans Serif', 'Lucida Grande', 'Verdana', 'Geneva', 'Lucid', 'Avant Garde', sans-serif; text-anchor: middle" x="516.652283" y="505.504812" transform="rotate(-0 516.652283 505.504812)">1.9</text>
     </g>
    </g>
    <g id="text_6">
     <text style="font-size: 12px; font-family: 'Helvetica', 'Arial', 'DejaVu Sans', 'Bitstream Vera Sans', 'Computer Modern Sans Serif', 'Lucida Grande', 'Verdana', 'Geneva', 'Lucid', 'Avant Garde', sans-serif; text-anchor: middle" x="328.158437" y="520.337937" transform="rotate(-0 328.158437 520.337937)">H2B Intensity (Averaged)</text>
    </g>
   </g>
   <g id="matplotlib.axis_2">
    <g id="ytick_1">
     <g id="line2d_6">
      <defs>
       <path id="mcce17c1b72" d="M 0 0 
L -3.5 0 
" style="stroke: #000000; stroke-width: 0.8"/>
      </defs>
      <g>
       <use xlink:href="#mcce17c1b72" x="49.158438" y="463.989502" style="stroke: #000000; stroke-width: 0.8"/>
      </g>
     </g>
     <g id="text_7">
      <text style="font-size: 10px; font-family: 'Helvetica', 'Arial', 'DejaVu Sans', 'Bitstream Vera Sans', 'Computer Modern Sans Serif', 'Lucida Grande', 'Verdana', 'Geneva', 'Lucid', 'Avant Garde', sans-serif; text-anchor: end" x="42.158438" y="467.576221" transform="rotate(-0 42.158438 467.576221)">0.16</text>
     </g>
    </g>
    <g id="ytick_2">
     <g id="line2d_7">
      <g>
       <use xlink:href="#mcce17c1b72" x="49.158438" y="389.578707" style="stroke: #000000; stroke-width: 0.8"/>
      </g>
     </g>
     <g id="text_8">
      <text style="font-size: 10px; font-family: 'Helvetica', 'Arial', 'DejaVu Sans', 'Bitstream Vera Sans', 'Computer Modern Sans Serif', 'Lucida Grande', 'Verdana', 'Geneva', 'Lucid', 'Avant Garde', sans-serif; text-anchor: end" x="42.158438" y="393.165426" transform="rotate(-0 42.158438 393.165426)">0.18</text>
     </g>
    </g>
    <g id="ytick_3">
     <g id="line2d_8">
      <g>
       <use xlink:href="#mcce17c1b72" x="49.158438" y="315.167912" style="stroke: #000000; stroke-width: 0.8"/>
      </g>
     </g>
     <g id="text_9">
      <text style="font-size: 10px; font-family: 'Helvetica', 'Arial', 'DejaVu Sans', 'Bitstream Vera Sans', 'Computer Modern Sans Serif', 'Lucida Grande', 'Verdana', 'Geneva', 'Lucid', 'Avant Garde', sans-serif; text-anchor: end" x="42.158438" y="318.754631" transform="rotate(-0 42.158438 318.754631)">0.20</text>
     </g>
    </g>
    <g id="ytick_4">
     <g id="line2d_9">
      <g>
       <use xlink:href="#mcce17c1b72" x="49.158438" y="240.757117" style="stroke: #000000; stroke-width: 0.8"/>
      </g>
     </g>
     <g id="text_10">
      <text style="font-size: 10px; font-family: 'Helvetica', 'Arial', 'DejaVu Sans', 'Bitstream Vera Sans', 'Computer Modern Sans Serif', 'Lucida Grande', 'Verdana', 'Geneva', 'Lucid', 'Avant Garde', sans-serif; text-anchor: end" x="42.158438" y="244.343836" transform="rotate(-0 42.158438 244.343836)">0.22</text>
     </g>
    </g>
    <g id="ytick_5">
     <g id="line2d_10">
      <g>
       <use xlink:href="#mcce17c1b72" x="49.158438" y="166.346323" style="stroke: #000000; stroke-width: 0.8"/>
      </g>
     </g>
     <g id="text_11">
      <text style="font-size: 10px; font-family: 'Helvetica', 'Arial', 'DejaVu Sans', 'Bitstream Vera Sans', 'Computer Modern Sans Serif', 'Lucida Grande', 'Verdana', 'Geneva', 'Lucid', 'Avant Garde', sans-serif; text-anchor: end" x="42.158438" y="169.933041" transform="rotate(-0 42.158438 169.933041)">0.24</text>
     </g>
    </g>
    <g id="ytick_6">
     <g id="line2d_11">
      <g>
       <use xlink:href="#mcce17c1b72" x="49.158438" y="91.935528" style="stroke: #000000; stroke-width: 0.8"/>
      </g>
     </g>
     <g id="text_12">
      <text style="font-size: 10px; font-family: 'Helvetica', 'Arial', 'DejaVu Sans', 'Bitstream Vera Sans', 'Computer Modern Sans Serif', 'Lucida Grande', 'Verdana', 'Geneva', 'Lucid', 'Avant Garde', sans-serif; text-anchor: end" x="42.158438" y="95.522246" transform="rotate(-0 42.158438 95.522246)">0.26</text>
     </g>
    </g>
    <g id="text_13">
     <text style="font-size: 12px; font-family: 'Helvetica', 'Arial', 'DejaVu Sans', 'Bitstream Vera Sans', 'Computer Modern Sans Serif', 'Lucida Grande', 'Verdana', 'Geneva', 'Lucid', 'Avant Garde', sans-serif; text-anchor: middle" x="16.0425" y="269.571375" transform="rotate(-90 16.0425 269.571375)">VSV Intensity (Averaged)</text>
    </g>
   </g>
   <g id="line2d_12">
    <path d="M 74.522074 260.499561 
L 79.646041 260.15216 
L 84.770008 259.804759 
L 89.893975 259.457358 
L 95.017942 259.109958 
L 100.141909 258.762557 
L 105.265876 258.415156 
L 110.389842 258.067755 
L 115.513809 257.720354 
L 120.637776 257.372953 
L 125.761743 257.025552 
L 130.88571 256.678151 
L 136.009677 256.33075 
L 141.133644 255.98335 
L 146.257611 255.635949 
L 151.381578 255.288548 
L 156.505545 254.941147 
L 161.629512 254.593746 
L 166.753479 254.246345 
L 171.877446 253.898944 
L 177.001413 253.551543 
L 182.12538 253.204142 
L 187.249347 252.856741 
L 192.373314 252.509341 
L 197.49728 252.16194 
L 202.621247 251.814539 
L 207.745214 251.467138 
L 212.869181 251.119737 
L 217.993148 250.772336 
L 223.117115 250.424935 
L 228.241082 250.077534 
L 233.365049 249.730133 
L 238.489016 249.382733 
L 243.612983 249.035332 
L 248.73695 248.687931 
L 253.860917 248.34053 
L 258.984884 247.993129 
L 264.108851 247.645728 
L 269.232818 247.298327 
L 274.356785 246.950926 
L 279.480752 246.603525 
L 284.604718 246.256124 
L 289.728685 245.908724 
L 294.852652 245.561323 
L 299.976619 245.213922 
L 305.100586 244.866521 
L 310.224553 244.51912 
L 315.34852 244.171719 
L 320.472487 243.824318 
L 325.596454 243.476917 
L 330.720421 243.129516 
L 335.844388 242.782116 
L 340.968355 242.434715 
L 346.092322 242.087314 
L 351.216289 241.739913 
L 356.340256 241.392512 
L 361.464223 241.045111 
L 366.58819 240.69771 
L 371.712157 240.350309 
L 376.836123 240.002908 
L 381.96009 239.655508 
L 387.084057 239.308107 
L 392.208024 238.960706 
L 397.331991 238.613305 
L 402.455958 238.265904 
L 407.579925 237.918503 
L 412.703892 237.571102 
L 417.827859 237.223701 
L 422.951826 236.8763 
L 428.075793 236.528899 
L 433.19976 236.181499 
L 438.323727 235.834098 
L 443.447694 235.486697 
L 448.571661 235.139296 
L 453.695628 234.791895 
L 458.819595 234.444494 
L 463.943561 234.097093 
L 469.067528 233.749692 
L 474.191495 233.402291 
L 479.315462 233.054891 
L 484.439429 232.70749 
L 489.563396 232.360089 
L 494.687363 232.012688 
L 499.81133 231.665287 
L 504.935297 231.317886 
L 510.059264 230.970485 
L 515.183231 230.623084 
L 520.307198 230.275683 
L 525.431165 229.928282 
L 530.555132 229.580882 
L 535.679099 229.233481 
L 540.803066 228.88608 
L 545.927033 228.538679 
L 551.050999 228.191278 
L 556.174966 227.843877 
L 561.298933 227.496476 
L 566.4229 227.149075 
L 571.546867 226.801674 
L 576.670834 226.454274 
L 581.794801 226.106873 
" clip-path="url(#p1313de8dd8)" style="fill: none; stroke: #000000; stroke-width: 2; stroke-linecap: square"/>
   </g>
   <g id="patch_3">
    <path d="M 49.158438 491.331375 
L 49.158438 47.811375 
" style="fill: none; stroke: #000000; stroke-width: 0.8; stroke-linejoin: miter; stroke-linecap: square"/>
   </g>
   <g id="patch_4">
    <path d="M 49.158437 491.331375 
L 607.158437 491.331375 
" style="fill: none; stroke: #000000; stroke-width: 0.8; stroke-linejoin: miter; stroke-linecap: square"/>
   </g>
   <g id="text_14">
    <text style="font-size: 9px; font-family: 'Helvetica', 'Arial', 'DejaVu Sans', 'Bitstream Vera Sans', 'Computer Modern Sans Serif', 'Lucida Grande', 'Verdana', 'Geneva', 'Lucid', 'Avant Garde', sans-serif; text-anchor: start" x="388.395114" y="62.971375" transform="rotate(-0 388.395114 62.971375)">A</text>
   </g>
   <g id="text_15">
    <text style="font-size: 9px; font-family: 'Helvetica', 'Arial', 'DejaVu Sans', 'Bitstream Vera Sans', 'Computer Modern Sans Serif', 'Lucida Grande', 'Verdana', 'Geneva', 'Lucid', 'Avant Garde', sans-serif; text-anchor: start" x="397.176297" y="305.76584" transform="rotate(-0 397.176297 305.76584)">AL</text>
   </g>
   <g id="text_16">
    <text style="font-size: 9px; font-family: 'Helvetica', 'Arial', 'DejaVu Sans', 'Bitstream Vera Sans', 'Computer Modern Sans Serif', 'Lucida Grande', 'Verdana', 'Geneva', 'Lucid', 'Avant Garde', sans-serif; text-anchor: start" x="79.522074" y="244.302399" transform="rotate(-0 79.522074 244.302399)">AM</text>
   </g>
   <g id="text_17">
    <text style="font-size: 9px; font-family: 'Helvetica', 'Arial', 'DejaVu Sans', 'Bitstream Vera Sans', 'Computer Modern Sans Serif', 'Lucida Grande', 'Verdana', 'Geneva', 'Lucid', 'Avant Garde', sans-serif; text-anchor: start" x="586.794801" y="152.716123" transform="rotate(-0 586.794801 152.716123)">LM</text>
   </g>
   <g id="text_18">
    <text style="font-size: 9px; font-family: 'Helvetica', 'Arial', 'DejaVu Sans', 'Bitstream Vera Sans', 'Computer Modern Sans Serif', 'Lucida Grande', 'Verdana', 'Geneva', 'Lucid', 'Avant Garde', sans-serif; text-anchor: start" x="419.184128" y="291.905536" transform="rotate(-0 419.184128 291.905536)">LI</text>
   </g>
   <g id="text_19">
    <text style="font-size: 9px; font-family: 'Helvetica', 'Arial', 'DejaVu Sans', 'Bitstream Vera Sans', 'Computer Modern Sans Serif', 'Lucida Grande', 'Verdana', 'Geneva', 'Lucid', 'Avant Garde', sans-serif; text-anchor: start" x="182.721648" y="227.870468" transform="rotate(-0 182.721648 227.870468)">PM</text>
   </g>
   <g id="text_20">
    <text style="font-size: 9px; font-family: 'Helvetica', 'Arial', 'DejaVu Sans', 'Bitstream Vera Sans', 'Computer Modern Sans Serif', 'Lucida Grande', 'Verdana', 'Geneva', 'Lucid', 'Avant Garde', sans-serif; text-anchor: start" x="328.160779" y="466.171375" transform="rotate(-0 328.160779 466.171375)">POR</text>
   </g>
   <g id="text_21">
    <text style="font-size: 9px; font-family: 'Helvetica', 'Arial', 'DejaVu Sans', 'Bitstream Vera Sans', 'Computer Modern Sans Serif', 'Lucida Grande', 'Verdana', 'Geneva', 'Lucid', 'Avant Garde', sans-serif; text-anchor: start" x="191.62303" y="160.939104" transform="rotate(-0 191.62303 160.939104)">RL</text>
   </g>
   <g id="text_22">
    <text style="font-size: 12px; font-family: 'Helvetica', 'Arial', 'DejaVu Sans', 'Bitstream Vera Sans', 'Computer Modern Sans Serif', 'Lucida Grande', 'Verdana', 'Geneva', 'Lucid', 'Avant Garde', sans-serif" transform="translate(285.805937 15.808125)">p3 - All Regions</text>
    <text style="font-size: 12px; font-family: 'Helvetica', 'Arial', 'DejaVu Sans', 'Bitstream Vera Sans', 'Computer Modern Sans Serif', 'Lucida Grande', 'Verdana', 'Geneva', 'Lucid', 'Avant Garde', sans-serif" transform="translate(248.787812 28.826625)">Averaged Replicates Analysis</text>
    <text style="font-size: 12px; font-family: 'Helvetica', 'Arial', 'DejaVu Sans', 'Bitstream Vera Sans', 'Computer Modern Sans Serif', 'Lucida Grande', 'Verdana', 'Geneva', 'Lucid', 'Avant Garde', sans-serif" transform="translate(268.455625 41.811375)">r = 0.0906, r² = 0.0082</text>
   </g>
  </g>
 </g>
 <defs>
  <clipPath id="p1313de8dd8">
   <rect x="49.158438" y="47.811375" width="558" height="443.52"/>
  </clipPath>
 </defs>
</svg>
