<?xml version="1.0" encoding="utf-8" standalone="no"?>
<!DOCTYPE svg PUBLIC "-//W3C//DTD SVG 1.1//EN"
  "http://www.w3.org/Graphics/SVG/1.1/DTD/svg11.dtd">
<svg xmlns:xlink="http://www.w3.org/1999/xlink" width="606.216563pt" height="530.245437pt" viewBox="0 0 606.216563 530.245437" xmlns="http://www.w3.org/2000/svg" version="1.1">
 <metadata>
  <rdf:RDF xmlns:dc="http://purl.org/dc/elements/1.1/" xmlns:cc="http://creativecommons.org/ns#" xmlns:rdf="http://www.w3.org/1999/02/22-rdf-syntax-ns#">
   <cc:Work>
    <dc:type rdf:resource="http://purl.org/dc/dcmitype/StillImage"/>
    <dc:date>2026-02-24T12:29:07.133388</dc:date>
    <dc:format>image/svg+xml</dc:format>
    <dc:creator>
     <cc:Agent>
      <dc:title>Matplotlib v3.10.5, https://matplotlib.org/</dc:title>
     </cc:Agent>
    </dc:creator>
   </cc:Work>
  </rdf:RDF>
 </metadata>
 <defs>
  <style type="text/css">*{stroke-linejoin: round; stroke-linecap: butt}</style>
 </defs>
 <g id="figure_1">
  <g id="patch_1">
   <path d="M 0 530.245437 
L 606.216563 530.245437 
L 606.216563 0 
L 0 0 
z
" style="fill: #ffffff"/>
  </g>
  <g id="axes_1">
   <g id="patch_2">
    <path d="M 41.016562 491.466375 
L 599.016562 491.466375 
L 599.016562 47.946375 
L 41.016562 47.946375 
z
" style="fill: #ffffff"/>
   </g>
   <g id="PathCollection_1">
    <defs>
     <path id="C0_0_c1c5ccbf1d" d="M 0 5 
C 1.326016 5 2.597899 4.473168 3.535534 3.535534 
C 4.473168 2.597899 5 1.326016 5 -0 
C 5 -1.326016 4.473168 -2.597899 3.535534 -3.535534 
C 2.597899 -4.473168 1.326016 -5 0 -5 
C -1.326016 -5 -2.597899 -4.473168 -3.535534 -3.535534 
C -4.473168 -2.597899 -5 -1.326016 -5 0 
C -5 1.326016 -4.473168 2.597899 -3.535534 3.535534 
C -2.597899 4.473168 -1.326016 5 0 5 
z
"/>
    </defs>
    <g clip-path="url(#p685396ba93)">
     <use xlink:href="#C0_0_c1c5ccbf1d" x="66.380199" y="276.006375" style="fill: #00008b"/>
    </g>
    <g clip-path="url(#p685396ba93)">
     <use xlink:href="#C0_0_c1c5ccbf1d" x="66.380199" y="181.506375" style="fill: #00008b"/>
    </g>
    <g clip-path="url(#p685396ba93)">
     <use xlink:href="#C0_0_c1c5ccbf1d" x="66.380199" y="339.006375" style="fill: #00008b"/>
    </g>
    <g clip-path="url(#p685396ba93)">
     <use xlink:href="#C0_0_c1c5ccbf1d" x="66.380199" y="68.106375" style="fill: #00008b"/>
    </g>
    <g clip-path="url(#p685396ba93)">
     <use xlink:href="#C0_0_c1c5ccbf1d" x="66.380199" y="269.706375" style="fill: #00008b"/>
    </g>
    <g clip-path="url(#p685396ba93)">
     <use xlink:href="#C0_0_c1c5ccbf1d" x="66.380199" y="471.306375" style="fill: #00008b"/>
    </g>
    <g clip-path="url(#p685396ba93)">
     <use xlink:href="#C0_0_c1c5ccbf1d" x="573.652926" y="320.106375" style="fill: #00008b"/>
    </g>
    <g clip-path="url(#p685396ba93)">
     <use xlink:href="#C0_0_c1c5ccbf1d" x="66.380199" y="320.106375" style="fill: #00008b"/>
    </g>
   </g>
   <g id="matplotlib.axis_1">
    <g id="xtick_1">
     <g id="line2d_1">
      <defs>
       <path id="maca1da15e1" d="M 0 0 
L 0 3.5 
" style="stroke: #000000; stroke-width: 0.8"/>
      </defs>
      <g>
       <use xlink:href="#maca1da15e1" x="66.380199" y="491.466375" style="stroke: #000000; stroke-width: 0.8"/>
      </g>
     </g>
     <g id="text_1">
      <text style="font-size: 10px; font-family: 'Helvetica', 'Arial', 'DejaVu Sans', 'Bitstream Vera Sans', 'Computer Modern Sans Serif', 'Lucida Grande', 'Verdana', 'Geneva', 'Lucid', 'Avant Garde', sans-serif; text-anchor: middle" x="66.380199" y="505.639812" transform="rotate(-0 66.380199 505.639812)">0.0</text>
     </g>
    </g>
    <g id="xtick_2">
     <g id="line2d_2">
      <g>
       <use xlink:href="#maca1da15e1" x="187.42625" y="491.466375" style="stroke: #000000; stroke-width: 0.8"/>
      </g>
     </g>
     <g id="text_2">
      <text style="font-size: 10px; font-family: 'Helvetica', 'Arial', 'DejaVu Sans', 'Bitstream Vera Sans', 'Computer Modern Sans Serif', 'Lucida Grande', 'Verdana', 'Geneva', 'Lucid', 'Avant Garde', sans-serif; text-anchor: middle" x="187.42625" y="505.639812" transform="rotate(-0 187.42625 505.639812)">0.1</text>
     </g>
    </g>
    <g id="xtick_3">
     <g id="line2d_3">
      <g>
       <use xlink:href="#maca1da15e1" x="308.4723" y="491.466375" style="stroke: #000000; stroke-width: 0.8"/>
      </g>
     </g>
     <g id="text_3">
      <text style="font-size: 10px; font-family: 'Helvetica', 'Arial', 'DejaVu Sans', 'Bitstream Vera Sans', 'Computer Modern Sans Serif', 'Lucida Grande', 'Verdana', 'Geneva', 'Lucid', 'Avant Garde', sans-serif; text-anchor: middle" x="308.4723" y="505.639812" transform="rotate(-0 308.4723 505.639812)">0.2</text>
     </g>
    </g>
    <g id="xtick_4">
     <g id="line2d_4">
      <g>
       <use xlink:href="#maca1da15e1" x="429.518351" y="491.466375" style="stroke: #000000; stroke-width: 0.8"/>
      </g>
     </g>
     <g id="text_4">
      <text style="font-size: 10px; font-family: 'Helvetica', 'Arial', 'DejaVu Sans', 'Bitstream Vera Sans', 'Computer Modern Sans Serif', 'Lucida Grande', 'Verdana', 'Geneva', 'Lucid', 'Avant Garde', sans-serif; text-anchor: middle" x="429.518351" y="505.639812" transform="rotate(-0 429.518351 505.639812)">0.3</text>
     </g>
    </g>
    <g id="xtick_5">
     <g id="line2d_5">
      <g>
       <use xlink:href="#maca1da15e1" x="550.564402" y="491.466375" style="stroke: #000000; stroke-width: 0.8"/>
      </g>
     </g>
     <g id="text_5">
      <text style="font-size: 10px; font-family: 'Helvetica', 'Arial', 'DejaVu Sans', 'Bitstream Vera Sans', 'Computer Modern Sans Serif', 'Lucida Grande', 'Verdana', 'Geneva', 'Lucid', 'Avant Garde', sans-serif; text-anchor: middle" x="550.564402" y="505.639812" transform="rotate(-0 550.564402 505.639812)">0.4</text>
     </g>
    </g>
    <g id="text_6">
     <text style="font-size: 12px; font-family: 'Helvetica', 'Arial', 'DejaVu Sans', 'Bitstream Vera Sans', 'Computer Modern Sans Serif', 'Lucida Grande', 'Verdana', 'Geneva', 'Lucid', 'Avant Garde', sans-serif; text-anchor: middle" x="320.016563" y="520.472937" transform="rotate(-0 320.016563 520.472937)">H2B Intensity (Z-score)</text>
    </g>
   </g>
   <g id="matplotlib.axis_2">
    <g id="ytick_1">
     <g id="line2d_6">
      <defs>
       <path id="m1131fb41bf" d="M 0 0 
L -3.5 0 
" style="stroke: #000000; stroke-width: 0.8"/>
      </defs>
      <g>
       <use xlink:href="#m1131fb41bf" x="41.016562" y="451.291512" style="stroke: #000000; stroke-width: 0.8"/>
      </g>
     </g>
     <g id="text_7">
      <text style="font-size: 10px; font-family: 'Helvetica', 'Arial', 'DejaVu Sans', 'Bitstream Vera Sans', 'Computer Modern Sans Serif', 'Lucida Grande', 'Verdana', 'Geneva', 'Lucid', 'Avant Garde', sans-serif; text-anchor: end" x="34.016562" y="454.878231" transform="rotate(-0 34.016562 454.878231)">−4</text>
     </g>
    </g>
    <g id="ytick_2">
     <g id="line2d_7">
      <g>
       <use xlink:href="#m1131fb41bf" x="41.016562" y="360.498943" style="stroke: #000000; stroke-width: 0.8"/>
      </g>
     </g>
     <g id="text_8">
      <text style="font-size: 10px; font-family: 'Helvetica', 'Arial', 'DejaVu Sans', 'Bitstream Vera Sans', 'Computer Modern Sans Serif', 'Lucida Grande', 'Verdana', 'Geneva', 'Lucid', 'Avant Garde', sans-serif; text-anchor: end" x="34.016562" y="364.085662" transform="rotate(-0 34.016562 364.085662)">−2</text>
     </g>
    </g>
    <g id="ytick_3">
     <g id="line2d_8">
      <g>
       <use xlink:href="#m1131fb41bf" x="41.016562" y="269.706375" style="stroke: #000000; stroke-width: 0.8"/>
      </g>
     </g>
     <g id="text_9">
      <text style="font-size: 10px; font-family: 'Helvetica', 'Arial', 'DejaVu Sans', 'Bitstream Vera Sans', 'Computer Modern Sans Serif', 'Lucida Grande', 'Verdana', 'Geneva', 'Lucid', 'Avant Garde', sans-serif; text-anchor: end" x="34.016562" y="273.293094" transform="rotate(-0 34.016562 273.293094)">0</text>
     </g>
    </g>
    <g id="ytick_4">
     <g id="line2d_9">
      <g>
       <use xlink:href="#m1131fb41bf" x="41.016562" y="178.913807" style="stroke: #000000; stroke-width: 0.8"/>
      </g>
     </g>
     <g id="text_10">
      <text style="font-size: 10px; font-family: 'Helvetica', 'Arial', 'DejaVu Sans', 'Bitstream Vera Sans', 'Computer Modern Sans Serif', 'Lucida Grande', 'Verdana', 'Geneva', 'Lucid', 'Avant Garde', sans-serif; text-anchor: end" x="34.016562" y="182.500525" transform="rotate(-0 34.016562 182.500525)">2</text>
     </g>
    </g>
    <g id="ytick_5">
     <g id="line2d_10">
      <g>
       <use xlink:href="#m1131fb41bf" x="41.016562" y="88.121238" style="stroke: #000000; stroke-width: 0.8"/>
      </g>
     </g>
     <g id="text_11">
      <text style="font-size: 10px; font-family: 'Helvetica', 'Arial', 'DejaVu Sans', 'Bitstream Vera Sans', 'Computer Modern Sans Serif', 'Lucida Grande', 'Verdana', 'Geneva', 'Lucid', 'Avant Garde', sans-serif; text-anchor: end" x="34.016562" y="91.707957" transform="rotate(-0 34.016562 91.707957)">4</text>
     </g>
    </g>
    <g id="text_12">
     <text style="font-size: 12px; font-family: 'Helvetica', 'Arial', 'DejaVu Sans', 'Bitstream Vera Sans', 'Computer Modern Sans Serif', 'Lucida Grande', 'Verdana', 'Geneva', 'Lucid', 'Avant Garde', sans-serif; text-anchor: middle" x="16.0425" y="269.706375" transform="rotate(-90 16.0425 269.706375)">VSV Intensity (Z-score)</text>
    </g>
    <g id="text_13">
     <text style="font-size: 10px; font-family: 'Helvetica', 'Arial', 'DejaVu Sans', 'Bitstream Vera Sans', 'Computer Modern Sans Serif', 'Lucida Grande', 'Verdana', 'Geneva', 'Lucid', 'Avant Garde', sans-serif; text-anchor: start" x="41.016562" y="44.946375" transform="rotate(-0 41.016562 44.946375)">1e−16</text>
    </g>
   </g>
   <g id="line2d_11">
    <path d="M 66.380199 275.106375 
L 71.504166 275.56092 
L 76.628133 276.015466 
L 81.7521 276.470011 
L 86.876067 276.924557 
L 92.000034 277.379102 
L 97.124001 277.833648 
L 102.247967 278.288193 
L 107.371934 278.742739 
L 112.495901 279.197284 
L 117.619868 279.65183 
L 122.743835 280.106375 
L 127.867802 280.56092 
L 132.991769 281.015466 
L 138.115736 281.470011 
L 143.239703 281.924557 
L 148.36367 282.379102 
L 153.487637 282.833648 
L 158.611604 283.288193 
L 163.735571 283.742739 
L 168.859538 284.197284 
L 173.983505 284.65183 
L 179.107472 285.106375 
L 184.231439 285.56092 
L 189.355405 286.015466 
L 194.479372 286.470011 
L 199.603339 286.924557 
L 204.727306 287.379102 
L 209.851273 287.833648 
L 214.97524 288.288193 
L 220.099207 288.742739 
L 225.223174 289.197284 
L 230.347141 289.65183 
L 235.471108 290.106375 
L 240.595075 290.56092 
L 245.719042 291.015466 
L 250.843009 291.470011 
L 255.966976 291.924557 
L 261.090943 292.379102 
L 266.21491 292.833648 
L 271.338877 293.288193 
L 276.462843 293.742739 
L 281.58681 294.197284 
L 286.710777 294.65183 
L 291.834744 295.106375 
L 296.958711 295.56092 
L 302.082678 296.015466 
L 307.206645 296.470011 
L 312.330612 296.924557 
L 317.454579 297.379102 
L 322.578546 297.833648 
L 327.702513 298.288193 
L 332.82648 298.742739 
L 337.950447 299.197284 
L 343.074414 299.65183 
L 348.198381 300.106375 
L 353.322348 300.56092 
L 358.446315 301.015466 
L 363.570282 301.470011 
L 368.694248 301.924557 
L 373.818215 302.379102 
L 378.942182 302.833648 
L 384.066149 303.288193 
L 389.190116 303.742739 
L 394.314083 304.197284 
L 399.43805 304.65183 
L 404.562017 305.106375 
L 409.685984 305.56092 
L 414.809951 306.015466 
L 419.933918 306.470011 
L 425.057885 306.924557 
L 430.181852 307.379102 
L 435.305819 307.833648 
L 440.429786 308.288193 
L 445.553753 308.742739 
L 450.67772 309.197284 
L 455.801686 309.65183 
L 460.925653 310.106375 
L 466.04962 310.56092 
L 471.173587 311.015466 
L 476.297554 311.470011 
L 481.421521 311.924557 
L 486.545488 312.379102 
L 491.669455 312.833648 
L 496.793422 313.288193 
L 501.917389 313.742739 
L 507.041356 314.197284 
L 512.165323 314.65183 
L 517.28929 315.106375 
L 522.413257 315.56092 
L 527.537224 316.015466 
L 532.661191 316.470011 
L 537.785158 316.924557 
L 542.909124 317.379102 
L 548.033091 317.833648 
L 553.157058 318.288193 
L 558.281025 318.742739 
L 563.404992 319.197284 
L 568.528959 319.65183 
L 573.652926 320.106375 
" clip-path="url(#p685396ba93)" style="fill: none; stroke: #000000; stroke-width: 2; stroke-linecap: square"/>
   </g>
   <g id="patch_3">
    <path d="M 41.016562 491.466375 
L 41.016562 47.946375 
" style="fill: none; stroke: #000000; stroke-width: 0.8; stroke-linejoin: miter; stroke-linecap: square"/>
   </g>
   <g id="patch_4">
    <path d="M 41.016562 491.466375 
L 599.016563 491.466375 
" style="fill: none; stroke: #000000; stroke-width: 0.8; stroke-linejoin: miter; stroke-linecap: square"/>
   </g>
   <g id="text_14">
    <text style="font-size: 9px; font-family: 'Helvetica', 'Arial', 'DejaVu Sans', 'Bitstream Vera Sans', 'Computer Modern Sans Serif', 'Lucida Grande', 'Verdana', 'Geneva', 'Lucid', 'Avant Garde', sans-serif; text-anchor: start" x="71.380199" y="271.006375" transform="rotate(-0 71.380199 271.006375)">A</text>
   </g>
   <g id="text_15">
    <text style="font-size: 9px; font-family: 'Helvetica', 'Arial', 'DejaVu Sans', 'Bitstream Vera Sans', 'Computer Modern Sans Serif', 'Lucida Grande', 'Verdana', 'Geneva', 'Lucid', 'Avant Garde', sans-serif; text-anchor: start" x="71.380199" y="176.506375" transform="rotate(-0 71.380199 176.506375)">AL</text>
   </g>
   <g id="text_16">
    <text style="font-size: 9px; font-family: 'Helvetica', 'Arial', 'DejaVu Sans', 'Bitstream Vera Sans', 'Computer Modern Sans Serif', 'Lucida Grande', 'Verdana', 'Geneva', 'Lucid', 'Avant Garde', sans-serif; text-anchor: start" x="71.380199" y="334.006375" transform="rotate(-0 71.380199 334.006375)">AM</text>
   </g>
   <g id="text_17">
    <text style="font-size: 9px; font-family: 'Helvetica', 'Arial', 'DejaVu Sans', 'Bitstream Vera Sans', 'Computer Modern Sans Serif', 'Lucida Grande', 'Verdana', 'Geneva', 'Lucid', 'Avant Garde', sans-serif; text-anchor: start" x="71.380199" y="63.106375" transform="rotate(-0 71.380199 63.106375)">LM</text>
   </g>
   <g id="text_18">
    <text style="font-size: 9px; font-family: 'Helvetica', 'Arial', 'DejaVu Sans', 'Bitstream Vera Sans', 'Computer Modern Sans Serif', 'Lucida Grande', 'Verdana', 'Geneva', 'Lucid', 'Avant Garde', sans-serif; text-anchor: start" x="71.380199" y="264.706375" transform="rotate(-0 71.380199 264.706375)">LI</text>
   </g>
   <g id="text_19">
    <text style="font-size: 9px; font-family: 'Helvetica', 'Arial', 'DejaVu Sans', 'Bitstream Vera Sans', 'Computer Modern Sans Serif', 'Lucida Grande', 'Verdana', 'Geneva', 'Lucid', 'Avant Garde', sans-serif; text-anchor: start" x="71.380199" y="466.306375" transform="rotate(-0 71.380199 466.306375)">PM</text>
   </g>
   <g id="text_20">
    <text style="font-size: 9px; font-family: 'Helvetica', 'Arial', 'DejaVu Sans', 'Bitstream Vera Sans', 'Computer Modern Sans Serif', 'Lucida Grande', 'Verdana', 'Geneva', 'Lucid', 'Avant Garde', sans-serif; text-anchor: start" x="578.652926" y="315.106375" transform="rotate(-0 578.652926 315.106375)">POR</text>
   </g>
   <g id="text_21">
    <text style="font-size: 9px; font-family: 'Helvetica', 'Arial', 'DejaVu Sans', 'Bitstream Vera Sans', 'Computer Modern Sans Serif', 'Lucida Grande', 'Verdana', 'Geneva', 'Lucid', 'Avant Garde', sans-serif; text-anchor: start" x="71.380199" y="315.106375" transform="rotate(-0 71.380199 315.106375)">RL</text>
   </g>
   <g id="text_22">
    <text style="font-size: 12px; font-family: 'Helvetica', 'Arial', 'DejaVu Sans', 'Bitstream Vera Sans', 'Computer Modern Sans Serif', 'Lucida Grande', 'Verdana', 'Geneva', 'Lucid', 'Avant Garde', sans-serif" transform="translate(274.3275 15.808125)">p20 - All Regions</text>
    <text style="font-size: 12px; font-family: 'Helvetica', 'Arial', 'DejaVu Sans', 'Bitstream Vera Sans', 'Computer Modern Sans Serif', 'Lucida Grande', 'Verdana', 'Geneva', 'Lucid', 'Avant Garde', sans-serif" transform="translate(217.3125 28.961625)">Averaged Replicates Analysis (zscore)</text>
    <text style="font-size: 12px; font-family: 'Helvetica', 'Arial', 'DejaVu Sans', 'Bitstream Vera Sans', 'Computer Modern Sans Serif', 'Lucida Grande', 'Verdana', 'Geneva', 'Lucid', 'Avant Garde', sans-serif" transform="translate(258.315938 41.946375)">r = -0.1345, r² = 0.0181</text>
   </g>
  </g>
 </g>
 <defs>
  <clipPath id="p685396ba93">
   <rect x="41.016562" y="47.946375" width="558" height="443.52"/>
  </clipPath>
 </defs>
</svg>
