<?xml version="1.0" encoding="utf-8" standalone="no"?>
<!DOCTYPE svg PUBLIC "-//W3C//DTD SVG 1.1//EN"
  "http://www.w3.org/Graphics/SVG/1.1/DTD/svg11.dtd">
<svg xmlns:xlink="http://www.w3.org/1999/xlink" width="606.216563pt" height="530.273562pt" viewBox="0 0 606.216563 530.273562" xmlns="http://www.w3.org/2000/svg" version="1.1">
 <metadata>
  <rdf:RDF xmlns:dc="http://purl.org/dc/elements/1.1/" xmlns:cc="http://creativecommons.org/ns#" xmlns:rdf="http://www.w3.org/1999/02/22-rdf-syntax-ns#">
   <cc:Work>
    <dc:type rdf:resource="http://purl.org/dc/dcmitype/StillImage"/>
    <dc:date>2026-02-24T12:29:35.311602</dc:date>
    <dc:format>image/svg+xml</dc:format>
    <dc:creator>
     <cc:Agent>
      <dc:title>Matplotlib v3.10.5, https://matplotlib.org/</dc:title>
     </cc:Agent>
    </dc:creator>
   </cc:Work>
  </rdf:RDF>
 </metadata>
 <defs>
  <style type="text/css">*{stroke-linejoin: round; stroke-linecap: butt}</style>
 </defs>
 <g id="figure_1">
  <g id="patch_1">
   <path d="M 0 530.273562 
L 606.216563 530.273562 
L 606.216563 0 
L 0 0 
z
" style="fill: #ffffff"/>
  </g>
  <g id="axes_1">
   <g id="patch_2">
    <path d="M 41.016562 491.4945 
L 599.016562 491.4945 
L 599.016562 47.9745 
L 41.016562 47.9745 
z
" style="fill: #ffffff"/>
   </g>
   <g id="PathCollection_1">
    <defs>
     <path id="C0_0_c198a03ccd" d="M 0 5 
C 1.326016 5 2.597899 4.473168 3.535534 3.535534 
C 4.473168 2.597899 5 1.326016 5 -0 
C 5 -1.326016 4.473168 -2.597899 3.535534 -3.535534 
C 2.597899 -4.473168 1.326016 -5 0 -5 
C -1.326016 -5 -2.597899 -4.473168 -3.535534 -3.535534 
C -4.473168 -2.597899 -5 -1.326016 -5 0 
C -5 1.326016 -4.473168 2.597899 -3.535534 3.535534 
C -2.597899 4.473168 -1.326016 5 0 5 
z
"/>
    </defs>
    <g clip-path="url(#p6dc357546d)">
     <use xlink:href="#C0_0_c198a03ccd" x="66.380199" y="68.1345" style="fill: #00008b"/>
    </g>
    <g clip-path="url(#p6dc357546d)">
     <use xlink:href="#C0_0_c198a03ccd" x="291.834744" y="471.3345" style="fill: #00008b"/>
    </g>
    <g clip-path="url(#p6dc357546d)">
     <use xlink:href="#C0_0_c198a03ccd" x="291.834744" y="383.9745" style="fill: #00008b"/>
    </g>
    <g clip-path="url(#p6dc357546d)">
     <use xlink:href="#C0_0_c198a03ccd" x="235.471108" y="121.8945" style="fill: #00008b"/>
    </g>
    <g clip-path="url(#p6dc357546d)">
     <use xlink:href="#C0_0_c198a03ccd" x="94.562017" y="404.1345" style="fill: #00008b"/>
    </g>
    <g clip-path="url(#p6dc357546d)">
     <use xlink:href="#C0_0_c198a03ccd" x="122.743835" y="330.2145" style="fill: #00008b"/>
    </g>
    <g clip-path="url(#p6dc357546d)">
     <use xlink:href="#C0_0_c198a03ccd" x="573.652926" y="269.7345" style="fill: #00008b"/>
    </g>
    <g clip-path="url(#p6dc357546d)">
     <use xlink:href="#C0_0_c198a03ccd" x="207.28929" y="390.6945" style="fill: #00008b"/>
    </g>
   </g>
   <g id="matplotlib.axis_1">
    <g id="xtick_1">
     <g id="line2d_1">
      <defs>
       <path id="mcda0182aba" d="M 0 0 
L 0 3.5 
" style="stroke: #000000; stroke-width: 0.8"/>
      </defs>
      <g>
       <use xlink:href="#mcda0182aba" x="133.935407" y="491.4945" style="stroke: #000000; stroke-width: 0.8"/>
      </g>
     </g>
     <g id="text_1">
      <text style="font-size: 10px; font-family: 'Helvetica', 'Arial', 'DejaVu Sans', 'Bitstream Vera Sans', 'Computer Modern Sans Serif', 'Lucida Grande', 'Verdana', 'Geneva', 'Lucid', 'Avant Garde', sans-serif; text-anchor: middle" x="133.935407" y="505.667937" transform="rotate(-0 133.935407 505.667937)">−2</text>
     </g>
    </g>
    <g id="xtick_2">
     <g id="line2d_2">
      <g>
       <use xlink:href="#mcda0182aba" x="235.471108" y="491.4945" style="stroke: #000000; stroke-width: 0.8"/>
      </g>
     </g>
     <g id="text_2">
      <text style="font-size: 10px; font-family: 'Helvetica', 'Arial', 'DejaVu Sans', 'Bitstream Vera Sans', 'Computer Modern Sans Serif', 'Lucida Grande', 'Verdana', 'Geneva', 'Lucid', 'Avant Garde', sans-serif; text-anchor: middle" x="235.471108" y="505.667937" transform="rotate(-0 235.471108 505.667937)">0</text>
     </g>
    </g>
    <g id="xtick_3">
     <g id="line2d_3">
      <g>
       <use xlink:href="#mcda0182aba" x="337.006809" y="491.4945" style="stroke: #000000; stroke-width: 0.8"/>
      </g>
     </g>
     <g id="text_3">
      <text style="font-size: 10px; font-family: 'Helvetica', 'Arial', 'DejaVu Sans', 'Bitstream Vera Sans', 'Computer Modern Sans Serif', 'Lucida Grande', 'Verdana', 'Geneva', 'Lucid', 'Avant Garde', sans-serif; text-anchor: middle" x="337.006809" y="505.667937" transform="rotate(-0 337.006809 505.667937)">2</text>
     </g>
    </g>
    <g id="xtick_4">
     <g id="line2d_4">
      <g>
       <use xlink:href="#mcda0182aba" x="438.542509" y="491.4945" style="stroke: #000000; stroke-width: 0.8"/>
      </g>
     </g>
     <g id="text_4">
      <text style="font-size: 10px; font-family: 'Helvetica', 'Arial', 'DejaVu Sans', 'Bitstream Vera Sans', 'Computer Modern Sans Serif', 'Lucida Grande', 'Verdana', 'Geneva', 'Lucid', 'Avant Garde', sans-serif; text-anchor: middle" x="438.542509" y="505.667937" transform="rotate(-0 438.542509 505.667937)">4</text>
     </g>
    </g>
    <g id="xtick_5">
     <g id="line2d_5">
      <g>
       <use xlink:href="#mcda0182aba" x="540.07821" y="491.4945" style="stroke: #000000; stroke-width: 0.8"/>
      </g>
     </g>
     <g id="text_5">
      <text style="font-size: 10px; font-family: 'Helvetica', 'Arial', 'DejaVu Sans', 'Bitstream Vera Sans', 'Computer Modern Sans Serif', 'Lucida Grande', 'Verdana', 'Geneva', 'Lucid', 'Avant Garde', sans-serif; text-anchor: middle" x="540.07821" y="505.667937" transform="rotate(-0 540.07821 505.667937)">6</text>
     </g>
    </g>
    <g id="text_6">
     <text style="font-size: 12px; font-family: 'Helvetica', 'Arial', 'DejaVu Sans', 'Bitstream Vera Sans', 'Computer Modern Sans Serif', 'Lucida Grande', 'Verdana', 'Geneva', 'Lucid', 'Avant Garde', sans-serif; text-anchor: middle" x="320.016563" y="520.501062" transform="rotate(-0 320.016563 520.501062)">H2B Intensity (Z-score)</text>
    </g>
    <g id="text_7">
     <text style="font-size: 10px; font-family: 'Helvetica', 'Arial', 'DejaVu Sans', 'Bitstream Vera Sans', 'Computer Modern Sans Serif', 'Lucida Grande', 'Verdana', 'Geneva', 'Lucid', 'Avant Garde', sans-serif; text-anchor: end" x="599.016562" y="517.92575" transform="rotate(-0 599.016562 517.92575)">1e−16</text>
    </g>
   </g>
   <g id="matplotlib.axis_2">
    <g id="ytick_1">
     <g id="line2d_6">
      <defs>
       <path id="mc1e057d7b8" d="M 0 0 
L -3.5 0 
" style="stroke: #000000; stroke-width: 0.8"/>
      </defs>
      <g>
       <use xlink:href="#mc1e057d7b8" x="41.016562" y="455.32261" style="stroke: #000000; stroke-width: 0.8"/>
      </g>
     </g>
     <g id="text_8">
      <text style="font-size: 10px; font-family: 'Helvetica', 'Arial', 'DejaVu Sans', 'Bitstream Vera Sans', 'Computer Modern Sans Serif', 'Lucida Grande', 'Verdana', 'Geneva', 'Lucid', 'Avant Garde', sans-serif; text-anchor: end" x="34.016562" y="458.909328" transform="rotate(-0 34.016562 458.909328)">−4</text>
     </g>
    </g>
    <g id="ytick_2">
     <g id="line2d_7">
      <g>
       <use xlink:href="#mc1e057d7b8" x="41.016562" y="382.688555" style="stroke: #000000; stroke-width: 0.8"/>
      </g>
     </g>
     <g id="text_9">
      <text style="font-size: 10px; font-family: 'Helvetica', 'Arial', 'DejaVu Sans', 'Bitstream Vera Sans', 'Computer Modern Sans Serif', 'Lucida Grande', 'Verdana', 'Geneva', 'Lucid', 'Avant Garde', sans-serif; text-anchor: end" x="34.016562" y="386.275274" transform="rotate(-0 34.016562 386.275274)">−2</text>
     </g>
    </g>
    <g id="ytick_3">
     <g id="line2d_8">
      <g>
       <use xlink:href="#mc1e057d7b8" x="41.016562" y="310.0545" style="stroke: #000000; stroke-width: 0.8"/>
      </g>
     </g>
     <g id="text_10">
      <text style="font-size: 10px; font-family: 'Helvetica', 'Arial', 'DejaVu Sans', 'Bitstream Vera Sans', 'Computer Modern Sans Serif', 'Lucida Grande', 'Verdana', 'Geneva', 'Lucid', 'Avant Garde', sans-serif; text-anchor: end" x="34.016562" y="313.641219" transform="rotate(-0 34.016562 313.641219)">0</text>
     </g>
    </g>
    <g id="ytick_4">
     <g id="line2d_9">
      <g>
       <use xlink:href="#mc1e057d7b8" x="41.016562" y="237.420445" style="stroke: #000000; stroke-width: 0.8"/>
      </g>
     </g>
     <g id="text_11">
      <text style="font-size: 10px; font-family: 'Helvetica', 'Arial', 'DejaVu Sans', 'Bitstream Vera Sans', 'Computer Modern Sans Serif', 'Lucida Grande', 'Verdana', 'Geneva', 'Lucid', 'Avant Garde', sans-serif; text-anchor: end" x="34.016562" y="241.007164" transform="rotate(-0 34.016562 241.007164)">2</text>
     </g>
    </g>
    <g id="ytick_5">
     <g id="line2d_10">
      <g>
       <use xlink:href="#mc1e057d7b8" x="41.016562" y="164.78639" style="stroke: #000000; stroke-width: 0.8"/>
      </g>
     </g>
     <g id="text_12">
      <text style="font-size: 10px; font-family: 'Helvetica', 'Arial', 'DejaVu Sans', 'Bitstream Vera Sans', 'Computer Modern Sans Serif', 'Lucida Grande', 'Verdana', 'Geneva', 'Lucid', 'Avant Garde', sans-serif; text-anchor: end" x="34.016562" y="168.373109" transform="rotate(-0 34.016562 168.373109)">4</text>
     </g>
    </g>
    <g id="ytick_6">
     <g id="line2d_11">
      <g>
       <use xlink:href="#mc1e057d7b8" x="41.016562" y="92.152336" style="stroke: #000000; stroke-width: 0.8"/>
      </g>
     </g>
     <g id="text_13">
      <text style="font-size: 10px; font-family: 'Helvetica', 'Arial', 'DejaVu Sans', 'Bitstream Vera Sans', 'Computer Modern Sans Serif', 'Lucida Grande', 'Verdana', 'Geneva', 'Lucid', 'Avant Garde', sans-serif; text-anchor: end" x="34.016562" y="95.739054" transform="rotate(-0 34.016562 95.739054)">6</text>
     </g>
    </g>
    <g id="text_14">
     <text style="font-size: 12px; font-family: 'Helvetica', 'Arial', 'DejaVu Sans', 'Bitstream Vera Sans', 'Computer Modern Sans Serif', 'Lucida Grande', 'Verdana', 'Geneva', 'Lucid', 'Avant Garde', sans-serif; text-anchor: middle" x="16.0425" y="269.7345" transform="rotate(-90 16.0425 269.7345)">VSV Intensity (Z-score)</text>
    </g>
    <g id="text_15">
     <text style="font-size: 10px; font-family: 'Helvetica', 'Arial', 'DejaVu Sans', 'Bitstream Vera Sans', 'Computer Modern Sans Serif', 'Lucida Grande', 'Verdana', 'Geneva', 'Lucid', 'Avant Garde', sans-serif; text-anchor: start" x="41.016562" y="44.9745" transform="rotate(-0 41.016562 44.9745)">1e−16</text>
    </g>
   </g>
   <g id="line2d_12">
    <path d="M 66.380199 283.977978 
L 71.504166 284.615449 
L 76.628133 285.252919 
L 81.7521 285.890389 
L 86.876067 286.52786 
L 92.000034 287.16533 
L 97.124001 287.8028 
L 102.247967 288.440271 
L 107.371934 289.077741 
L 112.495901 289.715211 
L 117.619868 290.352682 
L 122.743835 290.990152 
L 127.867802 291.627623 
L 132.991769 292.265093 
L 138.115736 292.902563 
L 143.239703 293.540034 
L 148.36367 294.177504 
L 153.487637 294.814974 
L 158.611604 295.452445 
L 163.735571 296.089915 
L 168.859538 296.727385 
L 173.983505 297.364856 
L 179.107472 298.002326 
L 184.231439 298.639796 
L 189.355405 299.277267 
L 194.479372 299.914737 
L 199.603339 300.552208 
L 204.727306 301.189678 
L 209.851273 301.827148 
L 214.97524 302.464619 
L 220.099207 303.102089 
L 225.223174 303.739559 
L 230.347141 304.37703 
L 235.471108 305.0145 
L 240.595075 305.65197 
L 245.719042 306.289441 
L 250.843009 306.926911 
L 255.966976 307.564381 
L 261.090943 308.201852 
L 266.21491 308.839322 
L 271.338877 309.476792 
L 276.462843 310.114263 
L 281.58681 310.751733 
L 286.710777 311.389204 
L 291.834744 312.026674 
L 296.958711 312.664144 
L 302.082678 313.301615 
L 307.206645 313.939085 
L 312.330612 314.576555 
L 317.454579 315.214026 
L 322.578546 315.851496 
L 327.702513 316.488966 
L 332.82648 317.126437 
L 337.950447 317.763907 
L 343.074414 318.401377 
L 348.198381 319.038848 
L 353.322348 319.676318 
L 358.446315 320.313789 
L 363.570282 320.951259 
L 368.694248 321.588729 
L 373.818215 322.2262 
L 378.942182 322.86367 
L 384.066149 323.50114 
L 389.190116 324.138611 
L 394.314083 324.776081 
L 399.43805 325.413551 
L 404.562017 326.051022 
L 409.685984 326.688492 
L 414.809951 327.325962 
L 419.933918 327.963433 
L 425.057885 328.600903 
L 430.181852 329.238374 
L 435.305819 329.875844 
L 440.429786 330.513314 
L 445.553753 331.150785 
L 450.67772 331.788255 
L 455.801686 332.425725 
L 460.925653 333.063196 
L 466.04962 333.700666 
L 471.173587 334.338136 
L 476.297554 334.975607 
L 481.421521 335.613077 
L 486.545488 336.250547 
L 491.669455 336.888018 
L 496.793422 337.525488 
L 501.917389 338.162958 
L 507.041356 338.800429 
L 512.165323 339.437899 
L 517.28929 340.07537 
L 522.413257 340.71284 
L 527.537224 341.35031 
L 532.661191 341.987781 
L 537.785158 342.625251 
L 542.909124 343.262721 
L 548.033091 343.900192 
L 553.157058 344.537662 
L 558.281025 345.175132 
L 563.404992 345.812603 
L 568.528959 346.450073 
L 573.652926 347.087543 
" clip-path="url(#p6dc357546d)" style="fill: none; stroke: #000000; stroke-width: 2; stroke-linecap: square"/>
   </g>
   <g id="patch_3">
    <path d="M 41.016562 491.4945 
L 41.016562 47.9745 
" style="fill: none; stroke: #000000; stroke-width: 0.8; stroke-linejoin: miter; stroke-linecap: square"/>
   </g>
   <g id="patch_4">
    <path d="M 41.016563 491.4945 
L 599.016562 491.4945 
" style="fill: none; stroke: #000000; stroke-width: 0.8; stroke-linejoin: miter; stroke-linecap: square"/>
   </g>
   <g id="text_16">
    <text style="font-size: 9px; font-family: 'Helvetica', 'Arial', 'DejaVu Sans', 'Bitstream Vera Sans', 'Computer Modern Sans Serif', 'Lucida Grande', 'Verdana', 'Geneva', 'Lucid', 'Avant Garde', sans-serif; text-anchor: start" x="71.380199" y="63.1345" transform="rotate(-0 71.380199 63.1345)">A</text>
   </g>
   <g id="text_17">
    <text style="font-size: 9px; font-family: 'Helvetica', 'Arial', 'DejaVu Sans', 'Bitstream Vera Sans', 'Computer Modern Sans Serif', 'Lucida Grande', 'Verdana', 'Geneva', 'Lucid', 'Avant Garde', sans-serif; text-anchor: start" x="296.834744" y="466.3345" transform="rotate(-0 296.834744 466.3345)">AL</text>
   </g>
   <g id="text_18">
    <text style="font-size: 9px; font-family: 'Helvetica', 'Arial', 'DejaVu Sans', 'Bitstream Vera Sans', 'Computer Modern Sans Serif', 'Lucida Grande', 'Verdana', 'Geneva', 'Lucid', 'Avant Garde', sans-serif; text-anchor: start" x="296.834744" y="378.9745" transform="rotate(-0 296.834744 378.9745)">AM</text>
   </g>
   <g id="text_19">
    <text style="font-size: 9px; font-family: 'Helvetica', 'Arial', 'DejaVu Sans', 'Bitstream Vera Sans', 'Computer Modern Sans Serif', 'Lucida Grande', 'Verdana', 'Geneva', 'Lucid', 'Avant Garde', sans-serif; text-anchor: start" x="240.471108" y="116.8945" transform="rotate(-0 240.471108 116.8945)">LM</text>
   </g>
   <g id="text_20">
    <text style="font-size: 9px; font-family: 'Helvetica', 'Arial', 'DejaVu Sans', 'Bitstream Vera Sans', 'Computer Modern Sans Serif', 'Lucida Grande', 'Verdana', 'Geneva', 'Lucid', 'Avant Garde', sans-serif; text-anchor: start" x="99.562017" y="399.1345" transform="rotate(-0 99.562017 399.1345)">LI</text>
   </g>
   <g id="text_21">
    <text style="font-size: 9px; font-family: 'Helvetica', 'Arial', 'DejaVu Sans', 'Bitstream Vera Sans', 'Computer Modern Sans Serif', 'Lucida Grande', 'Verdana', 'Geneva', 'Lucid', 'Avant Garde', sans-serif; text-anchor: start" x="127.743835" y="325.2145" transform="rotate(-0 127.743835 325.2145)">PM</text>
   </g>
   <g id="text_22">
    <text style="font-size: 9px; font-family: 'Helvetica', 'Arial', 'DejaVu Sans', 'Bitstream Vera Sans', 'Computer Modern Sans Serif', 'Lucida Grande', 'Verdana', 'Geneva', 'Lucid', 'Avant Garde', sans-serif; text-anchor: start" x="578.652926" y="264.7345" transform="rotate(-0 578.652926 264.7345)">POR</text>
   </g>
   <g id="text_23">
    <text style="font-size: 9px; font-family: 'Helvetica', 'Arial', 'DejaVu Sans', 'Bitstream Vera Sans', 'Computer Modern Sans Serif', 'Lucida Grande', 'Verdana', 'Geneva', 'Lucid', 'Avant Garde', sans-serif; text-anchor: start" x="212.28929" y="385.6945" transform="rotate(-0 212.28929 385.6945)">RL</text>
   </g>
   <g id="text_24">
    <text style="font-size: 12px; font-family: 'Helvetica', 'Arial', 'DejaVu Sans', 'Bitstream Vera Sans', 'Computer Modern Sans Serif', 'Lucida Grande', 'Verdana', 'Geneva', 'Lucid', 'Avant Garde', sans-serif" transform="translate(271.3275 15.83625)">adult - All Regions</text>
    <text style="font-size: 12px; font-family: 'Helvetica', 'Arial', 'DejaVu Sans', 'Bitstream Vera Sans', 'Computer Modern Sans Serif', 'Lucida Grande', 'Verdana', 'Geneva', 'Lucid', 'Avant Garde', sans-serif" transform="translate(217.3125 28.98975)">Averaged Replicates Analysis (zscore)</text>
    <text style="font-size: 12px; font-family: 'Helvetica', 'Arial', 'DejaVu Sans', 'Bitstream Vera Sans', 'Computer Modern Sans Serif', 'Lucida Grande', 'Verdana', 'Geneva', 'Lucid', 'Avant Garde', sans-serif" transform="translate(258.315938 41.9745)">r = -0.1408, r² = 0.0198</text>
   </g>
  </g>
 </g>
 <defs>
  <clipPath id="p6dc357546d">
   <rect x="41.016562" y="47.9745" width="558" height="443.52"/>
  </clipPath>
 </defs>
</svg>
