<?xml version="1.0" encoding="utf-8" standalone="no"?>
<!DOCTYPE svg PUBLIC "-//W3C//DTD SVG 1.1//EN"
  "http://www.w3.org/Graphics/SVG/1.1/DTD/svg11.dtd">
<svg xmlns:xlink="http://www.w3.org/1999/xlink" width="606.216563pt" height="530.245437pt" viewBox="0 0 606.216563 530.245437" xmlns="http://www.w3.org/2000/svg" version="1.1">
 <metadata>
  <rdf:RDF xmlns:dc="http://purl.org/dc/elements/1.1/" xmlns:cc="http://creativecommons.org/ns#" xmlns:rdf="http://www.w3.org/1999/02/22-rdf-syntax-ns#">
   <cc:Work>
    <dc:type rdf:resource="http://purl.org/dc/dcmitype/StillImage"/>
    <dc:date>2026-02-24T12:29:35.112352</dc:date>
    <dc:format>image/svg+xml</dc:format>
    <dc:creator>
     <cc:Agent>
      <dc:title>Matplotlib v3.10.5, https://matplotlib.org/</dc:title>
     </cc:Agent>
    </dc:creator>
   </cc:Work>
  </rdf:RDF>
 </metadata>
 <defs>
  <style type="text/css">*{stroke-linejoin: round; stroke-linecap: butt}</style>
 </defs>
 <g id="figure_1">
  <g id="patch_1">
   <path d="M 0 530.245437 
L 606.216563 530.245437 
L 606.216563 0 
L 0 0 
z
" style="fill: #ffffff"/>
  </g>
  <g id="axes_1">
   <g id="patch_2">
    <path d="M 41.016562 491.466375 
L 599.016562 491.466375 
L 599.016562 47.946375 
L 41.016562 47.946375 
z
" style="fill: #ffffff"/>
   </g>
   <g id="PathCollection_1">
    <defs>
     <path id="C0_0_69e8b80d50" d="M 0 5 
C 1.326016 5 2.597899 4.473168 3.535534 3.535534 
C 4.473168 2.597899 5 1.326016 5 -0 
C 5 -1.326016 4.473168 -2.597899 3.535534 -3.535534 
C 2.597899 -4.473168 1.326016 -5 0 -5 
C -1.326016 -5 -2.597899 -4.473168 -3.535534 -3.535534 
C -4.473168 -2.597899 -5 -1.326016 -5 0 
C -5 1.326016 -4.473168 2.597899 -3.535534 3.535534 
C -2.597899 4.473168 -1.326016 5 0 5 
z
"/>
    </defs>
    <g clip-path="url(#pf04e578ae5)">
     <use xlink:href="#C0_0_69e8b80d50" x="66.380199" y="471.306375" style="fill: #00008b"/>
    </g>
    <g clip-path="url(#pf04e578ae5)">
     <use xlink:href="#C0_0_69e8b80d50" x="66.380199" y="403.688984" style="fill: #00008b"/>
    </g>
    <g clip-path="url(#pf04e578ae5)">
     <use xlink:href="#C0_0_69e8b80d50" x="66.380199" y="418.715071" style="fill: #00008b"/>
    </g>
    <g clip-path="url(#pf04e578ae5)">
     <use xlink:href="#C0_0_69e8b80d50" x="66.380199" y="388.662897" style="fill: #00008b"/>
    </g>
    <g clip-path="url(#pf04e578ae5)">
     <use xlink:href="#C0_0_69e8b80d50" x="66.380199" y="68.106375" style="fill: #00008b"/>
    </g>
    <g clip-path="url(#pf04e578ae5)">
     <use xlink:href="#C0_0_69e8b80d50" x="66.380199" y="388.662897" style="fill: #00008b"/>
    </g>
    <g clip-path="url(#pf04e578ae5)">
     <use xlink:href="#C0_0_69e8b80d50" x="573.652926" y="388.662897" style="fill: #00008b"/>
    </g>
    <g clip-path="url(#pf04e578ae5)">
     <use xlink:href="#C0_0_69e8b80d50" x="66.380199" y="373.63681" style="fill: #00008b"/>
    </g>
   </g>
   <g id="matplotlib.axis_1">
    <g id="xtick_1">
     <g id="line2d_1">
      <defs>
       <path id="meec83d7ef8" d="M 0 0 
L 0 3.5 
" style="stroke: #000000; stroke-width: 0.8"/>
      </defs>
      <g>
       <use xlink:href="#meec83d7ef8" x="66.380199" y="491.466375" style="stroke: #000000; stroke-width: 0.8"/>
      </g>
     </g>
     <g id="text_1">
      <text style="font-size: 10px; font-family: 'Helvetica', 'Arial', 'DejaVu Sans', 'Bitstream Vera Sans', 'Computer Modern Sans Serif', 'Lucida Grande', 'Verdana', 'Geneva', 'Lucid', 'Avant Garde', sans-serif; text-anchor: middle" x="66.380199" y="505.639812" transform="rotate(-0 66.380199 505.639812)">0.0</text>
     </g>
    </g>
    <g id="xtick_2">
     <g id="line2d_2">
      <g>
       <use xlink:href="#meec83d7ef8" x="172.959252" y="491.466375" style="stroke: #000000; stroke-width: 0.8"/>
      </g>
     </g>
     <g id="text_2">
      <text style="font-size: 10px; font-family: 'Helvetica', 'Arial', 'DejaVu Sans', 'Bitstream Vera Sans', 'Computer Modern Sans Serif', 'Lucida Grande', 'Verdana', 'Geneva', 'Lucid', 'Avant Garde', sans-serif; text-anchor: middle" x="172.959252" y="505.639812" transform="rotate(-0 172.959252 505.639812)">0.1</text>
     </g>
    </g>
    <g id="xtick_3">
     <g id="line2d_3">
      <g>
       <use xlink:href="#meec83d7ef8" x="279.538305" y="491.466375" style="stroke: #000000; stroke-width: 0.8"/>
      </g>
     </g>
     <g id="text_3">
      <text style="font-size: 10px; font-family: 'Helvetica', 'Arial', 'DejaVu Sans', 'Bitstream Vera Sans', 'Computer Modern Sans Serif', 'Lucida Grande', 'Verdana', 'Geneva', 'Lucid', 'Avant Garde', sans-serif; text-anchor: middle" x="279.538305" y="505.639812" transform="rotate(-0 279.538305 505.639812)">0.2</text>
     </g>
    </g>
    <g id="xtick_4">
     <g id="line2d_4">
      <g>
       <use xlink:href="#meec83d7ef8" x="386.117358" y="491.466375" style="stroke: #000000; stroke-width: 0.8"/>
      </g>
     </g>
     <g id="text_4">
      <text style="font-size: 10px; font-family: 'Helvetica', 'Arial', 'DejaVu Sans', 'Bitstream Vera Sans', 'Computer Modern Sans Serif', 'Lucida Grande', 'Verdana', 'Geneva', 'Lucid', 'Avant Garde', sans-serif; text-anchor: middle" x="386.117358" y="505.639812" transform="rotate(-0 386.117358 505.639812)">0.3</text>
     </g>
    </g>
    <g id="xtick_5">
     <g id="line2d_5">
      <g>
       <use xlink:href="#meec83d7ef8" x="492.696411" y="491.466375" style="stroke: #000000; stroke-width: 0.8"/>
      </g>
     </g>
     <g id="text_5">
      <text style="font-size: 10px; font-family: 'Helvetica', 'Arial', 'DejaVu Sans', 'Bitstream Vera Sans', 'Computer Modern Sans Serif', 'Lucida Grande', 'Verdana', 'Geneva', 'Lucid', 'Avant Garde', sans-serif; text-anchor: middle" x="492.696411" y="505.639812" transform="rotate(-0 492.696411 505.639812)">0.4</text>
     </g>
    </g>
    <g id="text_6">
     <text style="font-size: 12px; font-family: 'Helvetica', 'Arial', 'DejaVu Sans', 'Bitstream Vera Sans', 'Computer Modern Sans Serif', 'Lucida Grande', 'Verdana', 'Geneva', 'Lucid', 'Avant Garde', sans-serif; text-anchor: middle" x="320.016563" y="520.472937" transform="rotate(-0 320.016563 520.472937)">H2B Intensity (Z-score)</text>
    </g>
   </g>
   <g id="matplotlib.axis_2">
    <g id="ytick_1">
     <g id="line2d_6">
      <defs>
       <path id="m9d961d31c8" d="M 0 0 
L -3.5 0 
" style="stroke: #000000; stroke-width: 0.8"/>
      </defs>
      <g>
       <use xlink:href="#m9d961d31c8" x="41.016562" y="442.80008" style="stroke: #000000; stroke-width: 0.8"/>
      </g>
     </g>
     <g id="text_7">
      <text style="font-size: 10px; font-family: 'Helvetica', 'Arial', 'DejaVu Sans', 'Bitstream Vera Sans', 'Computer Modern Sans Serif', 'Lucida Grande', 'Verdana', 'Geneva', 'Lucid', 'Avant Garde', sans-serif; text-anchor: end" x="34.016562" y="446.386799" transform="rotate(-0 34.016562 446.386799)">−1</text>
     </g>
    </g>
    <g id="ytick_2">
     <g id="line2d_7">
      <g>
       <use xlink:href="#m9d961d31c8" x="41.016562" y="388.662897" style="stroke: #000000; stroke-width: 0.8"/>
      </g>
     </g>
     <g id="text_8">
      <text style="font-size: 10px; font-family: 'Helvetica', 'Arial', 'DejaVu Sans', 'Bitstream Vera Sans', 'Computer Modern Sans Serif', 'Lucida Grande', 'Verdana', 'Geneva', 'Lucid', 'Avant Garde', sans-serif; text-anchor: end" x="34.016562" y="392.249615" transform="rotate(-0 34.016562 392.249615)">0</text>
     </g>
    </g>
    <g id="ytick_3">
     <g id="line2d_8">
      <g>
       <use xlink:href="#m9d961d31c8" x="41.016562" y="334.525713" style="stroke: #000000; stroke-width: 0.8"/>
      </g>
     </g>
     <g id="text_9">
      <text style="font-size: 10px; font-family: 'Helvetica', 'Arial', 'DejaVu Sans', 'Bitstream Vera Sans', 'Computer Modern Sans Serif', 'Lucida Grande', 'Verdana', 'Geneva', 'Lucid', 'Avant Garde', sans-serif; text-anchor: end" x="34.016562" y="338.112432" transform="rotate(-0 34.016562 338.112432)">1</text>
     </g>
    </g>
    <g id="ytick_4">
     <g id="line2d_9">
      <g>
       <use xlink:href="#m9d961d31c8" x="41.016562" y="280.388529" style="stroke: #000000; stroke-width: 0.8"/>
      </g>
     </g>
     <g id="text_10">
      <text style="font-size: 10px; font-family: 'Helvetica', 'Arial', 'DejaVu Sans', 'Bitstream Vera Sans', 'Computer Modern Sans Serif', 'Lucida Grande', 'Verdana', 'Geneva', 'Lucid', 'Avant Garde', sans-serif; text-anchor: end" x="34.016562" y="283.975248" transform="rotate(-0 34.016562 283.975248)">2</text>
     </g>
    </g>
    <g id="ytick_5">
     <g id="line2d_10">
      <g>
       <use xlink:href="#m9d961d31c8" x="41.016562" y="226.251346" style="stroke: #000000; stroke-width: 0.8"/>
      </g>
     </g>
     <g id="text_11">
      <text style="font-size: 10px; font-family: 'Helvetica', 'Arial', 'DejaVu Sans', 'Bitstream Vera Sans', 'Computer Modern Sans Serif', 'Lucida Grande', 'Verdana', 'Geneva', 'Lucid', 'Avant Garde', sans-serif; text-anchor: end" x="34.016562" y="229.838064" transform="rotate(-0 34.016562 229.838064)">3</text>
     </g>
    </g>
    <g id="ytick_6">
     <g id="line2d_11">
      <g>
       <use xlink:href="#m9d961d31c8" x="41.016562" y="172.114162" style="stroke: #000000; stroke-width: 0.8"/>
      </g>
     </g>
     <g id="text_12">
      <text style="font-size: 10px; font-family: 'Helvetica', 'Arial', 'DejaVu Sans', 'Bitstream Vera Sans', 'Computer Modern Sans Serif', 'Lucida Grande', 'Verdana', 'Geneva', 'Lucid', 'Avant Garde', sans-serif; text-anchor: end" x="34.016562" y="175.700881" transform="rotate(-0 34.016562 175.700881)">4</text>
     </g>
    </g>
    <g id="ytick_7">
     <g id="line2d_12">
      <g>
       <use xlink:href="#m9d961d31c8" x="41.016562" y="117.976978" style="stroke: #000000; stroke-width: 0.8"/>
      </g>
     </g>
     <g id="text_13">
      <text style="font-size: 10px; font-family: 'Helvetica', 'Arial', 'DejaVu Sans', 'Bitstream Vera Sans', 'Computer Modern Sans Serif', 'Lucida Grande', 'Verdana', 'Geneva', 'Lucid', 'Avant Garde', sans-serif; text-anchor: end" x="34.016562" y="121.563697" transform="rotate(-0 34.016562 121.563697)">5</text>
     </g>
    </g>
    <g id="ytick_8">
     <g id="line2d_13">
      <g>
       <use xlink:href="#m9d961d31c8" x="41.016562" y="63.839795" style="stroke: #000000; stroke-width: 0.8"/>
      </g>
     </g>
     <g id="text_14">
      <text style="font-size: 10px; font-family: 'Helvetica', 'Arial', 'DejaVu Sans', 'Bitstream Vera Sans', 'Computer Modern Sans Serif', 'Lucida Grande', 'Verdana', 'Geneva', 'Lucid', 'Avant Garde', sans-serif; text-anchor: end" x="34.016562" y="67.426513" transform="rotate(-0 34.016562 67.426513)">6</text>
     </g>
    </g>
    <g id="text_15">
     <text style="font-size: 12px; font-family: 'Helvetica', 'Arial', 'DejaVu Sans', 'Bitstream Vera Sans', 'Computer Modern Sans Serif', 'Lucida Grande', 'Verdana', 'Geneva', 'Lucid', 'Avant Garde', sans-serif; text-anchor: middle" x="16.0425" y="269.706375" transform="rotate(-90 16.0425 269.706375)">VSV Intensity (Z-score)</text>
    </g>
    <g id="text_16">
     <text style="font-size: 10px; font-family: 'Helvetica', 'Arial', 'DejaVu Sans', 'Bitstream Vera Sans', 'Computer Modern Sans Serif', 'Lucida Grande', 'Verdana', 'Geneva', 'Lucid', 'Avant Garde', sans-serif; text-anchor: start" x="41.016562" y="44.946375" transform="rotate(-0 41.016562 44.946375)">1e−16</text>
    </g>
   </g>
   <g id="line2d_14">
    <path d="M 66.380199 358.968487 
L 71.504166 359.26843 
L 76.628133 359.568374 
L 81.7521 359.868317 
L 86.876067 360.168261 
L 92.000034 360.468204 
L 97.124001 360.768148 
L 102.247967 361.068092 
L 107.371934 361.368035 
L 112.495901 361.667979 
L 117.619868 361.967922 
L 122.743835 362.267866 
L 127.867802 362.567809 
L 132.991769 362.867753 
L 138.115736 363.167696 
L 143.239703 363.46764 
L 148.36367 363.767583 
L 153.487637 364.067527 
L 158.611604 364.36747 
L 163.735571 364.667414 
L 168.859538 364.967357 
L 173.983505 365.267301 
L 179.107472 365.567245 
L 184.231439 365.867188 
L 189.355405 366.167132 
L 194.479372 366.467075 
L 199.603339 366.767019 
L 204.727306 367.066962 
L 209.851273 367.366906 
L 214.97524 367.666849 
L 220.099207 367.966793 
L 225.223174 368.266736 
L 230.347141 368.56668 
L 235.471108 368.866623 
L 240.595075 369.166567 
L 245.719042 369.466511 
L 250.843009 369.766454 
L 255.966976 370.066398 
L 261.090943 370.366341 
L 266.21491 370.666285 
L 271.338877 370.966228 
L 276.462843 371.266172 
L 281.58681 371.566115 
L 286.710777 371.866059 
L 291.834744 372.166002 
L 296.958711 372.465946 
L 302.082678 372.765889 
L 307.206645 373.065833 
L 312.330612 373.365776 
L 317.454579 373.66572 
L 322.578546 373.965664 
L 327.702513 374.265607 
L 332.82648 374.565551 
L 337.950447 374.865494 
L 343.074414 375.165438 
L 348.198381 375.465381 
L 353.322348 375.765325 
L 358.446315 376.065268 
L 363.570282 376.365212 
L 368.694248 376.665155 
L 373.818215 376.965099 
L 378.942182 377.265042 
L 384.066149 377.564986 
L 389.190116 377.864929 
L 394.314083 378.164873 
L 399.43805 378.464817 
L 404.562017 378.76476 
L 409.685984 379.064704 
L 414.809951 379.364647 
L 419.933918 379.664591 
L 425.057885 379.964534 
L 430.181852 380.264478 
L 435.305819 380.564421 
L 440.429786 380.864365 
L 445.553753 381.164308 
L 450.67772 381.464252 
L 455.801686 381.764195 
L 460.925653 382.064139 
L 466.04962 382.364083 
L 471.173587 382.664026 
L 476.297554 382.96397 
L 481.421521 383.263913 
L 486.545488 383.563857 
L 491.669455 383.8638 
L 496.793422 384.163744 
L 501.917389 384.463687 
L 507.041356 384.763631 
L 512.165323 385.063574 
L 517.28929 385.363518 
L 522.413257 385.663461 
L 527.537224 385.963405 
L 532.661191 386.263348 
L 537.785158 386.563292 
L 542.909124 386.863236 
L 548.033091 387.163179 
L 553.157058 387.463123 
L 558.281025 387.763066 
L 563.404992 388.06301 
L 568.528959 388.362953 
L 573.652926 388.662897 
" clip-path="url(#pf04e578ae5)" style="fill: none; stroke: #000000; stroke-width: 2; stroke-linecap: square"/>
   </g>
   <g id="patch_3">
    <path d="M 41.016562 491.466375 
L 41.016562 47.946375 
" style="fill: none; stroke: #000000; stroke-width: 0.8; stroke-linejoin: miter; stroke-linecap: square"/>
   </g>
   <g id="patch_4">
    <path d="M 41.016562 491.466375 
L 599.016562 491.466375 
" style="fill: none; stroke: #000000; stroke-width: 0.8; stroke-linejoin: miter; stroke-linecap: square"/>
   </g>
   <g id="text_17">
    <text style="font-size: 9px; font-family: 'Helvetica', 'Arial', 'DejaVu Sans', 'Bitstream Vera Sans', 'Computer Modern Sans Serif', 'Lucida Grande', 'Verdana', 'Geneva', 'Lucid', 'Avant Garde', sans-serif; text-anchor: start" x="71.380199" y="466.306375" transform="rotate(-0 71.380199 466.306375)">A</text>
   </g>
   <g id="text_18">
    <text style="font-size: 9px; font-family: 'Helvetica', 'Arial', 'DejaVu Sans', 'Bitstream Vera Sans', 'Computer Modern Sans Serif', 'Lucida Grande', 'Verdana', 'Geneva', 'Lucid', 'Avant Garde', sans-serif; text-anchor: start" x="71.380199" y="398.688984" transform="rotate(-0 71.380199 398.688984)">AL</text>
   </g>
   <g id="text_19">
    <text style="font-size: 9px; font-family: 'Helvetica', 'Arial', 'DejaVu Sans', 'Bitstream Vera Sans', 'Computer Modern Sans Serif', 'Lucida Grande', 'Verdana', 'Geneva', 'Lucid', 'Avant Garde', sans-serif; text-anchor: start" x="71.380199" y="413.715071" transform="rotate(-0 71.380199 413.715071)">AM</text>
   </g>
   <g id="text_20">
    <text style="font-size: 9px; font-family: 'Helvetica', 'Arial', 'DejaVu Sans', 'Bitstream Vera Sans', 'Computer Modern Sans Serif', 'Lucida Grande', 'Verdana', 'Geneva', 'Lucid', 'Avant Garde', sans-serif; text-anchor: start" x="71.380199" y="383.662897" transform="rotate(-0 71.380199 383.662897)">LM</text>
   </g>
   <g id="text_21">
    <text style="font-size: 9px; font-family: 'Helvetica', 'Arial', 'DejaVu Sans', 'Bitstream Vera Sans', 'Computer Modern Sans Serif', 'Lucida Grande', 'Verdana', 'Geneva', 'Lucid', 'Avant Garde', sans-serif; text-anchor: start" x="71.380199" y="63.106375" transform="rotate(-0 71.380199 63.106375)">LI</text>
   </g>
   <g id="text_22">
    <text style="font-size: 9px; font-family: 'Helvetica', 'Arial', 'DejaVu Sans', 'Bitstream Vera Sans', 'Computer Modern Sans Serif', 'Lucida Grande', 'Verdana', 'Geneva', 'Lucid', 'Avant Garde', sans-serif; text-anchor: start" x="71.380199" y="383.662897" transform="rotate(-0 71.380199 383.662897)">PM</text>
   </g>
   <g id="text_23">
    <text style="font-size: 9px; font-family: 'Helvetica', 'Arial', 'DejaVu Sans', 'Bitstream Vera Sans', 'Computer Modern Sans Serif', 'Lucida Grande', 'Verdana', 'Geneva', 'Lucid', 'Avant Garde', sans-serif; text-anchor: start" x="578.652926" y="383.662897" transform="rotate(-0 578.652926 383.662897)">POR</text>
   </g>
   <g id="text_24">
    <text style="font-size: 9px; font-family: 'Helvetica', 'Arial', 'DejaVu Sans', 'Bitstream Vera Sans', 'Computer Modern Sans Serif', 'Lucida Grande', 'Verdana', 'Geneva', 'Lucid', 'Avant Garde', sans-serif; text-anchor: start" x="71.380199" y="368.63681" transform="rotate(-0 71.380199 368.63681)">RL</text>
   </g>
   <g id="text_25">
    <text style="font-size: 12px; font-family: 'Helvetica', 'Arial', 'DejaVu Sans', 'Bitstream Vera Sans', 'Computer Modern Sans Serif', 'Lucida Grande', 'Verdana', 'Geneva', 'Lucid', 'Avant Garde', sans-serif" transform="translate(274.3275 15.808125)">p20 - All Regions</text>
    <text style="font-size: 12px; font-family: 'Helvetica', 'Arial', 'DejaVu Sans', 'Bitstream Vera Sans', 'Computer Modern Sans Serif', 'Lucida Grande', 'Verdana', 'Geneva', 'Lucid', 'Avant Garde', sans-serif" transform="translate(217.3125 28.961625)">Averaged Replicates Analysis (zscore)</text>
    <text style="font-size: 12px; font-family: 'Helvetica', 'Arial', 'DejaVu Sans', 'Bitstream Vera Sans', 'Computer Modern Sans Serif', 'Lucida Grande', 'Verdana', 'Geneva', 'Lucid', 'Avant Garde', sans-serif" transform="translate(258.315938 41.946375)">r = -0.0855, r² = 0.0073</text>
   </g>
  </g>
 </g>
 <defs>
  <clipPath id="pf04e578ae5">
   <rect x="41.016562" y="47.946375" width="558" height="443.52"/>
  </clipPath>
 </defs>
</svg>
